<?xml version="1.0" encoding="UTF-8"?><svg id="a" xmlns="http://www.w3.org/2000/svg" width="20.07mm" height="128.52mm" viewBox="0 0 56.88 364.32"><rect width="2.83" height="2.83"/><path d="M0,302.88c4.45-3.12,7.98-5.86,13.8-5.28,8.19.82,10.27,10.08,20.93,5.8,6.27-2.52,8.62-6.93,13.54-10.7,3.55-2.73,3.53.44,6.39,1.49.76.28,1.42.36,2.23.29v1.44c-2.58.2-4.53-1.84-6.55-3.09-5.1,3.94-9.01,9.44-15.12,12.01-7.31,3.08-10.29-1.02-16.24-4.01-4.18-2.1-7.94-3.03-12.25-.47,0,.28,2.28.48,2.75.61,4.24,1.21,7.36,5.2,11.42,6.82,7.03,2.81,13.6.39,19.92-2.87,5.15-2.66,10.13-6.87,16.07-7.33v1.2c-5.5.8-10.12,4.5-14.96,7-5.87,3.04-11.87,5.55-18.65,4.17s-11.69-9.74-19.14-7.89c-1.5.37-2.76,1.8-4.12,2.48v-1.68Z"/><path d="M56.88,38.64v1.44c-2.63-.09-4.58-1.92-6.6-3.3-5.05,4.15-9.16,9.64-15.39,12.15-6.85,2.76-9.64-.81-15.2-3.69-4.57-2.37-8.42-3.71-13.21-.71,6.59.13,10.25,6.36,16.32,7.92,7.34,1.89,13.32-1.07,19.6-4.4,4.66-2.47,9.04-6.08,14.48-6.52v1.44c-1.41.04-3.34.39-4.61.98-9.24,4.22-16.2,11.3-27.42,10.3-7.66-.68-12.13-9.06-19.44-8.39-2.21.2-3.59,1.63-5.4,2.64v-1.44c3.19-2.45,6.76-5.19,10.92-5.52,10.12-.8,12.65,10.49,24.04,5.8,5.6-2.31,8.16-6.36,12.55-10.01,4.06-3.37,3.18-1.26,6.48.49.89.47,1.84.94,2.88.84Z"/><path d="M0,174.96c5.27-4.12,10.59-7.3,17.37-4.29s8.8,8.47,17.84,4.57c6.27-2.71,8.79-7.78,13.77-11.19,2.23-1.52,3.57,1.24,5.58,2.07.77.32,1.47.54,2.32.44v1.44c-.82.05-1.5.02-2.29-.23-2.9-.91-3.04-4.37-6.59-1.58-4.83,3.81-7.79,9.33-14.45,10.99-8.52,2.13-10.09-2.18-16.54-5.2-3.55-1.66-7.15-1.56-10.53.45,5.98.14,9.61,5.61,14.82,7.5,7.4,2.68,13.89-.09,20.38-3.5,4.93-2.59,9.49-6.33,15.2-7v1.44c-5.3.59-9.76,4.2-14.39,6.61-6.82,3.54-14.38,6.85-22.08,3.59-4.16-1.76-7.35-5.95-12-6.96-3.63-.79-5.65.27-8.41,2.53v-1.68Z"/><path d="M56.88,149.76v1.2c-1.96-.72-3.7-.58-5.58.3-.81.38-1.54,1.17-2.34,1.5-3.18,1.29-11.99-2.24-15.96-2.52-11.68-.82-22.25,13.06-33,16.08v-1.2c9.16-3.02,16.36-12.09,25.38-15.06,4.53-1.49,8.48-.47,13.02-.06-1.36-3.79-4.26-2.1-7.09-2.39-3.17-.32-5.53-5.16-8.58-6.54-8.02-3.62-14.66,7.41-22.73,6.29v-1.2c8.23.5,14.42-9.89,22.96-6.28,2.98,1.26,3.89,3.7,6.19,5.57,2.77,2.24,3.79.45,6.74.7,2.26.2,2.61,2.91,4.36,4.06,2.23-.83,3.11-2.65,5.9-2.08,2.01.41,1.82,2.61,2.49,2.8,1.33.08,3.01-1.47,4.06-1.64,1.27-.2,2.99-.02,4.19.47ZM42,150.96c1.38.14,8.1,2.32,4.9-.93-1.49-1.51-3.9-.71-4.9.93Z"/><path d="M0,274.08c2.84.13,7.07-.8,8.67-3.34,1.88.59,1.09-.02,1.64-.62,1.2-1.3,7.18-2.97,9-2.96,5.98.04,6.51,3.72,10.19,6.56,2.65,2.04,4.73-.44,7.14.54,1.24.5,2.62,3.61,3.59,3.87s3.02-2.66,5.9-2.07c1.9.39,1.85,2.74,2.25,2.84,1.85.27,3.22-1.52,4.79-1.66,1.31-.12,2.44.12,3.69.45v1.44c-1.12-.33-2.02-.55-3.21-.45-1.82.16-2.73,1.38-4.42,1.82-4.92,1.28-9.96-1.72-14.81-2.09-11.09-.84-17.06,6.38-25.58,11.62-2.82,1.73-5.77,3.27-8.86,4.46v-1.44c1.85-.62,3.64-1.51,5.35-2.45,9.02-4.97,17.47-14.76,28.59-13.37,1.16.15,2.71,1.09,3.86.95.9-.11-.2-1.59-.5-1.9-1.51-1.52-3.85-.33-5.75-.49-3.59-.31-6.68-7.01-11.03-7.45-6.97-.7-13.26,7.52-20.52,6.96v-1.2ZM42,279.12c1.42.1,3.59,1.02,4.94.94,1.46-.09.23-1.77-.37-2.26-2.1-1.74-4.99.86-4.57,1.32Z"/><path d="M0,18.24c2.51-.05,6.34-1.02,8.29-2.64.23-.19.31-.63.39-.68.37-.22.99.25,1.17.1.21-.17.18-.71.61-1.08.54-.46,3.01-1.43,3.81-1.71,3.61-1.26,7.1-1.59,10.42.63,1.75,1.16,4.16,5,5.77,5.51,2.09.66,4.61-1.05,6.47,0,1.09.62,2.41,3.63,3.36,3.83,2.06-.78,3.32-2.75,5.8-2.19,1.96.44,1.41,1.55,2.12,2.62s3.26-.95,4.04-1.21c1.51-.5,3.1-.05,4.61.17v1.44c-1.37-.22-3.02-.58-4.39-.19-.77.22-1.75,1.11-2.65,1.43-4.11,1.46-8.42-.58-12.4-1.37-13.94-2.77-20.05,6.39-30.8,12.4-2.13,1.19-4.32,2.29-6.64,3.08v-1.44c2.22-.58,4.33-1.8,6.31-2.93,4.82-2.76,9.09-6.42,13.72-9.32,3.71-2.32,8.75-3.99,13.18-3.57,1.75.17,3.42,1.07,5.19,1.17-1.49-4.21-3.41-2.41-6.36-2.45-4.07-.06-7.06-7.23-11.76-7.63s-10.12,4.22-14.52,5.87c-1.88.71-3.74,1.19-5.76,1.32v-1.2ZM47.49,23.97c.34-3.23-4.1-3.72-5.49-1.05.83.41,4.91,1.4,5.49,1.05Z"/><path d="M0,112.08c4.22,1.86,9.55,5.45,14,2.12.8-.6,1.81-2.26,2.45-2.36,1.18-.19,2.63,1.04,3.85,1.18,3.26.39,4.63-2.32,6.81-4.06-.66,4.56-6.51,5.94-10.16,3.88-.5.09-1.43,1.6-1.86,1.98-2.6,2.32-6.36,2.17-9.57,1.59l2.71,1.72c3.45,1.57,13.22,4.03,16.82,3.53,1.27-.18,2.72-1.16,4.16-1.36,5.79-.79,8.55,4.81,16.67,2.75,3.86-.98,7.22-4.55,10.99-1.85v1.68c-1.44-.82-2.87-1.96-4.61-1.18-.19.08-.23.39-.37.45-4.68,2.29-8.99,3.53-14.22,2.05-3.46-.98-5.65-3.09-9.66-2.46-1.36.21-2.7,1.34-4.15,1.39-3.6.13-17.88-3.74-20.52-6.12-1.11-1-1.75-2.87-3.35-3.49v-1.44Z"/><path d="M0,240c4,1.95,9.08,5.26,13.47,2.55.85-.52,2.51-2.68,2.77-2.76,1.09-.33,2.63.98,3.81,1.14,2.05.28,3.3-.35,4.77-1.67.35-.31,1.98-2.48,2.29-2.15-.89,4.55-6.55,5.68-10.2,3.67-.87.73-1.36,1.72-2.3,2.43-2.52,1.89-6.16,1.86-9.1,1.1.83.89,2.24,1.57,3.36,2.03,2.87,1.19,13.14,3.94,15.85,3.38,1.13-.24,2.26-1.09,3.53-1.27,6.15-.9,9.63,4.45,17.34,2.7,2.89-.66,6.49-3.51,9.18-2.95.68.14,1.33.85,2.09.9v1.68c-1.34-.56-3.09-1.92-4.61-1.19-.3.14-.33.55-.57.68-3.58,1.83-7.22,2.73-11.27,2.44-4.72-.33-8.06-4.07-12.88-2.82-.97.25-1.97.97-2.97,1.11-3.64.51-17.67-3.41-20.72-5.63-1.41-1.03-2.1-3.19-3.86-3.7v-1.68Z"/><path d="M56.88,241.2v.72c-3.89-.09-7.15-2.75-10.08-5.04.39,2.94-1.57,6.07-4.69,6.24-7.2.41-9.36-12.32-14.87-15.08-1.43,1.62-1.8,3.34-3.6,4.75-5.64,4.4-14.39-.11-18.47-4.79-1.34,1.81-2.72,4.43-5.16,4.8v-1.2c1.9.28,4.37-5.15,5.13-5.02.27.05,3.41,3.01,4.16,3.54,4.61,3.21,11.67,5.25,15.54-.21.88-1.25.83-3.13,2.87-2.86,1.43.19,6.67,5.55,8.32,6.81,2.47,1.89,4.99,3.77,8.21,2.49.59-.23,1.67-1.17,2.17-1.1,3.08,2.63,6.25,5.58,10.48,5.95ZM46.08,236.4c-4.6,3.24-8.28-.75-12.48-2.4,1.15,2.53,2.68,5.52,5.11,7.01,4.32,2.65,7.57.2,7.36-4.61Z"/><path d="M56.88,113.28v.72c-3.8-.23-7.31-2.81-10.08-5.28.71,2.88-1.94,6.4-4.95,6.45-6.69.11-9.3-12.13-14.38-15.04-2.21,1.96-2.61,4.63-5.64,5.82-5.84,2.3-12.96-1.67-16.68-6.12-1.43,1.85-2.61,4.6-5.16,5.04v-1.2c1.06-.4,1.91-1.19,2.65-2.03.53-.61,1.98-3.26,2.52-3.18,4.41,4.66,12.31,9.83,18.34,4.83,2.01-1.67,2.21-5.7,5.29-3.81,4.4,2.71,9.56,11.34,15.7,8.72.7-.3,1.31-1.12,2.14-.89.37.1,3.48,3.23,4.57,3.85,1.53.87,3.95,1.96,5.68,2.12ZM46.08,108.48c-4.79,3.5-9.16-1.36-13.2-3.6-.33.36,3.62,6.1,4.2,6.72,4.07,4.42,8.99,3,9-3.12Z"/><path d="M56.88,357.12v1.44c-3.41-1.09-6.84-2.78-9.91-4.61-11.33-6.73-19.87-17.86-34.73-13.75-4.53,1.25-8.31,3.92-12.24,6.36v-1.68c5.32-3.31,10.67-6.63,17.15-6.97,11.78-.61,19.58,8.11,28.71,13.79,3.39,2.11,7.22,4.21,11.02,5.42Z"/><path d="M0,89.04c1.81-1.18,3.61-2.46,5.51-3.49,20.69-11.14,30.43,6.05,46.87,13.88,1.36.65,3.02,1.28,4.5,1.61v1.44c-16.01-4.2-26.3-23.33-44.58-18.3-4.65,1.28-8.21,3.94-12.3,6.3v-1.44Z"/><path d="M56.88,229.2v1.2c-2.35-.46-4.97-1.72-7.12-2.84-12.31-6.41-22.44-20.23-38.05-15.33-4.26,1.34-7.92,4.17-11.71,6.41v-1.68c6.17-4.27,12.51-7.51,20.29-6.97,9.82.68,17.43,8.63,25.33,13.55,3.52,2.19,7.38,4.24,11.26,5.66Z"/><path d="M56.88,129.6v1.44c-.97-.28-1.74-.81-2.79-.93-4.13-.5-6.19,2.55-9.7,3.69-5.29,1.72-8.96-.93-13.86-1.73-10.71-1.76-20.1,9.44-30.54,3.54v-1.68c8.61,6.65,17.24-3.33,26.04-3.38,6.56-.04,13.29,4.4,19.8,1.33,1.74-.82,3.06-2.4,5-2.92,2.21-.59,3.95-.04,6.05.65Z"/><path d="M56.88,67.92v1.44c-2.5-1.47-4-3.89-7.18-2.26-1.75.9-2.29,2.71-4.7,2.98-3.41.37-5.42-1.18-8.16-2.82-1.73,1.79-2.2,3.56-5.04,3.78-3.45.27-7.27-2.71-10.05-2.39-2.41.28-3.37,3.75-6.51,4.07-4.81.49-5.81-1.96-9.38-2.37-1.99-.23-2.09.6-3.33.7-.88.08-1.65-.32-2.52-.25v-1.44c.68-.04,1.37.07,2.05,0,.31-.03.63-.25.71-.25h3.84c1.03,0,4.24,2.23,6.23,2.41,4.35.38,4.38-2.05,7.25-3.57,4.32-2.28,10.7,5.05,14.48.32.64-.8.94-2.37,2.26-2.28.74.05,3.09,1.99,4.05,2.44,2.03.94,4.27,1.47,5.92-.41,1.12-1.28.88-2.57,2.99-2.77,3.25-.31,4.52,1.13,7.09,2.65Z"/><path d="M56.88,324v1.44c-1.67-.89-3.06-2.9-5.16-2.9-2.39,0-3.38,2.13-5.15,3.03-3.57,1.83-6.69-.68-9.74-2.23-1.47,1.19-1.74,2.8-3.71,3.42-4.23,1.32-8.13-2.6-11.63-2.03-1.69.27-2.91,2.66-4.28,3.4-1.05.57-3.39.78-4.61.67-2.48-.23-6.08-3.16-8.34-2.58-.45.12-.99.79-1.56.86-.67.09-1.88-.42-2.71-.19v-1.44l5.85-.47c3.55.94,6.63,3.97,10.45,2.01,1.75-.9,3.12-3.23,5.18-3.46,3.67-.41,8.95,4.15,12.25,1.69,1.12-.83,1.55-3.06,2.88-3.14,1.1-.07,3.36,2,4.69,2.54,1.55.63,3.53,1.04,5.03,0,1.28-.9,1.1-2.98,3.24-3.24,3.28-.39,4.79.94,7.33,2.65Z"/><path d="M56.88,1.68v1.44c-5.61-3.68-9.32,2.67-14.51,3.13s-8.25-1.93-12.76-2.38C18.95,2.8,10.54,13.36,0,7.68v-1.92c7.89,6.81,16.47-2.36,24.39-3.09,7.01-.64,14.02,4,20.72,1.52,2.13-.79,3.94-3.06,6.18-3.42,1.93-.31,3.82.14,5.58.9Z"/><path d="M56.88,196.08v1.2c-1.86-.96-4.72-3.92-6.95-2.51-2.99,1.89-2.38,4.33-7.5,3.16-1.6-.37-4.76-2.54-5.37-2.57-.84-.04-1.99,2.34-2.99,3-3.87,2.52-8.91-2.23-12.58-1.54-1.27.24-3.93,2.94-5.28,3.6-4.42,2.14-8.4-2.96-11.96-2.12-.53.12-.75.59-1.48.68-.79.1-2.01.06-2.77-.25v-.96c1.52.36,2.89-.53,4.22-.7,4.84-.63,7.18,4.29,12.02,1.94,1.42-.69,2.88-2.78,4.22-3.22,4.05-1.33,8.44,3.27,12.41,1.85,1.88-.67,2.48-3.71,3.96-3.7,1.25,0,4.26,3.53,7.43,3.35,3.77-.21,2.34-3.81,6-4.09,2.63-.2,4.59,1.44,6.61,2.89Z"/><path d="M56.88,257.76v1.2c-1.07-.13-1.99-.75-3.06-.9-3.52-.47-5.93,2.46-9.01,3.58-5.4,1.98-9.45-.75-14.52-1.66-10.77-1.92-19.74,9.81-30.29,3.53v-1.68c6.79,5.61,13.72.02,20.28-2.16,8.77-2.91,14.02,1.88,21.85,1.21,3.39-.29,4.33-1.75,6.91-3.17s5.37-1.27,7.85.05Z"/><path d="M39.6,364.32h-1.68l-4.92-3.36,1.56,3.36h-.96c-.48-1.56-4.75-8.16-6.12-8.17-1.59.98-2.09,3.18-3.47,4.46-4.53,4.15-12.38,1.18-16.44-2.29-.72-.62-1.73-1.53-2.05-2.39-.41-.3-1.8,2.1-2.16,2.51-.89,1.01-1.99,2.25-3.35,2.53v-1.44c1.88.4,4.45-5.15,5.13-5.02,4.5,5.05,14.36,10.56,19.59,3.46,1.66-2.25,1.29-4.39,4.78-1.9s6.18,6.33,10.1,8.26Z"/><path d="M0,187.68c7.04-5.58,12.67.89,19.2,2.28,6.12,1.31,10.84-2.88,16.92-2.52,3.3.2,8.63,1.68,10.55,4.57.19.29.74,1.47.02,1.18-.53-.2-1.88-1.33-2.6-1.72-11.26-5.97-14.81,1.01-24.73-.47-6.18-.92-9.75-6.29-16.36-3.57-1.12.46-2.03,1.22-2.99,1.93v-1.68Z"/><path d="M0,315.6c2.25-1.37,4.59-2.38,7.29-2.13,4.12.38,7.59,3.72,11.61,4.47,7.84,1.45,14.24-4.7,22.92-1.32,1.82.71,5.37,2.52,5.1,4.74-2.52-1.8-5.69-3.59-8.75-4.21-6.08-1.23-11.44,2.54-17.65,2.05-6.74-.53-10.66-6.59-17.64-3.71-1.11.46-1.91,1.14-2.88,1.8v-1.68Z"/><path d="M0,59.76c2.23-1.83,5.43-2.64,8.26-2.14,3.38.6,6.44,3.31,9.79,4.13,9.27,2.26,16.16-6.07,26.27.13,1.09.67,3.05,1.96,2.6,3.4-2.78-1.88-6.44-4-9.85-4.31-7.64-.71-12.73,4.33-21.3,1.14-2.49-.93-4.77-3.02-7.5-3.3-3.27-.33-5.88.39-8.28,2.64v-1.68Z"/><path d="M56.88,79.68v1.44c-1.36-.74-2.35-1.86-3.75-2.61-7.64-4.11-10.61-.06-17.73-.75-5.15-.5-9.7-4.97-15.3-4.02-2,.34-4.69,2.97-6.43.07.18-1.01.73-.26,1.38-.18,2.27.27,3.17-.88,5-1.12,6.19-.82,10.51,3.56,16.06,4.06,4.24.38,8.37-1.68,12.69-1.17,2.76.32,5.76,2.83,8.07,4.29Z"/><path d="M56.88,336.96c-1.49-.59-2.53-1.79-4.03-2.57-7.63-3.98-9.82-.05-16.73-.55-5.46-.4-10.73-5.22-16.27-4.02-1.76.38-3.31,2-5.31.87-.79-.44-1.34-1.54-.14-1.3,3.02.59,2.68-.21,5.21-.76,6.24-1.36,11.51,3.85,17.45,4.03,4.78.15,9.85-2.79,14.7-.32.28.14.32.46.48.54,1.59.84,3.12,1.65,4.62,2.65v1.44Z"/><path d="M56.88,207.6v1.44c-2.69-1.66-6.04-4.16-9.27-4.53-3.45-.4-7.26,1.5-10.76,1.42-5.38-.13-10.52-4.83-15.82-4.3-2.5.25-4.99,2.94-7.34.33-.19-.9,2.06-.32,2.77-.35,3.57-.16,6.61-1.11,10.32-.02,3.2.94,5.41,2.63,9.1,2.9,5.44.4,10.45-2.53,15.66-.3l5.35,3.41Z"/><path d="M56.88,202.8v.96c-1.12-.06-3.55-1.68-4.44-1.68h-6.36c.14-.43.6-.68,1-.8,1.36-.42,4.12-.33,5.54-.1,1.32.21,2.98,1.14,4.26,1.62Z"/><path d="M56.88,74.64v1.2l-5.2-2.09-5.6.4c.97-1.45,4.04-1.37,5.64-1.2,1.71.19,3.47,1.35,5.16,1.68Z"/><path d="M56.88,330.72v.96c-1.69-.18-3.85-1.7-5.42-1.91-1.36-.18-3.87.52-5.38.35.06-.62,1.13-.94,1.62-1.02,3.3-.55,6.22.34,9.18,1.62Z"/><path d="M47.52,364.32h-2.88c.84-1.05,2.2-1.43,2.88,0Z"/></svg>