<?xml version="1.0" encoding="UTF-8"?><svg id="a" xmlns="http://www.w3.org/2000/svg" width="20.07mm" height="128.52mm" viewBox="0 0 56.88 364.32"><path d="M56.88,49.2c-1.45.15-3.26-.21-4.66.01-.87.14-1.28.83-2.42.73-.96-.09-1.39-1.21-2.36-1.44-1.14.19-1.76,4.29-4.47.69l-3.48,8.4c-.4.1-.72-.57-.78-.89-.35-1.61-.13-3.8-.32-5.44-.05-.47-.18-1.39-.69-1.59l-3.12,13.44c-.36-7.39.63-14.83.25-22.21-.07-1.32-.25-3.46-.57-4.72-.11-.45,0-1.08-.64-.91-1.93,8.79-.87,18.09-2.2,26.97-.25,1.67-.59,3.88-1.36,5.36-.32.61-.63,1.57-1.5,1.17-.94-.66-.79-9.04-.72-10.59.39-8.36,3.31-22.68,1.57-30.35-.06-.27,0-.78-.36-.72-3.2,15.02-.78,31.59-5.75,46.21-.26.76-.62,1.97-1.21,2.51-.02-5.25-.03-10.5.23-15.73.49-10.07,1.88-20.15,2.18-30.22.07-2.36.21-5.64,0-7.93-.04-.46-.25-1.56-.72-1.8-.8,3.33-1.15,6.79-1.44,10.2-1.39,16.44-1.05,33.97-4.87,50.08-.54,2.26-3.2,11.41-5.08,4.52-2.96-10.83,1.89-27.99,2.76-39.48s0-22.28,2.72-33.52c.27-1.1.81-4.43,1.97-1.88,1.29,2.86.48,12.22.36,15.72-.21,5.9-.44,11.86-.96,17.76-1.17,13.24-3.86,26.38-3.83,39.72l1.56-5.04c2.77-13.01,3.51-26.45,4.2-39.71.28-5.29-.15-12.18,1.49-17.22.18-.55,1.22-3.18,1.97-2.34.34.64.53,1.55.6,2.28.36,4-.12,8.25-.25,12.23-.14,4.31-.18,8.65-.47,12.97-.6,8.76-2.07,17.47-1.91,26.28l.89-2.11c3.14-11.78,2.17-24.15,3.43-36.17.33-3.12.69-6.34,1.92-9.24.81-.63,1.39,2.92,1.43,3.24,1.34,9.6-1.06,20.56-1.67,30.24-.19,2.91-.4,5.86,0,8.76,1.6-1.26,1.86-4.42,2.13-6.39,1.08-7.92.32-16.24,1.79-24.13.22-1.21.52-2.39.89-3.56,1.13-.81,1.84,3.39,1.91,3.96.48,3.64.02,7,0,10.54-.01,1.53.35,2.93.25,4.45l3.27-12.25.84.15,1.18,5.62c.25.2,1.46-2.31,2.75-2.17.59.06,1.52,2.1,2.69,2.36s2.64,0,3.76-.17l6.86.7v.96c-1.87.02-3.79-.62-5.63-.73-3.1-.19-5.86,1.25-7.68-2.15l-3,2.16-1.56-5.04c-.37.29-.39.77-.49,1.19-.2.82-.97,5.37-.71,5.77s1.05.39,1.27,1.37c.12.52,0,5.58.41,5.59,1.15-2.53,1.27-5.63,3.38-7.67l2.14,1.68c.58,0,1.1-1.87,2.66-1.92,1.16-.04,1.38,1.15,2.37,1.21.71.04,1.21-.43,1.91-.51,1.52-.19,3.37.15,4.92,0v.72ZM14.19,85.92c.63-4.89.55-9.84.96-14.76,1.19-14.25,3.53-28.43,4.31-42.72.25-4.59.59-10.34.25-14.89-.06-.79-.31-1.51-.49-2.27-.34-.06-.32.42-.41.67-3.42,10.69-2.21,25.56-3.19,36.89-.85,9.83-4.55,24.2-3.09,33.57.05.29.94,4.35,1.65,3.51Z"/><path d="M56.88,305.28c-1.53.16-3.43-.22-4.9.01-.79.13-1.23.8-2.15.7-1.01-.1-1.43-1.32-2.43-1.44-.71.02-1.2,2-2.18,2.1s-1.54-.95-2.24-1.38c-.33.25-2.47,6.55-3.07,7.61-.16.28-.24.57-.65.56-.47.12-.55-.58-.58-.87-.19-1.75-.04-4.05-.32-5.68-.07-.38-.22-1.02-.66-1.14l-3.12,13.2c-.36-7.31.62-14.67.25-21.97-.07-1.32-.25-3.46-.57-4.72-.11-.45,0-1.08-.64-.91-1.97,8.79-.85,18.09-2.19,26.97-.24,1.56-.64,3.78-1.29,5.19-.41.91-.65,1.48-1.77,1.18-1.36-6.52,0-13.23.45-19.77.38-5.37,1.83-16.28.65-21.05-.06-.24-.07-.72-.41-.67-3.41,15.39-.5,33.19-6.42,47.95-.15.36.14.65-.54.53-.01-5.25-.03-10.5.23-15.73.5-10.07,1.9-20.14,2.18-30.22.06-2.3.2-5.47-.01-7.69-.05-.53-.16-1.57-.71-1.8-1.49,7.04-1.66,14.31-2.16,21.48-.87,12.52-1.18,25.31-3.91,37.6-.39,1.77-2.87,12.45-5.14,6.25-3.4-9.29,1.77-29.54,2.57-40.02s.14-19.78,2-29.92c.15-.82,1.12-6.21,1.37-6.43,1.3-1.09,1.85,3.04,1.9,3.71.28,3.42.12,8.03.01,11.53-.49,16.14-3.23,31.6-4.56,47.51-.31,3.7-.45,7.45-.48,11.16l.84-2.16c3.48-13.78,4.18-28.2,4.93-42.35.29-5.38-.17-12.28,1.55-17.41.33-.98.8-2.47,2.04-2.4.66.56.53,11.41.49,13.09-.27,10.66-1.71,21.27-2.41,31.91-.19,2.9-.24,5.85-.24,8.76.34.06.31-.4.41-.66,3.92-9.91,2.77-26.42,3.9-37.38.13-1.29,1.02-9,2.04-9.24,1.13.34,1.17,2.23,1.31,3.24,1.33,9.65-1.08,20.52-1.67,30.24-.17,2.82-.42,5.71,0,8.52.43.09.47-.13.68-.4,2.3-3.02,2.12-21.41,2.68-26.36.27-2.39.71-4.79,1.44-7.08,1.23-.85,1.83,3.33,1.91,3.96.47,3.66,0,7,0,10.55,0,1.5.39,2.95.25,4.45l3.12-12.48c.61-.09.74.07,1.01.55.55.99.57,4.86,1.27,5.21l1.66-1.69c1.48-.86,1.65.59,2.52,1.34,1.67,1.44,3.39.53,5.42.58s4.29.69,6.34.73v.96l-6.85-.97c-2.3.27-5.37,1.05-6.11-1.91-.43-.32-2.77,2.32-3.35,1.92l-1.68-5.04-1.15,7.15c2.49,1.14.85,4.79,1.75,7.01,1.15-2.53,1.27-5.63,3.38-7.67l1.93,1.65c.69.12,1.7-2.67,3.87-1.74.48.21.39.94,1.15,1.05.67.1,1.41-.43,2.14-.49,1.58-.13,3.32.1,4.92,0v.72ZM14.19,342c.25-2.91.51-5.84.72-8.76,1.26-17.97,4.26-35.98,4.81-53.99.12-3.94.21-8.29-.49-12.13l-1.32,5.03c-2.13,10.78-1.32,21.88-2.28,32.76-.87,9.91-4.53,24.06-3.09,33.57.04.29.95,4.36,1.65,3.51Z"/><path d="M56.88,177.12c-1.34.1-2.86-.15-4.18.02-.84.11-2.32,1.01-2.89.95-.66-.07-1.45-1.54-2.4-1.46-.85.07-1.15,1.94-2.4,1.95-.85.01-1.39-.67-1.92-1.21-.81.96-3.02,7.89-3.6,8.15-.1.04-.64.1-.6-.15-.5-2-.31-4.18-.51-6.17-.02-.22-.22-1.91-.69-1.35l-3.12,13.2c-.35-7.39.63-14.83.25-22.21-.06-1.21-.24-3.64-.55-4.73-.1-.35-.26-.79-.66-.9-.66,2.61-.95,5.35-1.2,8.04-.6,6.41-.42,13.35-1.23,19.65-.26,2.02-.8,4.07-1.88,5.8-.85.54-1.32-.81-1.43-1.47-1.05-6.82.93-16.85,1.42-23.98.27-4.03,1.07-11.64.17-15.29-.06-.24-.07-.72-.41-.67-2.92,14.13-1.18,29.02-4.87,43.01-.46,1.75-1,4.09-2.09,5.47-.02-5.25-.03-10.5.23-15.73.5-10.06,1.9-20.15,2.18-30.22.06-2.3.31-7.07-.32-9.06-.08-.25-.06-.73-.4-.67-.74,3.34-1.15,6.78-1.44,10.2-1.38,16.21-1.05,33.4-4.68,49.32-.54,2.37-3.11,12.4-5.41,5.17-2.9-9.12,2.07-28.91,2.89-39.13.56-7,.11-14.11.72-21.12.15-1.73,2.02-14.78,2.66-15.22,1.62-.42,1.8,2.51,1.9,3.7.25,3.29.13,7.7.01,11.05-.54,15.81-3.33,31.52-4.57,47.27-.35,4.43-.39,8.89-.72,13.32.39-.11.59-.95.72-1.31,2.89-7.87,4.17-25.72,4.79-34.57.58-8.32-.18-18.34,1.75-26.33.15-.63,1.03-4.28,2.08-3.55,1.05,2.9.81,6.38.73,9.49-.22,8.61-1.16,17.3-1.69,25.91-.37,6.03-.55,12.09-.96,18.12l1.37-3.55c3.34-12.89.99-27.6,3.78-40.38.14-.62.83-3.77,1.8-3.11.4.27.93,5.06.97,5.87.49,9.21-1.35,18.24-1.93,27.37-.18,2.9-.42,5.87,0,8.76.55.14.39-.11.55-.3,2.48-3.14,2.22-21.35,2.81-26.45.13-1.14.88-6.48,1.67-6.97h.74c2.18,5.99.6,12.62,1.19,18.85l3.12-12.48c.26-.02.49-.04.73.11.78.5.97,4.39,1.19,5.41.3.31,1.53-1.31,1.98-1.5,2.71-1.11,2.08,1.76,3.47,2.17,1.1.32,3.78-.26,5.24-.2,1.78.07,3.83.54,5.63.73v.96c-1.97-.2-4.16-.84-6.12-.96-2.73-.16-5.58,1.38-6.97-1.94l-3.22,1.94-1.56-5.04c-.48.71-.57,1.79-.73,2.63s-.66,3.29-.6,3.96c.07.76,1.17.77,1.39,1.73.14.63-.1,5.58.41,5.59,1.16-2.57,1.28-5.76,3.6-7.68l1.92,1.68c.7,0,1.51-1.93,2.88-1.9.87.02,1.19,1.03,1.92,1.17,2.1.4,4.87-.57,7.07-.24v.48ZM14.19,214.08c.6-4.26.41-8.55.72-12.84,1.38-18.9,5.31-38.69,5.04-57.6-.02-1.39-.44-3.08-.72-4.44-.34-.06-.33.42-.41.67-3.42,10.97-2.19,25.59-3.19,37.13-.86,9.91-4.54,24.06-3.09,33.58.18,1.19.51,2.91,1.65,3.5Z"/><path d="M.04,237.36c10.02,1.62,20.02,1.33,30.1.48,4.09-.35,9.24-1.47,13.19-1.44,1.26.01,3.44.72,4.56.6.92-.1,1.66-2.31,2.87-2.31,1.09,0,2.11,2.32,2.52,1.94.23-.84,1.04-6.87,2.61-5.97l.99,2.13v5.76c-.55-.17-.47-.62-.49-1.07-.09-1.72.23-4.31-.94-5.65l-2.28,6.24-2.61-2.38c-.73.44-1.91,2.26-2.71,2.33-.38.03-1.27-.56-1.9-.65-3.78-.53-8.27,1.13-12.09,1.18l2.76.48c1.43-.32,5.85.8,6.82.36.29-.13.51-.58.95-.73,2.31-.76,3.8,2.01,4.9,1.83,2.97-5.52,4.9,2.11,5.43,4.78.46-.08.4-.5.49-.83.45-1.57.46-3.36.95-4.93.63.04,0,.94,0,1.08v3.84c-.34.59-.19,3.8-1.33,2.77-1.01-.92-2.22-7.94-3.35-7.93-2.39,3.37-3.01,2.17-5.53-.01-1.1.13-1.48.86-2.61.98-3.61.38-7.66-.79-11.28-.99-6.09-.33-12.16.57-18.23.74-4.62.13-9.2-.18-13.8-.25v-.48l8.64-.12-8.64-.84v-.96Z"/><path d="M56.88,105.36v4.56c-.85-1.38-.84-3.35-1.2-4.92-.09-.37.16-.42-.47-.36l-1.69,5.27c-1.55.28-1.62-1.69-2.74-2.33-.78-.06-1.68,2.77-3.54,2.29-.34-.09-.62-.52-1.07-.62-1.32-.31-6.2.46-7.83.71-1.12.17-2.51.28-3.52.8,3.17.33,6.24.83,9.41.3.49-.08,1.43-.61,1.75-.58.35.04,1.67,1.91,2.84,1.78.95-.1,1.74-2.06,2.8-1.76,1.62.45,2.84,5.29,3.11,6.86.46-.08.4-.5.49-.83.37-1.33.39-2.91.78-4.26l.17.17v4.32c0,.2-.61,2.67-.72,2.76-.36.07-.52-.1-.72-.35-1.02-1.27-1.68-7.19-3.24-7.8l-1.81,1.78-.83.36c-1.42-.12-1.57-2.09-2.88-2.17-.89-.05-2.53.91-3.83.99-2.93.19-6.58-.82-9.59-.98-5.4-.28-10.94.14-16.31.26s-10.8.16-16.2.47v-.72c.75-.01,8.15.14,8.16-.36L.04,110.4v-.96c4.89.64,9.84.83,14.74,1.21l8.41-.24,19.42-1.93c1.55-.37,3.89.73,5.26.48,1.16-.21,1.32-2.17,2.89-2.17,1.32,0,1.46,1.26,2.28,1.93.25-1.16.54-2.37.96-3.48.25-.66,1.09-3.3,2.04-2.28l.84,2.4Z"/><path d="M.04,184.56c-.09-1.26.07-2.57,0-3.84l2.4,12.48.36-.24c2.23-11.86,4.08-23.87,3.71-36-.46.25-.69,1.2-.84,1.68-1.92,6.13-1.26,13.14-2.58,19.26-.1.47-.33,1.71-.8,1.85-.32.09-.48.01-.7-.22-1.47-1.58-.26-9.78-1.55-12v-.96c.82-.28,1.05.81,1.14,1.38.57,3.29-.02,6.69.6,9.97.04.22.1.72.42.66.38-2.26.71-4.56.96-6.84.51-4.7.32-10.41,2.28-14.75.21-.48.6-1.46,1.2-1.46.55.02.7.71.78,1.15.78,4.25-.2,13.13-.66,17.7-.53,5.18-1.72,16.76-3.78,21.18-.66,1.41-1.25-1.2-1.42-1.8-.68-2.43-1.33-6.66-1.51-9.17Z"/><path d="M.04,38.4c.75-.01,1.03,1.05,1.14,1.62.63,3.26.09,7.04.54,10.38.05.07.29-.12.36-.24.38-.66.69-3.74.81-4.71.62-4.92.6-10.3,1.97-15.07.35-1.22.72-3.18,2.36-2.75.62,6.19.18,12.62-.46,18.81-.74,7.23-1.86,14.5-3.84,21.48h-.71s-1.14-4.27-1.14-4.27L.04,56.88v-4.32l1.99,11.09c.12.16.41,2.2.89,1.63,1.94-12.05,3.91-24.23,3.84-36.48-.45-.56-1.07,1.67-1.13,1.87-1.73,5.9-1.41,12.8-2.5,18.85-.1.57-.44,3.24-1.52,2.08-1.48-1.58-.21-9.57-1.55-11.76v-1.44Z"/><path d="M.04,294.48c.77,0,1.01,1.03,1.14,1.62.66,2.92.17,6.65.54,9.79.04.35.18.73.48.36.92-5.41,1.03-10.99,1.96-16.4.33-1.93.69-6.31,3.08-6.4.71,9.38-.28,19.11-1.72,28.4-.51,3.28-1.19,8.49-2.48,11.44-.09.21-.28.8-.6.6-.33-.23-.7-1.58-.84-2.04-.66-2.25-1.36-6.54-1.56-8.88-.12-1.39.09-2.91,0-4.32.95,3.28,1.02,6.76,1.8,10.08.2.85.31,2.17,1.08,2.64,1.93-12.12,3.93-24.39,3.84-36.72-1,.85-1.29,2.59-1.56,3.83-1.37,6.23-1.07,12.95-2.53,19.18h-1.14c-1.32-3.85-.17-8.15-1.47-11.97v-1.2Z"/><path d="M56.88,361.44v2.88h-.72c-.15-1.17-.15-2.98-.96-3.84l-1.2,3.84h-.96c.46-.96,1.35-5.91,2.73-5.51.12.03.2.13.27.22l.84,2.4Z"/><path d="M52.56,364.32h-3.6c.75-2.12,2.8-2.07,3.6,0Z"/><path d="M14.14,144.53c.36.5.55,8.18.54,9.44-.08,7.99-.95,16.93-1.69,24.95s-1.55,18.09-3.19,26.09c-1.01,4.92-2.96,3-3.28-.65-1.04-11.63,2.02-25.29,3.11-36.96.6-6.42.33-13.76,1.84-20,.33-1.37.79-4,2.67-2.86ZM13.11,145.2c-1.09,0-2.15,12.44-2.28,13.8-.26,2.94-.2,5.94-.48,8.88-.87,9.11-2.98,18.19-3.37,27.35-.05,1.24-.1,11.38,1.33,11.41.93-1.63,1.05-3.82,1.29-5.67,1.98-15.01,3.64-32.61,4.12-47.72.06-1.88.19-4.69-.01-6.49-.06-.54-.16-1.17-.6-1.56Z"/><path d="M13.89,272.47c.39.36.72,2.11.78,2.7.66,7.18-.37,16.91-.96,24.23-.8,10.04-1.77,21.02-3.4,30.92-.17,1.03-.72,4.87-1.27,5.44-.21.22-.41.29-.71.25-1.22-.13-1.72-2.74-1.81-3.74-1.05-11.57,2.03-25.12,3.11-36.72.57-6.06.47-12.18,1.48-18.2.17-1.01.8-4.91,1.81-5.16.33-.05.73.05.97.27ZM13.47,273.36c-.84-.78-1.59,3.91-1.64,4.23-.99,5.99-.89,12.17-1.47,18.21-.78,8.09-2.5,16.13-3.11,24.24-.36,4.78-.7,9.91.72,14.52,1.27.95.92-4.77.95-5.17.89-14.15,3.98-28.11,5.05-42.23.34-4.48.68-9.46-.48-13.8Z"/><path d="M12.54,16.36c1.56-.48,1.96,1.29,2.1,2.51.43,3.71-.06,8.02-.21,11.74-.54,13.2-1.79,27.2-3.63,40.28-.19,1.36-1.07,8.43-1.88,8.92-1.67,1.02-2.31-2.55-2.4-3.61-1.04-11.59,2.02-25.11,3.11-36.72.45-4.78.41-9.62.96-14.4.34-2.94.72-6.02,1.95-8.72ZM7.96,78.48c1.28.94.92-4.77.95-5.17.98-15.07,4.6-30.36,5.3-45.34.06-1.23.26-10.69-1.09-10.69-1.03,1.69-1.26,4.16-1.53,6.15-.73,5.48-.7,11.04-1.23,16.53-.78,8.01-2.5,15.97-3.11,24-.36,4.75-.71,9.96.72,14.52Z"/><rect x="0" width="8.5" height="8.5"/></svg>