<?xml version="1.0" encoding="UTF-8"?><svg id="a" xmlns="http://www.w3.org/2000/svg" width="59.94mm" height="128.52mm" viewBox="0 0 169.92 364.32"><path d="M108.24,0l.24,45c9.01,25.54,6.17,52.31,5.27,78.71-.51,15.06,2.35,25.9,4.06,40.36.32,2.7.42,5.42.76,8.12-.39.47-.38.13-.51-.21-.86-2.29-1.01-6.03-1.49-8.59-1.45-7.81-3.57-15.67-4.24-23.6s.86-16.52,1.2-24.72c.6-14.74.22-30.63-.96-45.36-.5-6.14-1.62-12.79-4.2-18.36l-.36.59.23,85.93c1.08,9.77,3.98,19.05,5.26,28.82,2.24,17.21,1.34,34.32.5,51.56-.28,5.88-1.5,12.01-1.2,17.78.66,12.75,6.02,26.48,5.78,39.1,0,.49.15.7-.49.61-2.07-7.12-2.12-14.61-3.44-21.88s-3.46-12.65-3.04-20.23c.24-4.31,1.17-8.63,1.45-12.95.36-5.75-.47-11.72-.02-17.3.15-1.82.84-3.84.97-5.75.46-6.91-.92-13.17-1.44-19.92-.68-9.02-.12-18.25-3.06-26.94l-1.02-2.34c-.05,7.2.07,14.41.01,21.61-.16,19.18-.26,38.4,0,57.58.07,4.94-.46,10.84-.02,15.62.19,2.09,1.59,5.25,2.15,7.45,4.57,17.94,4.73,35.35,4.11,53.75-.43,12.79-1.92,24.53-.22,37.4.99,7.5,2.66,14.95,3.57,22.47h-1.2c-.94-7.4-3.07-14.6-4.05-21.99-1.34-10.19.26-18.68.69-28.76.48-11.3.09-22.13-.48-33.36-.52-10.32-.37-21.03-4.68-30.6l-.37,1.31.24,85.46c.86,9.47,4.13,18.49,5.05,27.95h-1.2c-.47-5.95-1.22-11.98-3.48-17.52l-.12,17.52h-1.92V0h1.68Z"/><path d="M99.36,0c.35,4.85,1.64,9.66,1.92,14.52.61,10.7-2.82,22.28-2.41,33.13.18,4.73,2.5,9.82,3.1,14.66,1.21,9.72-2.11,19.15-2.62,28.76-.64,12,3.01,23.74,1.93,35.77-.72,7.98-2.92,14.76-1.6,22.97.53,3.29,1.73,6.5,2.25,9.75,2.08,12.84-3.59,24.61-2.81,37.37.32,5.28,1.84,10.56,2.16,15.84.64,10.79-2.85,22.46-2.41,33.37.19,4.73,2.5,9.8,3.1,14.66,1.19,9.7-2.1,19-2.62,28.52-.59,10.92,2.58,21.67,2.18,32.42-.34,9.05-3.34,17.34-1.86,26.55.52,3.27,1.73,6.51,2.25,9.75.34,2.07.41,4.2.55,6.29h-1.44c.04-7.05-3.2-13.75-3.61-20.75s2.3-15.13,2.66-22.32c.5-10.06-2.07-20.17-1.7-30.26.29-7.96,2.65-15.8,2.9-23.74.28-8.98-3.86-16.61-3.37-25.93s2.89-19.23,2.15-28.8c-.23-2.99-1.21-6.36-1.64-9.4-1.95-14-.45-28.72-3.95-42.61-1.55-6.17-4.11-12.06-5.81-18.19-3.07-11.03-4.6-24.22-3.24-35.64.1-.84.3-1.7.48-2.52.31-.07.38.45.42.66.38,2.48-.37,6.65-.43,9.29-.23,9.77,1.29,19.38,3.92,28.74,2.91,10.36,7.96,20.01,8.33,31.03l.24,10.2,2.64-15c.68-6.78-1.9-13.05-3-19.55-1.61-9.55,1.59-17.37,2.06-26.76.5-9.99-2.05-20.01-1.7-30.02s3.89-19.83,2.62-29.72c-.93-7.26-3.51-12.28-3.09-20.19.5-9.36,2.89-19.22,2.15-28.8-.35-4.53-2.1-9.39-2.16-14.04h1.44Z"/><rect x="70.08" width="1.44" height="364.32"/><path d="M61.68,0l-.97,14.03c-1.37,12.56,3.18,24.76,3.85,36.97,1.47,26.9-6.56,53.62-3.08,80.84.66,5.19,2.35,10.36,2.84,15.4,2.72,27.69-6.55,56.27-2.6,83.72.9,6.22,2.53,12.45,2.85,18.75,1.35,26.82-6.61,53.56-3.1,80.62.84,6.48,2.82,12.4,3.1,18.98.21,4.98-.18,10.02,0,15.01h-1.44c.31-12.75-1.89-25.37-2.88-38.04-1.8-23.04,2.53-43.42,3.13-65.99.42-15.92-4.24-30.21-3.86-45.86.45-18.61,4.29-36.94,3.62-55.68-.45-12.47-2.73-24.94-3.38-37.42-1.21-23.12,4.61-46.06,3.37-69.13-.75-14.01-5.07-27.5-3.37-41.77l.97-10.43h.96Z"/><rect width="1.2" height="364.32"/><rect x="35.28" width="1.2" height="364.32"/><rect x="141.36" width="1.2" height="364.32"/><path d="M57.6,0c-.42,1.78-.69,3.62-.93,5.43-1.19,9.18-1.39,17.86-.24,27.05.79,6.34,2.26,12.62,2.84,19,2.25,24.46-4.29,48.51-3.37,72.73.75,19.6,5.75,39,3.85,58.79-1.34,13.95-4.78,26.44-4.09,40.81.38,7.98,2.48,15.85,3.34,23.78,2.34,21.54-2,42.82-2.84,64.3-.56,14.41,1.47,26.86,2.87,41.03.37,3.79.52,7.62.96,11.4h-1.2c-.23-10.66-1.96-21.2-2.88-31.8-.74-8.61-1.17-17.06-.72-25.68.89-17.39,3.81-33.93,3.13-51.61-.46-11.95-3.49-23.37-3.62-35.52s2.2-21.79,3.58-33.38c3.2-26.87-4.95-53.45-3.09-80.37,1.25-18.05,4.24-34.91,2.87-53.28-.53-7.17-2.18-14.23-2.88-21.36-.59-6.03-.54-12.01-.24-18,.22-4.47.61-8.91,1.44-13.32h1.2Z"/><path d="M11.76,0c-.36,1.88-1.06,3.97-1.21,5.87-.4,5.12.84,10.25.98,15.36.22,8.16-1.56,16.52-.97,24.73.74,10.29,5.77,20.77,5.71,31.44-.05,8.31-3.73,16.41-4.93,24.55-1.67,11.36,1.53,23.64-.56,35.2-.93,14.35,5.36,27.93,4.58,42.26-.55,10.13-5.31,19.89-4.81,29.99.17,3.34.87,6.71.97,10.07.24,8.25-1.56,16.67-.97,24.97.65,9.07,4.82,18.55,5.51,27.85s-2.54,16.54-4.24,25.51c-2.37,12.49,1,25.18-1.04,37.84-.55,9.78,2.01,19.16,3.61,28.69h-1.2c-.67-2.92-1.4-5.87-1.85-8.83-1.65-10.88-.97-22.28-1.28-33.28-.2-7.17-1.05-14.76.09-21.77.95-5.83,3.07-11.4,4.17-17.19,3.14-16.51-5.22-29.5-4.74-45.78.24-8.08.66-14.35.25-22.55-.54-10.84.98-20.11,3.53-30.54s-.57-17.5-2.05-27.57c-1.85-12.54-.81-26.31-1.24-39.08-.09-2.76-.71-5.88-.69-8.62.06-9.87,4.66-19.15,5.71-28.86,1.29-11.89-4.72-23.31-5.49-34.77-.36-5.37.55-10.73.73-16.07.27-7.86-1.01-15.55-.49-23.29.14-2.04.52-4.09.72-6.12h1.2Z"/><path d="M153.36,0c-.26,2.16-1.07,4.43-1.21,6.59-.37,5.75,1.48,12.28,1.21,18.25s-1.22,11.07-.96,17.28c.41,9.79,2.79,17.61,4.49,26.95,2.36,13.03-1.17,18.53-3.42,30.52-1.82,9.7-.03,19.76-.34,29.66-.2,6.55-.99,11.99-.22,18.68,1.12,9.7,4.73,19.72,4.29,29.55s-4.58,19.01-5.05,27.83c-.31,5.73,1.48,12.08,1.21,18.01s-1.2,10.78-.97,16.81c.4,10.4,3.1,18.7,4.73,28.63,1.9,11.53-1.22,17.43-3.41,28.12s-.28,20.19-.59,30.61c-.22,7.39-1.01,13.05.02,20.59.74,5.44,2.23,10.81,3.09,16.23h-1.44c-.56-2.76-1.22-5.52-1.64-8.32-.9-5.89-.97-11.56-1.25-17.47.47-9.71-.37-19.38-.72-29.04-.37-10.24,3.67-18.46,5.21-28.17,1.71-10.72-1.6-19.29-3.69-29.52s-.85-16.39-.54-26.08c.28-8.69-1.21-16.18-.22-25.18,1.26-11.54,5.65-20.32,3.49-32.11-1.73-9.47-3.97-18.3-3.53-28.15.47-9.79-.37-19.54-.72-29.28-.46-12.65,6.44-24.03,5.78-36.26-.51-9.53-4.82-19.11-5.53-28.31-.64-8.4,1.17-17.1.73-25.45-.11-1.97-.62-4.01-.73-5.99-.28-5.02.33-10.01.72-15h1.2Z"/><path d="M7.92,0c-1.07,4.82-2.21,9.26-1.92,14.28.18,3.16,1.19,6.71,1.21,9.83s-.91,6.88-1.21,10.09c-1.17,12.62,5.01,27.58,5.52,40.8.5,12.92-5.34,25.09-5.29,37.93,0,2.15.45,4.78.5,6.94.2,9.24-1.01,17.57.3,26.82,1.45,10.19,4.91,20.66,4.5,31.04-.46,11.54-6.16,24.18-5.53,35.03.18,3.16,1.19,6.71,1.21,9.83s-.91,6.87-1.21,10.09c-1.15,12.62,5.02,27.57,5.52,40.8s-5.35,25.12-5.29,37.93c.01,2.07.45,4.61.5,6.7.12,5.41-.38,10.53-.5,15.84-.23,10.39,2.86,20.2,4.33,30.37h-1.44c-2.93-15.36-3.61-30.83-3.83-46.45s5.81-30.7,5.03-45.83c-.58-11.34-4.67-22.73-5.29-33.83-.33-5.85,1.42-11.69.97-17.53-.14-1.85-.82-3.89-.95-5.77-.73-10.13,3.55-21.1,4.77-31.23,1.57-13.04-2.52-25.81-3.57-38.85-.93-11.54-1.84-26.02-.45-37.4s5.12-22.27,4.52-33.87-4.69-22.74-5.29-33.83c-.31-5.84,1.42-11.69.97-17.53-.14-1.85-.82-3.89-.95-5.77-.4-5.56.76-11.05,1.92-16.44h.96Z"/><path d="M40.8,0c.11,2.57-.16,5.23,0,7.8.25,4,1.41,8.27,1.67,12.25.69,10.27-3.01,20.74-2.89,30.97.06,4.75,2.39,10.22,3.09,15.15,1.54,10.82-1.32,21.34-1.65,32.11-.27,8.72,2.09,17.45,1.7,26.18s-3.23,17.75-2.66,26.88c.31,4.94,2.05,9.99,2.62,14.9,1.54,13.24-2.7,26.78-1.89,40.05.25,4,1.41,8.27,1.67,12.25.69,10.2-2.99,20.59-2.89,30.73.04,4.25,1.78,8.16,2.58,12.3,2.81,14.55-1.98,28.09-.89,42.65.34,4.47,1.25,8.96,1.44,13.44.47,10.97-3.36,21.53-2.64,32.4.32,4.79,2.15,9.49,2.4,14.28h-.96c-.42-5.27-2.12-10.42-2.41-15.71-.47-8.58,2.3-16.34,2.66-24.72.27-6.38-1.16-12.68-1.46-18.96-.71-14.75,3.96-29.79.57-44.25-.39-1.64-1.1-3.24-1.44-4.8-1.84-8.43.77-18.56,1.61-27.05,1.11-11.34-1.65-22.28-1.21-33.61.37-9.59,2.97-19.12,1.9-28.76-.59-5.29-2.3-10.54-2.62-15.86-.52-8.7,2.3-16.67,2.66-25.2.27-6.36-1.16-12.69-1.46-18.96-.71-14.85,3.99-29.86.52-44.44-.36-1.53-1.08-3.12-1.4-4.6-2.27-10.45,2-22.88,2.1-33.52.05-5.22-1.14-11.03-1.45-16.33-.14-2.5.03-5.05-.24-7.56h.96Z"/><path d="M150,0c-.86,5.53-2.9,11.52-2.4,17.16.18,2.01,1,3.99,1.17,6.03.43,5.51-1.52,11.12-1.18,16.78.66,10.83,4.98,22.01,5.54,33.1s-2.79,20.33-4.5,31.28c-1.38,8.85-1.11,20.62-.8,29.7.52,15.48,5.88,30.27,5.06,45.84-.56,10.49-4.56,21.29-5.29,31.43-.34,4.8,1.4,8.56,1.21,13.21s-1.49,8.99-1.22,13.68c.62,10.91,4.98,22.18,5.54,33.34.55,10.99-2.46,19.4-4.25,29.85-1.94,11.28-1.66,29.47-.28,40.93.88,7.37,2.77,14.64,3.81,21.99h-1.44c-.41-2.54-.97-5.09-1.37-7.63-1.87-12.02-2.55-25.19-2.72-37.36-.26-18.67,6.85-34.51,4.54-53.26-1.36-11.04-5.17-22.47-4.52-33.63.17-2.86.93-5.99.97-8.87.04-2.69-.66-4.93-.94-7.48-1.29-11.8,4.36-24.11,5.02-35.96.61-11.03-2.87-22.94-3.85-34.09-1.25-14.24-2-29.77.31-43.84,1.7-10.29,4.38-19.69,3.52-30.31-1-12.45-5.73-25.2-5.04-37.68.19-3.5,1.08-7.04.97-10.57-.07-2.06-.74-4.21-.97-6.23-.35-3.18-.15-6.39.28-9.56.35-2.61.99-5.29,1.64-7.84h1.2Z"/><path d="M77.52,0c-.08,1.68-.42,3.48-.49,5.15-.35,8.19-.47,18.76,0,26.9s5.64,16.17,7.53,24.15c5.59,23.63-4.32,46.55-2.95,70.15.53,9.23,4.57,17.83,6.61,26.75,1.52,6.64,3.31,14.41,4.36,21.08,2.72,17.25-1.97,35.84-.89,53.45.13,2.05.84,8.49,3.52,8.72,1.23-.35,1.44-2.32,1.52-3.43.54-6.88-1.31-13.66-.97-20.53.37,0,.34.84.4,1.16,1.22,6.29,1.73,11.72,1.28,18.16-.14,2-.38,5.5-3.02,5.63-2.06.1-2.65-3.35-2.95-4.94-1.15-6.09-1.2-15.52-1-21.82.42-13.09,3.09-25.93.62-39-2.13-11.28-6.64-22.37-9.13-33.59-5.85-26.34,7.27-51.67,1.45-78.01-2.72-12.3-7.85-22.14-7.57-35.16.13-6.08-.44-10.88-.73-16.79-.13-2.62-.07-5.5.49-8.05h1.92Z"/><path d="M89.76,364.32c-2.39-10.53-6.91-21.19-8.6-31.84-3.41-21.48,4.98-42.56,3.81-64.05-.62-11.35-5.73-22.4-8.1-33.42-1.35-6.3-1.13-10.39-1.04-16.74.05-4.2-.49-7.45-.71-11.51-.68-12.48,4.46-26.3,5.05-39.11.37-8-.9-12.3-2.58-19.76-.06-.25-.54-1.93.05-1.73.34.11,1.73,4.36,1.92,5.04,4.15,14.53.33,28.44-1.53,42.87-1.41,10.94-1.69,25.63-.99,36.68.49,7.74,5.98,16.74,7.75,24.89,5.05,23.22-4.47,45.75-3.19,68.95.48,8.71,3.93,16.03,5.98,24.26,1.27,5.09,2.01,10.34,3.14,15.46h-.96Z"/><path d="M165.12,0c-1.12,4.84-1.45,9.88-.22,14.74.8,3.17,1.77,4.07,1.66,7.7-.13,4.13-.83,8.33-.97,12.47-.52,16.05,3.16,31.58.38,47.66-1.39,8-4.99,16-5.4,24.12-.32,6.37,1.62,12.86,1.93,19.19.54,11.31-1.6,22.81-.98,34.1.22,4.04,1.82,9.31.5,13.2-1.15,3.39-3.4-1.87-3.86-3.13-3.07-8.44-2.28-17.62-2.15-26.39.1-6.14.47-12.66.24-18.74-.5-12.87-2.72-25.01,3.29-37.26.16-.32-.16-.66.54-.53-1.17,5.74-3.49,11.76-3.85,17.63-.39,6.27.74,12.49.98,18.72.48,12.48-3.01,37.78,2.59,48.29.13.25.93,1.73,1.24,1.15.91-4.39-.48-8.82-.73-13.18-.65-11.77,2.01-23.53.97-35.29-.5-5.68-2.09-11.54-1.93-17.29.24-8.38,4.22-16.78,5.66-25.06,2.88-16.65-1.29-32.58-.36-49.08.2-3.5.86-7.07.96-10.56.12-4.3-1.33-5.58-2.23-9.29-1-4.11-.38-9.06.55-13.15h1.2Z"/><path d="M23.52,0c-.74,3.89-2.24,8.98-.97,12.85.44,1.34,1.43,2.75,1.88,4.12,1.2,3.67-.23,10.9-.44,15.06-.87,17.64,3.62,35.09-.06,52.5-1.53,7.23-4.8,14.21-5.2,21.68-.29,5.32,1.14,10.84,1.67,16.08,1.29,12.68-1.42,25.11-.72,37.68.23,4.08,1.54,8.27.62,12.36-.6,2.68-1.82,1.8-2.88-.03-5-8.61-3.14-29.57-3.02-39.72.17-15.28-3.19-29.87,3.26-44.5.13-.3.23-.96.58-.97-.66,4.38-2.27,8.56-3.05,12.91-1.42,7.93-.06,15.92.18,23.92.4,13.07-1.52,27.44.54,40.26.49,3.03,1.22,6.94,3.17,9.31,1.43-4.47-.33-9.47-.6-14.04-.64-10.76,1.74-21.82,1.21-32.65-.33-6.71-2.26-13.39-1.94-20.16.44-9.32,5.03-18.6,6.22-28.1,2.02-16.22-2.42-32.38-1.16-48.2.17-2.11,1.02-4.38,1.19-6.49.43-5.36-2.51-9.5-2.89-14.63-.27-3.64.58-5.92,1.69-9.25h.72Z"/><path d="M134.64,0c-.56,4.25-1.65,8.64-2.13,12.87-.91,8.02,2.09,15.44,2.85,23.25,1.37,14.11,1.47,32.3-1.03,46.24-1.25,6.94-3.57,13.63-4.89,20.55-1.35,7.1-1.42,13.12-1.03,20.32,1.12,20.63,5.33,41.26,1.37,61.85-1.22,6.34-3.87,12.54-5.1,18.66-.74,3.67-.89,15.38-.25,18.98.43,2.37,1.61,4.93,1.81,7.31.18,2.14-.48,4.03-.49,5.99-.01,1.53.6,3.14.13,4.68l-.6-2.52c-.39-11.16-4.08-24.44-1.57-35.41,1.46-6.39,3.96-11.99,5.1-18.9,3.89-23.57-.58-44.66-1.61-67.85-.55-12.38,3.81-22.16,5.92-33.91,2.47-13.73,2.4-29.24,1.27-43.12-.75-9.27-3.92-18.21-2.84-27.57.43-3.76,1.37-7.72,2.13-11.43h.96Z"/><path d="M130.32,364.32v-12.37c-.31-12.5-2.58-25.23-3.12-37.67s3.83-22.02,5.92-33.67c3.34-18.59,2.22-38.15-.81-56.64-1.41-8.59-1.1-14.4.72-22.89.5-2.31,2.16-9.36,4.53-3.95,1.3,2.97,1.92,11.05,1.39,14.19-.05.28-.14.57-.47.61-.25-1.04-.32-2.31-.65-3.31-.24-.72-.86-1.37-.98-1.9-.38-1.66-.02-4.61-.32-6.64-.04-.3-.71-3.86-1.17-3.51-.55,1.31-.85,2.64-1.13,4.04-1.27,6.46-2.31,12.52-1.49,19.09.76,6.07,2.42,11.89,2.85,18.03.95,13.67,1.16,29.66-1.27,43.12-1.18,6.54-3.33,12.85-4.65,19.35-3.41,16.86.28,34.29,1.36,51.29.27,4.27.24,8.57.48,12.84h-1.2Z"/><path d="M84,0c-.63,2.78-1.37,5.54-1.84,8.36-1.18,6.91-1.08,15.47-.55,22.48.47,6.23,2.85,11.12,4.62,16.98,4.43,14.67,7.98,31.75,7.39,47.11-.32,8.33-4.06,35.45.37,41.37,1,1.34,1.44.47,1.86-.75,1.44-4.27-.04-9.66.41-14.11.64-.16.56.41.68.87.89,3.35,1.16,11.66-.72,14.57-1,1.54-2.07,1.53-3.2.16-2.73-3.28-2.44-15.21-2.29-19.57.47-13.82,2.77-26.52.94-40.52s-7.33-26.11-10.12-39.32c-1.57-7.41-1.56-18.35-1.12-25.99.23-3.91,1.3-7.76,1.68-11.64h1.92Z"/><path d="M161.04,364.32c-2.36-13.74,1.46-27.62.24-41.4-.51-5.76-2.13-11.68-1.92-17.52.3-8.32,4.18-16.63,5.64-24.84,2.94-16.53-1.29-32.65-.36-49.08.22-3.9,1.36-9.51.96-13.2-.29-2.71-2.31-5.57-2.61-8.43-.63-6.03.73-13.02,3.77-18.25.32-.56.74-1.53,1.36-1.76.08,1.55-1.14,3.13-1.67,4.57-1.96,5.3-2.92,11.23-1.98,16.85.62,3.68,2.22,5.65,2.09,9.66s-.83,8.17-.97,12.23c-.54,16.05,3.23,31.87.38,47.9-1.43,8.05-5.11,16.17-5.42,24.34-.24,6.31,1.64,12.46,1.94,18.72.55,11.47-1.65,23.16-.98,34.58.11,1.82.62,3.78.73,5.63h-1.2Z"/><path d="M20.4,364.32h-1.2c-.02-2.26-.61-4.59-.73-6.83-.57-10.63,1.74-21.5,1.22-32.18-.33-6.79-2.28-13.54-1.93-20.39.48-9.31,5.03-18.43,6.2-27.88,2.02-16.21-2.38-32.35-1.16-48.2.17-2.18,1.02-4.56,1.19-6.73.4-5.19-2.47-9.38-2.87-14.4-.35-4.34,1.84-10.2,3.42-14.34.54-1.41,1.2-3.28,2.34-4.26-.92,3.53-2.7,6.66-3.58,10.22-.74,3-1.68,8.32-.96,11.25.4,1.63,1.55,3.24,2.08,4.88,1.19,3.67-.23,10.88-.43,15.05-.83,17.14,3.48,34.42.18,51.3-1.49,7.58-5.05,15.13-5.44,22.88-.27,5.35,1.14,10.81,1.67,16.08,1.29,12.68-1.44,25.1-.72,37.68.11,1.89.63,3.95.73,5.87Z"/><path d="M156.72,0c-.22,1.61-.74,3.53-.73,5.15.02,5.3,1.68,10.6,1.68,16.32,0,11.94-.98,23.54.01,35.53.26,3.2,1.62,13.8,3.83,15.85,1.57,1.45,1.27-1.94,1.18-2.85-.29-2.94-2.07-6.45-2.14-9.14-.02-.9.25-1.62.26-2.4.13-12.03.74-24.02.95-36.01.08-4.82-.86-5.96-2.04-10.2-1.11-3.99.19-8.26.84-12.24h.96c-.28,2.57-1.46,5.45-1.46,8.04,0,3.21,2.17,6.97,2.43,10.31.5,6.42.09,14.56,0,21.14s-1.06,14.55-.49,21.11c.27,3.1,2.48,11.12,1.3,13.55-.15.31-.6.7-.96.74-.66.03-1.14-.4-1.55-.85-3.68-3.99-3.49-15.34-3.84-20.64-.15-2.19-.62-4.57-.73-6.71-.45-9.34,1.03-19.28.5-28.58-.34-6-2.46-12.03-.97-18.11h.96Z"/><path d="M14.88,0c.14,1.11-.4,2.18-.48,3.24-.39,5.15,1.38,10.04,1.69,15.11.2,3.28-.14,7.22-.24,10.58-.29,10.24-1.67,34.72,3.55,43.23.31.51,1.2,2.17,1.6.81.84-2.86-1.78-8.59-2.05-11.64-.71-8.1.94-17.71.74-25.92-.45-5.33.74-11.07.23-16.33-.31-3.19-2.43-6.68-2.65-9.83-.2-2.93.82-6.4,1.45-9.25h.72c-.13,1.37-.95,2.67-1.14,4.02-.69,5.03,2.24,10.87,2.59,16.01.11,1.57.02,3.45,0,5.06-.12,9.41-.41,18.9-.74,28.3-.22,6.15,1.11,10.63,1.46,16.32.08,1.39.37,5.97-2.17,4.8s-3.59-10.02-3.84-12.72c-.91-9.7-1.1-19.31-.97-29.05.05-4.24.56-8.73.49-12.95-.1-6.01-2.17-11.89-1.41-17.97.07-.6.24-1.27.45-1.83h.72Z"/><path d="M85.92,364.32h-.96c-.39-1.47-.32-3.13-.51-4.65-1.58-12.29-7.45-22.96-8.85-35.31-1.27-11.21-1.07-23.6.52-34.76,1.55-10.93,4.8-21.17,3.53-32.41-.45-4.02-1.83-7.9-2.13-11.91.83.74,1.17,2.33,1.5,3.42,4.65,15.1.12,27.55-1.94,42.34-1.84,13.16-1.69,30.01,1.71,42.85,2.66,10.07,7.2,19.71,7.13,30.43Z"/><path d="M121.2,364.32h-1.2c-.67-6.11-2.22-12.08-3.08-18.16-1.91-13.53-.91-29.71,1.95-43.09,2.23-10.45,6.82-21,7.38-31.74.8-15.5-7.86-31.04-4.69-46.69.59,0,.3,9.74.35,10.69.58,11.82,5.67,23.15,5.3,35.28-.34,11.19-5.15,22.09-7.38,32.94-2.82,13.74-3.64,29.18-1.71,43.09.82,5.92,2.24,11.77,3.08,17.68Z"/><path d="M130.32,0c-1.63,5.39-3.01,11.23-2.37,16.89.72,6.38,2.3,12.71,2.14,19.22-1.04,17.25,2.7,35.26-.56,52.26-1.5,7.83-4.66,15.36-5.45,23.35-.72,7.29.28,14.14.72,21.36.17,2.75.24,5.53.24,8.28-.43-.09-.45-.47-.49-.83-.2-1.83-.09-3.94-.23-5.77-.64-7.96-2.09-15.97-1.17-23.97s4.27-15.72,5.65-23.63c2.47-14.15.3-26.69-.17-40.71-.21-6.14.37-12.41,0-18.49-.22-3.65-1.44-7.31-1.69-10.79-.43-5.88.59-11.5,1.93-17.17h1.44Z"/><path d="M49.68,364.32c-.37-14.77-2.76-29.37-4.08-44.04-1.07-11.86-1.88-24.62-.72-36.48.06-.6.61-4.83.84-4.92.59-.1.34.47.36.84.07,1.34-.22,2.4-.25,3.59-.38,13.38.37,26.78,1.45,40.09s2.91,27.24,3.6,40.92h-1.2Z"/><path d="M27.84,0c-.86,3.67-2.17,6.29-1.93,10.21.21,3.44,2.39,7.27,2.43,9.83.02,1.47-.42,3.52-.5,5.04-.1,2.16-.12,4.33-.25,6.49l2.18,27.82c.34,7.79-.69,15.79-.26,23.54.48,8.66,3.99,19.71,1.33,28.19-.11.36-.16.85-.6.96l.25-8.05c-1.32-12.37-2.19-24.01-1.94-36.48.33-16.4-1.83-32.29-1.43-48.71-1.86-4.11-2.04-8.71-1.68-13.2.16-1.95.85-3.81,1.44-5.64h.96Z"/><path d="M46.8,0c.29,6.5-.39,13.34-.01,19.81.23,3.88,1.12,8.04,1.45,11.99,1.61,19.13,2.55,41.31,1.69,60.49-.04.98-.14,2.4-.24,3.36-.04.36-.05.74-.49.83-.54-7.43-.11-14.98-.23-22.45-.33-19.39-1.71-38.73-2.88-58.08l-.97-15.95h1.68Z"/><path d="M121.2,0c-1.29,5.44-2.6,11.05-2.89,16.67-.13,2.55.13,5.14,0,7.69-.18,3.6-1.02,7.2-1.21,10.79-.51,9.48,2.71,19.44,4.05,28.85,1.12,7.88,1.93,17.79-.08,25.52-.16.61-.22,1.61-.84,1.92l1.21-10.67c1.05-14.77-6.91-31.5-5.53-45.85.39-3.99,1.57-8.26,1.68-12.24s-.19-7.49.25-11.52c.41-3.8,1.37-7.5,2.4-11.16h.96Z"/><path d="M114.72,0c-.05,1.16.07,2.33,0,3.49-.27,5.43-.48,10.89-.74,16.3-.28,5.86-1.5,12.03-1.2,17.78.13,2.56.63,5.54,1.01,8.11,1.56,10.52,4.69,20.88,4.64,31.6-.47.03-.54-.44-.67-.77-1.85-4.89-1.93-14.07-2.88-19.68-1.29-7.58-3.73-13.79-3.28-21.67.35-6.06,1.65-12.11,1.69-18.23.03-3.9-.55-7.86-.26-11.78.13-1.69.85-3.41.73-5.15h.96Z"/><path d="M135.12,364.32c.57-11.48.16-22.99-.96-34.44-.94-9.57-4.16-23.87-.42-32.83,2.8-6.71,6.13,2.44,5.46,5.58-.39.09-.49-.14-.73-.35-1.83-1.67-1.22-5.18-2.75-7.08-1.1-.11-2.29,4.77-2.45,5.7-1.8,10.44,1.14,20.41,2.3,30.68,1,8.85,1.09,17.7,1,26.62l-.49,6.11h-.96Z"/><path d="M167.52,364.32c.16-6.06-.81-12.09-1.2-18.12-.36-5.67-.47-11.12-.24-16.8.16-4.01.72-7.96.49-12.01-.61-10.43-4.45-18.25.83-28.67.16-.31.26-.76.72-.72-.57,3.54-2.06,6.77-2.29,10.43-.38,6.08,1.35,11.85,1.7,17.76.32,5.5-.55,10.87-.74,16.32-.26,7.32.94,14.81,1.45,22.09.23,3.24.14,6.49.48,9.72h-1.2Z"/><path d="M16.32,364.32h-.96c-1.07-4.12-1.05-8.38-1.45-12.59.86-12.6.44-24.9-.23-37.45-.36-6.74-.21-12.72,1.31-19.32.23-.99,2.61-9.38,3.12-9.36.28.16.06.71.01.97-.69,3.87-2.19,7.81-2.9,11.74-1.46,8.09-.11,15.77.13,23.88.39,12.69-1.26,26.06.26,38.62.14,1.17.32,2.39.69,3.51Z"/><path d="M25.92,364.32c-.04-2.75-.07-5.54-.24-8.28-.41-6.47-1.43-12.96-1.69-19.43-.27-6.86.63-13.69.5-20.42s-1.97-13.14-1.21-19.67c.34-2.95,1.33-5.83,2.52-8.52.61-.09.32.4.25.74-.53,2.65-1.65,5.02-2.03,7.82-.95,7.16,1.08,14.04,1.65,21.09.36,4.47-.31,8.11-.49,12.47-.36,8.75.92,17.47,1.45,26.17.16,2.66.17,5.37.24,8.04h-.96Z"/><path d="M156.96,364.32c-1.33-6.82-1.31-13.82-1.21-20.77.05-3.16.19-6.4.24-9.6,0-.57.25-1.09.26-1.66.16-12.46-2.38-24.78.39-37.05.27-1.17,2.59-9.49,3.08-9.65.54-.17.31.22.25.5-1.1,5.7-3.38,11.26-3.75,17.14-.39,6.27.74,12.49.98,18.72.49,12.67-1.46,25.39.02,38.14.16,1.42.56,2.81.69,4.23h-.96Z"/><path d="M29.04,364.32h-.96v-23.89c-.51-6.91-.26-13.95-.96-20.87-.78-7.64-3.19-15.51-1.32-23.16-.28,8,1.73,15.77,2.52,23.64.41,4.08.35,8.16.47,12.25.02.64.31,1.25.26,1.9v30.13Z"/><path d="M92.88,0c-1.08,10.54-1.67,21.18-.93,31.77-.05,3.67,4.2,10.09,4.78,2.68.54-6.88-1.32-13.66-.97-20.53.37,0,.34.84.4,1.16,1.23,6.31,1.75,11.94,1.28,18.4-.15,2.06-.73,6.35-3.85,5.3-1.46-.49-2.16-4.87-2.35-6.29-.92-6.59-.55-13.71-.76-20.38l.97-12.11h1.44Z"/><path d="M96.96,364.32h-1.44c-1.19-8.53-4.92-16.39-7.13-24.67-2.86-10.72-4.26-23.43-2.95-34.49.04-.37.36-2.52.6-2.53.51.75.4,1.88.37,2.77-.43,13.41-.37,21.86,3.18,34.96,2.19,8.09,5.9,15.7,7.37,23.95Z"/><path d="M126.24,0c-.41,1.79-1.27,3.69-1.61,5.47-.77,3.97-.72,12.52-.55,16.73.13,3.01,1.9,6.39,2.16,9.37.18,2.14-.48,4.03-.49,5.99-.01,1.53.6,3.14.13,4.68l-.6-2.52c-.55-10.31-3.11-21.13-2.16-31.44.27-2.88.96-5.65,2.16-8.28h.96Z"/><path d="M45.36,364.32c-.4-3.68-1.42-7.28-1.89-10.95-.64-4.99-.62-10.29-.27-15.32.18-2.6.5-5.27,1.08-7.8l.57,1.83c.1,4.06-.58,8.15-.7,12.2-.2,6.86,1.4,13.33,2.41,20.05h-1.2Z"/><path d="M169.92,197.28v.96c-.94,3.36-2.3,6.66-2.17,10.21.11,2.92.85,5.91,2.17,8.51v4.56c-.49.7-.17,1.88-.23,2.77-.02.31-.25.63-.25.71v7.44c0,.08.23.4.25.71.06.89-.26,2.07.23,2.77v8.4c-.25-.93-.41-2.28-.48-3.24-.45-6.53-.81-13.39-.73-19.93.01-1.02.35-1.91.25-3.11-.17-1.84-1.37-3.5-1.62-5.1-.69-4.46-.23-11.02,1.91-15.03.18-.34.09-.76.68-.63Z"/><path d="M126.72,364.32h-.72c-1.36-13.34-7.19-26.53-4.32-40.08.44.09.45.47.49.83.42,3.75-.22,8.37-.02,12.26.48,9.11,3.75,17.92,4.57,26.99Z"/><path d="M169.68,0c-.23,2.5-1.57,4.93-1.85,7.39-.41,3.63.47,7.85,2.09,11.09v4.56c-.49.7-.17,1.88-.23,2.77-.02.31-.25.63-.25.71v7.44c0,.08.23.4.25.71.06.97-.26,2.23.23,3.01v8.16c-.26-.94-.4-2.26-.48-3.24-.48-6.42-.81-13.27-.73-19.69.01-1.09.37-2.08.25-3.35-.17-1.85-1.37-3.5-1.62-5.1-.48-3.06-.28-7.13.26-10.19.26-1.48.7-2.93,1.36-4.28h.72Z"/><path d="M169.92,309.36v23.04c-.25-1.01-.41-2.44-.48-3.48-.6-9.32-1.75-20.57-1.21-29.77.05-.81.1-2.5.73-2.99.27,4.21.31,8.41.71,12.62l.25.58Z"/><path d="M169.92,111.12v22.8c-.25-1.01-.41-2.44-.48-3.48-.6-9.33-1.75-20.57-1.21-29.77.05-.81.1-2.5.73-2.99.28,4.29.32,8.57.71,12.86l.25.58Z"/><path d="M66.24,0c.21,11.21,1,22.48-.36,33.6l-.51-13.84.39-19.76h.48Z"/><path d="M55.92,364.32h-1.2c-1.1-9.55-3.06-19.14-2.16-28.8.43.09.45.47.49.83.47,4.44.26,8.99.71,13.45.49,4.87,1.76,9.64,2.16,14.52Z"/><path d="M147.84,364.32h-1.92c.05-5.24-1.12-10.74-.73-15.97.03-.43-.07-.78.37-1.06.57,0,1.19,4.96,1.29,5.67.5,3.77.66,7.59.99,11.37Z"/><path d="M53.28,0l-1.32,21.36c-.15,0-.34-1.09-.36-1.32-.5-6.65-.36-13.41.24-20.04h1.44Z"/><path d="M138,0c1.09,4.01,1.16,8.45.96,12.6-.02.37.23.94-.36.84-.35-.11-.61-2.75-.77-3.32-.28-.99-.88-1.02-1-2.11-.29-2.55.08-5.41-.51-8.02h1.68Z"/><path d="M81.36,364.32h-1.2c.14-4.21-.18-8.41-1.04-12.52-.5-2.41-1.5-4.71-1.72-7.16.49-.03.52.45.67.77,2.64,5.49,3.33,12.89,3.29,18.91Z"/><path d="M31.44,0c.48,4.62.38,9.48-1.08,13.92-.53.17-.38-.54-.37-.85.06-1.67.44-3.6.5-5.26.09-2.62-.26-5.2-.25-7.81h1.2Z"/><path d="M4.8,364.32c-.19-5.44-.97-10.85-1.37-16.27-.03-.35-.33-.86.29-.77,1.56,5.52,1.46,11.36,2.04,17.04h-.96Z"/><path d="M75.36,364.32c.11-1.05-.28-7.48.36-7.68.47-.15.42.38.52.67.67,2.01.48,4.88.56,7.01h-1.44Z"/><path d="M139.2,104.16c-2.46-.08-2.18-7.44-3.69-7.18-.82.14-1.56,2.76-1.77,3.53-2.69,10,.32,20.71,1.58,30.69,2.36,18.68,1.57,39.49-2.53,57.88-1.9,8.54-5.87,17.42-4.85,26.29.72,6.23,1.62,11.09,1.88,17.56.4,10.18.68,20.5.98,30.7.17,5.93.21,12.6-.52,18.46-1.32,10.51-5.92,20.34-6.46,30.98-.38,7.62.98,15.21,1.22,22.8.03.97.11,2.46,0,3.37-.04.35-.18.74-.48.35-.09-2.07-.08-4.29-.24-6.36-.68-8.65-2.22-17.17-.89-25.85,1.12-7.3,4.08-14.41,5.37-21.75,3.13-17.8-.93-35.82-.18-53.67.49-8.03-2.21-15.21-1.67-23.29.46-6.85,3.17-13.57,4.78-20.18,4.5-18.43,4.27-38.31,2.42-57.1-.95-9.62-3.73-21.65-1.02-31.03s6.45-1.19,6.06,3.78Z"/><path d="M120.24,190.56c.02-.83-.04-1.68,0-2.52.14-2.77.64-5.61.73-8.39.34-11.06-2.53-21.21-4.05-31.97-2.19-15.58-.56-33.65,3.39-48.85,2.22-8.55,5.48-17.04,5.94-25.98.79-15.4-7.84-30.91-4.69-46.45.59,0,.3,9.51.35,10.45.53,10.84,4.85,21.23,5.29,32.15.52,13.05-5.51,26-7.84,38.71-1.79,9.75-2.67,20.73-2.25,30.65.7,16.43,7.57,33.5,3.98,50.04-.14.65-.27,1.81-.85,2.15Z"/><path d="M122.16,126c.14,5.23-.29,10.51.24,15.72,1.04,10.17,4.86,20.12,4.81,30.47-.06,12.22-6.35,24.01-8.13,36.29-.74,5.09-.5,9.36-.76,14.36-.18,3.51-1,7.05-1.2,10.56-.53,9.63,2.69,19.53,4.04,29.08,1.13,8.01,1.9,17.63-.08,25.52-.15.61-.23,1.62-.84,1.92-.18-1.77.48-3.46.68-5.19,1.73-14.49-2.55-27.01-4.49-41.05-.33-2.38-.81-5.28-.77-7.65.08-4.83,1.8-10.04,1.93-14.87s-.18-8.84.52-13.64c1.68-11.59,7.45-22.5,8.12-34.36.82-14.54-6.35-28.5-5.27-43.43.06-.88.23-3.56,1.2-3.72Z"/><path d="M96.72,319.68c.91,4.26,1.28,8.69.41,13.01-.34,1.69-1.48,5.03-3.65,3.31-1.94-1.53-2.64-7.56-2.77-9.95-.85-16.2,3-32.38,1.21-48.73-1.58-14.36-7.41-27.37-10.4-41.2-1.59-7.37-1.55-18.38-1.12-26,.62-11.05,4.08-22.42,4.57-33.83.62-14.53-2.01-22.35-6.07-35.71-4.76-15.64-5.09-33.3-2.78-49.46,1.55-10.87,4.83-21.25,3.53-32.41-.47-4.01-1.86-7.89-2.13-11.91.68.59.98,1.84,1.26,2.7,6.02,18.24-1.95,34.76-2.71,52.85-.46,10.75-.02,22.68,2.72,33.06,1.56,5.92,3.98,11.73,5.38,17.66,2.48,10.54,2.74,23.94,1.75,34.72-.59,6.46-2.69,12.67-3.76,19.04-1.16,6.95-1.08,15.44-.55,22.48.48,6.33,3.08,11.69,4.86,17.7,2.99,10.12,6.45,24.41,7.13,34.87,1,15.46-4.18,35.09-.89,49.61.29,1.28.92,3.47,2.18,4.01.96-.17,1.53-4.47,1.59-5.39.2-3.15-.6-6.45-.25-9.61.04-.36.05-.74.49-.83Z"/><path d="M97.44,290.16c-.64.23-.69-1.21-.72-1.56-.59-7.41-.09-14.89-.99-22.29-1.16-9.51-5.58-18.02-8.06-27.22s-2.87-14.87-2.23-24.65c.22-3.37.46-6.73.71-10.09.03-.41-.02-.79.37-1.07-.18,3.31-.24,6.65-.35,9.97-.38,11.85.31,18.99,3.71,30.35,2.66,8.89,7.77,16.67,7.57,26.27v20.29Z"/><path d="M97.44,91.68c-.64.23-.69-1.21-.72-1.56-.44-5.56-.12-11.23-.49-16.79-1.22-18.77-12.58-34.25-11.28-53.28.57-4.63.8-9.29,1.19-13.93.04-.42-.03-.79.37-1.07-.19,3.23-.25,6.49-.35,9.73-.39,11.91.31,18.93,3.71,30.35,2.67,8.98,7.8,16.83,7.57,26.51v20.05Z"/><path d="M76.08,158.16c.7.69.76,7.66.73,9.01-.05,2.71-.27,5.91-.49,8.63-.07.82-.31,1.69-.36,2.52-.12,0-.35-1.97-.37-2.27-.26-4.54-.58-11.93-.24-16.34.02-.24.18-2.09.73-1.55Z"/><path d="M76.08,257.52c.63,2.47.75,5.24.73,7.81,0,.68-.24,1.26-.26,1.9-.1,3.41-.05,6.84-.59,10.21-.59-4.09-.3-8.24-.35-12.37-.03-2.39-.61-4.7,0-7.19.09-.36-.17-.42.47-.36Z"/><path d="M76.08,79.2l-.49-3.23c.23-3.68-.17-7.4-.24-11.04-.01-.57-.07-5.66.37-5.65.58,0,.65.76.73,1.19.64,3.42.32,8.58.12,12.14-.12,2.19-.5,4.39-.49,6.59Z"/><path d="M26.16,89.52c-.49,2.95-1.73,5.55-2.13,8.55-1.13,8.49,1.88,16.74,1.91,25.17.01,2.75-.64,5.87-.75,8.63-.63,16.13,3.95,32.73.23,48.71-1.45,6.22-4.17,12.11-6.05,18.19-2.22,7.21-.36,9.05.91,15.78.59,3.12.64,5.85.6,9.02-.12,9.33-.42,18.74-.74,28.06-.21,6.19,1.06,10.6,1.45,16.33.09,1.31.34,5.18-1.56,5.18-2.28,0-3.61-6.61-3.89-8.37-2.36-14.9-1.09-30.09-1.28-45.06-.08-6.34-1.92-13.6-1.12-19.61.72-5.44,3.52-15.12,5.82-20.11.17-.36-.03-.59.59-.48-1.48,5.95-3.68,11.73-4.92,17.76-1.72,8.31.41,11.87.85,19.55.23,4.04-.4,8.22-.5,12.24-.23,8.97-.94,34.75,3.89,41.73,2.27,3.28,1.56-1.8,1.33-3.25-.4-2.51-1.65-5.36-1.86-7.74-.71-8.19.95-17.87.74-26.16-.41-5.27.71-10.87.23-16.09-.37-3.95-2.86-7.29-2.65-11.53.42-8.41,5.03-17.67,7-25.88,3.98-16.59-.64-35.6-.28-52.84.01-.57.25-1.09.26-1.66.16-8.28-.26-16.02-1.23-24.25.3-3.82.84-7.92,2.55-11.39.17-.34-.05-.6.59-.48Z"/><path d="M30.48,212.4c-.65.1-.46-.12-.48-.6-.07-1.61.44-3.85.5-5.51.34-9.56-2.02-19.48-2.42-29.04-.78-18.58.94-37.62-.95-56.17-.78-7.67-3.09-15.41-1.43-23.16.42-.06.23.55.24.84.3,8.14,1.57,14.91,2.37,22.83,2.04,20.13-.7,41.16,1.23,61.17.95,9.83,3.8,19.79.96,29.64Z"/><path d="M28.08,197.28c.41.48-1.94,6.61-2.1,7.86-.6,4.73,1.09,8.76,2.35,13.14-1.83,13.13.98,26.23,1.43,39.35.27,7.8-.68,15.79-.26,23.54.32,5.84,1.89,11.65,2.18,17.5.19,3.84.09,8.3-1.33,11.89-.46-1.59.11-3.4.13-4.91.13-9.25-1.87-18.38-2.18-27.6-.13-3.88.16-8.09.24-12.02.24-11.85-1.04-22.39-1.44-34.06-.16-4.63.49-10.2.01-14.65-.2-1.81-1.51-3.34-1.69-5.27-.32-3.47-.17-9.57,1.17-12.77.09-.22,1.07-2.47,1.48-2Z"/><path d="M29.76,321.84l3.6-16.32c.51,4.47-.56,10.27-2.22,14.46-.27.67-.5,1.86-1.38,1.86Z"/><path d="M30.45,123.33l-.69.03c-.3-.29,1.62-7.04,1.84-8.11.47-2.24.65-4.56,1.15-6.77.08-.37.18-1.32.61-1.43.7,5.46-1.05,11.21-2.91,16.28Z"/><path d="M30.48,222c-.41-.01-.51.16-.42-.3.91-5.02,1.21-10.68,2.42-15.59.06-.24.07-.72.41-.67.14,5.61-.75,11.23-2.4,16.56Z"/><path d="M30.48,23.52l-.47-.12c1.04-4.91,1.18-10.54,2.4-15.36.08-.33,0-.75.48-.84.16,5.53-.75,11.07-2.4,16.32Z"/><path d="M46.08,80.4c.23,1.55-.21,3.21-.25,4.67-.59,22.79,2.27,44.42,4.09,66.97,1.12,13.88.94,27.18.01,41.05-.05.74-.17,1.9-.61,2.51-.54-2.42-.45-5.07-.37-7.57.25-8.23,1.02-16.12.73-24.47-.89-25.12-6.86-50.04-5.04-75.36.15-2.07.37-4.63.8-6.65.09-.44-.03-1.35.64-1.16Z"/><path d="M49.2,294.96c-.55-7.51-.1-15.14-.23-22.69,0-.57-.25-1.09-.26-1.66-.16-9.06-.23-18.11-.7-27.14-.75-14.55-2.4-29.07-2.9-43.66-.23-6.69-.17-13.54,1.33-20.05.12,0,.35,1.97.37,2.27.69,11.84-.72,24.42-.02,36.26.23,3.88,1.12,8.04,1.45,11.99.87,10.37,1.16,20.81,1.43,31.21s1.09,22.74.02,32.64c-.04.36-.05.74-.49.83Z"/><path d="M52.32,219.84c-.62.21-.6-.76-.65-1.15-2.23-18.37,4.79-35.32,3.05-52.97-.94-9.52-3.2-19.04-2.16-28.68.43.09.45.47.49.83.47,4.44.26,8.99.71,13.45.78,7.61,3.09,15.09,2.65,22.81-.12,2.11-.7,4.17-.94,6.26-1.5,13.11-3.58,26.2-3.15,39.45Z"/><path d="M51.6,319.2c-.6-.34-.68-1.63-.73-2.27-1.05-13.77,3.49-27.87,4.1-41.52s-4-26.61-2.29-39.97c.44.75.52,2.11.6,3,.3,3.24.2,6.58.48,9.84.48,5.38,1.7,10.71,2.16,16.08.81,9.5-1.45,18.7-2.4,28.08-.9,8.89-.97,17.88-1.92,26.76Z"/><path d="M53.04,37.2c.37,4.18.35,8.42.72,12.6.49,5.46,1.7,10.87,2.16,16.32.79,9.43-1.46,18.53-2.4,27.84-.87,8.65-.67,17.87-1.93,26.4-.06.42.13.4-.47.36-.27-3.05-.35-6.17-.25-9.25.46-13.87,4.89-27.59,4.09-41.51-.59-10.26-3.9-22.2-2.39-32.4.06-.42-.13-.4.47-.36Z"/><path d="M44.64,32.64c.12,1.65.28,3.26.25,4.93-.1,6.26-.95,11.54-.22,17.96.69,6.06,2.47,12,2.36,18.15-.53.66-.84-1.64-.88-1.88-2.05-10.07-3.73-21.83-3.21-32.09.12-2.35.56-4.76.97-7.07h.71Z"/><path d="M44.64,231.12c.1,1.57.27,3.1.25,4.69-.05,3.84-.79,8.15-.75,11.99.06,6.55,2.01,12.98,2.66,19.44.15,1.49.57,3.63-.12,4.92-.43-1.12-.6-2.33-.8-3.52-1.82-10.99-3.91-22.11-2.68-33.32.15-1.41.5-2.81.72-4.2h.71Z"/><path d="M44.64,131.76c.12,1.41.27,2.78.25,4.21-.07,4.86-1.03,9.74-.73,14.63.45,7.44,3.2,14.69,2.88,22.2-.36-.13-.49-1.07-.6-1.44-2.9-10.5-4.85-28.5-2.29-39.01.1-.41-.24-.7.49-.58Z"/><path d="M168.24,89.52c-.81,3.57-2.19,6.96-2.41,10.67-.36,6.05,1.36,11.86,1.7,17.76.4,7.06-.96,14.11-.74,21.14.43,14.12,3.61,27.18.33,41.35-1.77,7.65-6.8,18.13-7.05,25.6-.11,3.43,2.14,7.27,2.42,10.8.57,7.23-.16,15.52-.26,22.8-.08,6.11-.74,13.58-.23,19.45.31,3.6,1.7,7.74,1.7,11.28,0,1.93-.96,4.17-2.9,2.16-3.62-3.74-3.5-15.54-3.84-20.64-.15-2.19-.62-4.57-.73-6.71-.45-9.34,1.02-19.28.5-28.58-.21-3.76-1.25-7.52-1.45-11.27-.32-6.11,2.98-18.94,5.72-24.52.18-.37.32-.9.76-1.04-.92,6.19-3.55,11.95-4.87,18.04-1.72,7.92.79,14.25.79,22.15,0,14.18-2.32,35.07,2.34,48.32.23.65,1.47,4.07,2.46,3.41,1.28-4.01-1.68-8.36-1.93-12.11-.07-1.01.25-1.78.26-2.64.15-12.02.77-24.02.95-36.01.08-5.22-1.14-6.44-2.22-10.97-1.76-7.32,4.91-22.59,6.62-30.47,2.83-13.04.3-26.05-.07-39.21-.2-7.14.9-14.39.48-21.36-.59-9.83-4.53-19.21.94-28.8.19-.33.2-.7.73-.59Z"/><path d="M66.48,290.88l.49,6.59c.13,11.05.42,21.86-.25,32.89-.02.31.2,1.01-.36.84-.6-.18-.33-11.21-.35-12.61-.14-8.01-.42-15.96,0-23.98.06-1.07-.14-2.35-.01-3.37.06-.44-.08-.39.48-.36Z"/><path d="M66.48,92.64l.49,6.35c.14,11.05.42,21.85-.25,32.89-.02.31.2,1.01-.36.84-.6-.18-.33-11.21-.35-12.61-.14-8-.45-15.97,0-23.98.06-1-.13-2.18-.01-3.13.04-.33.18-.76.48-.36Z"/><path d="M66,232.08c-.42.06-.23-.54-.24-.84-.54-13.15-.18-26.33.12-39.48.57,3.62.25,7.28.35,10.93.19,6.47.47,12.71.25,19.19-.11,3.4-.13,6.81-.48,10.2Z"/><path d="M145.92,149.04c.32,1.8.69,3.61.93,5.43,1.53,11.47,2.31,29.43.19,40.69-.28,1.49-.54,3.67-1.6,4.76-.03-4.86,1.21-9.67,1.45-14.51.16-3.21-.12-6.44-.25-9.61-.37-8.93-1.54-17.81-1.44-26.76h.71Z"/><path d="M145.92,49.92c.32,1.8.69,3.61.93,5.43,1.46,11.23,2.6,33.37-.62,43.95-.15.49-.27,1.28-.78,1.49-.07-4.94,1.21-9.82,1.45-14.75.15-3.21-.11-6.44-.25-9.61-.37-8.85-1.52-17.65-1.44-26.52h.71Z"/><path d="M145.92,299.04c-.65.69-.5-1.78-.49-2.05.37-7.2,1.72-13.32,1.46-20.88-.29-8.51-2.32-18.59-1.7-26.88.03-.43-.07-.78.37-1.06.64,0,1.46,6.94,1.56,7.8,1.06,9.75,1.56,22.41.72,32.16-.32,3.69-1.09,7.33-1.92,10.92Z"/><path d="M4.08,49.68c1.36,5.77,1.66,11.73,1.93,17.64.41,9.19,1.05,21.52-1.04,30.41-.2.84-.39,2.47-1.24,2.84-.08-4.38,1.1-8.71,1.33-13.07.6-11.37-1.39-22.38-1.7-33.6-.03-.98-.15-3.13.19-3.91.15-.34.06-.36.54-.3Z"/><path d="M4.08,248.16c1.36,5.77,1.67,11.73,1.93,17.64.37,8.38,1.26,24.88-1.61,32.48-.13.33-.2.8-.67.77-.08-4.38,1.09-8.72,1.33-13.07.62-11.36-1.39-22.39-1.7-33.6-.03-.98-.15-3.13.19-3.91.15-.34.06-.36.54-.3Z"/><path d="M4.32,199.44c-.71.19-.51-.6-.49-1.09.18-4.25.99-8.72,1.2-13.2.37-8.05.12-15.94-.47-23.99-.3-4.12-.87-8.24-1.2-12.36,1.11,1.23,1.21,3.74,1.43,5.41,1.31,9.93,1.72,21.46,1.21,31.44-.24,4.63-.48,9.3-1.69,13.8Z"/></svg>