<?xml version="1.0" encoding="UTF-8"?><svg id="a" xmlns="http://www.w3.org/2000/svg" width="14.96mm" height="128.52mm" viewBox="0 0 42.4 364.32"><path d="M42.4,186.48v1.68c-7.93,3.98-14.61,9.01-19.98,16.1-18.21,24.06-23.14,64.41-1.81,88.17,1.68,1.87,2.47,1.33,4.78,1.09.33-.28-2.23-2.55-2.52-2.88-23.17-26.34-15.74-68.52,8.98-91.09,3.13-2.86,6.83-5.77,10.54-7.8v1.2c-11.67,7.76-21,18.01-26.3,31.14-7.43,18.42-8.91,37.99.86,55.91,1.89,3.46,7.05,10.86,10.1,13.16,1.42,1.07,2.41.1,4.08.35-2.89-4.02-6.65-7.17-9.44-11.3-11.05-16.31-9.62-35.45-4.09-53.5,4.32-14.1,11.93-25.16,24.8-32.64v2.16c-8.31,5.96-15.97,13.14-19.65,22.92-6.07,16.11-11.04,38.12-2.52,54.13,2.54,4.78,8.94,13.36,12.7,17.28,1.64,1.7,2,.98,4.19,1.44.11-1.07-.7-1.89-1.24-2.71-2.21-3.36-5.31-6.35-7.48-9.78-8.61-13.63-9.33-38.53-3.74-53.38,2.78-7.38,10.95-15.82,16.77-21.12.3-.27.49-.6.96-.6v2.4c-.99.57-2.17,1.6-3,2.39-20.27,19.23-21.93,50.74-6.54,73.52.99,1.46,6.2,8.9,7.24,9.3.73.29,1.56.19,2.29.46v3.36c-14.02-2.27-28.38.57-42.4-1.92v-3.84c1.79.58,3.53,2.02,5.51,1.56l-5.51-9v-4.32l4.75,8.8c.97,1.28,2.21,4.32,3.77,4.86.5.17,3.67.47,3.7.13.04-.42-.19-.74-.35-1.09-2.27-4.77-5.86-9.39-8.08-14.23-1.71-3.72-2.64-7.77-3.79-11.68v-9.84c.72,4.1,1.16,8.23,2.22,12.29,1.74,6.65,4.85,12.61,8.46,18.41.81,1.31,3.4,5.88,4.79,6.02,1.2.12,2.61-.93,3.93-.24.08-.36-.13-.53-.28-.79-1.36-2.37-3.34-4.69-4.79-7.2-18.36-31.97-7.97-74.87,22.01-95.64,1.93-1.34,3.95-2.63,6.07-3.64Z"/><path d="M42.4,163.68v5.52c-9.85,3.73-20.16,7.96-28.48,14.54-.82.65-4.34,3.48-4.34,4.29.64.29,1.59-.18,2.22-.41,4.67-1.69,8.4-5.46,12.46-8.16,5.58-3.71,11.84-6.36,18.14-8.59v1.68c-6.56,2.37-13.37,5.13-19.24,8.93-2.3,1.48-4.34,3.42-6.71,4.8s-5.14,2.19-7.75,3.28c-.87.36-1.89,1.21-2.71,1.12l4.2-4.93c.25-.49-.37-1.12-.73-1.41l-9.46,5.73v-3.84c4.42-1.71,8.28-4.53,11.91-7.51,1.65-5.15-1.12-10.73-4.14-14.79-2.08-2.8-4.83-5.58-7.77-7.46v-2.16c8.25,4.53,13.74,13.48,13.66,23.04l3.77-2.28c-4.47-8.77-8.63-18.91-17.43-24.12v-1.2c3.37,1.57,7.58,4.31,9.82,7.33,1.87,2.52,2.79,5.9,4.28,8.68s3.77,5.28,4.62,8.45c.33.21,1.54-.19,1.63-.59.14-.62-4.74-10.25-5.45-11.54-2.06-3.72-3.93-6.58-7.23-9.32-2.33-1.94-5.06-3.61-7.67-5.16v-2.64c5.62,2.24,10.33,5.33,13.46,10.64,1.57,2.66,6.92,16.08,8.59,16.84.89.41,2.96-1.18,2.87-1.32-7.75-4.52-8.44-14.24-13.12-21.06-2.88-4.19-6.67-6.84-11.79-7.51v-1.44c6.27.46,10.73,4.07,13.78,9.36,3.78,6.55,5.23,15.47,12.26,19.4.53.3,2.01.88,2.01-.32,0-.49-3.34-2.28-3.74-2.99-4.36-4.47-5.32-10.96-8.3-16.16-3.45-6.02-10.04-8.59-16-11.45v-1.68c2.97,1.08,6.1,2.61,8.79,4.28,10.14,6.27,8.79,12.03,14.35,20.9,1.73,2.76,5.1,6.92,8.73,5.66-4.92-2.57-8.48-7.39-11.06-12.2-1.34-2.48-2.3-5.07-3.75-7.52-4.09-6.92-10.34-11.1-17.05-15.2v-2.16c6.95,3.62,14.47,9.26,18.49,16.16,2.31,3.97,3.62,8.49,6.09,12.38,1.85,2.91,6.24,7.9,10.02,7.44.26-.03.99-.1.86-.57-7.49-5.36-10.3-14.66-15-22.18s-12.54-14.72-20.46-19.46v-1.2c9.23,5.31,17.98,13.2,23.58,22.34,3.38,5.53,6.61,15.39,12.29,18.65,1.99,1.14,3.06,1.51,4.86-.31-7.48-6.08-11.22-15.26-16.47-23.09-6.38-9.53-14.49-18-24.25-24.07v-1.44c9.67,5.98,18.18,14.58,24.63,23.92,3.98,5.77,6.89,12.29,11.21,17.81,1.78,2.27,3.96,5.01,6.56,6.26Z"/><path d="M6.47,0c1.01,12.85,5.19,24.66,12.98,34.88,1.93,2.53,2.54,3.63,6.18,2.45C15.43,27.79,9.66,13.95,9.1,0h1.2c.31,8.47,2.81,17.03,6.91,24.4,2.31,4.16,5.95,8.91,9.26,12.32,1.29,1.33,2.29,1.15,4.07.71.17-.04.55.09.36-.35-.13-.29-1.68-2.11-2.03-2.53-1.3-1.53-3.04-3.03-4.32-4.55C17.6,21.71,13.76,10.82,13.42,0h2.16c.2,3.6.54,7.2,1.41,10.71,2.61,10.53,10.18,18.36,16.63,26.66l3.76.43c-2.26-4.43-6.17-7.9-8.82-12.05-4.7-7.36-6.83-17.11-7.23-25.75h1.44c.75,8.19,2.9,16.29,6.82,23.53,1.16,2.14,8.95,13.76,10.49,14.45.63.29,1.63.34,2.33.42v3.36c-2.02-.19-4.08-.59-6.11-.72-9.69-.63-19.51.55-29.22-.24-2.36-.19-4.72-.69-7.07-.96v-3.84c1.71.79,3.53,2.03,5.51,1.56L0,28.56v-4.08c1.23,1.48,1.91,3.49,2.83,5.2.66,1.23,4.64,8.48,5.67,8.48h3.95C7.59,29.35,1.87,21.18,0,11.04V1.44c.64,2.61.77,5.32,1.27,7.96,1.63,8.59,5.05,15.65,9.65,22.98.71,1.13,3.15,5.32,4.3,5.54s2.9-.55,4.18-.24l-5.55-8.72C8.94,20.02,6.13,10.18,5.27,0h1.2Z"/><path d="M42.4,60.24v1.68c-7.15-.48-14,1.72-20.97,2.88l-15.93-.23,8.78,5c7.28,3.29,8.03.48,14.06-2.17,4.36-1.92,9.37-1.93,14.06-1.88v1.2c-7.13-1.05-14.09,2.2-20.13,5.64-.1.58.27.28.59.36,3.24.81,4.65,1.17,7.98.3,3.88-1.01,7.31-3.73,11.55-3.19v1.44c-4.06-.24-7.94,1.22-11.5,3l11.5,1.8v2.4l-6.71-.72,6.71,5.04v1.68c-4.76-4.58-10.55-8.69-17.49-8.4,6.26,4.8,12.32,9.85,17.49,15.84v2.16c-.51.12-.51-.29-.73-.58-5.24-6.86-12.55-13.37-20.11-17.55-7-3.87-14.44-7.05-21.57-10.67v-4.32c7.51,2.04,14.67,2.28,22.37,1.41,6.66-.75,13.26-2.42,20.04-2.13Z"/><path d="M42.4,316.32v1.44c-7.29-.21-14.32,1.93-21.44,3.12l-15.93-.36c4.51,1.77,10.64,7.23,15.67,6.58,2.52-.33,6.05-3.11,8.6-4.1,4.11-1.59,8.76-1.41,13.1-1.4v.96c-7.33-.66-14.18,2.36-20.37,5.88,3.99,1.58,6.97,1.26,10.91-.11,3.04-1.06,6.04-3.08,9.46-2.41v1.44c-3.89-.33-7.64.99-11.02,2.76-.1.53.23.31.56.39,3.25.85,7.12.86,10.47,1.41v2.64c-2.21-.35-4.46-1.02-6.71-.6l6.71,4.92v1.44l-4.96-4.04c-3.56-2.54-7.83-4.43-12.29-4.12,3.45,2.98,7.21,5.63,10.54,8.75,2.34,2.18,4.36,4.67,6.7,6.84v2.4c-2.84-3.19-5.59-6.46-8.74-9.37-8.55-7.89-20.63-13.55-31.18-18.44-.8-.37-1.65-.7-2.48-.99v-4.56c7.1,2.24,14.29,2.44,21.65,1.65,6.9-.74,13.75-2.53,20.75-2.13Z"/><path d="M42.4,181.44c-13.63,5.88-24.35,15.84-31.43,28.88-5.68,10.46-10.09,25.22-10.98,37.12v-11.28c3.65-15.96,10.5-32.14,22.63-43.45,1.51-1.4,3.27-2.55,4.68-4.07-11.06,1.3-16.8,11.62-21.69,20.39l-5.62,11.53v-5.76c4.37-8.86,10.09-16.95,17.25-23.76-5.63-.25-9.26,4.92-12.17,9.04-1.83,2.58-3.3,5.38-5.08,8v-1.92l9.58-13.44c-4.23-.45-6.97,3.33-9.58,6v-1.2l2.88-3.72-2.88.12v-2.4c15.09-.35,29.02-5.81,42.4-12.24v2.16Z"/><path d="M42.4,155.76v3.12c-.65-.22-1.35-1.15-1.8-1.68-10.44-12.4-15.53-26.02-28.14-37.57-3.73-3.41-8.04-6.79-12.46-9.24v-2.16c1.93.8,3.87,2.18,5.59,3.4,7.81,5.55,14.71,12.46,20.24,20.28s9.82,16.81,16.58,23.84Z"/><path d="M42.4,357.6v3.12c-2.36-2.88-4.3-6.14-6.61-9.1-9.37-11.94-21.85-20.83-35.79-26.66v-2.16c14.7,5.97,27.86,15.14,37.47,27.86,1.71,2.26,3.15,4.73,4.93,6.94Z"/><path d="M42.4,101.76v2.88c-.6.14-.48-.33-.67-.63-10.17-16.07-24.21-27.76-41.73-35.13v-1.92c17.55,6.66,32.55,18.78,42.4,34.8Z"/><path d="M42.4,219.84v1.44c-3.77,4.16-7.45,9.4-9.35,14.76-3.02,8.52-3.96,18.35-2.28,27.25,1.52,8.04,6.67,15.74,11.63,22.07v2.88c-4.93-5.6-9.2-12.03-11.32-19.26-3.46-11.74-2.06-24.23,1.52-35.76,2.42-3.86,4.76-7.93,7.77-11.47.51-.6,1.33-1.59,2.04-1.92Z"/><path d="M42.4,123.36v2.16c-.41-.15-.55-.47-.76-.8-3.85-5.88-7.59-11.79-11.95-17.31-8.21-10.4-17.98-18.83-29.7-25.09v-1.68c11.39,6.26,22,14.7,30.18,24.85,4.53,5.62,8.32,11.82,12.22,17.87Z"/><path d="M42.4,150.24v2.16c-4.06-4.92-6.59-10.98-9.78-16.48-7.87-13.56-18.73-26.34-32.62-33.92v-1.44c8.94,4.41,17.35,11.48,23.34,19.46,7.15,9.53,12,20.62,19.07,30.22Z"/><path d="M42.4,130.32v1.2c-2.92-4.19-5.43-8.65-8.43-12.8-8.95-12.37-20.4-23.05-33.98-30.16v-1.44c.45-.04.82.15,1.21.35,2.04,1.02,4.51,2.6,6.44,3.87,14.78,9.72,26.13,23.65,34.76,38.98Z"/><path d="M42.4,232.32c-.72.82-1.13,1.64-1.55,2.64-5,11.76-5.31,27.58,1.55,38.64v3.12c-7.52-11.15-8.02-23.98-4.72-36.77.96-3.72,2.26-7.03,4.04-10.35.18-.34.28-.72.68-.87v3.6Z"/><path d="M42.4,43.44v1.92l-9.71-.25-18.43,1.22c-4.78-.04-9.53-.45-14.27-.97v-1.92c6.2,1.13,12.73,1.79,19.06,1.45,4.4-.24,8.76-1.45,13.17-1.69,3.39-.18,6.81.07,10.18.24Z"/><path d="M42.4,299.52v1.92c-14.12-1.13-28.35,2.44-42.4-.24v-1.68c6.99,1.1,14.11,1.89,21.2,1.2,3.31-.32,6.73-1.26,10.05-1.45,3.59-.2,7.58,0,11.15.25Z"/><path d="M42.4,113.52v1.92c-3.17-4.63-6.03-9.46-9.49-13.9-8.73-11.21-20.27-20.26-32.92-26.66v-1.2c12.77,6.32,24.34,15.19,33.16,26.42,3.36,4.28,6.22,8.91,9.25,13.42Z"/><path d="M42.4,48.72v1.2c-1.36.25-2.97-.24-4.19-.24-6.46.01-12.85,1.92-19.21,2.84s-12.62,1.01-19.01-.44v-1.68c4.11.65,8.41,1.51,12.59,1.45,6.71-.09,13.65-2.48,20.36-3.13,3.18-.31,6.28-.18,9.46,0Z"/><path d="M32.34,364.32h-2.16c-1.44-2.19-3.17-4.28-4.91-6.24-7.12-8.03-15.82-14.63-25.28-19.68v-1.68c1.5.51,2.95,1.46,4.29,2.3,10.71,6.68,20.51,15.14,28.05,25.3Z"/><path d="M42.4,304.8v1.2c-8.11-1.14-15.97,1.51-23.88,2.6-6.21.86-12.37.72-18.53-.44v-1.92c2.7.62,5.74,1.27,8.51,1.44,11.64.71,22.29-4.36,33.9-2.88Z"/><path d="M38.81,364.32h-1.2c-9-14.56-22.62-25.64-37.61-33.6v-.96c15.77,7.62,29.73,19.47,38.81,34.56Z"/><path d="M42.4,54.72v.96c-2.64.05-5.37.14-7.99.51-4.58.66-8.8,2.81-13.44,3.1-7.21.44-14.26-2.06-20.97-4.33v-1.68c5.17,1.56,10.2,3.98,15.68,4.33,9.22.59,17.61-2.72,26.72-2.89Z"/><path d="M42.4,310.8v.96c-2.83-.06-5.67.08-8.47.52-3.74.59-7.24,2.25-10.88,2.78-7.95,1.15-15.62-1.65-23.05-4.01v-1.68c5.58,1.65,10.71,4.03,16.64,4.33,8.79.45,17.03-3.01,25.76-2.89Z"/><path d="M0,94.08c13.21,6.62,24.41,17.03,32.11,29.64-.12.32-.49-.28-.58-.38-.97-1.19-1.81-2.5-2.79-3.69-7.99-9.72-17.69-18.07-28.74-24.13v-1.44Z"/><path d="M29.95,0c.02,11.32,5.81,20.89,12.46,29.52v2.64C34.35,23.52,29,12.04,29.23,0h.72Z"/><path d="M26.83,364.32h-1.44c-7.26-7.92-15.79-14.8-25.39-19.68v-1.68c10.26,5.18,19.37,12.66,26.83,21.36Z"/><path d="M19.88,364.32h-2.16c-5.22-5.07-11.32-9.3-17.73-12.72v-1.44c7.37,3.52,14.03,8.51,19.88,14.16Z"/><path d="M37.37,0c.05,6.18,1.87,12.48,5.03,17.76v2.88c-1.05-1.15-1.77-2.75-2.44-4.16-2.47-5.24-4.22-10.62-4.27-16.48h1.68Z"/><path d="M42.4,174.48v1.68c-8.67,2.49-15.96,8.1-24.44,11.04,4.11-2.72,8.53-5.29,12.93-7.56,3.73-1.92,7.57-3.7,11.5-5.15Z"/><path d="M0,184.32v-1.44c9.53-4.01,6.27-14.04,0-19.44v-1.68c7.45,5.73,10.23,18.12,0,22.56Z"/><path d="M11.74,364.32h-2.4c-2.8-2.46-5.99-4.59-9.34-6.24v-1.68c4.13,2.23,8.31,4.7,11.74,7.92Z"/><path d="M0,177.6v-1.44c.97-1.65.97-3.87,0-5.52v-1.44c.46.16.48.58.6.96.75,2.36.85,5.35-.6,7.44Z"/><path d="M40.49,137.52l-7.9-12.96c3.14,3.91,5.79,8.38,7.9,12.96Z"/></svg>