<?xml version="1.0" encoding="UTF-8"?><svg id="a" xmlns="http://www.w3.org/2000/svg" width="14.99mm" height="128.61mm" viewBox="0 0 42.48 364.56"><path d="M18,364.56c-.62-4.47.14-9.09,1.03-13.49,2.1-10.38,7.39-19.57,11.15-29.41,1.68-4.4,3.09-8.89,4.16-13.48h.7c-.44,3.74-.21,7.6-.25,11.39,0,.49.24.94.23,1.4-.04,1.85-1.47,4.02-1.65,5.9l1.2-2.88c.42-.08.48.11.67.41.45.76,1.53,4.82,1.5,5.7-.05,1.57-1.74,3.34-1.93,4.93.85-.7,1.2-1.98,1.85-2.82.15-.2,0-.44.55-.3.41,1.96,1.95,4.48,1.33,6.49-.13.43-.67.97-.89,1.5-.89,2.12-1.78,4.25-2.59,6.4,1.54-1.75,2.1-4.35,3.53-6.18.15-.2,0-.44.55-.3.2,1.29,1.44,3.14,1.37,4.41-.06,1.12-1.5,2.33-1.6,3.51,1.34-1.53,1.93-3.29,2.58-.06.21,1.03.04,1.92.07,2.79,0,.08.84.9.95,1.34v12.72h-8.64c.09-5.33,1.82-10.38,4.08-15.12-3.07,4.26-4.25,9.93-4.32,15.12h-2.88c-.25-5.52,1.8-10.37,3.41-15.43.07-.23.39-.73.07-.89-2.25,5.19-4.36,10.6-4.68,16.32h-3.84c-.03-8.99,3.12-17.48,6.96-25.44-.36.06-.45.45-.6.71-4.3,7.25-7.03,16.25-6.83,24.73h-3.6c-.18-9.02,2.98-17.55,6.48-25.68-1.15,1.42-1.95,3.42-2.68,5.12-2.83,6.56-4.49,13.36-4.52,20.56h-2.88Z"/><path d="M42.48,108.48c-1.36,3.85-2.02,7.91-1.92,12l-1.2-.96c-.29.33.99,1.61,1.09,1.94.12.39-.13.5-.13.58v4.68c-.91-.18-1.59-1.36-2.12-2.08-6.43-8.93-5.14-21.38-.53-30.8-1.51,1.91-2.44,4.54-3.05,6.91-1.98,7.7-1.59,16.54,2.53,23.49.5.85,3.02,3.77,3.11,4.09.14.48.04,3.48-.19,3.67-.12.1-.51.03-.73-.16-.35-.31-1.37-1.75-1.76-2.26-7.14-9.2-8.31-19.88-5.36-30.99.47-1.77,1.24-3.43,1.61-5.23l-2.16,5.15c-4.37,10.77-1.78,22.59,5.09,31.64,1.12,1.48,2.81,2.27,3.26,4.18.15.64-.09,1.35.3,1.98-.64.45-2.76-1.44-3.25-1.91-8.74-8.39-12.62-20.55-10.87-32.49.78-5.33,2.7-10.69,5-15.52-.5-.11-.56.24-.77.55-2.46,3.67-4.93,13.14-5.23,17.57-.89,13.37,5.03,24.78,14.83,33.41.03,1.56.63,3.1.05,4.63-.53.36-2.78-1.95-3.24-2.39l-.36.59c.82.68,3.3,2.66,3.66,3.54.66,1.63-.47,3.22.18,4.74-.37.28-2.24-1.44-2.64-1.79-19.63-17.37-24.53-40.46-14.75-64.68,4.06-10.05,9.29-19.73,11.39-30.49,1.09,0,.47,1.02.46,1.79,0,3.64.32,7.47.2,11.05-.06,1.77-1.15,3.65-1.39,5.4.62-.37.68-1.49.93-2.06.1-.22.09-.72.5-.34.36.34,1.71,5.4,1.7,6.12-.01,1.69-1.79,3.73-2.18,5.4.94-.87,1.39-2.26,2.1-3.29.14-.21-.04-.45.53-.31.32,1.61,1.38,3.53,1.46,5.15.07,1.54-2.09,5.36-2.77,7.09-.24.62-.6,1.25-.61,1.91,1.4-1.59,1.88-3.96,3.16-5.6.21-.27.24-.5.68-.4l1.37,4.16-1.85,4c.69-.21,1.43-2.76,2.16-2.29.45.29.91,3.29.88,3.9-.03.72-.65.86-.64,1.51l.96-.72.48,1.2v12.72ZM36.24,140.16c.3-.3-2.44-2.76-2.76-3.12-12.38-13.71-14.69-29.1-8.52-46.45,1-2.8,2.5-5.55,3.49-8.27.08-.23.32-.78-.13-.73-4.82,9.72-8.37,19.74-7.17,30.81,1.1,10.13,6.39,20.75,14.25,27.27.27.22.39.58.84.48Z"/><path d="M0,168.48v-9.84c1.51-3.29,3.31-7.78,3.61-11.4.02-.19.07-.88-.25-.48-.69,3.46-1.66,7.1-3.36,10.2v-3.84c3.63-7.72,4.73-16.58,4.08-25.08l-.72-4.44.25,9.01c-.48,6.17-1.16,12.39-3.06,18.3-.12.37-.19.77-.55,1.01v-8.16c1.36-6.97,1.26-14.62.45-21.69-.08-.7-.16-1.7-.45-2.31v-19.44c.46.31.99.76,1.3,1.22,4.42,6.3,5.88,22.54,6.15,30.33.4,11.52.02,23.31-5.49,33.65-.52.98-1.16,2.19-1.96,2.96Z"/><path d="M42.48,228.72v5.28c-5.34,1.37-10.77,2.57-16.02,4.26-1.77.57-5.27,1.57-6.3,2.7-6.72,2.16-11.34,7.38-16.2,12.2l-3.96-2.84v-4.08c4.67-3.64,9.58-7.09,14.96-9.64,1.67-.79,3.79-1.24,5.15-2.34l22.37-5.54Z"/><path d="M42.48,234.24v3.36c-12.45,4.53-25.71,8.08-35.67,17.26-.23.04-2.04-1.24-1.78-1.77.06-.64.81-.81,1.22-1.21,3.29-3.22,5.37-6.02,9.52-8.48,1.28-.76,3.49-1.44,4.39-2.45,7.39-2.37,14.94-4.32,22.32-6.72Z"/><path d="M0,197.28v-11.04c6.46-6.3,11.34-13.96,10.56-23.4-.34-4.05-2.61-8.24-1.91-12.36.55.44.98,1.29,1.32,1.91,11,19.75,6.58,29.96-9,44.29-.3.27-.49.6-.96.6Z"/><path d="M0,198l5.89-5.27c10.14-8.79,13.95-20,8.56-32.81-2.37-5.64-7.11-10.7-5.8-17.36.56-.12.39.07.54.31,3.78,5.93,9.24,15.8,10.82,22.53.52,2.2.37,10.27.17,12.81-.29,3.7-4.12,9.56-6.5,12.46-3.85,4.7-8.94,9.08-13.67,12.85v-5.52Z"/><path d="M0,9.84c4.5,2.32,9.36,4.02,14.36,4.96,2.3.44,5.25.47,7.36,1.04.35.09.36-.2.37.36.02,1.17-2.65,3.94-3.61,4.8-4.93,4.46-11.87,6.64-18.48,6.12v-6c2.96.82,6.07.89,9.12.6-3.07-.09-6.1-.33-9.12-.84v-11.04ZM17.76,17.28c-3.67.53-7.19.17-10.8-.48-.03.38.6.38.87.45,2.74.7,5.79.92,8.58.48.32-.05,1.3-.08,1.35-.44Z"/><path d="M0,265.92c5.71,2.82,11.6,4.56,17.91,5.49,1.08.16,2.45.11,3.52.34.84.18.87.59.52,1.37-.71,1.58-4.2,4.54-5.7,5.58-4.84,3.38-10.34,4.84-16.25,4.51v-6c3.4.66,6.89,1.04,10.32.36,0-.43-3.27.14-3.71.13-1.27-.02-3.49-.29-4.78-.52-.62-.11-1.22-.31-1.83-.45v-10.8ZM17.52,273.36c-4.2.56-8.15-.11-12.24-.96l5.88,1.43h4.55s1.8-.47,1.8-.47Z"/><path d="M42.48,252.72c-4.89.6-9.84,1.37-14.4,3.24l7.12-1.53,7.29-.75v2.64c-3.69.23-6.23,2.75-9.2,4.36-2.36,1.28-3.2.92-5.77.65-1.82-.19-3.65-.54-5.43-.93l.24-.72c-.74-.09-1.53.62-2.24.48-.16-.03-.15-.4-.35-.47-.89-.29-2.02-.35-2.94-.74-.43-.55,10.54-7.44,11.36-7.96.85-.87,3.51-1.04,4.18-1.46.15-.1.37-.68.8-1,2.76-2.02,6.12-3.36,9.34-4.46v8.64Z"/><path d="M42.48,198.24c-4.67,5.66-10.03,10.46-16.71,13.65-8.46,4.03-12.89,5.46-19.53,12.63-1.96,2.11-3.38,4.99-6.23,6.13v-3.6c4.7-4.34,5.43-9.59,11.36-13,7.68-4.42,15.24-6.07,22.49-12.07,3.38-2.8,5.92-6.07,8.64-9.48v5.76Z"/><path d="M42.48,215.76c-4.62,3.36-9.66,6.18-14.14,9.74-1.03.82-2.51,1.94-3.39,2.85s-1.45,2.1-2.39,2.89c-1.84,1.55-5.4,1.68-7.68,2.52,1.22-1.88,2.16-3.97,3.4-5.84.92-1.39,1.07-1.19,1.88-3.04,3.67-3.56,6.42-3.57,10.72-5.48s8.03-4.82,11.6-7.72v4.08Z"/><path d="M42.48,202.08c-2.1,2.86-4.49,5.5-7.07,7.93-3.82,3.59-8.24,6.66-11.89,10.43-1.29,1.33-2.63,2.79-3.35,4.45-.9.88-2,2.11-2.7,3.18-2.75,4.23-1.87,5.91-6.74,8.86-3.52,2.13-7.42,3.68-10.72,6.2v-2.16c3.55-3.11,7.99-5.6,10.9-9.38,2.23-2.89,3.04-7.11,4.99-10.37,3.51-5.88,7.32-6.5,12.83-9.73,3.54-2.07,7.41-4.56,10.4-7.36,1.19-1.12,2.09-2.46,3.36-3.48v1.44Z"/><path d="M0,293.28v-4.56c7.43.12,15.04-3.33,19.92-8.88-1.31.34-2.26,1.7-3.38,2.5-4.77,3.43-10.6,5.48-16.54,5.42v-4.08c7.39.58,14.19-1.65,19.45-6.84,2.27-2.24,4.39-6.66,8.21-5.15.19.08.17.48.3.47.76-.02,2.6-2.43,3.71-1.09-3.48,3.91-7.3,7.58-11.04,11.28-.68.68-1.25,1.56-2.03,2.29-5,4.7-11.82,7.73-18.61,8.63Z"/><path d="M0,37.2v-4.32c7.49-.32,15.2-3.27,19.92-9.24l-5.78,4.3c-4.28,2.41-9.18,3.95-14.14,3.74v-4.08c6.8.89,14.59-1.74,19.45-6.59,2.45-2.45,4.12-6.68,8.39-5.41l-.48.84c-.04.18.25.16.36.12.3-.14,3.63-3.08,3.96-1.55l-13.55,14.04c-5.12,4.29-11.35,7.6-18.13,8.15ZM24,19.68l-2.64,2.03-1.19,1.56c.25.25,3.57-3.14,3.84-3.6Z"/><path d="M42.48,31.68v6.24c-4.49,4.86-9.49,9.11-15.14,12.58s-11.46,6.39-17.74,8.18c-3.15.9-6.38,1.45-9.6,2.04v-3.84c8.91-1.28,17.4-4.78,25.03-9.41,6.61-4.01,12.2-8.93,16.73-15.2.21-.29.17-.72.71-.59Z"/><path d="M42.48,293.76c-4.58,5.13-9.85,9.61-15.77,13.15-5.22,3.12-10.78,5.87-16.63,7.61-3.28.97-6.67,1.76-10.08,2.04v-3.6c2.03-.37,4.06-.74,6.05-1.27,11.92-3.15,25.19-10.64,33.19-20.09,1.12-1.32,2.03-2.83,3.24-4.08v6.24Z"/><path d="M6.48,364.56c.05-2.11.21-4.24.52-6.32,1.91-13.02,9.49-25.58,15.05-37.27,1.77-3.73,2.75-8.87,7.59-9.69.35.15.02.46-.07.65-2.9,6.58-6.31,12.97-9.29,19.51-3.26,7.16-6.81,14.46-8.44,22.28-.75,3.58-1.09,7.2-1.28,10.84h-4.08Z"/><path d="M12.24,364.56c.22-5.02.73-9.82,1.99-14.69,2.62-10.1,8.2-18.97,12.45-28.35,1.14-2.52,1.98-5.18,3.11-7.69.68-1.51,1.6-3.84,2.96-4.72.28.56.12,1.34.01,1.93-.57,3.05-2.43,7.59-3.55,10.61-3.59,9.68-8.69,18.72-11.06,28.78-1.05,4.45-1.64,9.59-1.12,14.12h-4.8Z"/><path d="M42.48,260.88v3.6c-1.43-.13-3.04-.65-4.44-.72-4.7-.23-9.23,3.04-13.92,3.35-2.24.15-6.23-.76-8.52-1.31-5.52-1.33-10.67-3.6-15.6-6.36v-6.96c8.91,6.35,19.08,9.5,29.91,10.77.89.1,2.25.31,3.09.29,2.81-.09,6.23-3.15,9.48-2.66Z"/><path d="M42.48,29.52c-1.37,1.65-2.48,3.49-3.85,5.15-7.63,9.24-21.77,17.43-33.4,20.12-1.71.4-3.48.74-5.24.88v-3.12c7.01-1.09,13.58-3.41,19.62-7.12,10.95-6.72,16.77-11.82,22.2-23.66.17-.36.22-.75.66-.9v8.64Z"/><path d="M42.48,285.36c-4.43,7-10.7,12.63-17.69,16.99-5.06,3.16-10.81,6.01-16.58,7.66-2.69.77-5.45,1.3-8.21,1.75v-3.36c6.8-.79,13.46-3.21,19.28-6.76,7.33-4.48,15.87-10.64,20.04-18.36,1.08-2.01,1.73-4.55,3.16-6.32v8.4Z"/><path d="M6,0c3.54,2.05,7.57,3.82,11.52,4.92,3.32.92,13.56,2.98,16.62,2.46,1.31-.22,3.09-1.51,4.54-1.94,1.2-.35,2.55-.47,3.79-.65v3.6c-1.7-.07-3.5-.64-5.2-.63-4.21.02-8.44,2.89-12.68,3.27-2.55.23-5.75-.51-8.28-1.07C10.49,8.65,5.14,6.34,0,3.36V0h6Z"/><path d="M42.48,273.84c-1.7,3.2-2.85,6.71-4.68,9.84-3.81,6.52-11.26,12.08-17.66,15.94s-12.97,6.63-20.14,7.82v-2.16c12.22-3.95,24.79-11.58,33.37-21.23,3.69-4.15,6.07-9.2,9.11-13.81v3.6Z"/><path d="M42.48,17.76c-1.88,3.7-3.15,7.75-5.47,11.21-6.18,9.24-21.12,18.3-31.74,21.3-1.7.48-3.51.95-5.28,1.08v-1.92c14.08-5,28.96-13.98,37.3-26.66,1.84-2.79,3.32-5.84,5.18-8.62v3.6Z"/><path d="M42.48,190.08c-4.25,6.48-9.83,12.11-16.64,15.88-6.28,3.48-13.2,6.31-19.35,10.17-1.61,2.52-3.11,5.24-5.29,7.31.1-6.34,6.14-10.99,11.12-13.96,12.27-7.35,19.88-9.4,27.56-22.84.88-1.53,1.43-3.42,2.6-4.72v8.16Z"/><path d="M42.48,240.96c-7.51,4.43-16.02,8-23.21,12.91-1,.68-4.37,3.66-5.05,3.84-.99.26-2.91-.61-3.89-1.03-.55-.24-2.65-1.1-2.65-1.67,4.85-2.89,9.47-6.78,14.56-9.21,6.41-3.06,13.65-4.84,20.25-7.47v2.64Z"/><path d="M42.48,178.8c-4.26,10.36-11.46,19.97-21.84,24.72,9.83-10.23,18.29-22.5,20.37-36.87s.19-29.32,1-43.88c.04-.69.23-1.87.48-2.52v58.56Z"/><path d="M0,326.4c1.84-2.02,3.52-8.58,7.21-7.33.81.27.6.65.83,1.33.2-1.24,5.44-3.24,5.98-3.11.22.05.37.35.39.59.09,1.06-5.79,9.97-6.77,11.72-4.46,7.96-8.48,16.48-5.96,25.84l-1.68-1.68v-15.84l5.04-11.76c-.52-.11-.55.25-.76.56-1.93,2.68-2.95,6.06-4.28,9.04v-9.36Z"/><path d="M0,70.56c2.17-2.74,3.19-8.98,7.89-7.17l.15.92c.47-1.27,5.4-3.27,6.13-2.77l.23.48c-5.91,11.63-16.4,23.24-12.72,37.33l-1.68-1.68v-15.6l5.28-12.6c-.18-.34-.45.33-.52.44-.83,1.3-1.78,2.89-2.45,4.27-.87,1.8-1.38,3.73-2.31,5.49v-9.12Z"/><path d="M0,43.2v-2.88c5.57-1.48,10.53-4.18,15.2-7.48,2.38-1.69,5.35-3.99,7.49-5.95,3.93-3.61,7.31-8.88,11.28-12.24,1.01-.86,2.41-2.22,3.79-1.4,1.09.65-1.05,2.84-1.63,3.56-4.52,5.58-11.51,12.72-17.05,17.27S6.77,41.45,0,43.2Z"/><path d="M0,296.16c10.13-2.46,19.23-9.6,26.28-17.04,1.92-2.02,7.45-9.1,9.54-9.89.5-.19,2.37-.44,2.35.41-.02,1.13-5.28,6.87-6.38,8.04-6.11,6.57-13.62,14.25-21.8,18.04-3.11,1.44-6.62,2.72-10,3.32v-2.88Z"/><path d="M0,300.48c1.15-.26,2.37-.57,3.49-.95,1.55-.52,3.79-1.17,4.81-2.39l.94.7,10.5-6.95c7.06-6.8,14.81-13.06,20.08-21.5.36-.56,1.86-.46,1.7.25-2.22,2.32-3.06,5.48-4.79,8.17-2.96,4.61-7.68,9.1-11.89,12.59-7.31,6.06-15.34,10.58-24.83,12.25v-2.16Z"/><path d="M0,44.4c2.29-.56,5.47-1.31,7.52-2.45.66-.37.29-1.19,1.85-.29l10.29-6.75c4.93-4.98,10.91-9.41,15.37-14.87,1.35-1.65,3.47-5.58,4.82-6.7.54-.44,1.13-.46,1.67-.01-1.82,2.21-2.7,4.97-4.13,7.39-4.29,7.27-15.49,17.07-22.99,20.93-4.55,2.34-9.46,3.89-14.41,5.15v-2.4Z"/><path d="M0,240.24v-3.84l5.28-3.84c-1.99.58-3.48,2.17-5.28,3.12v-4.08l5.44-4.16c3.16-3.85,7.27-8.1,11.68-10.52.18-.1,1.64-.99,1.6-.32,0,.12-1.41,1.36-1.67,1.69-3.18,3.98-3.53,7.27-5.56,11.48-2.24,4.65-7.99,6.92-11.49,10.47Z"/><path d="M0,4.8c7.46,4.21,17.03,7.97,25.77,7.17,4.26-.39,9.22-3.56,13.4-2.29.3.09.8.05.67.52-.14.5-8.04,2.84-9.17,3.08-5.93,1.24-12.48.8-18.39-.48-4.29-.93-8.33-2.55-12.28-4.4v-3.6Z"/><path d="M0,260.88c7.72,4.13,18.03,8.38,26.97,6.93,3.56-.58,8.94-3.53,12.39-2,.26.11.62.01.48.47-.11.34-5.91,2.18-6.72,2.4-5.79,1.59-11.19,1.63-17.13.81-5.61-.77-10.86-2.72-15.99-5.01v-3.6Z"/><path d="M42.24,0c-1.07.78-2.48.93-3.69,1.47-2.13.96-5.51,3.86-7.46,4.06-1.06.11-8.5-.66-8.92-1.2l.15-.73c-2.09,1.12-3.42-.44-5.52-.48-.52-.49,3.31-2.28,3.12-3.12h22.32Z"/><path d="M42.48,42.96c-8.12,8.88-19.25,14.75-30.96,17.4-1.77.4-3.55.59-5.34.9-1.15.2-2.94,1.31-3.79.18,1.11-.55,2.26-.35,3.37-.59,4.3-.93,9.1-2.82,13.11-4.65,8.83-4.03,16.86-9.63,23.6-16.6v3.36Z"/><path d="M42.48,295.68v3.36c-7.38,7.76-17.17,13.68-27.55,16.49-3.71,1-7.54,1.42-11.24,2.46l-1.29-.24c.67-.99,2.1-.6,3.13-.82,11.22-2.44,24.93-10.02,33.35-17.77l3.6-3.48Z"/><path d="M42.48,210.72c-4.72,4.61-10.49,8.06-16.85,9.91-.24.07-.76.36-.91.05l17.76-17.16v7.2Z"/><path d="M42.48,216.48v3.84c-1.83,1.17-3.64,2.75-5.28,4.2-2.14,1.89-4.75,5.19-7.42,5.78-1.86.41-3.86.23-5.63,1.07-.17,0-.32-.57-.31-.61.02-.21,2.34-2.87,2.65-3.15.16-.14.55-.14.76-.31,4.7-4.1,10.06-7.37,15.24-10.81Z"/><path d="M0,184.56v-6.72c5.06-4.91,8.43-11.59,8.88-18.72.45.18.56,1.2.65,1.63,1.8,8.84-1.96,15.41-7.49,21.89-.51.6-1.33,1.59-2.04,1.92Z"/><path d="M42.48,79.2v8.4c-.87-1.8-1.28-4.06-1.76-6.04-2.09-8.68-4.05-17.97-3.53-26.97.11-2,.42-4.02,1.21-5.87l.68.4c-.59,10.1.48,20.41,3.4,30.08Z"/><path d="M42.48,343.44c-.4-.24-.4-.66-.51-1.05-1.77-6.24-3.47-13.56-4.25-19.99-.7-5.76-1.11-12.3.69-17.85l.72.4c-.65,7.68.12,15.37,1.51,22.92.45,2.45.91,5.09,1.84,7.4v8.16Z"/><path d="M0,176.4v-6.24c3.87-4.56,5.56-10.5,7.44-16.08.42-.06.23.55.24.84.29,7.8-1.93,16.03-7.68,21.48Z"/><path d="M42.48,221.04v5.28c-.92.18-1.16,1.07-2.02,1.46-1.76.79-4.92.97-6.86,1.54.15-.58.58-1.22.99-1.65,1.5-1.62,4.11-3.7,5.86-5.18.59-.49,1.33-1.19,2.03-1.45Z"/><path d="M42.48,323.52c-.54-.63-.69-1.82-.85-2.63-1.15-5.78-1.63-13.04.85-18.49v21.12Z"/><path d="M42.48,67.44c-.5-.38-.51-1.08-.64-1.64-1.26-5.43-1.62-12.16-.2-17.56.14-.55.29-1.39.84-1.68v20.88Z"/><path d="M0,210.48v-4.56l7.2,5.16c-2.68,3.79-4.31,1.02-7.2-.6Z"/><path d="M42.48,326.88v5.52c-.58-.71-.69-1.94-.89-2.83-1.41-6.49-2.64-14.18-2.25-20.82.11-1.88.37-4.71,1.69-6.11-1.05,8.19-1.8,16.43,1.44,24.24Z"/><path d="M42.48,70.8v5.52c-.5-.38-.51-1.08-.64-1.64-1.46-6.29-4.12-21.8-1.4-27.4.14-.28.24-.66.6-.72-1,8.16-1.87,16.46,1.44,24.24Z"/><path d="M4.32,364.56H0v-8.16c2.37,1.91,3.27,5.4,4.32,8.16Z"/><path d="M0,212.16l3.61,2.05c.07.38-1.83,2.72-2.17,2.88-.72.32-.88-.29-1.43-.61v-4.32Z"/><path d="M42.48,257.28v2.16l-7.92,1.68c2.21-1.95,5.11-3.02,7.92-3.84Z"/><path d="M42.48,3.36l-7.92,1.56c2.42-1.68,5.14-2.79,7.92-3.72v2.16Z"/><path d="M0,64.32c3.03-.73,3.58-1.15,1.96,1.84-.53.97-1.22,2.14-1.96,2.96v-4.8Z"/><path d="M0,320.4c.88-.33,1.95-.71,2.88-.36.06.87-2.24,4.28-2.88,5.16v-4.8Z"/><path d="M16.32,0c-.36.5-2.01,1.88-2.51,1.9-.8.04-3.72-1.28-4.45-1.9h6.96Z"/><path d="M42.48,266.64v1.2l-3.12.24c.71-.84,2.06-1.3,3.12-1.44Z"/><polygon points="42.48 10.56 42.48 12 39.36 11.88 42.48 10.56"/><path d="M0,294.48l3.12-.24c-.67.85-2.16.78-3.12,1.2v-.96Z"/><path d="M0,38.4c.81.1,1.6-.07,2.4-.12.32-.02.81-.41.72.24l-3.12.84v-.96Z"/><path d="M29.76,55.44c-3.02,6.63-6.4,13.11-9.41,19.75-4.25,9.35-8.58,18.63-9.55,29.09-1.83,19.69,9.08,37.53,21.48,51.72l.12-.35c-1.73-2.34-3.57-4.62-5.23-7.01-2.71-3.9-5.37-7.97-7.51-12.17-.58-1.15-1.08-2.38-1.89-3.39-.09-.46.14-.46.48-.24.7.44,1.61,2.55,2.16,3.36,4.88,7.02,9.74,11.66,15.24,17.88,2.15,2.43,5.14,6.08,3.73,9.46l-.59.12c-1.85-2.24-3.6-4.56-5.43-6.81-.09-.11-.57-.76-.72-.48l6.29,8.82c.42.48.13,2.21-.42,2.33-.6.14-7.61-7.68-8.51-8.77-3.64-4.41-7.04-9.35-10.23-14.01-1.34-1.95-2.73-3.86-3.93-5.91-.53-.25-.15.35-.05.53,1.47,2.67,3.24,5.18,4.51,7.97,3.29,3.75,5.81,8.08,8.88,11.99.31.4,2.12,2.08,1.77,2.42-.49.1-.64-.11-.97-.35-.55-.41-1.94-1.76-2.48-2.32-4-4.04-7.85-9.03-11-13.72-3.58-5.32-6.84-10.67-7.63-17.21.5-.11.56.24.77.55,1.68,2.5,2.87,5.42,4.55,7.93.16.25.48.75.44.04-3.36-6.18-5.77-12.87-7.08-19.8-3.77-19.84,6.01-33.94,14.01-50.8,1.81-3.81,3.07-10.39,8.19-10.64Z"/><path d="M39.36,157.2c-.31.23-.98-.62-1.19-.85-6.36-6.65-11.81-15.38-18.1-22.22-7.77-11.85-9.38-25.65-6.08-39.38,2.56-10.66,8.63-20.24,13.1-30.1.7-1.54,4.35-11.58,5.43-11.6.62.48.35,1.29.25,1.93-.82,5.35-5.25,15.08-7.46,20.38-3.07,7.38-6.36,13.75-7.72,21.8-2.75,16.21,2.17,30.18,12.07,42.75,2.47,3.14,4.72,4.98,7.42,7.7.37.37,2.53,2.68,2.63,2.89.32.71.12,6.35-.36,6.71Z"/><path d="M9.36,137.04l6.38,11.26c12.41,11.66,13.7,29.65,3.8,43.44-2.45,3.41-11.59,11.87-15.23,13.8-1.92,1.02-2.44.2-3.81-1.22l.09-.32c6.04-5.51,12.77-10.62,17.13-17.69,6.48-10.51,3.83-22.93-1.75-33.2-2.58-4.75-6.63-9.13-7.05-14.79-.04-.48-.33-1.49.45-1.29Z"/><path d="M4.13,206.2c4.43-3.15,8.77-5.91,12.56-9.88,7.9-8.28,12.2-18.51,9.8-30.21-.53-2.6-1.72-5.28-2.48-7.83l.6-.36c3.25,2.85,5.6,5.55,6.72,9.84,2.4,9.19-.69,19.32-5.92,26.95-1.96,2.86-8.13,9.94-11.01,11.55-1.48.83-6.49,1.38-8.27,1.35-.55,0-1.8-.11-2.01-.65l.02-.77Z"/><path d="M5.76,106.8c-1.63-.84-2.47-4.12-2.63-5.88-1-11.05,10.75-27.25,15.88-36.91.8-1.5,1.43-4.2,2.71-5.21.28-.22,1.41-.75,1.68-.71.45.07.22.46.2.67-.1.84-.65,2.05-.99,2.86-2.94,6.93-6.93,13.51-10.09,20.39-3.52,7.68-6.77,16.26-6.76,24.81Z"/><path d="M18.48,60.24c-2.65,8.21-8.37,14.95-11.97,22.71-1.85,3.98-3,8.2-4.47,12.32-.71,0-.63-3.43-.6-3.95.42-6.63,9.46-23.29,13.62-28.86.94-1.25,1.54-2.55,3.41-2.22Z"/><path d="M31.88,163.73c.07.04.16.48.39.67,1.23,1.01,2.67,1.81,3.85,2.88.57.52,2.02,1.8,2.02,2.49,0,.94-1.01,4.07-1.36,5.15-1.18,3.65-3.17,7.91-5.07,11.25-.56.98-1.2,2.13-1.96,2.96,2.75-6.79,3.53-13.19,2.32-20.44-.13-.8-1.28-4.74-.88-4.99.07-.05.55-.03.68.05Z"/><path d="M11.52,208.56c-2.14.93-3.97,3.14-5.28-.23,1.41-.13,3.04-.67,4.45-.49.48.06.89.1.83.73Z"/><path d="M23.76,314.16c.2.18-1.4,3.95-1.64,4.48-3.87,8.58-8.82,16.65-12.22,25.46-2.23,5.79-4.19,12.16-4.14,18.42-.88.55-1.41-1.21-1.69-1.91-1.89-4.82-.86-8.98.79-13.63,3.76-10.6,10.37-19.68,15.2-29.68.7-1.45,1.83-3.4,3.7-3.14Z"/><path d="M17.7,316.13c.42-.04.51-.06.78.31-2.92,8.46-8.86,15.42-12.44,23.56-1.62,3.69-2.6,7.59-3.99,11.36-.44-.38-.54-1.01-.6-1.56-.78-6.98,7.76-22.33,11.66-28.42.86-1.34,3.05-5.09,4.6-5.25Z"/></svg>