<?xml version="1.0" encoding="UTF-8"?>
<svg xmlns="http://www.w3.org/2000/svg" width="161.96mm" height="169.07mm" viewBox="0 0 459.09 479.25">
  <g id="a" data-name="base">
    <path d="M315.09,97.44v364.25h144V97.44h-144Z" style="fill: #231f20; stroke-width: 0px;"/>
  </g>
  <g id="b" data-name="bk_holes">
    <circle cx="323.62" cy="105.95" r="4.54" style="fill: #b98f5c; stroke-width: 0px;"/>
    <circle cx="450.56" cy="105.95" r="4.54" style="fill: #b98f5c; stroke-width: 0px;"/>
    <circle cx="450.56" cy="453.19" r="4.54" style="fill: #b98f5c; stroke-width: 0px;"/>
  </g>
  <g id="c" data-name="hole-mask">
    <path d="M337.09,448.37h-13.88c-2.66,0-4.53,2.16-4.53,4.82s1.86,4.82,4.53,4.82h13.88c2.66,0,4.51-2.16,4.51-4.82s-1.85-4.82-4.51-4.82Z" style="fill: #fffcdd; stroke-width: 0px;"/>
    <path d="M450.97,448.37h-13.88c-2.66,0-4.53,2.16-4.53,4.82s1.86,4.82,4.53,4.82h13.88c2.66,0,4.51-2.16,4.51-4.82s-1.85-4.82-4.51-4.82Z" style="fill: #fffcdd; stroke-width: 0px;"/>
    <path d="M337.09,101.17h-13.88c-2.66,0-4.53,2.16-4.53,4.82s1.86,4.82,4.53,4.82h13.88c2.66,0,4.51-2.16,4.51-4.82s-1.85-4.82-4.51-4.82Z" style="fill: #fffcdd; stroke-width: 0px;"/>
    <path d="M450.97,101.17h-13.88c-2.66,0-4.53,2.16-4.53,4.82s1.86,4.82,4.53,4.82h13.88c2.66,0,4.51-2.16,4.51-4.82s-1.85-4.82-4.51-4.82Z" style="fill: #fffcdd; stroke-width: 0px;"/>
  </g>
  <g id="d" data-name="holes">
    <path d="M336.68,448.66h-13.06c-2.5,0-4.54,2.03-4.54,4.54s2.03,4.54,4.54,4.54h13.06c2.5,0,4.54-2.03,4.54-4.54s-2.03-4.54-4.54-4.54Z" style="fill: #b98f5c; stroke-width: 0px;"/>
    <path d="M450.56,448.66h-13.06c-2.5,0-4.54,2.03-4.54,4.54s2.03,4.54,4.54,4.54h13.06c2.5,0,4.54-2.03,4.54-4.54s-2.03-4.54-4.54-4.54Z" style="fill: #b98f5c; stroke-width: 0px;"/>
    <path d="M336.68,101.44h-13.06c-2.5,0-4.54,2.03-4.54,4.54s2.03,4.54,4.54,4.54h13.06c2.5,0,4.54-2.03,4.54-4.54s-2.03-4.54-4.54-4.54Z" style="fill: #b98f5c; stroke-width: 0px;"/>
    <path d="M450.56,101.31h-13.06c-2.5,0-4.54,2.03-4.54,4.54s2.03,4.54,4.54,4.54h13.06c2.5,0,4.54-2.03,4.54-4.54s-2.03-4.54-4.54-4.54Z" style="fill: #b98f5c; stroke-width: 0px;"/>
  </g>
  <g id="e" data-name="logo">
    <g>
      <path d="M403.86,187.51c.6,0,.99.1,1.26.3.57.39,1.99,1.94,2.39,2.6.07.11.37.33.66.5.7.38,1.67,1.12,2,1.52.3.37.94.71,1.73.93.68.19.93.34.93.58,0,.17-.21.44-.34.44-.04,0-.49.25-1.01.56-.51.3-1.31.73-1.76.95-.65.31-1.02.55-1.83,1.23-.79.66-1.22.96-1.98,1.35-.54.27-1.25.65-1.59.85-.82.46-1.6.66-2.55.66-.64,0-.86-.04-1.56-.26-.45-.15-1.23-.46-1.73-.69-.51-.23-1.01-.45-1.12-.48s-.47-.2-.82-.37c-.51-.26-.79-.49-1.52-1.22-1.09-1.09-2.22-1.94-2.36-1.78-.05.06-.4.47-.76.93-.37.45-.75.9-.87,1-.19.18-.2.23-.2.86,0,.55-.02.7-.14.8-.2.18-.38.16-.51-.05-.16-.24-.44-2.7-.49-4.25l-.05-1.28-.41-.44c-.81-.89-1.11-1.89-.65-2.15.25-.14.51-.08.82.2.32.29.39.51.19.71-.13.13-.14.17-.04.36.16.3.23.25.29-.21.09-.75.06-.96-.12-1.01-.23-.06-.17-.4.08-.43.36-.05.54.05.62.36.05.16.09.4.09.53,0,.36.51,1.08,1.22,1.72l.62.56.23-.24c.12-.13.61-.53,1.08-.88,1.09-.82,1.21-.93,1.94-1.82.74-.88,1-1.07,2.11-1.61,1.1-.53,1.87-.75,3.62-1.03,1.12-.18,1.93-.27,2.53-.26h0ZM402.55,188.5c-.07,0-.15,0-.22.01-.78.06-2.57.43-2.86.58-.27.14-1.17.89-3.05,2.53-.45.39-1.1.93-1.44,1.2-.65.51-1.67,1.48-1.67,1.57,0,.03.3.27.68.54.38.27,1.07.88,1.54,1.35,1.24,1.26,1.72,1.49,4,1.95,1.17.24,1.47.27,2.11.24.97-.05,1.03-.07.89-.39-.14-.35-.3-1.34-.23-1.53.02-.09.14-.18.25-.2.26-.07.48.19.51.58,0,.16.04-.51.07-1.47.05-1.64.07-1.83.33-2.94.37-1.55.4-1.78.33-2.85l-.05-.9-.47-.16c-.26-.08-.47-.12-.69-.13h0ZM404.55,189.2l-.05,1.14c-.02.62-.09,1.28-.13,1.48s-.12,1.15-.17,2.14c-.05.98-.13,2.29-.19,2.92-.05.62-.09,1.14-.08,1.15.04.04.44-.18,2.04-1.13.82-.49,1.89-1.04,2.37-1.24.48-.19.97-.4,1.1-.47.45-.23,1.43-.92,1.44-1.02,0-.19-.37-.46-1.37-.97-1.31-.66-1.66-.95-2.32-1.87-.6-.85-.59-.84-1.8-1.59l-.86-.53ZM406.45,191.74c.26,0,.35.05.7.42.36.39.4.46.4.79,0,.47-.17.79-.5.9-.14.05-.32.19-.39.32-.24.4-.64.21-.45-.21.07-.16.06-.19-.07-.23-.09-.03-.21-.13-.27-.23-.17-.26-.08-1.28.14-1.56.12-.15.23-.19.44-.19ZM390.41,193.6c-.06,0-.05,1.19.02,1.5l.05.22.57-.51c.3-.29.54-.55.51-.59-.02-.04-.28-.19-.56-.34-.29-.15-.54-.26-.58-.27h0ZM374.81,194.57c.93-.02,2.05.07,3.06.24.6.1.7.11.78,0,.05-.06.23-.13.4-.16.39-.05.59.07.6.4,0,.19.07.26.37.44.19.11.99.58,1.76,1.03,1.21.74,1.5.95,2.14,1.59,1.39,1.39,2.74,2.9,2.88,3.22.16.36.19,1.03.06,1.31-.05.12-.39.34-.95.63-.6.31-1.07.61-1.49,1-1.12,1-1.91,1.55-3.01,2.1-.27.13-.5.26-.51.26-.02.02.06.2.17.42.23.44.25.68.1.9-.09.12-.18.13-.65.09-.3-.02-.86-.07-1.24-.09-.77-.05-.79-.05-1.14.47-.08.11-.2.2-.28.2-.19,0-.4-.24-.4-.46,0-.16-.03-.18-.26-.13-.13.02-.54.02-.89-.02-.6-.06-.73-.12-2.56-1.03-2.01-1-2.25-1.15-3.02-1.82-.26-.23-.68-.54-.93-.7-.26-.16-.7-.52-1-.8-.29-.28-.54-.49-.56-.47-.02.02-.19.4-.39.84-.76,1.72-.95,1.99-1.69,2.55-.53.38-.68.41-.95.14-.16-.15-.19-.26-.19-.57,0-.2-.09-.93-.19-1.62-.48-3.15-.53-4.27-.23-5.49.11-.44.23-1.06.25-1.36.05-.65.19-.86.53-.77.25.06.35.32.35.9,0,.89.72,2.25,1.74,3.32l.58.61.17-.16c.3-.27.61-.79,1.21-1.98.33-.68.75-1.37.99-1.66.22-.28.74-.92,1.16-1.42.81-1,1.25-1.38,1.97-1.72.4-.19.57-.22,1.28-.23h0ZM375.02,195.32c-.49,0-.87.04-1.08.11-.19.07-.51.24-.71.39-.47.35-2.39,2.75-2.81,3.51l-.32.61.32-.27c.17-.15,1-.87,1.84-1.59,1.68-1.45,2.2-1.79,3.27-2.09.89-.26,1.6-.26,2.43-.02.34.1.67.2.73.22.08.02.12-.04.14-.18.02-.19,0-.21-.57-.33-.33-.08-1-.18-1.5-.23-.66-.07-1.26-.11-1.75-.11ZM379.54,196.09s-.06.1-.06.23c0,.2.09.28.87.77.48.3,1.33.8,1.89,1.1.55.31,1.14.63,1.28.72.21.12.15.03-.28-.39-.34-.33-.86-.72-1.32-1-.43-.25-1.12-.67-1.54-.94-.43-.27-.8-.49-.84-.49ZM376.83,196.17c-.72,0-1.46.19-2.2.55-.29.14-.93.61-1.57,1.17-.6.51-1.51,1.29-2.01,1.73-1.23,1.05-1.25,1.07-1.83,1.99l-.5.8.53.53c.37.37.82.71,1.55,1.14.56.33,1.31.82,1.68,1.09.73.52,1.32.88,2.59,1.54l.83.44h.89c.66,0,.89-.02.9-.1,0-.05.03-.27.07-.48.04-.22.11-1.51.16-2.88.09-2.85.15-3.44.48-4.78.16-.67.24-1.19.25-1.66v-.68s-.58-.19-.58-.19c-.4-.13-.82-.19-1.25-.19h0ZM379.54,197.02s-.08.13-.1.29c-.02.16-.09.58-.16.92-.07.38-.12,1.12-.12,1.9,0,1.31-.09,2.89-.24,4.35-.09.9-.1,1.67-.03,1.97l.05.19.4-.18c.23-.11.44-.27.51-.38.12-.23.37-.33.52-.2.19.16,1.24-.47,2.39-1.42.57-.48,1.37-1.16,1.77-1.5s.87-.7,1.03-.8l.29-.18-.17-.28c-.94-1.55-1.43-1.98-3.52-3.15-.73-.4-1.6-.91-1.94-1.13-.34-.23-.65-.4-.68-.4h0ZM421.63,197.43c.18-.02.23.02.36.27.09.16.18.38.21.49.09.31.3.73.38.79.05.03.41.16.81.3,1.1.36,1.51.58,2.44,1.35,1.37,1.11,1.79,1.59,2.97,3.34.12.16.26.3.35.3.08,0,.24.08.36.17.19.15.21.2.17.54-.04.32-.02.42.23.82.31.51.31.68.02.72-.16.02-.25-.04-.46-.33l-.26-.35-.14.21c-.08.12-.14.24-.14.27,0,.34-2.54,3.1-3.57,3.87-.27.2-.79.54-1.17.74-.37.2-.93.55-1.25.78-1.14.79-1.87,1.05-2.98,1.05-1,0-2.11-.38-3.3-1.14-.24-.16-.86-.45-1.38-.66-1.06-.42-1.34-.6-2.07-1.23-.28-.25-.86-.7-1.28-1.01s-.96-.73-1.17-.94l-.39-.38-.19.19c-.1.1-.4.33-.66.51-.44.29-1.52,1.39-1.52,1.56,0,.04-.07.07-.16.07-.1,0-.16-.05-.16-.16,0-.09-.02-.16-.05-.16s-.24.17-.47.39c-.49.45-.79.51-1,.21-.17-.26-.48-1.37-.58-2.04-.11-.76-.11-1.91,0-2.62.05-.31.31-1.34.58-2.29.27-.96.5-1.78.5-1.83,0-.16.3-.51.44-.51.06,0,.18.07.26.16.12.12.16.26.16.69,0,.71.12,1.34.3,1.48.08.06.26.32.41.57.15.25.49.65.76.89.27.23.69.67.94.96l.45.53.28-.36c.15-.19.64-.74,1.07-1.22.44-.47,1-1.11,1.25-1.42.49-.61.68-.77,1.68-1.42.41-.27.86-.65,1.17-1,.56-.63.89-.82,1.91-1.14.39-.12.82-.29.97-.39.74-.47.9-.51,1.72-.49l.77.02v-.35c0-.19.05-.44.1-.54.06-.12.18-.2.3-.22h0ZM403.53,198.99s-.02,0-.03,0c-.52.15-1.71.36-2.04.36-.23,0-.71-.05-1.07-.12-.37-.06-.67-.1-.68-.09-.02,0,.3.12.69.25.95.3,1.84.31,2.72.04.33-.1.61-.19.61-.21,0,0-.02-.08-.05-.14-.03-.06-.09-.1-.15-.1h0ZM420.41,199.2c-.6,0-.64.02-1.16.34l-.53.34.76.03c.47.02.94.1,1.21.19l.44.15.05-.47c.03-.33.02-.48-.05-.53-.05-.03-.38-.06-.72-.06ZM381.36,199.51c.26,0,.37.05.74.4.23.23.47.51.54.62.14.28.14.68-.02.9-.17.25-.75.24-1.12-.02-.26-.19-.27-.19-.44-.04-.14.13-.18.13-.31.04-.14-.11-.14-.12-.02-.34.08-.13.14-.34.14-.47,0-.18-.04-.24-.19-.28s-.19-.1-.19-.28.04-.24.19-.28c.1-.02.23-.09.28-.16.05-.06.23-.11.4-.11h0ZM365.3,199.67c-.19,0,.2,4.63.4,4.84.05.05,1.07-1.14,1.74-2.02.05-.07-.12-.3-.55-.76-.34-.37-.82-.98-1.07-1.36-.26-.38-.48-.7-.52-.7ZM422.56,199.75c-.06,0-.09.16-.09.58v.58l.52.34c.3.19,1.14.68,1.89,1.1,1.43.79,2.36,1.45,2.7,1.88.23.3.27.31.38.07.08-.17.05-.26-.26-.72-.54-.82-1.04-1.35-1.98-2.15-1.18-.99-1.28-1.05-2.22-1.38-.45-.16-.87-.3-.93-.3h0ZM419.55,200.25c-.34,0-.83.07-1.24.17-.95.23-1.48.56-2.88,1.74-2.4,2.04-3.38,2.99-4.19,4.06l-.23.3.93.91c1.03,1,2.29,2.08,2.74,2.3.16.09.62.29,1.03.45.4.16,1.03.47,1.4.68,1.05.6,1.72.75,2.66.63.74-.1,1.43-.33,1.4-.47-.13-.55-.13-1.27,0-2.67.13-1.37.14-1.94.1-4.59-.04-2.15-.08-3.05-.15-3.09-.1-.06-1-.33-1.29-.39-.07-.01-.17-.02-.28-.02h0ZM422.51,201.38l-.05,1.38c-.03.76-.12,2.46-.18,3.79-.06,1.32-.12,2.77-.12,3.21v.79l.87-.44c1-.5,1.36-.74,2.39-1.62,1.7-1.45,2.46-2.15,2.62-2.44l.17-.31-.4-.57c-.75-1.1-1.19-1.45-3.06-2.48-.65-.36-1.41-.8-1.71-.99l-.54-.33ZM342.95,201.94c.21,0,.45.04.65.16.58.33,2.53,1.86,2.57,2,.03.1.35.31.82.53.04.02.03-.04-.02-.12-.12-.23-.11-.58.03-.77.16-.23.68-.36,1.2-.3.71.09,1.26.44,2.34,1.48.86.83,1.07,1,1.79,1.37,1.08.56,2.64,1.57,4.61,2.96,1.93,1.38,3.11,2.32,5.73,4.59,1.55,1.35,2.32,1.95,3.56,2.78,2.83,1.92,6.57,4.75,8.49,6.44.28.24.79.66,1.13.93.33.26.79.64.99.83.32.3.37.37.33.58-.05.27-.23.44-.3.31-.03-.05-.02-.13.03-.19.12-.15.02-.2-.4-.2h-.38l.11.21c.21.41.23.62.05.67-.23.05-.19.16.12.4.33.25.5.23,1.2-.2.58-.34.96-.38,1-.09.02.12-.07.24-.29.41-.16.14-.32.31-.34.4-.02.09-.13.17-.29.19-.13.03-.26.1-.29.16-.05.12-.65.16-.65.03,0-.05.08-.08.17-.08.12,0,.15-.02.09-.09-.12-.12-.4.09-.85.65-.78.97-1.29,1.96-1.79,3.4-.18.54-.45,1.31-.6,1.71-.15.4-.3.96-.33,1.24-.14,1.32-.31,2.2-.63,3.25-.55,1.79-.65,2.35-.74,4.21-.04.92-.05,1.9-.03,2.18.06.65.36,1.76.64,2.43l.23.52.12-.54c.27-1.14.72-1.8,1.54-2.24.26-.14.47-.28.47-.31s.19-.27.43-.53c.32-.35.4-.48.31-.52-.16-.06-.07-.26.3-.65.44-.46.71-.61,1.32-.75,1.02-.24,1.73-.51,2.32-.89.37-.23.82-.44,1.13-.52.41-.11.6-.21.92-.51.52-.48.9-.6,1.41-.44.35.12.43.12.84,0,.57-.15.71-.22,1.83-.93,1.14-.71,1.93-1.14,2.55-1.37l.49-.19.51-.96c.28-.52.56-1.04.63-1.15.33-.51,1.45-1.07,1.75-.89.08.05.19.09.26.09.17,0,.58.43.58.61,0,.09.07.17.17.19.14.04.24-.03.5-.32.3-.33.33-.35.39-.22.03.09,0,.35-.06.61-.06.25-.1.45-.09.45,0,0,.12-.14.23-.31s.27-.33.35-.35c.18-.06.46.09.46.23s.12.15.19,0c.06-.18.28-.14.28.05,0,.09-.2.5-.46.91-.49.81-.7,1.21-1.23,2.33-.22.48-.29.69-.19.61.27-.25.56-.11.56.26,0,.45-.23.99-.63,1.45-.23.25-.47.47-.54.48-.08.02-.16.09-.18.18-.03.12,0,.14.14.1.42-.11.39.32-.14,1.57-.23.55-.54,1.34-.68,1.76l-.25.76.04,2.11c.04,2.42.04,2.43.83,4.76.4,1.19.49,1.51.52,2.11.05.84-.02,1.08-.44,1.45-.18.16-.3.34-.33.51-.08.37-.7,1.73-.99,2.15-.13.19-.41.52-.61.72-.32.32-.37.41-.34.61.05.3.19.33,1.21.33.73,0,4-.58,5.52-.97,1.95-.51,4.94-1.76,5.38-2.25.13-.15.51-.73.85-1.31.91-1.52,1.17-1.9,1.87-2.63,1.2-1.25,1.21-1.27,1.21-1.75,0-.24.05-.55.11-.7.12-.26.46-.51.73-.51.1,0,.24-.18.46-.57.61-1.08.59-.97.25-1.38-.3-.35-.39-.61-.23-.61.05,0,.1.05.12.09.02.05.16.1.3.11.22,0,.25-.02.25-.19,0-.11-.05-.32-.11-.46-.09-.2-.09-.27,0-.37.16-.19.46-.15.54.09.07.19.09.19.25.08.32-.23.61.2.38.57-.12.18,2.57,2.91,3.44,3.5.96.65,2.95,2.36,4.06,3.48,1.27,1.28,4.36,3.76,10.03,8.05,3.56,2.7,4.32,3.25,4.08,2.98-.11-.12-.66-.72-1.23-1.32-.96-1.02-1.17-1.32-.93-1.26.09.02,1.95,1.97,3,3.13.5.57.68.89.47.89-.04,0-.35-.25-.68-.55-.64-.58-1.07-.92-5.78-4.49-1.6-1.21-3.06-2.33-3.25-2.48-.18-.15-.33-.25-.33-.23s.53.47,1.18,1c2.01,1.62,4.35,3.58,5.04,4.21.37.33.75.65.87.69.26.11,4.22,3.8,4.59,4.27.44.58,1.25,1.34,1.9,1.78.34.24,1,.75,1.45,1.15.47.39.92.75,1.01.8.44.23,1.07.79,1.11.98.03.12.14.31.24.44.13.16.18.3.17.47-.02.22.08.34,1.14,1.35,1.02.97,1.17,1.15,1.17,1.36s-.03.24-.2.26c-.22.02-.48-.15-1.92-1.23-.43-.32-1.14-.86-1.59-1.18s-1.45-1.2-2.25-1.95c-1.64-1.56-2.63-2.33-2.92-2.29-.16.02-.05.15.93,1.01,1.24,1.1,1.93,1.79,1.93,1.94,0,.16-.16.3-.37.3-.33,0-.89-.47-2.43-2.03-.83-.86-1.55-1.55-1.58-1.55-.04,0-.33-.21-.65-.47-.47-.37-.61-.45-.69-.37-.09.07.07.27.89,1.1,1.3,1.33,1.66,1.75,2.92,3.47,1.08,1.47,1.21,1.73.93,1.95-.2.16-.58-.1-1.38-.97-.39-.44-1.17-1.26-1.73-1.83-.55-.58-1.75-1.83-2.64-2.79-1.94-2.08-2.67-2.69-2.17-1.82.32.56.78,1.08,2.45,2.74,2.15,2.14,3.52,3.66,4.56,5.03.68.89.88,1.22.84,1.34-.09.27-.33.27-.66,0-.23-.18-.31-.21-.31-.12,0,.16-.28.3-.42.23-.06-.03-.38-.37-.72-.75l-.61-.7-.06.25c-.07.26-.33.48-.57.48-.29,0-.85-.31-1.44-.79-.75-.61-.85-.68-.73-.53.82,1.08,1.8,2.35,2.21,2.84.6.72.7.89.7,1.16,0,.41-.63.48-1.17.14-.19-.12-.75-.55-1.24-.96-.49-.4-1.13-.85-1.41-1-.29-.15-.93-.59-1.44-1-.64-.51-.92-.69-.93-.61-.04.18-.15.14-.37-.15-.12-.16-.3-.29-.45-.32-.14-.03-.44-.16-.67-.28s-.44-.21-.45-.19.08.26.21.56c.21.47.41.71,1.48,1.79,1.25,1.27,1.39,1.48,1.14,1.73-.13.13-.49.12-.76-.02-.13-.07-.23-.11-.23-.09,0,0,.1.26.23.56.12.3.23.61.23.71,0,.19-.23.42-.4.42s-.72-.63-1.13-1.33c-.3-.49-.38-.58-.53-.56-.14.03-.47-.08-.83-.27-.03-.02-.03.4,0,.93l.05.96.91,1.21c1.14,1.51,1.38,1.87,1.45,2.13.06.26-.09.65-.29.71-.16.05-.19.16-.07.23.18.11.32.51.23.66-.22.4-.84.07-1.89-1-.37-.38-.68-.66-.68-.62,0,.03-.09.11-.19.16-.28.12-.49-.09-.55-.55-.04-.3-.09-.39-.32-.54-.15-.09-.29-.16-.31-.14-.02.02.12.65.32,1.41.4,1.52.44,1.97.2,2.18-.08.07-.2.12-.27.09-.09-.04-.12,0-.12.22,0,.82-.62,1.09-1.66.72l-.49-.18.05.35c.09.55.08,1.14-.02,1.24-.05.05-.17.09-.27.09-.25,0-.37-.28-.58-1.33l-.17-.89-.65-.38c-.36-.21-.72-.39-.82-.4s-.21-.06-.26-.1c-.05-.05-.12-.02-.19.09-.08.13-.16.16-.43.12-.26-.03-.62-.16-1.16-.44-.03-.02-.05.12-.05.32.02.42-.11.61-.38.58-.25-.03-.29-.12-.42-.86-.1-.6-.11-.62-.42-.8l-.32-.19.22.93c.12.51.23.98.27,1.03.03.05.34.48.69.96,1.69,2.29,2.06,3.13,1.55,3.53-.12.09-.27.16-.35.16-.26,0-.92-.29-1.31-.58-.37-.27-.4-.28-.54-.16-.39.36-.86.02-1.39-1.01-.34-.68-.41-.75-1.16-1.35-.89-.71-2.11-1.78-2.93-2.57-.3-.28-.51-.47-.47-.4.04.06.4.61.8,1.21.8,1.2,2.48,3.98,3.02,5.01.38.73.44,1.16.18,1.41-.22.22-.53.19-.96-.08-.39-.24-2.45-2.22-3.55-3.39-.37-.39-.67-.71-.67-.7,0,0,0,.13.03.28.02.16.32.68.79,1.36,1.73,2.54,2.2,3.3,2.72,4.32.61,1.19.67,1.47.36,1.67-.18.12-.21.12-.4,0-.11-.08-.94-.86-1.85-1.76l-1.65-1.62.06.56c.07.65.02,1.04-.15,1.24-.28.31-.71.09-1.03-.54-.22-.44-.75-2.01-1.03-3.06-.23-.87-.25-.9-.89-1.73-.37-.46-.68-.82-.69-.81-.02.02.04.33.12.68.38,1.61.51,3.01.3,3.27-.05.07-.17.15-.26.17-.28.09-.54-.23-.76-.91-.3-.95-.86-3.25-1.13-4.65-.15-.76-.3-1.37-.4-1.51l-.15-.23.05.35c.18,1.35.85,4.2,1.35,5.83.36,1.13.74,2.71.82,3.36.09.72-.02,1.29-.27,1.56-.26.26-.53.28-.98.05-.58-.27-1.16-.95-2.25-2.58-.58-.86-1.05-1.52-1.05-1.45,0,.19.37,1.94.5,2.36.18.56.16.95-.03,1.05-.29.16-.46.02-.59-.45-.07-.24-.23-.79-.34-1.22-.33-1.14-.66-2.5-.89-3.65-.16-.78-.32-1.26-.69-2.1l-.47-1.09-.02,2.49-.02,2.49.26,1.13c.68,2.81,1.38,6.16,1.42,6.69s.03.61-.12.76c-.22.22-.44.21-.65-.02-.09-.1-.7-1.24-1.35-2.53-.65-1.29-1.19-2.28-1.19-2.2,0,.3-.4.45-.61.24-.12-.12-.12-.13.02.52.06.3.12.82.12,1.17,0,.69-.1.89-.48.89-.51,0-1.55-1.21-2.27-2.63-.19-.38-.36-.52-.36-.3,0,.17-.3.44-.51.44-.1,0-.23-.07-.3-.16-.11-.16-.12-.15-.29.12-.27.44-.64.56-.88.29-.16-.16-.27-.87-.34-2.04l-.05-.89-.14.51c-.09.28-.27.89-.43,1.38l-.28.87.45,1.3c.36,1.05.43,1.33.37,1.48-.1.21-.35.3-.55.19-.18-.1-.64-1.17-.96-2.28-.17-.58-.28-.82-.35-.8-.05.02-.14.06-.2.09-.05.02-.19-.04-.31-.14-.25-.23-.4-.92-.53-2.36-.05-.56-.12-1.12-.18-1.24-.05-.13-.14-.41-.19-.62-.13-.59-.47-2.77-.47-3.01,0-.12-.03-.22-.06-.22s-.14,1.17-.24,2.58c-.3,4.31-.34,4.59-.74,4.7-.29.07-.43,0-.55-.3-.15-.36-.41-1.68-.47-2.39-.03-.32-.16-.91-.27-1.31-.12-.4-.29-1.02-.36-1.38-.08-.36-.16-.65-.18-.65s-.23.54-.47,1.21c-.47,1.35-.62,1.55-.97,1.32-.45-.3-.51-.42-.51-1.17v-.71l-.16.39c-.29.72-.62.87-.91.42l-.15-.24-.27,1.09c-.23.89-.25,1.1-.16,1.15s.02.27-.3,1.11c-.37.93-.53,1.2-.65,1.07-.02-.02.1-.48.28-1.03.17-.54.31-1,.3-1.01-.09-.09-.37.32-.56.8-.26.69-.49.88-.79.68-.11-.07-.19-.14-.19-.16,0-.02-.19-.91-.43-1.98-.29-1.28-.45-2.23-.48-2.74l-.05-.79-.19,1.01c-.1.56-.29,1.43-.42,1.94-.16.6-.3,1.45-.39,2.37-.28,2.74-.47,3.41-1.03,3.69-.28.13-.31.14-.56.02-.15-.07-.26-.1-.26-.06s-.14.25-.31.47c-.25.31-.37.4-.54.4-.37,0-.42-.14-.36-1.03.03-.43.07-.84.09-.91s-.02-.05-.09.05c-.08.1-.2.18-.29.18-.13,0-.15.05-.15.45,0,.51-.15.79-.42.79-.25,0-.44-.24-.44-.56q0-.28-.23-.19c-.19.07-.26.06-.38-.05-.13-.12-.16-.3-.19-1.48-.05-1.41-.12-2.15-.2-2.15-.12,0-.89,1.62-1,2.08-.13.63-.23.77-.41.6-.12-.11-.15-.1-.31.08-.21.23-.55.26-.75.06-.11-.11-.12-.23-.08-.72.05-.54.03-.6-.12-.72-.15-.11-.17-.19-.15-.62.05-.82.04-1.08-.08-2.08l-.11-.96-.2.39c-.11.21-.32.54-.48.72-.16.18-.5.61-.76.93-.26.33-.58.68-.7.76-.46.33-.86.12-.86-.45,0-.18-.02-.33-.05-.33-.02,0-.25.14-.51.32-.26.17-.61.38-.79.46-.4.19-1.08.2-1.22.04-.05-.07-.16-.1-.27-.07-.26.06-.3-.09-.13-.38.09-.13.18-.44.21-.68.05-.36.22-1,.4-1.55.02-.07-.11.02-.3.19-.93.86-1.44,1.11-1.65.8-.13-.2.24-.89.93-1.69.33-.4.7-.83.8-.96l.18-.23-.22.05c-.12.03-.38.14-.57.24-.19.09-.41.18-.51.19-.1,0-.31.19-.55.48-.44.54-1.29,1.22-1.52,1.22-.33,0-.13-.3.67-1,.45-.4.8-.75.78-.79-.03-.04-.19-.14-.36-.23-.37-.19-.5-.46-.38-.79.12-.36.1-.39-.22-.33-.36.06-.81.36-1.99,1.31-.51.41-1.05.81-1.19.89-.24.13-.26.13-.39,0-.13-.12-.13-.15,0-.39.08-.14.56-.72,1.07-1.27l.93-1-.25-.07c-.43-.11-.61-.08-1.68.3-1.07.38-1.69.47-1.9.28-.26-.21-.09-.83.45-1.62.15-.23.23-.4.18-.37-1.33.55-1.17-.09.42-1.78l.3-.31-.19-.22-.19-.22-.41.13c-.49.17-1.76.19-2.13.04-.26-.11-.46-.46-.39-.71.05-.19.06-.19-.67.04-.76.24-2.03.42-2.21.3-.07-.05-.14-.12-.16-.16-.05-.15.4-.58,1.24-1.23.46-.33.82-.62.81-.64-.02,0-.28.05-.6.13-.32.09-.79.17-1.04.2-.33.04-.62.15-1.07.4-.36.21-.67.33-.74.3-.2-.08-.09-.2.4-.46.32-.17.47-.3.47-.4,0-.23.47-.54,1.4-.94,1.31-.57,1.59-.72,1.59-.89,0-.15.36-.55.48-.55.05,0,.37-.13.72-.3.54-.26.74-.41,1.41-1.11.44-.45.82-.89.88-1q.09-.17-.1-.04c-.12.07-.44.4-.72.74-.75.9-.97,1.01-1.38.69-.11-.09-.26-.16-.33-.16-.08,0-.42.17-.77.38-1.36.82-2.95,1.48-3.54,1.48-.37,0-.55-.19-.55-.56,0-.3.21-.55.54-.65.11-.03.45-.16.76-.29l.57-.23-.16-.17c-.2-.21-.21-.53-.03-.68.08-.07.42-.24.76-.38s.79-.37,1.01-.51c.21-.14.82-.44,1.34-.65.89-.37,2.28-1.08,2.28-1.17,0-.02-.26-.09-.57-.14l-.56-.1-.35.4c-.3.33-.39.39-.62.39-.15,0-.31-.03-.36-.06-.17-.11-.28-.42-.23-.68.05-.23.03-.26-.16-.3-.54-.12-3.18-.44-3.56-.44-.61,0-.82-.1-.82-.38,0-.12.04-.26.09-.29.05-.03.39-.09.76-.12.37-.04,1.05-.13,1.52-.2l.86-.13-.86-.1c-.47-.05-1-.13-1.17-.17-.17-.05-.77-.14-1.32-.2-1.43-.18-1.75-.29-1.75-.61,0-.13.74-.54,1.52-.83.73-.29.74-.45.05-.62-.65-.16-.78-.33-.57-.75.22-.41.44-.6,1.1-.92l.58-.28-.7.04c-3.05.19-3.74.16-4.14-.21-.22-.2-.23-.61-.02-.83.52-.52,2.16-1.02,4.86-1.47.76-.13,1.38-.24,1.39-.26.02-.02.12-.15.23-.3l.21-.29-.61-.16c-.53-.14-.92-.16-3.09-.19-2.39-.04-3.74-.15-4.54-.37-.37-.1-.66-.42-.59-.68.03-.12,0-.18-.07-.18-.19,0-.37-.24-.34-.46.03-.24.16-.24-1.73.04-1.87.27-2.07.25-2.01-.26.03-.29.44-.51,1.33-.73.58-.14.68-.19.63-.3-.13-.29-.05-.58.23-.84.15-.14.27-.26.26-.26,0,0-.47.09-1.03.19-1.86.36-2.37.34-2.37-.08,0-.3.29-.49,1.17-.77,1.86-.61,3.45-.93,6.23-1.28l1.76-.23,1.39-.7,1.39-.7-.4-.12c-.4-.12-.43-.12-1.24.11-1.02.27-1.55.3-1.84.06-.11-.09-.2-.23-.2-.31,0-.08-.05-.15-.11-.15s-1.83.14-3.94.31c-5.42.44-5.44.44-5.33-.02.05-.2.26-.3.82-.4.59-.09,2.84-.28,4.32-.36,1.39-.08,2.07-.18,2.4-.37.05-.02-.05-.09-.19-.13-.14-.05-.3-.16-.34-.26-.06-.14-.12-.16-.31-.13-.77.12-5.14.59-5.34.57-.13-.02-.28-.09-.33-.16-.12-.2.03-.39.43-.51.44-.12,2.67-.42,4.77-.64.89-.09,1.69-.19,1.75-.2.2-.07-.07-.18-.58-.23-.4-.05-.51-.09-.72-.32l-.25-.26-1.93.07c-2.76.1-3.69-.02-3.8-.51-.12-.51.68-.84,2.85-1.19.54-.09,1.53-.21,2.22-.27.79-.08,1.34-.16,1.5-.24.26-.13,1.61-.26,2.73-.27.48,0,.56-.02.52-.12-.02-.07-.05-.16-.05-.21,0-.23-.18-.3-.94-.41-.54-.09-1.3-.12-2.29-.11-1.38,0-1.5,0-1.69-.15-.11-.09-.23-.25-.25-.35-.04-.15-.11-.2-.3-.23-.59-.09-3.43-.36-4.27-.4-.75-.04-.93-.08-1.04-.19-.11-.12-.12-.19-.05-.34.09-.21.22-.23,1.07-.2.4.02,2.33.21,2.85.29.26.04.28.03.25-.15-.09-.45.3-.69,1.65-1.03.47-.12.86-.23.88-.23s-.47-.12-1.09-.23c-2.07-.4-4.22-.84-4.36-.92-.16-.09-.17-.4,0-.54.17-.14.4-.12,2.19.29,2.17.48,4.3.89,4.95.94q.54.04.72-.21c.1-.13.17-.26.16-.26-.11-.08-1.62-.47-2.55-.66-1.31-.26-7.22-1.69-7.39-1.79-.16-.09-.15-.47.02-.58.15-.09,1.11.13,5.12,1.18,3.8.99,6.44,1.58,7.07,1.56.15,0,.47-.08.72-.17l.46-.18-.81-.09c-.44-.05-.98-.15-1.21-.22-.51-.16-.58-.33-.3-.75l.2-.3-.54-.27c-.5-.25-.6-.27-1.24-.27-.81,0-1.02-.11-1.06-.54-.02-.32.04-.29-1.94-1.08-2.08-.82-2.78-1.07-3.88-1.34-1-.25-1.14-.32-1.14-.58s.15-.36.48-.36c.23,0,4.11.94,5,1.21.14.05.16.02.15-.36v-.4l-.51-.14c-.27-.08-1.4-.35-2.5-.61-1.1-.26-2.07-.51-2.15-.55-.17-.09-.21-.38-.06-.53.17-.17.64-.1,2.52.37,1.02.26,1.87.45,1.88.44s-.11-.16-.29-.34c-.44-.44-.58-.75-.58-1.26v-.44s-.94-.22-.94-.22c-.51-.12-1.28-.3-1.7-.39-.88-.19-1.07-.33-.86-.65.07-.1.2-.17.32-.17s.93.18,1.83.4l1.62.4.33-.27c.19-.15.47-.34.65-.43q.33-.16-.19-.32c-.79-.23-5.5-1.66-5.66-1.73-.15-.05-.18-.12-.16-.33.02-.23.05-.25.3-.27.25-.02,3.44.94,5.98,1.8.54.19.85.26.93.21.23-.12.89-.33,1.76-.55.79-.2.84-.23.64-.3-.27-.1-.35-.3-.17-.42.12-.09.09-.12-.25-.3-.27-.15-.59-.23-1.19-.3-.79-.09-1.05-.18-.96-.32.02-.04.2-.07.4-.08.35,0,.3-.04-1.73-1.04-1.16-.57-2.15-1.1-2.2-1.17-.15-.2-.12-.48.05-.58.26-.13.78-.09,2.13.23l1.31.3.22-.23c.21-.2.26-.22.85-.22h.63v-.23c0-.22-.03-.24-.98-.59-1.14-.41-4.1-1.31-4.62-1.4-.38-.06-.62-.23-.62-.43,0-.38.44-.4,1.52-.07,2.71.82,6.31,1.78,6.66,1.78.08,0,.18-.07.23-.16.07-.13-.05-.22-1.48-.94-1.47-.75-2.63-1.43-2.74-1.62-.03-.05-.11-.09-.18-.09s-.21-.08-.3-.16c-.12-.12-.54-.25-1.52-.47-.79-.17-1.39-.35-1.48-.43-.32-.29-.09-.65.41-.65.17,0,.75.09,1.3.2l.99.2.31-.31c.33-.33.91-.56,1.41-.56h.26l-.24-.27c-.28-.32-.3-.56-.09-.8.22-.23.46-.28,1.23-.22.37.02.65.04.63.02-.02-.02-.83-.37-1.81-.79-1.55-.66-3-1.19-3.95-1.45-.5-.13-.48-.69,0-.69.12,0,1.58.46,3.24,1.02,2.71.91,4.79,1.52,5.67,1.65.17.03-.15-.1-.7-.3-1.41-.47-2.47-.92-2.51-1.03-.02-.05.05-.12.13-.15.11-.03-.37-.18-1.3-.41-1.9-.47-2.23-.59-2.43-.83-.18-.23-.2-.62-.04-.83.06-.08.29-.2.5-.28l.38-.12-.36-.27c-.4-.3-.51-.58-.29-.8.25-.24.72-.15,2.95.61,2.03.68,2.25.74,3.38.89.66.08,1.21.14,1.22.13.02,0-.38-.33-.86-.72-.68-.55-.94-.72-1.12-.72-.39,0-2.63-.76-2.89-.98-.34-.3-.29-.69.13-.91.19-.11.17-.12-1.21-.82-.77-.39-1.49-.79-1.6-.87-.23-.19-.26-.39-.07-.58.23-.24,1.27,0,3.43.77.71.25.96.31,1.01.24.18-.3.67-.33,1.82-.12.64.12.76.12.8.02.02-.05-.02-.18-.08-.27-.15-.21-.15-.55,0-.78.12-.18.11-.19-2.36-1.39-1.35-.67-2.53-1.24-2.6-1.26-.22-.07-.3-.31-.17-.5.16-.23.33-.22,1.17.14.41.17.78.31.81.31.04,0,.05-.1.02-.23s0-.3.04-.38c.08-.15.03-.19-.48-.47-.64-.35-.99-.64-.99-.82,0-.22.23-.37.5-.32.3.06,1.62.61,3.23,1.35.72.33,1.66.68,2.35.87,1.02.3,1.15.32,1.3.22.16-.11.14-.12-.29-.5-.29-.26-.7-.51-1.18-.72-.93-.4-1.76-.92-1.97-1.19-.15-.19-.15-.22-.02-.4.07-.11.19-.2.28-.2.2,0,1.14.35,1.93.71l.64.3-.34-.44c-.36-.47-.59-.87-.59-1.04,0-.05-.26-.22-.58-.37-.66-.3-.92-.54-.88-.8.03-.25.47-.28,1.1-.07.47.16.49.16.77.02l.28-.15-1.14-.73c-1.36-.87-2.08-1.4-3-2.25-.92-.83-1.06-1.03-1.06-1.49,0-.23-.05-.4-.12-.47-.33-.27-.44-.8-.2-1.08.1-.13.29-.2.5-.21h0ZM424.27,203.02c.08,0,.16.03.23.07.26.16.48.86.52,1.65.03.71.02.75-.14.84-.14.08-.22.06-.47-.11-.16-.12-.3-.26-.3-.32s-.05-.12-.1-.12c-.16,0-.49-.4-.59-.69-.07-.23-.06-.3.05-.47.07-.11.17-.23.23-.26.05-.03.1-.12.1-.21,0-.08.05-.2.12-.26.08-.09.22-.13.35-.12h0ZM406.97,203.21l-.18.58c-.48,1.59-.58,3.23-.26,4.56l.17.72.39-.33.39-.33-.05-1.36c-.08-2.31-.13-2.88-.3-3.38l-.16-.46ZM407.81,204.97s0,0,0,0c-.03.04.11,3.01.15,3.05.05.05,1.5-.88,1.68-1.07l.18-.19-.94-.79c-.52-.44-.96-.85-.99-.91-.02-.05-.05-.08-.07-.08h0ZM392.38,208.26c.45-.04.92-.04,1.16,0,.89.15,1.69.2,2.98.22,1.41,0,1.53.02,2.15.23.9.3,2.27.96,2.84,1.38.73.54,1.56,1.75,1.9,2.78.09.27.28.65.42.83.24.32.26.33.31.16.06-.23.06-1.49,0-1.65-.05-.11-.06-.1-.16.04-.13.18-.28.2-.4.05-.2-.25.38-.96.72-.87.33.08.47.51.51,1.58.02.81,0,1.02-.13,1.45-.29.86-.82,1.55-2.31,3-1.23,1.2-1.52,1.43-2.78,2.28-1.59,1.06-2.4,1.49-3.49,1.86-.42.14-.75.3-.75.35,0,.44-.34,2.67-.44,2.81-.07.12-.19.18-.33.18-.39,0-.43-.12-.37-1.27.02-.56.07-1.16.09-1.32l.05-.29h-.88c-.77,0-.94-.02-1.28-.19-.47-.22-.83-.59-1.03-1.04-.14-.32-.2-.36-1.23-.86-1.35-.66-1.79-1-3.34-2.53-.68-.68-1.34-1.3-1.45-1.38l-.21-.15-.74.92c-.4.5-.96,1.17-1.25,1.49-.28.31-.51.6-.51.63,0,.11-.45.17-.61.09-.17-.09-.61-1.74-.83-3.05-.2-1.28-.1-6.11.14-6.51.11-.17.51-.11.65.11.26.38,1.76,2.17,2.15,2.58.22.23.69.62,1.06.87.62.42.68.44.84.33.19-.12.23-.25.07-.25-.05,0-.18-.07-.27-.16-.52-.49.24-1.39,1.92-2.29.45-.25,1.16-.68,1.56-.97.99-.71,1.58-1.05,2.14-1.25.23-.08.67-.14,1.13-.18h0ZM394.11,209.55c-.23,0-2.54.66-2.85.82-.14.07-.96.74-1.83,1.49-.87.75-1.86,1.59-2.19,1.87l-.61.5.89.85c.52.5,1.19,1.24,1.61,1.8.39.52,1.05,1.28,1.47,1.69.62.61.8.84,1.01,1.31l.26.57.63.19c.62.19,1.37.25,1.99.15l.28-.05.2-1.07c.74-3.86,1.03-6.83.82-8.21-.05-.34-.11-.81-.12-1.03-.02-.23-.03-.43-.05-.44-.02-.02-.33-.12-.68-.23-.37-.11-.74-.19-.83-.19h0ZM396.53,209.71c-.14,0-.14.06-.05.19.09.15,1.31.9,2.74,1.69,2.04,1.15,2.62,1.6,3.3,2.64.16.24.3.44.32.44s.03-.2.03-.44v-.44l-1.27-1.28c-.69-.7-1.42-1.39-1.62-1.54-.4-.29-1.37-.68-2.53-1.03-.49-.15-.78-.22-.92-.23h0ZM396.63,210.48s-.05.01-.01.07c.09.13.05,2.89-.04,3.5-.05.32-.19,1.14-.32,1.83-.35,1.93-.47,3.09-.37,3.78.05.32.09.58.09.59,0,0,.24-.13.52-.3.28-.17.8-.45,1.17-.62.93-.44,1.31-.72,3.58-2.7.37-.31.88-.72,1.15-.9l.49-.33-.52-.76c-.28-.43-.61-.87-.72-.99-.37-.4-1.2-.96-2.57-1.73-.75-.41-1.59-.91-1.87-1.09-.32-.21-.5-.32-.57-.34h0ZM381.77,210.86l-.05.56c-.09,1-.06,3.42.04,4.1.09.6.09.49.06-1.29-.03-1.5-.02-1.97.05-2.01.05-.03.13-.02.18.02s.12.06.18.05c.05-.02.2.15.35.41.16.27.54.73,1,1.17l.74.72.34-.28.33-.28-.33-.23c-.93-.66-1.24-.95-2.03-1.9l-.87-1.03ZM352.85,211.5l-.05.32c-.03.18-.05.33-.04.33,0,0,.37.25.82.54.68.44.88.53,1.24.56l.44.05-1.21-.9-1.2-.89ZM399.08,212.58c.06,0,.1.04.2.11.1.07.17.2.17.32,0,.11.12.39.27.61.23.34.27.47.27.83,0,.62-.19.83-.75.83-.39,0-.45-.02-.77-.32-.36-.33-.54-.73-.63-1.39-.04-.3-.02-.38.16-.57.11-.12.26-.21.34-.21.09,0,.28-.05.43-.12.17-.07.24-.1.3-.1h0ZM434.09,212.73c.06,0,.13.04.19.1.07.09.24.83.24,1.07,0,.04.2.06.44.06,1.03,0,1.49.13,2.78.75.68.33,1.48.75,1.76.94.59.38,1.36,1.25,2.61,2.95.6.82.79,1.03.91,1,.2-.05,2.5,1.17,2.65,1.4.16.25.08.63-.17.79-.11.06-.56.27-1,.45-1,.4-2.36,1.27-3.5,2.22-.97.81-1.63,1.16-3.04,1.62-.93.31-2.37.55-3.3.55-.34,0-.37.02-.41.24-.02.13-.05.35-.05.47,0,.33-.13.53-.35.53-.32,0-.43-.19-.43-.75v-.5h-.73c-.81,0-1.65-.12-2.8-.43-.88-.23-1.48-.47-2.53-1.05-1.05-.58-1.45-.86-2.18-1.54-.65-.59-1.48-1.26-1.59-1.26-.03,0-.26.16-.49.34-.47.37-.87.59-1.05.59-.12,0-.75.62-.86.86-.04.09-.13.14-.19.13-.14-.03-.19-.28-.36-1.62-.05-.49-.25-1.45-.42-2.12-.48-1.84-.71-2.98-.73-3.58-.02-.48,0-.55.17-.68.1-.08.23-.15.29-.15.19,0,.4.28.57.75.22.6.28.7.42.67.08-.02.21.15.37.44.15.28.47.68.81,1,.3.29.77.77,1.03,1.06l.47.54.42-.42c.23-.23.79-.74,1.27-1.11.47-.38,1.14-.95,1.48-1.25.56-.5,1.23-1.07,2.51-2.16.72-.61,2.06-1.13,2.89-1.14.19,0,.63-.1.97-.23l.62-.22.02-.56c0-.31.05-.61.11-.68.06-.07.12-.1.19-.1ZM382.15,212.75s.02.49.05,1.07c.03.58.08,1.62.11,2.32.06,1.45,0,1.42.67.22.19-.33.51-.82.71-1.07l.37-.46-.68-.63c-.38-.34-.81-.82-.95-1.04-.15-.23-.27-.42-.28-.41h0ZM385.97,214.73l-.38.4c-.21.22-.37.43-.35.46.05.14,3.01,2.96,3.41,3.26.23.17.8.5,1.27.71l.83.4-.13-.23c-.08-.13-.4-.47-.71-.75-.32-.28-.84-.86-1.17-1.29-.89-1.18-1.22-1.55-2.03-2.28l-.74-.66ZM435.91,214.76c-.11,0-.14.04-.11.12.03.07.08.29.1.47.05.41.13.47,2.04,1.53,1.52.85,2.14,1.27,2.61,1.77.44.46,1.52,2.08,1.49,2.23-.02.07-.11.14-.22.15-.27.04-.89.47-1.69,1.17-1.87,1.64-2.68,2.26-3.55,2.69-.47.23-1,.51-1.17.62l-.31.19.51-.05c1.83-.17,3.6-.87,4.82-1.9.67-.57,2.32-1.7,2.93-2.01.18-.09.53-.24.77-.33l.45-.17-.18-.14c-.24-.19-.33-.19-.55.05-.2.22-.35.25-.44.09-.03-.06-.16-.17-.28-.25-.12-.08-.63-.69-1.13-1.35-1.38-1.86-2.41-3.1-2.78-3.35-.35-.24-2.76-1.43-3.03-1.5-.13-.03-.22-.05-.28-.05h0ZM433.58,215.01c-.18.01-.51.13-1.24.41-1.11.44-2.53,1.2-3.01,1.62-.2.17-.58.65-.84,1.06-.58.91-1.07,1.34-2.07,1.86-.52.28-.94.57-1.33.94l-.57.54,1.05,1.06c1.35,1.37,1.83,1.74,2.85,2.25,1.24.61,2.52.93,4.12,1.01l.88.05v-.37c0-.21.04-1,.08-1.77.26-4.98.31-6.13.31-7.28,0-.96-.02-1.31-.1-1.34-.04-.02-.08-.02-.14-.02h0ZM434.79,215.48s0,0,0,0c-.02,0,.02.32.06.69s.11,1.17.13,1.78l.05,1.11.14-.58c.19-.78.3-1.75.27-2.26-.02-.4-.04-.43-.33-.59-.15-.08-.28-.15-.32-.15ZM402.81,215.87c-.12.02-.85.58-2.05,1.62-1.58,1.37-2,1.68-2.94,2.15-.49.26-1.17.62-1.52.82s-.66.36-.72.36-.1.03-.1.08c0,.09.47-.05,1.27-.39.64-.26,2.58-1.45,3.51-2.14.3-.23,1.06-.9,1.68-1.51.69-.68.96-1,.86-.99h0ZM436.07,216.23s-.07.39-.09.86c-.03.68-.12,1.22-.4,2.36-.42,1.75-.51,2.28-.57,3.51-.05.94-.15,1.28-.39,1.28-.1,0-.11.08-.07.44.02.25.07.54.09.66l.04.21.51-.32c.29-.17.88-.49,1.32-.7.8-.4,1.45-.89,3.51-2.68.36-.31.86-.7,1.1-.86l.46-.3-.61-.89c-.4-.58-.75-1-1.04-1.24-.44-.36-.66-.49-2.71-1.66-.62-.36-1.15-.65-1.17-.66h0ZM365.88,216.54c-.16,0,1.73,1.52,3.21,2.61.68.5,1.66,1.24,2.18,1.66.94.75,1.1.87,1.48,1.01.31.12.2,0-.95-.94-1.28-1.04-2.6-2.03-4.49-3.36-.77-.54-1.41-.99-1.42-.99ZM437.48,217.45c.22,0,.51.31.85.93.33.58.33.6.24,1.02-.05.23-.12.47-.17.53-.12.15-.54.13-.78-.03-.98-.65-1-.66-1.06-1.05-.05-.29.14-.68.33-.68.12,0,.35-.33.35-.5,0-.07.07-.16.15-.2.03-.01.06-.02.09-.02h0ZM420.97,219.47c-.07,0-.05.34.06.86.4,1.89.47,2.15.65,2.18.24.04.59-.17.86-.52.13-.16.24-.33.24-.35s-.37-.49-.84-1.03c-.46-.54-.87-1.03-.91-1.09-.03-.04-.05-.06-.06-.06ZM413.83,221.52s.1.02.18.08c.1.05.14.18.14.46,0,.37,0,.39.23.39.16,0,.29.07.42.23.12.14.72.5,1.55.92,1.91.99,2.48,1.32,4.18,2.52,1.61,1.12,2.85,2.14,2.96,2.44.1.27.02.58-.29.99-.2.28-.32.37-.44.35-.24-.03-.25-.23-.02-.57.24-.35.26-.55.05-.66-.19-.1-.42,0-.56.26-.05.1-.11.68-.14,1.38-.04,1.08-.07,1.25-.26,1.66-.32.71-.65,1.1-1.53,1.86-.7.61-.98.78-1.98,1.27-1.54.75-1.94.88-2.83.99-.89.1-3.03,0-3.96-.21-1.22-.26-5.01-1.66-6.19-2.28-.48-.25-1.66-1.27-2.53-2.17-.3-.32-.23-.34-1.16.34-.32.24-.64.54-.71.66-.08.14-.17.21-.26.19-.08-.02-.27.11-.5.34-.4.4-.63.47-.86.25-.12-.12-.12-.27-.08-1.54.05-1.11.02-1.77-.11-3.22-.2-2.37-.21-3.36-.02-3.53.18-.16.63-.17.85-.02.22.16,1.07,1.29,1.28,1.7.09.17.47.61.85.98.37.37.8.82.96,1l.29.35.44-.46c.25-.24.89-.81,1.42-1.24.54-.44,1.7-1.44,2.6-2.22,1.11-.96,1.78-1.48,2.1-1.63.68-.32,2.39-.76,3.11-.79l.39-.02.02-.4c.02-.32.06-.44.19-.53.1-.07.15-.1.2-.11h0ZM343.32,221.53c-.34,0-.33,0,.74.54.92.46,1.14.54,1.38.5.16-.02.56.03.97.14.65.17.69.17.82.04.1-.1.27-.14.62-.15h.49s-.74-.15-.74-.15c-.4-.07-1.27-.26-1.9-.43-.65-.16-1.36-.34-1.59-.4-.23-.05-.58-.09-.78-.09ZM413.4,223.3h-.47c-.52,0-1.07.23-2.57,1.1-1.59.92-2.11,1.31-2.53,1.94-.4.59-.7.86-1.38,1.23-.44.24-.81.52-1.09.83-.24.26-.61.65-.84.87l-.4.4,1.25,1.23c.69.68,1.48,1.39,1.76,1.59.95.67,3.58,1.79,4.49,1.91.32.04.33.04.33-.16,0-.14.05-.23.19-.3.25-.11.39-.47.58-1.51.25-1.38.28-1.77.47-6.62.05-1.04.1-2.03.12-2.2l.05-.3ZM415.71,224c-.12,0,.47.37,1.84,1.13,2.18,1.22,2.64,1.58,3.44,2.74.12.19.2.23.26.18.05-.05.21-.09.36-.09h.28s-.26-.23-.26-.23c-.8-.68-3.44-2.44-4.59-3.06-.71-.37-1.31-.68-1.33-.68ZM414.97,224.01l-.15.44c-.12.37-.16.82-.2,2.74-.06,2.13-.14,3.46-.3,4.9-.03.32-.03.79,0,1.05s.06.53.06.6c0,.12.1.09.53-.18.29-.18.88-.5,1.32-.72.8-.39,1.47-.89,3.48-2.64.34-.3.84-.68,1.11-.87l.48-.33-.46-.71c-.85-1.29-1.19-1.57-3.31-2.76-.73-.4-1.6-.91-1.94-1.13l-.62-.4ZM343.36,225.79c-.93,0-.94,0-.96.18,0,.19,0,.19.9.24.5.02,1.19.07,1.53.09l.62.04-.31-.17c-.17-.1-.44-.22-.58-.27-.16-.06-.65-.1-1.21-.11ZM399.78,225.87s.02.89.18,2.45c.06.6.13,1.64.16,2.32.05,1,.07,1.21.16,1.13.08-.08.09-.61.02-2.74-.09-2.62-.09-2.64-.28-2.9-.1-.13-.21-.25-.23-.25ZM416.78,226.5c.18,0,.32.06.49.2.33.28.46.61.46,1.2s-.14.84-.46.84c-.54,0-1.25-.83-1.25-1.45,0-.44.09-.61.4-.72.14-.05.26-.08.37-.08ZM341.91,226.66c-.76,0-1.11.03-1.39.11-.47.14-.82.34-.72.42.16.14,1.59.33,2.86.39.77.03,1.41.05,1.42.04,0,0-.02-.12-.08-.23-.07-.16-.07-.27,0-.44.08-.22.08-.23-.16-.26-.13-.02-.84-.04-1.57-.04-.13,0-.24,0-.35,0ZM376.6,227.12l-.34.12c-.19.06-.53.23-.75.37l-.41.25-.1.74c-.05.4-.09.77-.09.81,0,.04.18-.23.4-.61.23-.37.61-.89.86-1.17l.44-.5ZM400.65,227.13s.13,4.12.17,4.17c.02.04,1.03-.67,1.09-.77.02-.04-.06-.26-.19-.48-.26-.46-.36-.73-.75-2.03-.16-.51-.3-.9-.32-.89ZM401.74,227.76s0,0,0,0c-.05.05.45,1.57.63,1.87l.17.3.28-.33c.16-.19.26-.37.22-.43-.03-.05-.33-.4-.66-.77-.32-.35-.6-.63-.64-.63h0ZM414.23,228.24l-.19,1.36c-.1.75-.24,1.69-.32,2.1-.07.4-.18,1.14-.24,1.63-.05.49-.11.9-.11.91,0,0,.17-.05.39-.12.33-.1.37-.14.29-.23-.12-.16-.12-1.62,0-2.89.05-.54.12-1.38.14-1.87l.04-.89ZM342.7,229.38c-.18,0,.04.13,1.01.63l.97.51.52-.16c.29-.09.53-.19.53-.22s-.34-.18-.76-.34c-.58-.23-.91-.32-1.42-.36-.37-.02-.73-.05-.82-.05-.02,0-.03,0-.04,0h0ZM421.16,229.52c-.09,0-.72.48-1.45,1.12-2,1.75-2.59,2.19-3.33,2.53-.29.13-.86.44-1.28.68s-.98.53-1.26.62c-.45.15-.52.2-.6.43-.09.23-.08.26.08.32.09.04.65.05,1.25.03,1.27-.04,1.65-.14,3.23-.89,1.06-.5,1.62-.89,2.44-1.69.75-.74.93-1.15.96-2.28.02-.56,0-.87-.05-.87h0ZM403.88,229.9l-.21.16c-.12.08-.29.23-.39.34l-.18.19,1.06,1c.58.55,1.22,1.1,1.42,1.21.77.45,4.74,1.93,5.86,2.18l.53.12v-.19c0-.16-.03-.19-.31-.19-.79,0-3.83-1.28-4.87-2.06-.3-.23-1.08-.94-1.73-1.59l-1.18-1.18ZM373.32,230.46s-.17.22-.43.67c-.54.96-.57,1.07-.57,2.27v1.06s.15-.27.15-.27c.08-.15.2-.66.28-1.13.11-.72.38-1.94.54-2.46.03-.09.04-.14.02-.14h0ZM338.62,232.87c-.14,0,.59.38,2.23,1.21l1.62.81h2.55c2.57,0,2.74-.02,2.74-.28,0-.06-.21-.09-.68-.09-.73,0-1.85-.18-3.75-.6l-1.2-.27-.14.19c-.22.29-.49.24-1.03-.18-.42-.33-.56-.39-1.36-.58-.49-.12-.93-.21-.97-.22h0ZM432.58,234.74c.09,0,.18.05.26.14.09.11.15.34.18.85l.05.69.45.05c.67.06,1,.29,1.82,1.27.4.47,1.28,1.38,1.96,2,1.64,1.5,2.72,2.63,3.09,3.22.29.44.35.5.73.61.4.12.79.4.79.58,0,.05-.09.17-.22.27-2.36,2.06-4.15,3.27-6.61,4.47-1.76.86-2.37,1.08-2.99,1.08h-.34l-.05.63c-.06.78-.13.93-.44.93-.33,0-.42-.22-.37-.99l.04-.65-.79-.38c-.43-.21-1.15-.49-1.6-.62-1.03-.31-3.13-1.29-3.8-1.77-.28-.19-1.06-.9-1.73-1.56-1.37-1.35-1.25-1.3-1.86-.66-.61.65-.82.97-1.56,2.4-.39.76-.75,1.44-.79,1.48-.12.15-.4.12-.54-.04-.3-.34-.35-.58-.4-2.11-.02-.83-.13-2.29-.24-3.23s-.19-2.08-.19-2.55v-.83l-.22-.08c-.37-.13-.44-.2-.47-.45-.02-.26.2-.48.5-.48.09,0,.21-.05.26-.12.18-.22.42-.11.47.19.03.24.1.3.62.59.46.25.69.45,1.1.93.28.33.88.93,1.32,1.33l.81.72.27-.25c.15-.14.62-.54,1.05-.89.43-.35,1.53-1.28,2.45-2.08,1.11-.96,1.83-1.52,2.14-1.67.65-.32,1.76-.62,2.26-.62.3,0,.54-.05.79-.19.2-.1.56-.25.8-.32l.44-.14.08-.74c.05-.49.13-.79.22-.88s.18-.14.26-.14h0ZM345.13,235.04h-2.31s.66.35.66.35c.58.31.76.37,1.5.45l.83.11.75-.3c.68-.27.87-.39.88-.56,0-.03-1.04-.05-2.32-.05h0ZM433.34,237.3c-.27,0-.3.02-.3.21,0,.12-.02.29-.05.38-.04.13.07.23.65.59.59.37,2.24,1.31,2.82,1.62.11.05-.15-.23-.57-.62s-.99-.99-1.28-1.31c-.28-.33-.62-.65-.75-.73-.13-.07-.37-.13-.53-.13h0ZM431.23,237.73s-.06,0-.08,0c-.37.1-1.97.93-3.08,1.59-1.48.87-1.8,1.1-2.73,1.91-.4.35-1.13.96-1.62,1.36-.49.4-.93.78-.97.86-.09.16.09.32,1.34,1.16.5.34,1.21.89,1.59,1.23s.96.78,1.32.98c.36.21.95.56,1.31.79.98.6,2.06,1.12,2.3,1.12.33,0,.39-.08.44-.58.02-.26.15-1.46.28-2.68.12-1.22.3-3.3.39-4.63.09-1.33.17-2.52.19-2.65.03-.22,0-.25-.29-.36-.13-.05-.29-.09-.39-.09h0ZM371.77,237.78s-.03,0-.05.01c-.06.02-.22.05-.34.05h-.23v1.76c.02,1.49.03,1.66.09,1.07.06-.73.29-1.89.49-2.54.08-.27.1-.35.04-.35ZM432.97,238.47s-.15.53-.26,1.17c-.17.92-.23,1.58-.29,2.9-.03.94-.11,2.18-.16,2.76-.1,1.07-.12,2.76-.04,2.85.03.02.29-.09.58-.26.29-.18.89-.5,1.32-.72.78-.39,1.59-1,3.31-2.51.62-.55,1.46-1.19,1.62-1.24.12-.04.02-.24-.64-1.17-.67-.94-1.05-1.24-2.94-2.3-.79-.44-1.67-.96-1.95-1.14-.28-.19-.52-.34-.54-.34h0ZM338.63,239.17s-.05.12-.05.29c0,.21.07.4.23.62.31.44.42.48.95.39.43-.08.44-.08.29-.23-.08-.08-.19-.15-.26-.15-.15,0-.36-.21-.36-.36,0-.06.12-.16.25-.21.26-.09.25-.09-.37-.22-.34-.07-.65-.13-.68-.14ZM434.81,240.63c.23,0,.48.08.65.21.39.33.54.72.54,1.35,0,.91-.23,1.24-.84,1.24-.51,0-1.1-.51-1.26-1.07-.14-.54,0-1.17.33-1.55.12-.13.34-.19.58-.18h0ZM343.18,240.75s-.09,0-.13,0c-.61.07-2.45.44-2.45.49,0,.03.23.16.51.3.38.19.61.25.93.25.23,0,.44-.04.47-.08.11-.18.57-.33,1.27-.42l.75-.09-.58-.25c-.35-.15-.57-.21-.76-.21h0ZM418.46,240.83s-.01,0-.01.02c-.02.05.02,1.16.09,2.46.07,1.31.12,2.5.12,2.66v.3l.28-.27c.22-.2,1.38-1.6,1.92-2.3.1-.13-.3-.62-1.31-1.62-.44-.43-.86-.9-.92-1.05-.06-.12-.13-.2-.16-.2h0ZM438.88,242.27s0,.03.04.09c.28.47.59.92.65.96.04.02.08.12.08.2,0,.1-.05.15-.19.15-.23,0-.82.4-1.66,1.11-2.5,2.15-2.61,2.22-3.55,2.71-.51.26-1.14.61-1.41.77-.26.16-.59.35-.75.41-.19.09-.29.18-.31.32-.04.18-.02.19.22.19.54,0,1.14-.22,2.75-1.02,1.47-.73,3.13-1.71,4.39-2.61.44-.32,1.5-1.21,1.51-1.27,0-.02-.11-.11-.25-.19-.13-.09-.37-.35-.54-.58s-.44-.61-.62-.83c-.22-.27-.35-.41-.37-.41h0ZM351.75,243.83c-.15,0-.37.01-.71.03-1.02.05-1.39.14-.99.23.12.03.53.13.89.24l.66.19.26-.22c.19-.16.24-.25.2-.35-.03-.08-.07-.11-.32-.11h0ZM380.39,244.22c-.05,0-.37,1.01-.37,1.19,0,.07-.08.25-.17.4-.1.19-.16.4-.16.61,0,.17-.04.4-.1.5-.12.17-.11.2.04.39.09.11.16.23.16.27,0,.05.07.16.16.27s.16.28.16.38c0,.13.05.19.23.23.25.05.47.3.47.52,0,.17.07.17.26.02.09-.06.25-.12.36-.12s.27.05.36.12c.21.16.53.14.69-.04.08-.09.19-.17.26-.19.07-.02.16-.12.2-.21.09-.2.64-.6.84-.61.08,0,.17-.09.22-.21.05-.12.14-.28.2-.35.12-.12.12-.16,0-.28-.21-.23-.36-.68-.41-1.24l-.05-.54-.42-.26c-.66-.4-1.13-.53-1.53-.44-.3.07-.38.05-.83-.16-.27-.14-.52-.25-.55-.25h0ZM422.62,244.61c-.09-.02,1.64,1.67,2.08,2.03.26.22.88.58,1.36.82,1.02.51,1.69.8,1.69.76,0-.02-.33-.21-.72-.44-.93-.53-1.37-.84-2.08-1.49-.33-.3-.97-.79-1.44-1.1-.47-.32-.86-.58-.89-.58h0ZM372.04,245.49s0,0,0,0c-.02.02,0,.81.02,1.77.05,1.69.06,1.75.24,1.96.1.12.19.21.21.19s.09-.47.19-1.03l.16-.99-.3-.65c-.16-.35-.34-.79-.4-.97-.05-.17-.1-.29-.12-.3ZM370.36,245.58l-.23.49c-.19.41-.21.54-.17.9.05.37.09.47.44.8l.39.37-.05-.62c-.05-.62-.12-1.06-.29-1.63l-.09-.31ZM347.96,249.16s-.11.05-.22.14c-.26.22-.4.23-2.16.12-.58-.04-1.08-.05-1.12-.02-.11.06,1.8.54,2,.51.22-.05,1.64-.51,1.68-.54.02-.02-.02-.08-.07-.15-.04-.04-.07-.07-.1-.07h0ZM341.77,249.32l-.49.05c-.51.05-2.4.51-2.85.69l-.27.12.66.22.65.22,1.69-.05c1.54-.05,3.2-.23,3.36-.37.03-.03-.26-.15-.66-.26-.68-.19-.74-.2-1.1-.09-.71.22-.98.13-.98-.3v-.23ZM391.37,251.6c-.18,0-.23.61-.23,2.51,0,.88-.03,1.52-.09,1.62-.08.15-.07.15.21.03.16-.06.33-.16.4-.2.14-.12.13-1.31-.03-2.78-.11-1-.15-1.18-.26-1.18ZM391.87,251.69s-.02.31.07.92c.07.42.12,1,.13,1.3,0,.3.03.73.05.96l.05.43.19-.27c.31-.44.26-1.13-.16-2.46-.19-.59-.3-.88-.35-.87h0ZM413.23,251.83c-.07,0,2.29,2.44,2.7,2.79.52.44,2.74,1.94,2.53,1.71-.27-.31-2.71-2.45-3.95-3.48-.68-.57-1.26-1.03-1.28-1.03h0ZM344.31,252.23c-.09,0-.07.19.04.42.09.19.11.19.88.19.85,0,1.41-.12,1.17-.25-.07-.04-.55-.14-1.08-.22-.52-.08-.97-.15-1.01-.15h0ZM406.27,252.52l-.3.3c-.16.16-.43.54-.58.84s-.44.79-.62,1.07c-.19.3-.31.53-.28.53.2,0,1.37-1.3,1.66-1.83.16-.27.19-.45.17-.64l-.05-.26ZM341.36,253.82c-.21,0-.61.05-1.69.2-1.74.23-3.9.6-3.99.68-.12.12,1.22.19,2.9.14l1.59-.05.54-.27c.29-.16.58-.28.65-.28s.2-.07.3-.15l.19-.15-.21-.08c-.09-.03-.15-.05-.27-.05ZM353.41,254.09h-.58c-.5,0-.63.03-.92.21l-.34.22.84.33c1.06.42,1.1.42,1.1.03,0-.16-.02-.41-.05-.54l-.05-.24ZM417.58,255.26c-.11-.02,2.18,2.08,3.06,2.79,1.13.93,2.94,2.57,3.57,3.25.2.23.4.4.43.38.08-.02.47.39.71.73.21.31,1.94,1.35,2.06,1.24.04-.04.33.16.68.47.34.3.64.54.67.54.19,0-2.13-2.04-4.72-4.12-.92-.75-2.13-1.73-2.68-2.18-.56-.45-1.41-1.15-1.9-1.57-.49-.41-1.1-.93-1.36-1.14-.26-.22-.48-.4-.5-.4h0ZM417.11,255.64c-.07,0,.42.43,1.59,1.45.72.64,1.96,1.74,2.73,2.46.78.72,1.6,1.45,1.83,1.64.38.29.35.25-.27-.41-.83-.89-3.38-3.37-3.82-3.71-.17-.13-.69-.51-1.16-.83-.54-.38-.85-.59-.9-.6h0ZM346.86,256.37c-.55,0-1.78.08-2.8.2-1.35.16-2.09.33-1.79.42.5.14.78.12,2.62-.18,1.08-.18,2.07-.35,2.2-.39.12-.04.01-.05-.24-.05h0ZM347.02,256.61l-1.05.17c-1.98.32-2.54.44-2.38.51.25.09.61.08.82-.05.33-.19.61-.15.76.12.08.13.18.22.25.2.06-.02.33-.05.58-.08,1.07-.12,1.02-.09,1.02-.51v-.37ZM401.65,257.28l-.46.2c-2.29,1.03-3.74,1.49-6.35,2.01l-2.01.4,1.23.18c.68.09,1.31.19,1.39.21.12.03.19-.03.28-.26.19-.47.51-.58,1.82-.63q1.09-.05,1.11-.24c.05-.38.37-.51.68-.28.12.09.19.09.42,0,.45-.19,1.19-.75,1.55-1.18l.34-.4ZM358.44,257.51c-.3,0-.62.1-2.42.74l-.79.29.1.24c.06.16.17.26.27.27.16.02,2.67-1.16,2.99-1.41.15-.12.14-.12-.16-.12h0ZM347.71,258.08c-.12,0-.23.02-.34.05-.19.05-.19.06.12.19.17.08.58.26.9.4.58.27.59.27,1,.17l.4-.1-.88-.36c-.6-.25-.93-.35-1.2-.36h0ZM342.02,262.45c-.75,0-1.77.06-2.34.16-.77.14-1.52.4-1.47.52.08.25.29.24,1.97-.09.93-.18,1.97-.37,2.32-.42l.62-.1-.47-.05c-.17-.02-.39-.03-.64-.03ZM347.93,263.04c-.44,0-.51.09-.79.32-.22.18-.38.33-.37.35.04.05,1.42-.18,2.38-.39l.82-.17-.74-.05c-.64-.04-1.04-.06-1.3-.06h0ZM348.74,265.05s-.61.04-1.24.08c-.95.07-1.17.11-1.29.23-.14.14-.13.15.51.27.6.12,1.12.12,1.69,0,.09-.02.23-.16.3-.31.09-.19.1-.27.03-.27h0ZM350.6,268.41s-.09,0-.15.02c-.13.02-1.14.13-2.23.24-1.09.11-2.19.23-2.45.27-.26.04-.51.08-.54.09-.05,0,.27.09.7.18l.78.17,1.01-.18c1.3-.22,2.99-.64,2.99-.74,0-.03-.04-.05-.11-.05h0ZM352.2,269.11s-.05,0-.08.01c-.52.14-2.5.78-2.48.79,0,.02.36.08.78.15l.76.13.37-.19c.33-.16.71-.63.72-.86,0-.02-.02-.04-.06-.04ZM423.34,269.61s-.03,0-.04.01c-.05.05-.16.09-.24.1-.12.02-.04.12.39.45.3.23.93.75,1.42,1.16.82.68.87.71.73.43-.15-.28-.72-1.19-.99-1.55-.12-.17-.13-.17-.31-.05-.23.15-.4.07-.69-.32-.12-.16-.2-.23-.26-.22h0ZM429.28,269.72c-.09.01.03.19.39.55.3.31,1.16,1.23,1.9,2.04,1.36,1.5,1.73,1.88,1.58,1.67-.61-.88-1.42-1.87-2.4-2.91-.66-.71-1.24-1.3-1.3-1.32-.08-.03-.14-.05-.17-.04h0ZM425.84,270.88c-.05,0,.18.37.37.58.08.09.51.71.96,1.38.46.67,1,1.37,1.2,1.55.58.51,2.24,1.74,2.67,1.97l.4.22-.05-.28c-.05-.35-.99-1.76-2.22-3.34-.48-.63-.89-1.14-.91-1.14s.09.21.24.46c.35.58.34.89-.02.93-.22.02-.32-.06-1.05-.86-.44-.48-.96-.98-1.14-1.1-.19-.12-.35-.26-.38-.3-.02-.04-.06-.07-.09-.07h0ZM422.74,272s-.05.08,0,.21c.07.2.72.93.84.93.05,0,.05-.03,0-.09-.05-.05-.09-.14-.09-.19,0-.23.17-.08.54.47.33.51,1.13,1.29,1.21,1.21.03-.04-1.18-2.17-1.31-2.31-.08-.08-.14-.08-.31.02-.24.12-.58.05-.75-.16-.05-.06-.08-.08-.11-.08h0ZM425.85,273.91s.05.23.27.7c.09.19.16.44.16.56,0,.17.12.3.6.67.67.5,1.43,1.03,1.73,1.18.19.1.19.09.08-.05-.06-.08-.67-.73-1.35-1.45-.68-.72-1.28-1.37-1.35-1.45-.08-.11-.12-.16-.14-.17h0ZM414.6,274.38s-.06.2-.06.44c0,.33.05.58.21.93.19.43.26.5.58.64.21.09.37.14.37.12s-.23-.51-.52-1.08c-.29-.58-.55-1.05-.58-1.05ZM418.77,276.25s.05.12.14.28c.12.22.14.3.06.37-.07.07-.12.05-.22-.09-.08-.09-.19-.26-.27-.35-.14-.17-.14-.16-.09.24.02.23.21.79.42,1.24.2.46.4.96.46,1.11.05.15.23.41.4.58l.32.3-.04-.27c-.03-.15-.1-.73-.17-1.28-.07-.56-.16-1.08-.19-1.17-.04-.09-.23-.34-.44-.57-.2-.22-.38-.4-.4-.4h0ZM408.18,276.4s0,0,0,0c-.03.08.95,2.73,1.12,3.03.13.24.41.58.45.54.09-.1-.37-1.29-.92-2.38-.33-.67-.62-1.19-.65-1.19h0ZM410.04,276.41c-.11.03,1.02,3.06,1.21,3.26.06.06-.06-1.39-.18-2.06-.12-.68-.16-.73-.65-1-.19-.1-.36-.19-.37-.19,0,0,0,0,0,0h0ZM421.93,277.89c-.05-.02.09.86.19,1.23.07.23.22.47.43.67l.32.31-.05-.23c-.02-.13-.06-.5-.09-.82l-.05-.59-.37-.28c-.19-.16-.37-.28-.39-.28h0ZM412.08,278.45s0,0,0,0c-.11.1.02.67.51,2.3.3,1,.55,1.87.55,1.92,0,.09.86.82.91.77.02,0-.05-.51-.12-1.1-.09-.59-.18-1.33-.21-1.62-.05-.54-.05-.55-.58-1.09-.28-.3-.63-.69-.77-.88-.14-.17-.26-.3-.29-.3h0ZM414.86,280.09c-.08,0-.15.11-.11.31.03.17.23.44.64.86.33.33.66.65.74.69.14.08.14.05.09-.33-.12-1.01-.14-1.1-.23-1.01-.23.23-.86.02-.99-.35-.04-.1-.1-.15-.15-.16h0ZM422.77,281.53s-.06.06-.04.13c.02.08.12.42.21.76.12.44.26.72.47.97.26.31.83.75.76.58-.09-.19-.6-1.16-.94-1.76-.21-.37-.42-.68-.46-.68h0ZM419.62,281.64s0,0,0,0c-.02.02.04.26.12.54s.16.72.18.96c.02.44.05.49.72,1.38.39.51.68.88.65.81-.16-.41-.5-1.56-.69-2.32-.12-.48-.26-.91-.32-.94s-.22-.15-.37-.26c-.14-.1-.26-.18-.29-.17h0ZM415.1,281.64s.34.71.78,1.55c.44.83.81,1.51.82,1.5s-.05-.44-.15-.94l-.16-.93-.64-.59c-.34-.33-.64-.59-.65-.58ZM352.62,282.47s-.06,0-.13.03c-.1.03-.4.09-.65.12-.71.1-1.35.4-1.99.91-.32.26-.89.7-1.26.99-.38.3-.67.54-.65.57.15.15,2.46-.4,2.97-.7.22-.12,1.54-1.52,1.66-1.76.06-.11.08-.16.04-.16h0ZM408.19,283.26c-.16,0-.26.03-.26.06,0,.05.08.38.16.75l.17.67,1.22,1.14c1.14,1.07,2.19,2.02,2.51,2.26.12.1.12.06-.03-.31-.21-.52-.74-2.1-.85-2.53l-.08-.33-.33.04c-.3.04-.36.02-.55-.21l-.21-.26.05.23c.03.12.09.3.12.4.1.27.09.56-.03.56-.09,0-.99-2.1-.99-2.32,0-.04-.12-.09-.26-.11-.26-.03-.48-.04-.65-.04h0ZM352.82,283.64s-.21.11-.43.26c-.23.15-.54.33-.69.4s-.29.16-.29.2c0,.12,1.04.06,1.41-.07.36-.12.37-.15.37-.42,0-.24-.03-.3-.18-.33-.09-.02-.19-.04-.2-.05ZM388.28,284.02s-.02.55.02,1.22c.03.68.07,1.47.08,1.76.03.58.07.68.21.54.16-.16.1-1.87-.1-2.75-.09-.42-.19-.76-.21-.76ZM418.08,284.19l-.05.79c-.02.44-.07.86-.1.93-.05.1.03.18.35.37.23.13.43.22.44.2s-.03-.48-.11-1.05c-.12-.96-.15-1.03-.33-1.13l-.2-.1ZM403.09,284.26c-.09,0-.23.04-.47.11l-.4.12.37,1.37c.21.75.43,1.45.48,1.54.46.69,1.54,2.15,1.51,2.03-.02-.09-.09-.38-.14-.66-.05-.28-.29-1.21-.54-2.06-.26-.86-.5-1.71-.54-1.9s-.1-.4-.12-.45c-.02-.06-.05-.09-.14-.09h0ZM406.96,284.33s0,.85.02,1.88v1.89s.58.69.58.69c.75.9,2.46,2.56,3.31,3.2.37.28.7.51.73.51.13,0,.04-.21-.59-1.31-.36-.63-.81-1.46-1-1.85-.54-1.08-1.15-2.11-2.15-3.62-.5-.76-.9-1.38-.9-1.38h0ZM419.61,284.35s0,0-.01,0c-.15.02-.14.25.04,1.62l.13,1.06.41.13c.22.07.57.12.76.12.35,0,.37,0,.37-.22,0-.37-.46-1.17-1.44-2.52-.08-.11-.19-.2-.26-.2h0ZM411.76,284.54c-.05,0-.12,0-.2.01l-.27.03.15.55c.5,1.81,1.42,3.71,2.07,4.24l.3.25.02-.25c.05-.44-.3-2.42-.47-2.71l-.16-.27-.06.24c-.03.13-.12.28-.18.33-.17.14-.47.03-.57-.21-.11-.27-.37-1.35-.44-1.81-.03-.19-.07-.37-.09-.4,0-.01-.04-.02-.09-.02h0ZM397.82,284.72h-.26c-.13,0-.29.03-.34.06-.06.04-.02.54.18,1.96.14,1.05.26,2.1.26,2.35,0,.3.06.56.2.86l.19.41-.05-.54c-.11-1.31-.19-3.11-.19-4.07v-1.03ZM358.56,285.99c-.16,0-.3.09-.72.4-.8.61-1.46.93-1.8.86-.15-.03-.33-.12-.4-.2-.13-.14-.15-.14-.93.25-.71.35-.82.44-1.17.89-.42.55-.82,1.28-.82,1.51,0,.28.33.25,1.58-.16l1.2-.4-.11-.21c-.16-.31-.13-.54.09-.75.19-.2.49-.25.73-.12.1.05.26,0,.67-.28.3-.19.82-.51,1.15-.7.61-.36.69-.44.79-.82.04-.16.02-.22-.09-.24-.07-.02-.12-.03-.18-.03h0ZM393.1,286.16s0,0,0,0c0,0,.02.53.08,1.16.05.74.12,1.13.17,1.11.1-.03.24-.57.33-1.29l.07-.54-.31-.23c-.17-.12-.31-.21-.34-.21h0ZM354.16,286.21c-.1,0-1.53,1.62-1.48,1.69.02.02.28-.08.58-.22.43-.2.65-.37,1.01-.78l.47-.52-.25-.09c-.14-.04-.29-.08-.33-.09ZM361.37,286.53s-.06,0-.11.02c-.23.07-1.26.63-1.66.9-.28.19-.33.28-.41.65-.05.24-.08.46-.06.5.02.03.5-.3,1.07-.75.82-.63,1.07-.87,1.14-1.08.06-.18.08-.24.03-.25h0ZM395.65,286.58l-.2.16c-.12.09-.27.16-.35.16-.09,0-.15.03-.15.07,0,.09.61,2.81.66,2.92.02.04.03-.68.03-1.62v-1.69ZM399.78,286.7s.06.54.17,1.18c.25,1.42.71,4.53.82,5.59.06.55.07.84.02.94-.07.12-.02.23.3.61.37.44.84.88,1.26,1.15.29.19.37.02.12-.25-.26-.29-.38-.54-.7-1.53-.53-1.65-.97-3.62-1.3-5.85-.14-.98-.19-1.16-.41-1.49-.13-.2-.26-.37-.27-.35h0ZM398.42,286.82c-.08,0-.07,1.55.02,2.8.13,1.87.1,1.75.75,2.73.32.49.57.82.54.73-.26-1.02-.58-3.55-.65-5.04-.05-1.07-.05-1.14-.19-1.1-.08.03-.21.02-.28-.03-.08-.05-.16-.09-.2-.09ZM405.14,287.54s-.04,0-.05,0c-.07.02-.21.05-.31.05-.18,0-.19.02-.15.29.18,1.05.45,2.25.54,2.43.17.32.89,1.08.85.9-.02-.09-.19-.91-.38-1.83-.19-.92-.37-1.72-.39-1.78-.02-.04-.06-.06-.11-.06h0ZM361.03,287.68s-.42.28-.88.63c-.47.34-.91.66-.98.7-.08.05-.14.16-.14.27,0,.18.02.19.2.16.12-.03.31-.08.45-.1.13-.02.3-.1.38-.16.22-.19.89-1.12.94-1.32.03-.09.04-.17.02-.17h0ZM391.59,288.03l-.16.43c-.09.23-.17.55-.19.7s-.09.89-.15,1.63c-.07.75-.18,1.75-.24,2.23-.06.53-.09.93-.04,1.04.06.17.06.18.11.03.24-.77.75-5.09.69-5.79l-.03-.27ZM393.83,288.14l-.13.3c-.08.17-.19.33-.26.35-.17.07-.11.63.23,2.11l.25,1.1v-.63c.02-.34,0-1.21-.04-1.92l-.05-1.3ZM358.3,288.4c-.06.01-.22.12-.61.38-.41.27-2.49,2.41-2.88,2.96l-.18.25.31-.23c1.69-1.26,1.85-1.4,1.69-1.42-.37-.05-.15-.26.72-.67.88-.41.89-.43.89-.68,0-.14.02-.34.05-.44.02-.1.04-.15,0-.14h0ZM414.57,288.53s0,.37.02.83c.04.73.07.86.22.99.2.18,1.13.62,1.18.57.08-.08-.23-.66-.8-1.52-.32-.47-.6-.87-.61-.87ZM368.81,288.66s-.08.27-.22,1.19c-.16,1.07-.19,1.83-.1,2.38.04.26.09.08.24-1.01.2-1.45.24-2.05.13-2.41-.02-.09-.04-.15-.06-.15h0ZM401.03,288.96s0,0,0,0c-.05.05.12,1.3.31,2.25.16.81.67,2.49.73,2.43.05-.05-.53-2.88-.79-3.93-.11-.41-.21-.73-.24-.75ZM388.09,289.03s-.05,0-.08.02c-.09.02-.19.07-.21.09-.02.02-.05,1.35-.05,2.96l-.02,2.93.47-1.4c.43-1.26.48-1.49.53-2.29.04-.56.03-.96-.02-1.11-.1-.3-.16-.23-.26.3-.09.54-.27.65-.27.18,0-.18.04-.56.09-.86.05-.39.05-.58,0-.7-.05-.09-.1-.13-.17-.13ZM365.98,289.47c-.06,0-.17.09-.36.29-.3.3-.43.65-.71,1.86-.11.47-.1.48.04.41.08-.05.22-.25.3-.45.33-.72.78-1.89.78-2,0-.07-.01-.11-.05-.11h0ZM379.76,289.67s-.04.03-.07.08c-.03.08-.19.48-.37.89l-.31.76.16.32c.09.17.2.3.25.29.13-.05.68-1.4.68-1.68,0-.14-.08-.36-.17-.49-.09-.12-.13-.17-.17-.17h0ZM394.45,289.71s0,0,0,0c-.05.04.09,3.68.16,4.65.05.64.34,1.48.87,2.53.37.75,1.6,2.78,1.54,2.57-.02-.09-.13-.65-.25-1.24s-.22-1.1-.23-1.11c0-.02-.09,0-.18.06-.21.11-.46-.02-.51-.26-.02-.09-.22-.96-.44-1.92-.39-1.71-.93-4.7-.93-5.11,0-.1-.01-.17-.03-.17h0ZM376.9,290.37s-.05.01-.08.03c-.08.05-.22.08-.31.08-.16,0-.16.02-.13.56.02.31.17,1.16.34,1.88.28,1.24.3,1.3.4,1.09.07-.16.09-.44.05-.93-.03-.39-.06-.72-.08-.73s-.08.02-.15.07c-.16.13-.16-.06,0-.44.12-.3.15-.72.07-1.29-.03-.24-.06-.32-.12-.31h0ZM361.5,290.86c-.22,0-2.24,2.46-2.24,2.74,0,.15.19.03.71-.43.31-.26.65-.56.76-.65.16-.13.19-.19.1-.26-.05-.05-.09-.21-.09-.34,0-.19.09-.31.44-.64.29-.26.4-.41.32-.41h0ZM392.01,291.07s0,0-.01,0c-.03.03-.1.45-.15.92-.05.47-.18,1.42-.27,2.1l-.19,1.24.26.51c.53,1.04,1.75,2.67,1.75,2.32,0-.17-.19-1.16-.73-3.8-.27-1.35-.52-2.65-.55-2.9-.03-.22-.07-.38-.1-.39h0ZM407.63,291.1s0,.12.02.27c.04.21.02.3-.11.43-.19.19-.33.19-.5.03-.15-.14-.15-.15-.04.35.08.37.16.47,1.07,1.35,1.03,1,2.01,1.81,1.94,1.62-.06-.16-.99-1.76-1.73-3.01-.34-.57-.64-1.03-.65-1.03h0ZM389.36,291.95s.04,2.39.12,3.41c.02.36.07.62.1.58.03-.03.12-.27.19-.52.19-.68.1-2.22-.17-2.95-.12-.29-.22-.52-.24-.52h0ZM363.49,292.5s-.12.18-.26.39c-.46.75-1.09,1.32-1.46,1.32-.16,0-.99.97-.92,1.09s.53.09.86-.05c.17-.07.57-.3.89-.51l.59-.4.16-.92c.09-.51.15-.93.14-.93h0Z" style="fill: #fff; stroke-width: 0px;"/>
      <g>
        <path d="M437.4,325.68v15.8h2.78v-15.8h4.23v-2.61h-11.23v2.61h4.22Z" style="fill: #fff; stroke-width: 0px;"/>
        <path d="M423.68,329.87h-2.69v11.61h2.69v-1.22c1.1,1.03,2.29,1.55,3.56,1.55,1.61,0,2.93-.58,3.98-1.74,1.04-1.18,1.56-2.66,1.56-4.44s-.52-3.19-1.56-4.35c-1.04-1.16-2.34-1.74-3.91-1.74-1.35,0-2.56.56-3.64,1.67v-1.35ZM430.04,335.64c0,1.11-.3,2.02-.89,2.72-.61.71-1.38,1.06-2.31,1.06-.99,0-1.8-.34-2.41-1.03-.61-.71-.92-1.61-.92-2.69s.31-1.99.92-2.69c.61-.69,1.41-1.04,2.38-1.04.92,0,1.69.35,2.31,1.05.61.71.92,1.58.92,2.62Z" style="fill: #fff; stroke-width: 0px;"/>
        <path d="M414.92,321.34v12.28l-3.78-3.76h-3.6l5.04,4.88-5.41,6.74h3.48l3.84-4.9.43.43v4.47h2.68v-20.14h-2.68Z" style="fill: #fff; stroke-width: 0px;"/>
        <path d="M397.29,329.87h-2.69v11.61h2.69v-1.22c1.1,1.03,2.29,1.55,3.56,1.55,1.61,0,2.93-.58,3.98-1.74,1.04-1.18,1.56-2.66,1.56-4.44s-.52-3.19-1.56-4.35c-1.04-1.16-2.34-1.74-3.91-1.74-1.35,0-2.56.56-3.64,1.67v-1.35ZM403.66,335.64c0,1.11-.3,2.02-.89,2.72-.61.71-1.38,1.06-2.31,1.06-.99,0-1.8-.34-2.41-1.03-.61-.71-.92-1.61-.92-2.69s.31-1.99.92-2.69c.61-.69,1.41-1.04,2.38-1.04.92,0,1.69.35,2.31,1.05.61.71.92,1.58.92,2.62Z" style="fill: #fff; stroke-width: 0px;"/>
        <path d="M387.36,338.95h-6.9v2.53h12.22l-7.52-9.11h5.93v-2.5h-11.23l7.51,9.08Z" style="fill: #fff; stroke-width: 0px;"/>
        <path d="M375.26,329.87v6.66c0,1.92-.76,2.89-2.28,2.89s-2.28-.96-2.28-2.89v-6.66h-2.68v6.72c0,.93.12,1.73.35,2.41.22.6.61,1.15,1.16,1.63.91.79,2.06,1.18,3.46,1.18s2.54-.39,3.45-1.18c.56-.48.95-1.03,1.18-1.63.22-.54.33-1.34.33-2.41v-6.72h-2.68Z" style="fill: #fff; stroke-width: 0px;"/>
        <path d="M356.08,321.34h-2.69v20.14h2.69v-1.22c1.06,1.03,2.25,1.55,3.59,1.55,1.59,0,2.91-.58,3.96-1.74,1.04-1.18,1.56-2.66,1.56-4.44s-.52-3.18-1.56-4.34c-1.03-1.17-2.33-1.75-3.9-1.75-1.36,0-2.58.56-3.65,1.67v-9.87ZM362.45,335.64c0,1.11-.3,2.02-.89,2.72-.61.71-1.38,1.06-2.31,1.06-.99,0-1.8-.34-2.41-1.03-.61-.71-.92-1.61-.92-2.69s.31-1.99.92-2.69c.61-.69,1.41-1.04,2.38-1.04.92,0,1.69.35,2.31,1.05.61.71.92,1.58.92,2.62Z" style="fill: #fff; stroke-width: 0px;"/>
        <path d="M350.55,335.59c0-1.68-.6-3.1-1.8-4.28-1.2-1.18-2.66-1.76-4.39-1.76s-3.2.59-4.41,1.78c-1.19,1.18-1.79,2.64-1.79,4.36s.6,3.2,1.8,4.38c1.21,1.17,2.69,1.75,4.45,1.75s3.2-.6,4.38-1.79c1.18-1.18,1.76-2.65,1.76-4.44ZM347.8,335.64c0,1.16-.31,2.08-.93,2.75-.64.68-1.47,1.03-2.52,1.03s-1.89-.34-2.52-1.01c-.63-.68-.94-1.58-.94-2.71s.31-2.03.94-2.71c.64-.68,1.47-1.03,2.52-1.03s1.86.34,2.49,1.03.95,1.57.95,2.65Z" style="fill: #fff; stroke-width: 0px;"/>
        <path d="M437.26,370.78l-3.87-19.79-6.32,14.31-6.55-14.31-3.48,19.79h2.85l1.78-11.11,5.45,11.96,5.29-11.97,1.98,11.12h2.87Z" style="fill: #fff; stroke-width: 0px;"/>
        <path d="M414.21,364.89c0-1.68-.6-3.1-1.8-4.28-1.2-1.18-2.66-1.76-4.39-1.76s-3.2.59-4.41,1.78c-1.19,1.18-1.79,2.64-1.79,4.36s.6,3.2,1.8,4.38c1.21,1.17,2.69,1.75,4.45,1.75s3.2-.6,4.38-1.79c1.18-1.18,1.76-2.65,1.76-4.44ZM411.46,364.94c0,1.16-.31,2.08-.93,2.75-.64.68-1.47,1.03-2.52,1.03s-1.89-.34-2.52-1.01c-.63-.68-.94-1.58-.94-2.71s.31-2.03.94-2.71c.64-.68,1.47-1.03,2.52-1.03s1.86.34,2.49,1.03.95,1.57.95,2.65Z" style="fill: #fff; stroke-width: 0px;"/>
        <path d="M390.42,350.64h-2.69v20.14h2.69v-1.22c1.06,1.03,2.25,1.55,3.59,1.55,1.59,0,2.91-.58,3.96-1.74,1.04-1.18,1.56-2.66,1.56-4.44s-.52-3.18-1.56-4.34c-1.03-1.17-2.33-1.75-3.9-1.75-1.36,0-2.58.56-3.65,1.67v-9.87ZM396.79,364.94c0,1.11-.3,2.02-.89,2.72-.61.71-1.38,1.06-2.31,1.06-.99,0-1.8-.34-2.41-1.03-.61-.71-.92-1.61-.92-2.69s.31-1.99.92-2.69c.61-.69,1.41-1.04,2.38-1.04.92,0,1.69.35,2.31,1.05.61.71.92,1.58.92,2.62Z" style="fill: #fff; stroke-width: 0px;"/>
        <path d="M381.66,359.17v6.66c0,1.92-.76,2.89-2.28,2.89s-2.28-.96-2.28-2.89v-6.66h-2.68v6.72c0,.93.12,1.73.35,2.41.22.6.61,1.15,1.16,1.63.91.79,2.06,1.18,3.46,1.18s2.54-.39,3.45-1.18c.56-.48.95-1.03,1.18-1.63.22-.54.33-1.34.33-2.41v-6.72h-2.68Z" style="fill: #fff; stroke-width: 0px;"/>
        <path d="M368.35,350.64v20.14h2.68v-20.14h-2.68Z" style="fill: #fff; stroke-width: 0px;"/>
        <path d="M356.39,359.17h-2.69v11.61h2.69v-1.22c1.1,1.03,2.29,1.55,3.56,1.55,1.61,0,2.93-.58,3.98-1.74,1.04-1.18,1.56-2.66,1.56-4.44s-.52-3.19-1.56-4.35c-1.04-1.16-2.34-1.74-3.91-1.74-1.35,0-2.56.56-3.64,1.67v-1.35ZM362.76,364.94c0,1.11-.3,2.02-.89,2.72-.61.71-1.38,1.06-2.31,1.06-.99,0-1.8-.34-2.41-1.03-.61-.71-.92-1.61-.92-2.69s.31-1.99.92-2.69c.61-.69,1.41-1.04,2.38-1.04.92,0,1.69.35,2.31,1.05.61.71.92,1.58.92,2.62Z" style="fill: #fff; stroke-width: 0px;"/>
        <path d="M350.31,359.17h-2.68v1.04c-.49-.52-.93-.87-1.31-1.06-.39-.2-.85-.3-1.38-.3-.71,0-1.45.23-2.22.69l1.23,2.46c.51-.37,1.01-.55,1.49-.55,1.46,0,2.19,1.1,2.19,3.31v6.02h2.68v-11.61Z" style="fill: #fff; stroke-width: 0px;"/>
      </g>
    </g>
  </g>
</svg>