<?xml version="1.0" encoding="UTF-8"?><svg id="a" xmlns="http://www.w3.org/2000/svg" width="9.91mm" height="128.52mm" viewBox="0 0 28.08 364.32"><path d="M28.08,219.84v.48c-12.36,3.72-21.16,11.84-24.32,24.52-2.74,10.99-1.35,18.76,3.23,28.84,2.98,6.55,6.49,11.28,12.51,15.33.62.41,1.38.93,2.09,1.14-6.89-7.26-14.3-14.55-15.36-25.08-.92-9.17,1.14-20.9,6.52-28.51,3.37-4.76,9.59-9.62,15.32-10.96v.96c-2.94.9-5.46,2.38-7.9,4.22-10.41,7.9-13.19,19.71-12.51,32.39s10.96,23,20.41,30.35v2.16l-16.24-7.64-5.6-4.24c1.89,3.68,4.78,6.91,7.8,9.72,2.56,2.39,6.61,5.9,9.51,7.77.68.44,2.5,1.08,2.86,1.46.51.52-.14,2.03,1.68,2.28v3.6c-2.54-1.37-4.85-3.13-7.44-4.44-6.33-3.24-13.6-5.44-20.64-6.36v-3.36c1.94.04,3.86.36,5.76.72l-5.76-6.72v-2.88c3.19,3.3,5.97,7.34,9.86,9.94,2.56,1.7,5.54,2.63,8.38,3.74-1.21-1.4-2.85-2.36-4.21-3.59-5.89-5.36-9.93-11.99-14.03-18.73v-3.12c2.92,4.11,6.23,7.98,10.58,10.66.86.53,1.84,1.28,2.86,1.34-16.11-17.02-17.15-50.12,5.12-62.44,2.87-1.59,6.27-3.02,9.52-3.56Z"/><path d="M2.4,0c-.28,5.21,1.55,10.36,3.49,15.11,3.14,7.71,7.22,14.24,14.63,18.49.34-.18.04-.63-.11-.85-.93-1.41-3.85-3.83-5.17-5.39-3.39-3.97-6.95-8.95-8.26-14.06-1.11-4.34-.9-8.87-.74-13.3h1.44c-.25,6.7-.07,12.39,3.08,18.4,3.9,7.44,10.68,14.04,17.32,19.04v2.4c-1.76-.63-3.29-1.79-4.95-2.61-4.48-2.2-9.23-3.67-13.36-6.56-.52-.36-2.94-2.64-3.28-2.35,2.17,3.79,5.3,7.16,8.51,10.08,2.16,1.96,5.68,5.02,8.06,6.58.57.37,3.4,1.61,3.53,1.86.33.61-.32,2.01,1.49,2.11v6.24c-8.45-5.29-18.07-8.92-28.08-9.6v-2.16c7.01.59,13.89,2.34,20.25,5.31l7.59,4.28c-1.11-1.4-2.95-2.39-4.49-3.31-7.09-4.22-15.2-6.74-23.35-7.97v-3.36l5.52.6-5.52-6.6v-2.88c3,3.13,5.81,7.16,9.38,9.7,2.55,1.81,5.91,3,8.86,3.98C10.31,37.32,4.89,29.33,0,20.88v-3.12c3.44,5.13,7.7,9.68,13.44,12.24C6.21,21.76,1.64,11.08,1.68,0h.72Z"/><path d="M28.08,156v3.36c-4.79,1.19-10.17,2.11-14.79,3.81-.31.11-.74.05-.81.51l15.6-2.4v1.44c-9.6.99-18.98,3.35-28.08,6.48v-5.52c1.44.12,2.58-.02,3.84-.72l-3.84-3.84v-3.36c1.49,1.26,5.11,6.19,7.06,6,.42-.04.82-.28,1.1-.6-3.1-2.47-5.69-5.43-8.16-8.52v-2.4c1.58,1.58,2.77,3.54,4.31,5.17.9.95,4.75,4.5,5.76,4.8,1.25.38,2.15,0,3.13-.73,0-.3-3.62-3.54-4.21-4.19-3.72-4.14-6.23-9.15-9-13.92v-.96c2.36,3.31,4.41,6.8,6.86,10.06,1.07,1.41,6.85,8.83,8.12,8.89l3.49-1.31c-3.08-3.37-5.97-6.86-8.59-10.61-3.55-5.07-6.48-10.52-9.88-15.68v-1.44c4.68,8.07,9.31,15.74,15.48,22.8.91,1.04,3.65,4.34,4.82,4.54.44.08.87.21.83-.35-.07-1-4.63-6.08-5.58-7.38-5.64-7.71-10.06-16.38-15.55-24.17v-2.4c6.13,9.31,11.49,19.2,18.49,27.95.89,1.11,3.25,4.28,4.23,4.89,1.2.74,1.99.69,3.2.04-6.11-7.21-11.09-15.22-15.88-23.35-3.37-5.72-6.3-11.72-10.04-17.2v-2.16c5.94,9.22,10.68,19.18,16.56,28.44,1.44,2.27,8.45,13.01,10.19,13.81.47.22.82.3,1.34.22Z"/><path d="M28.08,232.32v1.44c-5.42,3.6-10.47,9.38-13.57,15.11-8.91,16.51.52,29.63,13.57,39.61v1.92c-3.89-2.53-7.84-6.1-10.92-9.6-13.3-15.06-9.17-30.88,4.32-43.93,1.83-1.77,4.11-3.97,6.61-4.55Z"/><path d="M28.08,111.36v3.6c-1.74-1.87-3.02-4.44-4.21-6.71-5.76-11.05-10.31-26.07-23.87-29.53v-2.64c7.21.75,10.84,4.92,14.5,10.58,5.1,7.88,8.68,16.7,13.58,24.7Z"/><path d="M26.16,364.32h-2.16c-5.85-11.2-10.48-25.89-24-29.76v-2.4c6.9.46,10.74,4.74,14.26,10.1,4.53,6.9,8.01,14.78,11.9,22.06Z"/><path d="M28.08,239.04v1.68c-4.47.64-7.11,5.2-8.58,9.06-2.24,5.87-3.55,14.58-1.5,20.58,1.7,4.98,5.59,9.87,10.08,12.6v1.92c-1.73-.79-3.48-2.54-4.81-3.95-8.11-8.65-9.74-16.12-6.45-27.59,1.58-5.51,5.03-13.15,11.26-14.3Z"/><path d="M11.76,0c-3.73,13.4,6.33,25.03,16.32,32.4v1.92c-1.16-.36-2.28-1.39-3.23-2.17C15.31,24.37,6.24,13.2,9.6,0h2.16Z"/><path d="M28.08,177.36v.72c-1.14-.1-9.22,1.58-9.36,2.04-.12.39,1,.78,1.28.88,2.97,1.09,5.12-.56,8.08-.28v.96c-10.22,1.23-19.48,5.95-28.08,11.28v-1.44c6.15-3.53,12.38-7.02,19.2-9.12-1.59-2.8-4.82-1.26-7.2-.35-4.11,1.56-8.14,4.03-12,6.12v-1.68c8.6-4.82,18.14-8.5,28.08-9.12Z"/><path d="M28.08,141.6v2.88c-.46-.15-.47-.58-.61-.95-2.16-5.89-3.48-11.62-6.55-17.21s-7.23-10.15-10.61-15.31c-3.58-5.47-6.25-11.54-10.32-16.68v-2.4c6.04,6.14,8.41,14.51,13.24,21.44,2.66,3.81,5.87,7.21,8.16,11.28,3,5.34,4.5,11.27,6.68,16.96Z"/><path d="M28.08,151.44v1.44c-.65-.07-1.05-.88-1.4-1.36-6.33-8.77-10.62-19.32-15.84-28.8-3.35-6.08-7.05-12.03-10.84-17.84v-3.12c10.63,15.8,17.26,33.99,28.08,49.68Z"/><path d="M28.08,123.12v1.68c-.53.12-.51-.29-.72-.59-3.55-5.14-7.56-10.01-10.9-15.27-4.63-7.29-8.55-15.87-14.42-22.3-.54-.59-1.25-1.46-2.04-1.68v-1.92c.47,0,.67.32.96.6,8.69,7.89,11.02,14.83,16.43,24.61,2.96,5.35,6.85,10.14,10.69,14.87Z"/><path d="M28.08,209.04v1.92c-12.51,1.5-22.44,10.55-28.08,21.36v-3.6c5.94-10.16,16.06-18.4,28.08-19.68Z"/><path d="M28.08,196.08v1.68c-7.33.34-14.44,2.35-20.8,5.96-2.55,1.45-4.8,3.3-7.28,4.84v-2.4c1.91-1.31,3.55-2.95,5.54-4.18,6.49-4,14.99-5.65,22.54-5.9Z"/><path d="M28.08,97.68v3.36c-2.58-3.91-4.67-8.16-7.19-12.13-2.8-4.41-8.42-13.02-12.95-15.37-2.46-1.27-5.27-1.65-7.93-2.27v-1.44c8.35-.06,13.41,6.35,17.96,12.4,3.7,4.93,6.78,10.27,10.12,15.44Z"/><path d="M28.08,353.76v3.12c-.58.13-.5-.3-.68-.63-3.66-6.8-11.87-21.51-17.96-25.73-2.73-1.89-6.2-2.69-9.44-3.16v-1.44c7.03-.17,11.46,4.24,15.59,9.25,4.75,5.76,8.49,12.32,12.49,18.59Z"/><path d="M28.08,309.36v1.68c-.5.08-.76-.21-1.13-.43-2.14-1.25-4.2-2.57-6.46-3.62-6.44-3-13.43-4.73-20.49-5.55v-1.92c10.06.59,19.82,4.16,28.08,9.84Z"/><path d="M28.08,183.6v1.68c-10.33,1.87-19.57,7.07-28.08,12.96v-2.16c8.47-5.52,17.86-11.24,28.08-12.48Z"/><path d="M28.08,171.36v1.92c-9.78.93-19.34,3.73-28.08,8.16v-2.16c8.97-3.91,18.17-7.35,28.08-7.92Z"/><path d="M28.08,169.44v1.44c-9.57.33-18.95,2.56-28.08,5.28v-1.68c9-3.11,18.49-5.09,28.08-5.04Z"/><path d="M17.76,0c-.6,3.24-.95,6.67-.73,9.97.44,6.8,5.65,13.4,11.05,17.15v1.92c-2.06-1.33-4.13-3.32-5.75-5.17-5.14-5.83-7.72-11.26-6.96-19.19.15-1.56.6-3.11.72-4.68h1.68Z"/><path d="M17.52,364.32h-1.44c-4.85-8.22-9.3-16.93-16.08-23.76v-1.68c4.85,4.05,8.95,9.19,12.04,14.72,1.95,3.5,3.39,7.29,5.48,10.72Z"/><path d="M28.08,72.24v1.92c-1.4-.76-2.34-2.5-3.47-3.61-6.58-6.43-15.59-8.68-24.61-8.63v-1.68c7.89-.06,15.66,1.63,22.06,6.38,2.23,1.65,4.04,3.71,6.02,5.62Z"/><path d="M28.08,328.32v1.92l-4.19-4.33c-3.28-2.95-6.98-5.05-11.22-6.3s-8.34-1.55-12.66-1.86v-1.44c10.84-.46,21.17,3.58,28.08,12Z"/><path d="M28.08,343.2v2.16c-.6.13-.49-.31-.67-.63-4.04-6.98-8.26-14.46-15.49-18.61-3.72-2.14-7.66-3.15-11.92-3.56v-.96c3.04.29,6.16.65,9.07,1.61,5.94,1.96,10.54,7.16,14.02,12.14,1.78,2.55,3.2,5.32,4.99,7.85Z"/><path d="M28.08,87.36v1.92c-.59.14-.48-.32-.68-.63-2.62-4.26-4.97-8.83-8.32-12.57-4.91-5.48-11.58-9.25-19.08-9.36v-.96c2.88.01,6.09.48,8.83,1.37,9.19,2.99,14.54,12.47,19.25,20.23Z"/><path d="M28.08,165.6v1.44c-9.57.72-18.97,2.58-28.08,5.52v-1.68c9.12-2.76,18.51-4.92,28.08-5.28Z"/><path d="M28.08,60.48v1.68c-2.91-1.72-5.54-3.88-8.48-5.56-6.03-3.44-12.69-5.78-19.6-6.68v-1.2c10.35,1.1,19.99,5.33,28.08,11.76Z"/><path d="M28.08,316.32v1.92c-2.24-1.37-4.26-3.03-6.5-4.42-6.56-4.06-13.85-7.01-21.58-7.82v-1.2c7.13.66,14.1,2.95,20.32,6.44,2.71,1.52,5.14,3.45,7.76,5.08Z"/><path d="M28.08,66.48v2.16l-6.4-5.24c-6.27-4.47-13.88-7.49-21.68-7.48v-1.2c7.38-.09,14.54,2.44,20.77,6.23l7.31,5.53Z"/><path d="M28.08,250.08v1.92c-2.56,2.12-4.68,5.58-5.45,8.83-1.48,6.29,1.05,12.36,5.45,16.85v2.4c-7.17-5.75-8.64-16.26-4.84-24.4.94-2.01,2.77-4.72,4.84-5.6Z"/><path d="M28.08,322.56v2.16c-7.69-7.4-17.18-12.56-28.08-12.96v-.96c10.61-.27,20.37,4.87,28.08,11.76Z"/><path d="M28.08,203.52v1.2c-7.86,1.14-15.1,4.94-21.23,9.85l-6.85,6.47v-1.44c7.63-7.68,17.02-14.7,28.08-16.08Z"/><path d="M28.08,191.76v1.68c-6.66-.3-13.29,1.15-19.36,3.8l-7.04,3.76c.23-.55.99-1.03,1.47-1.41,6.9-5.52,16.18-7.98,24.94-7.82Z"/><path d="M24.72,0c-4.66,7.02-2.43,16.05,3.36,21.6v2.4c-.64-.07-1.04-.65-1.43-1.09-5.27-5.78-6.52-12.85-4.5-20.32.24-.89.63-1.71.89-2.59h1.68Z"/><path d="M10.08,364.32h-1.44c-2.88-4.62-5.13-9.75-8.64-13.92v-2.4c4.56,4.6,7.24,10.59,10.08,16.32Z"/><path d="M4.08,364.32h-1.92c-.56-1.14-1.25-2.47-2.16-3.36v-3.12c1.67,1.85,2.88,4.29,4.08,6.48Z"/><path d="M28.08,263.28v6c-1.1-1.2-.8-3.76-.56-5.25.07-.43-.09-.89.56-.75Z"/><path d="M28.08,13.2c-1.05-1.28-1.15-4.77,0-6v6Z"/></svg>