<?xml version="1.0" encoding="UTF-8"?><svg id="a" xmlns="http://www.w3.org/2000/svg" width="9.91mm" height="128.52mm" viewBox="0 0 28.08 364.32"><path d="M14.88,0c3.69,4.09,8.31,7.34,13.2,9.84v10.8c-4.95-1.01-9.49-3.36-13.61-6.19l-3.43-2.57c.69,1.21,2.15,2.15,3.29,2.95,4.11,2.92,8.81,5.2,13.76,6.28v6C15.62,25.99,5.75,17.66,0,6.96V2.88L1.68.72c1.97,3.67,4.84,7.64,8.04,10.32.27.23.39.58.84.48l-4.75-5.44c-1.19-2.03-2.9-3.81-3.64-6.08h12.72Z"/><path d="M28.08,118.8c-.44-.24-.39-.67-.48-1.08-2.84-14.05-6.08-18.36-12.53-30.43-3.11-5.83-6.97-12.07-3.93-18.65.76-1.65,3.21-6.02,5.04-6.24,2.9-.34,7.15.42,10.17.68.42.04.62,0,1-.19.17.78-1.31.45-1.93.59-7.29,1.59-11.7,8.83-11.02,16.09.37,3.98,3.28,7.73,5.75,10.68-1.88-4.09-5.27-7.63-5.53-12.35-.4-7.48,6.87-12.41,13.45-13.57v4.8c-6.17,9.52-7.23,21.9,0,31.2v5.28c-.39-.16-.53-.52-.69-.87-1.85-3.92-2.99-8.19-5.49-11.79-.08-.11-.39-.75-.54-.42l6.72,15v11.28ZM20.16,85.2c-.23-1.7-.94-3.71-.97-5.41-.01-.68.21-1.24.26-1.9.02-.25.15-.91-.25-.85-.29,2.35-.34,5.09.45,7.35.11.31.07.73.51.81Z"/><path d="M28.08,265.92v17.04c-6.12-.22-12.18-2.99-17.02-6.62-.87-.65-1.61-1.47-2.42-2.14-.19-.16-.48-.63-.72-.24,5.03,5.64,12.77,8.65,20.16,9.72v3.84c-.4.25-.85.28-1.31.25-7.98-.59-15.41-3.12-21.71-8.07-1.84-1.45-3.32-3.13-5.06-4.66v-10.8c1.78,1.98,2.81,4.6,4.57,6.59.53.6,1.3,1.62,2.15,1.56-2.7-2.77-4.57-6.17-6.72-9.36v-4.32l1.56-1.92c5.66,9.66,15.17,17.75,26.28,20.15-.08-.45-.51-.39-.81-.51-8.14-3.04-14.36-5.93-20.06-12.82-.82-.99-5.06-7.02-4.99-7.87l3.19-4.72,3.71,4.8c-.71-2.02-3.31-3.72-2.82-6.06.11-.51,1.77-3.04,2.1-2.82,4.49,8.2,11.71,14.61,19.92,18.96ZM14.4,261.6l-3.6-3.6c-.1.45.25.57.48.84.57.68,1.6,1.71,2.28,2.28.27.23.39.58.84.48ZM19.2,265.44c-.76-.81-1.77-1.58-2.66-2.25-.41-.31-.9-.83-1.42-.86,1.11,1.19,2.58,2.45,4.08,3.12Z"/><path d="M0,128.16h1.08c2.15,5.24,4.14,9.58,8.4,13.43,3.75,3.39,9.09,6.55,12.47,10.09,1.46,1.53-.82,3.68-1.34,5.27l-.7-.23c.32,1.75-.66,2.54-1.8,3.6l-1.56-2.16c.04.89.62,1.65.7,2.55.19,2.26-1.57,3.55-3.1,4.89-1.03-6.71-4.91-12.43-9.72-17.05-1.29-1.24-2.93-2.62-4.45-3.59v-3.12c4.65,3.5,9.08,7.29,13.08,11.52l3.24,4.2c-2.23-5.49-6.91-9.26-11.41-12.83-1.58-1.25-3.2-2.54-4.91-3.61v-12.96Z"/><path d="M25.44,364.32c-2.5-9.91-9.5-17.95-13.48-27.2-2.83-6.57-2.84-10.29,1.38-16.22,1.15-1.62,1.9-2.65,4.06-2.66s4.78.55,6.96.72c.72.05,1.44-.02,2.16,0,.29.01.89-.18.84.24-6.17.33-11.43,5.27-12.48,11.28l2.3-4.3c2.86-3.06,6.84-5.07,10.9-6.02v5.04c-1.4,1.94-2.56,4.56-3.36,6.84-2.94,8.38-2.17,17.05,3.36,24.12v5.52c-.44-.15-.5-.54-.66-.9-1.51-3.27-3.07-8.64-5.23-11.33-.28-.34-.44-.38-.35.11.16.89,2.59,5.11,3.16,6.44,1.09,2.51,1.98,5.1,3.08,7.6v.72h-2.64ZM14.4,331.68v4.44c0,.16.65,2.23.77,2.59,1.05,2.84,3.53,5.65,5.18,8.26.07.11.34.77.52.44-2.01-4.28-5.45-7.95-6.18-12.78l-.31-2.93ZM20.64,342.72c-.5-2.25-1.44-4.76-1.46-7.08,0-.6.25-1.23.27-1.91,0-.27.15-.91-.25-.85-.32,2.48-.27,4.77.36,7.2l1.08,2.64Z"/><path d="M28.08,158.88v9.36c-5.11,7.8-12.32,13.3-20.18,18.1-2.49,1.52-5.14,3.3-7.9,4.22v-5.76c10.36-5.2,20.11-12.17,25.96-22.4.53-.93.94-1.94,1.44-2.89.18-.34.1-.76.68-.63Z"/><path d="M28.08,27.6v4.08c-10.78.18-20.68-4.95-28.08-12.48v-10.8c1.42,1.34,2.24,3.28,3.4,4.88,5.72,7.86,14.94,13.34,24.68,14.32Z"/><path d="M0,119.52v-6.48c7.88-8.4,9.63-20.17,7.08-31.2-1.24-5.36-3.79-10.17-6.4-14.96-.18-.34-.28-.72-.68-.87v-5.28c10.66,17.12,18.01,42.53.96,58.2-.3.27-.49.6-.96.6Z"/><path d="M28.08,151.92l-1.92,4.68,1.92-3.24v3.6c-5.61,12.34-16.08,21.05-28.08,26.88v-2.16c7.05-3.52,13.89-7.92,18.96-14.04l-7.37,6.31c-3.69,2.53-7.54,4.85-11.6,6.76v-3.12c10.23-4.55,19.49-11.55,24.28-21.92,1.58-3.41,2.45-6.76,3.27-10.41.09-.4,0-.88.53-1.03v7.68Z"/><path d="M28.08,32.88v4.32c-10.49,1.37-20.74-2.72-28.08-10.08v-6.48c6.43,6.31,14.98,11.21,24.12,12,1.3.11,2.74-.26,3.96.24Z"/><path d="M28.08,288.72v4.32c-10.4,1.72-20.7-2.66-28.08-9.84v-6.48c7.53,7.28,17.38,12.3,28.08,12Z"/><path d="M0,111.12v-8.4c4.23-8.02,3.74-17.57,0-25.68v-8.4c7.32,10.67,9.36,26.44,3.16,38.08-.79,1.48-1.93,3.3-3.16,4.4Z"/><path d="M2.16,364.32H0v-5.52c4.28-8.21,3.67-17.6,0-25.92v-8.16c7.8,11.3,9.47,27.66,2.16,39.6Z"/><path d="M0,212.88v-5.52c6.87.1,13.43,3.47,18.89,7.39,1.61,1.15,2.63,2.13,4.03,3.41.57.52,3.01,2.35,3.01,3-2.36,3.73-3.18,1.25-5.45-.32-5.94-4.1-13.28-7.13-20.48-7.96Z"/><path d="M8.64,364.32H3.6c4.81-8.07,5.53-17.13,3.53-26.21-1.32-5.99-4.15-11-7.13-16.27v-5.04c.41.15.5.54.69.87,3.42,6.3,6.49,12.24,8.37,19.23,2.41,8.96,3.12,18.64-.41,27.41Z"/><path d="M0,121.2c10.14-8.01,15.01-21.45,11.52-34.08.36-.37,1.07,1.15,1.17,1.35,6.98,13.7-.88,30.02-12.69,38.01v-5.28Z"/><path d="M28.08,170.4v6l-17.29,16.68c-1.29.6-6.44-2.21-8.15-2.28,3.11-2.24,6.59-4.01,9.77-6.18,5.71-3.9,10.47-8.13,14.79-13.53.25-.32.34-.72.87-.69Z"/><path d="M28.08,252.48v6.72c-.43-.01-.74-.26-1.08-.47-5.01-3.04-9.39-7.09-13.2-11.52-.64-.74-3.04-3.42-3-4.18.03-.48,1.35-2.35,1.73-2.86.2-.27.72-1.24,1.03-1.12,4.16,5.14,8.94,9.85,14.52,13.44Z"/><path d="M28.08,205.92v4.32c-3.72-1.99-6.71-5.15-10.34-7.3-5.27-3.13-11.69-4.86-17.74-5.66v-4.56c10.42,1.79,19.64,7.11,28.08,13.2Z"/><path d="M28.08,40.08v2.88c-9.2,2.27-19.67,2.77-28.08-2.16v-4.56c8.65,4.2,18.58,6.23,28.08,3.84Z"/><path d="M28.08,296.16v2.88c-9.24,2.02-19.59,2.66-28.08-2.16v-4.56c8.8,4.05,18.47,6.15,28.08,3.84Z"/><polygon points="28.08 177.84 28.08 184.56 17.53 196.46 11.52 193.8 28.08 177.84"/><path d="M28.08,56.88v3.6c-9.44,1.27-19.17.17-28.08-3.12v-4.08c4.64,1.43,9.19,3.23,14.07,3.81s9.37.28,14.01-.21Z"/><path d="M28.08,312.96v3.6c-9.53,1.21-19.05,0-28.08-3.12v-4.32c7.16,2.92,14.64,4.7,22.45,4.33,1.82-.09,3.81-.63,5.63-.49Z"/><path d="M0,145.68c5.63,4.39,11.17,9.99,12.6,17.28.35,1.79.84,3.27-.47,4.81l-3.49,2.39c-.36-2.09-.17-4.23-.51-6.33-.84-5.16-4.34-10.16-8.13-13.59v-4.56Z"/><path d="M28.08,217.92v.96l-1.32,1.2-5.43-5.61c-6.15-4.64-13.51-8.16-21.33-8.55v-3.84c3.78.32,7.46,1.11,10.96,2.6,4.64,1.98,8.33,5.26,11.96,8.68,1.66,1.56,2.92,3.74,5.15,4.57Z"/><path d="M28.08,186.24v17.04c-.95.64-3.7-1.18-3.25-2.15.06-.12,2.21-1.97.97-1.92-.23,0-1.45,1.91-2.58,1.63-.41-.1-4.94-3.6-4.94-3.92,1.37-1.86,2.85-3.68,4.39-5.41,1.26-1.41,3.09-3.41,4.44-4.68.29-.28.49-.6.96-.6Z"/><path d="M0,217.92c5.33.39,10.37,1.67,15.04,4.28.8.45,5.31,3.23,5.12,3.99-.75.44-2.98,2.68-3.67,2.49-4.5-4.2-10.29-6.65-16.49-6.69v-4.08Z"/><path d="M7.92,231.12c.62.59,1.21,1.48,1.92,2.04l-4.56,3.84c-.86.48-1.54-.4-2.4-.36l.84,1.44c-1.03,1.28-2.25,2.85-3.72,3.6v-12.96c2.88.04,5.43,1.1,7.92,2.4Z"/><path d="M7.92,231.12c-2.28-2.15-4.85-2.63-7.92-2.88v-5.28c5.13.2,9,1.71,13.22,4.42.26.16.69.13.92.28.58.4,1.03,1.09,1.58,1.54l-4.85,3.55c-1.1-.35-1.9-1.08-2.96-1.63Z"/><path d="M28.08,294.48v.72c-9.57,2.43-19.29-.28-28.08-4.08v-6.72c2.47,1.94,4.76,3.98,7.46,5.62,6.86,4.17,11.47,4.94,19.43,4.33.43-.03.78-.22,1.19.13Z"/><path d="M28.08,38.4v.72c-9.45,2.55-19.42-.15-28.08-4.08v-6.72c5.35,4.78,12.66,9.7,20.04,10.32,2.69.22,5.35-.38,8.04-.24Z"/><path d="M28.08,52.56v2.88c-9.43,1.85-19.19-.11-28.08-3.36v-2.16c7.2,2.34,14.6,3.47,22.21,3.13,1.9-.08,3.96-.66,5.87-.49Z"/><path d="M28.08,308.4v3.12c-9.46,1.39-19.3.13-28.08-3.6v-2.16c8.95,3.3,18.65,4.07,28.08,2.64Z"/><path d="M28.08,212.16v4.08c-3.57-2.34-6.36-5.76-9.73-8.39-5.39-4.21-11.42-6.68-18.35-6.97v-2.16c7.19.67,14.1,3.12,20,7.24,2.77,1.94,5.24,4.34,8.08,6.2Z"/><path d="M0,151.68c3.35,3.76,6.54,8.05,7.37,13.15.54,3.35.95,7.73-3.53,7.97v-4.92c0-.91-.91-3.97-1.26-4.98-.6-1.73-1.53-3.5-2.58-4.98v-6.24Z"/><path d="M28.08,264.24c-8.19-3.81-14.69-10.47-19.36-18.12.13-.56,1.23-1.87,1.81-1.53,4.4,6.74,10.72,12.11,17.55,16.29v3.36Z"/><path d="M28.08,223.2v.48c-1.66,3.04-4.25,4.86-7.03,6.77-3.71,2.55-7.75,4.63-11.32,7.4s-6.61,6.13-9.73,9.35v-3.12c4.46-3.84,8.94-7.66,13.71-11.13,2.87-2.09,5.98-3.82,8.84-5.8,1.56-1.08,3.05-2.66,4.64-3.77.3-.21.51-.5.89-.18Z"/><path d="M28.08,326.64v8.88c-1.93,5.24-2.4,11.06-1.44,16.56-.58.15-.81-.86-1-1.28-3.67-7.97-1.72-15.96,1.76-23.53.16-.36.13-.75.68-.63Z"/><path d="M28.08,79.68c-2.08,5.2-2.31,11.07-1.44,16.56-.69-.55-1.12-1.7-1.44-2.51-2.69-6.78-1.5-14.19,1.4-20.69.36-.81.8-1.9,1.48-2.48v9.12Z"/><path d="M0,216.96v-2.64c7.35.47,14.63,3.53,20.48,7.96.5.38,2.09,1.41,2.09,2l-.41.56c-.45.13-.85.03-1.29-.08-1.52-.39-4.53-3.02-6.39-3.93-4.5-2.22-9.51-3.4-14.49-3.87Z"/><path d="M13.92,364.32h-3.84c1.71-4.15,2.41-8.35,2.65-12.83l-.97-8.29c.65.52,1.06,1.56,1.4,2.31,2.7,5.92,2.75,12.67.75,18.81Z"/><path d="M28.08,300.48v2.16c-9.31,1.8-19.36,1.98-28.08-2.16v-1.68c8.76,4.5,18.74,3.78,28.08,1.68Z"/><path d="M28.08,44.4v2.16c-7.32,1.51-15.13,1.9-22.42-.02-1.94-.51-3.75-1.33-5.66-1.9v-1.92c8.58,4.62,18.9,3.88,28.08,1.68Z"/><path d="M28.08,231.6v4.08c-3.3,1.93-5.49,5.22-7.83,8.15l-3.45-3.46,11.28-8.77Z"/><path d="M0,248.4c3.62-3.67,7.26-7.02,11.52-9.96.19-.13.47-.65.72-.24L0,255.12v-6.72Z"/><path d="M28.08,227.04v3.6c-4.64,2.37-8.25,5.48-11.67,9.34-1.24-.62-2.19-2.1-1.49-3.43.83-1.58,7.49-4.48,9.41-5.95,1.52-1.17,2.15-2.88,3.76-3.56Z"/><path d="M17.76,364.32c-.91-2.63-1.7-5.66-.84-8.41l1.08-.11c-1.65-1.53-1.53-4.05-1.8-6.12,1.97,1.5,2.63,4.58,3.49,6.83l-.49.49c1.89,1.83,3.03,4.71,3.36,7.32h-1.44c-.81-1.73-1.9-3.93-3.48-5.04l3,5.04h-2.88Z"/><path d="M21.36,0c1.89,1.95,4.39,3.42,6.72,4.8v3.36c-.72-.05-1.45-.56-2.08-.92-3.38-1.91-6.8-4.42-9.44-7.24h4.8Z"/><path d="M28.08,236.4v6.72c-1.55.44-3.17,2.78-4.44,3.36-.13.06-.41.05-.36-.12l2.64-3.96-3.51,3.32-1.72-1.28c2.21-2.83,4.2-6.25,7.4-8.04Z"/><path d="M0,175.2v-14.88c2.47,3.43,5.89,13.32,0,14.88Z"/><path d="M0,46.32c2.02.58,3.9,1.55,5.95,2.09,5.91,1.56,11.83,1.15,17.81.31-1.03,1.08-3.26,1.23-4.71,1.41-6.42.77-12.97-.06-19.05-2.13v-1.68Z"/><path d="M0,302.16c7.37,3.62,15.79,4.13,23.76,2.4-.57,1.03-2.21,1.19-3.31,1.37-5.74.95-12.53.41-18.11-1.2-.81-.23-1.61-.48-2.35-.89v-1.68Z"/><path d="M0,99.84v-18.72c2.24,5.86,2.4,12.89,0,18.72Z"/><path d="M0,355.68v-18.48c2.18,5.7,2.49,12.85,0,18.48Z"/><path d="M28.08,338.4v14.88c-.45-.16-.48-.58-.6-.96-.93-2.93-.86-9.22-.24-12.25l.85-1.67Z"/><path d="M28.08,97.2c-.42-.16-.53-.52-.66-.9-.93-2.77-.8-10.21.05-13.02.12-.38.15-.8.6-.96v14.88Z"/><path d="M28.08,305.28v1.92c-.87.52-10.07,1.11-10.08.6l10.08-2.52Z"/><path d="M28.08,49.2v2.16c-3.33.45-6.71.69-10.08.36l10.08-2.52Z"/><path d="M23.28,0h4.8v3.12c-1.69-.56-3.51-1.9-4.8-3.12Z"/><path d="M28.08,246.24v3.84c-1.12-.27-1.92-1.22-2.88-1.8,0-.18,2.36-2.11,2.88-2.04Z"/><path d="M17.04,364.32h-1.68c0-.93.65-1.65,1.08-2.4l.6,2.4Z"/><path d="M25.92,133.92l-2.64-1.68c1.78,2.27,3.45,2.29,2.63,5.64-.05.21.1.54-.35.36-.8-.32-2.95-1.86-3.8-2.44-3.32-2.27-6.34-4.93-8.8-8.12,1.98,5.2,7.13,7.06,11.11,10.12,1.86,1.43,2.17,1.5,1.36,4.04l-2.16-1.2c1.33,1.65,3,2.31,1.73,4.73-.11.22.07.39-.41.3-6.27-5.69-15.02-9.35-18.31-17.69-.3-.75-1.08-2.86-1.04-3.54.04-.63.77-1.94,1.47-1.45.34.23,1.24,4.36,1.55,5.17,1.36,3.56,4.59,6.61,8.03,8.16-2.76-2.38-5.66-4.6-7.24-7.99-1.38-2.94-2.52-6.87.65-9.04l.84,2.4c.02-1.81-.36-4.71,1.68-5.52,1.05,4.34,2.87,8.43,5.87,11.77l2.77,2.15c-3-3.5-6.24-6.73-7.5-11.33-.74-2.7-.96-4.99,1.15-7.14l.59.48c-.04-2.13-.23-4.32,1.32-5.99.36-.02,1.5,6.28,2.76,6.72-1.25-4.22-3.36-8.41-2.4-12.96l.96-.12c-1.38-1.69-1.12-3.76-1.69-5.75-.01-.2.47-.17.6-.13.34.11,2.29,4.47,2.52,5.16s.91,1.74,0,1.92c1.65,1.6,2.7,4.16,3.24,6.36.26,1.04.74,2.67.24,3.6-1.49-2.29-2.51-5.1-4.37-7.13-.15-.16-.15-.71-.55-.19,3.83,5.78,7.47,12.2,7.68,19.32l-1.08-.96c-.18-.04-.15.23-.12.35.23.73,1.68,2.76,1.68,3.36v8.28ZM22.08,125.52c.06-.44-.3-.7-.53-1.03-1.09-1.62-2.37-3.17-3.55-4.73.84,2.09,2.34,4.29,4.08,5.76Z"/><path d="M23.04,151.68c-.36.1-.4-.1-.6-.24-1.36-.93-3.3-3.3-4.8-4.56-5.53-4.64-9.25-6.23-12.96-12.96-.61-1.11-2.82-5.23-2.96-6.19s2.17-2.17,2.73-2.93c.95,1.95,1.62,4.03,2.72,5.92,4.06,6.97,11.25,10.6,17.2,15.68.59,1.18-.96,4.06-1.33,5.28Z"/><path d="M13.92,62.4l-5.16,9.35c-2.51-2.84-1.98-6.73-.96-10.08l.42-.19,5.7.92Z"/><path d="M5.76,66.72c-.6-1.58-1.63-3.11-2.09-4.75-.14-.5-.6-1.5.08-1.71.92-.28,2.98.75,3.17,1.84.09.49-.54,3.3-.7,4-.07.28-.1.58-.46.62Z"/><path d="M13.92,318.24c.06.28-.03.46-.13.71-.73,1.83-3.1,5.77-4.24,7.52-.19.29-.75,1.4-1.15,1.13-1.19-2.05-1.65-3.93-1.42-6.33.05-.46.65-3.31.81-3.51.2-.26.42-.25.71-.25,1.59,0,3.7.94,5.41.73Z"/><path d="M6.24,322.56c-.43.09-.47-.13-.68-.4-.37-.48-1.11-2.1-1.35-2.73-.77-1.96-1.65-4.16,1.48-2.68,2.55,1.2.3,3.66.56,5.8Z"/></svg>