<?xml version="1.0" encoding="UTF-8"?><svg id="a" xmlns="http://www.w3.org/2000/svg" width="20mm" height="128.5mm" viewBox="0 0 56.69 364.25"><path d="M6.27,363.21l.38-31.75,6.88.12v31.62c-.03.18-.03.58-.02,1.05h43.19v-35.34l-5.68-.08.12-6.88,5.55-.05v-11.1l-11.93-.23.38-7.12h11.55v-38.6l-24.55.35-.12-18.12,6.88-.12.5,11,17.3-.23v-11.06l-5.68-.08.12-7.12h5.55v-38.54l-5.68-.08.12-6.88,5.55-.05v-11.09l-11.93-.23.38-7.12h11.55v-38.6l-24.55.35-.12-18.12,6.88-.12.5,11,17.3-.23v-11.06l-5.68-.08.12-7.12h5.55v-38.54l-5.68-.08.12-6.88,5.55-.05v-11.1l-11.93-.23.38-7.12h11.55V8.85l-24.55.35-.06-9.21H0v364.25h6.28c.02-.45.03-.84-.02-1.05ZM38.89,28.21l.12,7.12-6.88.12-.12-7.12,6.88-.12ZM38.89,65.71l.38,25.88-7.12.38-.12-25.88,6.88-.38ZM38.89,156.21l.38,7.12-7.12.12-.12-7.12,6.88-.12ZM38.89,193.71l.12,26.12-6.88.12-.12-25.88,6.88-.38ZM26.14,310.96l-19.88-.38.12-7.12h19.75v7.5ZM13.39,257.71l.12,33.62-7.12.12-.12-33.38,7.12-.38ZM6.27,203.83l7.12-.38.12,35.88-6.88.12-.38-35.62ZM26.14,182.96l-19.88-.38.12-7.12h19.75v7.5ZM6.27,130.08l7.12-.38.12,33.62-7.12.12-.12-33.38ZM38.89,284.21l.12,7.12-6.88.12-.12-7.12,6.88-.12ZM38.89,321.71l.38,25.88-7.12.38-.12-25.88,6.88-.38ZM13.39,1.71l.12,33.62-7.12.12-.12-33.38,7.12-.38ZM6.39,47.46h19.75v7.5l-19.88-.38.12-7.12ZM6.27,107.21l.38-31.75,6.88.12v31.62c-.11.67.2,4.02-.12,4.25-.28.2-6.44.14-6.75,0-.74-.33-.22-3.48-.38-4.25Z" fill="none"/><polygon points="56.69 1.72 56.69 0 39.3 0 39.39 1.96 56.69 1.72" fill="none"/><polygon points="13.52 75.58 6.64 75.46 6.27 107.21 13.52 107.21 13.52 75.58" fill="#ec008c"/><polygon points="56.69 8.85 56.69 1.72 39.39 1.96 39.3 0 32.08 0 32.14 9.21 56.69 8.85" fill="#ec008c"/><polygon points="13.52 35.33 13.39 1.71 6.27 2.08 6.39 35.46 13.52 35.33" fill="#ec008c"/><polygon points="51.02 72.83 56.69 72.91 56.69 65.9 51.14 65.96 51.02 72.83" fill="#ec008c"/><polygon points="39.27 91.58 38.89 65.71 32.02 66.08 32.14 91.96 39.27 91.58" fill="#ec008c"/><polygon points="26.14 47.46 6.39 47.46 6.27 54.58 26.14 54.96 26.14 47.46" fill="#ec008c"/><polygon points="44.77 54.58 56.69 54.81 56.69 47.46 45.14 47.46 44.77 54.58" fill="#ec008c"/><rect x="32.08" y="28.27" width="6.88" height="7.13" transform="translate(-.55 .63) rotate(-1.01)" fill="#ec008c"/><polygon points="13.52 331.58 6.64 331.46 6.27 363.21 13.52 363.21 13.52 331.58" fill="#ec008c"/><path d="M6.64,111.46c.31.14,6.47.2,6.75,0,.32-.23.02-3.58.12-4.25h-7.25c.16.77-.37,3.92.38,4.25Z" fill="#ec008c"/><polygon points="38.89 246.96 32.02 247.08 32.14 265.21 56.69 264.85 56.69 257.72 39.39 257.96 38.89 246.96" fill="#ec008c"/><polygon points="38.89 118.96 32.02 119.08 32.14 137.21 56.69 136.85 56.69 129.72 39.39 129.96 38.89 118.96" fill="#ec008c"/><polygon points="13.39 203.46 6.27 203.83 6.64 239.46 13.52 239.33 13.39 203.46" fill="#ec008c"/><polygon points="6.39 291.46 13.52 291.33 13.39 257.71 6.27 258.08 6.39 291.46" fill="#ec008c"/><polygon points="13.52 163.33 13.39 129.71 6.27 130.08 6.39 163.46 13.52 163.33" fill="#ec008c"/><polygon points="51.02 328.83 56.69 328.91 56.69 321.9 51.14 321.96 51.02 328.83" fill="#ec008c"/><polygon points="51.02 200.83 56.69 200.91 56.69 193.9 51.14 193.96 51.02 200.83" fill="#ec008c"/><polygon points="51.02 246.58 56.69 246.66 56.69 239.46 51.14 239.46 51.02 246.58" fill="#ec008c"/><polygon points="51.02 118.58 56.69 118.66 56.69 111.46 51.14 111.46 51.02 118.58" fill="#ec008c"/><polygon points="39.27 347.58 38.89 321.71 32.02 322.08 32.14 347.96 39.27 347.58" fill="#ec008c"/><polygon points="39.02 219.83 38.89 193.71 32.02 194.08 32.14 219.96 39.02 219.83" fill="#ec008c"/><polygon points="6.27 182.58 26.14 182.96 26.14 175.46 6.39 175.46 6.27 182.58" fill="#ec008c"/><polygon points="6.27 310.58 26.14 310.96 26.14 303.46 6.39 303.46 6.27 310.58" fill="#ec008c"/><polygon points="44.77 310.58 56.69 310.81 56.69 303.46 45.14 303.46 44.77 310.58" fill="#ec008c"/><polygon points="44.77 182.58 56.69 182.81 56.69 175.46 45.14 175.46 44.77 182.58" fill="#ec008c"/><polygon points="39.27 163.33 38.89 156.21 32.02 156.33 32.14 163.46 39.27 163.33" fill="#ec008c"/><rect x="32.08" y="284.27" width="6.88" height="7.13" transform="translate(-5.04 .67) rotate(-1.01)" fill="#ec008c"/><path d="M13.52,363.21h-7.25c.04.21.03.59.02,1.05h7.22c-.01-.47-.01-.86.02-1.05Z" fill="#ec008c"/><rect x="0" width="2.79" height="3.23" fill="#ec008c"/></svg>