<?xml version="1.0" encoding="UTF-8"?><svg id="a" xmlns="http://www.w3.org/2000/svg" width="20mm" height="128.5mm" viewBox="0 0 56.69 364.25"><path d="M13.52,361.29v1.92c-.03.18-.03.58-.02,1.05h3.04l.04-2.63-3.06-.34Z" fill="none"/><polygon points="56.69 1.72 56.69 0 39.3 0 39.39 1.96 56.69 1.72" fill="none"/><path d="M6.27,363.21l.38-31.75,3.48.06-.04-1.89,12.38-.38.12,19.12-5.88.12-.38-12.88-2.81-.06v19.23l22.06.33-.38,6.12-12.62.38v2.63h34.11v-3.03l-14.61-.1.12-6.38h14.49v-13.08l-2.11-.04.38-6.12h1.74v-6.58l-1.43-.03-4.25-.06.12-6.88,5.55-.05v-11.1l-11.93-.23.05-.88-2.86.06-.12-31.62,6.12-.38.3,25.7h8.43v-6.55l-2.11-.03.38-6.12h1.74v-13.11l-1.61-.02.38-6.12h1.24v-6.48l-6.94-.07-17.61.25-.12-18.12,3.63-.07.06-1.01h6.25v6.25l-2.83-.05.26,5.76,17.3-.23v-5.26l-1.24.04-.17-5.86-4.27-.06.12-7.12h5.55v-6.23l-14.61-.1.12-6.38h14.49v-13.08l-2.11-.04.38-6.12h1.74v-6.58l-1.43-.03-4.25-.06.12-6.88,5.55-.05v-11.09l-11.93-.23.05-.88-2.86.06-.12-31.62,6.12-.38.3,25.7h8.43v-6.55l-2.11-.03.38-6.12h1.74v-13.11l-1.61-.02.12-6.12h1.49v-6.48l-6.94-.07-17.61.25-.12-18.12,3.29-.06c.01-.47.09-.88.4-1.02.29-.13,6-.18,6.25,0,.3.21.04,2.01.12,2.5-.1.62.19,3.52-.12,3.75-.12.09-1.41.13-2.82.13l.25,5.57,17.3-.23v-5.15c-.67-.01-1.15-.03-1.24-.07-.74-.33-.22-3.25-.38-4h.25l.03-1.86-4.34-.06.12-7.12h5.55v-6.23l-14.61-.1.12-6.38h14.49v-13.08l-2.11-.04.38-6.12h1.74v-6.58l-1.43-.03-4.25-.06.12-6.88,5.55-.05v-11.1l-11.93-.23.05-.88-2.86.06-.12-31.62,6.12-.38.3,25.7h8.43v-6.55l-2.11-.03.38-6.12h1.74v-13.11l-1.61-.02.38-6.12h1.24v-6.48l-6.94-.07-17.61.25-.06-9.21H0v34.74l3.33.14v6.25l-3.33.02v6.46l3.46-.1.12,12.38-3.58.22v38.66h3.21v6.5l-3.21-.1v57.68l3.58.29-.25,5.75-3.33.07v6.66l3.46-.1.12,12.38-3.58.22v38.66h3.21v6.5l-3.21-.1v57.58l3.33.14v6.25l-3.33.02v6.46l3.46-.1.12,12.38-3.58.22v38.66h3.21v6.5l-3.21-.1v3.1h6.28c.02-.45.03-.84-.02-1.05ZM26.14,310.96l-3.68-.07.12,11.99-5.88.12-.36-12.23-10.08-.19.12-7.12h19.75v7.5ZM6.27,258.08l7.12-.38.12,33.2,2.44-.15.38,6.12-6.12.38-.36-5.86-3.46.06-.12-33.38ZM16.33,265.63l6.12-.38.12,19.12-5.88.12-.38-18.88ZM32.14,347.96l-.12-25.88,6.88-.38.38,25.88-7.12.38ZM38.89,284.21l.12,7.12-3.77.07.34,5.48-6.12.38-.12-6.12,2.8-.18-.12-6.62,6.88-.12ZM35.21,233.25l-12.62.12v18.75l-6.12.12.12-18.62-3.09-.18.02,5.89-6.88.12-.38-35.62,3.86-.2-.04-2,12.12-.38.38,19.12-5.88.12-.38-12.88-2.93-.06.07,19.51,21.73-.32v6.5ZM6.39,175.46h19.75v7.5l-3.68-.07.12,11.99-5.88.12-.36-12.23-10.08-.19.12-7.12ZM6.27,130.08l7.12-.38.12,33.2,2.44-.15.38,6.12-6.12.38-.36-5.86-3.46.06-.12-33.38ZM16.33,137.63l6.12-.38.12,19.12-5.88.12-.38-18.88ZM32.14,219.96l-.12-25.88,6.88-.38.12,26.12-6.88.12ZM38.89,156.21l.38,7.12-4.02.07.34,5.48-6.12.38-.12-6.12,2.8-.18-.12-6.62,6.88-.12ZM32.14,91.96l-.12-25.88,6.88-.38.38,25.88-7.12.38ZM32.02,28.33l6.88-.12.12,7.12-3.77.07.34,5.48-6.12.38-.12-6.12,2.8-.18-.12-6.62ZM22.46,9.25l.12,19.12-5.88.12-.38-18.88,6.12-.38ZM13.39,1.71l.12,33.2,2.44-.15.38,6.12-6.12.38-.36-5.86-3.46.06-.12-33.38,7.12-.38ZM6.39,47.46h19.75v7.5l-3.68-.07.12,11.99-5.88.12-.36-12.23-10.08-.19.12-7.12ZM6.27,107.21l.38-31.75,3.48.06-.04-1.89,12.38-.38.12,19.12-5.88.12-.38-12.88-2.81-.06v19.23l22.06.33-.38,6.12-12.62.38v14.88c-.1.62.19,3.52-.12,3.75-.24.17-5.76.17-6,0-.32-.23-.02-3.13-.12-3.75l.25-14.88-3.06-.34v1.92c-.11.67.2,4.02-.12,4.25-.28.2-6.44.14-6.75,0-.74-.33-.22-3.48-.38-4.25Z" fill="none"/><polygon points="13.52 105.29 9.83 104.88 10.21 98.75 13.52 98.8 13.52 79.57 10.21 79.5 10.12 75.52 6.64 75.46 6.27 107.21 13.52 107.21 13.52 105.29" fill="#00aeef"/><polygon points="49.75 8.95 42.08 8.88 42.46 2.75 56.69 2.75 56.69 1.72 39.39 1.96 39.3 0 32.08 0 32.14 9.21 49.75 8.95" fill="#00aeef"/><polygon points="9.85 35.39 9.83 35.13 13.51 34.9 13.39 1.71 6.27 2.08 6.39 35.46 9.85 35.39" fill="#00aeef"/><polygon points="51.02 72.83 55.26 72.89 54.58 72.88 54.96 66.75 56.69 66.75 56.69 65.9 51.14 65.96 51.02 72.83" fill="#00aeef"/><polygon points="32.02 66.08 32.14 91.96 39.27 91.58 38.89 65.71 32.02 66.08" fill="#00aeef"/><polygon points="16.33 54.13 22.46 54 22.47 54.89 26.14 54.96 26.14 47.46 6.39 47.46 6.27 54.58 16.35 54.77 16.33 54.13" fill="#00aeef"/><polygon points="48.33 53.63 44.81 53.7 44.77 54.58 56.69 54.81 56.69 47.46 48.26 47.46 48.33 53.63" fill="#00aeef"/><polygon points="35.25 35.4 39.02 35.33 38.89 28.21 32.02 28.33 32.13 34.95 35.21 34.75 35.25 35.4" fill="#00aeef"/><polygon points="13.52 361.29 9.83 360.88 10.21 354.75 13.52 354.8 13.52 335.57 10.21 335.5 10.12 331.52 6.64 331.46 6.27 363.21 13.52 363.21 13.52 361.29" fill="#00aeef"/><path d="M6.64,111.46c.31.14,6.47.2,6.75,0,.32-.23.02-3.58.12-4.25h-7.25c.16.77-.37,3.92.38,4.25Z" fill="#00aeef"/><polygon points="39.13 252.2 35.33 252.13 35.64 247.01 32.02 247.08 32.14 265.21 49.75 264.95 42.08 264.88 42.46 258.75 56.69 258.75 56.69 257.72 39.39 257.96 39.13 252.2" fill="#00aeef"/><path d="M39.14,124.38c-1.77,0-3.74-.08-3.81-.25-.25-.65.18-2.77,0-3.62.05-.32-.03-.93-.02-1.48l-3.29.06.12,18.12,17.61-.25-7.67-.08.38-6.12h14.24v-1.03l-17.3.23-.25-5.57Z" fill="#00aeef"/><polygon points="9.83 227.13 13.47 227.07 13.41 207.57 10.21 207.5 10.12 203.63 6.27 203.83 6.64 239.46 13.52 239.33 13.5 233.45 10.21 233.25 9.83 227.13" fill="#00aeef"/><polygon points="9.85 291.39 9.83 291.13 13.51 290.9 13.39 257.71 6.27 258.08 6.39 291.46 9.85 291.39" fill="#00aeef"/><polygon points="9.85 163.39 9.83 163.13 13.51 162.9 13.39 129.71 6.27 130.08 6.39 163.46 9.85 163.39" fill="#00aeef"/><polygon points="51.02 328.83 55.26 328.89 54.58 328.88 54.96 322.75 56.69 322.75 56.69 321.9 51.14 321.96 51.02 328.83" fill="#00aeef"/><polygon points="51.02 200.83 55.26 200.89 54.58 200.88 54.96 194.75 56.69 194.75 56.69 193.9 51.14 193.96 51.02 200.83" fill="#00aeef"/><polygon points="51.02 246.58 55.28 246.64 55.08 239.88 56.69 239.78 56.69 239.46 51.14 239.46 51.02 246.58" fill="#00aeef"/><polygon points="51.02 118.58 55.36 118.64 55.46 111.5 56.69 111.5 56.69 111.46 51.14 111.46 51.02 118.58" fill="#00aeef"/><polygon points="32.02 322.08 32.14 347.96 39.27 347.58 38.89 321.71 32.02 322.08" fill="#00aeef"/><polygon points="32.02 194.08 32.14 219.96 39.02 219.83 38.89 193.71 32.02 194.08" fill="#00aeef"/><polygon points="16.35 182.77 16.33 182.13 22.46 182 22.47 182.89 26.14 182.96 26.14 175.46 6.39 175.46 6.27 182.58 16.35 182.77" fill="#00aeef"/><polygon points="6.27 310.58 16.35 310.77 16.33 310.13 22.46 310 22.47 310.89 26.14 310.96 26.14 303.46 6.39 303.46 6.27 310.58" fill="#00aeef"/><polygon points="48.33 309.63 44.81 309.7 44.77 310.58 56.69 310.81 56.69 303.46 48.26 303.46 48.33 309.63" fill="#00aeef"/><polygon points="48.33 181.63 44.81 181.7 44.77 182.58 56.69 182.81 56.69 175.46 48.26 175.46 48.33 181.63" fill="#00aeef"/><polygon points="32.13 162.95 35.21 162.75 35.25 163.4 39.27 163.33 38.89 156.21 32.02 156.33 32.13 162.95" fill="#00aeef"/><polygon points="32.13 290.95 35.21 290.75 35.25 291.4 39.02 291.33 38.89 284.21 32.02 284.33 32.13 290.95" fill="#00aeef"/><path d="M13.52,363.21h-7.25c.04.21.03.59.02,1.05h7.22c-.01-.47-.01-.86.02-1.05Z" fill="#00aeef"/><polygon points="9.83 104.88 13.52 105.29 16.58 105.63 16.33 120.5 22.58 120.5 22.58 105.63 35.21 105.25 35.58 99.13 13.52 98.8 10.21 98.75 9.83 104.88" fill="#00aeef"/><polygon points="55.36 118.64 55.33 120.5 56.69 120.5 56.69 111.5 55.46 111.5 55.36 118.64" fill="#00aeef"/><path d="M35.33,120.5h6.75c-.09-.49.18-2.29-.12-2.5-.25-.18-5.96-.13-6.25,0-.31.14-.38.55-.4,1.02-.01.55.07,1.16.02,1.48Z" fill="#00aeef"/><polygon points="48.26 47.46 47.96 21.75 41.83 22.13 41.96 53.75 44.81 53.7 48.33 53.63 48.26 47.46" fill="#00aeef"/><polygon points="54.58 40.88 56.69 40.91 56.69 34.75 54.96 34.75 54.58 40.88" fill="#00aeef"/><polygon points="3.33 34.88 0 34.74 0 41.15 3.33 41.13 3.33 34.88" fill="#00aeef"/><polygon points="13.52 79.57 16.33 79.63 16.71 92.5 22.58 92.38 22.46 73.25 10.08 73.63 10.12 75.52 10.21 79.5 13.52 79.57" fill="#00aeef"/><polygon points="42.08 105.13 56.69 105.22 56.69 98.75 42.21 98.75 42.08 105.13" fill="#00aeef"/><polygon points="42.08 8.88 49.75 8.95 56.69 9.02 56.69 2.75 42.46 2.75 42.08 8.88" fill="#00aeef"/><polygon points="22.58 28.38 22.46 9.25 16.33 9.63 16.71 28.5 22.58 28.38" fill="#00aeef"/><polygon points="54.58 85.63 56.69 85.67 56.69 79.5 54.96 79.5 54.58 85.63" fill="#00aeef"/><polygon points="54.58 72.88 55.26 72.89 56.69 72.92 56.69 66.75 54.96 66.75 54.58 72.88" fill="#00aeef"/><polygon points="3.46 47.5 0 47.61 0 60.1 3.58 59.88 3.46 47.5" fill="#00aeef"/><polygon points="3.21 98.75 0 98.75 0 105.16 3.21 105.25 3.21 98.75" fill="#00aeef"/><polygon points="16.33 54.13 16.35 54.77 16.71 67 22.58 66.88 22.47 54.89 22.46 54 16.33 54.13" fill="#00aeef"/><polygon points="55.08 21.63 56.69 21.64 56.69 15.5 55.46 15.5 55.08 21.63" fill="#00aeef"/><polygon points="9.85 35.39 10.21 41.25 16.33 40.88 15.96 34.75 13.51 34.9 9.83 35.13 9.85 35.39" fill="#00aeef"/><polygon points="29.46 41.25 35.58 40.88 35.25 35.4 35.21 34.75 32.13 34.95 29.33 35.13 29.46 41.25" fill="#00aeef"/><polygon points="42.08 136.88 49.75 136.95 56.69 137.02 56.69 130.75 42.46 130.75 42.08 136.88" fill="#00aeef"/><polygon points="35.21 361.25 35.58 355.13 13.52 354.8 10.21 354.75 9.83 360.88 13.52 361.29 16.58 361.63 16.54 364.25 22.58 364.25 22.58 361.63 35.21 361.25" fill="#00aeef"/><path d="M55.08,120.5c.15.75-.36,3.67.38,4,.09.04.57.06,1.24.07v-4.07h-1.61Z" fill="#00aeef"/><path d="M35.33,120.5c.18.85-.25,2.98,0,3.62.07.17,2.03.25,3.81.25,1.41,0,2.7-.04,2.82-.13.32-.23.02-3.13.12-3.75h-6.75Z" fill="#00aeef"/><path d="M16.46,124.25c.24.17,5.76.17,6,0,.32-.23.02-3.13.12-3.75h-6.25c.1.62-.19,3.52.12,3.75Z" fill="#00aeef"/><polygon points="9.83 227.13 10.21 233.25 13.5 233.45 16.58 233.63 16.46 252.25 22.58 252.13 22.58 233.38 35.21 233.25 35.21 226.75 13.47 227.07 9.83 227.13" fill="#00aeef"/><polygon points="48.26 175.46 47.96 149.75 41.83 150.13 41.96 181.75 44.81 181.7 48.33 181.63 48.26 175.46" fill="#00aeef"/><polygon points="48.26 303.46 47.96 277.75 41.83 278.13 41.96 309.75 44.81 309.7 48.33 309.63 48.26 303.46" fill="#00aeef"/><polygon points="54.58 296.88 56.69 296.91 56.69 290.75 54.96 290.75 54.58 296.88" fill="#00aeef"/><polygon points="54.58 168.88 56.69 168.91 56.69 162.75 54.96 162.75 54.58 168.88" fill="#00aeef"/><polygon points="3.58 163.13 0 162.84 0 168.94 3.33 168.88 3.58 163.13" fill="#00aeef"/><polygon points="3.33 290.88 0 290.74 0 297.15 3.33 297.13 3.33 290.88" fill="#00aeef"/><polygon points="13.52 335.57 16.33 335.63 16.71 348.5 22.58 348.38 22.46 329.25 10.08 329.63 10.12 331.52 10.21 335.5 13.52 335.57" fill="#00aeef"/><polygon points="13.41 207.57 16.33 207.63 16.71 220.5 22.58 220.38 22.21 201.25 10.08 201.63 10.12 203.63 10.21 207.5 13.41 207.57" fill="#00aeef"/><polygon points="42.08 361.13 56.69 361.22 56.69 354.75 42.21 354.75 42.08 361.13" fill="#00aeef"/><polygon points="42.08 233.13 56.69 233.22 56.69 226.75 42.21 226.75 42.08 233.13" fill="#00aeef"/><polygon points="42.08 264.88 49.75 264.95 56.69 265.02 56.69 258.75 42.46 258.75 42.08 264.88" fill="#00aeef"/><polygon points="55.28 246.64 55.46 252.5 56.69 252.46 56.69 239.78 55.08 239.88 55.28 246.64" fill="#00aeef"/><polygon points="22.46 137.25 16.33 137.63 16.71 156.5 22.58 156.38 22.46 137.25" fill="#00aeef"/><polygon points="22.46 265.25 16.33 265.63 16.71 284.5 22.58 284.38 22.46 265.25" fill="#00aeef"/><polygon points="54.58 341.63 56.69 341.67 56.69 335.5 54.96 335.5 54.58 341.63" fill="#00aeef"/><polygon points="54.58 328.88 55.26 328.89 56.69 328.92 56.69 322.75 54.96 322.75 54.58 328.88" fill="#00aeef"/><polygon points="54.58 200.88 55.26 200.89 56.69 200.92 56.69 194.75 54.96 194.75 54.58 200.88" fill="#00aeef"/><polygon points="54.58 213.63 56.69 213.67 56.69 207.5 54.96 207.5 54.58 213.63" fill="#00aeef"/><polygon points="3.46 175.5 0 175.61 0 188.1 3.58 187.88 3.46 175.5" fill="#00aeef"/><polygon points="3.46 303.5 0 303.61 0 316.1 3.58 315.88 3.46 303.5" fill="#00aeef"/><polygon points="3.21 226.75 0 226.75 0 233.16 3.21 233.25 3.21 226.75" fill="#00aeef"/><polygon points="3.21 354.75 0 354.75 0 361.16 3.21 361.25 3.21 354.75" fill="#00aeef"/><polygon points="16.33 310.13 16.35 310.77 16.71 323 22.58 322.88 22.47 310.89 22.46 310 16.33 310.13" fill="#00aeef"/><polygon points="16.33 182.13 16.35 182.77 16.71 195 22.58 194.88 22.47 182.89 22.46 182 16.33 182.13" fill="#00aeef"/><polygon points="55.08 149.63 56.69 149.64 56.69 143.5 55.21 143.5 55.08 149.63" fill="#00aeef"/><polygon points="55.08 277.63 56.69 277.64 56.69 271.5 55.46 271.5 55.08 277.63" fill="#00aeef"/><polygon points="39.13 252.2 41.96 252.25 41.96 246 35.71 246 35.64 247.01 35.33 252.13 39.13 252.2" fill="#00aeef"/><polygon points="9.85 163.39 10.21 169.25 16.33 168.88 15.96 162.75 13.51 162.9 9.83 163.13 9.85 163.39" fill="#00aeef"/><polygon points="9.85 291.39 10.21 297.25 16.33 296.88 15.96 290.75 13.51 290.9 9.83 291.13 9.85 291.39" fill="#00aeef"/><polygon points="32.13 290.95 29.33 291.13 29.46 297.25 35.58 296.88 35.25 291.4 35.21 290.75 32.13 290.95" fill="#00aeef"/><polygon points="32.13 162.95 29.33 163.13 29.46 169.25 35.58 168.88 35.25 163.4 35.21 162.75 32.13 162.95" fill="#00aeef"/></svg>