<?xml version="1.0" encoding="UTF-8"?><svg id="a" xmlns="http://www.w3.org/2000/svg" width="20mm" height="128.5mm" viewBox="0 0 56.69 364.25"><path d="M41.45,311.49l-3.13,3.37c-2.39-2.96-22.58-21.04-22.87-22.62-.19-1.05,2.62-2.56,3.12-3.38l22.88,22.63Z" fill="none"/><path d="M11.07,286.11c-3.47.76-4.08-4.3-1.25-4.75,3.35-.53,3.75,4.21,1.25,4.75Z" fill="none"/><path d="M15.07,306.11c-3.34.71-4.1-4.16-1.25-4.75,3.29-.68,3.78,4.21,1.25,4.75Z" fill="none"/><path d="M35.45,321.49c.16.86-2.62,2.87-3.13,3.62l-9.37-9.5h-.25l-3.25-3.62,3.62-3.13,6.38,6.75h.25c.51,1.05,5.65,5.36,5.75,5.88Z" fill="none"/><path d="M5.45,275.49c.1.56-2.66,3.33-2.88,3.37-.22.04-1.23-.77-2.57-1.96v-6.91c2.71,2.57,5.38,5.1,5.45,5.5Z" fill="none"/><path d="M11.45,297.49c.1.56-2.66,3.33-2.88,3.37-.61.11-4.56-3.87-8.57-8.01v-6.72c4.96,4.73,11.31,10.59,11.45,11.36Z" fill="none"/><path d="M19.07,326.11c-3.43.73-4.11-4.29-1.25-4.75,3.36-.54,3.74,4.22,1.25,4.75Z" fill="none"/><path d="M51.07,166.11c-3.43.73-4.11-4.29-1.25-4.75,3.27-.52,3.78,4.21,1.25,4.75Z" fill="none"/><path d="M35.07,134.11c-3.43.73-4.11-4.29-1.25-4.75,3.27-.52,3.78,4.21,1.25,4.75Z" fill="none"/><path d="M56.69,13.43v-3.5c-.89.88-.86,2.54,0,3.5Z" fill="none"/><path d="M43.45,105.49c.12.78-2.38,2.71-2.88,3.37l-17.37-16.87,10.87-11.63,11.63,11.38-3.38,3.37c-1.04-.84-7.38-7.75-8-7.75-.3.02-4.37,3.96-4.37,4.38,1.11,2.16,13.36,12.79,13.5,13.75Z" fill="none"/><path d="M35.07,6.11c2.52-.54,2.02-5.27-1.25-4.75-2.86.46-2.19,5.48,1.25,4.75Z" fill="none"/><path d="M50.07,17.36c-3.22.29-2.45,5.48,1,4.75,2.42-.51,2.1-5.03-1-4.75Z" fill="none"/><path d="M27.07,110.11c-3.43.73-4.11-4.29-1.25-4.75,3.36-.54,3.74,4.22,1.25,4.75Z" fill="none"/><path d="M35.45,65.49c.16.86-2.62,2.87-3.13,3.62l-9.37-9.5h-.25l-3.25-3.62,3.62-3.13,6.38,6.75h.25c.51,1.05,5.65,5.36,5.75,5.88Z" fill="none"/><path d="M23.2,11.99c.14.77,10.02,9.54,11.12,11.12l3.38-3.38-11.38-11.38c-.51.75-3.28,2.76-3.12,3.62Z" fill="none"/><path d="M49.82,33.36c-2.86.46-2.19,5.48,1.25,4.75,2.52-.54,2.02-5.27-1.25-4.75Z" fill="none"/><path d="M41.45,183.49c-3.18-2.02-21.29-22.92-22.88-22.62-.23.04-3.23,2.83-3.12,3.38l22.88,22.62,3.12-3.38Z" fill="none"/><path d="M38.57,196.61l-3.38,3.38c1.91,1.5,14.32,15.07,15.38,14.88.22-.04,2.98-2.81,2.88-3.38-.19-1.03-13.39-12.78-14.88-14.88Z" fill="none"/><path d="M47.07,194.11c2.42-.51,2.1-5.03-1-4.75-3.22.29-2.45,5.48,1,4.75Z" fill="none"/><path d="M11.07,158.11c2.54-.55,2.01-5.27-1.25-4.75-2.83.45-2.22,5.51,1.25,4.75Z" fill="none"/><path d="M51.07,150.11c-3.45.73-4.22-4.46-1-4.75,3.11-.28,3.42,4.24,1,4.75Z" fill="none"/><path d="M56.69,45.32v-3.31c-.8.87-1,2.38,0,3.31Z" fill="none"/><path d="M47.07,114.11c-3.47.74-4.02-4.21-1.25-4.75,3.16-.61,3.85,4.2,1.25,4.75Z" fill="none"/><polygon points="56.69 182.73 56.69 189.48 0 132.79 0 126.04 56.69 182.73" fill="none"/><path d="M15.07,178.11c2.47-.53,2.02-5.1-1-4.75-3.13.36-2.5,5.49,1,4.75Z" fill="none"/><path d="M56.69,70.38v6.82c-2.41-2.5-4.36-4.42-5.24-4.96-.1-.55,2.9-3.34,3.12-3.38.28-.05,1.04.53,2.12,1.52Z" fill="none"/><path d="M56.69,106.25v3.11c-.67-.66-1.19-1.14-1.49-1.37l1.49-1.74Z" fill="none"/><path d="M56.69,90.12v6.62l-6.37,6.37c-.5-.75-3.28-2.76-3.12-3.62.11-.62,6.37-6.28,9.49-9.37Z" fill="none"/><path d="M56.69,137.93v3.5c-.85-.96-.89-2.62,0-3.5Z" fill="none"/><path d="M19.07,70.11c-3.43.73-4.11-4.29-1.25-4.75,3.36-.54,3.74,4.22,1.25,4.75Z" fill="none"/><path d="M11.07,126.11c-3.43.73-4.11-4.29-1.25-4.75,3.27-.52,3.78,4.21,1.25,4.75Z" fill="none"/><path d="M5.45,19.49c.1.56-2.66,3.33-2.88,3.37-.22.04-1.23-.77-2.57-1.96v-6.91c2.71,2.57,5.38,5.1,5.45,5.5Z" fill="none"/><path d="M47.07,66.11c-3.43.73-4.11-4.29-1.25-4.75,3.27-.52,3.78,4.21,1.25,4.75Z" fill="none"/><path d="M56.69,169.93v3.5c-.85-.96-.89-2.62,0-3.5Z" fill="none"/><path d="M41.45,55.49l-3.13,3.37c-2.39-2.96-22.58-21.04-22.87-22.62-.19-1.05,2.62-2.56,3.12-3.38l22.88,22.63Z" fill="none"/><path d="M11.07,30.11c-3.47.76-4.08-4.3-1.25-4.75,3.35-.53,3.75,4.21,1.25,4.75Z" fill="none"/><path d="M11.45,41.49c.1.56-2.66,3.33-2.88,3.37-.61.11-4.56-3.87-8.57-8.01v-6.72c4.96,4.73,11.31,10.59,11.45,11.36Z" fill="none"/><path d="M15.07,50.11c-3.34.71-4.1-4.16-1.25-4.75,3.29-.68,3.78,4.21,1.25,4.75Z" fill="none"/><path d="M9.7,95.74L0,105.43v-6.73c2.97-2.82,5.7-5.44,6.32-6.34l3.38,3.38Z" fill="none"/><path d="M37.7,147.74l-3.38,3.37c-1.1-1.59-10.98-10.35-11.12-11.12-.16-.87,2.62-2.88,3.12-3.63l11.38,11.38Z" fill="none"/><path d="M12.45,58.49l-1,1.12h-.25c-2.12,2.08-2.27,2.68-4.25,0h-.25c-.7-1.1-3.39-3.8-6.7-7v-6.57l12.45,12.45Z" fill="none"/><path d="M27.07,126.11c-3.43.73-4.11-4.29-1.25-4.75,3.27-.52,3.78,4.21,1.25,4.75Z" fill="none"/><path d="M9.07,189.61c.23-.02,2.88-2.76,3.38-3.12l-12.45-12.45v7.08c4.52,4.74,8.34,8.57,9.07,8.5Z" fill="none"/><path d="M53.45,339.49c-.42.76-2.61,3.46-3.38,3.37l-14.62-14.62c-.1-.56,2.66-3.33,2.87-3.38,1.03-.23,13.25,13.16,15.13,14.63Z" fill="none"/><path d="M5.45,147.49c-.07-.4-2.74-2.92-5.45-5.49v6.9c1.34,1.19,2.35,2,2.57,1.96.22-.04,2.98-2.81,2.88-3.38Z" fill="none"/><polygon points="56.69 310.85 56.69 317.38 54.95 315.61 54.7 315.61 0 260.83 0 254.07 56.69 310.85" fill="none"/><path d="M47.07,322.11c-3.43.73-4.11-4.29-1.25-4.75,3.27-.52,3.78,4.21,1.25,4.75Z" fill="none"/><path d="M56.69,301.32v-3.31c-.8.87-1,2.38,0,3.31Z" fill="none"/><path d="M6.32,220.36c-.62.9-3.35,3.52-6.32,6.34v6.73l9.7-9.7-3.38-3.38Z" fill="none"/><path d="M29.7,75.74l-11.38,11.37c-.5-.75-3.28-2.76-3.12-3.62.14-.78,10.02-9.54,11.12-11.13l3.38,3.38Z" fill="none"/><path d="M29.7,331.74l-11.38,11.37c-.5-.75-3.28-2.76-3.12-3.62.14-.78,10.02-9.54,11.12-11.13l3.38,3.38Z" fill="none"/><path d="M8.57,172.86c.22-.04,2.98-2.81,2.88-3.38-.14-.77-6.49-6.63-11.45-11.36v6.73c4.01,4.14,7.96,8.12,8.57,8.01Z" fill="none"/><path d="M9.7,351.74l-9.7,9.69v-6.73c2.97-2.82,5.7-5.44,6.32-6.34l3.38,3.38Z" fill="none"/><path d="M43.45,361.49c.09.61-1.39,1.9-2.29,2.76h-1.21l-16.75-16.26,10.87-11.63,11.63,11.38-3.38,3.37c-1.04-.84-7.38-7.75-8-7.75-.3.02-4.37,3.96-4.37,4.38,1.11,2.16,13.36,12.79,13.5,13.75Z" fill="none"/><path d="M28.65,364.25h-4.54c-.28-1.24.26-2.66,1.71-2.89,2.11-.34,3.04,1.41,2.83,2.89Z" fill="none"/><path d="M12.45,314.49l-1,1.12h-.25c-2.12,2.08-2.27,2.68-4.25,0h-.25c-.7-1.1-3.39-3.8-6.7-7v-6.57l12.45,12.45Z" fill="none"/><path d="M56.69,362.25v2h-1.17c-.13-.1-.23-.2-.32-.26l1.49-1.74Z" fill="none"/><path d="M56.69,326.38v6.82c-2.41-2.5-4.36-4.42-5.24-4.96-.1-.55,2.9-3.34,3.12-3.38.28-.05,1.04.53,2.12,1.52Z" fill="none"/><path d="M45.82,237.36c-2.78.54-2.22,5.49,1.25,4.75,2.6-.55,1.9-5.36-1.25-4.75Z" fill="none"/><path d="M56.69,346.12v6.62l-6.37,6.37c-.5-.75-3.28-2.76-3.12-3.62.11-.62,6.37-6.28,9.49-9.37Z" fill="none"/><polygon points="56.69 54.85 56.69 61.38 54.95 59.61 54.7 59.61 0 4.83 0 0 1.92 0 56.69 54.85" fill="none"/><path d="M23.2,267.99c.14.77,10.02,9.54,11.12,11.12l3.38-3.38-11.38-11.38c-.51.75-3.28,2.76-3.12,3.62Z" fill="none"/><path d="M29.95,219.74l4.62-4.38,7.75,7.75,3.38-3.38-11.62-11.38-10.88,11.62c2.2,1.66,16.18,17.09,17.38,16.88.22-.04,2.98-2.81,2.88-3.38-.17-.95-13.5-12.76-13.5-13.75Z" fill="none"/><path d="M25.82,249.36c-2.86.46-2.19,5.48,1.25,4.75,2.52-.54,2.02-5.27-1.25-4.75Z" fill="none"/><path d="M25.82,233.36c-2.06.37-2.54,3.61-.5,4.5,4.03,1.76,4.67-5.25.5-4.5Z" fill="none"/><path d="M35.07,262.11c2.52-.54,2.02-5.27-1.25-4.75-2.86.46-2.19,5.48,1.25,4.75Z" fill="none"/><path d="M49.82,289.36c-2.86.46-2.19,5.48,1.25,4.75,2.52-.54,2.02-5.27-1.25-4.75Z" fill="none"/><path d="M53.45,83.49c-.42.76-2.61,3.46-3.38,3.37l-14.62-14.62c-.1-.56,2.66-3.33,2.87-3.38,1.03-.23,13.25,13.16,15.13,14.63Z" fill="none"/><path d="M51.07,278.11c2.42-.51,2.1-5.03-1-4.75-3.22.29-2.45,5.48,1,4.75Z" fill="none"/><path d="M56.69,269.43v-3.5c-.89.88-.86,2.54,0,3.5Z" fill="none"/><path d="M9.82,249.36c-2.86.46-2.19,5.48,1.25,4.75,2.52-.54,2.02-5.27-1.25-4.75Z" fill="none"/><path d="M47.2,227.49c-.16.87,2.62,2.88,3.12,3.62l6.37-6.37v-6.63c-3.12,3.1-9.38,8.75-9.49,9.37Z" fill="none"/><path d="M35.45,193.49c-.16-.89-11.37-11.07-12.88-12.62l-3.12,3.38,12.88,12.88c.51-.75,3.28-2.76,3.12-3.62Z" fill="none"/><path d="M56.69,237.36v-3.11l-1.49,1.73c.3.23.82.72,1.49,1.38Z" fill="none"/><path d="M51.45,200.24c.88.54,2.83,2.46,5.24,4.96v-6.82c-1.08-.99-1.85-1.57-2.12-1.52-.23.04-3.23,2.83-3.12,3.38Z" fill="none"/><path d="M26.32,200.36c-1.11,1.59-10.98,10.35-11.12,11.12-.16.87,2.62,2.88,3.12,3.62l11.38-11.38-3.38-3.38Z" fill="none"/><path d="M17.82,193.36c-2.9.52-2.14,5.47,1.25,4.75,2.47-.53,2.13-5.36-1.25-4.75Z" fill="none"/><path d="M56.69,45.32c-1-.93-.8-2.44,0-3.31V13.43c-.86-.97-.89-2.62,0-3.5V0H1.92l54.77,54.85v-9.53ZM33.82,1.36c3.27-.52,3.77,4.21,1.25,4.75-3.44.73-4.11-4.29-1.25-4.75ZM34.32,23.11c-1.11-1.59-10.98-10.35-11.12-11.12-.16-.87,2.62-2.88,3.12-3.62l11.38,11.38-3.38,3.38ZM51.07,38.11c-3.44.73-4.11-4.29-1.25-4.75,3.27-.52,3.77,4.21,1.25,4.75ZM51.07,22.11c-3.45.73-4.22-4.46-1-4.75,3.1-.28,3.42,4.24,1,4.75Z" fill="#ec008c"/><path d="M54.57,68.86c.28-.05,1.04.53,2.12,1.52v-9l-1.74-1.77h-.25L0,4.83v9.16c2.71,2.57,5.38,5.1,5.45,5.5.1.56-2.66,3.33-2.88,3.37-.22.04-1.23-.77-2.57-1.96v9.23c4.96,4.73,11.31,10.59,11.45,11.36.1.56-2.66,3.33-2.88,3.37-.61.11-4.56-3.87-8.57-8.01v9.19l12.45,12.45-1,1.12h-.25c-2.12,2.08-2.27,2.68-4.25,0h-.25c-.7-1.1-3.39-3.8-6.7-7v46.09c2.97-2.82,5.7-5.44,6.32-6.34l3.38,3.38L0,105.43v20.61l56.69,56.69v-9.3c-.85-.96-.89-2.62,0-3.5v-28.5c-.85-.96-.89-2.62,0-3.5v-28.57c-.67-.66-1.19-1.14-1.49-1.37l1.49-1.74v-9.51l-6.37,6.37c-.5-.75-3.28-2.76-3.12-3.62.11-.62,6.37-6.28,9.49-9.37v-12.92c-2.41-2.5-4.36-4.42-5.24-4.96-.1-.55,2.9-3.34,3.12-3.38ZM45.82,61.36c3.27-.52,3.78,4.21,1.25,4.75-3.43.73-4.11-4.29-1.25-4.75ZM18.57,32.86l22.88,22.63-3.13,3.37c-2.39-2.96-22.58-21.04-22.87-22.62-.19-1.05,2.62-2.56,3.12-3.38ZM19.45,55.99l3.62-3.13,6.38,6.75h.25c.51,1.05,5.65,5.36,5.75,5.88.16.86-2.62,2.87-3.13,3.62l-9.37-9.5h-.25l-3.25-3.62ZM19.07,70.11c-3.43.73-4.11-4.29-1.25-4.75,3.36-.54,3.74,4.22,1.25,4.75ZM11.07,30.11c-3.47.76-4.08-4.3-1.25-4.75,3.35-.53,3.75,4.21,1.25,4.75ZM11.07,126.11c-3.43.73-4.11-4.29-1.25-4.75,3.27-.52,3.78,4.21,1.25,4.75ZM13.82,45.36c3.29-.68,3.78,4.21,1.25,4.75-3.34.71-4.1-4.16-1.25-4.75ZM15.2,83.49c.14-.78,10.02-9.54,11.12-11.13l3.38,3.38-11.38,11.37c-.5-.75-3.28-2.76-3.12-3.62ZM34.32,151.11c-1.1-1.59-10.98-10.35-11.12-11.12-.16-.87,2.62-2.88,3.12-3.63l11.38,11.38-3.38,3.37ZM25.82,121.36c3.27-.52,3.78,4.21,1.25,4.75-3.43.73-4.11-4.29-1.25-4.75ZM25.82,105.36c3.36-.54,3.74,4.22,1.25,4.75-3.43.73-4.11-4.29-1.25-4.75ZM33.82,129.36c3.27-.52,3.78,4.21,1.25,4.75-3.43.73-4.11-4.29-1.25-4.75ZM40.57,108.86l-17.37-16.87,10.87-11.63,11.63,11.38-3.38,3.37c-1.04-.84-7.38-7.75-8-7.75-.3.02-4.37,3.96-4.37,4.38,1.11,2.16,13.36,12.79,13.5,13.75.12.78-2.38,2.71-2.88,3.37ZM51.07,166.11c-3.43.73-4.11-4.29-1.25-4.75,3.27-.52,3.78,4.21,1.25,4.75ZM50.07,145.36c3.11-.28,3.42,4.24,1,4.75-3.45.73-4.22-4.46-1-4.75ZM47.07,114.11c-3.47.74-4.02-4.21-1.25-4.75,3.16-.61,3.85,4.2,1.25,4.75ZM53.45,83.49c-.42.76-2.61,3.46-3.38,3.37l-14.62-14.62c-.1-.56,2.66-3.33,2.87-3.38,1.03-.23,13.25,13.16,15.13,14.63Z" fill="#ec008c"/><path d="M54.57,324.86c.28-.05,1.04.53,2.12,1.52v-9l-1.74-1.77h-.25L0,260.83v9.16c2.71,2.57,5.38,5.1,5.45,5.5.1.56-2.66,3.33-2.88,3.37-.22.04-1.23-.77-2.57-1.96v9.23c4.96,4.73,11.31,10.59,11.45,11.36.1.56-2.66,3.33-2.88,3.37-.61.11-4.56-3.87-8.57-8.01v9.19l12.45,12.45-1,1.12h-.25c-2.12,2.08-2.27,2.68-4.25,0h-.25c-.7-1.1-3.39-3.8-6.7-7v46.09c2.97-2.82,5.7-5.44,6.32-6.34l3.38,3.38-9.7,9.69v2.82h24.11c-.28-1.24.26-2.66,1.71-2.89,2.11-.34,3.04,1.41,2.83,2.89h11.3l-16.75-16.26,10.87-11.63,11.63,11.38-3.38,3.37c-1.04-.84-7.38-7.75-8-7.75-.3.02-4.37,3.96-4.37,4.38,1.11,2.16,13.36,12.79,13.5,13.75.09.61-1.39,1.9-2.29,2.76h14.36c-.13-.1-.23-.2-.32-.26l1.49-1.74v-9.51l-6.37,6.37c-.5-.75-3.28-2.76-3.12-3.62.11-.62,6.37-6.28,9.49-9.37v-12.92c-2.41-2.5-4.36-4.42-5.24-4.96-.1-.55,2.9-3.34,3.12-3.38ZM45.82,317.36c3.27-.52,3.78,4.21,1.25,4.75-3.43.73-4.11-4.29-1.25-4.75ZM18.57,288.86l22.88,22.63-3.13,3.37c-2.39-2.96-22.58-21.04-22.87-22.62-.19-1.05,2.62-2.56,3.12-3.38ZM19.07,326.11c-3.43.73-4.11-4.29-1.25-4.75,3.36-.54,3.74,4.22,1.25,4.75ZM11.07,286.11c-3.47.76-4.08-4.3-1.25-4.75,3.35-.53,3.75,4.21,1.25,4.75ZM13.82,301.36c3.29-.68,3.78,4.21,1.25,4.75-3.34.71-4.1-4.16-1.25-4.75ZM18.32,343.11c-.5-.75-3.28-2.76-3.12-3.62.14-.78,10.02-9.54,11.12-11.13l3.38,3.38-11.38,11.37ZM32.32,325.11l-9.37-9.5h-.25l-3.25-3.62,3.62-3.13,6.38,6.75h.25c.51,1.05,5.65,5.36,5.75,5.88.16.86-2.62,2.87-3.13,3.62ZM53.45,339.49c-.42.76-2.61,3.46-3.38,3.37l-14.62-14.62c-.1-.56,2.66-3.33,2.87-3.38,1.03-.23,13.25,13.16,15.13,14.63Z" fill="#ec008c"/><path d="M0,141.99c2.71,2.57,5.38,5.09,5.45,5.49.1.56-2.66,3.34-2.88,3.38-.22.04-1.24-.77-2.57-1.96v9.23c4.96,4.73,11.31,10.59,11.45,11.36.1.56-2.66,3.34-2.88,3.38-.61.11-4.56-3.87-8.57-8.01v9.18l12.45,12.45c-.49.37-3.15,3.1-3.38,3.12-.74.08-4.56-3.76-9.07-8.5v45.59c2.97-2.82,5.7-5.44,6.32-6.34l3.38,3.38-9.7,9.7v20.64l56.69,56.77v-9.53c-1-.93-.8-2.44,0-3.31v-28.58c-.86-.97-.89-2.62,0-3.5v-28.57c-.67-.66-1.19-1.14-1.49-1.38l1.49-1.73v-9.51l-6.37,6.37c-.51-.75-3.28-2.76-3.12-3.62.11-.61,6.37-6.27,9.49-9.37v-12.92c-2.41-2.51-4.37-4.42-5.24-4.96-.1-.55,2.9-3.33,3.12-3.38.27-.05,1.04.53,2.12,1.52v-8.9L0,132.79v9.21ZM11.07,254.11c-3.44.73-4.11-4.29-1.25-4.75,3.27-.52,3.77,4.21,1.25,4.75ZM15.2,211.49c.14-.77,10.02-9.54,11.12-11.12l3.38,3.38-11.38,11.38c-.51-.75-3.28-2.76-3.12-3.62ZM19.07,198.11c-3.39.72-4.15-4.23-1.25-4.75,3.38-.61,3.72,4.22,1.25,4.75ZM19.45,184.24l3.12-3.38c1.5,1.55,12.71,11.74,12.88,12.62.16.87-2.62,2.88-3.12,3.62l-12.88-12.88ZM34.32,279.11c-1.11-1.59-10.98-10.35-11.12-11.12-.16-.87,2.62-2.88,3.12-3.62l11.38,11.38-3.38,3.38ZM25.32,237.86c-2.04-.89-1.56-4.13.5-4.5,4.17-.75,3.53,6.26-.5,4.5ZM27.07,254.11c-3.44.73-4.11-4.29-1.25-4.75,3.27-.52,3.77,4.21,1.25,4.75ZM33.82,257.36c3.27-.52,3.77,4.21,1.25,4.75-3.44.73-4.11-4.29-1.25-4.75ZM40.57,236.86c-1.19.22-15.17-15.22-17.38-16.88l10.88-11.62,11.62,11.38-3.38,3.38-7.75-7.75-4.62,4.38c0,.99,13.33,12.8,13.5,13.75.1.56-2.66,3.34-2.88,3.38ZM51.07,294.11c-3.44.73-4.11-4.29-1.25-4.75,3.27-.52,3.77,4.21,1.25,4.75ZM50.07,273.36c3.1-.28,3.42,4.24,1,4.75-3.45.73-4.22-4.46-1-4.75ZM47.07,242.11c-3.47.74-4.03-4.21-1.25-4.75,3.15-.61,3.85,4.2,1.25,4.75ZM53.45,211.49c.1.56-2.66,3.34-2.88,3.38-1.05.19-13.46-13.38-15.38-14.88l3.38-3.38c1.49,2.1,14.68,13.84,14.88,14.88ZM46.07,189.36c3.1-.28,3.42,4.24,1,4.75-3.45.73-4.22-4.46-1-4.75ZM18.57,160.86c1.58-.29,19.69,20.6,22.88,22.62l-3.12,3.38-22.88-22.62c-.1-.55,2.9-3.33,3.12-3.38ZM14.07,173.36c3.02-.35,3.47,4.22,1,4.75-3.5.74-4.13-4.39-1-4.75ZM9.82,153.36c3.26-.52,3.79,4.2,1.25,4.75-3.47.76-4.08-4.3-1.25-4.75Z" fill="#ec008c"/></svg>