<?xml version="1.0" encoding="UTF-8"?><svg id="a" xmlns="http://www.w3.org/2000/svg" width="5.08mm" height="127.51mm" viewBox="0 0 14.4 361.44"><path d="M14.4,114.96v1.2c-2.63.79-5.01.58-7.68.36,2.4,1.46,4.96,2.53,7.68,3.24v1.2c-2.65-.93-6.23-1.53-8.57-3.07-2.06-1.36-3.1-4.35-5.83-4.85v-1.44c4.79,1.78,8.97,5.3,14.4,3.36Z"/><path d="M14.4,242.88v1.2c-2.67,1.09-5.18.65-7.92.36,2.36,1.67,5.21,2.36,7.92,3.24v1.2c-2.51-.77-6.14-1.41-8.33-2.83s-3.24-4.43-6.07-5.09v-1.44c4.69,1.75,9.14,5.61,14.4,3.36Z"/><path d="M14.4,169.44v1.44c-2.39-.26-4.64.47-6.72,1.56,2.33.5,4.65,1.06,6.72,2.28v1.44c-3.55-1.86-6.72-3.4-10.56-1.32-1.43.77-2.46,1.96-3.84,2.76v-1.68c1.34-.68,2.43-1.82,3.67-2.69,3.28-2.3,6.56-4,10.73-3.79Z"/><path d="M14.4,297.6v1.2c-2.48-.25-4.85.62-6.96,1.8,2.58,0,4.68,1.06,6.96,2.04v1.44c-1.74-.54-3.19-1.76-5.03-2.05-4.4-.69-6.25,1.08-9.37,3.73v-1.68c4.2-3.3,8.64-7.14,14.4-6.48Z"/><path d="M14.4,41.52v1.2c-2.46-.11-4.81.72-6.96,1.8,2.47.21,4.87.95,6.96,2.28v1.2c-2.7-1.1-4.93-2.5-8.01-2.13-2.53.3-4.42,2.45-6.39,3.81v-1.68c4.27-3.21,8.65-7,14.4-6.48Z"/><path d="M14.4,210.48v1.44c-5.3,1.42-9.6,4.97-14.4,7.44v-1.44c4.57-2.86,9.04-6.22,14.4-7.44Z"/><path d="M14.4,82.56v1.2c-5.33,1.52-9.72,4.89-14.4,7.68v-1.68c4.7-2.55,9.01-6.18,14.4-7.2Z"/><path d="M14.4,338.64v1.2c-5.39,1.27-9.58,4.98-14.4,7.44v-1.44c4.62-2.59,9.03-6.38,14.4-7.2Z"/><path d="M14.4,232.32v1.2c-3.1-1.1-5.75-3.21-8.04-5.52-1.41,2.4-3.21,5.12-6.36,5.04v-1.2c1.77.01,3.13-1.11,4.18-2.42.5-.62,1.54-2.87,2.18-2.87.28,0,3.11,2.76,3.74,3.23,1.33,1,2.8,1.83,4.3,2.54Z"/><path d="M14.4,29.76v1.44c-4.49,3.07-9.16,6.05-14.4,7.68v-1.44c5.32-1.42,9.71-4.96,14.4-7.68Z"/><path d="M14.4,285.84v1.44c-4.55,3-9.23,5.86-14.4,7.68v-1.44c5.28-1.59,9.67-5.05,14.4-7.68Z"/><path d="M14.4,360.24v1.2c-3.2-.78-5.59-3.22-7.8-5.52-2.02,2.15-3.15,5.27-6.6,5.28v-1.44c3.22.24,4.48-3.17,6.13-5.28,2.65,2.09,5.06,4.5,8.27,5.76Z"/><path d="M14.4,104.16v1.44c-3.04-1.17-5.82-3.17-7.8-5.76-1.88,2.13-3.26,5.41-6.6,5.28v-1.2c3.47-.17,4.36-3.34,6.36-5.52,2.31,2.34,4.89,4.63,8.04,5.76Z"/><path d="M14.4,157.68v1.44c-4.37,3.26-9.11,6.19-14.4,7.68v-1.2c5.43-1.36,9.69-5.14,14.4-7.92Z"/><path d="M14.4,71.52v1.2c-3.11.04-5.81-3-8.99-2.39-.58.11-.84.61-1.68.72-1.25.15-2.47-.41-3.73-.25v-1.2c2.36-.15,5.48-.81,7.79-.46,2.05.31,4.29,2.6,6.61,2.38Z"/><path d="M14.4,327.6v1.2c-2.83-.1-5.26-2.48-8.08-2.62-1.44-.07-1.55.84-2.38.94-.87.11-2.93-.47-3.94-.48v-1.2l7.04-.46c2.62.45,4.68,2.39,7.36,2.62Z"/><path d="M14.4,12.96v1.44c-4.63,2.25-8.95,5.45-14.4,5.04v-1.44c1.28-.08,2.67.12,3.93-.03,1.07-.12,4.97-1.48,5.75-2.11.3-.24.05-.86.38-1.12.2-.16.64.27.92.11.07-.04.16-.49.58-.75.77-.46,1.92-1.01,2.82-1.14Z"/><path d="M14.4,268.8v1.44c-4.47,2.55-8.96,5.62-14.4,5.04v-1.44c2.3.63,4.68.09,6.85-.71,1.06-.39,3.26-1.05,2.99-2.41,1.65.41.91,0,1.68-.59.69-.52,2.03-1,2.88-1.33Z"/><path d="M14.4,134.88v1.2c-4.71,1.94-10.29,1.77-14.4-1.44v-1.92c3.89,4.24,9.35,3.97,14.4,2.16Z"/><path d="M14.4,262.8v1.44c-4.88,1.52-10.28,1.84-14.4-1.68v-1.68c4.04,3.86,9.41,4.03,14.4,1.92Z"/><path d="M14.4,59.52v.96c-1.61-.3-2.81-1.39-4.5-1.62-4.25-.58-7.05.77-9.9,3.78v-1.68c3.94-4.34,9.56-4.3,14.4-1.44Z"/><path d="M14.4,6.96v1.2c-4.85,1.74-10.35,1.85-14.4-1.68v-1.44c2.76,2.13,5.88,3.44,9.45,3.09,1.7-.16,3.25-1.01,4.95-1.17Z"/><path d="M14.4,199.68v1.2c-2.8-.18-5.95-3.16-8.75-2.63-.58.11-.84.61-1.68.72-1.34.17-2.64-.25-3.97-.25v-1.2c2.74.89,5.05-.81,7.78-.46,2.21.29,4.22,2.47,6.62,2.62Z"/><path d="M14.4,315.6v.96c-5.18-2.94-10.49-2.48-14.4,2.16v-1.68c3.91-4.32,9.62-4.55,14.4-1.44Z"/><path d="M14.4,187.44v1.2c-1.28-.33-2.32-1.21-3.6-1.56-4.22-1.17-8.15.38-10.8,3.72v-1.68c3.67-4.57,9.59-4.26,14.4-1.68Z"/><path d="M14.4,141.12v1.2c-4.52,2.41-8.98,5.51-14.4,5.04v-1.2c3.65.54,6.5-.9,9.61-2.51,1.56-.81,3.07-2.15,4.79-2.53Z"/><rect x="5.67" width="5.67" height="5.67" fill="#231f20"/></svg>