<?xml version="1.0" encoding="UTF-8"?><svg id="a" xmlns="http://www.w3.org/2000/svg" width="5.08mm" height="128.5mm" viewBox="0 0 14.4 364.25"><path d="M14.4,114.96v1.2c-2.63.79-5.01.58-7.68.36,2.4,1.46,4.96,2.53,7.68,3.24v1.2c-2.65-.93-6.23-1.53-8.57-3.07-2.06-1.36-3.1-4.35-5.83-4.85v-1.44c4.79,1.78,8.97,5.3,14.4,3.36Z"/><path d="M14.4,242.88v1.2c-2.67,1.09-5.18.65-7.92.36,2.36,1.67,5.21,2.36,7.92,3.24v1.2c-2.51-.77-6.14-1.41-8.33-2.83S2.83,241.62,0,240.96v-1.44c4.69,1.75,9.14,5.61,14.4,3.36Z"/><path d="M14.4,169.44v1.44c-2.39-.26-4.64.47-6.72,1.56,2.33.5,4.65,1.06,6.72,2.28v1.44c-3.55-1.86-6.72-3.4-10.56-1.32-1.43.77-2.46,1.96-3.84,2.76v-1.68c1.34-.68,2.43-1.82,3.67-2.69,3.28-2.3,6.56-4,10.73-3.79Z"/><path d="M14.4,297.6v1.2c-2.48-.25-4.85.62-6.96,1.8,2.58,0,4.68,1.06,6.96,2.04v1.44c-1.74-.54-3.19-1.76-5.03-2.05-4.4-.69-6.25,1.08-9.37,3.73v-1.68c4.2-3.3,8.64-7.14,14.4-6.48Z"/><path d="M14.4,41.52v1.2c-2.46-.11-4.81.72-6.96,1.8,2.47.21,4.87.95,6.96,2.28v1.2c-2.7-1.1-4.93-2.5-8.01-2.13-2.53.3-4.42,2.45-6.39,3.81v-1.68c4.27-3.21,8.65-7,14.4-6.48Z"/><path d="M14.4,210.48v1.44c-5.3,1.42-9.6,4.97-14.4,7.44v-1.44c4.57-2.86,9.04-6.22,14.4-7.44Z"/><path d="M14.4,82.56v1.2c-5.33,1.52-9.72,4.89-14.4,7.68v-1.68c4.7-2.55,9.01-6.18,14.4-7.2Z"/><path d="M14.4,338.64v1.2c-5.39,1.27-9.58,4.98-14.4,7.44v-1.44c4.62-2.59,9.03-6.38,14.4-7.2Z"/><path d="M14.4,232.32v1.2c-3.1-1.1-5.75-3.21-8.04-5.52-1.41,2.4-3.21,5.12-6.36,5.04v-1.2c1.77.01,3.13-1.11,4.18-2.42.5-.62,1.54-2.87,2.18-2.87.28,0,3.11,2.76,3.74,3.23,1.33,1,2.8,1.83,4.3,2.54Z"/><path d="M14.4,29.76v1.44C9.91,34.27,5.24,37.25,0,38.88v-1.44c5.32-1.42,9.71-4.96,14.4-7.68Z"/><path d="M14.4,285.84v1.44c-4.55,3-9.23,5.86-14.4,7.68v-1.44c5.28-1.59,9.67-5.05,14.4-7.68Z"/><path d="M14.4,360.24v1.2c-3.2-.78-5.59-3.22-7.8-5.52-2.02,2.15-3.15,5.27-6.6,5.28v-1.44c3.22.24,4.48-3.17,6.13-5.28,2.65,2.09,5.06,4.5,8.27,5.76Z"/><path d="M14.4,104.16v1.44c-3.04-1.17-5.82-3.17-7.8-5.76-1.88,2.13-3.26,5.41-6.6,5.28v-1.2c3.47-.17,4.36-3.34,6.36-5.52,2.31,2.34,4.89,4.63,8.04,5.76Z"/><path d="M14.4,157.68v1.44c-4.37,3.26-9.11,6.19-14.4,7.68v-1.2c5.43-1.36,9.69-5.14,14.4-7.92Z"/><path d="M14.4,71.52v1.2c-3.11.04-5.81-3-8.99-2.39-.58.11-.84.61-1.68.72-1.25.15-2.47-.41-3.73-.25v-1.2c2.36-.15,5.48-.81,7.79-.46,2.05.31,4.29,2.6,6.61,2.38Z"/><path d="M14.4,327.6v1.2c-2.83-.1-5.26-2.48-8.08-2.62-1.44-.07-1.55.84-2.38.94-.87.11-2.93-.47-3.94-.48v-1.2l7.04-.46c2.62.45,4.68,2.39,7.36,2.62Z"/><path d="M14.4,12.96v1.44C9.77,16.65,5.45,19.85,0,19.44v-1.44c1.28-.08,2.67.12,3.93-.03,1.07-.12,4.97-1.48,5.75-2.11.3-.24.05-.86.38-1.12.2-.16.64.27.92.11.07-.04.16-.49.58-.75.77-.46,1.92-1.01,2.82-1.14Z"/><path d="M14.4,268.8v1.44c-4.47,2.55-8.96,5.62-14.4,5.04v-1.44c2.3.63,4.68.09,6.85-.71,1.06-.39,3.26-1.05,2.99-2.41,1.65.41.91,0,1.68-.59.69-.52,2.03-1,2.88-1.33Z"/><path d="M14.4,134.88v1.2c-4.71,1.94-10.29,1.77-14.4-1.44v-1.92c3.89,4.24,9.35,3.97,14.4,2.16Z"/><path d="M14.4,262.8v1.44c-4.88,1.52-10.28,1.84-14.4-1.68v-1.68c4.04,3.86,9.41,4.03,14.4,1.92Z"/><path d="M14.4,59.52v.96c-1.61-.3-2.81-1.39-4.5-1.62-4.25-.58-7.05.77-9.9,3.78v-1.68c3.94-4.34,9.56-4.3,14.4-1.44Z"/><path d="M14.4,6.96v1.2C9.55,9.9,4.05,10.01,0,6.48v-1.44c2.76,2.13,5.88,3.44,9.45,3.09,1.7-.16,3.25-1.01,4.95-1.17Z"/><path d="M14.4,199.68v1.2c-2.8-.18-5.95-3.16-8.75-2.63-.58.11-.84.61-1.68.72-1.34.17-2.64-.25-3.97-.25v-1.2c2.74.89,5.05-.81,7.78-.46,2.21.29,4.22,2.47,6.62,2.62Z"/><path d="M14.4,315.6v.96c-5.18-2.94-10.49-2.48-14.4,2.16v-1.68c3.91-4.32,9.62-4.55,14.4-1.44Z"/><path d="M14.4,187.44v1.2c-1.28-.33-2.32-1.21-3.6-1.56-4.22-1.17-8.15.38-10.8,3.72v-1.68c3.67-4.57,9.59-4.26,14.4-1.68Z"/><path d="M14.4,141.12v1.2c-4.52,2.41-8.98,5.51-14.4,5.04v-1.2c3.65.54,6.5-.9,9.61-2.51,1.56-.81,3.07-2.15,4.79-2.53Z"/><rect x="5.67" width="5.67" height="5.67" fill="#231f20"/><path d="M14.17,359.65v-1.08c-.29.57-.16.89,0,1.08Z" fill="none"/><path d="M0,12.77c.04-.22.25-.43.57-.31.43.16.17.95-.36.72-.13-.06-.19-.16-.21-.27v46.48c.09-.1.17-.16.21-.15.32.15.36,1.05-.21,1.08v27.68c.06-.46.9-.92,1.29-.69.79.46-1.03,1.39-1.26.9-.03-.06-.03-.11-.03-.17v121.69c.33-.27.7-.44.93-.43,2.11.14.09.76-.93,1.51v18.78s.02.03.03.05c0,.05-.02.08-.03.12v5.65c.22-.16.43-.26.57-.19.45.21-.07.96-.57,1.29v105.12l.93-1.33c.3.16-.24,1.34-.93,2.31v21.64h14.17v-4.18c-.69.1-2.21-1.25,0-2.01v-62.82c-.09-.11-.08-.32,0-.57v-26.01c-.39-.03-.36-.98,0-1.33v-50.04c-.83-.15-1.04-.89,0-1.1v-1.46c-.29.03-.61-.03-.83-.22-.12-.49.41-.61.83-.6v-46.37c-.45.68-1.12,1.25-2.09,1.81l2.09-3.92v-51.52c-.59,0-1.2-.32-1.55-1.24.62.43,1.14.43,1.55.27v-3.56c-.19.1-.36.21-.47.41l-.18,1.26c-.48-1.75-.32-1.89.65-2.27v-2.06c-.53.27-1.72.8-1.73,1.45v-3.24c.15.44,1.23,1.11,1.73,1.44V0H0v12.77ZM.57,213.62H.21v-.36l.36-.36v.72ZM13.52,23.61c.22.29.61.33.36.72-.5.77-.81-.06-.36-.72ZM.93,83.35c-.43-.19-.19-.92.36-.72.43.16.17.95-.36.72ZM1.29,59.96l.54.54-.18.18-.54-.18.18-.54ZM1.11,56.54l.18-.9c.59.71.35,1.36,0,2.16l-.18-1.26ZM3.81,54.2c1.15.73-.26,2.74-.72,2.52-.68-.33.94-1.92.72-2.52ZM4.89,58.88c.2.56.58,2.48-.36,2.52-.2-.56-.58-2.48.36-2.52ZM4.53,57.44c.22.29.61.33.36.72-.5.77-.81-.06-.36-.72ZM8.49,107.82c-.59.27-3.24-2.63-1.44-3.24l1.44,3.24ZM7.59,103.68l.18-.54.54.54-.18.18-.54-.18ZM9.75,247.63l1.62-.54c.61,1.29-1.71.89-1.62.54ZM11.73,271.56c.32.09-.32,1.9-.36,2.16-.21,0-.53-2.4.36-2.16ZM10.29,289.91l.18.54-.18.18-.54-.54.54-.18ZM9.93,293.87l2.16,2.52c-1.54,1.6-2.89-2.49-2.16-2.52ZM11.19,293.69c.11-.24.77-.27.9-.18,1.16.79-1.17.78-.9.18ZM12.09,217.58c-.44-.23-.94-1.8-1.44-1.8-.26,0-.94,1.53-1.62.9.45-.77,1.21-2.11,2.34-1.62.45.19,1.11,1.96.72,2.52ZM5.61,104.94c-.81-1.28-3.22-3.1-1.08-4.32-.83,2.23,1.47,2.33,1.08,4.32ZM5.61,102.42v-.36l.36-.36v.72h-.36ZM7.41,215.78c-.43-.19-.19-.92.36-.72.43.16.17.95-.36.72ZM7.77,230.54c-.5.77-.81-.06-.36-.72.22.29.61.33.36.72ZM7.05,211.46l-.54-.54.54-.18.18.54-.18.18ZM6.69,192.39c-.82-.31,1.11-2.65,1.44-2.52.45,1.27-1.05,1.62-1.44,2.52ZM5.97,188.79c-.55-.11.22-1.15.36-1.08.35.17.37,1.22-.36,1.08ZM5.61,215.06c-.43-.19-.19-.92.36-.72.43.16.17.95-.36.72ZM5.25,230.9c-.53-.6.4-1.03.72-1.44.43.14-.2,1.65-.72,1.44ZM5.61,192.75c-.73.27-.7-1.31-.36-1.44.17.4.84,1.26.36,1.44ZM4.53,210.74c-.43-.19-.19-.92.36-.72.43.16.17.95-.36.72ZM4.53,187.71c.12.93-.27,2.09-.72,2.88-.62-.35-.07-2.9.72-2.88ZM3.63,146.87l.54-.18.18.54-.18.18-.54-.54ZM3.45,145.25v-1.44c1.03,1.18,3.08,2,0,1.44ZM4.89,142.73c.24.03.85.86.36,1.08-.6.27-1.47-1.22-.36-1.08ZM3.81,84.79l-.54-.54.54-.18.18.54-.18.18ZM3.45,86.95c.38.48.3,1.21-.36,1.08-.24-.25.26-.78.36-1.08ZM3.63,210.2l-.18.18-.54-.18.18-.54.54.54ZM3.45,211.46l.36,1.44,1.26-.9c-.3,2.32-3.29,1.19-1.62-.54ZM3.81,229.46c.43.16.17.95-.36.72-.43-.19-.19-.92.36-.72ZM3.81,233.78v.72h-.36v-.36l.36-.36ZM3.99,257.53c-.57,0-.93-.12-1.08-.72.67-.52,1.09-.19,1.08.72ZM3.81,328.06c.23-.08.93,1.18.36,1.44-.23.1-.93-1.23-.36-1.44ZM3.09,329.14l-.36,1.8c-.87-.54-.69-1.76.36-1.8ZM4.53,333.46c.18.11-.91,2.7-1.44,2.52.03-.64.19-3.31,1.44-2.52ZM4.17,316.19c-.43-.19-.19-.92.36-.72.43.16.17.95-.36.72ZM3.81,314.03c-.21-.08.57-2,1.08-1.8.48.18-.41,1.99-1.08,1.8ZM3.99,252.49c.59-1.82.02-2.23,2.7-2.52.45.13-.22.4-.18.72l-2.52,1.8ZM6.33,315.83c.3.22.28.96,0,1.08-.44.19-.77-1.64,0-1.08ZM6.51,255.01v-.61s0-.06,0-.11v.11c.03.18.2.03,0,.61ZM6.51,253.57c0-.16,0-1.03,0-1.08l.72-.18-.72,1.26ZM7.41,313.67c.06,0,.72.53.36.72-.75,0-1.26-.84-.36-.72ZM6.87,248.71c.03-.15,1.3-.67,1.62-.54.15,1-1.76,1.15-1.62.54ZM8.49,251.41c.5.75,0,1.51-.36,2.16-.36-.7-.34-1.69.36-2.16ZM9.93,185.91c.63.27-.42,2.05-1.08,2.16l1.08-2.16ZM9.57,183.39c.55.11-.22,1.15-.36,1.08-.35-.17-.37-1.22.36-1.08ZM9.93,211.46c.36.18-.29.71-.36.72-.9.14-.38-.73.36-.72ZM9.03,188.97l.54-.18-.18.54-.18.18-.18-.54ZM9.57,212.9c.77.56-.62,1.1-.9.54-.26-.51.64-.73.9-.54ZM8.85,290.63c.43.16.17.95-.36.72-.43-.19-.19-.92.36-.72ZM10.47,213.8l1.62-.18c.06,1.16-1.06.55-1.62.18ZM10.65,166.84c.31.21.27.91,0,1.08-.47.3-.44-1.39,0-1.08ZM11.37,212.18c-1.04-.09-.61-.93.36-.72.37.19-.32.72-.36.72ZM11.73,186.99c-.5.77-.81-.06-.36-.72.22.29.61.33.36.72ZM11.73,184.47c-.73.19-1.27-1.21-.72-1.44.11-.04.97,1.11.72,1.44ZM10.65,139.49c-.43-.19-.19-.92.36-.72.43.16.17.95-.36.72ZM9.75,136.25c-.16-.07-.7.12-.72-.18l.54-.54c.31.13.14.72.18.72.43.04.67-.9,1.08-.54.06,1.45-.37.82-1.08.54ZM9.21,141.29c-.34-.4-.36-1.66.36-1.44.49.15-.27,1.23-.36,1.44ZM9.21,108.54l1.44,1.8c-.99.35-2.18-1.48-1.44-1.8ZM9.57,100.98l.36,2.52c-1.18-.77-1.76-1.44-.36-2.52ZM9.75,105.12l-.18.18-.54-.54.54-.18.18.54ZM10.29,41.97c-.43-.19-.19-.92.36-.72.43.16.17.95-.36.72ZM10.29,65.36c-1,.61-2.3-1.45-1.08-1.44l1.08,1.44ZM8.85,138.41c.3.29.28.86,0,1.08-.2-.51-.89-1.16,0-1.08ZM7.41,140.93c-.43-.19-.19-.92.36-.72.43.16.17.95-.36.72ZM7.77,142.37l-.18.54-.18.18-.18-.54.54-.18ZM7.05,136.97c.36.18-.29.71-.36.72-.9.14-.38-.73.36-.72ZM10.29,180.52c-.48,2.04-2.99,3.49-4.14,4.86-.58.69.67,1.75-1.26,1.98-1.03-.48,4.2-6.63,5.4-6.84ZM5.25,98.11c-.37-.19.32-.72.36-.72.68.08.57,1.21-.36.72ZM4.89,87.67c-.9.14-.38-.73.36-.72.36.18-.29.71-.36.72ZM4.35,62.66c-.3.66-2.16-.38-.9-.54l.9.54ZM3.45,58.16c.27.45.16,3.56-.72,3.24l.72-3.24ZM2.37,12.82c-.9.14-.38-.73.36-.72.36.18-.29.71-.36.72ZM2.37,85.15c-.89.13-1.03-.99-.36-1.08.28-.04,1.4.93.36,1.08ZM1.65,144.89c.4.18.26,1.36-.36,1.08-.4-.18-.26-1.36.36-1.08ZM2.73,188.43l-1.8,4.32c-.51-1.37.12-4.11,1.8-4.32ZM1.83,194.73c-.22-.73.78-.55,1.26-.54.26.41-1.14.94-1.26.54ZM2.73,213.98c1.01.2.17,1.27-.9.54-.11-.64.43-.63.9-.54ZM2.01,229.82c1,.34-1.48,1.89-.54.54.06-.08-.09-.76.54-.54ZM1.29,211.46l.18.54-.18.18-.54-.54.54-.18ZM.93,308.27c.26.07,1.14,1.38.72,1.8-.62.31-2.7-2.36-.72-1.8ZM.57,313.67l-.18-1.08c.04-.83.61-1.42.36,0-.05.31.14,1.03-.18,1.08ZM.57,335.26l-.18.54-.18.18-.18-.54.54-.18ZM5.07,351.99c.11-.24.77-.27.9-.18,1.16.79-1.17.78-.9.18ZM7.77,356.85l-.54-.18.18-.54.54.54-.18.18ZM7.77,354.33c-.43-.19-.19-.92.36-.72.43.16.17.95-.36.72ZM6.51,351.27c.18-.77,1.35-.7,1.62-.54,1.76,1.06-1.65.68-1.62.54ZM8.85,359.01c-.5-.06.13-1.11.36-1.08.5.06-.13,1.11-.36,1.08ZM9.57,355.41c-.3-.35-.29-1.1,0-1.44.76.49.33.76,0,1.44ZM9.93,352.17c.22.29.61.33.36.72-.5.77-.81-.06-.36-.72ZM10.29,360.09c-.43-.19-.19-.92.36-.72.43.16.17.95-.36.72ZM11.19,353.79c.06-.08-.09-.76.54-.54,1,.34-1.48,1.89-.54.54ZM11.73,357.21c-.14-.06.25-1.39.36-1.44.42-.2.66,1.47-.36,1.44ZM12.45,361.89l.36-1.44c.86.59.63,1.31-.36,1.44ZM13.52,357.21l-.54-.18.18-.54.54.54-.18.18ZM1.29,338.5l-.18-.72h.36c-.08-1.89,1.38-1.77.36,0-.04,0,.21.9-.54.72ZM13.34,299.27c.02.89.66.84.54,1.44-.9-.06-.97-.71-.9-1.44.05-.55.04-.72.54-1.08,1.36,1.24-.18.99-.18,1.08ZM13.52,296.75l-1.62,1.26c-.25-.95.81-1.26,1.62-1.26ZM12.8,292.07c.22.29.61.33.36.72-.5.77-.81-.06-.36-.72ZM13.16,182.67c.75.45.12,1.49,0,2.16-.25,0-.31-1.81,0-2.16ZM12.8,269.04c.31.21.27.91,0,1.08-.47.3-.44-1.39,0-1.08ZM12.45,275.88c-.3-.35-.29-1.1,0-1.44.76.49.33.76,0,1.44ZM12.27,180.7l-.18.18-.54-.18.18-.54.54.54ZM13.16,162.52l-1.08,3.24c-1.19-.54.71-3.42,1.08-3.24ZM12.62,41.25c-.02.05-.33-.05-.36,0l-.18-1.08.54,1.08ZM12.09,111.06c.57.12-.13,1.57-.36,1.44-.56-.33.12-1.49.36-1.44ZM10.65,106.74c-.43-.13.22-1.67.72-1.44.1.05-.11,1.67-.72,1.44ZM11.19,39.09c-1.3,1.93-1.46-.39-1.8-1.08.52.91,1.45.87,1.8,1.08ZM9.21,59.6c.58.13.56.83,0,1.08-.76-.59-1.34-1.37,0-1.08ZM7.95,40.89c-.56.02-.28-.5-.36-.72.99-.75.42.41.36.72ZM7.59,62.3c.03-.11.98-.52,1.26-.54.62,1.09-1.42,1.1-1.26.54ZM7.77,99.9c-.58.26-1.23-1.66-.72-1.8.28-.07.85,1.44.72,1.8ZM6.69,62.12c-.66-.35-.99-2.39,0-2.52.3.7.3,1.82,0,2.52ZM6.69,58.88c-.47.3-.44-1.39,0-1.08.31.21.27.91,0,1.08ZM6.87,39.09c-1.68.05-.77-.17-.72-.72.98-.18.57.42.72.72ZM6.69,35.13c.24.11-.3,1.08-.36,1.08-.6.01-.84-1.63.36-1.08ZM5.97,32.25c.16.04,1.27,1.03.72,1.44l-1.62-1.26c.11-.25.67-.24.9-.18ZM4.89,35.13l-1.08-2.88c.17-.07,2.52,2.02,1.08,2.88ZM3.81,29.73c.37.19-.32.72-.36.72-.68-.08-.57-1.21.36-.72ZM2.73,9.58c.85,0,.23,1.47-.72,1.44-.57-.43.64-1.44.72-1.44ZM1.65,34.41c.23-.03.86,1.01.36,1.08-.23.03-.86-1.01-.36-1.08ZM.93,53.48l-.36-1.8c.7.67,1.39,1.04.36,1.8Z" fill="none"/><path d="M1.47,337.78h.36c1.02-1.77-.44-1.89-.36,0Z" fill="#00aeef"/><path d="M4.89,187.35c1.93-.23.68-1.29,1.26-1.98,1.14-1.37,3.66-2.82,4.14-4.86-1.2.21-6.43,6.35-5.4,6.84Z" fill="#00aeef"/><path d="M14.17,167.55v-2.11l-2.09,3.92c.97-.56,1.64-1.13,2.09-1.81Z" fill="#00aeef"/><path d="M.93,192.75l1.8-4.32c-1.68.21-2.31,2.95-1.8,4.32Z" fill="#00aeef"/><path d="M12.09,296.39l-2.16-2.52c-.73.03.62,4.12,2.16,2.52Z" fill="#00aeef"/><path d="M5.61,104.94c.39-1.99-1.91-2.09-1.08-4.32-2.14,1.22.27,3.04,1.08,4.32Z" fill="#00aeef"/><path d="M12.45,104.94v3.24c.01-.65,1.2-1.19,1.73-1.45v-.35c-.5-.33-1.58-1-1.73-1.44Z" fill="#00aeef"/><path d="M12.62,112.68c.35.91.96,1.24,1.55,1.24v-.97c-.41.16-.93.16-1.55-.27Z" fill="#00aeef"/><path d="M8.49,107.82l-1.44-3.24c-1.8.61.85,3.51,1.44,3.24Z" fill="#00aeef"/><path d="M6.69,249.97c-2.68.29-2.1.7-2.7,2.52l2.52-1.8c-.04-.32.63-.59.18-.72Z" fill="#00aeef"/><path d="M12.09,165.76l1.08-3.24c-.37-.18-2.26,2.7-1.08,3.24Z" fill="#00aeef"/><path d="M9.57,100.98c-1.4,1.08-.82,1.74.36,2.52l-.36-2.52Z" fill="#00aeef"/><path d="M4.53,333.46c-1.25-.79-1.41,1.88-1.44,2.52.53.18,1.62-2.4,1.44-2.52Z" fill="#00aeef"/><path d="M1.65,310.07c.42-.42-.46-1.73-.72-1.8-1.98-.56.1,2.11.72,1.8Z" fill="#00aeef"/><path d="M4.89,35.13c1.44-.86-.91-2.94-1.08-2.88l1.08,2.88Z" fill="#00aeef"/><path d="M8.13,189.87c-.33-.13-2.26,2.21-1.44,2.52.39-.9,1.88-1.24,1.44-2.52Z" fill="#00aeef"/><path d="M13.52,111.06l.18-1.26c.11-.2.28-.32.47-.41v-.6c-.97.38-1.13.52-.65,2.27Z" fill="#00aeef"/><path d="M3.81,190.59c.45-.79.84-1.95.72-2.88-.79-.02-1.34,2.53-.72,2.88Z" fill="#00aeef"/><path d="M3.45,143.81v1.44c3.08.56,1.03-.26,0-1.44Z" fill="#00aeef"/><path d="M11.19,39.09c-.35-.21-1.28-.17-1.8-1.08.34.69.5,3.01,1.8,1.08Z" fill="#00aeef"/><path d="M9.93,185.91l-1.08,2.16c.66-.11,1.71-1.89,1.08-2.16Z" fill="#00aeef"/><path d="M10.65,110.34l-1.44-1.8c-.74.32.45,2.15,1.44,1.8Z" fill="#00aeef"/><path d="M11.91,298.01l1.62-1.26c-.81,0-1.87.31-1.62,1.26Z" fill="#00aeef"/><path d="M5.97,32.25c-.23-.06-.79-.07-.9.18l1.62,1.26c.55-.41-.56-1.4-.72-1.44Z" fill="#00aeef"/><path d="M4.89,312.23c-.51-.2-1.29,1.72-1.08,1.8.67.2,1.56-1.62,1.08-1.8Z" fill="#00aeef"/><path d="M2.73,330.94l.36-1.8c-1.05.04-1.23,1.26-.36,1.8Z" fill="#00aeef"/><path d="M.57,235.21c-.14-.06-.35.03-.57.19v1.1c.49-.33,1.02-1.08.57-1.29Z" fill="#00aeef"/><path d="M8.49,251.41c-.7.47-.72,1.46-.36,2.16.35-.65.86-1.41.36-2.16Z" fill="#00aeef"/><path d="M1.29,87.31c-.39-.23-1.23.23-1.29.69v.04c0,.06,0,.12.03.17.23.49,2.05-.44,1.26-.9Z" fill="#00aeef"/><path d="M2.73,9.58c-.08,0-1.29,1.01-.72,1.44.95.03,1.57-1.44.72-1.44Z" fill="#00aeef"/><path d="M11.37,273.72c.04-.26.68-2.07.36-2.16-.89-.25-.57,2.16-.36,2.16Z" fill="#00aeef"/><path d="M9.75,247.63c-.09.35,2.23.75,1.62-.54l-1.62.54Z" fill="#00aeef"/><path d="M7.77,99.9c.13-.36-.44-1.87-.72-1.8-.51.14.14,2.06.72,1.8Z" fill="#00aeef"/><path d="M8.49,248.17c-.32-.13-1.59.39-1.62.54-.14.61,1.77.46,1.62-.54Z" fill="#00aeef"/><path d="M14.17,268.67v-1.33c-.36.35-.39,1.3,0,1.33Z" fill="#00aeef"/><path d="M14.17,295.25v-.57c-.08.24-.09.46,0,.57Z" fill="#00aeef"/><path d="M10.65,106.74c.61.23.82-1.39.72-1.44-.5-.23-1.15,1.31-.72,1.44Z" fill="#00aeef"/><path d="M12.98,299.27h.36c0-.09,1.54.17.18-1.08-.5.35-.49.53-.54,1.08Z" fill="#00aeef"/><path d="M4.89,142.73c-1.11-.14-.24,1.35.36,1.08.49-.22-.12-1.05-.36-1.08Z" fill="#00aeef"/><path d="M11.01,183.03c-.55.22,0,1.63.72,1.44.25-.33-.61-1.48-.72-1.44Z" fill="#00aeef"/><path d="M13.16,184.83c.12-.67.75-1.7,0-2.16-.31.35-.25,2.16,0,2.16Z" fill="#00aeef"/><path d="M6.51,252.49c0,.05,0,.92,0,1.08l.72-1.26-.72.18Z" fill="#00aeef"/><path d="M2.37,85.15c1.05-.15-.08-1.12-.36-1.08-.67.09-.53,1.21.36,1.08Z" fill="#00aeef"/><path d="M0,229.59v.16s.02-.07.03-.12c0-.02-.02-.03-.03-.05Z" fill="#00aeef"/><path d="M5.25,230.9c.52.21,1.15-1.3.72-1.44-.32.41-1.25.84-.72,1.44Z" fill="#00aeef"/><path d="M2.01,229.82c-.63-.22-.48.46-.54.54-.94,1.35,1.54-.2.54-.54Z" fill="#00aeef"/><path d="M3.99,257.53c0-.91-.41-1.24-1.08-.72.15.6.51.72,1.08.72Z" fill="#00aeef"/><path d="M9.75,136.25c.71.28,1.14.91,1.08-.54-.41-.36-.65.58-1.08.54Z" fill="#00aeef"/><path d="M4.17,329.5c.57-.25-.13-1.52-.36-1.44-.57.21.13,1.54.36,1.44Z" fill="#00aeef"/><path d="M12.09,111.06c-.24-.05-.92,1.11-.36,1.44.23.14.93-1.32.36-1.44Z" fill="#00aeef"/><path d="M13.88,300.71c.12-.6-.52-.55-.54-1.44h-.36c-.07.72,0,1.38.9,1.44Z" fill="#00aeef"/><path d="M9.21,141.29c.09-.21.85-1.29.36-1.44-.72-.22-.7,1.04-.36,1.44Z" fill="#00aeef"/><path d="M3.09,194.19c-.48-.01-1.48-.19-1.26.54.12.4,1.52-.13,1.26-.54Z" fill="#00aeef"/><path d="M1.29,145.97c.62.28.76-.9.36-1.08-.62-.28-.76.9-.36,1.08Z" fill="#00aeef"/><path d="M6.33,36.21c.06,0,.6-.97.36-1.08-1.2-.55-.96,1.09-.36,1.08Z" fill="#00aeef"/><path d="M5.61,192.75c.48-.18-.19-1.04-.36-1.44-.34.13-.37,1.71.36,1.44Z" fill="#00aeef"/><path d="M6.33,316.9c.28-.12.3-.86,0-1.08-.77-.56-.44,1.27,0,1.08Z" fill="#00aeef"/><path d="M.39,312.59l.18,1.08c.32-.05.13-.77.18-1.08h-.36Z" fill="#00aeef"/><path d="M9.57,183.39c-.73-.15-.71.91-.36,1.08.14.07.91-.97.36-1.08Z" fill="#00aeef"/><path d="M6.33,187.71c-.14-.07-.91.97-.36,1.08.73.15.71-.91.36-1.08Z" fill="#00aeef"/><path d="M12.62,41.25l-.54-1.08.18,1.08c.03-.05.34.05.36,0Z" fill="#00aeef"/><path d="M12.45,275.88c.33-.68.76-.95,0-1.44-.29.33-.3,1.09,0,1.44Z" fill="#00aeef"/><path d="M6.15,38.37c-.05.55-.96.77.72.72-.15-.3.26-.9-.72-.72Z" fill="#00aeef"/><path d="M12.09,293.51c-.13-.09-.79-.06-.9.18-.27.6,2.06.61.9-.18Z" fill="#00aeef"/><path d="M11.37,186.27c-.45.66-.14,1.49.36.72.25-.39-.14-.43-.36-.72Z" fill="#00aeef"/><path d="M10.65,167.92c.27-.17.31-.87,0-1.08-.44-.31-.47,1.38,0,1.08Z" fill="#00aeef"/><path d="M4.53,315.47c-.55-.2-.79.53-.36.72.53.23.79-.56.36-.72Z" fill="#00aeef"/><path d="M7.77,314.39c.36-.18-.3-.71-.36-.72-.9-.13-.39.71.36.72Z" fill="#00aeef"/><path d="M.39,312.59h.36c.25-1.42-.32-.83-.36,0Z" fill="#00aeef"/><path d="M7.77,140.21c-.55-.2-.79.53-.36.72.53.23.79-.56.36-.72Z" fill="#00aeef"/><path d="M2.73,12.1c-.74-.01-1.26.86-.36.72.07-.01.72-.54.36-.72Z" fill="#00aeef"/><path d="M11.01,138.77c-.55-.2-.79.53-.36.72.53.23.79-.56.36-.72Z" fill="#00aeef"/><path d="M8.85,139.49c.28-.22.3-.79,0-1.08-.89-.08-.2.57,0,1.08Z" fill="#00aeef"/><path d="M.21,13.18c.53.23.79-.56.36-.72-.32-.12-.53.09-.57.31v.14c.02.11.08.22.21.27Z" fill="#00aeef"/><path d="M6.69,137.69c.07-.01.72-.54.36-.72-.74-.01-1.26.86-.36.72Z" fill="#00aeef"/><path d="M13.88,24.33c.25-.39-.14-.43-.36-.72-.45.66-.14,1.49.36.72Z" fill="#00aeef"/><path d="M3.45,230.18c.53.23.79-.56.36-.72-.55-.2-.79.53-.36.72Z" fill="#00aeef"/><path d="M3.45,30.45s.73-.53.36-.72c-.93-.49-1.04.64-.36.72Z" fill="#00aeef"/><path d="M7.41,229.82c-.45.66-.14,1.49.36.72.25-.39-.14-.43-.36-.72Z" fill="#00aeef"/><path d="M2.01,35.49c.5-.07-.13-1.11-.36-1.08-.5.07.13,1.11.36,1.08Z" fill="#00aeef"/><path d="M13.16,292.79c.25-.39-.14-.43-.36-.72-.45.66-.14,1.49.36.72Z" fill="#00aeef"/><path d="M8.49,291.35c.53.23.79-.56.36-.72-.55-.2-.79.53-.36.72Z" fill="#00aeef"/><path d="M7.95,40.89c.06-.31.63-1.47-.36-.72.08.22-.2.74.36.72Z" fill="#00aeef"/><path d="M5.61,97.39s-.73.53-.36.72c.93.49,1.04-.64.36-.72Z" fill="#00aeef"/><path d="M3.09,88.03c.66.13.74-.6.36-1.08-.1.3-.6.83-.36,1.08Z" fill="#00aeef"/><path d="M5.25,86.95c-.74-.01-1.26.86-.36.72.07-.01.72-.54.36-.72Z" fill="#00aeef"/><path d="M12.8,270.12c.27-.17.31-.87,0-1.08-.44-.31-.47,1.38,0,1.08Z" fill="#00aeef"/><path d="M1.29,82.63c-.55-.2-.79.53-.36.72.53.23.79-.56.36-.72Z" fill="#00aeef"/><polygon points="3.27 84.25 3.81 84.79 3.99 84.61 3.81 84.07 3.27 84.25" fill="#00aeef"/><path d="M6.51,254.39v-.11s0,.08,0,.11Z" fill="#00aeef"/><path d="M6.51,254.39v.61c.2-.58.03-.43,0-.61Z" fill="#00aeef"/><polygon points="5.97 101.7 5.61 102.06 5.61 102.42 5.97 102.42 5.97 101.7" fill="#00aeef"/><polygon points="7.77 103.14 7.59 103.68 8.13 103.86 8.31 103.68 7.77 103.14" fill="#00aeef"/><path d="M3.45,58.16l-.72,3.24c.88.32.99-2.79.72-3.24Z" fill="#00aeef"/><path d="M4.53,61.4c.94-.04.56-1.96.36-2.52-.94.04-.56,1.96-.36,2.52Z" fill="#00aeef"/><path d="M3.09,56.72c.46.22,1.87-1.79.72-2.52.22.6-1.4,2.19-.72,2.52Z" fill="#00aeef"/><path d="M10.29,65.36l-1.08-1.44c-1.22,0,.08,2.05,1.08,1.44Z" fill="#00aeef"/><path d="M6.69,62.12c.3-.69.3-1.81,0-2.52-.99.13-.66,2.17,0,2.52Z" fill="#00aeef"/><path d="M1.29,55.64l-.18.9.18,1.26c.35-.8.59-1.45,0-2.16Z" fill="#00aeef"/><path d="M.93,53.48c1.03-.76.34-1.13-.36-1.8l.36,1.8Z" fill="#00aeef"/><path d="M8.85,61.76c-.27.02-1.23.43-1.26.54-.16.56,1.88.55,1.26-.54Z" fill="#00aeef"/><path d="M9.21,60.68c.56-.25.58-.95,0-1.08-1.34-.29-.76.49,0,1.08Z" fill="#00aeef"/><path d="M4.35,62.66l-.9-.54c-1.26.16.6,1.2.9.54Z" fill="#00aeef"/><path d="M.21,59.24s-.12.05-.21.15v.94c.56-.03.53-.93.21-1.08Z" fill="#00aeef"/><path d="M4.89,58.16c.25-.39-.14-.43-.36-.72-.45.66-.14,1.49.36.72Z" fill="#00aeef"/><path d="M6.69,58.88c.27-.17.31-.87,0-1.08-.44-.31-.47,1.38,0,1.08Z" fill="#00aeef"/><polygon points="1.65 60.68 1.83 60.5 1.29 59.96 1.11 60.5 1.65 60.68" fill="#00aeef"/><polygon points="9.57 105.3 9.75 105.12 9.57 104.58 9.03 104.76 9.57 105.3" fill="#00aeef"/><polygon points="10.29 290.63 10.47 290.45 10.29 289.91 9.75 290.09 10.29 290.63" fill="#00aeef"/><polygon points="3.45 234.5 3.81 234.5 3.81 233.78 3.45 234.14 3.45 234.5" fill="#00aeef"/><path d="M9.57,135.53l-.54.54c.02.3.56.11.72.18-.04,0,.13-.59-.18-.72Z" fill="#00aeef"/><polygon points="7.41 143.09 7.59 142.91 7.77 142.37 7.23 142.55 7.41 143.09" fill="#00aeef"/><polygon points="4.35 147.23 4.17 146.69 3.63 146.87 4.17 147.41 4.35 147.23" fill="#00aeef"/><path d="M11.37,215.06c-1.13-.49-1.89.85-2.34,1.62.68.63,1.36-.9,1.62-.9.5,0,1,1.57,1.44,1.8.39-.56-.27-2.33-.72-2.52Z" fill="#00aeef"/><path d="M14.17,217.3v-1.1c-1.04.21-.83.95,0,1.1Z" fill="#00aeef"/><path d="M5.07,212l-1.26.9-.36-1.44c-1.67,1.73,1.32,2.86,1.62.54Z" fill="#00aeef"/><path d="M.93,209.3c-.23-.02-.6.16-.93.43v1.08c1.02-.74,3.04-1.37.93-1.51Z" fill="#00aeef"/><path d="M13.34,214.52c.22.19.54.24.83.22v-.82c-.41,0-.95.12-.83.6Z" fill="#00aeef"/><path d="M12.09,213.62l-1.62.18c.56.38,1.68.98,1.62-.18Z" fill="#00aeef"/><path d="M2.73,213.98c-.47-.1-1.01-.1-.9.54,1.06.73,1.91-.34.9-.54Z" fill="#00aeef"/><path d="M8.67,213.44c.28.56,1.67.02.9-.54-.26-.19-1.16.03-.9.54Z" fill="#00aeef"/><path d="M11.73,211.46c-.97-.21-1.4.63-.36.72.04,0,.73-.53.36-.72Z" fill="#00aeef"/><path d="M4.89,210.02c-.55-.2-.79.53-.36.72.53.23.79-.56.36-.72Z" fill="#00aeef"/><path d="M9.57,212.18c.07-.01.72-.54.36-.72-.74-.01-1.26.86-.36.72Z" fill="#00aeef"/><path d="M5.97,214.34c-.55-.2-.79.53-.36.72.53.23.79-.56.36-.72Z" fill="#00aeef"/><path d="M7.77,215.06c-.55-.2-.79.53-.36.72.53.23.79-.56.36-.72Z" fill="#00aeef"/><polygon points=".21 213.62 .57 213.62 .57 212.9 .21 213.26 .21 213.62" fill="#00aeef"/><polygon points="1.47 212 1.29 211.46 .75 211.64 1.29 212.18 1.47 212" fill="#00aeef"/><polygon points="6.51 210.92 7.05 211.46 7.23 211.28 7.05 210.74 6.51 210.92" fill="#00aeef"/><polygon points="2.91 210.2 3.45 210.38 3.63 210.2 3.09 209.66 2.91 210.2" fill="#00aeef"/><polygon points="11.55 180.7 12.09 180.88 12.27 180.7 11.73 180.16 11.55 180.7" fill="#00aeef"/><polygon points="9.57 188.79 9.03 188.97 9.21 189.51 9.39 189.33 9.57 188.79" fill="#00aeef"/><polygon points=".39 335.8 .57 335.26 .03 335.44 .21 335.98 .39 335.8" fill="#00aeef"/><path d="M10.65,41.25c-.55-.2-.79.53-.36.72.53.23.79-.56.36-.72Z" fill="#00aeef"/><path d="M1.47,337.78h-.36l.18.72c.75.18.49-.72.54-.72h-.36Z" fill="#00aeef"/><path d="M.93,340.3L0,341.62v.98c.69-.97,1.23-2.15.93-2.31Z" fill="#00aeef"/><path d="M14.17,360.07v-.42c-.16-.19-.29-.52,0-1.08v-.51c-2.21.76-.69,2.11,0,2.01Z" fill="#00aeef"/><path d="M8.13,350.73c-.27-.16-1.44-.23-1.62.54-.03.14,3.38.52,1.62-.54Z" fill="#00aeef"/><path d="M12.45,361.89c.99-.13,1.22-.85.36-1.44l-.36,1.44Z" fill="#00aeef"/><path d="M11.73,353.25c-.63-.22-.48.46-.54.54-.94,1.35,1.54-.2.54-.54Z" fill="#00aeef"/><path d="M12.09,355.77c-.11.05-.5,1.38-.36,1.44,1.02.04.78-1.64.36-1.44Z" fill="#00aeef"/><path d="M9.57,353.97c-.29.33-.3,1.09,0,1.44.33-.68.76-.95,0-1.44Z" fill="#00aeef"/><path d="M5.97,351.81c-.13-.09-.79-.06-.9.18-.27.6,2.06.61.9-.18Z" fill="#00aeef"/><path d="M10.29,352.89c.25-.39-.14-.43-.36-.72-.45.66-.14,1.49.36.72Z" fill="#00aeef"/><path d="M8.13,353.61c-.55-.2-.79.53-.36.72.53.23.79-.56.36-.72Z" fill="#00aeef"/><path d="M9.21,357.93c-.23-.03-.86,1.02-.36,1.08.23.03.86-1.02.36-1.08Z" fill="#00aeef"/><path d="M10.65,359.37c-.55-.2-.79.53-.36.72.53.23.79-.56.36-.72Z" fill="#00aeef"/><polygon points="12.98 357.03 13.52 357.21 13.7 357.03 13.16 356.49 12.98 357.03" fill="#00aeef"/><polygon points="7.23 356.67 7.77 356.85 7.95 356.67 7.41 356.13 7.23 356.67" fill="#00aeef"/></svg>