<?xml version="1.0" encoding="UTF-8"?><svg id="a" xmlns="http://www.w3.org/2000/svg" width="5.08mm" height="128.52mm" viewBox="0 0 14.4 364.32"><rect width="5.67" height="5.67" fill="#231f20"/><path d="M14.4,240.72v2.16c-.5-.15-.44-.62-.56-1-.38-1.22-1.14-3.3-1.31-4.45s.36-4.7-.66-5.1c-.43-.17-.36.24-.47.48-.72,1.63-1.23,3.59-1.81,5.28l-2.79-2.38-2.66,2.35c-1.45-.52-2.55-.9-4.15-.69v-.72c1.37-.25,3.1.57,4.39.19,1.49-.44,1.86-4.59,4.97.05.65-.51.6-8.36,3.31-5.34.82,3.01.49,6.31,1.74,9.18Z"/><path d="M14.4,112.8v1.92c-.71.14-.42-.35-.54-.76-.38-1.27-1.14-3.24-1.32-4.45-.27-1.86.47-4.02-.9-5.58l-1.83,5.97c-1.4.6-2.16-2.25-2.76-2.36l-2.87,2.4c-1.47-.26-2.6-1.02-4.19-.73v-.72c1.18.05,3.04.68,4.15.43,1.35-.31,1.74-3.32,3.9-1.63.61.48.75,1.27,1.31,1.68.48-1.1.79-5.34,1.68-5.88.59-.36,1.36-.11,1.62.54,1.08,2.71.32,6.52,1.74,9.18Z"/><path d="M0,239.04c2.03-1.54,3.47.6,5.16,1.44.86,0,1.32-2.58,2.99-1.8,1.32.61,2.71,5.58,2.89,7.08.35.02.42-.86.45-1.11.15-1.51-.17-3.45.69-4.82.16-.25-.01-.42.54-.31.37,1.11-.38,2.19-.47,3.01-.16,1.48.1,3.03-.29,4.51l-.18.3c-.17.12-.63.16-.84.12-.47-.11-1.79-7.61-3.38-8.17-.56.7-1.44,2.09-2.42,2.15-1.46.09-1.69-1.92-2.91-2.12-.73-.11-1.51.6-2.23.68v-.96Z"/><path d="M0,110.88c2.41-1.03,3.46.75,5.38,1.66.47-.11.94-2.12,2.18-2.12,1.75,0,3.3,5.89,3.48,7.42.34-.03.42-1.08.45-1.35.16-1.71-.12-3.25.75-4.89.69-.2.53.62.49,1.09-.12,1.49-.36,3.01-.5,4.54-.05.61-.24,2.65-1.07,2.28-.52-.23-1.95-5.68-2.41-6.71-1.61-3.59-1.87.72-3.84.74-1.07.01-1.93-1.94-2.69-2.15-.71-.19-1.49.52-2.23.44v-.96Z"/><path d="M14.4,304.56v.72c-1.24.3-2.52-.13-3.63-.1-1.64.05-4.37,1.19-5.67.63-.51-.22-.86-1-1.37-1.02l-2.88,1.92-.85-.96v-1.44l1.08,1.44c1.09-1.03,1.93-2.49,3.66-1.73.45.2.71.75,1.02.89.92.43,3.89-.57,5.15-.61s2.28.38,3.49.25Z"/><path d="M14.4,48.48v.72c-1.5.29-2.99-.11-4.44,0s-3.62,1.18-4.92.59c-.43-.19-.73-1.05-1.32-1.07-.89-.02-1.87,1.73-2.86,1.9l-.87-.94v-1.2c.65.12.47,1.31,1.08,1.21s1.22-1.82,2.65-1.92,1.48,1.06,2.14,1.19c1.2.24,4-.54,5.52-.59.93-.03,2.02.23,3,.1Z"/><path d="M14.4,176.4v.72c-.68-.31-1.45.35-1.81.38s-1.13-.4-1.9-.38c-1.49.04-4.17,1.3-5.35.79-.52-.23-1.06-1.17-1.62-1.17-1.03,0-2.25,2.08-2.88,2.08l-.84-1.2v-1.2l1.08,1.44c.65-.47,1.41-1.76,2.17-1.91,1.98-.39,1.96,1.08,2.89,1.2.81.11,3-.63,4.07-.72,1.36-.11,2.82.07,4.2,0Z"/><path d="M14.4,47.04v.96c-2.28-.16-4.87-1.01-7.08-1.2-1.73-.14-4.02.53-5.46.18-1.2-.28-.94-1.53-1.85-2.11v-.96c1.16.23,1.33,1.79,2.28,2.4h9.12c.66,0,1.97,1.17,3,.72Z"/><path d="M14.4,175.2v.72c-.5.01-.99.05-1.49-.07-1.79-.41-4.17-1.04-6.07-1.13-1.71-.08-3.48.51-5.23.19l-1.61-2.11v-.96c.99.05,1.41,2.13,2.08,2.36l5.48-.2,6.84,1.2Z"/><path d="M0,299.76c1.21.52,1.3,2.3,2.57,2.59,1.06.24,3.07.05,4.28.06,1.66.01,4.05-.34,5.69.25.17.06.17.41.36.45.45.11,1.03-.04,1.51,0v.96c-2.44-.17-5.45-1.31-7.8-1.39-1.58-.05-4.42,1.06-5.53-.27-.46-.55-.37-1.35-1.06-1.7v-.96Z"/><path d="M13.44,364.32h-.96c-.05-1.51.35-3.13-.84-4.32-.49,0-1.1,3.72-1.32,4.32h-.72c.76-7.06,3.34-7.4,3.84,0Z"/><path d="M8.64,364.32h-3.6c.83-1.84,2.89-2.1,3.6,0Z"/></svg>