<?xml version="1.0" encoding="UTF-8"?><svg id="a" xmlns="http://www.w3.org/2000/svg" width="9.82mm" height="128.5mm" viewBox="0 0 27.84 364.25"><path d="M27.84,191.04c-1.73,1.74-2.45,4.15-3.36,6.36l3.36.12v1.2c-.81.05-1.67-.11-2.47.05-1.24.25-1.9,1.69-3.05,1.99-4.35,1.14-11.89-4.52-16.2-5.9-1.91-.61-4.13-.96-6.13-.95v-1.2c2.39.2,4.8.42,7.09,1.19,3.13,1.06,6.18,3.19,9.24,4.44,1.28.52,4,1.66,5.25.95,1.96-1.1,3.94-8.38,6.26-9.95v1.68Z"/><path d="M27.84,62.88c-1.56,1.97-2.71,4.4-3.36,6.84l3.36-.12v1.2c-.71-.37-2.1-.07-2.84.16-1.82.57-1.7,2.07-4.2,1.98-3.63-.13-8.29-3.23-11.59-4.75-2.96-1.36-5.86-2.41-9.21-2.19v-1.2c2.26.02,4.62.33,6.77,1.03,3.23,1.05,11.41,6.23,14.22,5.69,2.14-.42,4.66-8.73,6.85-10.08v1.44Z"/><path d="M27.84,318.96c-1.62,1.82-2.57,4.32-3.36,6.6,0,.33,2.94.04,3.36-.12v1.2c-1.02-.04-2.32.04-3.26.46-.87.39-1.32,1.45-2.2,1.64-4.75,1.07-11.93-4.5-16.5-5.96-1.91-.61-3.9-.77-5.89-.95v-.96c6.41-.63,11.25,3.53,16.81,5.63,1.35.51,3.5,1.53,4.78.72,2.1-1.33,3.92-8.13,6.25-9.95v1.68Z"/><path d="M0,350.64l1.44-.96c1.16,1.94,3.2,4.04,4.93,5.51,2.28,1.94,8.25,5.86,10.92,3.01.68-.72,1.29-3.12,2.5-3.01s5.45,5.59,8.06,4.57v1.44c-1.35-.15-2.58-.48-3.77-1.15-.78-.44-3.7-3.17-4.03-3.17-.72,0-1.82,2.56-3.31,3.17-4.92,2.04-11.2-3.57-14.33-6.88-.36-.38-1.03-1.64-1.52-1.55l-.87.7v-1.68Z"/><path d="M0,222.72l1.44-.96c2.38,3.65,8.72,9.63,13.33,9.37,3.16-.18,2.63-2.25,4.17-3.51,1.28-1.05,2.14.63,3.02,1.33,1.75,1.37,3.49,2.88,5.87,2.89v1.2c-1.19.04-2.55-.28-3.61-.83s-3.7-3.26-4.43-3.28c-.45,0-1.56,2.11-2.06,2.53-2.39,2.04-6.39.6-8.78-.78-3.16-1.83-5.62-4.64-8.12-7.23l-.84.71v-1.44Z"/><path d="M27.84,103.92v1.2c-3.37.08-5.38-2.51-7.84-4.29-1.67,1.3-1.96,3.29-4.52,3.57-5.67.62-11.02-4.95-14.41-8.88l-1.07.72v-1.68l1.3-.72c.17.04,1.92,2.38,2.29,2.76,2.59,2.69,10.01,9.14,13.69,5.51.54-.53,1.27-2.41,1.68-2.64,1.44-.81,2.97,1.51,3.96,2.27,1.51,1.16,2.99,1.93,4.91,2.17Z"/><path d="M27.84,217.92v1.68c-2.93,1.25-5.74,3.07-9,3.36-7.89.7-13.14-4.69-18.84-9.12v-1.68c4.32,3.53,8.19,7.52,13.87,8.81,5.22,1.18,9.52-.43,13.97-3.05Z"/><path d="M27.84,90v1.44c-8.52,5.66-16.61,3.61-24.11-2.41-1.22-.98-2.36-2.4-3.73-3.11v-1.92c5.12,4.73,10.88,9.82,18.37,9.37,3.44-.2,6.47-1.89,9.47-3.37Z"/><path d="M27.84,345.84v1.68c-2.49,1.27-4.82,2.57-7.63,3.05-8.04,1.38-14.68-3.68-20.21-8.81v-1.68c4.36,3.74,8.51,7.84,14.39,9.01,5.07,1.01,9.2-.66,13.45-3.25Z"/><path d="M27.84,37.68v1.2c-1.77.48-3.81,1.1-5.64,1.2-7.66.4-14.97-7.92-22.2-9.84v-1.44c7.72,1.96,14.3,10.06,22.69,9.85,1.69-.04,3.49-.73,5.15-.97Z"/><path d="M27.84,48.24v1.44c-3.7,3.47-8.77,6.64-14.05,6.49s-9.58-4-13.79-6.73v-1.44c6.71,4.01,12.12,9.48,20.41,5.41,2.7-1.33,4.89-3.59,7.43-5.17Z"/><path d="M27.84,293.52v1.44c-1.48.28-2.93.83-4.44.96-3.32.27-5.49-.22-8.44-1.63-5.02-2.4-9.48-6.45-14.95-7.97v-1.68c9.35,3.11,17.07,13.19,27.84,8.88Z"/><path d="M27.84,176.16v1.68c-3.39,2.69-7.23,5.66-11.71,6.17-6.8.77-10.79-3.16-16.13-6.41v-1.68c5.29,3.28,10.32,8.09,17.09,6.65,4.12-.87,7.42-4.07,10.75-6.41Z"/><path d="M27.84,304.32v1.44c-4.45,3.89-9.04,6.78-15.25,6.25-4.81-.41-8.62-4.18-12.59-6.49v-1.44c4.59,2.28,8.33,6.42,13.79,6.73,6.01.34,9.46-3.44,14.05-6.49Z"/><path d="M27.84,165.6v1.2c-1.57.57-3.49,1.1-5.16,1.2-8.25.5-14.54-8.3-22.68-9.36v-1.92c9.28,2.99,17.25,12.94,27.84,8.88Z"/><path d="M27.84,239.52v1.44c-3.6-1.1-6.6,1.96-9.85,2.99-6.31,2-11.64-2.52-17.99-.83v-1.2c6.97-2.06,12.82,3.27,19.68.12,2.75-1.26,4.54-3.77,8.16-2.52Z"/><path d="M27.84,17.76v1.68c-3.73-.52-6.46-3.42-10.33-1.57-1.91.91-3.11,2.9-4.47,4.42-1.48-.11-2.97-.39-4.46-.15-2.66.42-5.62,2.94-8.58,2.58v-1.2c3.09-.08,6.31-2.72,9.28-2.86,1.08-.05,2.33.42,3.44.35,1.53-1.68,3.13-4.05,5.47-4.63,3.4-.85,6.38.83,9.66,1.38Z"/><path d="M27.84,273.84v1.44c-4.28-.27-7.07-3.93-11.26-.82-.86.64-3.1,3.52-3.55,3.65-1.14.33-2.47-.28-3.73-.13-3,.36-6.09,2.95-9.3,2.82v-1.2c2.87-.22,5.86-2.45,8.58-2.82,1.3-.18,3.15.38,3.97.13.73-.22,1.84-2.04,2.44-2.6,4.08-3.85,8.21-1.6,12.85-.47Z"/><path d="M27.84,4.8v1.68l-3.48-3.13c-1.22.62-1.42,1.68-2.76,2.29C15.35,8.45,6.58,2.94,0,3.6v-1.44c5.6-.32,16.49,5.02,21.44,2.12.89-.52,2.08-2.6,2.92-2.61.64,0,2.66,2.75,3.47,3.12Z"/><path d="M27.84,111.6v1.44c-3.73-1.25-6.78,2.03-10.09,2.99-6.2,1.8-11.57-2.67-17.75-.83v-1.2c1.75-.52,3.82-.62,5.64-.48,5.3.42,8.07,3,13.8.59,2.83-1.19,4.74-3.9,8.4-2.52Z"/><path d="M27.84,132.72v1.68l-3.51-3.1c-.96.35-1.19,1.35-2.08,1.95-5.42,3.7-16.14-2.4-22.25-1.73v-1.2c6.03-.71,15.41,4.84,20.97,2.13,1.71-.84,2.34-3.33,4.46-2,.82.52,1.5,1.77,2.41,2.27Z"/><path d="M27.84,260.88v1.44l-3.48-3.06c-1,.48-1.31,1.54-2.35,2.15-5.56,3.26-15.9-2.36-22.01-1.97v-1.2c5.92-.51,16.23,5.11,21.53,1.97,1-.59,1.87-2.55,2.82-2.46.78.08,2.59,2.7,3.49,3.13Z"/><path d="M27.84,146.16v1.2c-4.78-.69-7.64-4.28-12.11-.23-.61.55-2.3,2.95-2.69,3.07-.78.24-2.69-.31-3.97-.13-2.95.4-5.92,2.74-9.06,2.82v-1.44c2.9.06,5.63-2.2,8.34-2.58,1.46-.2,2.78.03,4.2.14,1.56-1.37,2.33-3.22,4.33-4.09,3.88-1.69,7.19.45,10.97,1.25Z"/><path d="M0,122.16c2.51,1.31,5.07,3.15,6.48,5.64-.21.38-.54-.08-.75-.21-1.91-1.23-3.66-2.76-5.73-3.75v-1.68Z"/><path d="M0,250.08c2.46,1.54,5.23,3.12,6.48,5.88l-6.48-4.2v-1.68Z"/><rect x="14.17" width="2.83" height="2.83" fill="#231f20"/><path d="M2.44,4.54L.28,7.78l-.28-.39v114.35c.22.6.55,1.12,0,1.49v56.64l.46.46-.18.18-.28-.09v2.1l.28,1.95c-.05.02-.16-.08-.28-.25v15.12c.22-.32.46-.54.64-.47l-.64,1.92v109.36c.22.21.21.6,0,.85v1.87c.47.63,1.86.2.64,2.96-.01-.42-.31-.9-.64-1.38v39.35c.04-.06.07-.12.1-.19.15-.39.48-.59.36-1.08.19.35,1.26.92-.46,2.1v9.62h27.78v-21.64c-.55.76-1.19,1.39-1.59,1.29l1.59-2.27v-105.12c-.2.13-.39.21-.51.15-.43-.2.03-.9.51-1.25v-5.65c-.3,1.2-.97-.29-1.05-.3-.68-.12-.92.67-1.44.18.1-.9.78-.79,1.44-.54.32.12.74-.04,1.05.49v-18.78c-.29.21-.5.43-.51.65-.46-.59-.03-1.29.51-1.73v-121.69s0-.02,0-.04v-27.68s-.09.01-.15,0c-.4-.08-.1-.66.15-.93V12.9s0-.09,0-.14V0H0v6.82c1.15.28.53-2.05,2.44-2.28ZM2.44,12.1c.35.17.37,1.22-.36,1.08-.55-.11.22-1.15.36-1.08ZM7.12,66.8v.72h-.36v-.36l.36-.36ZM6.94,61.94l.54-.18.18.54-.18.18-.54-.54ZM7.48,86.23c.8.49-.63,1.14-.9.54-.02-.05.6-.72.9-.54ZM10,106.02l-1.8,2.88c-1.25-1.02.9-2.85,1.8-2.88ZM8.74,67.34l.54-.18-.18.54-.18.18-.18-.54ZM19.71,175.48v4.32c-.7.14-1.14-3.82,0-4.32ZM18.63,290.99l.36-1.44c.86.59.63,1.31-.36,1.44ZM19.17,121.68l-.18.18-.18-.54.54-.18-.18.54ZM18.99,250.33c.4.24.3,1.74-.36,1.44-.4-.18-.26-1.82.36-1.44ZM17.91,122.22l.72,2.52c-.35.19-2.27-2.16-.72-2.52ZM17.55,289.91c.6.21-.3,1.94-.72,2.16-.6-.21.3-1.94.72-2.16ZM17.37,296.39c.17-.64-.83-1.86,1.8-1.26.07.13-1.59,1.07-1.8,1.26-.34,1.27.71,2.61-1.44.9.48-.24,1.06-.54,1.44-.9ZM15.03,300.71c-.23-.11.81-2.47,1.44-2.16.56.28-.72,2.31-1.44,2.16ZM15.75,295.31c-.16-.06-.75-1.91,0-1.44.58.36.39,1.58,0,1.44ZM15.03,249.97c-.43-.19-.19-.92.36-.72.43.16.17.95-.36.72ZM21.51,168.64c-1.16.41-1.84-1.56-.72-1.44l.72,1.44ZM20.79,122.94v-.36l.36-.36v.72h-.36ZM25.83,87.67c-.67.1-.28-2.18.36-1.8.26.15.54,1.66-.36,1.8ZM26.55,124.02c-.5.77-.81-.06-.36-.72.22.29.61.33.36.72ZM26.19,84.43c.43.16.17.95-.36.72-.43-.19-.19-.92.36-.72ZM26.19,83.35c-.9.14-.38-.73.36-.72.36.18-.29.71-.36.72ZM25.47,58.16c-.56-.25.24-1.28.72-1.08.6.78-.41.63-.72,1.08ZM25.65,119.88l-.18.18-.54-.18.18-.54.54.54ZM25.83,125.46l-.18.54-.18.18-.18-.54.54-.18ZM25.47,123.66l-1.08,1.8c-.61-.32.3-2.32,1.08-1.8ZM24.39,88.75h-.36v-.36l.36-.36v.72ZM24.21,122.4l-.18.18-.54-.18.18-.54.54.54ZM23.31,119.34c-.5-.06.13-1.11.36-1.08.5.06-.13,1.11-.36,1.08ZM24.75,274.8l-.54-1.62c.12-.24.72-.26.9-.18.4.19-.3,1.47-.36,1.8ZM25.11,305.03l-.72,2.16c-.13-.02-.14-2.66.72-2.16ZM23.67,269.04l1.08-1.8c.57.74-.25,1.68-1.08,1.8ZM24.03,270.12l-.18.54-.18.18-.18-.54.54-.18ZM24.75,265.8l-2.34-.9c.36-.22.52-1.22.9-1.26.13-.01,1.73,1.62,1.44,2.16ZM24.39,231.98c.22.29.61.33.36.72-.5.77-.81-.06-.36-.72ZM20.97,173.68h.72c-.12.33-.28.5-.54.72-1.15-.05-.16-.69-.18-.72ZM20.79,179.44v.72h-.36v-.36l.36-.36ZM21.51,211.46c.43.16.17.95-.36.72-.43-.19-.19-.92.36-.72ZM21.51,267.6c.23-.03.86,1.01.36,1.08-.23.03-.86-1.01-.36-1.08ZM21.87,209.3c.12-.04.91.87.36,1.08-.67.26-.73-.97-.36-1.08ZM22.77,212.72l.54-.18-.18.54-.18.18-.18-.54ZM23.31,163.96c-1.43,2.46.16,2.04.18,2.34.12,1.54-4.13-.81-.18-2.34ZM23.31,56.36l-.54-.18.18-.54.54.54-.18.18ZM22.95,163.24c-.55-.37-1.28-1.35-.36-1.08.26.08.83.76.36,1.08ZM22.59,85.51l-.54-.18.18-.54.54.54-.18.18ZM22.23,82.99c-.9.14-.38-.73.36-.72.36.18-.29.71-.36.72ZM21.87,118.26l.18.54-.18.18-.54-.54.54-.18ZM21.33,169.18c-.16.39-.24.89-.36,1.26-.1.31-.47,1.29-1.08,1.08,0-.72.35-2.96,1.44-2.34ZM15.75,353.97l-.18.54-.18.18-.18-.54.54-.18ZM6.4,334.18c-.43-.19-.19-.92.36-.72.43.16.17.95-.36.72ZM6.04,336.7c-.35-.17-.37-1.22.36-1.08.55.11-.22,1.15-.36,1.08ZM5.86,272.82c-.23.44-.38,3.13-1.26,3.42-.85-1.12,1.64-5.75,2.52-5.4,1.51.61-1.19,1.84-1.26,1.98ZM1.72,125.1c.76.12.49,1.48,0,1.44-.34-.02-.6-1.53,0-1.44ZM2.44,62.84c.36.18-.29.71-.36.72-.9.14-.38-.73.36-.72ZM2.44,178.72l-.54-.54.54-.18.18.54-.18.18ZM1.72,179.44c.17.41.85.31.9.54.29,1.34-1.83-.22-.9-.54ZM2.44,197.43c.99.56-.04,1.51-1.08,1.44l1.08-1.44ZM1.72,307.55c.49.15-.27,1.23-.36,1.44-.34-.4-.36-1.66.36-1.44ZM2.08,243.85c.3.22.28.96,0,1.08-.44.19-.77-1.64,0-1.08ZM2.44,310.43c.5.06-.13,1.11-.36,1.08-.5-.06.13-1.11.36-1.08ZM2.26,203.73l.18-.54.54.54-.18.18-.54-.18ZM1.9,94.69c.13-.36,1.9-.6,1.98-.54,2.24,1.63-1.04,1.17-1.98.54ZM4.06,92.17c-2.41,1.84-1.96-2.14-1.26-1.98.69.16-1.19,2.21,1.26,1.98ZM7.66,153.53c.15-.04.7-.32.72-.36.15-.3-.35-1.19.54-1.08.66.63-.46.96-.54,1.08-.1.17.04,1.03-.72,1.08.02.4-.1,3.48-.54,3.24-.5-1.77-1.03-3.77,0-5.4.7.44.46.84.54,1.44ZM7.84,148.13c.34.31.35,2.59-.36,2.16-.23-.49-.54-2.19.36-2.16ZM11.07,149.93c.16.04-.2,3.25-1.08,2.88-.01-1.16.47-1.94,1.08-2.88ZM11.07,140.57c.4.24.3,1.74-.36,1.44-.4-.18-.26-1.82.36-1.44ZM11.07,153.89c.33.13-.74.89-.54,1.8.18.17,1.79-.36.54.72-.23-.23-.46-.37-.54-.72-1.42-1.32-.26-2.13.54-1.8ZM13.59,195.27c-.68-.08-.57-1.21.36-.72.37.19-.32.72-.36.72ZM12.87,295.31c-.56-.25.24-1.29.72-1.08.56.24-.24,1.3-.72,1.08ZM13.23,248.17c.77.56-.62,1.1-.9.54-.26-.51.64-.73.9-.54ZM11.07,197.43c.02-.62.18-3.05,1.08-2.88l.54,1.62-1.62,1.26ZM9.64,276.96c.46.03.02,1.88-.18.54-.06-.22,0-.55.18-.54ZM9.28,275.16v-.36l.36-.36v.72h-.36ZM9.28,224.06c-.55-.22,0-1.63.72-1.44.25.33-.61,1.48-.72,1.44ZM5.32,247.09c-.23-.39,1.32-2.22,1.44-2.16.77.41-.59,2.36-1.44,2.16ZM5.32,249.97c-.78-.29-.65-1.85,0-1.44.31.2.28,1.16,0,1.44ZM8.56,227.66c-.27-.47-.49-1.88.36-1.8-.43.73.71,1.75-.36,1.8ZM8.56,218.66c-.07-.38.64-1.48,1.08-1.44.09.58-.42,1.5-1.08,1.44ZM7.3,194.37c-.33-.59.98-.69,1.26-.54.54.29-.91,1.17-1.26.54ZM7.84,199.95c.68.31-1,1.95-1.44,1.8-.36-.17.87-2.06,1.44-1.8ZM6.76,222.98c-.42-.17.21-1.64.72-1.44.42.17-.19,1.6-.72,1.44ZM6.4,226.94c-.67.26-.73-.97-.36-1.08.12-.04.91.87.36,1.08ZM6.76,228.74c.64.21.43,1.86,0,1.8-.76-.43-.2-1.09,0-1.8ZM7.84,249.97c.69.36-.27,1.15-.9.54.33-.05.85-.56.9-.54ZM8.92,229.1c.16.1-.02,2.22-.72,2.16-.54-.75-.49-2.89.72-2.16ZM8.92,246.01c.41.86.36,1.67-.72,1.44l.72-1.44ZM9.64,199.23c-.67-.52.5-1.8.72-1.8,1.08,0-.15,1.43-.72,1.8ZM9.46,195.81l.54-.18.18.54-.18.18-.54-.54ZM11.43,218.3c-.43-.19-.19-.92.36-.72.43.16.17.95-.36.72ZM11.79,276.96c-.47.3-.44-1.39,0-1.08.31.21.27.91,0,1.08ZM11.07,216.5c-.24-.25.26-.78.36-1.08.38.48.3,1.21-.36,1.08ZM11.43,222.62c.4.24.3,1.74-.36,1.44-.4-.18-.26-1.82.36-1.44ZM11.25,249.43l-.18.18-.54-.54.54-.18.18.54ZM10.36,247.81c-.55-.11.22-1.15.36-1.08.35.17.37,1.22-.36,1.08ZM10.71,270.84c.43.16.17.95-.36.72-.43-.19-.19-.92.36-.72ZM10.36,251.41l1.26.9c-.16.55-2.12-.52-1.26-.9ZM11.79,279.12c.39.24.3,2.21-.36,1.8-.39-.24-.3-2.21.36-1.8ZM10,156.4c.04.36.82,2.39.36,2.52-.39.1-.53-2.32-1.98-1.62l1.62-.9ZM9.28,150.65c-.4-.24-.28-1.78.36-1.44.6.32-.19,1.54-.36,1.44ZM9.64,147.77c.5.06-.13,1.11-.36,1.08-.5-.06.13-1.11.36-1.08ZM9.28,144.89c-.56-.33.12-1.49.36-1.44.57.12-.13,1.57-.36,1.44ZM9.64,138.05c-.23.03-.86-1.01-.36-1.08.23-.03.86,1.01.36,1.08ZM9.28,109.98c-1.04-.09-.61-.93.36-.72.37.19-.32.72-.36.72ZM8.2,139.85c-.4-.18-.26-1.82.36-1.44.39.24.3,1.74-.36,1.44ZM8.2,142.37l.36-.36v.72h-.36v-.36ZM6.22,198.15c-.3.41-.49,1.76-1.8,1.26.33-1.13,1.42-.8,1.8-1.26.17-.2-.25-1.47.18-1.8,1.53-1.18.26,1.19-.18,1.8ZM3.88,178.36c.4.18.26,1.36-.36,1.08-.4-.18-.26-1.36.36-1.08ZM3.52,176.2c.31.21.27.91,0,1.08-.47.3-.44-1.39,0-1.08ZM4.6,173.68c.43.16.17.95-.36.72-.43-.19-.19-.92.36-.72ZM4.96,195.99c.3.26-.66,1.11-.72,1.08-.53-.3-.19-1.43.72-1.08ZM6.04,94.15c.5.06-.13,1.11-.36,1.08-.5-.06.13-1.11.36-1.08ZM5.32,86.59c-.55-.82.1-1.6,1.08-1.44l-1.08,1.44ZM5.32,66.8c-.71.06-.71-.42,0-.36h.36l-.36.36ZM5.68,88.03c.64.25-.63,1.64-1.08,1.44-.51-.46.73-1.34,1.08-1.44ZM3.52,311.87c.05,0,.55.33.36.72-.4.82-1.58-.62-.36-.72ZM3.88,231.62l1.08-2.52.54,1.98-1.62.54ZM4.24,233.42l1.08-1.44c.65.91-.29,1.27-1.08,1.44ZM6.4,234.14c.65.99-2.28,1.4-2.34,1.26l2.34-1.26ZM7.84,331.3c.43.16.17.95-.36.72-.43-.19-.19-.92.36-.72ZM8.38,335.98c-.66.97-.68.03-.72-.72-.04-.74.46-3.3,1.26-1.44,1.87-4.02.61,1.9-.54,2.16ZM12.51,332.02c.37.1-.31,1.99-.72,2.16-.4-.1.09-2.33.72-2.16ZM13.59,330.58c.56.24-.24,1.3-.72,1.08-.56-.25.24-1.29.72-1.08ZM14.31,328.42l-.72-1.08-1.44,2.52c-1.17-.09-.15-.76-.18-1.08-.02-.23-.04-.5,0-.72.23-1.32.64-1.06,1.62-1.8.9.52,1.79,1.4.72,2.16ZM13.95,121.86c.12-.04.91.87.36,1.08-.67.26-.73-.97-.36-1.08ZM13.59,108.18c-.43-.19-.19-.92.36-.72.43.16.17.95-.36.72ZM12.87,63.92c-.37-.19.31-.72.36-.72.47-.04,1.65,1.05-.36.72ZM12.51,144.17c-.66.1-.42-1.44.36-1.08.24.11-.3,1.07-.36,1.08ZM12.87,109.26v.72h-.36v-.36l.36-.36ZM12.15,142.01c.35-1.45-.67-3.72.36-5.04.09,1.32.74,4.04-.36,5.04ZM12.15,151.73l-1.26-6.3c.1-.24.7-.26.9-.18,1.47.59,1.02,5.03.36,6.48ZM11.61,103.32l-.18.18-.18-.54.54-.18-.18.54ZM10.36,63.92c-.31-.24.66-1.1.72-1.08.55.15-.18,1.29-.72,1.08ZM10.36,68.24l-.36.36c-.71.06-.71-.42,0-.36h.36ZM7.84,143.45l.36,3.96c-1.26.58-.95-3.59-.36-3.96ZM7.12,89.47c-.4-.18-.26-1.36.36-1.08.4.18.26,1.36-.36,1.08ZM6.76,108.9c.07.02.8,1.27.36,1.44-.76.29-.98-1.58-.36-1.44ZM4.78,64.46l1.62-.9c.37,1.08-1.08,1.96-1.62.9ZM4.24,62.84s.56.5.54.54c-.42.95-1.89-.73-.54-.54ZM3.7,7.6l.18-.54.54.54-.18.18-.54-.18ZM3.88,5.98c-.9.14-.38-.73.36-.72.36.18-.29.71-.36.72ZM3.52,88.03c-.25.73.37,1.36-.36,1.8-.27-.47-.49-1.88.36-1.8ZM2.08,65.36s.88.49.9.54c.48,1.04-1.86-.2-.9-.54ZM1.36,9.22c.99.13.15,1.07-.72,1.08-.49-.51.21-1.15.72-1.08ZM.64,306.11l-.54-.18.18-.54.54.54-.18.18ZM.28,202.11c-.43-.19-.19-.92.36-.72.43.16.17.95-.36.72ZM.64,178.36c-.34-.4-.36-1.66.36-1.44.49.15-.27,1.23-.36,1.44ZM1.18,316.36c.06-.08-.09-.76.54-.54,1,.34-1.48,1.89-.54.54ZM5.14,337.78c.54-.56,2.1-.89,2.16,0h-2.16ZM8.74,337.78h1.08c-.33,1.01-1.9,1.08-1.08,0ZM14.67,358.65c-.3-.26.66-1.11.72-1.08.53.3.19,1.43-.72,1.08ZM15.75,360.81c.09,1.43,1.56.79,1.62.9.9,1.84-2.53,1.94-1.62-.9ZM18.63,356.13c.2.04.74,1.21,0,1.44-.47-.59-1.23-1.67,0-1.44ZM18.99,358.29c.55.11-.22,1.15-.36,1.08-.35-.17-.37-1.22.36-1.08ZM18.99,361.89c-.43-.19-.19-.92.36-.72.43.16.17.95-.36.72ZM20.25,359.01c-.24-.57-.61-1.13.36-1.08,1.55.08.61,1.61,1.08,2.7-.49.16-1.31-1.31-1.44-1.62ZM22.23,362.97c-.9-.62-.4-1.01,0-1.8.77.45.18,1.15,0,1.8ZM26.01,342.64c-.24.59-.93-.27-1.08-.18-.13.17-.91,2.27-1.26,2.16l.18-1.62c.12-.17.77-.34,1.08-.54.92-1.2,1.23-.19,1.08.18ZM26.73,339.04l-.18.18-.18-.54.54-.18-.18.54ZM24.21,337.78l.18-1.08.18,1.08h-.36ZM24.93,335.8c.13-.24.75-.27.9-.18,1.49.89-1.49,1.24-.9.18ZM26.91,276.24c.17-.7-.69-2.56.36-2.88.28.37.44,3.29-.36,2.88ZM26.91,271.2c.35.17.37,1.22-.36,1.08-.55-.11.22-1.15.36-1.08ZM26.37,310.61c.09.23,2.12.05.54,1.62-.71.08-1.41-2.33-1.44-2.88l-1.26.54c-.28-.77.74-1.28,1.26-1.26,1.67.08.77,1.65.9,1.98ZM25.83,233.42c.46.03.02,1.88-.18.54-.06-.22,0-.55.18-.54ZM25.47,269.4l.18.54-.18.18-.54-.54.54-.18ZM26.01,213.44c-.51.82-2.26-.32-1.26-.9.07-.04,1.48.54,1.26.9ZM23.49,209.84l2.7-.54c.67,1.78-2.24,1.52-2.7.54ZM26.91,213.98l-.54-.54.54-.18.18.54-.18.18ZM27.27,121.14c-.76-.59-1.34-1.37,0-1.08.58.13.56.83,0,1.08ZM27.27,56h-.36v-.36l.36-.36v.72ZM26.55,50.96c.12-.04.91.87.36,1.08-.67.26-.73-.97-.36-1.08ZM26.55,53.12c.37.19-.32.72-.36.72-1.04-.09-.61-.93.36-.72ZM25.47,13.9c.43.16.17.95-.36.72-.43-.19-.19-.92.36-.72ZM24.75,50.96l.36-.36v.72h-.36v-.36ZM24.39,82.63c.55.11-.22,1.15-.36,1.08-.35-.17-.37-1.22.36-1.08ZM23.85,14.26c-.77-.23-.37-.64,0-1.08-.15.72.57.65,0,1.08ZM23.13,11.02h.36c0,.05.82.5-.18,1.08-.37-.22-.08-.99-.18-1.08ZM23.13,14.62c.03.44-.51.56-.72.72-.38-1.77.65-.67.72-.72ZM21.51,11.74c.22.29.61.33.36.72-.5.77-.81-.06-.36-.72ZM21.15,80.83c.43.16.17.95-.36.72-.43-.19-.19-.92.36-.72ZM21.15,85.87c.49.61.07,1.44-.72,1.44l.72-1.44ZM20.25,10.84l-.54.9c-.41.13-.41-.05-.54-.36.51-.02.27-1.19,1.08-.54ZM19.35,82.63c.56.24-.24,1.3-.72,1.08-.56-.25.24-1.29.72-1.08ZM18.81,66.98l-.18.18-.54-.54.54-.18.18.54ZM18.09,16.06l.36,1.08c-1.54.75-.85-.33-.36-1.08ZM17.19,70.4l.36-.36v.72h-.36v-.36ZM16.83,124.38c-.52-.39-2.23-1.65-.72-1.8.19-.02,1.41,1.29.72,1.8ZM16.11,121.86c-.56-.25.24-1.29.72-1.08.56.24-.24,1.3-.72,1.08ZM16.11,68.6c.46.03.02,1.88-.18.54-.06-.22,0-.55.18-.54ZM16.29,13.54c-.28-.1-.61.23-.72-.36.64-.36.76-.58.72.36ZM16.47,18.22v.72h-.36v-.36l.36-.36ZM16.11,63.92c.2.09.7.64.54.9-.7,1.14-2.2-1.59-.54-.9ZM14.67,192.75c-.43-.19-.19-.92.36-.72.43.16.17.95-.36.72ZM13.23,15.7c.11,0,1.62.76,1.98.9l-2.7.18c-.65-.46.66-1.08.72-1.08ZM13.95,32.61c1,.62-.43,2.2-1.08,2.52l1.08-2.52ZM13.41,30.99l.54-.18.18.54-.18.18-.54-.54ZM13.05,39.63c.23-.63-2.29-.99,1.26-1.26.93.32-4.13,5.7-4.32,6.48-.58-2.52,2.59-3.91,3.06-5.22ZM11.79,35.49c.62.32-1.97,3.47-2.52,3.6-.44-.81,2.07-3.83,2.52-3.6ZM9.64,62.12c.43.16.17.95-.36.72-.43-.19-.19-.92.36-.72ZM8.56,5.62l.36-.36v.72h-.36v-.36ZM7.84,65.36c-.78-.36.5-.87.72-1.08.65.42-.66,1.11-.72,1.08ZM8.38,45.74c.21.57-.62.77-.72.9-.81,1.03-3.04,3.15-3.6,1.44-.48-1.47.14-3,1.26-3.96.55.26-.36,1.67-.54,2.16l.9,1.44c.64-.35,1.15-1.54,1.62-1.8.32-.18.85-.63,1.08-.18ZM7.12,2.38l.54.54-.18.18-.54-.18.18-.54ZM7.12,41.61c.52.18-.16,2.06-.72,1.8-.49-.4.6-1.84.72-1.8ZM6.04,8.5c.52.27-.18,2.05-.72,1.8-.27-.29.2-2.07.72-1.8ZM4.96.94c.05,0,1.09.54.72.72l-3.42.9c-.15-.3,2.38-1.63,2.7-1.62Z" fill="none"/><path d="M5.14,337.78h2.16c-.05-.89-1.61-.56-2.16,0Z" fill="#00aeef"/><polygon points="24.21 337.78 24.57 337.78 24.39 336.7 24.21 337.78" fill="#00aeef"/><path d="M10,44.85c.19-.78,5.25-6.16,4.32-6.48-3.55.27-1.03.63-1.26,1.26-.47,1.3-3.64,2.69-3.06,5.22Z" fill="#00aeef"/><path d="M10.89,145.43l1.26,6.3c.66-1.45,1.11-5.89-.36-6.48-.2-.08-.8-.06-.9.18Z" fill="#00aeef"/><path d="M7.12,270.84c-.88-.36-3.37,4.28-2.52,5.4.88-.29,1.03-2.98,1.26-3.42.07-.14,2.77-1.37,1.26-1.98Z" fill="#00aeef"/><path d="M13.59,326.26c-.98.74-1.39.48-1.62,1.8,1-.84,1.11.89,0,.72.03.32-.99.99.18,1.08l1.44-2.52.72,1.08c1.07-.76.18-1.64-.72-2.16Z" fill="#00aeef"/><path d="M24.21,309.89l1.26-.54c.02.55.73,2.96,1.44,2.88,1.58-1.57-.45-1.38-.54-1.62-.13-.33.77-1.9-.9-1.98-.52-.03-1.54.49-1.26,1.26Z" fill="#00aeef"/><path d="M5.68,47.72l-.9-1.44c-.2.53.02,1.17-.72,1.8.56,1.71,2.78-.41,3.6-1.44l-.36-.72c-.47.26-.98,1.45-1.62,1.8Z" fill="#00aeef"/><path d="M7.12,157.48c.44.24.56-2.84.54-3.24,0-.19,0-.68,0-.72-.08-.6.16-1-.54-1.44-1.03,1.63-.5,3.63,0,5.4Z" fill="#00aeef"/><path d="M8.92,333.82c-.8-1.86-1.3.7-1.26,1.44l.72.72c1.15-.26,2.41-6.18.54-2.16Z" fill="#00aeef"/><path d="M.28,7.78l2.16-3.24c-1.91.23-1.29,2.56-2.44,2.28v.57l.28.39Z" fill="#00aeef"/><path d="M0,312.86v1.59c.33.48.63.96.64,1.38,1.22-2.76-.16-2.33-.64-2.96Z" fill="#00aeef"/><path d="M11.79,35.49c-.45-.23-2.96,2.79-2.52,3.6.55-.13,3.14-3.28,2.52-3.6Z" fill="#00aeef"/><path d="M23.31,163.96c-3.95,1.53.3,3.88.18,2.34-.02-.3-1.61.13-.18-2.34Z" fill="#00aeef"/><path d="M12.15,142.01c1.1-1,.45-3.72.36-5.04-1.03,1.32-.01,3.59-.36,5.04Z" fill="#00aeef"/><path d="M5.32,44.13c-1.12.96-1.74,2.49-1.26,3.96.74-.63.52-1.26.72-1.8.18-.49,1.09-1.9.54-2.16Z" fill="#00aeef"/><path d="M8.2,147.41l-.36-3.96c-.6.37-.9,4.54.36,3.96Z" fill="#00aeef"/><path d="M11.07,197.43l1.62-1.26-.54-1.62c-.9-.17-1.06,2.26-1.08,2.88Z" fill="#00aeef"/><path d="M23.31,263.64c-.38.04-.54,1.04-.9,1.26l2.34.9c.29-.54-1.31-2.17-1.44-2.16Z" fill="#00aeef"/><path d="M8.2,108.9l1.8-2.88c-.89.03-3.05,1.86-1.8,2.88Z" fill="#00aeef"/><path d="M19.71,175.48c-1.14.49-.7,4.46,0,4.32v-4.32Z" fill="#00aeef"/><path d="M4.96.94c-.32-.01-2.85,1.32-2.7,1.62l3.42-.9c.37-.18-.67-.72-.72-.72Z" fill="#00aeef"/><path d="M10.36,158.92c.46-.12-.32-2.16-.36-2.52l-1.62.9c1.45-.7,1.59,1.72,1.98,1.62Z" fill="#00aeef"/><polygon points="4.96 229.1 3.88 231.62 5.5 231.08 4.96 229.1" fill="#00aeef"/><path d="M18.63,124.74l-.72-2.52c-1.55.36.37,2.71.72,2.52Z" fill="#00aeef"/><path d="M20.97,170.44c.12-.37.2-.87.36-1.26-1.09-.62-1.44,1.62-1.44,2.34.61.21.98-.77,1.08-1.08Z" fill="#00aeef"/><path d="M8.92,229.1c-1.21-.73-1.26,1.41-.72,2.16.7.06.88-2.06.72-2.16Z" fill="#00aeef"/><path d="M26.91,276.24c.8.41.64-2.51.36-2.88-1.05.32-.19,2.18-.36,2.88Z" fill="#00aeef"/><path d="M15.21,16.6c-.36-.14-1.87-.91-1.98-.9-.06,0-1.37.62-.72,1.08l2.7-.18Z" fill="#00aeef"/><path d="M2.8,90.19c-.7-.16-1.15,3.82,1.26,1.98-2.45.23-.57-1.82-1.26-1.98Z" fill="#00aeef"/><path d="M13.95,32.61l-1.08,2.52c.65-.32,2.08-1.9,1.08-2.52Z" fill="#00aeef"/><path d="M6.76,244.93c-.11-.06-1.67,1.76-1.44,2.16.85.2,2.21-1.75,1.44-2.16Z" fill="#00aeef"/><path d="M15.03,300.71c.72.15,2-1.88,1.44-2.16-.63-.31-1.67,2.05-1.44,2.16Z" fill="#00aeef"/><path d="M3.88,94.15c-.08-.06-1.85.18-1.98.54.94.63,4.22,1.09,1.98-.54Z" fill="#00aeef"/><path d="M.28,184.47l-.28-1.95v1.7c.12.16.23.26.28.25Z" fill="#00aeef"/><path d="M11.07,149.93c-.61.94-1.09,1.72-1.08,2.88.88.37,1.24-2.84,1.08-2.88Z" fill="#00aeef"/><path d="M6.4,234.14l-2.34,1.26c.05.14,2.99-.27,2.34-1.26Z" fill="#00aeef"/><path d="M24.75,267.24l-1.08,1.8c.83-.12,1.65-1.06,1.08-1.8Z" fill="#00aeef"/><path d="M19.17,295.13c-2.63-.6-1.63.62-1.8,1.26.21-.19,1.87-1.13,1.8-1.26Z" fill="#00aeef"/><path d="M7.84,148.13c-.9-.03-.59,1.67-.36,2.16.71.43.7-1.85.36-2.16Z" fill="#00aeef"/><path d="M6.4,201.75c.44.15,2.12-1.49,1.44-1.8-.57-.26-1.8,1.63-1.44,1.8Z" fill="#00aeef"/><path d="M10.54,155.68c-.2-.91.87-1.67.54-1.8-.8-.33-1.96.48-.54,1.8Z" fill="#00aeef"/><path d="M16.11,122.58c-1.51.15.2,1.41.72,1.8.69-.51-.53-1.82-.72-1.8Z" fill="#00aeef"/><path d="M24.39,125.46l1.08-1.8c-.78-.52-1.69,1.48-1.08,1.8Z" fill="#00aeef"/><path d="M25.83,87.67c.9-.14.62-1.64.36-1.8-.64-.38-1.03,1.9-.36,1.8Z" fill="#00aeef"/><path d="M2.44,197.43l-1.08,1.44c1.04.08,2.07-.88,1.08-1.44Z" fill="#00aeef"/><path d="M0,199.34v1.44l.64-1.92c-.17-.07-.42.16-.64.47Z" fill="#00aeef"/><path d="M17.37,296.39c-.38.36-.96.66-1.44.9,2.15,1.71,1.1.37,1.44-.9Z" fill="#00aeef"/><path d="M12.51,332.02c-.63-.17-1.12,2.06-.72,2.16.41-.17,1.09-2.06.72-2.16Z" fill="#00aeef"/><path d="M5.32,10.3c.54.25,1.24-1.53.72-1.8-.52-.27-.99,1.51-.72,1.8Z" fill="#00aeef"/><path d="M4.42,199.41c1.31.5,1.5-.85,1.8-1.26-.37.46-1.47.12-1.8,1.26Z" fill="#00aeef"/><path d="M10.36,197.43c-.22,0-1.39,1.28-.72,1.8.57-.37,1.8-1.79.72-1.8Z" fill="#00aeef"/><path d="M27.27,236.65c.12.06.31-.02.51-.15v-1.1c-.48.35-.95,1.04-.51,1.25Z" fill="#00aeef"/><path d="M21.51,168.64l-.72-1.44c-1.12-.12-.44,1.85.72,1.44Z" fill="#00aeef"/><path d="M16.83,292.07c.42-.22,1.32-1.95.72-2.16-.42.22-1.32,1.95-.72,2.16Z" fill="#00aeef"/><path d="M11.79,279.12c-.66-.41-.75,1.56-.36,1.8.66.41.75-1.56.36-1.8Z" fill="#00aeef"/><path d="M24.39,307.19l.72-2.16c-.86-.5-.85,2.14-.72,2.16Z" fill="#00aeef"/><path d="M7.12,41.61c-.12-.04-1.21,1.4-.72,1.8.56.26,1.24-1.62.72-1.8Z" fill="#00aeef"/><path d="M25.11,273c-.18-.08-.78-.06-.9.18l.54,1.62c.06-.33.76-1.61.36-1.8Z" fill="#00aeef"/><path d="M4.6,89.47c.45.2,1.72-1.19,1.08-1.44-.35.1-1.59.98-1.08,1.44Z" fill="#00aeef"/><path d="M4.24,233.42c.79-.17,1.72-.53,1.08-1.44l-1.08,1.44Z" fill="#00aeef"/><path d="M27.78,88.04v-.04s0,.02,0,.04Z" fill="#00aeef"/><path d="M5.32,86.59l1.08-1.44c-.98-.16-1.62.62-1.08,1.44Z" fill="#00aeef"/><path d="M6.76,222.98c.53.17,1.14-1.27.72-1.44-.51-.2-1.14,1.27-.72,1.44Z" fill="#00aeef"/><path d="M11.07,140.57c-.62-.39-.76,1.26-.36,1.44.66.3.75-1.2.36-1.44Z" fill="#00aeef"/><path d="M11.07,224.06c.66.3.75-1.2.36-1.44-.62-.39-.76,1.26-.36,1.44Z" fill="#00aeef"/><path d="M8.2,139.85c.66.3.75-1.2.36-1.44-.62-.39-.76,1.26-.36,1.44Z" fill="#00aeef"/><path d="M1.36,9.22c-.51-.07-1.21.57-.72,1.08.87-.01,1.71-.95.72-1.08Z" fill="#00aeef"/><path d="M8.56,227.66c1.07-.05-.07-1.07.36-1.8-.85-.08-.63,1.33-.36,1.8Z" fill="#00aeef"/><path d="M6.76,230.54c.43.06.64-1.59,0-1.8-.2.71-.76,1.36,0,1.8Z" fill="#00aeef"/><path d="M21.15,85.87l-.72,1.44c.79,0,1.21-.83.72-1.44Z" fill="#00aeef"/><path d="M0,121.74v1.49c.55-.38.22-.89,0-1.49Z" fill="#00aeef"/><path d="M18.45,17.14l-.36-1.08c-.49.75-1.18,1.83.36,1.08Z" fill="#00aeef"/><path d="M18.63,251.77c.66.3.75-1.2.36-1.44-.62-.39-.76,1.26-.36,1.44Z" fill="#00aeef"/><path d="M6.22,198.15c.44-.61,1.71-2.98.18-1.8-.43.33-.01,1.6-.18,1.8Z" fill="#00aeef"/><path d="M8.92,246.01l-.72,1.44c1.08.23,1.13-.58.72-1.44Z" fill="#00aeef"/><path d="M25.29,229.64c.52.49.76-.3,1.44-.18v-.36c-.66-.25-1.34-.36-1.44.54Z" fill="#00aeef"/><path d="M9.64,217.22c-.44-.04-1.15,1.06-1.08,1.44.66.06,1.17-.86,1.08-1.44Z" fill="#00aeef"/><path d="M5.32,249.97c.28-.27.31-1.24,0-1.44-.65-.41-.78,1.15,0,1.44Z" fill="#00aeef"/><path d="M12.87,295.31c.48.22,1.28-.84.72-1.08-.48-.21-1.28.83-.72,1.08Z" fill="#00aeef"/><path d="M7.3,194.37c.35.63,1.8-.25,1.26-.54-.28-.15-1.59-.05-1.26.54Z" fill="#00aeef"/><path d="M25.83,335.62c-.15-.09-.77-.06-.9.18-.59,1.06,2.39.71.9-.18Z" fill="#00aeef"/><path d="M18.99,289.55l-.36,1.44c.99-.13,1.22-.85.36-1.44Z" fill="#00aeef"/><path d="M7.12,110.34c.44-.17-.29-1.42-.36-1.44-.62-.14-.4,1.73.36,1.44Z" fill="#00aeef"/><path d="M9.64,149.21c-.64-.34-.76,1.2-.36,1.44.17.1.96-1.12.36-1.44Z" fill="#00aeef"/><path d="M10,222.62c-.73-.19-1.27,1.21-.72,1.44.11.04.97-1.11.72-1.44Z" fill="#00aeef"/><path d="M11.61,252.31l-1.26-.9c-.86.38,1.1,1.44,1.26.9Z" fill="#00aeef"/><path d="M0,310.14v.85c.21-.25.22-.64,0-.85Z" fill="#00aeef"/><path d="M18.63,83.71c.48.22,1.28-.84.72-1.08-.48-.21-1.28.83-.72,1.08Z" fill="#00aeef"/><path d="M13.59,330.58c-.48-.21-1.28.83-.72,1.08.48.22,1.28-.84.72-1.08Z" fill="#00aeef"/><path d="M3.16,89.83c.73-.44.11-1.07.36-1.8-.85-.08-.63,1.33-.36,1.8Z" fill="#00aeef"/><path d="M27.27,121.14c.56-.25.58-.95,0-1.08-1.34-.29-.76.49,0,1.08Z" fill="#00aeef"/><path d="M16.11,121.86c.48.22,1.28-.84.72-1.08-.48-.21-1.28.83-.72,1.08Z" fill="#00aeef"/><path d="M1.72,126.54c.49.04.76-1.32,0-1.44-.6-.09-.34,1.41,0,1.44Z" fill="#00aeef"/><path d="M26.73,229.1v.36c.08.01.76,1.5,1.05.3v-.16c-.31-.53-.73-.37-1.05-.49Z" fill="#00aeef"/><path d="M23.13,14.62c-.07.04-1.1-1.05-.72.72.21-.16.75-.28.72-.72Z" fill="#00aeef"/><path d="M1,176.92c-.72-.22-.7,1.04-.36,1.44.09-.21.85-1.29.36-1.44Z" fill="#00aeef"/><path d="M1.36,308.99c.09-.21.85-1.29.36-1.44-.72-.22-.7,1.04-.36,1.44Z" fill="#00aeef"/><path d="M7.66,46.64c.1-.13.93-.33.72-.9-.23-.45-.76,0-1.08.18l.36.72Z" fill="#00aeef"/><path d="M3.52,179.44c.62.28.76-.9.36-1.08-.62-.28-.76.9-.36,1.08Z" fill="#00aeef"/><path d="M1.72,179.44c-.93.32,1.19,1.88.9.54-.05-.23-.73-.13-.9-.54Z" fill="#00aeef"/><path d="M7.48,88.39c-.62-.28-.76.9-.36,1.08.62.28.76-.9.36-1.08Z" fill="#00aeef"/><path d="M4.24,197.07c.06.03,1.02-.82.72-1.08-.91-.35-1.25.78-.72,1.08Z" fill="#00aeef"/><path d="M3.88,312.59c.19-.39-.31-.72-.36-.72-1.22.1-.04,1.54.36.72Z" fill="#00aeef"/><path d="M9.64,143.45c-.24-.05-.92,1.11-.36,1.44.23.14.93-1.32.36-1.44Z" fill="#00aeef"/><path d="M1.72,315.83c-.63-.22-.48.46-.54.54-.94,1.35,1.54-.2.54-.54Z" fill="#00aeef"/><path d="M15.75,293.87c-.75-.47-.16,1.38,0,1.44.39.14.58-1.08,0-1.44Z" fill="#00aeef"/><path d="M12.33,248.71c.28.56,1.67.02.9-.54-.26-.19-1.16.03-.9.54Z" fill="#00aeef"/><path d="M7.66,154.24c.76-.05.62-.91.72-1.08-.02.04-.57.32-.72.36,0,.04,0,.53,0,.72Z" fill="#00aeef"/><path d="M8.92,152.09c-.89-.11-.39.78-.54,1.08.08-.12,1.2-.45.54-1.08Z" fill="#00aeef"/><path d="M22.95,163.24c.47-.32-.1-1-.36-1.08-.92-.27-.19.71.36,1.08Z" fill="#00aeef"/><path d="M12.51,144.17c.06,0,.6-.97.36-1.08-.78-.36-1.02,1.18-.36,1.08Z" fill="#00aeef"/><path d="M11.97,328.06c-.04.22-.02.49,0,.72,1.11.17,1-1.56,0-.72Z" fill="#00aeef"/><path d="M26.55,272.28c.73.15.71-.91.36-1.08-.14-.07-.91.97-.36,1.08Z" fill="#00aeef"/><path d="M24.03,83.71c.14.07.91-.97.36-1.08-.73-.15-.71.91-.36,1.08Z" fill="#00aeef"/><path d="M6.04,225.86c-.37.11-.31,1.34.36,1.08.55-.21-.24-1.12-.36-1.08Z" fill="#00aeef"/><path d="M23.31,12.1c1-.58.18-1.03.18-1.08h-.36c.1.09-.19.86.18,1.08Z" fill="#00aeef"/><path d="M21.69,173.68h-.72s-.97.67.18.72c.26-.22.42-.39.54-.72Z" fill="#00aeef"/><path d="M2.08,13.18c.73.15.71-.91.36-1.08-.14-.07-.91.97-.36,1.08Z" fill="#00aeef"/><path d="M7.48,86.23c-.3-.18-.92.49-.9.54.27.6,1.7-.05.9-.54Z" fill="#00aeef"/><path d="M13.95,121.86c-.37.11-.31,1.34.36,1.08.55-.21-.24-1.12-.36-1.08Z" fill="#00aeef"/><path d="M9.64,109.26c-.97-.21-1.4.63-.36.72.04,0,.73-.53.36-.72Z" fill="#00aeef"/><path d="M8.38,335.98l-.72-.72c.04.75.06,1.69.72.72Z" fill="#00aeef"/><path d="M6.4,335.62c-.73-.15-.71.91-.36,1.08.14.07.91-.97.36-1.08Z" fill="#00aeef"/><path d="M2.08,244.93c.28-.12.3-.86,0-1.08-.77-.56-.44,1.27,0,1.08Z" fill="#00aeef"/><path d="M10.71,246.73c-.14-.07-.91.97-.36,1.08.73.15.71-.91.36-1.08Z" fill="#00aeef"/><path d="M15.03,192.03c-.55-.2-.79.53-.36.72.53.23.79-.56.36-.72Z" fill="#00aeef"/><path d="M6.76,333.46c-.55-.2-.79.53-.36.72.53.23.79-.56.36-.72Z" fill="#00aeef"/><path d="M13.95,194.55c-.93-.49-1.04.64-.36.72.04,0,.73-.53.36-.72Z" fill="#00aeef"/><path d="M7.48,332.02c.53.23.79-.56.36-.72-.55-.2-.79.53-.36.72Z" fill="#00aeef"/><path d="M3.52,176.2c-.44-.31-.47,1.38,0,1.08.27-.17.31-.87,0-1.08Z" fill="#00aeef"/><path d="M.64,201.39c-.55-.2-.79.53-.36.72.53.23.79-.56.36-.72Z" fill="#00aeef"/><path d="M4.24,174.4c.53.23.79-.56.36-.72-.55-.2-.79.53-.36.72Z" fill="#00aeef"/><path d="M11.07,156.4c1.25-1.08-.36-.55-.54-.72.08.35.31.49.54.72Z" fill="#00aeef"/><path d="M4.24,5.26c-.74-.01-1.26.86-.36.72.07-.01.72-.54.36-.72Z" fill="#00aeef"/><path d="M9.64,147.77c-.23-.03-.86,1.01-.36,1.08.23.03.86-1.02.36-1.08Z" fill="#00aeef"/><path d="M11.07,216.5c.66.13.74-.6.36-1.08-.1.3-.6.83-.36,1.08Z" fill="#00aeef"/><path d="M2.08,311.51c.23.03.86-1.01.36-1.08-.23-.03-.86,1.02-.36,1.08Z" fill="#00aeef"/><path d="M11.79,217.58c-.55-.2-.79.53-.36.72.53.23.79-.56.36-.72Z" fill="#00aeef"/><path d="M27.78,12.9v-.14s0,.09,0,.14Z" fill="#00aeef"/><path d="M23.85,14.26c.57-.43-.15-.36,0-1.08-.37.44-.77.85,0,1.08Z" fill="#00aeef"/><path d="M9.28,136.97c-.5.07.13,1.11.36,1.08.5-.07-.13-1.11-.36-1.08Z" fill="#00aeef"/><path d="M25.11,14.62c.53.23.79-.56.36-.72-.55-.2-.79.53-.36.72Z" fill="#00aeef"/><path d="M26.55,124.02c.25-.39-.14-.43-.36-.72-.45.66-.14,1.49.36.72Z" fill="#00aeef"/><path d="M24.75,232.7c.25-.39-.14-.43-.36-.72-.45.66-.14,1.49.36.72Z" fill="#00aeef"/><path d="M23.67,118.26c-.23-.03-.86,1.02-.36,1.08.23.03.86-1.02.36-1.08Z" fill="#00aeef"/><path d="M13.95,107.46c-.55-.2-.79.53-.36.72.53.23.79-.56.36-.72Z" fill="#00aeef"/><path d="M15.39,249.25c-.55-.2-.79.53-.36.72.53.23.79-.56.36-.72Z" fill="#00aeef"/><path d="M6.04,94.15c-.23-.03-.86,1.02-.36,1.08.23.03.86-1.01.36-1.08Z" fill="#00aeef"/><path d="M7.84,249.97s-.57.49-.9.54c.63.61,1.59-.18.9-.54Z" fill="#00aeef"/><path d="M11.79,276.96c.27-.17.31-.87,0-1.08-.44-.31-.47,1.38,0,1.08Z" fill="#00aeef"/><path d="M10.36,271.56c.53.23.79-.56.36-.72-.55-.2-.79.53-.36.72Z" fill="#00aeef"/><path d="M26.19,84.43c-.55-.2-.79.53-.36.72.53.23.79-.56.36-.72Z" fill="#00aeef"/><path d="M26.55,82.63c-.74-.01-1.26.86-.36.72.07-.01.72-.54.36-.72Z" fill="#00aeef"/><path d="M22.59,82.27c-.74-.01-1.26.86-.36.72.07-.01.72-.54.36-.72Z" fill="#00aeef"/><path d="M21.87,268.68c.5-.07-.13-1.11-.36-1.08-.5.07.13,1.11.36,1.08Z" fill="#00aeef"/><path d="M20.79,81.55c.53.23.79-.56.36-.72-.55-.2-.79.53-.36.72Z" fill="#00aeef"/><polygon points="25.47 270.12 25.65 269.94 25.47 269.4 24.93 269.58 25.47 270.12" fill="#00aeef"/><polygon points="23.67 270.84 23.85 270.66 24.03 270.12 23.49 270.3 23.67 270.84" fill="#00aeef"/><polygon points="22.05 85.33 22.59 85.51 22.77 85.33 22.23 84.79 22.05 85.33" fill="#00aeef"/><polygon points="24.03 88.75 24.39 88.75 24.39 88.03 24.03 88.39 24.03 88.75" fill="#00aeef"/><polygon points="9.64 274.44 9.28 274.8 9.28 275.16 9.64 275.16 9.64 274.44" fill="#00aeef"/><path d="M9.64,276.96c-.18,0-.24.32-.18.54.2,1.34.64-.51.18-.54Z" fill="#00aeef"/><polygon points="10.54 249.07 11.07 249.61 11.25 249.43 11.07 248.89 10.54 249.07" fill="#00aeef"/><polygon points="11.43 103.5 11.61 103.32 11.79 102.78 11.25 102.96 11.43 103.5" fill="#00aeef"/><path d="M25.47,58.16c.31-.45,1.32-.3.72-1.08-.48-.2-1.28.83-.72,1.08Z" fill="#00aeef"/><path d="M26.19,53.84s.73-.53.36-.72c-.97-.21-1.4.63-.36.72Z" fill="#00aeef"/><path d="M26.91,52.04c.55-.21-.24-1.12-.36-1.08-.37.11-.31,1.34.36,1.08Z" fill="#00aeef"/><path d="M27.63,60.32c.06.01.1,0,.15,0v-.94c-.25.28-.55.85-.15.93Z" fill="#00aeef"/><polygon points="22.77 56.18 23.31 56.36 23.49 56.18 22.95 55.64 22.77 56.18" fill="#00aeef"/><polygon points="26.91 56 27.27 56 27.27 55.28 26.91 55.64 26.91 56" fill="#00aeef"/><polygon points="25.11 50.6 24.75 50.96 24.75 51.32 25.11 51.32 25.11 50.6" fill="#00aeef"/><path d="M4.78,64.46c.54,1.06,1.98.18,1.62-.9l-1.62.9Z" fill="#00aeef"/><path d="M16.65,64.82c.16-.26-.34-.81-.54-.9-1.66-.7-.16,2.03.54.9Z" fill="#00aeef"/><path d="M2.08,65.36c-.96.34,1.38,1.58.9.54-.02-.05-.85-.56-.9-.54Z" fill="#00aeef"/><path d="M7.84,65.36c.06.03,1.37-.65.72-1.08-.22.21-1.5.72-.72,1.08Z" fill="#00aeef"/><path d="M13.23,63.2c-.05,0-.73.53-.36.72,2.01.33.83-.76.36-.72Z" fill="#00aeef"/><path d="M4.24,62.84c-1.35-.19.12,1.49.54.54.02-.03-.5-.53-.54-.54Z" fill="#00aeef"/><path d="M11.07,62.84c-.06-.02-1.03.84-.72,1.08.54.21,1.27-.93.72-1.08Z" fill="#00aeef"/><path d="M9.28,62.84c.53.23.79-.56.36-.72-.55-.2-.79.53-.36.72Z" fill="#00aeef"/><path d="M2.08,63.56c.07-.01.72-.54.36-.72-.74-.01-1.26.86-.36.72Z" fill="#00aeef"/><polygon points="17.55 70.04 17.19 70.4 17.19 70.76 17.55 70.76 17.55 70.04" fill="#00aeef"/><path d="M16.11,68.6c-.18,0-.24.32-.18.54.2,1.34.64-.51.18-.54Z" fill="#00aeef"/><path d="M10,68.6l.36-.36h-.36c-.71-.06-.71.42,0,.36Z" fill="#00aeef"/><polygon points="9.28 67.16 8.74 67.34 8.92 67.88 9.1 67.7 9.28 67.16" fill="#00aeef"/><polygon points="6.76 67.52 7.12 67.52 7.12 66.8 6.76 67.16 6.76 67.52" fill="#00aeef"/><path d="M5.32,66.8l.36-.36h-.36c-.71-.06-.71.42,0,.36Z" fill="#00aeef"/><polygon points="18.63 67.16 18.81 66.98 18.63 66.44 18.09 66.62 18.63 67.16" fill="#00aeef"/><polygon points="7.66 62.3 7.48 61.76 6.94 61.94 7.48 62.48 7.66 62.3" fill="#00aeef"/><polygon points="12.51 109.98 12.87 109.98 12.87 109.26 12.51 109.62 12.51 109.98" fill="#00aeef"/><path d="M25.83,233.42c-.18,0-.24.32-.18.54.2,1.34.64-.51.18-.54Z" fill="#00aeef"/><polygon points="21.87 118.98 22.05 118.8 21.87 118.26 21.33 118.44 21.87 118.98" fill="#00aeef"/><polygon points="24.93 119.88 25.47 120.06 25.65 119.88 25.11 119.34 24.93 119.88" fill="#00aeef"/><polygon points="14.13 31.35 13.95 30.81 13.41 30.99 13.95 31.53 14.13 31.35" fill="#00aeef"/><polygon points="18.99 121.86 19.17 121.68 19.35 121.14 18.81 121.32 18.99 121.86" fill="#00aeef"/><polygon points="23.49 122.4 24.03 122.58 24.21 122.4 23.67 121.86 23.49 122.4" fill="#00aeef"/><polygon points="20.79 122.58 20.79 122.94 21.15 122.94 21.15 122.22 20.79 122.58" fill="#00aeef"/><polygon points="25.47 126.18 25.65 126 25.83 125.46 25.29 125.64 25.47 126.18" fill="#00aeef"/><polygon points="16.11 18.93 16.47 18.93 16.47 18.22 16.11 18.57 16.11 18.93" fill="#00aeef"/><polygon points=".1 305.93 .64 306.11 .82 305.93 .28 305.39 .1 305.93" fill="#00aeef"/><path d="M16.29,13.54c.04-.94-.08-.72-.72-.36.11.59.44.26.72.36Z" fill="#00aeef"/><polygon points="8.56 142.01 8.2 142.37 8.2 142.73 8.56 142.73 8.56 142.01" fill="#00aeef"/><polygon points="4.42 7.6 3.88 7.06 3.7 7.6 4.24 7.78 4.42 7.6" fill="#00aeef"/><polygon points="8.92 5.26 8.56 5.62 8.56 5.98 8.92 5.98 8.92 5.26" fill="#00aeef"/><polygon points="7.66 2.92 7.12 2.38 6.94 2.92 7.48 3.1 7.66 2.92" fill="#00aeef"/><path d="M23.49,209.84c.45.98,3.37,1.24,2.7-.54l-2.7.54Z" fill="#00aeef"/><path d="M27.27,211.46c0-.22.22-.44.51-.65v-1.08c-.54.44-.97,1.15-.51,1.73Z" fill="#00aeef"/><path d="M24.75,212.54c-1,.58.75,1.72,1.26.9.22-.36-1.19-.94-1.26-.9Z" fill="#00aeef"/><path d="M21.87,209.3c-.37.11-.31,1.34.36,1.08.55-.21-.24-1.12-.36-1.08Z" fill="#00aeef"/><path d="M21.15,212.18c.53.23.79-.56.36-.72-.55-.2-.79.53-.36.72Z" fill="#00aeef"/><polygon points="26.37 213.44 26.91 213.98 27.09 213.8 26.91 213.26 26.37 213.44" fill="#00aeef"/><polygon points="23.31 212.54 22.77 212.72 22.95 213.26 23.13 213.08 23.31 212.54" fill="#00aeef"/><polygon points="2.98 203.73 2.44 203.19 2.26 203.73 2.8 203.91 2.98 203.73" fill="#00aeef"/><polygon points="1.9 178.18 2.44 178.72 2.62 178.54 2.44 178 1.9 178.18" fill="#00aeef"/><polygon points="20.43 180.16 20.79 180.16 20.79 179.44 20.43 179.8 20.43 180.16" fill="#00aeef"/><polygon points=".46 180.34 0 179.88 0 180.42 .28 180.52 .46 180.34" fill="#00aeef"/><polygon points="10 195.63 9.46 195.81 10 196.35 10.18 196.17 10 195.63" fill="#00aeef"/><path d="M19.71,11.74l.54-.9c-.81-.65-.57.52-1.08.54.13.31.13.49.54.36Z" fill="#00aeef"/><path d="M21.87,12.46c.25-.39-.14-.43-.36-.72-.45.66-.14,1.49.36.72Z" fill="#00aeef"/><path d="M9.82,337.78h-1.08c-.82,1.08.75,1.01,1.08,0Z" fill="#00aeef"/><path d="M27.78,342.61v-.98l-1.59,2.27c.4.1,1.05-.53,1.59-1.29Z" fill="#00aeef"/><path d="M20.61,357.93l-.36,1.08c.13.31.95,1.78,1.44,1.62-.47-1.09.47-2.62-1.08-2.7Z" fill="#00aeef"/><path d="M15.75,360.81c-.91,2.84,2.52,2.74,1.62.9-.05-.11-1.53.53-1.62-.9Z" fill="#00aeef"/><path d="M.46,352.53c.12.49-.21.69-.36,1.08-.03.07-.06.13-.1.19v.83c1.72-1.18.65-1.75.46-2.1Z" fill="#00aeef"/><path d="M23.67,344.61c.35.11,1.13-1.99,1.26-2.16-.31.2-.96.37-1.08.54l-.18,1.62Z" fill="#00aeef"/><path d="M22.23,361.17c-.4.79-.9,1.18,0,1.8.18-.65.77-1.35,0-1.8Z" fill="#00aeef"/><path d="M18.63,356.13c-1.23-.23-.47.84,0,1.44.74-.23.2-1.4,0-1.44Z" fill="#00aeef"/><path d="M24.93,342.46c.15-.09.84.77,1.08.18.15-.37-.16-1.38-1.08-.18Z" fill="#00aeef"/><path d="M20.25,359.01l.36-1.08c-.97-.05-.6.51-.36,1.08Z" fill="#00aeef"/><path d="M15.39,357.57c-.06-.03-1.02.82-.72,1.08.91.35,1.25-.78.72-1.08Z" fill="#00aeef"/><path d="M18.99,358.29c-.73-.15-.71.91-.36,1.08.14.07.91-.97.36-1.08Z" fill="#00aeef"/><path d="M19.35,361.17c-.55-.2-.79.53-.36.72.53.23.79-.56.36-.72Z" fill="#00aeef"/><polygon points="15.57 354.51 15.75 353.97 15.21 354.15 15.39 354.69 15.57 354.51" fill="#00aeef"/><polygon points="26.55 339.22 26.73 339.04 26.91 338.5 26.37 338.68 26.55 339.22" fill="#00aeef"/></svg>