<?xml version="1.0" encoding="UTF-8"?><svg id="a" xmlns="http://www.w3.org/2000/svg" width="9.82mm" height="127.42mm" viewBox="0 0 27.84 361.2"><path d="M27.84,191.04c-1.73,1.74-2.45,4.15-3.36,6.36l3.36.12v1.2c-.81.05-1.67-.11-2.47.05-1.24.25-1.9,1.69-3.05,1.99-4.35,1.14-11.89-4.52-16.2-5.9-1.91-.61-4.13-.96-6.13-.95v-1.2c2.39.2,4.8.42,7.09,1.19,3.13,1.06,6.18,3.19,9.24,4.44,1.28.52,4,1.66,5.25.95,1.96-1.1,3.94-8.38,6.26-9.95v1.68Z"/><path d="M27.84,62.88c-1.56,1.97-2.71,4.4-3.36,6.84l3.36-.12v1.2c-.71-.37-2.1-.07-2.84.16-1.82.57-1.7,2.07-4.2,1.98-3.63-.13-8.29-3.23-11.59-4.75-2.96-1.36-5.86-2.41-9.21-2.19v-1.2c2.26.02,4.62.33,6.77,1.03,3.23,1.05,11.41,6.23,14.22,5.69,2.14-.42,4.66-8.73,6.85-10.08v1.44Z"/><path d="M27.84,318.96c-1.62,1.82-2.57,4.32-3.36,6.6,0,.33,2.94.04,3.36-.12v1.2c-1.02-.04-2.32.04-3.26.46-.87.39-1.32,1.45-2.2,1.64-4.75,1.07-11.93-4.5-16.5-5.96-1.91-.61-3.9-.77-5.89-.95v-.96c6.41-.63,11.25,3.53,16.81,5.63,1.35.51,3.5,1.53,4.78.72,2.1-1.33,3.92-8.13,6.25-9.95v1.68Z"/><path d="M0,350.64l1.44-.96c1.16,1.94,3.2,4.04,4.93,5.51,2.28,1.94,8.25,5.86,10.92,3.01.68-.72,1.29-3.12,2.5-3.01s5.45,5.59,8.06,4.57v1.44c-1.35-.15-2.58-.48-3.77-1.15-.78-.44-3.7-3.17-4.03-3.17-.72,0-1.82,2.56-3.31,3.17-4.92,2.04-11.2-3.57-14.33-6.88-.36-.38-1.03-1.64-1.52-1.55l-.87.7v-1.68Z"/><path d="M0,222.72l1.44-.96c2.38,3.65,8.72,9.63,13.33,9.37,3.16-.18,2.63-2.25,4.17-3.51,1.28-1.05,2.14.63,3.02,1.33,1.75,1.37,3.49,2.88,5.87,2.89v1.2c-1.19.04-2.55-.28-3.61-.83s-3.7-3.26-4.43-3.28c-.45,0-1.56,2.11-2.06,2.53-2.39,2.04-6.39.6-8.78-.78-3.16-1.83-5.62-4.64-8.12-7.23l-.84.71v-1.44Z"/><path d="M27.84,103.92v1.2c-3.37.08-5.38-2.51-7.84-4.29-1.67,1.3-1.96,3.29-4.52,3.57-5.67.62-11.02-4.95-14.41-8.88l-1.07.72v-1.68l1.3-.72c.17.04,1.92,2.38,2.29,2.76,2.59,2.69,10.01,9.14,13.69,5.51.54-.53,1.27-2.41,1.68-2.64,1.44-.81,2.97,1.51,3.96,2.27,1.51,1.16,2.99,1.93,4.91,2.17Z"/><path d="M27.84,217.92v1.68c-2.93,1.25-5.74,3.07-9,3.36-7.89.7-13.14-4.69-18.84-9.12v-1.68c4.32,3.53,8.19,7.52,13.87,8.81,5.22,1.18,9.52-.43,13.97-3.05Z"/><path d="M27.84,90v1.44c-8.52,5.66-16.61,3.61-24.11-2.41-1.22-.98-2.36-2.4-3.73-3.11v-1.92c5.12,4.73,10.88,9.82,18.37,9.37,3.44-.2,6.47-1.89,9.47-3.37Z"/><path d="M27.84,345.84v1.68c-2.49,1.27-4.82,2.57-7.63,3.05-8.04,1.38-14.68-3.68-20.21-8.81v-1.68c4.36,3.74,8.51,7.84,14.39,9.01,5.07,1.01,9.2-.66,13.45-3.25Z"/><path d="M27.84,37.68v1.2c-1.77.48-3.81,1.1-5.64,1.2-7.66.4-14.97-7.92-22.2-9.84v-1.44c7.72,1.96,14.3,10.06,22.69,9.85,1.69-.04,3.49-.73,5.15-.97Z"/><path d="M27.84,48.24v1.44c-3.7,3.47-8.77,6.64-14.05,6.49s-9.58-4-13.79-6.73v-1.44c6.71,4.01,12.12,9.48,20.41,5.41,2.7-1.33,4.89-3.59,7.43-5.17Z"/><path d="M27.84,293.52v1.44c-1.48.28-2.93.83-4.44.96-3.32.27-5.49-.22-8.44-1.63-5.02-2.4-9.48-6.45-14.95-7.97v-1.68c9.35,3.11,17.07,13.19,27.84,8.88Z"/><path d="M27.84,176.16v1.68c-3.39,2.69-7.23,5.66-11.71,6.17-6.8.77-10.79-3.16-16.13-6.41v-1.68c5.29,3.28,10.32,8.09,17.09,6.65,4.12-.87,7.42-4.07,10.75-6.41Z"/><path d="M27.84,304.32v1.44c-4.45,3.89-9.04,6.78-15.25,6.25-4.81-.41-8.62-4.18-12.59-6.49v-1.44c4.59,2.28,8.33,6.42,13.79,6.73,6.01.34,9.46-3.44,14.05-6.49Z"/><path d="M27.84,165.6v1.2c-1.57.57-3.49,1.1-5.16,1.2-8.25.5-14.54-8.3-22.68-9.36v-1.92c9.28,2.99,17.25,12.94,27.84,8.88Z"/><path d="M27.84,239.52v1.44c-3.6-1.1-6.6,1.96-9.85,2.99-6.31,2-11.64-2.52-17.99-.83v-1.2c6.97-2.06,12.82,3.27,19.68.12,2.75-1.26,4.54-3.77,8.16-2.52Z"/><path d="M27.84,17.76v1.68c-3.73-.52-6.46-3.42-10.33-1.57-1.91.91-3.11,2.9-4.47,4.42-1.48-.11-2.97-.39-4.46-.15-2.66.42-5.62,2.94-8.58,2.58v-1.2c3.09-.08,6.31-2.72,9.28-2.86,1.08-.05,2.33.42,3.44.35,1.53-1.68,3.13-4.05,5.47-4.63,3.4-.85,6.38.83,9.66,1.38Z"/><path d="M27.84,273.84v1.44c-4.28-.27-7.07-3.93-11.26-.82-.86.64-3.1,3.52-3.55,3.65-1.14.33-2.47-.28-3.73-.13-3,.36-6.09,2.95-9.3,2.82v-1.2c2.87-.22,5.86-2.45,8.58-2.82,1.3-.18,3.15.38,3.97.13.73-.22,1.84-2.04,2.44-2.6,4.08-3.85,8.21-1.6,12.85-.47Z"/><path d="M27.84,4.8v1.68l-3.48-3.13c-1.22.62-1.42,1.68-2.76,2.29C15.35,8.45,6.58,2.94,0,3.6v-1.44c5.6-.32,16.49,5.02,21.44,2.12.89-.52,2.08-2.6,2.92-2.61.64,0,2.66,2.75,3.47,3.12Z"/><path d="M27.84,111.6v1.44c-3.73-1.25-6.78,2.03-10.09,2.99-6.2,1.8-11.57-2.67-17.75-.83v-1.2c1.75-.52,3.82-.62,5.64-.48,5.3.42,8.07,3,13.8.59,2.83-1.19,4.74-3.9,8.4-2.52Z"/><path d="M27.84,132.72v1.68l-3.51-3.1c-.96.35-1.19,1.35-2.08,1.95-5.42,3.7-16.14-2.4-22.25-1.73v-1.2c6.03-.71,15.41,4.84,20.97,2.13,1.71-.84,2.34-3.33,4.46-2,.82.52,1.5,1.77,2.41,2.27Z"/><path d="M27.84,260.88v1.44l-3.48-3.06c-1,.48-1.31,1.54-2.35,2.15-5.56,3.26-15.9-2.36-22.01-1.97v-1.2c5.92-.51,16.23,5.11,21.53,1.97,1-.59,1.87-2.55,2.82-2.46.78.08,2.59,2.7,3.49,3.13Z"/><path d="M27.84,146.16v1.2c-4.78-.69-7.64-4.28-12.11-.23-.61.55-2.3,2.95-2.69,3.07-.78.24-2.69-.31-3.97-.13-2.95.4-5.92,2.74-9.06,2.82v-1.44c2.9.06,5.63-2.2,8.34-2.58,1.46-.2,2.78.03,4.2.14,1.56-1.37,2.33-3.22,4.33-4.09,3.88-1.69,7.19.45,10.97,1.25Z"/><path d="M0,122.16c2.51,1.31,5.07,3.15,6.48,5.64-.21.38-.54-.08-.75-.21-1.91-1.23-3.66-2.76-5.73-3.75v-1.68Z"/><path d="M0,250.08c2.46,1.54,5.23,3.12,6.48,5.88l-6.48-4.2v-1.68Z"/><rect x="14.17" width="2.83" height="2.83" fill="#231f20"/></svg>