<?xml version="1.0" encoding="UTF-8"?><svg id="a" xmlns="http://www.w3.org/2000/svg" width="9.82mm" height="128.52mm" viewBox="0 0 27.84 364.32"><path d="M27.72,235.68c.33,9.97-.25,20.02,0,30-.53,1.48-.76,3.66-2.71,3.82-.52-.15-.82-1.71-.87-2.26-.61-6.18.25-13.56,0-19.93-.47-12.38-2.86-25.5-1.68-37.91.05-.54.34-2.45.59-2.76,1.5-.9,2.1,1.77,2.39,2.88,1.71,6.59,2.03,19.12,2.27,26.16ZM25.57,268.08c1.33-1.06,1.49-2.88,1.67-4.44.84-7.47.05-16-.25-23.51-.33-8.27-.47-17.01-1.42-25.21-.11-.94-.91-7.03-1.79-7.08-.45.59-.56,1.77-.61,2.51-.96,13.93,1.14,29.24,1.92,43.21.27,4.83.34,9.69.48,14.52Z"/><path d="M27.72,111.12v16.08c-.08-12.18-1.32-25.93-2.15-38.28-.21-3.2-.41-6.51-1.67-9.48-.41.14-.61,1.26-.65,1.62-.66,5.53.21,12.32.43,17.93.52,13.71,1.13,27.47,1.9,41.17,2.17-2.27,1.78-6.31,1.9-9.26.01-.31.25-.55.25-.58v7.92c-.69,2.27-3.18,5.28-3.58,1.08-.6-6.29.25-13.7,0-20.17-.44-11.83-2.67-24.95-1.93-36.72.37-5.98,2.62-4.53,3.53.08,1.68,8.53.33,19.24,1.73,28.03l.25.58Z"/><path d="M17.45,364.32c-.83-7.36-.32-14.81-.47-22.21-.09-4.35-1.02-8.79-.19-13.13.15-.8.42-1.88,1.4-1.23,3.02,7.77,2.04,16.07,2.85,24.21v12.37h-.73v-11.89c-.74-7.83.07-15.84-2.51-23.39-.69-.01-.62,5.95-.61,6.61.11,4.85.58,9.79.72,14.63s.19,9.35.24,14.04h-.72Z"/><path d="M.02,240.72c.44-.25.4-.67.47-1.09.83-4.66-.53-10.87,1.49-15.3.65-1.43,1.09-.98,1.5.3,1.38,4.25.64,20.21-.16,25.05-.2,1.22-.46,3.84-2.11,3.5-.63-2.72-.76-5.51-.95-8.29-.02-.31-.25-.54-.25-.58-.07-1.19.05-2.41,0-3.6ZM1.93,251.28c1.83-8.42,1.88-17.17.6-25.68-.29,0-.78,4.38-.83,4.92-.52,5.76-.89,13.24-.49,18.97.01.2.21,2.42.72,1.79Z"/><path d="M.02,116.16v-3.36c.55-.6.66-2.16.71-3,.21-3.24-.28-11.28,1.24-13.87.14-.23.2-.47.55-.41.75,0,1.14,2.64,1.25,3.31.81,5.06.71,19.48-.77,24.29-1.35,4.42-2.2.27-2.48-1.83-.19-1.45-.25-3.08-.26-4.55l-.25-.58ZM1.46,123.36c.73-.73.88-2.33,1.08-3.35,1.44-7.35.85-14.94.11-22.32-.33-.06-.36.43-.41.66-.77,3.55-.47,7.6-1.03,11.21l-.18,7.45.43,6.36Z"/><path d="M27.48,364.32h-.96l-.95-15.72c-.27-4.39.15-8.97-1.68-13.08-.36-.28-.69,1.56-.71,1.8-.39,4.06.12,8.42.25,12.47.15,4.86.4,9.68.47,14.53h-.48l-.96-12.59c.36-4.44-.54-9.06-.24-13.46.39-5.63,2.59-4.3,3.48.12.66,3.27.27,6.89.83,10.2v4.81s.95,10.92.95,10.92Z"/><path d="M15.78,0c.45,3.61.68,7.26,1.26,10.85.37,2.24.92,4.48,1.48,6.67.18,0,.35-1.72.37-2.03.28-5.16-.23-10.36-.25-15.49h.72c.24,3.62.36,7.29.25,10.93-.08,2.6-1.04,5.5-.13,8.03.76-.01,1.82-3.32,1.97-4.02.98-4.74.46-10.13.3-14.94h.72c-.25,4.88.45,10.15-.27,14.97-.21,1.44-1.19,6.36-3.45,4.97-1.75-1.08-2.73-8.8-2.96-10.94-.33-2.99-.27-6.03-.72-9h.72Z"/><path d="M15.54,364.32h-.96v-12.85c-.63-3.75,0-7.92-1.13-11.57-.15-.49-.25-1.28-.78-1.5v25.92h-.72c-.05-5.72.06-11.45,0-17.17-.02-2.32-.43-4.77-.26-7.2.22-3.1.94-4.81,2.34-.9,1.05,2.92,1.16,8.91,1.26,12.18.13,4.36-.3,8.77.23,13.09Z"/><path d="M27.72,48.48v1.44L.02,49.2v-2.16c5.49.82,11.06.91,16.58,1.45h11.11Z"/><polygon points="27.72 176.4 27.72 177.84 .02 177.12 .02 175.2 15.89 176.41 27.72 176.4"/><path d="M27.72,304.32v1.68l-11.81-.73c-5.31.19-10.59-.66-15.89,0v-2.16c9.2.77,18.47,1.93,27.7,1.2Z"/><path d="M5.75,364.32c.44-6.25-.99-14.17,1.12-20.12.15-.43.37-.98.91-1.01.19,0,1.26,2.98,1.32,3.48.52,4.61-.26,10.34-.01,15.13.04.83.39,1.65.25,2.51h-.96c-.24-5.32.32-10.92,0-16.21-.02-.4-.35-2.99-.61-2.99-1.43,3.07-.78,6.67-1.32,9.95l.25,9.25h-.96Z"/><path d="M25.09,0l.6,12.24c2.27-3.42,1.57-8.27,1.79-12.24h.24c-.28,3.09.38,6.84,0,9.84-.34,2.66-3.22,5.94-3.59,1.09-.27-3.52.22-7.37,0-10.93h.96Z"/><path d="M4.08,364.32h-.72l-.84-10.8c-.54-.02-1.17,9.83-1.07,10.8h-.72c.27-3.37-.27-8.94,1.07-12,.53-1.2,1.08-.88,1.49.18,1.25,3.31.57,8.3.78,11.81Z"/><path d="M13.39,0l.72,8.64,1.43-.48c-.43.87-1.4,3.67-2.09,1.26-.8-2.81-.55-6.52-1.26-9.42h1.19Z"/><path d="M9.1,0c-.31,2.34-2.56,2.8-2.39,0h2.39Z"/><path d="M18.14,199.47c.88,1.85,1.27,3.9,1.63,5.92,2.95,16.37.02,34.4,2.71,51.04-.25,4.78.42,9.9-.28,14.62-.23,1.55-1.61,7.24-3.9,4.46-2.66-3.23-3.31-21.2-3.48-26.02-.39-10.92.85-24.52-.77-34.98-.2-1.29-.66-2.51-.89-3.78-1.31,1.02-.49,2.89-.47,4.19.29,16.63-.69,33.29,1.43,49.81l1.43-.36c-.42.4-.99,2.54-1.9,1.79-.16-.13-.61-3.45-.69-3.98-2-13.64-2.02-30.57-1.47-44.37.07-1.7-.16-7.69.84-8.76,1.29-1.38,2.07,3.53,2.2,4.27,3.28,18.32-1.42,38.97,3.29,57.41l.84,2.88c.31-4.15.37-8.42.25-12.61-.2-6.83-.82-13.77-1.21-20.63-.61-10.93-1.03-21.95-1.2-32.87-.04-2.81-.17-5.42.98-8.04h.67ZM19.84,275.04c2.65-4.78,2.08-10.43,2.16-15.73-1.97-14.17-1.25-28.5-1.92-42.71-.24-5.04-.31-10.28-2.27-15-1.19,2.37-.88,5.62-.85,8.29.04,3.62.12,7.39.24,11.04.49,15.03,2.87,30.94,2.41,45.84-.08,2.43-.98,5.57-.26,7.92.1.34-.14.42.48.35Z"/><path d="M8.55,257.45c-.18.21-1.11.71-1.35.54-.24-.76-.6-1.49-.7-2.3-.38-3.06.06-6.04-.02-9.1-.23-9.18-1.63-18.87-.18-28,.08-.52.64-3.23,1.03-3.32l.93.25c1.27,3.83.92,7.92,1.06,11.89.29,8.26.96,18.97-.02,27.08-.08.7-.35,2.47-.76,2.96ZM7.9,216.96c-.56-.56-.83,1.61-.88,1.87-1.48,7.98-.75,22.91-.32,31.38.07,1.4.26,3.62.55,4.96.05.21.33,1.63.65,1.39,1.58-4.71,1.29-10.27,1.21-15.25-.11-6.65-.07-14.82-.73-21.35-.1-.99-.37-2.01-.48-3Z"/><path d="M18.16,71.52c1.32,3.88,2.14,8.01,2.39,12.12.91,15.09.08,30.29,1.92,45.35-.39,4.02,1.22,16.58-2.41,18.96-1.7,1.12-2.15-1.41-2.55-2.69-4.56-14.8-2.5-35.58-3.17-51.29-.16-3.83-.04-7.72-1.2-11.4l-.48.35c-.29,13.47.12,27.07.24,40.58l1.21,13.31,1.43-.6c-.3.33-1.44,2.39-1.91,2.04-1.58-6.76-1.26-13.84-1.43-20.77-.22-9.31-.39-18.75-.5-28.06-.03-2.86-.14-5.74.49-8.53,1.38-1.14,2.55,5.02,2.62,5.64,1.86,16.91-.76,34.86,2.19,51.8l1.39,6.4.49-12.13c0-.57-.24-1.09-.26-1.66-.39-14.9-2.25-29.71-1.65-44.66-.18-3.48-.73-7.33-.5-10.8.04-.64.43-4.82,1.68-3.95ZM19.6,147.12c1.39-.85,1.66-2.97,1.88-4.47.58-4.02.11-8.16.28-12.22-1.78-15.46-1.01-31.06-1.92-46.55-.21-3.59-.94-7.28-2.03-10.68-.84,1.95-.66,4.49-.61,6.61.19,7.34.74,14.74.97,22.06l1.43,45.25Z"/><path d="M7.31,87.36l.7.24,1.09,2.99c-.31,11.43.51,22.94.49,34.33,0,.89-.86,5.44-2.04,5.16-.98-1.18-1.16-3.17-1.32-4.68-.93-8.75-1.08-22.16-.49-30.97.06-.95,1-6.88,1.57-7.07ZM7.9,128.4c0-1.01.77-2.05.84-2.99.41-5.52-.29-12.39-.37-18-.07-5.01.33-10.45.02-15.38-.06-.98-.3-2.07-.61-2.99-.5-.01-1.01,4.52-1.07,5.16-.79,8.96.46,19.14.49,28.33,0,1.64-.21,3.21.06,4.97.07.43.06,1.09.64.9Z"/></svg>