<?xml version="1.0" encoding="UTF-8"?><svg id="a" xmlns="http://www.w3.org/2000/svg" width="60.6mm" height="128.5mm" viewBox="0 0 171.78 364.25"><path d="M158.51,155.99l13.27,13.27v-6.88l-6.52-6.64c0-.41,4.07-4.36,4.38-4.38.2-.01,1.06.78,2.15,1.86v-6.51l-2.4-2.35-10.88,11.62Z" fill="none"/><path d="M161.63,104.36c-.59.77-3.29,2.65-3.12,3.62,1.51,1.14,8.61,8.81,13.27,13.4v-7.02c-4.33-4.11-9.24-8.7-10.15-10.01Z" fill="none"/><path d="M169.38,128.36c-.56.61-3.02,2.86-2.88,3.62.07.37,2.73,3.15,5.27,5.64v-7c-1.16-1.07-2.08-1.93-2.4-2.26Z" fill="none"/><polygon points="171.78 233.26 171.78 230.51 170.51 231.99 171.78 233.26" fill="none"/><path d="M166.51,259.99c.07.37,2.73,3.15,5.27,5.64v-6.92l-2.4-2.34c-.46.77-3.05,2.7-2.88,3.62Z" fill="none"/><polygon points="158.51 171.99 171.78 185.07 171.78 178.61 161.38 168.36 158.51 171.99" fill="none"/><path d="M158.51,283.99c1.71,1.06,8.67,8.84,13.27,13.63v-7.24l-6.52-6.64c0-.41,4.07-4.36,4.38-4.38.2-.01,1.06.78,2.15,1.86v-6.51l-2.4-2.35-10.88,11.62Z" fill="none"/><path d="M161.63,232.36c-.59.77-3.29,2.65-3.12,3.62,1.51,1.14,8.61,8.81,13.27,13.4v-7.02c-4.33-4.11-9.24-8.7-10.15-10.01Z" fill="none"/><path d="M169.13,193.36c-2.86.46-2.19,5.48,1.25,4.75.69-.15,1.15-.62,1.4-1.22v-2.13c-.37-.93-1.25-1.63-2.65-1.41Z" fill="none"/><path d="M121.13,161.36c-2.86.46-2.19,5.48,1.25,4.75,2.52-.54,2.02-5.27-1.25-4.75Z" fill="none"/><path d="M121.63,86.86l3.12-3.38-14.62-14.88c-.57.75-3.56,2.61-3.38,3.62.19,1.03,13.23,12.77,14.88,14.62Z" fill="none"/><path d="M118.38,66.11c2.52-.54,2.02-5.27-1.25-4.75-2.86.46-2.19,5.48,1.25,4.75Z" fill="none"/><path d="M129.63,88.36c-1.11,1.59-10.98,10.35-11.12,11.12-.16.87,2.62,2.88,3.12,3.62,1.1-1.58,11.38-10.57,11.38-11.38,0-.24-3.02-2.84-3.38-3.38Z" fill="none"/><path d="M117.13,109.36c-2.78.54-2.22,5.49,1.25,4.75,2.6-.55,1.9-5.36-1.25-4.75Z" fill="none"/><path d="M146.13,126.86c.26-.1,2.9-2.86,2.88-3.12l-19.38-19.38-3.12,3.62c2.41,1.87,18.35,19.36,19.62,18.88Z" fill="none"/><path d="M121.13,145.36c-2.86.46-2.19,5.48,1.25,4.75,2.52-.54,2.02-5.27-1.25-4.75Z" fill="none"/><path d="M137.13,97.36c-2.86.46-2.19,5.48,1.25,4.75,2.52-.54,2.02-5.27-1.25-4.75Z" fill="none"/><path d="M162.38,78.11c2.52-.54,2.02-5.27-1.25-4.75-2.86.46-2.19,5.48,1.25,4.75Z" fill="none"/><path d="M162.38,206.11c2.52-.54,2.02-5.27-1.25-4.75-2.86.46-2.19,5.48,1.25,4.75Z" fill="none"/><path d="M145.13,105.36c-2.86.46-2.19,5.48,1.25,4.75,2.52-.54,2.02-5.27-1.25-4.75Z" fill="none"/><path d="M169.13,65.36c-2.06.37-2.54,3.61-.5,4.5,1.67.73,2.74-.05,3.15-1.15v-2.01c-.35-.92-1.2-1.6-2.65-1.34Z" fill="none"/><polygon points="171.78 105.26 171.78 102.51 170.51 103.99 171.78 105.26" fill="none"/><path d="M146.38,158.11c2.52-.54,2.02-5.27-1.25-4.75-2.86.46-2.19,5.48,1.25,4.75Z" fill="none"/><path d="M145.63,95.11l3.38-3.38-23.12-22.88c-.54.75-3.31,2.36-3.12,3.38.29,1.59,20.67,19.67,22.88,22.88Z" fill="none"/><path d="M145.63,191.11l11.38-11.38-3.38-3.38c-1.11,1.59-10.98,10.35-11.12,11.12-.16.87,2.62,2.88,3.12,3.62Z" fill="none"/><path d="M51.26,313.99c-.13-1.24-15.97-15.12-17.62-17.62l-3.38,3.38,15.75,15.88h.25c1.54,2.17,1.88,2.17,3.5,0h.25c.12-.54,1.31-1.06,1.25-1.62Z" fill="none"/><path d="M105.51,16.36v-.25l-7.88-7.75c-.36.54-3.07,2.83-3.12,3.12-.17.91,9.75,10.06,11,11.38v.25l3.5-3.38-3.5-3.38Z" fill="none"/><path d="M51.26,57.99c-.13-1.24-15.97-15.12-17.62-17.62l-3.38,3.38,15.75,15.88h.25c1.54,2.17,1.88,2.17,3.5,0h.25c.12-.54,1.31-1.06,1.25-1.62Z" fill="none"/><polygon points="25.63 48.36 14.51 59.61 17.63 63.11 21.01 59.61 21.26 59.61 29.01 51.74 25.63 48.36" fill="none"/><path d="M112.76,311.74l-7.25-7.38v-.25c-2.29-1.34-14.3-15.14-15.38-15.25-.45-.05-2.9,2.39-3.38,2.88l18.75,19.12v.25l3.88,3.75,3.38-3.12Z" fill="none"/><path d="M57.63,32.36c-.51.75-3.28,2.76-3.12,3.62.3,1.64,21.33,20.21,23.5,23.62h.25c1.98,2.68,2.13,2.08,4.25,0h.25l1-1.12-26.12-26.12Z" fill="none"/><path d="M105.51,1.36c-2.95.52-2.99,4.2,0,4.75,3.34.01,3.37-4.59,0-4.75Z" fill="none"/><path d="M112.76,55.74l-7.25-7.38v-.25c-2.29-1.34-14.3-15.14-15.38-15.25-.45-.05-2.9,2.39-3.38,2.88l18.75,19.12v.25l3.88,3.75,3.38-3.12Z" fill="none"/><path d="M63.26,59.61c.22,3.28,4.72,3.39,4.75,0-.3-3.07-4.27-2.93-4.75,0Z" fill="none"/><polygon points="25.63 304.36 14.51 315.61 17.63 319.11 21.01 315.61 21.26 315.61 29.01 307.74 25.63 304.36" fill="none"/><path d="M129.13,169.36c-2.84.51-2.19,5.48,1.25,4.75,2.57-.55,1.95-5.32-1.25-4.75Z" fill="none"/><path d="M169.13,321.36c-2.06.37-2.54,3.61-.5,4.5,1.67.73,2.74-.05,3.15-1.15v-2.01c-.35-.92-1.2-1.6-2.65-1.34Z" fill="none"/><path d="M63.26,315.61c.22,3.28,4.72,3.39,4.75,0-.3-3.07-4.27-2.93-4.75,0Z" fill="none"/><path d="M57.63,288.36c-.51.75-3.28,2.76-3.12,3.62.3,1.64,21.33,20.21,23.5,23.62h.25c1.98,2.68,2.13,2.08,4.25,0h.25l1-1.12-26.12-26.12Z" fill="none"/><path d="M100.76,315.61l-6.62-7-3.38,3.38,3.25,3.62h.25c1.26.97,8.71,9.5,9.38,9.5.17,0,1.43-1.65,1.88-1.75v-.25c1.57-.99,1.62-1.73,0-2.75v-.25l-4.5-4.5h-.25Z" fill="none"/><path d="M161.63,296.36c-.36.54-3.38,3.14-3.38,3.38,0,.89,9.12,8.9,13.52,13.34v-6.71c-4.4-4.15-9.27-8.68-10.15-10.01Z" fill="none"/><path d="M105.51,272.36v-.25l-7.88-7.75c-.36.54-3.07,2.83-3.12,3.12-.17.91,9.75,10.06,11,11.38v.25l3.5-3.38-3.5-3.38Z" fill="none"/><path d="M105.51,257.36c-2.95.52-2.99,4.2,0,4.75,3.34.01,3.37-4.59,0-4.75Z" fill="none"/><path d="M114.76,233.74c.04-.66-8.19-8.26-9.25-9.38v-.25c-.72-.66-4.37-3.84-4.25-4.62.04-.29,3.7-3.6,4.25-4.12l8.12,7.75,3.38-3.38-11.5-11.38-11.25,11.38,11.25,11.12v.25l5.88,5.75c.4.04,3.36-2.9,3.38-3.12Z" fill="none"/><path d="M105.51,192.36v-.25l-11.38-11.5-3.38,3.38c1.63,1.39,11.96,13.12,12.88,13.12.17,0,1.43-1.65,1.88-1.75v-.25c1.57-.99,1.62-1.73,0-2.75Z" fill="none"/><polygon points="153.63 304.36 142.51 315.61 145.63 319.11 149.01 315.61 149.26 315.61 157.01 307.74 153.63 304.36" fill="none"/><path d="M105.51,288.36v-.25l-59.88-59.75-3.12,3.12,63,63.38v.25l20.5,20.5h.25l9.38,9.5c.51-.75,3.28-2.76,3.12-3.62-.09-.52-5.24-4.82-5.75-5.88h-.25l-27.25-27.25Z" fill="none"/><path d="M105.51,129.36c-2.95.52-2.99,4.2,0,4.75,3.34.01,3.37-4.59,0-4.75Z" fill="none"/><path d="M114.76,105.99l-9.25-9.62v-.25c-.72-.66-4.37-3.84-4.25-4.62.04-.29,3.7-3.6,4.25-4.12l8.12,7.75,3.38-3.38-11.5-11.38-11.25,11.38,11.25,11.12v.25l5.88,5.75,3.38-2.88Z" fill="none"/><path d="M105.51,64.36v-.25l-4.5-4.5h-.25l-6.62-7-3.38,3.38,3.25,3.62h.25c1.26.97,8.71,9.5,9.38,9.5.17,0,1.43-1.65,1.88-1.75v-.25c1.57-.99,1.62-1.73,0-2.75Z" fill="none"/><polygon points="149.01 59.61 149.26 59.61 157.01 51.74 153.63 48.36 142.51 59.61 145.63 63.11 149.01 59.61" fill="none"/><path d="M105.51,144.36v-.25l-7.88-7.75c-.36.54-3.07,2.83-3.12,3.12-.17.91,9.75,10.06,11,11.38v.25l3.5-3.38-3.5-3.38Z" fill="none"/><polygon points="138.76 193.99 105.51 160.36 105.51 160.11 45.63 100.36 42.51 103.49 105.51 166.86 105.51 167.11 135.63 197.11 138.76 193.99" fill="none"/><path d="M112.76,183.74l-7.25-7.38v-.25c-2.29-1.34-14.3-15.14-15.38-15.25-.25-.03-3.33,2.65-3.38,2.88l18.75,19.12v.25l3.88,3.75,3.38-3.12Z" fill="none"/><path d="M105.51,352.36v-.25c-.72-.66-4.37-3.84-4.25-4.62.04-.29,3.7-3.6,4.25-4.12l8.12,7.75,3.38-3.38-11.5-11.38-11.25,11.38,11.25,11.12v.25l5.25,5.14h1.34l2.66-2.27-9.25-9.62Z" fill="none"/><path d="M81.13,249.36c-2.9.52-2.14,5.47,1.25,4.75,2.47-.53,2.13-5.36-1.25-4.75Z" fill="none"/><path d="M77.63,220.36c-1.48,2.14-14.93,14.07-15.12,15.12-.16.87,2.62,2.88,3.12,3.62l15.38-15.38-3.38-3.38Z" fill="none"/><path d="M86.51,211.49c-.16.87,2.62,2.88,3.12,3.62l11.38-11.38-3.38-3.38c-1.11,1.58-10.98,10.35-11.12,11.12Z" fill="none"/><path d="M90.38,198.11c2.57-.56,1.89-5.4-1.25-4.75-2.78.57-2.23,5.51,1.25,4.75Z" fill="none"/><path d="M25.88,86.86c.29-.05,2.58-2.76,3.12-3.12l-15.12-15.12-3.12,3.62c1.88,1.48,14.09,14.82,15.12,14.62Z" fill="none"/><path d="M80.38,189.61c.23-.02,2.88-2.76,3.38-3.12l-.5-.75-25.62-25.38-3.12,3.62c3.58,2.31,24.06,25.81,25.88,25.62Z" fill="none"/><path d="M65.63,216.36c-1.11,1.59-10.98,10.35-11.12,11.12-.16.87,2.62,2.88,3.12,3.62l11.38-11.38-3.38-3.38Z" fill="none"/><path d="M86.38,178.11c2.6-.55,1.9-5.36-1.25-4.75-2.78.54-2.22,5.49,1.25,4.75Z" fill="none"/><path d="M57.13,193.36c-2.86.46-2.19,5.48,1.25,4.75,2.52-.54,2.02-5.27-1.25-4.75Z" fill="none"/><path d="M54.38,130.11c2.47-.53,2.02-5.1-1-4.75-3.13.36-2.5,5.49,1,4.75Z" fill="none"/><path d="M48.38,141.61c.21-.03,3.08-2.67,3.12-2.88.23-1.14-8.72-8.98-10.12-10.38-.26,1.01-3.05,2.65-2.88,3.62.12.68,9.19,9.72,9.88,9.62Z" fill="none"/><path d="M34.38,78.11c2.52-.54,2.02-5.27-1.25-4.75-2.86.46-2.19,5.48,1.25,4.75Z" fill="none"/><path d="M42.38,70.11c2.49-.53,2.11-5.29-1.25-4.75-2.86.46-2.19,5.48,1.25,4.75Z" fill="none"/><path d="M82.38,158.11c2.49-.53,2.11-5.29-1.25-4.75-2.86.46-2.19,5.48,1.25,4.75Z" fill="none"/><path d="M47.88,124.86c.49-.72,3.03-2.51,2.88-3.38-.22-1.19-15.46-14.71-17.12-17.12-.65.65-3.29,2.68-3.12,3.62.2,1.19,15.33,14.93,17.38,16.88Z" fill="none"/><path d="M73.88,150.86c.49-.72,3.03-2.51,2.88-3.38-.14-.77-10.02-9.54-11.12-11.12-.51.75-3.28,2.76-3.12,3.62.14.77,9.89,9.76,11.38,10.88Z" fill="none"/><path d="M79.88,172.86c.49-.72,3.03-2.51,2.88-3.38-.22-1.19-15.46-14.71-17.12-17.12-.51.75-3.28,2.76-3.12,3.62.22,1.19,15.32,14.93,17.38,16.88Z" fill="none"/><path d="M58.38,150.11c2.49-.53,2.11-5.29-1.25-4.75-2.86.46-2.19,5.48,1.25,4.75Z" fill="none"/><path d="M65.13,185.36c-2.86.46-2.19,5.48,1.25,4.75,2.49-.53,2.11-5.29-1.25-4.75Z" fill="none"/><path d="M73.88,278.86c.22-.04,2.98-2.81,2.88-3.38-.14-.77-10.02-9.54-11.12-11.12-.51.75-3.28,2.76-3.12,3.62.14.77,10.6,11.02,11.38,10.88Z" fill="none"/><path d="M54.38,258.11c2.6-.55,1.9-5.36-1.25-4.75-2.78.54-2.22,5.49,1.25,4.75Z" fill="none"/><path d="M79.88,300.86c.22-.04,2.98-2.81,2.88-3.38-.22-1.19-15.46-14.71-17.12-17.12l-3.12,3.62c2.2,1.66,16.18,17.09,17.38,16.88Z" fill="none"/><path d="M58.38,278.11c2.5-.54,2.09-5.29-1.25-4.75-2.83.45-2.22,5.51,1.25,4.75Z" fill="none"/><path d="M30.51,155.99l17.38,17.38,3.38-3.38c-1.39-1.89-14-13.25-14-14.25,0-.49,4.11-4.43,4.62-4.38l7.75,7.75,3.38-3.38-11.62-11.38-10.88,11.62Z" fill="none"/><path d="M41.63,279.36c.58-.03,6.96,6.91,8,7.75l3.38-3.38-11.62-11.38-10.88,11.62,17.38,17.38,3.38-3.38-14-14.25c0-.41,4.07-4.36,4.38-4.38Z" fill="none"/><path d="M26.38,246.11c2.52-.54,2.02-5.27-1.25-4.75-2.86.46-2.19,5.48,1.25,4.75Z" fill="none"/><path d="M48.38,269.61c.23-.03,2.84-2.78,3.38-3.12l-10.12-10.12c-.65.65-3.29,2.68-3.12,3.62.12.68,9.19,9.72,9.88,9.62Z" fill="none"/><path d="M86.38,306.11c2.53-.54,1.95-5.37-1.25-4.75-2.92.57-2.06,5.45,1.25,4.75Z" fill="none"/><path d="M82.38,286.11c2.47-.53,2.13-5.36-1.25-4.75-2.9.52-2.14,5.47,1.25,4.75Z" fill="none"/><path d="M25.63,135.11l11.38-11.38-3.38-3.38c-1.11,1.59-10.98,10.35-11.12,11.12-.16.87,2.62,2.88,3.12,3.62Z" fill="none"/><path d="M25.63,151.11l11.38-11.38-3.38-3.38c-1.11,1.59-10.98,10.35-11.12,11.12-.16.87,2.62,2.88,3.12,3.62Z" fill="none"/><path d="M26.38,118.11c2.5-.54,2.09-5.29-1.25-4.75-2.83.45-2.22,5.51,1.25,4.75Z" fill="none"/><path d="M33.63,232.36c-.59.77-3.29,2.65-3.12,3.62,2.2,1.66,16.18,17.09,17.38,16.88.22-.04,2.98-2.81,2.88-3.38-.22-1.19-15.46-14.71-17.12-17.12Z" fill="none"/><path d="M49.13,201.36c-2.86.46-2.19,5.48,1.25,4.75,2.52-.54,2.02-5.27-1.25-4.75Z" fill="none"/><path d="M34.38,206.11c2.52-.54,2.02-5.27-1.25-4.75-2.86.46-2.19,5.48,1.25,4.75Z" fill="none"/><path d="M41.13,193.36c-2.86.46-2.19,5.48,1.25,4.75,2.52-.54,2.02-5.27-1.25-4.75Z" fill="none"/><path d="M51.51,186.24l-17.88-17.88c-.72.62-3.3,2.65-3.12,3.62,2.41,1.62,16.4,17.53,17.62,17.38.23-.03,2.79-2.81,3.38-3.12Z" fill="none"/><path d="M161.63,360.36c-.59.77-3.29,2.65-3.12,3.62.09.07.2.16.32.27h6.53c-1.85-1.79-3.28-3.24-3.72-3.89Z" fill="none"/><path d="M97.63,328.36c-1.11,1.59-10.98,10.35-11.12,11.12-.16.86,2.39,2.66,2.88,3.38l11.62-11.12-3.38-3.38Z" fill="none"/><path d="M25.63,263.11l11.38-11.38-3.38-3.38c-1.11,1.59-10.98,10.35-11.12,11.12-.16.87,2.62,2.88,3.12,3.62Z" fill="none"/><path d="M145.13,361.36c-1.46.23-1.99,1.65-1.72,2.89h4.54c.19-1.48-.77-3.22-2.82-2.89Z" fill="none"/><path d="M90.38,326.11c2.57-.56,1.89-5.4-1.25-4.75-2.78.57-2.23,5.51,1.25,4.75Z" fill="none"/><path d="M126.51,363.99c.09.07.2.16.32.27h6.7l-3.89-3.89-3.12,3.62Z" fill="none"/><path d="M54.51,355.49c-.16.87,2.62,2.88,3.12,3.62l11.38-11.38-3.38-3.38c-1.11,1.59-10.98,10.35-11.12,11.12Z" fill="none"/><path d="M41.13,321.36c-2.86.46-2.19,5.48,1.25,4.75,2.49-.53,2.11-5.29-1.25-4.75Z" fill="none"/><path d="M56.63,325.86c4.04,1.76,4.6-5.16.5-4.5-2.01.32-2.58,3.59-.5,4.5Z" fill="none"/><path d="M49.13,329.36c-2.86.46-2.19,5.48,1.25,4.75,2.52-.54,2.02-5.27-1.25-4.75Z" fill="none"/><path d="M137.13,353.36c-2.86.46-2.19,5.48,1.25,4.75,2.52-.54,2.02-5.27-1.25-4.75Z" fill="none"/><path d="M122.76,328.24c.29,1.59,20.67,19.67,22.88,22.88l3.38-3.38-23.12-22.88c-.54.75-3.31,2.36-3.12,3.38Z" fill="none"/><path d="M161.13,329.36c-2.86.46-2.19,5.48,1.25,4.75,2.52-.54,2.02-5.27-1.25-4.75Z" fill="none"/><path d="M141.88,324.61l-3.38,3.38c1.91,1.5,14.32,15.07,15.38,14.88.22-.04,2.98-2.81,2.88-3.38-.19-1.03-13.38-12.78-14.88-14.88Z" fill="none"/><polygon points="170.51 359.99 171.78 361.26 171.78 358.51 170.51 359.99" fill="none"/><path d="M118.38,322.11c2.52-.54,2.02-5.27-1.25-4.75-2.86.46-2.19,5.48,1.25,4.75Z" fill="none"/><path d="M121.63,342.86l3.12-3.38-14.62-14.88c-.57.75-3.56,2.61-3.38,3.62.19,1.03,13.23,12.77,14.88,14.62Z" fill="none"/><path d="M33.13,329.36c-2.86.46-2.19,5.48,1.25,4.75,2.52-.54,2.02-5.27-1.25-4.75Z" fill="none"/><path d="M129.63,344.36c-1.11,1.59-10.98,10.35-11.12,11.12-.16.87,2.62,2.88,3.12,3.62,1.1-1.58,11.38-10.57,11.38-11.38,0-.24-3.02-2.84-3.38-3.38Z" fill="none"/><path d="M33.63,360.36c-.65.65-3.29,2.68-3.12,3.62,0,.06.06.15.14.27h6.71c-1.85-1.79-3.28-3.24-3.72-3.89Z" fill="none"/><path d="M17.13,233.36c-2.86.46-2.19,5.48,1.25,4.75,2.52-.54,2.02-5.27-1.25-4.75Z" fill="none"/><path d="M10.38,262.11c2.49-.53,2.11-5.29-1.25-4.75-2.86.46-2.19,5.48,1.25,4.75Z" fill="none"/><path d="M18.38,286.11c2.52-.54,2.02-5.27-1.25-4.75-2.86.46-2.19,5.48,1.25,4.75Z" fill="none"/><path d="M10.76,321.49c-.09-.52-5.24-4.82-5.75-5.88h-.25l-4.76-4.76v6.53l7.63,7.73c.51-.75,3.28-2.76,3.12-3.62Z" fill="none"/><path d="M17.63,191.11l11.38-11.38-3.38-3.38c-1.11,1.59-10.98,10.35-11.12,11.12-.16.87,2.62,2.88,3.12,3.62Z" fill="none"/><path d="M17.63,351.11c.24,0,3.41-2.99,3.38-3.38-2.67-1.69-15.72-16.52-21.01-21.35v6.82c6.53,6.79,16.45,17.91,17.63,17.91Z" fill="none"/><path d="M9.13,225.36c-2.86.46-2.19,5.48,1.25,4.75,2.52-.54,2.02-5.27-1.25-4.75Z" fill="none"/><path d="M10.76,328.24c1.88,1.48,14.09,14.82,15.12,14.62.29-.05,2.58-2.76,3.12-3.12l-15.12-15.12-3.12,3.62Z" fill="none"/><path d="M25.88,214.86c.29-.05,2.58-2.76,3.12-3.12l-15.12-15.12-3.12,3.62c1.88,1.48,14.09,14.82,15.12,14.62Z" fill="none"/><path d="M9.13,129.36c-2.86.46-2.19,5.48,1.25,4.75,2.52-.54,2.02-5.27-1.25-4.75Z" fill="none"/><path d="M77.63,348.36c-1.48,2.14-14.93,14.07-15.12,15.12-.04.2.09.47.31.77h5.68l12.52-12.52-3.38-3.38Z" fill="none"/><polygon points="42.51 359.49 47.24 364.25 53.54 364.25 45.63 356.36 42.51 359.49" fill="none"/><path d="M97.13,361.36c-1.47.26-2,1.67-1.72,2.89h4.54c.23-1.5-.7-3.27-2.82-2.89Z" fill="none"/><path d="M9.13,353.36c-2.86.46-2.19,5.48,1.25,4.75,2.52-.54,2.02-5.27-1.25-4.75Z" fill="none"/><path d="M18.38,158.11c2.52-.54,2.02-5.27-1.25-4.75-2.86.46-2.19,5.48,1.25,4.75Z" fill="none"/><path d="M1.63,344.36c-.23.33-.83.96-1.63,1.76v6.63l5.01-5.01-3.38-3.38Z" fill="none"/><polygon points="0 362.25 0 364.25 5.52 364.25 1.63 360.36 0 362.25" fill="none"/><path d="M17.13,361.36c-1.46.23-1.99,1.65-1.72,2.89h4.54c.19-1.48-.77-3.22-2.82-2.89Z" fill="none"/><polygon points="10.76 193.49 0 182.73 0 189.48 7.63 197.11 10.76 193.49" fill="none"/><path d="M161.63,40.36c-.36.54-3.38,3.14-3.38,3.38,0,.89,9.12,8.9,13.52,13.34v-6.71c-4.4-4.15-9.27-8.68-10.15-10.01Z" fill="none"/><path d="M166.51,3.99c.07.37,2.73,3.15,5.27,5.64V2.7l-2.4-2.34c-.46.77-3.05,2.7-2.88,3.62Z" fill="none"/><path d="M153.63,23.11l11.38-11.38-3.38-3.38c-1.11,1.59-10.98,10.35-11.12,11.12-.16.87,2.62,2.88,3.12,3.62Z" fill="none"/><path d="M150.51,3.49c-.16.87,2.62,2.88,3.12,3.62l7.11-7.11h-6.9c-1.84,1.76-3.28,3.19-3.34,3.49Z" fill="none"/><path d="M158.51,27.99c1.71,1.06,8.67,8.84,13.27,13.63v-7.24l-6.52-6.64c0-.41,4.07-4.36,4.38-4.38.2-.01,1.06.78,2.15,1.86v-6.51l-2.4-2.35-10.88,11.62Z" fill="none"/><path d="M150.51,131.49c-.16.87,2.62,2.88,3.12,3.62l11.38-11.38-3.38-3.38c-1.11,1.59-10.98,10.35-11.12,11.12Z" fill="none"/><path d="M33.63,264.36c-1.11,1.59-10.98,10.35-11.12,11.12-.16.87,2.62,2.88,3.12,3.62l11.38-11.38-3.38-3.38Z" fill="none"/><path d="M154.38,118.11c2.52-.54,2.02-5.27-1.25-4.75-2.86.46-2.19,5.48,1.25,4.75Z" fill="none"/><path d="M141.88,68.61l-3.38,3.38c1.91,1.5,14.32,15.07,15.38,14.88.22-.04,2.98-2.81,2.88-3.38-.19-1.03-13.38-12.78-14.88-14.88Z" fill="none"/><path d="M130.38,14.11c2.52-.54,2.02-5.27-1.25-4.75-2.86.46-2.19,5.48,1.25,4.75Z" fill="none"/><path d="M122.38,22.11c2.52-.54,2.02-5.27-1.25-4.75-2.86.46-2.19,5.48,1.25,4.75Z" fill="none"/><path d="M122.38,38.11c2.54-.55,2.01-5.27-1.25-4.75-2.83.45-2.22,5.51,1.25,4.75Z" fill="none"/><path d="M105.51,39.11l20.5,20.5h.25l9.38,9.5c.51-.75,3.28-2.76,3.12-3.62-.09-.52-5.24-4.82-5.75-5.88h-.25l-27.25-27.25v-.25L73.33,0h-6.45l38.63,38.86v.25Z" fill="none"/><path d="M54.38,2.11c1.05-.22,1.55-1.14,1.58-2.11h-4.57c.14,1.3,1.15,2.5,2.99,2.11Z" fill="none"/><path d="M146.38,30.11c2.52-.54,2.02-5.27-1.25-4.75-2.86.46-2.19,5.48,1.25,4.75Z" fill="none"/><path d="M138.38,6.11c2.47-.53,2.13-5.36-1.25-4.75-2.9.52-2.14,5.47,1.25,4.75Z" fill="none"/><path d="M128.38,45.61c4.09,2.49,5.04-5.02.75-4.25-1.73.31-2.67,3.09-.75,4.25Z" fill="none"/><path d="M150.51,259.49c-.16.87,2.62,2.88,3.12,3.62l11.38-11.38-3.38-3.38c-1.11,1.59-10.98,10.35-11.12,11.12Z" fill="none"/><path d="M153.13,241.36c-2.86.46-2.19,5.48,1.25,4.75,2.49-.53,2.11-5.29-1.25-4.75Z" fill="none"/><path d="M133.01,219.74c0-.24-3.02-2.84-3.38-3.38-1.11,1.59-10.98,10.35-11.12,11.12-.16.87,2.62,2.88,3.12,3.62,1.08-1.61,11.38-10.57,11.38-11.38Z" fill="none"/><path d="M121.13,289.36c-2.83.45-2.22,5.51,1.25,4.75,2.54-.55,2.01-5.27-1.25-4.75Z" fill="none"/><path d="M121.38,214.86c.51.06,3.51-2.62,3.38-3.38-1.92-1.44-14.13-14.98-15.12-14.62-.21.07-2.97,2.85-2.88,3.38,2.09,1.39,13.6,14.5,14.62,14.62Z" fill="none"/><path d="M117.13,237.36c-2.78.54-2.22,5.49,1.25,4.75,2.6-.55,1.9-5.36-1.25-4.75Z" fill="none"/><path d="M121.13,273.36c-2.86.46-2.19,5.48,1.25,4.75,2.52-.54,2.02-5.27-1.25-4.75Z" fill="none"/><path d="M153.63,215.11l3.38-3.38-15.12-15.12c-.51.75-3.28,2.76-3.12,3.62.19,1.03,13.42,12.77,14.88,14.88Z" fill="none"/><path d="M137.13,129.36c-2.86.46-2.19,5.48,1.25,4.75,2.49-.53,2.11-5.29-1.25-4.75Z" fill="none"/><path d="M22.51,3.49c-.16.87,2.62,2.88,3.12,3.62l7.11-7.11h-6.9c-1.84,1.76-3.28,3.19-3.34,3.49Z" fill="none"/><path d="M118.38,194.11c2.42-.51,2.1-5.03-1-4.75-3.22.29-2.45,5.48,1,4.75Z" fill="none"/><path d="M126.51,235.99c2.41,1.87,18.35,19.36,19.62,18.88.26-.1,2.9-2.86,2.88-3.12l-19.38-19.38-3.12,3.62Z" fill="none"/><path d="M150.51,275.49c-.16.87,2.62,2.88,3.12,3.62l11.38-11.38-3.38-3.38c-1.11,1.59-10.98,10.35-11.12,11.12Z" fill="none"/><path d="M146.38,238.11c2.54-.55,2.01-5.27-1.25-4.75-2.83.45-2.22,5.51,1.25,4.75Z" fill="none"/><path d="M138.38,230.11c2.52-.54,2.02-5.27-1.25-4.75-2.86.46-2.19,5.48,1.25,4.75Z" fill="none"/><path d="M122.76,200.24c3.25,2.01,21.26,22.88,22.88,22.88.24,0,3.41-2.99,3.38-3.38l-23.12-22.88-3.12,3.38Z" fill="none"/><path d="M145.13,281.36c-2.86.46-2.19,5.48,1.25,4.75,2.52-.54,2.02-5.27-1.25-4.75Z" fill="none"/><path d="M129.13,265.36c-2.86.46-2.19,5.48,1.25,4.75,2.52-.54,2.02-5.27-1.25-4.75Z" fill="none"/><path d="M137.13,257.36c-2.9.52-2.14,5.47,1.25,4.75,2.47-.53,2.13-5.36-1.25-4.75Z" fill="none"/><path d="M129.13,297.36c-1.73.31-2.67,3.09-.75,4.25,4.09,2.49,5.04-5.02.75-4.25Z" fill="none"/><path d="M150.51,147.49c-.16.87,2.62,2.88,3.12,3.62l11.38-11.38-3.38-3.38c-1.11,1.59-10.98,10.35-11.12,11.12Z" fill="none"/><path d="M97.13,249.36c-2.84.51-2.19,5.48,1.25,4.75,2.57-.55,1.95-5.32-1.25-4.75Z" fill="none"/><path d="M.38,301.61c4.02,2.45,5.06-5.02.75-4.25-.44.08-.83.32-1.13.65v3.31c.11.1.24.2.38.29Z" fill="none"/><path d="M2.38,270.11c2.52-.54,2.02-5.27-1.25-4.75-.48.08-.85.29-1.13.57v3.5c.51.58,1.31.91,2.38.68Z" fill="none"/><path d="M98.38,238.11c2.47-.53,2.13-5.36-1.25-4.75-2.9.52-2.14,5.47,1.25,4.75Z" fill="none"/><path d="M97.13,121.36c-2.86.46-2.19,5.48,1.25,4.75,2.52-.54,2.02-5.27-1.25-4.75Z" fill="none"/><path d="M129.13,137.36c-2.86.46-2.19,5.48,1.25,4.75,2.52-.54,2.02-5.27-1.25-4.75Z" fill="none"/><path d="M18.13,254.86c.26-.1,2.9-2.86,2.88-3.12L1.63,232.36l-1.63,1.89v3.11c4.69,4.6,17.02,17.92,18.13,17.5Z" fill="none"/><path d="M17.63,223.11c.24,0,3.42-2.96,3.38-3.38-2.67-1.69-15.72-16.52-21.01-21.35v6.82c6.53,6.79,16.45,17.91,17.63,17.91Z" fill="none"/><path d="M98.38,110.11c2.47-.53,2.13-5.36-1.25-4.75-2.9.52-2.14,5.47,1.25,4.75Z" fill="none"/><path d="M1.63,216.36c-.23.33-.83.96-1.63,1.76v6.63l5.01-5.01-3.38-3.38Z" fill="none"/><path d="M50.38,78.11c2.52-.54,2.02-5.27-1.25-4.75-2.86.46-2.19,5.48,1.25,4.75Z" fill="none"/><path d="M9.13,97.36c-2.86.46-2.19,5.48,1.25,4.75,2.52-.54,2.02-5.27-1.25-4.75Z" fill="none"/><path d="M57.63,103.11l11.38-11.38-3.38-3.38c-1.11,1.59-10.98,10.35-11.12,11.12-.16.87,2.62,2.88,3.12,3.62Z" fill="none"/><path d="M2.38,174.11c2.52-.54,2.02-5.27-1.25-4.75-.48.08-.85.29-1.13.57v3.5c.51.58,1.31.91,2.38.68Z" fill="none"/><path d="M17.13,105.36c-2.86.46-2.19,5.48,1.25,4.75,2.52-.54,2.02-5.27-1.25-4.75Z" fill="none"/><path d="M89.38,86.86l11.62-11.12-3.38-3.38c-1.11,1.59-10.98,10.35-11.12,11.12-.16.86,2.39,2.66,2.88,3.38Z" fill="none"/><path d="M82.38,126.11c2.52-.54,2.02-5.27-1.25-4.75-2.86.46-2.19,5.48,1.25,4.75Z" fill="none"/><path d="M90.38,70.11c2.57-.56,1.89-5.4-1.25-4.75-2.78.57-2.23,5.51,1.25,4.75Z" fill="none"/><path d="M56.63,69.86c4.04,1.76,4.6-5.16.5-4.5-2.01.32-2.58,3.59-.5,4.5Z" fill="none"/><path d="M62.51,107.49c-.16.87,2.62,2.88,3.12,3.62l15.38-15.38-3.38-3.38c-1.48,2.14-14.93,14.07-15.12,15.12Z" fill="none"/><path d="M58.38,22.11c2.5-.54,2.09-5.29-1.25-4.75-2.83.45-2.22,5.51,1.25,4.75Z" fill="none"/><path d="M79.88,44.86c.22-.04,2.98-2.81,2.88-3.38-.22-1.19-15.46-14.71-17.12-17.12l-3.12,3.62c2.2,1.66,16.18,17.09,17.38,16.88Z" fill="none"/><path d="M2.38,14.11c2.52-.54,2.02-5.27-1.25-4.75-.48.08-.85.29-1.13.57v3.5c.51.58,1.31.91,2.38.68Z" fill="none"/><path d="M73.88,22.86c.22-.04,2.98-2.81,2.88-3.38-.14-.77-10.02-9.54-11.12-11.12-.51.75-3.28,2.76-3.12,3.62.14.77,10.6,11.02,11.38,10.88Z" fill="none"/><path d="M30.51,27.99l17.38,17.38,3.38-3.38-14-14.25c0-.41,4.07-4.36,4.38-4.38.58-.03,6.96,6.91,8,7.75l3.38-3.38-11.62-11.38-10.88,11.62Z" fill="none"/><path d="M86.38,50.11c2.53-.54,1.95-5.37-1.25-4.75-2.92.57-2.06,5.45,1.25,4.75Z" fill="none"/><path d="M82.38,30.11c2.47-.53,2.13-5.36-1.25-4.75-2.9.52-2.14,5.47,1.25,4.75Z" fill="none"/><path d="M.38,45.61c4.02,2.45,5.06-5.02.75-4.25-.44.08-.83.32-1.13.65v3.31c.11.1.24.2.38.29Z" fill="none"/><path d="M48.38,13.61c.23-.03,2.84-2.78,3.38-3.12L41.63.36c-.65.65-3.29,2.68-3.12,3.62.12.68,9.19,9.72,9.88,9.62Z" fill="none"/><path d="M18.13,126.86c.26-.1,2.9-2.86,2.88-3.12L1.63,104.36l-1.63,1.89v3.11c4.69,4.6,17.02,17.92,18.13,17.5Z" fill="none"/><path d="M1.63,88.36c-.23.33-.83.96-1.63,1.76v6.63l5.01-5.01-3.38-3.38Z" fill="none"/><path d="M10.76,65.49c-.09-.52-5.24-4.82-5.75-5.88h-.25l-4.76-4.76v6.53l7.63,7.73c.51-.75,3.28-2.76,3.12-3.62Z" fill="none"/><path d="M17.63,95.11c.24,0,3.41-2.99,3.38-3.38-2.67-1.69-15.72-16.52-21.01-21.35v6.82c6.53,6.79,16.45,17.91,17.63,17.91Z" fill="none"/><path d="M10.38,6.11c2.49-.53,2.11-5.29-1.25-4.75-2.86.46-2.19,5.48,1.25,4.75Z" fill="none"/><path d="M18.38,30.11c2.52-.54,2.02-5.27-1.25-4.75-2.86.46-2.19,5.48,1.25,4.75Z" fill="none"/><path d="M2.38,142.11c2.52-.54,2.02-5.27-1.25-4.75-.48.08-.85.29-1.13.57v3.5c.51.58,1.31.91,2.38.68Z" fill="none"/><path d="M25.63,23.11l11.38-11.38-3.38-3.38c-1.11,1.59-10.98,10.35-11.12,11.12-.16.87,2.62,2.88,3.12,3.62Z" fill="none"/><path d="M105.51,6.11v10.25l3.5,3.38-3.5,3.38v9.25l27.25,27.25h9.75l11.12-11.25,3.38,3.38-7.75,7.88h22.52v-2.54c-4.4-4.44-13.52-12.45-13.52-13.34,0-.24,3.02-2.84,3.38-3.38.88,1.33,5.75,5.86,10.15,10.01v-8.76c-4.6-4.78-11.57-12.57-13.27-13.63l10.88-11.62,2.4,2.35v-9.09c-2.55-2.48-5.21-5.27-5.27-5.64-.17-.93,2.42-2.85,2.88-3.62l2.4,2.34V0h-11.04l-7.11,7.11c-.51-.75-3.28-2.76-3.12-3.62.05-.29,1.5-1.73,3.34-3.49h-48.34v1.36c3.37.16,3.34,4.76,0,4.75ZM161.63,8.36l3.38,3.38-11.38,11.38c-.51-.75-3.28-2.76-3.12-3.62.14-.77,10.02-9.54,11.12-11.12ZM145.13,25.36c3.27-.52,3.77,4.21,1.25,4.75-3.44.73-4.11-4.29-1.25-4.75ZM137.13,1.36c3.38-.61,3.72,4.22,1.25,4.75-3.39.72-4.15-4.23-1.25-4.75ZM129.13,9.36c3.27-.52,3.77,4.21,1.25,4.75-3.44.73-4.11-4.29-1.25-4.75ZM129.13,41.36c4.29-.77,3.34,6.74-.75,4.25-1.92-1.16-.98-3.94.75-4.25ZM121.13,17.36c3.27-.52,3.77,4.21,1.25,4.75-3.44.73-4.11-4.29-1.25-4.75ZM121.13,33.36c3.26-.52,3.79,4.2,1.25,4.75-3.47.76-4.08-4.3-1.25-4.75Z" fill="#00aeef"/><path d="M165.26,27.74l6.52,6.64v-9.16c-1.09-1.08-1.95-1.87-2.15-1.86-.31.02-4.38,3.96-4.38,4.38Z" fill="#00aeef"/><polygon points="105.51 39.11 105.51 48.11 105.51 48.36 112.76 55.74 109.38 58.86 105.51 55.11 105.51 59.61 126.01 59.61 105.51 39.11" fill="#00aeef"/><path d="M149.01,59.61l-3.38,3.5-3.12-3.5h-9.5c.51,1.05,5.66,5.36,5.75,5.88.16.87-2.62,2.88-3.12,3.62l-9.38-9.5h-20.75v4.75c1.62,1.02,1.57,1.76,0,2.75v13.25l11.5,11.38-3.38,3.38-8.12-7.75v9l9.25,9.62-3.38,2.88-5.88-5.75v26.25c3.37.16,3.34,4.76,0,4.75v10.25l3.5,3.38-3.5,3.38v9.25l33.25,33.62-3.12,3.12-30.12-30v9.25l7.25,7.38-3.38,3.12-3.88-3.75v9.25c1.62,1.02,1.57,1.76,0,2.75v13.25l11.5,11.38-3.38,3.38-8.12-7.75v9c1.06,1.11,9.29,8.72,9.25,9.38-.02.23-2.98,3.17-3.38,3.12l-5.88-5.75v26.25c3.37.16,3.34,4.76,0,4.75v10.25l3.5,3.38-3.5,3.38v9.25l27.25,27.25h9.75l11.12-11.25,3.38,3.38-7.75,7.88h22.52v-2.54c-4.4-4.44-13.52-12.45-13.52-13.34,0-.24,3.02-2.84,3.38-3.38.88,1.33,5.75,5.86,10.15,10.01v-8.76c-4.6-4.78-11.57-12.57-13.27-13.63l10.88-11.62,2.4,2.35v-9.09c-2.55-2.48-5.21-5.27-5.27-5.64-.17-.93,2.42-2.85,2.88-3.62l2.4,2.34v-9.31c-4.67-4.6-11.76-12.26-13.27-13.4-.17-.98,2.54-2.85,3.12-3.62.91,1.31,5.82,5.9,10.15,10.01v-9.11l-1.27-1.28,1.27-1.48v-33.62c-.25.59-.71,1.07-1.4,1.22-3.44.73-4.11-4.29-1.25-4.75,1.4-.22,2.28.48,2.65,1.41v-9.7l-13.27-13.09,2.88-3.62,10.4,10.25v-9.35l-13.27-13.27,10.88-11.62,2.4,2.35v-9.09c-2.55-2.48-5.21-5.27-5.27-5.64-.14-.76,2.31-3.02,2.88-3.62.32.34,1.24,1.19,2.4,2.26v-9.23c-4.67-4.6-11.76-12.26-13.27-13.4-.17-.98,2.54-2.85,3.12-3.62.91,1.31,5.82,5.9,10.15,10.01v-9.11l-1.27-1.27,1.27-1.48v-33.8c-.41,1.1-1.48,1.88-3.15,1.15-2.04-.89-1.56-4.13.5-4.5,1.44-.26,2.3.42,2.65,1.34v-7.09h-22.77ZM161.13,201.36c3.27-.52,3.77,4.21,1.25,4.75-3.44.73-4.11-4.29-1.25-4.75ZM161.13,73.36c3.27-.52,3.77,4.21,1.25,4.75-3.44.73-4.11-4.29-1.25-4.75ZM125.88,68.86l23.12,22.88-3.38,3.38c-2.21-3.21-22.58-21.28-22.88-22.88-.19-1.02,2.59-2.63,3.12-3.38ZM153.63,176.36l3.38,3.38-11.38,11.38c-.51-.75-3.28-2.76-3.12-3.62.14-.77,10.02-9.54,11.12-11.12ZM145.13,153.36c3.27-.52,3.77,4.21,1.25,4.75-3.44.73-4.11-4.29-1.25-4.75ZM146.38,110.11c-3.44.73-4.11-4.29-1.25-4.75,3.27-.52,3.77,4.21,1.25,4.75ZM138.38,102.11c-3.44.73-4.11-4.29-1.25-4.75,3.27-.52,3.77,4.21,1.25,4.75ZM133.01,91.74c0,.8-10.27,9.8-11.38,11.38-.51-.75-3.28-2.76-3.12-3.62.14-.77,10.02-9.54,11.12-11.12.36.54,3.38,3.14,3.38,3.38ZM117.13,61.36c3.27-.52,3.77,4.21,1.25,4.75-3.44.73-4.11-4.29-1.25-4.75ZM106.76,72.24c-.19-1.01,2.8-2.88,3.38-3.62l14.62,14.88-3.12,3.38c-1.64-1.86-14.69-13.6-14.88-14.62ZM118.38,114.11c-3.47.74-4.03-4.21-1.25-4.75,3.15-.61,3.85,4.2,1.25,4.75ZM122.38,166.11c-3.44.73-4.11-4.29-1.25-4.75,3.27-.52,3.77,4.21,1.25,4.75ZM122.38,150.11c-3.44.73-4.11-4.29-1.25-4.75,3.27-.52,3.77,4.21,1.25,4.75ZM129.63,104.36l19.38,19.38c.03.26-2.62,3.03-2.88,3.12-1.27.49-17.22-17.01-19.62-18.88l3.12-3.62ZM130.38,174.11c-3.44.73-4.09-4.24-1.25-4.75,3.2-.57,3.82,4.2,1.25,4.75ZM130.38,142.11c-3.44.73-4.11-4.29-1.25-4.75,3.27-.52,3.77,4.21,1.25,4.75ZM138.38,134.11c-3.44.73-4.11-4.29-1.25-4.75,3.36-.54,3.74,4.22,1.25,4.75ZM141.88,196.61l15.12,15.12-3.38,3.38c-1.46-2.11-14.68-13.84-14.88-14.88-.16-.87,2.62-2.88,3.12-3.62ZM154.38,246.11c-3.44.73-4.11-4.29-1.25-4.75,3.36-.54,3.74,4.22,1.25,4.75ZM117.38,189.36c3.1-.28,3.42,4.24,1,4.75-3.45.73-4.22-4.46-1-4.75ZM106.76,200.24c-.1-.52,2.67-3.3,2.88-3.38.99-.35,13.2,13.19,15.12,14.62.14.75-2.86,3.44-3.38,3.38-1.03-.12-12.54-13.23-14.62-14.62ZM121.63,231.11c-.51-.75-3.28-2.76-3.12-3.62.14-.77,10.02-9.54,11.12-11.12.36.54,3.38,3.14,3.38,3.38,0,.8-10.3,9.76-11.38,11.38ZM122.38,278.11c-3.44.73-4.11-4.29-1.25-4.75,3.27-.52,3.77,4.21,1.25,4.75ZM118.38,242.11c-3.47.74-4.03-4.21-1.25-4.75,3.15-.61,3.85,4.2,1.25,4.75ZM122.38,294.11c-3.47.76-4.08-4.3-1.25-4.75,3.26-.52,3.79,4.2,1.25,4.75ZM128.38,301.61c-1.92-1.16-.98-3.94.75-4.25,4.29-.77,3.34,6.74-.75,4.25ZM130.38,270.11c-3.44.73-4.11-4.29-1.25-4.75,3.27-.52,3.77,4.21,1.25,4.75ZM138.38,262.11c-3.39.72-4.15-4.23-1.25-4.75,3.38-.61,3.72,4.22,1.25,4.75ZM146.38,286.11c-3.44.73-4.11-4.29-1.25-4.75,3.27-.52,3.77,4.21,1.25,4.75ZM146.13,254.86c-1.27.49-17.22-17.01-19.62-18.88l3.12-3.62,19.38,19.38c.03.26-2.62,3.03-2.88,3.12ZM137.13,225.36c3.27-.52,3.77,4.21,1.25,4.75-3.44.73-4.11-4.29-1.25-4.75ZM145.13,233.36c3.26-.52,3.79,4.2,1.25,4.75-3.47.76-4.08-4.3-1.25-4.75ZM145.63,223.11c-1.62,0-19.62-20.86-22.88-22.88l3.12-3.38,23.12,22.88c.04.38-3.14,3.38-3.38,3.38ZM153.63,279.11c-.51-.75-3.28-2.76-3.12-3.62.14-.77,10.02-9.54,11.12-11.12l3.38,3.38-11.38,11.38ZM161.63,248.36l3.38,3.38-11.38,11.38c-.51-.75-3.28-2.76-3.12-3.62.14-.77,10.02-9.54,11.12-11.12ZM153.63,151.11c-.51-.75-3.28-2.76-3.12-3.62.14-.77,10.02-9.54,11.12-11.12l3.38,3.38-11.38,11.38ZM161.63,120.36l3.38,3.38-11.38,11.38c-.51-.75-3.28-2.76-3.12-3.62.14-.77,10.02-9.54,11.12-11.12ZM153.13,113.36c3.27-.52,3.77,4.21,1.25,4.75-3.44.73-4.11-4.29-1.25-4.75ZM156.76,83.49c.1.56-2.66,3.34-2.88,3.38-1.05.19-13.46-13.38-15.38-14.88l3.38-3.38c1.5,2.09,14.68,13.84,14.88,14.88Z" fill="#00aeef"/><path d="M165.26,155.74l6.52,6.64v-9.16c-1.09-1.08-1.95-1.87-2.15-1.86-.31.02-4.38,3.96-4.38,4.38Z" fill="#00aeef"/><path d="M165.26,283.74l6.52,6.64v-9.16c-1.09-1.08-1.95-1.87-2.15-1.86-.31.02-4.38,3.96-4.38,4.38Z" fill="#00aeef"/><polygon points="105.51 304.11 105.51 304.36 112.76 311.74 109.38 314.86 105.51 311.11 105.51 315.61 126.01 315.61 105.51 295.11 105.51 304.11" fill="#00aeef"/><path d="M171.78,358.51v-33.8c-.41,1.1-1.48,1.88-3.15,1.15-2.04-.89-1.56-4.13.5-4.5,1.44-.26,2.3.42,2.65,1.34v-7.09h-22.77l-3.38,3.5-3.12-3.5h-9.5c.51,1.05,5.66,5.36,5.75,5.88.16.87-2.62,2.88-3.12,3.62l-9.38-9.5h-20.75v4.75c1.62,1.02,1.57,1.76,0,2.75v13.25l11.5,11.38-3.38,3.38-8.12-7.75v9l9.25,9.62-2.66,2.27h14.73c-.12-.11-.23-.2-.32-.27l3.12-3.62,3.89,3.89h9.89c-.28-1.24.26-2.66,1.72-2.89,2.05-.33,3.01,1.41,2.82,2.89h10.87c-.12-.11-.23-.2-.32-.27-.17-.98,2.54-2.85,3.12-3.62.45.65,1.88,2.1,3.72,3.89h6.42v-2.99l-1.27-1.27,1.27-1.48ZM117.13,317.36c3.27-.52,3.77,4.21,1.25,4.75-3.44.73-4.11-4.29-1.25-4.75ZM106.76,328.24c-.19-1.01,2.8-2.88,3.38-3.62l14.62,14.88-3.12,3.38c-1.64-1.86-14.69-13.6-14.88-14.62ZM121.63,359.11c-.51-.75-3.28-2.76-3.12-3.62.14-.77,10.02-9.54,11.12-11.12.36.54,3.38,3.14,3.38,3.38,0,.8-10.27,9.8-11.38,11.38ZM138.38,358.11c-3.44.73-4.11-4.29-1.25-4.75,3.27-.52,3.77,4.21,1.25,4.75ZM145.63,351.11c-2.21-3.21-22.58-21.28-22.88-22.88-.19-1.02,2.59-2.63,3.12-3.38l23.12,22.88-3.38,3.38ZM153.88,342.86c-1.05.19-13.46-13.38-15.38-14.88l3.38-3.38c1.5,2.09,14.68,13.84,14.88,14.88.1.56-2.66,3.34-2.88,3.38ZM162.38,334.11c-3.44.73-4.11-4.29-1.25-4.75,3.27-.52,3.77,4.21,1.25,4.75Z" fill="#00aeef"/><polygon points="105.51 364.25 110.76 364.25 105.51 359.11 105.51 364.25" fill="#00aeef"/><path d="M105.51,23.11v-.25c-1.25-1.32-11.17-10.47-11-11.38.05-.29,2.76-2.58,3.12-3.12l7.88,7.75V6.11c-2.99-.55-2.95-4.23,0-4.75V0h-32.18l32.18,32.11v-9Z" fill="#00aeef"/><path d="M5.01,59.61h9.5l11.12-11.25,3.38,3.38-7.75,7.88h24.75l-15.75-15.88,3.38-3.38c1.65,2.5,17.49,16.39,17.62,17.62.06.56-1.13,1.09-1.25,1.62h13.25c.48-2.93,4.45-3.07,4.75,0h10c-2.17-3.41-23.2-21.99-23.5-23.62-.16-.87,2.62-2.88,3.12-3.62l26.12,26.12-1,1.12h11.25l-3.25-3.62,3.38-3.38,6.62,7h4.75v-4.75l-18.75-19.12c.47-.48,2.93-2.92,3.38-2.88,1.08.11,13.08,13.91,15.38,15.25v-9.25L66.88,0h-10.91c-.03.97-.54,1.89-1.58,2.11-1.84.39-2.85-.81-2.99-2.11h-18.65l-7.11,7.11c-.51-.75-3.28-2.76-3.12-3.62.05-.29,1.5-1.73,3.34-3.49H0v9.93c.28-.28.65-.49,1.13-.57,3.27-.52,3.77,4.21,1.25,4.75-1.07.23-1.87-.1-2.38-.68v28.58c.3-.33.69-.57,1.13-.65,4.31-.77,3.27,6.7-.75,4.25-.14-.09-.27-.19-.38-.29v9.53l4.76,4.76h.25ZM86.38,50.11c-3.31.7-4.17-4.18-1.25-4.75,3.2-.62,3.78,4.21,1.25,4.75ZM81.13,25.36c3.38-.61,3.72,4.22,1.25,4.75-3.39.72-4.15-4.23-1.25-4.75ZM65.63,8.36c1.11,1.59,10.98,10.35,11.12,11.12.1.56-2.66,3.34-2.88,3.38-.77.14-11.23-10.1-11.38-10.88-.16-.87,2.62-2.88,3.12-3.62ZM65.63,24.36c1.67,2.41,16.91,15.93,17.12,17.12.1.56-2.66,3.34-2.88,3.38-1.19.22-15.17-15.22-17.38-16.88l3.12-3.62ZM57.13,17.36c3.34-.54,3.75,4.21,1.25,4.75-3.47.76-4.08-4.3-1.25-4.75ZM53.01,27.74l-3.38,3.38c-1.04-.84-7.42-7.78-8-7.75-.31.02-4.38,3.96-4.38,4.38l14,14.25-3.38,3.38-17.38-17.38,10.88-11.62,11.62,11.38ZM41.63.36l10.12,10.12c-.54.35-3.15,3.09-3.38,3.12-.68.1-9.76-8.95-9.88-9.62-.16-.95,2.48-2.97,3.12-3.62ZM33.63,8.36l3.38,3.38-11.38,11.38c-.51-.75-3.28-2.76-3.12-3.62.14-.77,10.02-9.54,11.12-11.12ZM17.13,25.36c3.27-.52,3.77,4.21,1.25,4.75-3.44.73-4.11-4.29-1.25-4.75ZM9.13,1.36c3.36-.54,3.74,4.22,1.25,4.75-3.44.73-4.11-4.29-1.25-4.75Z" fill="#00aeef"/><path d="M5.01,315.61h9.5l11.12-11.25,3.38,3.38-7.75,7.88h24.75l-15.75-15.88,3.38-3.38c1.65,2.5,17.49,16.39,17.62,17.62.06.56-1.13,1.09-1.25,1.62h13.25c.48-2.93,4.45-3.07,4.75,0h10c-2.17-3.41-23.2-21.99-23.5-23.62-.16-.87,2.62-2.88,3.12-3.62l26.12,26.12-1,1.12h11.25l-3.25-3.62,3.38-3.38,6.62,7h4.75v-4.75l-18.75-19.12c.47-.48,2.93-2.92,3.38-2.88,1.08.11,13.08,13.91,15.38,15.25v-9.25l-63-63.38,3.12-3.12,59.88,59.75v-9.25c-1.25-1.32-11.17-10.47-11-11.38.05-.29,2.76-2.58,3.12-3.12l7.88,7.75v-10c-2.99-.55-2.95-4.23,0-4.75v-26.5l-11.25-11.12,11.25-11.38v-13c-.45.1-1.7,1.75-1.88,1.75-.92,0-11.24-11.73-12.88-13.12l3.38-3.38,11.38,11.5v-9.25l-18.75-19.12c.04-.23,3.12-2.9,3.38-2.88,1.08.11,13.08,13.91,15.38,15.25v-9.25l-63-63.38,3.12-3.12,59.88,59.75v-9.25c-1.25-1.32-11.17-10.47-11-11.38.05-.29,2.76-2.58,3.12-3.12l7.88,7.75v-10c-2.99-.55-2.95-4.23,0-4.75v-26.5l-11.25-11.12,11.25-11.38v-13c-.45.1-1.7,1.75-1.88,1.75-.67,0-8.11-8.53-9.38-9.5h-11.75c-2.12,2.08-2.27,2.68-4.25,0h-10.25c-.03,3.39-4.53,3.28-4.75,0h-13.5c-1.62,2.17-1.96,2.17-3.5,0h-25.25l-3.38,3.5-3.12-3.5H5.01c.51,1.05,5.66,5.36,5.75,5.88.16.87-2.62,2.88-3.12,3.62l-7.63-7.73v9c5.28,4.83,18.34,19.66,21.01,21.35.04.38-3.14,3.38-3.38,3.38-1.18,0-11.1-11.12-17.63-17.91v12.91c.8-.8,1.4-1.43,1.63-1.76l3.38,3.38-5.01,5.01v9.51l1.63-1.89,19.38,19.38c.03.26-2.62,3.03-2.88,3.12-1.11.43-13.44-12.89-18.13-17.5v28.57c.28-.28.65-.49,1.13-.57,3.27-.52,3.77,4.21,1.25,4.75-1.07.23-1.87-.1-2.38-.68v28.5c.28-.28.65-.49,1.13-.57,3.27-.52,3.77,4.21,1.25,4.75-1.07.23-1.87-.1-2.38-.68v9.3l10.76,10.76-3.12,3.62-7.63-7.63v8.9c5.28,4.83,18.33,19.66,21.01,21.35.04.42-3.14,3.37-3.38,3.38-1.18,0-11.1-11.12-17.63-17.91v12.92c.8-.8,1.4-1.43,1.63-1.76l3.38,3.38-5.01,5.01v9.51l1.63-1.89,19.38,19.38c.03.26-2.62,3.03-2.88,3.12-1.11.43-13.44-12.89-18.13-17.5v28.57c.28-.28.65-.49,1.13-.57,3.27-.52,3.77,4.21,1.25,4.75-1.07.23-1.87-.1-2.38-.68v28.58c.3-.33.69-.57,1.13-.65,4.31-.77,3.27,6.7-.75,4.25-.14-.09-.27-.19-.38-.29v9.53l4.76,4.76h.25ZM98.38,254.11c-3.44.73-4.09-4.24-1.25-4.75,3.2-.57,3.82,4.2,1.25,4.75ZM97.13,233.36c3.38-.61,3.72,4.22,1.25,4.75-3.39.72-4.15-4.23-1.25-4.75ZM98.38,126.11c-3.44.73-4.11-4.29-1.25-4.75,3.27-.52,3.77,4.21,1.25,4.75ZM97.13,105.36c3.38-.61,3.72,4.22,1.25,4.75-3.39.72-4.15-4.23-1.25-4.75ZM89.13,65.36c3.14-.65,3.82,4.19,1.25,4.75-3.48.76-4.03-4.18-1.25-4.75ZM97.63,72.36l3.38,3.38-11.62,11.12c-.49-.72-3.03-2.51-2.88-3.38.14-.77,10.02-9.54,11.12-11.12ZM82.38,126.11c-3.44.73-4.11-4.29-1.25-4.75,3.27-.52,3.77,4.21,1.25,4.75ZM77.63,92.36l3.38,3.38-15.38,15.38c-.51-.75-3.28-2.76-3.12-3.62.19-1.05,13.64-12.99,15.12-15.12ZM57.13,65.36c4.1-.66,3.54,6.26-.5,4.5-2.08-.91-1.51-4.18.5-4.5ZM65.63,88.36l3.38,3.38-11.38,11.38c-.51-.75-3.28-2.76-3.12-3.62.14-.77,10.02-9.54,11.12-11.12ZM49.13,73.36c3.27-.52,3.77,4.21,1.25,4.75-3.44.73-4.11-4.29-1.25-4.75ZM10.38,102.11c-3.44.73-4.11-4.29-1.25-4.75,3.27-.52,3.77,4.21,1.25,4.75ZM18.38,110.11c-3.44.73-4.11-4.29-1.25-4.75,3.27-.52,3.77,4.21,1.25,4.75ZM25.63,279.11c-.51-.75-3.28-2.76-3.12-3.62.14-.77,10.02-9.54,11.12-11.12l3.38,3.38-11.38,11.38ZM33.63,248.36l3.38,3.38-11.38,11.38c-.51-.75-3.28-2.76-3.12-3.62.14-.77,10.02-9.54,11.12-11.12ZM25.13,241.36c3.27-.52,3.77,4.21,1.25,4.75-3.44.73-4.11-4.29-1.25-4.75ZM51.26,297.99l-3.38,3.38-17.38-17.38,10.88-11.62,11.62,11.38-3.38,3.38c-1.04-.84-7.42-7.78-8-7.75-.31.02-4.38,3.96-4.38,4.38l14,14.25ZM38.51,259.99c-.16-.95,2.48-2.97,3.12-3.62l10.12,10.12c-.54.35-3.15,3.09-3.38,3.12-.68.1-9.76-8.95-9.88-9.62ZM86.38,306.11c-3.31.7-4.17-4.18-1.25-4.75,3.2-.62,3.78,4.21,1.25,4.75ZM81.13,281.36c3.38-.61,3.72,4.22,1.25,4.75-3.39.72-4.15-4.23-1.25-4.75ZM65.63,264.36c1.11,1.59,10.98,10.35,11.12,11.12.1.56-2.66,3.34-2.88,3.38-.77.14-11.23-10.1-11.38-10.88-.16-.87,2.62-2.88,3.12-3.62ZM65.63,280.36c1.67,2.41,16.91,15.93,17.12,17.12.1.56-2.66,3.34-2.88,3.38-1.19.22-15.17-15.22-17.38-16.88l3.12-3.62ZM58.38,278.11c-3.47.76-4.08-4.3-1.25-4.75,3.34-.54,3.75,4.21,1.25,4.75ZM53.13,253.36c3.15-.61,3.85,4.2,1.25,4.75-3.47.74-4.03-4.21-1.25-4.75ZM50.76,249.49c.1.56-2.66,3.34-2.88,3.38-1.19.22-15.17-15.22-17.38-16.88-.17-.98,2.54-2.85,3.12-3.62,1.67,2.41,16.91,15.93,17.12,17.12ZM33.13,201.36c3.27-.52,3.77,4.21,1.25,4.75-3.44.73-4.11-4.29-1.25-4.75ZM42.38,198.11c-3.44.73-4.11-4.29-1.25-4.75,3.27-.52,3.77,4.21,1.25,4.75ZM30.51,171.99c-.17-.98,2.4-3.01,3.12-3.62l17.88,17.88c-.59.31-3.15,3.1-3.38,3.12-1.23.15-15.22-15.76-17.62-17.38ZM33.63,120.36l3.38,3.38-11.38,11.38c-.51-.75-3.28-2.76-3.12-3.62.14-.77,10.02-9.54,11.12-11.12ZM25.13,113.36c3.34-.54,3.75,4.21,1.25,4.75-3.47.76-4.08-4.3-1.25-4.75ZM33.63,136.36l3.38,3.38-11.38,11.38c-.51-.75-3.28-2.76-3.12-3.62.14-.77,10.02-9.54,11.12-11.12ZM50.38,206.11c-3.44.73-4.11-4.29-1.25-4.75,3.27-.52,3.77,4.21,1.25,4.75ZM49.63,159.11l-7.75-7.75c-.52-.05-4.63,3.89-4.62,4.38,0,1,12.61,12.36,14,14.25l-3.38,3.38-17.38-17.38,10.88-11.62,11.62,11.38-3.38,3.38ZM41.38,128.36c1.4,1.39,10.35,9.24,10.12,10.38-.04.21-2.91,2.85-3.12,2.88-.68.1-9.75-8.95-9.88-9.62-.18-.97,2.62-2.61,2.88-3.62ZM54.51,227.49c.14-.77,10.02-9.54,11.12-11.12l3.38,3.38-11.38,11.38c-.51-.75-3.28-2.76-3.12-3.62ZM54.51,163.99l3.12-3.62,25.62,25.38.5.75c-.49.37-3.15,3.1-3.38,3.12-1.81.19-22.29-23.31-25.88-25.62ZM66.38,190.11c-3.44.73-4.11-4.29-1.25-4.75,3.36-.54,3.74,4.22,1.25,4.75ZM58.38,198.11c-3.44.73-4.11-4.29-1.25-4.75,3.27-.52,3.77,4.21,1.25,4.75ZM62.51,235.49c.19-1.05,13.64-12.99,15.12-15.12l3.38,3.38-15.38,15.38c-.51-.75-3.28-2.76-3.12-3.62ZM82.38,254.11c-3.39.72-4.15-4.23-1.25-4.75,3.38-.61,3.72,4.22,1.25,4.75ZM97.63,200.36l3.38,3.38-11.38,11.38c-.51-.75-3.28-2.76-3.12-3.62.14-.77,10.01-9.55,11.12-11.12ZM90.38,198.11c-3.48.76-4.03-4.18-1.25-4.75,3.14-.65,3.82,4.19,1.25,4.75ZM86.38,178.11c-3.47.74-4.03-4.21-1.25-4.75,3.15-.61,3.85,4.2,1.25,4.75ZM81.13,153.36c3.36-.54,3.74,4.22,1.25,4.75-3.44.73-4.11-4.29-1.25-4.75ZM65.63,136.36c1.11,1.59,10.98,10.35,11.12,11.12.16.86-2.39,2.66-2.88,3.38-1.48-1.11-11.23-10.1-11.38-10.88-.16-.87,2.62-2.88,3.12-3.62ZM65.63,152.36c1.67,2.41,16.91,15.93,17.12,17.12.16.86-2.39,2.66-2.88,3.38-2.06-1.95-17.16-15.68-17.38-16.88-.16-.87,2.62-2.88,3.12-3.62ZM58.38,150.11c-3.44.73-4.11-4.29-1.25-4.75,3.36-.54,3.74,4.22,1.25,4.75ZM53.38,125.36c3.02-.35,3.47,4.22,1,4.75-3.5.74-4.13-4.39-1-4.75ZM41.13,65.36c3.36-.54,3.74,4.22,1.25,4.75-3.44.73-4.11-4.29-1.25-4.75ZM33.13,73.36c3.27-.52,3.77,4.21,1.25,4.75-3.44.73-4.11-4.29-1.25-4.75ZM33.63,104.36c1.67,2.41,16.91,15.93,17.12,17.12.16.86-2.39,2.66-2.88,3.38-2.05-1.95-17.17-15.68-17.38-16.88-.16-.95,2.48-2.97,3.12-3.62ZM10.76,72.24l3.12-3.62,15.12,15.12c-.54.36-2.83,3.07-3.12,3.12-1.03.19-13.25-13.15-15.12-14.62ZM17.13,153.36c3.27-.52,3.77,4.21,1.25,4.75-3.44.73-4.11-4.29-1.25-4.75ZM25.63,176.36l3.38,3.38-11.38,11.38c-.51-.75-3.28-2.76-3.12-3.62.14-.77,10.02-9.54,11.12-11.12ZM10.38,134.11c-3.44.73-4.11-4.29-1.25-4.75,3.27-.52,3.77,4.21,1.25,4.75ZM10.76,200.24l3.12-3.62,15.12,15.12c-.54.36-2.83,3.07-3.12,3.12-1.03.19-13.25-13.15-15.12-14.62ZM10.38,230.11c-3.44.73-4.11-4.29-1.25-4.75,3.27-.52,3.77,4.21,1.25,4.75ZM18.38,238.11c-3.44.73-4.11-4.29-1.25-4.75,3.27-.52,3.77,4.21,1.25,4.75ZM17.13,281.36c3.27-.52,3.77,4.21,1.25,4.75-3.44.73-4.11-4.29-1.25-4.75ZM9.13,257.36c3.36-.54,3.74,4.22,1.25,4.75-3.44.73-4.11-4.29-1.25-4.75Z" fill="#00aeef"/><path d="M101.26,91.49c-.12.79,3.53,3.97,4.25,4.62v-8.75c-.55.52-4.21,3.83-4.25,4.12Z" fill="#00aeef"/><path d="M101.26,219.49c-.12.79,3.53,3.97,4.25,4.62v-8.75c-.55.52-4.21,3.83-4.25,4.12Z" fill="#00aeef"/><polygon points="105.51 59.61 101.01 59.61 105.51 64.11 105.51 59.61" fill="#00aeef"/><path d="M105.51,358.86l-11.25-11.12,11.25-11.38v-13c-.45.1-1.7,1.75-1.88,1.75-.67,0-8.11-8.53-9.38-9.5h-11.75c-2.12,2.08-2.27,2.68-4.25,0h-10.25c-.03,3.39-4.53,3.28-4.75,0h-13.5c-1.62,2.17-1.96,2.17-3.5,0h-25.25l-3.38,3.5-3.12-3.5H5.01c.51,1.05,5.66,5.36,5.75,5.88.16.87-2.62,2.88-3.12,3.62l-7.63-7.73v9c5.28,4.83,18.34,19.66,21.01,21.35.04.38-3.14,3.38-3.38,3.38-1.18,0-11.1-11.12-17.63-17.91v12.91c.8-.8,1.4-1.43,1.63-1.76l3.38,3.38-5.01,5.01v9.51l1.63-1.89,3.89,3.89h9.89c-.28-1.24.26-2.66,1.72-2.89,2.05-.33,3.01,1.41,2.82,2.89h10.69c-.08-.11-.13-.21-.14-.27-.16-.95,2.48-2.97,3.12-3.62.45.65,1.88,2.1,3.72,3.89h9.89l-4.74-4.77,3.12-3.12,7.91,7.89h9.27c-.22-.3-.34-.56-.31-.77.19-1.05,13.64-12.99,15.12-15.12l3.38,3.38-12.52,12.52h26.92c-.28-1.22.25-2.63,1.72-2.89,2.13-.38,3.05,1.39,2.82,2.89h5.55v-5.39ZM10.38,358.11c-3.44.73-4.11-4.29-1.25-4.75,3.27-.52,3.77,4.21,1.25,4.75ZM25.88,342.86c-1.03.19-13.25-13.15-15.12-14.62l3.12-3.62,15.12,15.12c-.54.36-2.83,3.07-3.12,3.12ZM34.38,334.11c-3.44.73-4.11-4.29-1.25-4.75,3.27-.52,3.77,4.21,1.25,4.75ZM42.38,326.11c-3.44.73-4.11-4.29-1.25-4.75,3.36-.54,3.74,4.22,1.25,4.75ZM57.13,321.36c4.1-.66,3.54,6.26-.5,4.5-2.08-.91-1.51-4.18.5-4.5ZM50.38,334.11c-3.44.73-4.11-4.29-1.25-4.75,3.27-.52,3.77,4.21,1.25,4.75ZM57.63,359.11c-.51-.75-3.28-2.76-3.12-3.62.14-.77,10.02-9.54,11.12-11.12l3.38,3.38-11.38,11.38ZM89.13,321.36c3.14-.65,3.82,4.19,1.25,4.75-3.48.76-4.03-4.18-1.25-4.75ZM86.51,339.49c.14-.77,10.02-9.54,11.12-11.12l3.38,3.38-11.62,11.12c-.49-.72-3.03-2.51-2.88-3.38Z" fill="#00aeef"/><path d="M101.26,347.49c-.12.79,3.53,3.97,4.25,4.62v-8.75c-.55.52-4.21,3.83-4.25,4.12Z" fill="#00aeef"/><polygon points="105.51 320.11 105.51 315.61 101.01 315.61 105.51 320.11" fill="#00aeef"/></svg>