<?xml version="1.0" encoding="UTF-8"?><svg id="a" xmlns="http://www.w3.org/2000/svg" width="60.6mm" height="128.5mm" viewBox="0 0 171.78 364.25"><polygon points="101.67 1.71 101.73 2.75 102.11 2.75 117.24 3 117.32 0 83.08 0 83.17 1.96 101.67 1.71" fill="none"/><path d="M165.83,360.98c.08.52-.15,1.72-.03,2.23v1.05s5.98,0,5.98,0v-3.1l-5.95-.18Z" fill="none"/><path d="M158.92,360.71c.14-.1,1.8-.16,3.46-.14l.36-5.81h9.04v-38.66l-2.54.16-.12-6.12c-6.26-.96-6.73,1.27-6.25-6.25l8.92-.27v-6.46l-6.01.04.03,3.64-6.88.38-.03-3.97h-2.16s-.12-6.36-.12-6.36l2.23-.05-.05-6.5,6.88-.12v.25s3.31-.2,3.31-.2l.12,6.38,2.67.11v-57.58l-6.35-.19.37,33.36-3.73.2.3,5.09-12.62.12-.12,12.38-6.12.38-.38-18.88,15.8-.31-.12-32.73,3.59-.07.35-5.76h9.04v-38.66l-2.54.16-.12-6.12-6.25-.75v-5.5l8.92-.27v-6.66l-6.01.12.03,3.76-6.88.38-.03-4-2.16.04-.12-6.38,2.23-.05-.05-6.5,6.88-.12v.25s3.31-.2,3.31-.2l.12,6.38,2.67.21v-57.68l-5.95-.18c.08.52-.15,1.72-.03,2.23l-.38,31.5-3.16-.18.1,5.1-12.62.12-.12,12.38-6.12.38-.38-18.88,15.69-.31v-30.11c.09-.49-.18-2.29.12-2.5.14-.1,1.8-.16,3.46-.14l.36-5.81h9.04v-38.66l-2.54.16-.12-6.12c-6.26-.96-6.73,1.27-6.25-6.25l8.92-.27v-6.46l-6.01.04.03,3.64-6.88.38-.03-3.97h-2.16s-.12-6.36-.12-6.36l2.23-.05-.05-6.5,6.88-.12v.25s3.31-.2,3.31-.2l.12,6.38,2.67.11V0h-6.1l.11,10.33-3.73.2.3,5.09-12.62.12-.12,12.38-6.12.38-.38-18.88,15.8-.31-.03-9.31h-34.96l-.03,1.71h22.79v7.5l-22.93-.11v.16h-21.63l-11.24-.26-14.7.21-.19-9.21h-38.22l.04,10.33-3.53.2.1,5.1-12.62.12-.12,12.38-6.12.38-.38-18.88,16.04-.31-.1-9.31H0v1.71h18.67v7.5l-18.67-.09v19.09h5.92v7.25l-5.92-.07v24.91l2.24-.05.12,12.62-2.36.05v7.12l2.24-.05.12,12.12-2.36.14v37.43h18.67v7.5l-18.67-.09v19.09h5.92v7.25l-5.92-.07v24.91l2.24-.05.12,12.62-2.36.05v7.12l2.24-.05.12,12.12-2.36.14v37.43h18.67v7.5l-18.67-.09v19.09h5.92v7.25l-5.92-.07v24.91l2.24-.05.12,12.62-2.36.05v7.12l2.24-.05.12,12.12-2.36.14v15.98h8.67l.07-3.25h3.08l.11-12.8,6.27.11-3.08-.19.38-11.88h15.42l-.11-14.42,6.88-.12.12,16.38-3.56.19v4.23h-12.25l-.75,6-2.19-.13-.21,12.63h8.9l.13,3.25h2.93v-1.05c.09-.49-.18-2.29.12-2.5.14-.1,1.8-.16,3.46-.16l.35-5.8h12.25v6.5l-9.16-.27c.08.52-.15,1.72-.03,2.23v1.05s12.27,0,12.27,0c.02-.45.03-.84-.02-1.05l.38-31.75,3.48.06-.04-1.89,12.38-.38.12,19.12-5.88.12-.12-12.62-3.06-.06v18.98l22.06.33-.38,6.12-12.62.38v2.63h70.31l.07-3.25h3.08l.11-12.8,6.27.11-3.08-.19.12-11.88h15.67l-.11-14.42,6.88-.12.12,16.38-3.64.2-.17,4.22h-12l-.75,6-2.19-.13-.21,12.63h8.9v3.25h3.06v-1.05c.09-.49-.18-2.29.12-2.5ZM158.9,208.25l-.11-14.42,6.88-.12.12,16.38-3.64.2-.17,4.22h-12.25l-.5,6-2.56-.16.18,12.66h9.13l-.25,6.25-8.79-.06.1,6.81h8.95v6.25l-19.38-.12.12-6.12h3.42l-.1-6.85-3.45-.02.12-6.12h3.24l-.18-12.42,5.67-.31-2.36-.14.12-11.88h15.67ZM145.92,175.21c.19.04.74.37,1.12.38v6.47l2.44-.05.12,18.88-6.12.38v-.23s-3.56.19-3.56.19l-.12-25.62c.18-.25,5.66-.48,6.12-.38ZM146.67,137.21l-22.93-.11v.16s-21.63-.25-21.63-.25l-7.76-.06-18.18.26-.38-18.12,3.55-.06c-.01-.48,0-.92.14-1.01.25-.18,6-.18,6.25,0,.3.21.04,2.01.12,2.5l.12,3.75c-.43-.08-1.81-.04-3.19.01l.13,5.44h18.75l.06,1.05h.38l15.12.25.38-10.5c.06-.34-.05-1.03-.02-1.6l-6.16-.1c.15.39.15.93-.07,1.7v3.62c-.19.43-8.07.13-9.25.38-4.13.47-3.21-.64-3.25-4,.09-.3.13-1,.15-1.87l-4.21-.05.12-7.12h7.38c1.07-.31,1.79-.27,2.27,0h1.22l15.5-.12-.11,6.56c1.37,0,2.68.03,2.8.11.3.21.04,2.01.12,2.5l-.21,9.2h22.77v7.5ZM127.8,220.33l-.12,7.12h-3.92l.11,5.67-5.88.12c-.23-.14-.26-4.25-.18-5.8h-12.01c-.1-.02-.24-.03-.4-.03.08,1.16.07,5.22-.04,5.45-.31.71-2.58.24-3.25.38l-16.25-.38.12-6.12h15.77c-.08-1.34.06-6.23.29-6.42.44-.37,3.01.01,3.75-.12l18.44.1-.12-12.18,6.12-.12.12,12.12-3.26.2h.7ZM121.3,194.08l-.38,7.12h-4.18v.05h-14.63c-.69-.14-3.17.3-3.67-.3l-3.64-.12.12-6.88,10.88-.25v.25l15.5.12ZM111.36,181.63l.12-6.12h12.5v6.25l-12.62-.12ZM116.86,207.63l-.12,6.38-14.62-.25v.25c-.72-.15-3.43.35-3.75-.38-.12-.26-.12-5.49,0-5.75.32-.73,3.03-.23,3.75-.38l14.75.12ZM108.55,182.58c-.3.68-2.13.26-2.75.38h-16.88c.02-.23,0-.69-.04-1.26l-2.9.06-.38-31.62,6.12-.38.3,25.7h13.76c.52.09,2.53-.18,2.75.12.2.29.14,6.68,0,7ZM124.24,201l-.12-12.62,6.12-.12.12,12.38-6.12.38ZM123.99,163.46c.27,1.64.2,5.55-.25,5.8h-21.62c-.72-.15-3.43.35-3.75-.38-.12-.26-.12-5.49,0-5.75.3-.67,2.58-.31,3.52-.36.91-3.85-2.45-7.52,3.92-6.56l28.25.12-.38,7.12h-9.69ZM98.86,143.88c.31-.71,2.58-.24,3.25-.38l9.25.12-.12,6.12h-9.12c-.57-.1-3.03.19-3.25-.12-.17-.23-.12-5.49,0-5.75ZM117.61,143.88l6.12-.38.12,6.12-5.88.12-.38-5.88ZM60.36,265.38c.35-.36,4.99.02,5.88-.12l.12,19.12-5.88.12c-.41-2.19-.78-18.43-.12-19.12ZM60.11,296.88l-6.12.38-.36-5.86-3.46.06-.12-33.38,7.12-.38.12,33.2,2.44-.15.38,6.12ZM60.49,252.25l-.12-18.62-3.09-.18.02,5.89-6.88.12-.38-35.62,3.86-.2-.04-2,12.38-.38.12,19.12-5.88.12-.12-12.62-3.18-.19.07,19.01c6.49-.18,19.54.33,21.73.05v6.5l-12.62.12v18.75l-5.88.12ZM60.11,168.88l-6.12.38-.36-5.86-3.46.06-.12-33.38,7.12-.38.12,33.2,2.44-.15.38,6.12ZM60.36,137.38c.35-.36,4.99.02,5.88-.12l.12,19.12-5.88.12c-.41-2.19-.78-18.43-.12-19.12ZM50.17,175.46h19.75v7.5l-3.68-.07.12,11.99-5.88.12-.36-12.23-10.08-.19.12-7.12ZM75.92,219.96l-.12-25.88c.2-.28,4.98-.49,5.62-.38.41.07,1.09.36,1.62.38v25.5l-7.12.38ZM79.02,163.4l.34,5.73-6.12.12-.12-6.12,2.8-.18-.12-6.62,6.88-.12.38,7.12-4.02.07ZM75.92,91.96l-.12-25.88c.24-.4,5.19-.51,5.88-.38.32.06.91.36,1.38.38v25.5l-7.12.38ZM121.3,66.08l-.12,7.12h-4.43v.05h-14.63c-.69-.14-3.17.3-3.67-.3l-3.64-.12.12-6.88,10.88-.25v.25l15.5.12ZM111.36,53.63l.12-6.12h12.5v6.25l-12.62-.12ZM116.86,79.63l-.12,6.38h-14.62c-.72-.15-3.43.35-3.75-.38-.12-.26-.12-5.49,0-5.75.32-.73,3.03-.23,3.75-.38l14.75.12ZM101.87,98.75c.24-1.51-.26-6.17-.08-6.42.24-.32,3.35-.02,4-.12l18.44.1-.12-12.18,6.12-.12c-.07,1.51.49,11.64.12,12.12-.28.38-1.37.44-2.57.42l-.12,6.91h-3.92l.11,5.67-5.88.12-.11-5.8h-12.08l-.4-.04c.08,1.15.07,5.23-.04,5.46-.31.71-2.58.24-3.25.38l-16.25-.12.12-6.38h15.89ZM124.11,60.38l6.12-.12.12,12.38-6.12.38-.12-12.62ZM145.92,47.21c.12.02.77.38,1.12.38v6.47l2.44-.05.12,18.88-6.12.38v-.23s-3.56.19-3.56.19l-.12-25.62c1.6.19,4.73-.6,6.12-.38ZM136.61,120.5c.09-.49-.18-2.29.12-2.5.19-.13,1.37-.23,3.06-.28v-6.57l-3.19-.02.12-6.12h3.08l.11-12.8,6.27.11-3.08-.19.12-11.88h15.67l-.11-14.42,6.88-.12.12,16.38-3.64.2-.17,4.22h-12l-.75,6-2.19-.13-.21,12.63h8.9v6.25l-8.98-.06-.07,6.46c4.38.03,8.63.16,9.05.35.66.29.28,1.91.38,2.5l-.12,3.75c-2.35-.43-18.46.56-19.25,0-.32-.23-.02-3.13-.12-3.75ZM123.74,15.5l.12,6.12-5.88.12-.12-6.12,5.88-.12ZM98.86,15.88c.31-.71,2.58-.24,3.25-.38l9.25.12-.12,6.12h-9.12c-.57-.1-3.03.19-3.25-.12-.17-.23-.12-5.49,0-5.75ZM98.36,35.13c.28-.64,2.39-.33,3.4-.35-.09-1.29.06-6.26.29-6.45.44-.37,3.01.01,3.75-.12l28.25.12-.38,7.12h-9.67c.26,1.53.14,5.03-.27,5.8h-21.62c-.72-.15-3.43.35-3.75-.38-.12-.26-.12-5.49,0-5.75ZM91.99,22l.1,25.45h13.71c.52.09,2.53-.18,2.75.12.21.3.21,6.95,0,7.25-.22.31-2.23.03-2.75.12h-16.88c.02-.21,0-.68-.05-1.26l-2.88.06-.38-31.62,6.38-.12ZM75.8,28.33l6.88-.12.38,7.12-4.02.07.34,5.73-6.12.12-.12-6.12,2.8-.18-.12-6.62ZM60.36,9.38c.35-.36,4.99.02,5.88-.12l.12,19.12-5.88.12c-.41-2.19-.78-18.43-.12-19.12ZM57.17,1.71l.12,33.2,2.44-.15.38,6.12-6.12.38-.36-5.86-3.46.06-.12-33.38,7.12-.38ZM50.17,47.46h19.75v7.5l-3.68-.07.12,11.99-5.88.12-.36-12.23-10.08-.19.12-7.12ZM17.92,47.21c.15.03.76.38,1.12.38v6.47l2.44-.05.12,18.88-6.12.38v-.23s-3.56.19-3.56.19l-.12-25.62c1.87.05,4.34-.7,6.12-.38ZM8.74,124.25c-.32-.23-.02-3.13-.12-3.75.09-.49-.18-2.29.12-2.5.19-.13,1.37-.23,3.06-.28v-6.57l-3.19-.02.12-6.12h3.08l.11-12.8,6.27.11-3.08-.19.38-11.88h15.42l-.11-14.42,6.88-.12.12,16.38-3.56.19v4.23h-12.25l-.75,6-2.19-.13-.21,12.63h8.9l.25,6.25-9.23-.06-.07,6.46c4.38.03,8.63.16,9.05.35.66.29.28,1.91.38,2.5l-.12,3.75c-2.35-.43-18.46.56-19.25,0ZM30.8,137.32v-30.11c.09-.49-.18-2.29.12-2.5.14-.1,1.8-.16,3.46-.16l.35-5.8h12.25v6.5l-9.16-.27c.08.52-.15,1.72-.03,2.23l-.38,31.5-3.16-.18.1,5.1-12.62.12-.12,12.38-6.12.38-.38-18.88,15.69-.31ZM17.92,175.21c.15.03.76.38,1.12.38v6.47l2.44-.05.12,18.88-6.12.38v-.23s-3.56.19-3.56.19l-.12-25.62c1.94.02,4.21-.73,6.12-.38ZM8.61,252.13l.12-6.12h3.42l-.1-6.85-3.45-.02.12-6.12h3.24l-.18-12.42,5.67-.31-2.36-.14.38-11.88h15.42l-.11-14.42,6.88-.12.12,16.38-3.56.19v4.23h-12.25l-.75,6-2.56-.16.18,12.66h9.13v6.25l-9.04-.06.1,6.81h8.95v6.25l-19.38-.12ZM15.49,329.25v-.23s-3.56.19-3.56.19l-.12-25.62c1.87.05,4.34-.7,6.12-.38.15.03.76.38,1.12.38v6.47l2.44-.05.12,18.88-6.12.38ZM21.61,284.13l-6.12.38-.38-18.88,16.04-.31-.36-32.73,3.59-.07.35-5.76h12.25v6.5l-9.31-.28.12,33.36-3.53.2.1,5.1-12.62.12-.12,12.38ZM41.24,316.25l-.12-6.12-6.25-.75.25-5.75,12.12-.12.12,12.38-6.12.38ZM47.36,296.88l-9.59.19.03,3.76-6.88.38-.03-4-2.16.04-.12-6.38,2.23-.05-.05-6.5,6.88-.12v.25s3.31-.2,3.31-.2l.12,6.38,6.25.5v5.75ZM41.24,188.25l-.12-6.38-6-.25v-6l12.12-.12.12,12.38-6.12.38ZM47.36,168.88l-9.59.19.03,3.76-6.88.38-.03-4-2.16.04-.12-6.38,2.23-.05-.05-6.5,6.88-.12v.25s3.31-.2,3.31-.2l.12,6.38,6.25.5v5.75ZM41.24,60.25l-.12-6.12-6.25-.75.25-5.75,12.12-.12.12,12.38-6.12.38ZM47.36,40.88l-9.59.19.03,3.76-6.88.38-.03-4-2.16.04-.12-6.38,2.23-.05-.05-6.5,6.88-.12v.25s3.31-.2,3.31-.2l.12,6.38,6.25.5v5.75ZM50.05,107.21l.38-31.75,3.48.06-.04-1.89,12.38-.38.12,19.12-5.88.12-.12-12.62-3.06-.06v18.98l22.06.33-.38,6.12-12.62.38v14.88c-.1.62.19,3.52-.12,3.75-.24.17-5.74.14-5.88-.12v-18.5l-3.06-.34v1.92c-.11.67.2,4.02-.12,4.25-.28.2-6.44.14-6.75,0-.74-.33-.22-3.48-.38-4.25ZM69.92,310.96l-3.68-.07.12,11.99-5.88.12-.36-12.23-10.08-.19.12-7.12h19.75v7.5ZM83.05,347.58l-7.12.38-.12-25.88c.24-.4,5.19-.51,5.88-.38.32.06.91.36,1.38.38v25.5ZM79.02,291.4l.34,5.73-6.12.12-.12-6.12,2.8-.18-.12-6.62,6.88-.12.38,7.12-4.02.07ZM121.3,322.08l-.12,7.12h-4.43v.05h-14.63c-.69-.14-3.17.3-3.67-.3l-3.64-.12.12-6.88,10.88-.25v.25l15.5.12ZM111.36,309.63l.12-6.12h12.5v6.25l-12.62-.12ZM116.86,335.63l-.12,6.38h-14.62c-.72-.15-3.43.35-3.75-.38-.12-.26-.12-5.49,0-5.75.32-.73,3.03-.23,3.75-.38l14.75.12ZM108.55,310.83c-.22.31-2.23.03-2.75.12h-16.88c.02-.21,0-.68-.05-1.26l-2.88.06-.38-31.62,6.38-.12.1,25.45h13.71c.52.09,2.53-.18,2.75.12.21.3.21,6.95,0,7.25ZM130.36,348.13c-.28.38-1.37.44-2.57.42l-.12,6.91h-3.92l.11,5.67-5.88.12-.11-5.8h-12.08l-.4-.04c.08,1.15.07,5.23-.04,5.46-.31.71-2.58.24-3.25.38l-16.25-.12.12-6.38h15.89c.24-1.51-.26-6.17-.08-6.42.24-.32,3.35-.02,4-.12l18.44.1-.12-12.18,6.12-.12c-.07,1.51.49,11.64.12,12.12ZM124.11,316.38l6.12-.12.12,12.38-6.12.38-.12-12.62ZM133.67,291.46h-9.67c.26,1.53.14,5.03-.27,5.8h-21.62c-.72-.15-3.43.35-3.75-.38-.12-.26-.12-5.49,0-5.75.28-.64,2.39-.33,3.4-.35-.09-1.29.06-6.26.29-6.45.44-.37,3.01.01,3.75-.12l28.25.12-.38,7.12ZM98.86,271.88c.31-.71,2.58-.24,3.25-.38l9.25.12-.12,6.12h-9.12c-.57-.1-3.03.19-3.25-.12-.17-.23-.12-5.49,0-5.75ZM117.86,271.63l5.88-.12.12,6.12-5.88.12-.12-6.12ZM123.74,265.09v.16h-21.63l-11.24-.26-14.7.21-.38-18.12,3.67-.07.02-1.01h6.25l.25,6.25-3.08-.06.26,5.76,18.5-.25.06,1.05h.38l15.12.25.35-12.1-6.24-.1-.11,5.46-9.12.25c-.67-.13-2.94.33-3.25-.38-.12-.26-.16-2.78-.13-5.5l-3.93-.04.12-7.12h4.51c.17-.02.41-.01.69,0h2.31c.85-.14,1.48-.13,1.93,0h1.44l15.5-.12-.11,6.8h2.93l-.23,11.58h22.79v7.5l-22.93-.11ZM143.49,329.25v-.23s-3.56.19-3.56.19l-.12-25.62c1.6.19,4.73-.6,6.12-.38.12.02.77.38,1.12.38v6.47l2.44-.05.12,18.88-6.12.38Z" fill="none"/><path d="M57.3,361.29v1.92c-.03.18-.03.58-.02,1.05h3.08v-2.63l-3.06-.34Z" fill="none"/><polygon points="57.3 105.29 53.61 104.88 53.99 98.75 57.3 98.8 57.3 79.82 53.99 79.75 53.9 75.52 50.42 75.46 50.05 107.21 57.3 107.21 57.3 105.29" fill="#00aeef"/><path d="M88.87,53.69c.04.59.07,1.05.05,1.26h16.88v-7.5h-13.71l.02,6.17-3.24.07Z" fill="#00aeef"/><polygon points="19.05 92.37 18.19 92.32 11.92 92.21 11.81 105 18.83 105 19.05 92.37" fill="#00aeef"/><path d="M94.92,65.96l-.12,6.88,3.64.12s-.07-.05-.08-.08c-.12-.26-.12-5.49,0-5.75.32-.73,3.03-.23,3.75-.38l3.69.09v-1.14l-10.88.25Z" fill="#00aeef"/><path d="M105.8,34.75v-6.55c-.74.14-3.31-.24-3.75.12-.23.19-.38,5.16-.29,6.45.14,0,.26,0,.35-.03h3.69Z" fill="#00aeef"/><path d="M105.36,99.13s.03.14.04.29l.4.04v-7.25c-.65.11-3.76-.2-4,.12-.18.25.32,4.91.08,6.42h.24c.67.13,2.94-.33,3.25.38Z" fill="#00aeef"/><path d="M37.83,104.98l-3.47-.1.02-.33c-1.66,0-3.32.06-3.46.16-.3.21-.04,2.01-.12,2.5h7c-.11-.51.12-1.71.03-2.23Z" fill="#00aeef"/><polygon points="90.87 8.99 85.86 8.88 86.24 2.75 101.73 2.75 101.67 1.71 83.17 1.96 83.08 0 75.98 0 76.17 9.21 90.87 8.99" fill="#00aeef"/><polygon points="53.63 35.39 53.61 35.13 57.29 34.9 57.17 1.71 50.05 2.08 50.17 35.46 53.63 35.39" fill="#00aeef"/><polygon points="34.24 9.25 34.26 10.53 37.8 10.33 37.76 0 31.05 0 31.16 9.31 34.24 9.25" fill="#00aeef"/><polygon points="5.92 28.21 0 28.21 0 35.39 5.92 35.46 5.92 28.21" fill="#00aeef"/><polygon points="18.67 1.71 0 1.71 0 9.12 18.67 9.21 18.67 1.71" fill="#00aeef"/><path d="M83.05,66.08c-.46-.01-1.06-.31-1.38-.38-.68-.14-5.64-.03-5.88.38l.12,25.88,7.12-.38v-25.5Z" fill="#00aeef"/><path d="M15.48,73.02l-.37-18.89,3.94-.08v-6.47c-.37,0-.97-.35-1.12-.38-1.79-.33-4.26.42-6.12.38l.12,25.62,3.56-.19Z" fill="#00aeef"/><polygon points="60.11 54.13 66.24 54 66.24 54.89 69.92 54.96 69.92 47.46 50.17 47.46 50.05 54.58 60.13 54.77 60.11 54.13" fill="#00aeef"/><polygon points="30.92 45.21 37.8 44.83 37.77 41.07 30.89 41.21 30.92 45.21" fill="#00aeef"/><polygon points="34.86 28.63 37.67 28.45 37.67 28.21 30.8 28.33 30.84 34.83 34.74 34.75 34.86 28.63" fill="#00aeef"/><polygon points="34.24 82.27 37.8 82.08 37.67 65.71 30.8 65.83 30.9 80.25 34.24 80.25 34.24 82.27" fill="#00aeef"/><polygon points="79.02 35.4 83.05 35.33 82.67 28.21 75.8 28.33 75.91 34.95 78.99 34.75 79.02 35.4" fill="#00aeef"/><polygon points="57.3 361.29 53.61 360.88 53.99 354.75 57.3 354.8 57.3 335.82 53.99 335.75 53.9 331.52 50.42 331.46 50.05 363.21 57.3 363.21 57.3 361.29" fill="#00aeef"/><polygon points="34.26 138.53 37.42 138.71 37.8 107.21 30.8 107.21 30.8 137.32 34.24 137.25 34.26 138.53" fill="#00aeef"/><path d="M92.09,303.46l.02,6.17-3.24.07c.04.59.07,1.05.05,1.26h16.88v-7.5h-13.71Z" fill="#00aeef"/><path d="M92.04,175.46l.07,6.17-3.23.07c.04.58.06,1.04.04,1.26h16.88v-7.5h-13.76Z" fill="#00aeef"/><polygon points="19.05 348.37 18.19 348.32 11.92 348.21 11.81 361 18.83 361 19.05 348.37" fill="#00aeef"/><path d="M18.68,117.65l.07-6.46-6.96-.04v6.57c1.89-.06,4.41-.08,6.89-.07Z" fill="#00aeef"/><path d="M98.36,323.13c.32-.73,3.03-.23,3.75-.38l3.69.09v-1.14l-10.88.25-.12,6.88,3.64.12s-.07-.05-.08-.08c-.12-.26-.12-5.49,0-5.75Z" fill="#00aeef"/><path d="M98.36,195.13c.32-.73,3.03-.23,3.75-.38l3.69.09v-1.14l-10.88.25-.12,6.88,3.64.12s-.07-.05-.08-.08c-.12-.26-.12-5.49,0-5.75Z" fill="#00aeef"/><path d="M105.49,118c.08.06.19.1.31.13v-6.67h-1.22c1.91,1.09-.03,5.88.91,6.55Z" fill="#00aeef"/><path d="M99.11,111.63c.22-.31,2.46-.03,3-.12.07-.02.12-.03.19-.05h-7.38l-.12,7.12,4.21.05c.06-2.58-.09-6.73.1-7Z" fill="#00aeef"/><path d="M105.49,246h.31s0-6.55,0-6.55h-1.44c2.12.63.44,3.93,1.13,6.55Z" fill="#00aeef"/><path d="M99.43,239.46h-4.51l-.12,7.12,3.93.04c.04-3.33.2-6.96.51-7.12.04-.02.11-.04.19-.05Z" fill="#00aeef"/><path d="M102.11,239.5c.12-.02.21-.03.31-.05h-2.31c.71.04,1.63.13,2,.05Z" fill="#00aeef"/><path d="M50.42,111.46c.31.14,6.47.2,6.75,0,.32-.23.02-3.58.12-4.25h-7.25c.16.77-.37,3.92.38,4.25Z" fill="#00aeef"/><path d="M102.05,220.33c-.23.19-.37,5.08-.29,6.42h.36c.67.13,2.94-.33,3.25.38.01.03.03.14.04.3.16,0,.3,0,.4.03v-7.25c-.74.14-3.31-.24-3.75.12Z" fill="#00aeef"/><path d="M105.8,290.75v-6.55c-.74.14-3.31-.24-3.75.12-.23.19-.38,5.16-.29,6.45.14,0,.26,0,.35-.03h3.69Z" fill="#00aeef"/><path d="M101.8,348.33c-.18.25.32,4.91.08,6.42h.24c.67.13,2.94-.33,3.25.38.01.03.03.14.04.29l.4.04v-7.25c-.65.11-3.76-.2-4,.12Z" fill="#00aeef"/><path d="M105.8,162.75v-6.55c-6.37-.95-3.01,2.71-3.92,6.56.08,0,.17,0,.23-.02h3.69Z" fill="#00aeef"/><path d="M37.83,360.98l-3.47-.1.02-.33c-1.66,0-3.32.06-3.46.16-.3.21-.04,2.01-.12,2.5h7c-.11-.51.12-1.71.03-2.23Z" fill="#00aeef"/><path d="M86.24,130.75h15.49l-.06-1.05h-18.75l-.13-5.44c-1.57.05-3.13.11-3.31-.01-.32-.23-.02-3.13-.12-3.75.05-.27,0-.91-.02-1.49l-3.55.06.38,18.12,18.18-.26-8.49-.07.38-6.12Z" fill="#00aeef"/><polygon points="86.24 258.75 101.73 258.75 101.67 257.71 83.17 257.96 82.91 252.19 79.36 252.13 79.47 247.01 75.8 247.08 76.17 265.21 90.87 264.99 85.86 264.88 86.24 258.75" fill="#00aeef"/><path d="M53.61,227.13c.18-.24,1.59-.37,3.64-.43l-.07-19.01-3.2-.19-.08-3.87-3.86.2.38,35.62,6.88-.12-.02-5.89-3.29-.19c-.47-.21-.56-5.88-.38-6.12Z" fill="#00aeef"/><polygon points="57.29 290.9 57.17 257.71 50.05 258.08 50.17 291.46 53.63 291.39 53.61 291.13 57.29 290.9" fill="#00aeef"/><polygon points="57.29 162.9 57.17 129.71 50.05 130.08 50.17 163.46 53.63 163.39 53.61 163.13 57.29 162.9" fill="#00aeef"/><polygon points="34.26 266.53 37.8 266.33 37.67 232.98 34.36 232.88 34.38 232.52 30.8 232.58 31.16 265.31 34.24 265.25 34.26 266.53" fill="#00aeef"/><polygon points="5.92 284.21 0 284.21 0 291.39 5.92 291.46 5.92 284.21" fill="#00aeef"/><polygon points="5.92 156.21 0 156.21 0 163.39 5.92 163.46 5.92 156.21" fill="#00aeef"/><polygon points="18.67 257.71 0 257.71 0 265.12 18.67 265.21 18.67 257.71" fill="#00aeef"/><polygon points="18.67 129.71 0 129.71 0 137.12 18.67 137.21 18.67 129.71" fill="#00aeef"/><polygon points="18.67 220.34 17.47 220.27 11.8 220.58 11.97 233 18.85 233 18.67 220.34" fill="#00aeef"/><polygon points="18.94 239.19 12.06 239.15 12.16 246 19.04 246 18.94 239.19" fill="#00aeef"/><path d="M75.8,322.08l.12,25.88,7.12-.38v-25.5c-.46-.01-1.06-.31-1.38-.38-.68-.14-5.64-.03-5.88.38Z" fill="#00aeef"/><path d="M83.05,194.08c-.54-.02-1.21-.31-1.62-.38-.65-.11-5.43.1-5.62.38l.12,25.88,7.12-.38v-25.5Z" fill="#00aeef"/><path d="M19.05,310.05v-6.47c-.37,0-.97-.35-1.12-.38-1.79-.33-4.26.42-6.12.38l.12,25.62,3.56-.19-.37-18.89,3.94-.08Z" fill="#00aeef"/><path d="M15.48,201.02l-.37-18.89,3.94-.08v-6.47c-.37,0-.97-.35-1.12-.38-1.92-.35-4.19.39-6.12.38l.12,25.62,3.56-.19Z" fill="#00aeef"/><polygon points="60.13 182.77 60.11 182.13 66.24 182 66.24 182.89 69.92 182.96 69.92 175.46 50.17 175.46 50.05 182.58 60.13 182.77" fill="#00aeef"/><polygon points="50.05 310.58 60.13 310.77 60.11 310.13 66.24 310 66.24 310.89 69.92 310.96 69.92 303.46 50.17 303.46 50.05 310.58" fill="#00aeef"/><polygon points="30.92 301.21 37.8 300.83 37.77 297.07 30.89 297.21 30.92 301.21" fill="#00aeef"/><polygon points="34.86 284.63 37.67 284.45 37.67 284.21 30.8 284.33 30.84 290.83 34.74 290.75 34.86 284.63" fill="#00aeef"/><polygon points="30.92 173.21 37.8 172.83 37.77 169.07 30.89 169.21 30.92 173.21" fill="#00aeef"/><polygon points="34.86 156.63 37.67 156.45 37.67 156.21 30.8 156.33 30.84 162.83 34.74 162.75 34.86 156.63" fill="#00aeef"/><polygon points="34.24 210.27 37.8 210.08 37.67 193.71 30.8 193.83 30.9 208.25 34.24 208.25 34.24 210.27" fill="#00aeef"/><polygon points="34.24 338.27 37.8 338.08 37.67 321.71 30.8 321.83 30.9 336.25 34.24 336.25 34.24 338.27" fill="#00aeef"/><polygon points="75.8 284.33 75.91 290.95 78.99 290.75 79.02 291.4 83.05 291.33 82.67 284.21 75.8 284.33" fill="#00aeef"/><polygon points="82.67 156.21 75.8 156.33 75.91 162.95 78.99 162.75 79.02 163.4 83.05 163.33 82.67 156.21" fill="#00aeef"/><polygon points="30.8 363.21 30.8 364.25 37.78 364.25 37.8 363.21 30.8 363.21" fill="#00aeef"/><path d="M57.3,363.21h-7.25c.04.21.03.59.02,1.05h7.22c-.01-.47-.01-.86.02-1.05Z" fill="#00aeef"/><path d="M123.74,34.75c.12.06.2.33.27.7h9.67l.38-7.12-28.25-.12v6.55h17.94Z" fill="#00aeef"/><path d="M117.87,99.46v-.58s5.86-.12,5.86-.12v.7h3.94l.12-6.91c-1.4-.02-2.95-.16-3.56-.04v-.19s-18.44-.1-18.44-.1v7.25h12.08Z" fill="#00aeef"/><polygon points="116.86 67.13 116.74 73.21 121.17 73.21 121.3 66.08 105.8 65.96 105.8 66.85 116.86 67.13" fill="#00aeef"/><polygon points="147.05 92.37 146.19 92.32 139.92 92.21 139.81 105 146.83 105 147.05 92.37" fill="#00aeef"/><path d="M108.55,54.83c.21-.3.21-6.95,0-7.25-.22-.31-2.23-.03-2.75-.12v7.5c.52-.09,2.53.18,2.75-.12Z" fill="#00aeef"/><path d="M162.38,104.56c-1.66-.01-3.32.04-3.46.14-.3.21-.04,2.01-.12,2.5h7c-.11-.51.12-1.71.03-2.23l-3.47-.1.02-.32Z" fill="#00aeef"/><polygon points="161.99 9.25 162.06 10.53 165.8 10.33 165.68 0 158.88 0 158.92 9.31 161.99 9.25" fill="#00aeef"/><polygon points="146.67 9.21 146.67 1.71 123.88 1.71 123.74 9.09 146.67 9.21" fill="#00aeef"/><path d="M143.48,73.02l-.37-18.89,3.94-.08v-6.47c-.35,0-1-.36-1.12-.38-1.4-.22-4.52.56-6.12.38l.12,25.62,3.56-.19Z" fill="#00aeef"/><polygon points="162.86 28.63 165.67 28.45 165.67 28.21 158.8 28.33 158.84 34.83 162.74 34.75 162.86 28.63" fill="#00aeef"/><polygon points="158.92 45.21 165.8 44.83 165.77 41.19 158.89 41.24 158.92 45.21" fill="#00aeef"/><polygon points="162.15 82.28 165.8 82.08 165.67 65.71 158.8 65.83 158.9 80.25 162.24 80.25 162.15 82.28" fill="#00aeef"/><polygon points="158.8 137.32 162.24 137.25 162.26 138.53 165.42 138.71 165.8 107.21 158.8 107.21 158.8 137.32" fill="#00aeef"/><path d="M134.05,156.33l-28.25-.12v6.55h17.94c.1.06.19.32.25.7h9.69l.38-7.12Z" fill="#00aeef"/><path d="M105.8,290.75h17.94c.12.06.2.33.27.7h9.67l.38-7.12-28.25-.12v6.55Z" fill="#00aeef"/><path d="M124.24,348.5v-.19s-18.44-.1-18.44-.1v7.25h12.08v-.58s5.86-.12,5.86-.12v.7h3.94l.12-6.91c-1.4-.02-2.95-.16-3.56-.04Z" fill="#00aeef"/><path d="M124.23,220.31l-18.44-.1v7.25h12.01c.02-.31.03-.53.06-.58.13-.26,5.13-.03,5.88-.12v.7h3.94l.12-7.12h-.7s-2.86.17-2.86.17v-.19Z" fill="#00aeef"/><polygon points="105.8 194.85 116.86 195.13 116.74 201.21 120.92 201.21 121.3 194.08 105.8 193.96 105.8 194.85" fill="#00aeef"/><polygon points="105.8 322.85 116.86 323.13 116.74 329.21 121.17 329.21 121.3 322.08 105.8 321.96 105.8 322.85" fill="#00aeef"/><polygon points="121.18 246.13 121.3 239.33 105.8 239.46 105.8 246.01 111.36 246.13 111.35 246.8 117.59 246.9 117.61 246.13 121.18 246.13" fill="#00aeef"/><path d="M117.99,118c.14-.06,1.71-.11,3.2-.11l.11-6.56-15.5.12v6.67c1.38.33,4.99-1.06,5.64.67l6.16.1c.02-.41.11-.77.39-.9Z" fill="#00aeef"/><polygon points="147.05 348.37 146.19 348.32 139.92 348.21 139.81 361 146.83 361 147.05 348.37" fill="#00aeef"/><path d="M146.68,117.65l.07-6.46-6.96-.05v6.57c1.89-.06,4.41-.08,6.89-.07Z" fill="#00aeef"/><path d="M105.8,303.46v7.5c.52-.09,2.53.18,2.75-.12.21-.3.21-6.95,0-7.25-.22-.31-2.23-.03-2.75-.12Z" fill="#00aeef"/><path d="M105.8,175.46v7.5c.62-.11,2.45.31,2.75-.38.14-.32.2-6.71,0-7-.22-.31-2.23-.03-2.75-.12Z" fill="#00aeef"/><path d="M162.38,360.56c-1.66-.01-3.32.04-3.46.14-.3.21-.04,2.01-.12,2.5h7c-.11-.51.12-1.71.03-2.23l-3.47-.1.02-.32Z" fill="#00aeef"/><polygon points="162.38 232.51 158.8 232.58 158.92 265.31 161.99 265.25 162.06 266.53 165.8 266.33 165.43 232.97 162.36 232.88 162.38 232.51" fill="#00aeef"/><polygon points="146.67 257.71 123.88 257.71 123.74 265.09 146.67 265.21 146.67 257.71" fill="#00aeef"/><polygon points="123.74 137.09 146.67 137.21 146.67 129.71 123.9 129.71 123.74 137.09" fill="#00aeef"/><polygon points="140.16 246 147.04 246 146.94 239.19 140.06 239.15 140.16 246" fill="#00aeef"/><polygon points="139.8 220.58 139.97 233 146.85 233 146.67 220.34 145.47 220.27 139.8 220.58" fill="#00aeef"/><path d="M139.92,201.21l3.56-.19-.37-18.89,3.94-.08v-6.47c-.38,0-.93-.33-1.12-.38-.47-.1-5.95.12-6.12.38l.12,25.62Z" fill="#00aeef"/><path d="M147.05,310.05v-6.47c-.35,0-1-.36-1.12-.38-1.4-.22-4.52.56-6.12.38l.12,25.62,3.56-.19-.37-18.89,3.94-.08Z" fill="#00aeef"/><polygon points="162.86 156.63 165.67 156.45 165.67 156.21 158.8 156.33 158.84 162.83 162.74 162.75 162.86 156.63" fill="#00aeef"/><polygon points="158.92 173.21 165.8 172.83 165.77 169.07 158.89 169.21 158.92 173.21" fill="#00aeef"/><polygon points="158.92 301.21 165.8 300.83 165.77 297.19 158.89 297.24 158.92 301.21" fill="#00aeef"/><polygon points="162.86 284.63 165.67 284.45 165.67 284.21 158.8 284.33 158.84 290.83 162.74 290.75 162.86 284.63" fill="#00aeef"/><polygon points="162.15 210.28 165.8 210.08 165.67 193.71 158.8 193.83 158.9 208.25 162.24 208.25 162.15 210.28" fill="#00aeef"/><polygon points="162.15 338.28 165.8 338.08 165.67 321.71 158.8 321.83 158.9 336.25 162.24 336.25 162.15 338.28" fill="#00aeef"/><polygon points="158.8 363.21 158.8 364.25 165.78 364.25 165.8 363.21 158.8 363.21" fill="#00aeef"/><polygon points="53.61 104.88 57.3 105.29 60.36 105.63 60.36 120.5 66.36 120.5 66.36 105.63 78.99 105.25 79.36 99.13 57.3 98.8 53.99 98.75 53.61 104.88" fill="#00aeef"/><polygon points="85.86 105.13 102.11 105.25 102.11 98.75 101.87 98.75 85.99 98.75 85.86 105.13" fill="#00aeef"/><polygon points="101.73 2.75 86.24 2.75 85.86 8.88 90.87 8.99 102.11 9.25 102.11 2.75 101.73 2.75" fill="#00aeef"/><path d="M27.74,118c-.42-.19-4.67-.32-9.05-.35-2.48-.02-5,0-6.89.07-1.69.06-2.87.15-3.06.28-.3.21-.04,2.01-.12,2.5h19.5c-.1-.59.29-2.21-.38-2.5Z" fill="#00aeef"/><path d="M102.11,111.5c-.54.1-2.78-.18-3,.12-.19.27-.05,4.42-.1,7-.02.87-.06,1.57-.15,1.87h3.25v-9Z" fill="#00aeef"/><path d="M98.36,79.88c-.12.26-.12,5.49,0,5.75.32.73,3.03.23,3.75.38v-6.5c-.72.15-3.43-.35-3.75.38Z" fill="#00aeef"/><path d="M102.11,41.25v-6.5c-.09.02-.21.03-.35.03-1.01.01-3.11-.29-3.4.35-.12.26-.12,5.49,0,5.75.32.73,3.03.23,3.75.38Z" fill="#00aeef"/><path d="M102.11,66.75c-.72.15-3.43-.35-3.75.38-.12.26-.12,5.49,0,5.75.01.03.06.05.08.08.5.59,2.98.16,3.67.3v-6.5Z" fill="#00aeef"/><path d="M102.11,21.75v-6.25c-.67.13-2.94-.33-3.25.38-.12.26-.17,5.52,0,5.75.22.31,2.68.03,3.25.12Z" fill="#00aeef"/><path d="M79.36,120.5h6.5c-.09-.49.18-2.29-.12-2.5-.25-.18-6-.18-6.25,0-.14.1-.16.53-.14,1.01.01.57.07,1.22.02,1.49Z" fill="#00aeef"/><polygon points="88.87 53.69 92.11 53.63 92.09 47.46 91.99 22 85.61 22.13 85.99 53.75 88.87 53.69" fill="#00aeef"/><polygon points="31.16 9.31 15.11 9.63 15.49 28.5 21.61 28.13 21.74 15.75 34.36 15.63 34.26 10.53 34.24 9.25 31.16 9.31" fill="#00aeef"/><polygon points="40.99 28.25 37.67 28.45 34.86 28.63 34.74 34.75 30.84 34.83 28.61 34.88 28.74 41.25 30.89 41.21 37.77 41.07 47.36 40.88 47.36 35.13 41.11 34.63 40.99 28.25" fill="#00aeef"/><polygon points="21.24 92.5 21.99 86.5 34.24 86.5 34.24 82.27 34.24 80.25 30.9 80.25 15.49 80.25 15.11 92.13 18.19 92.32 19.05 92.37 21.24 92.5" fill="#00aeef"/><polygon points="57.3 79.82 60.36 79.88 60.49 92.5 66.36 92.38 66.24 73.25 53.86 73.63 53.9 75.52 53.99 79.75 57.3 79.82" fill="#00aeef"/><polygon points="15.48 73.02 15.49 73.25 21.61 72.88 21.49 54 19.05 54.05 15.11 54.13 15.48 73.02" fill="#00aeef"/><polygon points="27.99 111.25 27.74 105 18.83 105 11.81 105 8.74 105 8.61 111.13 11.8 111.15 18.75 111.19 27.99 111.25" fill="#00aeef"/><path d="M66.36,28.38l-.12-19.12c-.88.14-5.53-.24-5.88.12-.66.69-.28,16.93.12,19.12l5.88-.12Z" fill="#00aeef"/><polygon points="35.11 47.63 34.86 53.38 41.11 54.13 41.24 60.25 47.36 59.88 47.24 47.5 35.11 47.63" fill="#00aeef"/><polygon points="37.83 104.98 46.99 105.25 46.99 98.75 34.74 98.75 34.38 104.55 34.36 104.88 37.83 104.98" fill="#00aeef"/><polygon points="60.11 54.13 60.13 54.77 60.49 67 66.36 66.88 66.24 54.89 66.24 54 60.11 54.13" fill="#00aeef"/><polygon points="2.24 60.25 0 60.3 0 72.92 2.36 72.88 2.24 60.25" fill="#00aeef"/><polygon points="2.24 80 0 80.05 0 92.27 2.36 92.13 2.24 80" fill="#00aeef"/><polygon points="53.63 35.39 53.99 41.25 60.11 40.88 59.74 34.75 57.29 34.9 53.61 35.13 53.63 35.39" fill="#00aeef"/><polygon points="73.24 41.25 79.36 41.13 79.02 35.4 78.99 34.75 75.91 34.95 73.11 35.13 73.24 41.25" fill="#00aeef"/><polygon points="78.99 361.25 79.36 355.13 57.3 354.8 53.99 354.75 53.61 360.88 57.3 361.29 60.36 361.63 60.36 364.25 66.36 364.25 66.36 361.63 78.99 361.25" fill="#00aeef"/><polygon points="102.11 354.75 101.87 354.75 85.99 354.75 85.86 361.13 102.11 361.25 102.11 354.75" fill="#00aeef"/><polygon points="102.11 226.75 101.75 226.75 85.99 226.75 85.86 232.88 102.11 233.25 102.11 226.75" fill="#00aeef"/><polygon points="101.73 258.75 86.24 258.75 85.86 264.88 90.87 264.99 102.11 265.25 102.11 258.75 101.73 258.75" fill="#00aeef"/><polygon points="101.73 130.75 86.24 130.75 85.86 136.88 94.35 136.94 102.11 137 102.11 130.75 101.73 130.75" fill="#00aeef"/><path d="M27.99,124.25l.12-3.75H8.61c.1.62-.19,3.52.12,3.75.79.56,16.9-.43,19.25,0Z" fill="#00aeef"/><path d="M102.11,239.5c-.37.08-1.29-.01-2-.05-.27-.01-.52-.02-.69,0-.08,0-.15.02-.19.05-.31.17-.47,3.8-.51,7.12-.03,2.72.02,5.24.13,5.5.31.71,2.58.24,3.25.38v-13Z" fill="#00aeef"/><path d="M79.36,120.5c.1.62-.19,3.52.12,3.75.18.12,1.74.07,3.31.01,1.38-.05,2.76-.09,3.19-.01l-.12-3.75h-6.5Z" fill="#00aeef"/><path d="M102.11,162.75c-.06.01-.15.01-.23.02-.93.05-3.22-.31-3.52.36-.12.26-.12,5.49,0,5.75.32.73,3.03.23,3.75.38v-6.5Z" fill="#00aeef"/><path d="M102.11,194.75c-.72.15-3.43-.35-3.75.38-.12.26-.12,5.49,0,5.75.01.03.06.05.08.08.5.59,2.98.16,3.67.3v-6.5Z" fill="#00aeef"/><path d="M98.36,207.88c-.12.26-.12,5.49,0,5.75.32.73,3.03.23,3.75.38v-6.5c-.72.15-3.43-.35-3.75.38Z" fill="#00aeef"/><path d="M98.36,335.88c-.12.26-.12,5.49,0,5.75.32.73,3.03.23,3.75.38v-6.5c-.72.15-3.43-.35-3.75.38Z" fill="#00aeef"/><path d="M102.11,290.75c-.09.02-.21.03-.35.03-1.01.01-3.11-.29-3.4.35-.12.26-.12,5.49,0,5.75.32.73,3.03.23,3.75.38v-6.5Z" fill="#00aeef"/><path d="M102.11,322.75c-.72.15-3.43-.35-3.75.38-.12.26-.12,5.49,0,5.75.01.03.06.05.08.08.5.59,2.98.16,3.67.3v-6.5Z" fill="#00aeef"/><path d="M60.36,124.13c.14.26,5.63.3,5.88.12.32-.23.02-3.13.12-3.75h-6v3.62Z" fill="#00aeef"/><path d="M102.11,149.75v-6.25c-.67.13-2.94-.33-3.25.38-.12.26-.17,5.52,0,5.75.22.31,2.68.03,3.25.12Z" fill="#00aeef"/><path d="M102.11,277.75v-6.25c-.67.13-2.94-.33-3.25.38-.12.26-.17,5.52,0,5.75.22.31,2.68.03,3.25.12Z" fill="#00aeef"/><path d="M98.86,120.5c.04,3.36-.88,4.47,3.25,4v-4h-3.25Z" fill="#00aeef"/><path d="M66.36,233.38l12.62-.12v-6.5c-2.19.28-15.24-.23-21.73-.05-2.05.06-3.46.18-3.64.43-.19.24-.1,5.92.38,6.12l3.29.19,3.09.18.12,18.62,5.88-.12v-18.75Z" fill="#00aeef"/><polygon points="92.04 175.46 91.74 149.75 85.61 150.13 85.99 181.75 88.88 181.69 92.11 181.63 92.04 175.46" fill="#00aeef"/><polygon points="92.09 303.46 91.99 278 85.61 278.13 85.99 309.75 88.87 309.69 92.11 309.63 92.09 303.46" fill="#00aeef"/><polygon points="34.26 266.53 34.24 265.25 31.16 265.31 15.11 265.63 15.49 284.5 21.61 284.13 21.74 271.75 34.36 271.63 34.26 266.53" fill="#00aeef"/><polygon points="21.61 156.13 21.74 143.75 34.36 143.63 34.26 138.53 34.24 137.25 30.8 137.32 15.11 137.63 15.49 156.5 21.61 156.13" fill="#00aeef"/><polygon points="40.99 156.25 37.67 156.45 34.86 156.63 34.74 162.75 30.84 162.83 28.61 162.88 28.74 169.25 30.89 169.21 37.77 169.07 47.36 168.88 47.36 163.13 41.11 162.63 40.99 156.25" fill="#00aeef"/><polygon points="40.99 284.25 37.67 284.45 34.86 284.63 34.74 290.75 30.84 290.83 28.61 290.88 28.74 297.25 30.89 297.21 37.77 297.07 47.36 296.88 47.36 291.13 41.11 290.63 40.99 284.25" fill="#00aeef"/><polygon points="21.24 348.5 21.99 342.5 34.24 342.5 34.24 338.27 34.24 336.25 30.9 336.25 15.49 336.25 15.11 348.13 18.19 348.32 19.05 348.37 21.24 348.5" fill="#00aeef"/><polygon points="21.24 220.5 21.99 214.5 34.24 214.5 34.24 210.27 34.24 208.25 30.9 208.25 15.49 208.25 15.11 220.13 17.47 220.27 18.67 220.34 21.24 220.5" fill="#00aeef"/><polygon points="57.3 335.82 60.36 335.88 60.49 348.5 66.36 348.38 66.24 329.25 53.86 329.63 53.9 331.52 53.99 335.75 57.3 335.82" fill="#00aeef"/><polygon points="57.19 207.69 60.36 207.88 60.49 220.5 66.36 220.38 66.24 201.25 53.86 201.63 53.9 203.63 53.99 207.5 57.19 207.69" fill="#00aeef"/><polygon points="15.48 201.02 15.49 201.25 21.61 200.88 21.49 182 19.05 182.05 15.11 182.13 15.48 201.02" fill="#00aeef"/><polygon points="19.05 310.05 15.11 310.13 15.48 329.02 15.49 329.25 21.61 328.88 21.49 310 19.05 310.05" fill="#00aeef"/><polygon points="27.99 246 19.04 246 12.16 246 8.74 246 8.61 252.13 27.99 252.25 27.99 246" fill="#00aeef"/><polygon points="27.99 239.25 27.99 233 18.85 233 11.97 233 8.74 233 8.61 239.13 12.06 239.15 18.94 239.19 27.99 239.25" fill="#00aeef"/><polygon points="18.83 361 11.81 361 8.74 361 8.67 364.25 27.87 364.25 27.74 361 18.83 361" fill="#00aeef"/><path d="M66.36,156.38l-.12-19.12c-.88.14-5.53-.24-5.88.12-.66.69-.28,16.93.12,19.12l5.88-.12Z" fill="#00aeef"/><path d="M66.36,284.38l-.12-19.12c-.88.14-5.53-.24-5.88.12-.66.69-.28,16.93.12,19.12l5.88-.12Z" fill="#00aeef"/><polygon points="35.11 303.63 34.86 309.38 41.11 310.13 41.24 316.25 47.36 315.88 47.24 303.5 35.11 303.63" fill="#00aeef"/><polygon points="35.11 175.63 35.11 181.63 41.11 181.88 41.24 188.25 47.36 187.88 47.24 175.5 35.11 175.63" fill="#00aeef"/><polygon points="37.67 232.98 46.99 233.25 46.99 226.75 34.74 226.75 34.38 232.52 34.36 232.88 37.67 232.98" fill="#00aeef"/><polygon points="37.83 360.98 46.99 361.25 46.99 354.75 34.74 354.75 34.38 360.55 34.36 360.88 37.83 360.98" fill="#00aeef"/><polygon points="60.11 310.13 60.13 310.77 60.49 323 66.36 322.88 66.24 310.89 66.24 310 60.11 310.13" fill="#00aeef"/><polygon points="60.11 182.13 60.13 182.77 60.49 195 66.36 194.88 66.24 182.89 66.24 182 60.11 182.13" fill="#00aeef"/><polygon points="2.24 316.25 0 316.3 0 328.92 2.36 328.88 2.24 316.25" fill="#00aeef"/><polygon points="2.24 188.25 0 188.3 0 200.92 2.36 200.88 2.24 188.25" fill="#00aeef"/><polygon points="2.24 336 0 336.05 0 348.27 2.36 348.13 2.24 336" fill="#00aeef"/><polygon points="2.24 208 0 208.05 0 220.27 2.36 220.13 2.24 208" fill="#00aeef"/><polygon points="57.29 162.9 53.61 163.13 53.63 163.39 53.99 169.25 60.11 168.88 59.74 162.75 57.29 162.9" fill="#00aeef"/><polygon points="57.29 290.9 53.61 291.13 53.63 291.39 53.99 297.25 60.11 296.88 59.74 290.75 57.29 290.9" fill="#00aeef"/><polygon points="82.91 252.19 85.99 252.25 85.74 246 79.49 246 79.47 247.01 79.36 252.13 82.91 252.19" fill="#00aeef"/><polygon points="75.91 290.95 73.11 291.13 73.24 297.25 79.36 297.13 79.02 291.4 78.99 290.75 75.91 290.95" fill="#00aeef"/><polygon points="75.91 162.95 73.11 163.13 73.24 169.25 79.36 169.13 79.02 163.4 78.99 162.75 75.91 162.95" fill="#00aeef"/><polygon points="102.11 2.75 102.11 9.25 123.74 9.25 123.74 9.09 123.88 1.71 123.92 0 117.32 0 117.24 3 102.11 2.75" fill="#00aeef"/><path d="M105.8,34.75h-3.69v6.5h21.62c.41-.77.53-4.27.27-5.8-.07-.38-.15-.64-.27-.7h-17.94Z" fill="#00aeef"/><polygon points="102.11 86 116.74 86 116.86 79.63 102.11 79.5 102.11 86" fill="#00aeef"/><polygon points="105.8 66.85 102.11 66.75 102.11 73.25 116.74 73.25 116.74 73.21 116.86 67.13 105.8 66.85" fill="#00aeef"/><polygon points="111.24 21.75 111.36 15.63 102.11 15.5 102.11 21.75 111.24 21.75" fill="#00aeef"/><path d="M155.74,118c-.42-.19-4.67-.32-9.05-.35-2.48-.02-5,0-6.89.07-1.69.06-2.87.15-3.06.28-.3.21-.04,2.01-.12,2.5h19.5c-.1-.59.29-2.21-.38-2.5Z" fill="#00aeef"/><path d="M105.8,118.13c-.12-.03-.23-.07-.31-.13-.95-.67,1-5.45-.91-6.55-.48-.27-1.2-.31-2.27,0-.07.02-.12.02-.19.05v9h9.25c.22-.77.22-1.31.07-1.7-.64-1.73-4.26-.34-5.64-.67Z" fill="#00aeef"/><path d="M102.11,98.75v6.5c.67-.13,2.94.33,3.25-.38.1-.23.11-4.31.04-5.46-.01-.15-.02-.26-.04-.29-.31-.71-2.58-.24-3.25-.38Z" fill="#00aeef"/><path d="M123.99,118c-.12-.08-1.43-.11-2.8-.11-1.5,0-3.06.05-3.2.11-.28.12-.37.48-.39.9-.03.58.07,1.26.02,1.6h6.5c-.09-.49.18-2.29-.12-2.5Z" fill="#00aeef"/><polygon points="158.92 9.31 143.11 9.63 143.49 28.5 149.61 28.13 149.74 15.75 162.36 15.63 162.06 10.53 161.99 9.25 158.92 9.31" fill="#00aeef"/><polygon points="168.99 28.25 165.67 28.45 162.86 28.63 162.74 34.75 158.84 34.83 156.61 34.88 156.74 41.25 158.89 41.24 165.77 41.19 171.78 41.15 171.78 34.74 169.11 34.63 168.99 28.25" fill="#00aeef"/><polygon points="149.24 92.5 149.99 86.5 161.99 86.5 162.15 82.28 162.24 80.25 158.9 80.25 143.24 80.25 143.11 92.13 146.19 92.32 147.05 92.37 149.24 92.5" fill="#00aeef"/><polygon points="143.48 73.02 143.49 73.25 149.61 72.88 149.49 54 147.05 54.05 143.11 54.13 143.48 73.02" fill="#00aeef"/><polygon points="155.74 111.25 155.74 105 146.83 105 139.81 105 136.74 105 136.61 111.13 139.8 111.15 146.75 111.19 155.74 111.25" fill="#00aeef"/><path d="M169.11,54.13l.12,6.12,2.54-.16v-12.49l-8.92.27c-.48,7.52,0,5.29,6.25,6.25Z" fill="#00aeef"/><polygon points="162.38 104.56 162.36 104.88 165.83 104.98 171.78 105.16 171.78 98.75 162.74 98.75 162.38 104.56" fill="#00aeef"/><polygon points="130.24 60.25 124.11 60.38 124.24 73 130.36 72.63 130.24 60.25" fill="#00aeef"/><polygon points="123.99 47.5 111.49 47.5 111.36 53.63 123.99 53.75 123.99 47.5" fill="#00aeef"/><path d="M127.79,92.55c1.2.02,2.28-.04,2.57-.42.37-.48-.19-10.62-.12-12.12l-6.12.12.12,12.18v.19c.6-.11,2.16.02,3.56.04Z" fill="#00aeef"/><polygon points="117.86 98.88 117.87 99.46 117.99 105.25 123.86 105.13 123.75 99.46 123.74 98.75 117.86 98.88" fill="#00aeef"/><rect x="117.92" y="15.56" width="5.88" height="6.13" transform="translate(-.35 2.47) rotate(-1.17)" fill="#00aeef"/><polygon points="124.11 246.13 121.18 246.13 117.61 246.13 117.59 246.9 117.24 259 102.11 258.75 102.11 265.25 123.74 265.25 123.74 265.09 123.88 257.71 124.11 246.13" fill="#00aeef"/><polygon points="124.11 120.5 117.61 120.5 117.24 131 102.11 130.75 102.11 137 123.74 137.25 123.74 137.09 123.9 129.71 124.11 120.5" fill="#00aeef"/><path d="M105.8,162.75h-3.69v6.5h21.62c.45-.24.52-4.16.25-5.8-.06-.39-.15-.65-.25-.7h-17.94Z" fill="#00aeef"/><path d="M105.8,290.75h-3.69v6.5h21.62c.41-.77.53-4.27.27-5.8-.07-.38-.15-.64-.27-.7h-17.94Z" fill="#00aeef"/><polygon points="102.11 342 116.74 342 116.86 335.63 102.11 335.5 102.11 342" fill="#00aeef"/><polygon points="105.8 322.85 102.11 322.75 102.11 329.25 116.74 329.25 116.74 329.21 116.86 323.13 105.8 322.85" fill="#00aeef"/><polygon points="105.8 194.85 102.11 194.75 102.11 201.25 116.74 201.25 116.74 201.21 116.86 195.13 105.8 194.85" fill="#00aeef"/><polygon points="102.11 213.75 116.74 214 116.86 207.63 102.11 207.5 102.11 213.75" fill="#00aeef"/><path d="M105.8,246.01h-.31c-.69-2.62.98-5.92-1.13-6.55-.45-.13-1.08-.14-1.93,0-.11.02-.2.02-.31.05v13l9.12-.25.11-5.46v-.67s-5.55-.12-5.55-.12Z" fill="#00aeef"/><path d="M136.74,124.25c.79.56,16.9-.43,19.25,0l.12-3.75h-19.5c.1.62-.19,3.52.12,3.75Z" fill="#00aeef"/><polygon points="111.24 277.75 111.36 271.63 102.11 271.5 102.11 277.75 111.24 277.75" fill="#00aeef"/><polygon points="111.24 149.75 111.36 143.63 102.11 143.5 102.11 149.75 111.24 149.75" fill="#00aeef"/><path d="M102.11,124.5c1.18-.24,9.06.05,9.25-.38v-3.62h-9.25v4Z" fill="#00aeef"/><path d="M102.11,226.75v6.5c.67-.13,2.94.33,3.25-.38.1-.23.11-4.29.04-5.45-.01-.16-.02-.27-.04-.3-.31-.71-2.58-.24-3.25-.38Z" fill="#00aeef"/><path d="M102.11,354.75v6.5c.67-.13,2.94.33,3.25-.38.1-.23.11-4.31.04-5.46-.01-.15-.02-.26-.04-.29-.31-.71-2.58-.24-3.25-.38Z" fill="#00aeef"/><polygon points="158.8 137.32 143.11 137.63 143.49 156.5 149.61 156.13 149.74 143.75 162.36 143.63 162.26 138.53 162.24 137.25 158.8 137.32" fill="#00aeef"/><polygon points="158.92 265.31 143.11 265.63 143.49 284.5 149.61 284.13 149.74 271.75 162.36 271.63 162.06 266.53 161.99 265.25 158.92 265.31" fill="#00aeef"/><polygon points="168.99 156.25 165.67 156.45 162.86 156.63 162.74 162.75 158.84 162.83 156.61 162.88 156.74 169.25 158.89 169.21 165.77 169.07 171.78 168.94 171.78 162.84 169.11 162.63 168.99 156.25" fill="#00aeef"/><polygon points="168.99 284.25 165.67 284.45 162.86 284.63 162.74 290.75 158.84 290.83 156.61 290.88 156.74 297.25 158.89 297.24 165.77 297.19 171.78 297.15 171.78 290.74 169.11 290.63 168.99 284.25" fill="#00aeef"/><polygon points="149.24 348.5 149.99 342.5 161.99 342.5 162.15 338.28 162.24 336.25 158.9 336.25 143.24 336.25 143.11 348.13 146.19 348.32 147.05 348.37 149.24 348.5" fill="#00aeef"/><polygon points="143.11 220.13 145.47 220.27 146.67 220.34 149.24 220.5 149.74 214.5 161.99 214.5 162.15 210.28 162.24 208.25 158.9 208.25 143.24 208.25 143.11 220.13" fill="#00aeef"/><polygon points="147.05 310.05 143.11 310.13 143.48 329.02 143.49 329.25 149.61 328.88 149.49 310 147.05 310.05" fill="#00aeef"/><polygon points="143.48 201.02 143.49 201.25 149.61 200.88 149.49 182 147.05 182.05 143.11 182.13 143.48 201.02" fill="#00aeef"/><polygon points="136.74 246 136.61 252.13 155.99 252.25 155.99 246 147.04 246 140.16 246 136.74 246" fill="#00aeef"/><polygon points="136.74 233 136.61 239.13 140.06 239.15 146.94 239.19 155.74 239.25 155.99 233 146.85 233 139.97 233 136.74 233" fill="#00aeef"/><polygon points="146.83 361 139.81 361 136.74 361 136.67 364.25 155.74 364.25 155.74 361 146.83 361" fill="#00aeef"/><polygon points="162.86 181.38 169.11 182.13 169.24 188.25 171.78 188.1 171.78 175.61 162.86 175.88 162.86 181.38" fill="#00aeef"/><path d="M169.11,310.13l.12,6.12,2.54-.16v-12.49l-8.92.27c-.48,7.52,0,5.29,6.25,6.25Z" fill="#00aeef"/><polygon points="162.38 232.51 162.36 232.88 165.43 232.97 171.78 233.16 171.78 226.75 162.74 226.75 162.38 232.51" fill="#00aeef"/><polygon points="162.38 360.56 162.36 360.88 165.83 360.98 171.78 361.16 171.78 354.75 162.74 354.75 162.38 360.56" fill="#00aeef"/><polygon points="123.99 175.5 111.49 175.5 111.36 181.63 123.99 181.75 123.99 175.5" fill="#00aeef"/><polygon points="130.24 188.25 124.11 188.38 124.24 201 130.36 200.63 130.24 188.25" fill="#00aeef"/><polygon points="130.24 316.25 124.11 316.38 124.24 329 130.36 328.63 130.24 316.25" fill="#00aeef"/><polygon points="123.99 303.5 111.49 303.5 111.36 309.63 123.99 309.75 123.99 303.5" fill="#00aeef"/><polygon points="130.24 208 124.11 208.13 124.23 220.31 124.24 220.5 127.1 220.33 130.36 220.13 130.24 208" fill="#00aeef"/><path d="M130.24,336l-6.12.12.12,12.18v.19c.6-.11,2.16.02,3.56.04,1.2.02,2.28-.04,2.57-.42.37-.48-.19-10.62-.12-12.12Z" fill="#00aeef"/><polygon points="117.86 354.88 117.87 355.46 117.99 361.25 123.86 361.13 123.75 355.46 123.74 354.75 117.86 354.88" fill="#00aeef"/><path d="M117.86,226.88s-.04.27-.06.58c-.08,1.55-.04,5.66.18,5.8l5.88-.12-.11-5.67v-.7c-.76.1-5.76-.14-5.89.12Z" fill="#00aeef"/><polygon points="123.74 143.5 117.61 143.88 117.99 149.75 123.86 149.63 123.74 143.5" fill="#00aeef"/><rect x="117.92" y="271.56" width="5.88" height="6.13" transform="translate(-5.81 2.63) rotate(-1.22)" fill="#00aeef"/></svg>