<?xml version="1.0" encoding="UTF-8"?><svg id="a" xmlns="http://www.w3.org/2000/svg" width="60.6mm" height="128.5mm" viewBox="0 0 171.78 364.25"><path d="M165.8,10.33l-6.88.38-.04-10.71h-75.8l.09,1.96,18.5-.25.38,7.12-25.88.38-.19-9.21h-38.22l.04,10.33-6.62.38-.12-10.71H0v1.71h18.67v7.5l-18.67-.09v19.09h5.92v7.25l-5.92-.07v94.32h18.67v7.5l-18.67-.09v19.09h5.92v7.25l-5.92-.07v94.32h18.67v7.5l-18.67-.09v19.09h5.92v7.25l-5.92-.07v72.87h11.8v-1.05l.12-15,7.12.12-.25,14.88v1.05s12,0,12,0v-1.05c.09-.49-.18-2.29.12-2.5.28-.2,6.71-.26,6.88.12.17.39-.12,1.81,0,2.38v1.05s12.27,0,12.27,0c.02-.45.03-.84-.02-1.05l.38-31.75,6.88.12v31.62c-.03.18-.03.58-.02,1.05h82.52v-1.05l.12-15,7.12.12-.25,14.88v1.05s12,0,12,0v-1.05c.09-.49-.18-2.29.12-2.5.28-.2,6.72-.23,6.88.12.17.39-.12,1.81,0,2.38v1.05s5.98,0,5.98,0V0h-6.1l.11,10.33ZM19.05,328.83l-7.12.38-.12-25.62c1.87.05,4.34-.7,6.12-.38.15.03.76.38,1.12.38v25.25ZM12.17,246.96l-.38-26.38,6.88-.38.38,26.38-6.88.38ZM19.05,200.83l-7.12.38-.12-25.62c1.94.02,4.21-.73,6.12-.38.15.03.76.38,1.12.38v25.25ZM18.8,107.21l-.12,11.75-6.88-.38v-11.38l.12-15,7.12.12-.25,14.88ZM19.05,72.83l-7.12.38-.12-25.62c1.87.05,4.34-.7,6.12-.38.15.03.76.38,1.12.38v25.25ZM120.92,1.71h25.75v7.5l-25.88-.12.12-7.38ZM102.05,28.33c.44-.37,3.01.01,3.75-.12l28.25.12-.38,7.12h-27.88c-.75-.15-3.67.36-4-.38-.16-.36,0-6.53.25-6.75ZM88.92,175.46h16.88c.52.09,2.53-.18,2.75.12.2.29.14,6.68,0,7-.3.68-2.13.26-2.75.38h-16.88c.1-1.06-.72-7.18,0-7.5ZM121.3,194.08l-.38,7.12h-15.12l-11-.38.12-6.88,10.88-.25v.25l15.5.12ZM94.92,239.46h10.88l15.5-.12-.12,7.62-15.38-.25-11-.12.12-7.12ZM105.8,227.46c-.75-.15-3.67.36-4-.38-.16-.36,0-6.53.25-6.75.44-.37,3.01.01,3.75-.12l22,.12-.12,7.12h-21.88ZM105.8,163.46l-4-.38c1.18-3.96-2.54-7.86,4-6.88l28.25.12-.38,7.12h-27.88ZM121.3,66.08l-.12,7.12h-15.38l-11-.38.12-6.88,10.88-.25v.25l15.5.12ZM101.8,92.33c.24-.32,3.35-.02,4-.12l22,.12-.12,7.12h-21.88l-4-.38c.41-.98-.2-6.48,0-6.75ZM94.92,111.46h10.88l15.5-.12-.12,7.62-15.38-.25-11-.12.12-7.12ZM120.8,137.08l.12-7.38h25.75v7.5l-25.88-.12ZM88.92,47.46h16.88c.52.09,2.53-.18,2.75.12.21.3.21,6.95,0,7.25-.22.31-2.23.03-2.75.12h-16.88c.07-1-.74-7.27,0-7.5ZM82.67,28.21l.38,7.12-7.12.12-.12-7.12,6.88-.12ZM81.67,65.71c.32.06.91.36,1.38.38v25.5l-7.12.38-.12-25.88c.24-.4,5.19-.51,5.88-.38ZM82.67,118.96l.25,10.75h18.75l.38,7.12-25.88.38-.38-18.12,6.88-.12ZM82.67,156.21l.38,7.12-7.12.12-.12-7.12,6.88-.12ZM81.42,193.71c.41.07,1.09.36,1.62.38v25.5l-7.12.38-.12-25.88c.2-.28,4.98-.49,5.62-.38ZM82.67,246.96l.5,11,18.5-.25.38,7.12-25.88.38-.38-18.12,6.88-.12ZM57.17,1.71l.12,33.62-7.12.12-.12-33.38,7.12-.38ZM37.67,28.21l.12,16.62-6.88.38-.12-16.88,6.88-.12ZM37.67,65.71l.12,16.38-6.88.38-.12-16.62,6.88-.12ZM30.92,338.46l-.12-16.62,6.88-.12.12,16.38-6.88.38ZM30.92,301.21l-.12-16.88,6.88-.12.12,16.62-6.88.38ZM31.17,266.71l-.38-34.12,6.88-.12.12,33.88-6.62.38ZM30.92,210.46l-.12-16.62,6.88-.12.12,16.38-6.88.38ZM30.92,173.21l-.12-16.88,6.88-.12.12,16.62-6.88.38ZM37.8,107.21l-.38,31.5-6.62-.38v-31.12c.09-.49-.18-2.29.12-2.5.28-.2,6.71-.26,6.88.12.17.39-.12,1.81,0,2.38ZM50.05,107.21l.38-31.75,6.88.12v31.62c-.11.67.2,4.02-.12,4.25-.28.2-6.44.14-6.75,0-.74-.33-.22-3.48-.38-4.25ZM57.3,163.33l-7.12.12-.12-33.38,7.12-.38.12,33.62ZM50.42,239.46l-.38-35.62,7.12-.38.12,35.88-6.88.12ZM57.3,291.33l-7.12.12-.12-33.38,7.12-.38.12,33.62ZM69.92,310.96l-19.88-.38.12-7.12h19.75v7.5ZM69.92,182.96l-19.88-.38.12-7.12h19.75v7.5ZM69.92,54.96l-19.88-.38.12-7.12h19.75v7.5ZM83.05,347.58l-7.12.38-.12-25.88c.24-.4,5.19-.51,5.88-.38.32.06.91.36,1.38.38v25.5ZM75.92,291.46l-.12-7.12,6.88-.12.38,7.12-7.12.12ZM88.92,303.46h16.88c.52.09,2.53-.18,2.75.12.21.3.21,6.95,0,7.25-.22.31-2.23.03-2.75.12h-16.88c.07-1-.74-7.27,0-7.5ZM94.92,321.96l10.88-.25v.25l15.5.12-.12,7.12h-15.38l-11-.38.12-6.88ZM127.67,355.46h-21.88l-4-.38c.41-.98-.2-6.48,0-6.75.24-.32,3.35-.02,4-.12l22,.12-.12,7.12ZM133.67,291.46h-27.88c-.75-.15-3.67.36-4-.38-.16-.36,0-6.53.25-6.75.44-.37,3.01.01,3.75-.12l28.25.12-.38,7.12ZM120.8,265.08l.12-7.38h25.75v7.5l-25.88-.12ZM147.05,328.83l-7.12.38-.12-25.62c1.6.19,4.73-.6,6.12-.38.12.02.77.38,1.12.38v25.25ZM140.17,246.96l-.38-26.38,6.88-.38.38,26.38-6.88.38ZM147.05,200.83l-7.12.38-.12-25.62c.18-.25,5.66-.48,6.12-.38.19.04.74.37,1.12.38v25.25ZM146.8,107.21l-.12,11.75-6.88-.38v-11.38l.12-15,7.12.12-.25,14.88ZM147.05,72.83l-7.12.38-.12-25.62c1.6.19,4.73-.6,6.12-.38.12.02.77.38,1.12.38v25.25ZM165.67,28.21l.12,16.62-6.88.38-.12-16.88,6.88-.12ZM165.67,65.71l.12,16.38-6.88.38-.12-16.62,6.88-.12ZM158.92,338.46l-.12-16.62,6.88-.12.12,16.38-6.88.38ZM158.92,301.21l-.12-16.88,6.88-.12.12,16.62-6.88.38ZM158.92,266.71l-.12-34.12,6.62-.12.38,33.88-6.88.38ZM158.92,210.46l-.12-16.62,6.88-.12.12,16.38-6.88.38ZM158.92,173.21l-.12-16.88,6.88-.12.12,16.62-6.88.38ZM165.8,107.21l-.38,31.5-6.62-.38v-31.12c.09-.49-.18-2.29.12-2.5.28-.2,6.72-.23,6.88.12.17.39-.12,1.81,0,2.38Z" fill="none"/><polygon points="57.3 75.58 50.42 75.46 50.05 107.21 57.3 107.21 57.3 75.58" fill="#ec008c"/><path d="M88.92,54.96h16.88v-7.5h-16.88c-.74.23.07,6.5,0,7.5Z" fill="#ec008c"/><polygon points="11.8 107.21 18.8 107.21 19.05 92.33 11.92 92.21 11.8 107.21" fill="#ec008c"/><polygon points="94.92 65.96 94.8 72.83 105.8 73.21 105.8 65.96 105.8 65.71 94.92 65.96" fill="#ec008c"/><path d="M105.8,35.46v-7.25c-.74.14-3.31-.24-3.75.12-.26.22-.41,6.39-.25,6.75.33.74,3.25.22,4,.38Z" fill="#ec008c"/><path d="M105.8,99.46v-7.25c-.65.11-3.76-.2-4,.12-.2.27.41,5.77,0,6.75l4,.38Z" fill="#ec008c"/><path d="M30.92,104.71c-.3.21-.04,2.01-.12,2.5h7c-.12-.56.17-1.98,0-2.38-.17-.38-6.59-.33-6.88-.12Z" fill="#ec008c"/><polygon points="102.05 8.83 101.67 1.71 83.17 1.96 83.08 0 75.98 0 76.17 9.21 102.05 8.83" fill="#ec008c"/><polygon points="57.3 35.33 57.17 1.71 50.05 2.08 50.17 35.46 57.3 35.33" fill="#ec008c"/><polygon points="37.8 10.33 37.76 0 31.05 0 31.17 10.71 37.8 10.33" fill="#ec008c"/><polygon points="5.92 28.21 0 28.21 0 35.39 5.92 35.46 5.92 28.21" fill="#ec008c"/><polygon points="18.67 1.71 0 1.71 0 9.12 18.67 9.21 18.67 1.71" fill="#ec008c"/><path d="M83.05,91.58v-25.5c-.46-.01-1.06-.31-1.38-.38-.68-.14-5.64-.03-5.88.38l.12,25.88,7.12-.38Z" fill="#ec008c"/><path d="M11.8,47.58l.12,25.62,7.12-.38v-25.25c-.37,0-.97-.35-1.12-.38-1.79-.33-4.26.42-6.12.38Z" fill="#ec008c"/><polygon points="50.05 54.58 69.92 54.96 69.92 47.46 50.17 47.46 50.05 54.58" fill="#ec008c"/><polygon points="37.8 44.83 37.67 28.21 30.8 28.33 30.92 45.21 37.8 44.83" fill="#ec008c"/><polygon points="37.8 82.08 37.67 65.71 30.8 65.83 30.92 82.46 37.8 82.08" fill="#ec008c"/><polygon points="83.05 35.33 82.67 28.21 75.8 28.33 75.92 35.46 83.05 35.33" fill="#ec008c"/><polygon points="57.3 331.58 50.42 331.46 50.05 363.21 57.3 363.21 57.3 331.58" fill="#ec008c"/><polygon points="30.8 138.33 37.42 138.71 37.8 107.21 30.8 107.21 30.8 138.33" fill="#ec008c"/><path d="M105.8,310.96v-7.5h-16.88c-.74.23.07,6.5,0,7.5h16.88Z" fill="#ec008c"/><path d="M105.8,182.96v-7.5h-16.88c-.72.32.1,6.44,0,7.5h16.88Z" fill="#ec008c"/><polygon points="19.05 348.33 11.92 348.21 11.8 363.21 18.8 363.21 19.05 348.33" fill="#ec008c"/><polygon points="11.8 118.58 18.67 118.96 18.8 107.21 11.8 107.21 11.8 118.58" fill="#ec008c"/><polygon points="105.8 321.96 105.8 321.71 94.92 321.96 94.8 328.83 105.8 329.21 105.8 321.96" fill="#ec008c"/><polygon points="94.92 193.96 94.8 200.83 105.8 201.21 105.8 193.96 105.8 193.71 94.92 193.96" fill="#ec008c"/><polygon points="105.8 118.71 105.8 111.46 94.92 111.46 94.8 118.58 105.8 118.71" fill="#ec008c"/><polygon points="105.8 239.46 94.92 239.46 94.8 246.58 105.8 246.71 105.8 239.46" fill="#ec008c"/><path d="M50.42,111.46c.31.14,6.47.2,6.75,0,.32-.23.02-3.58.12-4.25h-7.25c.16.77-.37,3.92.38,4.25Z" fill="#ec008c"/><path d="M102.05,220.33c-.26.22-.41,6.39-.25,6.75.33.74,3.25.22,4,.38v-7.25c-.74.14-3.31-.24-3.75.12Z" fill="#ec008c"/><path d="M102.05,284.33c-.26.22-.41,6.39-.25,6.75.33.74,3.25.22,4,.38v-7.25c-.74.14-3.31-.24-3.75.12Z" fill="#ec008c"/><path d="M101.8,348.33c-.2.27.41,5.77,0,6.75l4,.38v-7.25c-.65.11-3.76-.2-4,.12Z" fill="#ec008c"/><path d="M101.8,163.08l4,.38v-7.25c-6.54-.98-2.82,2.91-4,6.88Z" fill="#ec008c"/><path d="M37.8,360.83c-.17-.38-6.59-.33-6.88-.12-.3.21-.04,2.01-.12,2.5h7c-.12-.56.17-1.98,0-2.38Z" fill="#ec008c"/><polygon points="102.05 136.83 101.67 129.71 82.92 129.71 82.67 118.96 75.8 119.08 76.17 137.21 102.05 136.83" fill="#ec008c"/><polygon points="102.05 264.83 101.67 257.71 83.17 257.96 82.67 246.96 75.8 247.08 76.17 265.21 102.05 264.83" fill="#ec008c"/><polygon points="57.17 203.46 50.05 203.83 50.42 239.46 57.3 239.33 57.17 203.46" fill="#ec008c"/><polygon points="50.17 291.46 57.3 291.33 57.17 257.71 50.05 258.08 50.17 291.46" fill="#ec008c"/><polygon points="50.05 130.08 50.17 163.46 57.3 163.33 57.17 129.71 50.05 130.08" fill="#ec008c"/><polygon points="30.8 232.58 31.17 266.71 37.8 266.33 37.67 232.46 30.8 232.58" fill="#ec008c"/><polygon points="5.92 284.21 0 284.21 0 291.39 5.92 291.46 5.92 284.21" fill="#ec008c"/><polygon points="5.92 156.21 0 156.21 0 163.39 5.92 163.46 5.92 156.21" fill="#ec008c"/><polygon points="18.67 257.71 0 257.71 0 265.12 18.67 265.21 18.67 257.71" fill="#ec008c"/><polygon points="18.67 129.71 0 129.71 0 137.12 18.67 137.21 18.67 129.71" fill="#ec008c"/><polygon points="11.8 220.58 12.17 246.96 19.05 246.58 18.67 220.21 11.8 220.58" fill="#ec008c"/><path d="M75.8,322.08l.12,25.88,7.12-.38v-25.5c-.46-.01-1.06-.31-1.38-.38-.68-.14-5.64-.03-5.88.38Z" fill="#ec008c"/><path d="M83.05,219.58v-25.5c-.54-.02-1.21-.31-1.62-.38-.65-.11-5.43.1-5.62.38l.12,25.88,7.12-.38Z" fill="#ec008c"/><path d="M11.8,303.58l.12,25.62,7.12-.38v-25.25c-.37,0-.97-.35-1.12-.38-1.79-.33-4.26.42-6.12.38Z" fill="#ec008c"/><path d="M11.8,175.58l.12,25.62,7.12-.38v-25.25c-.37,0-.97-.35-1.12-.38-1.92-.35-4.19.39-6.12.38Z" fill="#ec008c"/><polygon points="50.05 182.58 69.92 182.96 69.92 175.46 50.17 175.46 50.05 182.58" fill="#ec008c"/><polygon points="50.05 310.58 69.92 310.96 69.92 303.46 50.17 303.46 50.05 310.58" fill="#ec008c"/><polygon points="30.8 284.33 30.92 301.21 37.8 300.83 37.67 284.21 30.8 284.33" fill="#ec008c"/><polygon points="30.8 156.33 30.92 173.21 37.8 172.83 37.67 156.21 30.8 156.33" fill="#ec008c"/><polygon points="30.8 193.83 30.92 210.46 37.8 210.08 37.67 193.71 30.8 193.83" fill="#ec008c"/><polygon points="30.8 321.83 30.92 338.46 37.8 338.08 37.67 321.71 30.8 321.83" fill="#ec008c"/><polygon points="75.8 284.33 75.92 291.46 83.05 291.33 82.67 284.21 75.8 284.33" fill="#ec008c"/><polygon points="83.05 163.33 82.67 156.21 75.8 156.33 75.92 163.46 83.05 163.33" fill="#ec008c"/><polygon points="30.8 363.21 30.8 364.25 37.78 364.25 37.8 363.21 30.8 363.21" fill="#ec008c"/><polygon points="11.8 363.21 11.8 364.25 18.78 364.25 18.8 363.21 11.8 363.21" fill="#ec008c"/><path d="M57.3,363.21h-7.25c.04.21.03.59.02,1.05h7.22c-.01-.47-.01-.86.02-1.05Z" fill="#ec008c"/><polygon points="133.67 35.46 134.05 28.33 105.8 28.21 105.8 35.46 133.67 35.46" fill="#ec008c"/><polygon points="127.67 99.46 127.8 92.33 105.8 92.21 105.8 99.46 127.67 99.46" fill="#ec008c"/><polygon points="121.17 73.21 121.3 66.08 105.8 65.96 105.8 73.21 121.17 73.21" fill="#ec008c"/><polygon points="139.8 107.21 146.8 107.21 147.05 92.33 139.92 92.21 139.8 107.21" fill="#ec008c"/><path d="M108.55,54.83c.21-.3.21-6.95,0-7.25-.22-.31-2.23-.03-2.75-.12v7.5c.52-.09,2.53.18,2.75-.12Z" fill="#ec008c"/><path d="M158.92,104.71c-.3.21-.04,2.01-.12,2.5h7c-.12-.56.17-1.98,0-2.38-.15-.35-6.59-.33-6.88-.12Z" fill="#ec008c"/><polygon points="165.8 10.33 165.68 0 158.88 0 158.92 10.71 165.8 10.33" fill="#ec008c"/><polygon points="146.67 1.71 120.92 1.71 120.8 9.08 146.67 9.21 146.67 1.71" fill="#ec008c"/><path d="M139.8,47.58l.12,25.62,7.12-.38v-25.25c-.35,0-1-.36-1.12-.38-1.4-.22-4.52.56-6.12.38Z" fill="#ec008c"/><polygon points="165.8 44.83 165.67 28.21 158.8 28.33 158.92 45.21 165.8 44.83" fill="#ec008c"/><polygon points="165.8 82.08 165.67 65.71 158.8 65.83 158.92 82.46 165.8 82.08" fill="#ec008c"/><polygon points="158.8 138.33 165.42 138.71 165.8 107.21 158.8 107.21 158.8 138.33" fill="#ec008c"/><polygon points="134.05 156.33 105.8 156.21 105.8 163.46 133.67 163.46 134.05 156.33" fill="#ec008c"/><polygon points="105.8 291.46 133.67 291.46 134.05 284.33 105.8 284.21 105.8 291.46" fill="#ec008c"/><polygon points="105.8 355.46 127.67 355.46 127.8 348.33 105.8 348.21 105.8 355.46" fill="#ec008c"/><polygon points="127.8 220.33 105.8 220.21 105.8 227.46 127.67 227.46 127.8 220.33" fill="#ec008c"/><polygon points="120.92 201.21 121.3 194.08 105.8 193.96 105.8 201.21 120.92 201.21" fill="#ec008c"/><polygon points="121.17 329.21 121.3 322.08 105.8 321.96 105.8 329.21 121.17 329.21" fill="#ec008c"/><polygon points="121.17 246.96 121.3 239.33 105.8 239.46 105.8 246.71 121.17 246.96" fill="#ec008c"/><polygon points="121.17 118.96 121.3 111.33 105.8 111.46 105.8 118.71 121.17 118.96" fill="#ec008c"/><polygon points="147.05 348.33 139.92 348.21 139.8 363.21 146.8 363.21 147.05 348.33" fill="#ec008c"/><polygon points="139.8 118.58 146.67 118.96 146.8 107.21 139.8 107.21 139.8 118.58" fill="#ec008c"/><path d="M108.55,310.83c.21-.3.21-6.95,0-7.25-.22-.31-2.23-.03-2.75-.12v7.5c.52-.09,2.53.18,2.75-.12Z" fill="#ec008c"/><path d="M108.55,182.58c.14-.32.2-6.71,0-7-.22-.31-2.23-.03-2.75-.12v7.5c.62-.11,2.45.31,2.75-.38Z" fill="#ec008c"/><path d="M165.8,360.83c-.15-.35-6.59-.33-6.88-.12-.3.21-.04,2.01-.12,2.5h7c-.12-.56.17-1.98,0-2.38Z" fill="#ec008c"/><polygon points="158.8 232.58 158.92 266.71 165.8 266.33 165.42 232.46 158.8 232.58" fill="#ec008c"/><polygon points="146.67 257.71 120.92 257.71 120.8 265.08 146.67 265.21 146.67 257.71" fill="#ec008c"/><polygon points="146.67 129.71 120.92 129.71 120.8 137.08 146.67 137.21 146.67 129.71" fill="#ec008c"/><polygon points="139.8 220.58 140.17 246.96 147.05 246.58 146.67 220.21 139.8 220.58" fill="#ec008c"/><path d="M139.8,175.58l.12,25.62,7.12-.38v-25.25c-.38,0-.93-.33-1.12-.38-.47-.1-5.95.12-6.12.38Z" fill="#ec008c"/><path d="M139.8,303.58l.12,25.62,7.12-.38v-25.25c-.35,0-1-.36-1.12-.38-1.4-.22-4.52.56-6.12.38Z" fill="#ec008c"/><polygon points="158.8 156.33 158.92 173.21 165.8 172.83 165.67 156.21 158.8 156.33" fill="#ec008c"/><polygon points="158.8 284.33 158.92 301.21 165.8 300.83 165.67 284.21 158.8 284.33" fill="#ec008c"/><polygon points="158.8 193.83 158.92 210.46 165.8 210.08 165.67 193.71 158.8 193.83" fill="#ec008c"/><polygon points="158.8 321.83 158.92 338.46 165.8 338.08 165.67 321.71 158.8 321.83" fill="#ec008c"/><polygon points="158.8 363.21 158.8 364.25 165.78 364.25 165.8 363.21 158.8 363.21" fill="#ec008c"/><polygon points="139.8 363.21 139.8 364.25 146.78 364.25 146.8 363.21 139.8 363.21" fill="#ec008c"/></svg>