<?xml version="1.0" encoding="UTF-8"?><svg id="a" xmlns="http://www.w3.org/2000/svg" width="60.6mm" height="128.5mm" viewBox="0 0 171.78 364.25"><path d="M171.78,130.62v7c-2.55-2.48-5.21-5.27-5.27-5.63-.14-.77,2.31-3.02,2.87-3.63.32.34,1.24,1.19,2.4,2.26Z" fill="none"/><polygon points="171.78 178.61 171.78 185.07 158.51 171.99 161.38 168.36 171.78 178.61" fill="none"/><path d="M165.26,155.74l6.52,6.64v6.88l-13.27-13.27,10.87-11.63,2.4,2.35v6.51c-1.08-1.07-1.94-1.86-2.15-1.86-.31.02-4.37,3.96-4.37,4.38Z" fill="none"/><path d="M171.78,114.37v7.02c-4.67-4.6-11.76-12.26-13.27-13.4-.17-.98,2.53-2.86,3.12-3.63.91,1.31,5.82,5.9,10.15,10.01Z" fill="none"/><path d="M171.78,66.7v2.01c-.41,1.1-1.48,1.88-3.15,1.15-2.04-.89-1.56-4.13.5-4.5,1.45-.26,2.3.42,2.65,1.34Z" fill="none"/><polygon points="171.78 102.51 171.78 105.26 170.51 103.99 171.78 102.51" fill="none"/><path d="M171.78,194.77v2.12c-.25.6-.71,1.07-1.4,1.22-3.43.73-4.11-4.29-1.25-4.75,1.4-.22,2.28.48,2.65,1.41Z" fill="none"/><path d="M162.38,206.11c-3.43.73-4.11-4.29-1.25-4.75,3.27-.52,3.78,4.21,1.25,4.75Z" fill="none"/><path d="M171.78,258.7v6.92c-2.55-2.48-5.21-5.27-5.27-5.63-.17-.93,2.42-2.86,2.87-3.63l2.4,2.34Z" fill="none"/><path d="M165.26,283.74l6.52,6.64v7.23c-4.6-4.78-11.57-12.57-13.27-13.62l10.87-11.63,2.4,2.35v6.51c-1.08-1.07-1.94-1.86-2.15-1.86-.31.02-4.37,3.96-4.37,4.38Z" fill="none"/><path d="M171.78,242.37v7.02c-4.67-4.6-11.76-12.26-13.27-13.4-.17-.98,2.53-2.86,3.12-3.63.91,1.31,5.82,5.9,10.15,10.01Z" fill="none"/><polygon points="171.78 230.51 171.78 233.26 170.51 231.99 171.78 230.51" fill="none"/><path d="M171.78,306.37v6.7c-4.4-4.43-13.52-12.45-13.52-13.33,0-.24,3.01-2.84,3.37-3.38.88,1.33,5.75,5.86,10.15,10.01Z" fill="none"/><path d="M118.38,114.11c-3.47.74-4.03-4.21-1.25-4.75,3.15-.61,3.85,4.2,1.25,4.75Z" fill="none"/><path d="M122.38,166.11c-3.43.73-4.11-4.29-1.25-4.75,3.27-.52,3.78,4.21,1.25,4.75Z" fill="none"/><path d="M162.38,78.11c-3.43.73-4.11-4.29-1.25-4.75,3.27-.52,3.78,4.21,1.25,4.75Z" fill="none"/><path d="M118.38,66.11c-3.43.73-4.11-4.29-1.25-4.75,3.27-.52,3.78,4.21,1.25,4.75Z" fill="none"/><path d="M149.01,123.74c0,.07-.16.3-.41.59-.12.15-.27.31-.43.49h0c-.16.18-.33.37-.5.55-.69.73-1.41,1.44-1.54,1.49-1.27.49-17.22-17.01-19.62-18.87l3.12-3.63,19.38,19.38Z" fill="none"/><path d="M122.38,150.11c-3.43.73-4.11-4.29-1.25-4.75,3.27-.52,3.78,4.21,1.25,4.75Z" fill="none"/><path d="M124.76,83.49l-3.13,3.37c-1.64-1.86-14.69-13.6-14.87-14.62-.19-1.02,2.8-2.88,3.37-3.63l14.63,14.88Z" fill="none"/><path d="M157.01,179.74l-11.38,11.37c-.5-.75-3.28-2.76-3.12-3.62.14-.78,10.02-9.54,11.12-11.13l3.38,3.38Z" fill="none"/><path d="M149.01,91.74l-3.38,3.37c-2.21-3.21-22.58-21.28-22.87-22.87-.19-1.02,2.58-2.63,3.12-3.38l23.13,22.88Z" fill="none"/><path d="M146.38,158.11c-3.43.73-4.11-4.29-1.25-4.75,3.27-.52,3.78,4.21,1.25,4.75Z" fill="none"/><path d="M138.38,102.11c-3.43.73-4.11-4.29-1.25-4.75,3.27-.52,3.78,4.21,1.25,4.75Z" fill="none"/><path d="M133.01,91.74c0,.8-10.28,9.79-11.38,11.37-.5-.75-3.28-2.76-3.12-3.62.14-.78,10.02-9.54,11.12-11.13.36.54,3.38,3.14,3.38,3.38Z" fill="none"/><path d="M146.38,110.11c-3.43.73-4.11-4.29-1.25-4.75,3.27-.52,3.78,4.21,1.25,4.75Z" fill="none"/><polygon points="157.01 307.74 149.26 315.61 149.01 315.61 145.63 319.11 142.51 315.61 153.63 304.36 157.01 307.74" fill="none"/><path d="M105.51,323.11v.25c-.45.11-1.71,1.75-1.88,1.75-.67,0-8.11-8.53-9.37-9.5h-.25l-3.25-3.62,3.37-3.38,6.63,7h.25l4.5,4.5v.25c1.62,1.02,1.57,1.76,0,2.75Z" fill="none"/><polygon points="29.01 51.74 21.26 59.61 21.01 59.61 17.63 63.11 14.51 59.61 25.63 48.36 29.01 51.74" fill="none"/><path d="M112.76,311.74l-3.38,3.12-3.87-3.75v-.25l-18.75-19.12c.47-.49,2.92-2.93,3.37-2.88,1.08.11,13.08,13.91,15.38,15.25v.25l7.25,7.38Z" fill="none"/><path d="M51.26,57.99c.06.56-1.13,1.08-1.25,1.62h-.25c-1.63,2.17-1.96,2.17-3.5,0h-.25l-15.75-15.87,3.37-3.38c1.65,2.5,17.5,16.39,17.63,17.63Z" fill="none"/><path d="M83.76,58.49l-1,1.12h-.25c-2.12,2.08-2.28,2.68-4.25,0h-.25c-2.17-3.41-23.2-21.99-23.5-23.62-.16-.87,2.62-2.88,3.12-3.63l26.13,26.13Z" fill="none"/><path d="M112.76,55.74l-3.38,3.12-3.87-3.75v-.25l-18.75-19.12c.47-.49,2.92-2.93,3.37-2.88,1.08.11,13.08,13.91,15.38,15.25v.25l7.25,7.38Z" fill="none"/><path d="M68.01,59.61c-.03,3.39-4.54,3.28-4.75,0,.47-2.93,4.45-3.07,4.75,0Z" fill="none"/><path d="M171.78,322.7v2.01c-.41,1.1-1.48,1.88-3.15,1.15-2.04-.89-1.56-4.13.5-4.5,1.45-.26,2.3.42,2.65,1.34Z" fill="none"/><path d="M130.38,174.11c-3.44.73-4.09-4.24-1.25-4.75,3.2-.57,3.82,4.2,1.25,4.75Z" fill="none"/><polygon points="29.01 307.74 21.26 315.61 21.01 315.61 17.63 319.11 14.51 315.61 25.63 304.36 29.01 307.74" fill="none"/><path d="M51.26,313.99c.06.56-1.13,1.08-1.25,1.62h-.25c-1.63,2.17-1.96,2.17-3.5,0h-.25l-15.75-15.87,3.37-3.38c1.65,2.5,17.5,16.39,17.63,17.63Z" fill="none"/><path d="M83.76,314.49l-1,1.12h-.25c-2.12,2.08-2.28,2.68-4.25,0h-.25c-2.17-3.41-23.2-21.99-23.5-23.62-.16-.87,2.62-2.88,3.12-3.63l26.13,26.13Z" fill="none"/><path d="M68.01,315.61c-.03,3.39-4.54,3.28-4.75,0,.47-2.93,4.45-3.07,4.75,0Z" fill="none"/><polygon points="138.76 193.99 135.63 197.11 105.51 167.11 105.51 166.86 42.51 103.49 45.63 100.36 105.51 160.11 105.51 160.36 138.76 193.99" fill="none"/><path d="M112.11,230.76c1.5,1.49,2.65,2.72,2.65,2.98-.02.22-2.98,3.16-3.38,3.12l-5.87-5.75v-.25l-11.25-11.12,11.25-11.38,11.5,11.38-3.38,3.37-8.12-7.75c-.55.52-4.21,3.83-4.25,4.13-.12.78,3.53,3.96,4.25,4.62v.25c.3.31,1.16,1.14,2.24,2.17.24.23.49.47.75.72.13.12.26.25.4.38.27.25.54.51.81.78.27.26.55.53.82.79.41.4.81.79,1.2,1.18.13.12.26.25.38.38Z" fill="none"/><path d="M138.76,321.49c.16.86-2.62,2.87-3.13,3.62l-9.37-9.5h-.25l-20.5-20.5v-.25l-63-63.37,3.12-3.13,59.88,59.75v.25l27.25,27.25h.25c.51,1.05,5.65,5.36,5.75,5.88Z" fill="none"/><path d="M112.76,183.74l-3.38,3.12-3.87-3.75v-.25l-18.75-19.12c.04-.23,3.09-2.88,3.37-2.88,1.08.11,13.08,13.91,15.38,15.25v.25l7.25,7.38Z" fill="none"/><path d="M105.51,195.11v.25c-.45.11-1.71,1.75-1.88,1.75-.92,0-11.24-11.73-12.87-13.12l3.37-3.38,11.38,11.5v.25c1.62,1.02,1.57,1.76,0,2.75Z" fill="none"/><path d="M105.51,279.11v-.25c-1.25-1.32-11.17-10.47-11-11.37.05-.3,2.76-2.59,3.12-3.13l7.88,7.75v.25l3.5,3.38-3.5,3.37Z" fill="none"/><path d="M105.51,262.11c-2.99-.55-2.95-4.23,0-4.75,3.37.16,3.33,4.76,0,4.75Z" fill="none"/><path d="M105.51,96.36l9.25,9.63-3.38,2.87-5.87-5.75v-.25l-11.25-11.12,11.25-11.38,11.5,11.38-3.38,3.37-8.12-7.75c-.55.52-4.21,3.83-4.25,4.13-.12.78,3.53,3.96,4.25,4.62v.25Z" fill="none"/><polygon points="157.01 51.74 149.26 59.61 149.01 59.61 145.63 63.11 142.51 59.61 153.63 48.36 157.01 51.74" fill="none"/><path d="M105.51,151.11v-.25c-1.25-1.32-11.17-10.47-11-11.37.05-.3,2.76-2.59,3.12-3.13l7.88,7.75v.25l3.5,3.38-3.5,3.37Z" fill="none"/><path d="M105.51,67.11v.25c-.45.11-1.71,1.75-1.88,1.75-.67,0-8.11-8.53-9.37-9.5h-.25l-3.25-3.62,3.37-3.38,6.63,7h.25l4.5,4.5v.25c1.62,1.02,1.57,1.76,0,2.75Z" fill="none"/><path d="M105.51,23.11v-.25c-1.25-1.32-11.17-10.47-11-11.37.05-.3,2.76-2.59,3.12-3.13l7.88,7.75v.25l3.5,3.38-3.5,3.37Z" fill="none"/><path d="M105.51,6.11c-2.99-.55-2.95-4.23,0-4.75,3.37.16,3.33,4.76,0,4.75Z" fill="none"/><path d="M105.51,134.11c-2.99-.55-2.95-4.23,0-4.75,3.37.16,3.33,4.76,0,4.75Z" fill="none"/><path d="M58.38,22.11c-3.47.76-4.08-4.3-1.25-4.75,3.35-.53,3.75,4.21,1.25,4.75Z" fill="none"/><path d="M58.38,278.11c-3.47.76-4.08-4.3-1.25-4.75,3.35-.53,3.75,4.21,1.25,4.75Z" fill="none"/><path d="M82.76,297.49c.1.56-2.66,3.33-2.88,3.37-1.19.22-15.17-15.22-17.37-16.87l3.12-3.63c1.67,2.42,16.91,15.93,17.13,17.13Z" fill="none"/><path d="M10.38,358.11c-3.43.73-4.11-4.29-1.25-4.75,3.27-.52,3.78,4.21,1.25,4.75Z" fill="none"/><path d="M99.95,364.25h-4.54c-.28-1.22.25-2.63,1.72-2.89,2.13-.38,3.05,1.39,2.82,2.89Z" fill="none"/><path d="M54.38,258.11c-3.47.74-4.03-4.21-1.25-4.75,3.15-.61,3.85,4.2,1.25,4.75Z" fill="none"/><path d="M29.01,339.74c-.55.36-2.84,3.07-3.13,3.12-1.03.19-13.25-13.15-15.12-14.62l3.12-3.63,15.13,15.13Z" fill="none"/><path d="M34.38,334.11c-3.43.73-4.11-4.29-1.25-4.75,3.27-.52,3.78,4.21,1.25,4.75Z" fill="none"/><polygon points="5.52 364.25 0 364.25 0 362.25 1.63 360.36 5.52 364.25" fill="none"/><path d="M50.76,249.49c.1.56-2.66,3.33-2.88,3.37-1.19.22-15.17-15.22-17.37-16.87-.17-.98,2.53-2.86,3.12-3.63,1.67,2.42,16.91,15.93,17.13,17.13Z" fill="none"/><path d="M82.38,286.11c-3.39.72-4.15-4.23-1.25-4.75,3.38-.61,3.72,4.23,1.25,4.75Z" fill="none"/><path d="M76.76,275.49c.1.56-2.66,3.33-2.88,3.37-.77.14-11.23-10.1-11.37-10.87-.16-.87,2.62-2.88,3.12-3.63,1.11,1.59,10.98,10.35,11.13,11.13Z" fill="none"/><path d="M26.38,118.11c-3.47.76-4.08-4.3-1.25-4.75,3.35-.53,3.75,4.21,1.25,4.75Z" fill="none"/><path d="M81.01,351.74l-12.52,12.51h-5.68c-.21-.29-.34-.56-.3-.76.19-1.06,13.64-12.99,15.12-15.13l3.38,3.38Z" fill="none"/><path d="M19.95,364.25h-4.53c-.28-1.24.25-2.66,1.71-2.89,2.05-.33,3.01,1.42,2.82,2.89Z" fill="none"/><path d="M37.36,364.25h-6.71c-.08-.11-.13-.21-.14-.26-.17-.95,2.47-2.98,3.12-3.63.45.65,1.88,2.1,3.73,3.89Z" fill="none"/><path d="M37.01,123.74l-11.38,11.37c-.5-.75-3.28-2.76-3.12-3.62.14-.78,10.02-9.54,11.12-11.13l3.38,3.38Z" fill="none"/><polygon points="53.54 364.25 47.24 364.25 42.51 359.49 45.63 356.36 53.54 364.25" fill="none"/><path d="M34.38,206.11c-3.43.73-4.11-4.29-1.25-4.75,3.27-.52,3.78,4.21,1.25,4.75Z" fill="none"/><path d="M42.38,198.11c-3.43.73-4.11-4.29-1.25-4.75,3.27-.52,3.78,4.21,1.25,4.75Z" fill="none"/><path d="M51.51,186.24c-.59.31-3.15,3.09-3.38,3.12-1.23.15-15.22-15.76-17.62-17.37-.17-.98,2.4-3.01,3.12-3.63l17.88,17.88Z" fill="none"/><path d="M86.38,306.11c-3.31.7-4.17-4.18-1.25-4.75,3.2-.62,3.78,4.21,1.25,4.75Z" fill="none"/><path d="M90.38,70.11c-3.48.76-4.03-4.18-1.25-4.75,3.14-.65,3.82,4.19,1.25,4.75Z" fill="none"/><path d="M101.01,75.74l-11.63,11.12c-.48-.72-3.03-2.51-2.87-3.37.14-.78,10.02-9.54,11.12-11.13l3.38,3.38Z" fill="none"/><path d="M98.38,110.11c-3.39.72-4.15-4.23-1.25-4.75,3.38-.61,3.72,4.23,1.25,4.75Z" fill="none"/><path d="M82.38,126.11c-3.43.73-4.11-4.29-1.25-4.75,3.27-.52,3.78,4.21,1.25,4.75Z" fill="none"/><path d="M81.01,95.74l-15.38,15.37c-.5-.75-3.28-2.76-3.12-3.62.19-1.06,13.64-12.99,15.12-15.13l3.38,3.38Z" fill="none"/><path d="M56.63,69.86c-2.08-.91-1.51-4.18.5-4.5,4.11-.66,3.54,6.26-.5,4.5Z" fill="none"/><path d="M.38,301.61c-.14-.09-.27-.19-.38-.29v-3.31c.3-.33.69-.57,1.13-.65,4.31-.77,3.27,6.7-.75,4.25Z" fill="none"/><path d="M98.38,254.11c-3.44.73-4.09-4.24-1.25-4.75,3.2-.57,3.82,4.2,1.25,4.75Z" fill="none"/><path d="M51.76,266.49c-.54.34-3.15,3.09-3.38,3.12-.68.1-9.76-8.94-9.87-9.62-.17-.95,2.47-2.98,3.12-3.63l10.13,10.13Z" fill="none"/><path d="M98.38,238.11c-3.39.72-4.15-4.23-1.25-4.75,3.38-.61,3.72,4.23,1.25,4.75Z" fill="none"/><path d="M98.38,126.11c-3.43.73-4.11-4.29-1.25-4.75,3.27-.52,3.78,4.21,1.25,4.75Z" fill="none"/><path d="M26.38,246.11c-3.43.73-4.11-4.29-1.25-4.75,3.27-.52,3.78,4.21,1.25,4.75Z" fill="none"/><path d="M37.26,283.74l14,14.25-3.38,3.37-17.37-17.37,10.87-11.63,11.63,11.38-3.38,3.37s-.07-.06-.11-.1c-.12-.1-.28-.24-.46-.42-.01-.02-.03-.03-.05-.05-.07-.07-.14-.14-.22-.22-.09-.09-.19-.19-.3-.3-.06-.06-.13-.13-.19-.2-.1-.1-.2-.21-.31-.31-.17-.19-.36-.37-.55-.57-.2-.21-.42-.43-.63-.65-.12-.11-.23-.22-.34-.34-.43-.45-.89-.92-1.33-1.37-.12-.11-.23-.23-.34-.34-.57-.58-1.12-1.14-1.6-1.59-.16-.16-.32-.3-.46-.43-.56-.53-.98-.86-1.11-.86-.31.02-4.37,3.96-4.37,4.38Z" fill="none"/><path d="M37.01,251.74l-11.38,11.37c-.5-.75-3.28-2.76-3.12-3.62.14-.78,10.02-9.54,11.12-11.13l3.38,3.38Z" fill="none"/><path d="M42.38,326.11c-3.43.73-4.11-4.29-1.25-4.75,3.36-.54,3.74,4.22,1.25,4.75Z" fill="none"/><path d="M10.38,102.11c-3.43.73-4.11-4.29-1.25-4.75,3.27-.52,3.78,4.21,1.25,4.75Z" fill="none"/><path d="M69.01,91.74l-11.38,11.37c-.5-.75-3.28-2.76-3.12-3.62.14-.78,10.02-9.54,11.12-11.13l3.38,3.38Z" fill="none"/><path d="M37.01,267.74l-11.38,11.37c-.5-.75-3.28-2.76-3.12-3.62.14-.78,10.02-9.54,11.12-11.13l3.38,3.38Z" fill="none"/><path d="M50.38,78.11c-3.43.73-4.11-4.29-1.25-4.75,3.27-.52,3.78,4.21,1.25,4.75Z" fill="none"/><path d="M2.38,270.11c-1.07.23-1.87-.1-2.38-.68v-3.5c.28-.28.65-.49,1.13-.57,3.27-.52,3.78,4.21,1.25,4.75Z" fill="none"/><path d="M18.38,110.11c-3.43.73-4.11-4.29-1.25-4.75,3.27-.52,3.78,4.21,1.25,4.75Z" fill="none"/><path d="M29.01,179.74l-11.38,11.37c-.5-.75-3.28-2.76-3.12-3.62.14-.78,10.02-9.54,11.12-11.13l3.38,3.38Z" fill="none"/><path d="M76.76,147.49c.15.86-2.39,2.65-2.88,3.37-1.48-1.11-11.23-10.1-11.37-10.87-.16-.87,2.62-2.88,3.12-3.63,1.11,1.59,10.98,10.35,11.13,11.13Z" fill="none"/><path d="M50.76,121.49c.15.86-2.39,2.65-2.88,3.37-2.05-1.95-17.17-15.68-17.37-16.87-.17-.95,2.47-2.98,3.12-3.63,1.67,2.42,16.91,15.93,17.13,17.13Z" fill="none"/><path d="M29.01,83.74c-.55.36-2.84,3.07-3.13,3.12-1.03.19-13.25-13.15-15.12-14.62l3.12-3.63,15.13,15.13Z" fill="none"/><path d="M18.38,158.11c-3.43.73-4.11-4.29-1.25-4.75,3.27-.52,3.78,4.21,1.25,4.75Z" fill="none"/><path d="M82.38,158.11c-3.43.73-4.11-4.29-1.25-4.75,3.36-.54,3.74,4.22,1.25,4.75Z" fill="none"/><path d="M82.38,254.11c-3.39.72-4.15-4.23-1.25-4.75,3.38-.61,3.72,4.23,1.25,4.75Z" fill="none"/><path d="M101.01,203.74l-11.38,11.37c-.5-.75-3.28-2.76-3.12-3.62.14-.78,10.01-9.55,11.12-11.13l3.38,3.38Z" fill="none"/><path d="M90.38,198.11c-3.48.76-4.03-4.18-1.25-4.75,3.14-.65,3.82,4.19,1.25,4.75Z" fill="none"/><path d="M81.01,223.74l-15.38,15.37c-.5-.75-3.28-2.76-3.12-3.62.19-1.06,13.64-12.99,15.12-15.13l3.38,3.38Z" fill="none"/><path d="M86.38,178.11c-3.47.74-4.03-4.21-1.25-4.75,3.15-.61,3.85,4.2,1.25,4.75Z" fill="none"/><path d="M34.38,78.11c-3.43.73-4.11-4.29-1.25-4.75,3.27-.52,3.78,4.21,1.25,4.75Z" fill="none"/><path d="M124.76,339.49l-3.13,3.37c-1.64-1.86-14.69-13.6-14.87-14.62-.19-1.02,2.8-2.88,3.37-3.63l14.63,14.88Z" fill="none"/><path d="M118.38,322.11c-3.43.73-4.11-4.29-1.25-4.75,3.27-.52,3.78,4.21,1.25,4.75Z" fill="none"/><path d="M82.76,169.49c.15.86-2.39,2.65-2.88,3.37-2.06-1.94-17.16-15.68-17.37-16.87-.16-.87,2.62-2.88,3.12-3.63,1.67,2.42,16.91,15.93,17.13,17.13Z" fill="none"/><path d="M133.01,347.74c0,.8-10.28,9.79-11.38,11.37-.5-.75-3.28-2.76-3.12-3.62.14-.78,10.02-9.54,11.12-11.13.36.54,3.38,3.14,3.38,3.38Z" fill="none"/><path d="M42.38,70.11c-3.43.73-4.11-4.29-1.25-4.75,3.36-.54,3.74,4.22,1.25,4.75Z" fill="none"/><path d="M165.36,364.25h-6.53c-.13-.1-.24-.2-.32-.26-.17-.98,2.53-2.86,3.12-3.63.45.65,1.88,2.1,3.73,3.89Z" fill="none"/><path d="M54.38,130.11c-3.5.74-4.13-4.39-1-4.75,3.02-.35,3.47,4.23,1,4.75Z" fill="none"/><path d="M58.38,150.11c-3.43.73-4.11-4.29-1.25-4.75,3.36-.54,3.74,4.22,1.25,4.75Z" fill="none"/><path d="M5.01,347.74l-5.01,5v-6.62c.8-.8,1.4-1.43,1.63-1.76l3.38,3.38Z" fill="none"/><path d="M18.38,238.11c-3.43.73-4.11-4.29-1.25-4.75,3.27-.52,3.78,4.21,1.25,4.75Z" fill="none"/><path d="M10.38,134.11c-3.43.73-4.11-4.29-1.25-4.75,3.27-.52,3.78,4.21,1.25,4.75Z" fill="none"/><path d="M18.38,286.11c-3.43.73-4.11-4.29-1.25-4.75,3.27-.52,3.78,4.21,1.25,4.75Z" fill="none"/><path d="M29.01,211.74c-.55.36-2.84,3.07-3.13,3.12-1.03.19-13.25-13.15-15.12-14.62l3.12-3.63,15.13,15.13Z" fill="none"/><path d="M10.38,230.11c-3.43.73-4.11-4.29-1.25-4.75,3.27-.52,3.78,4.21,1.25,4.75Z" fill="none"/><path d="M156.76,339.49c.1.56-2.66,3.33-2.88,3.37-1.05.19-13.46-13.38-15.37-14.87l3.37-3.38c1.5,2.09,14.69,13.84,14.88,14.88Z" fill="none"/><path d="M10.76,321.49c.16.86-2.62,2.87-3.13,3.62l-7.63-7.73v-6.53l4.76,4.76h.25c.51,1.05,5.65,5.36,5.75,5.88Z" fill="none"/><path d="M21.01,347.74c.04.38-3.14,3.37-3.38,3.37-1.18,0-11.1-11.12-17.63-17.91v-6.82c5.28,4.83,18.34,19.66,21.01,21.36Z" fill="none"/><path d="M162.38,334.11c-3.43.73-4.11-4.29-1.25-4.75,3.27-.52,3.78,4.21,1.25,4.75Z" fill="none"/><path d="M10.38,262.11c-3.43.73-4.11-4.29-1.25-4.75,3.36-.54,3.74,4.22,1.25,4.75Z" fill="none"/><path d="M69.01,219.74l-11.38,11.37c-.5-.75-3.28-2.76-3.12-3.62.14-.78,10.02-9.54,11.12-11.13l3.38,3.38Z" fill="none"/><path d="M58.38,198.11c-3.43.73-4.11-4.29-1.25-4.75,3.27-.52,3.78,4.21,1.25,4.75Z" fill="none"/><path d="M83.76,186.49c-.5.37-3.15,3.1-3.38,3.12-1.81.19-22.29-23.31-25.87-25.62l3.12-3.63,25.63,25.38.5.75Z" fill="none"/><path d="M51.51,138.74c-.05.2-2.92,2.84-3.13,2.87-.68.1-9.75-8.95-9.87-9.62-.18-.98,2.61-2.62,2.87-3.63,1.4,1.39,10.35,9.24,10.13,10.38Z" fill="none"/><path d="M37.01,139.74l-11.38,11.37c-.5-.75-3.28-2.76-3.12-3.62.14-.78,10.02-9.54,11.12-11.13l3.38,3.38Z" fill="none"/><path d="M66.38,190.11c-3.43.73-4.11-4.29-1.25-4.75,3.36-.54,3.74,4.22,1.25,4.75Z" fill="none"/><path d="M51.26,169.99l-3.38,3.37-17.37-17.37,10.87-11.63,11.63,11.38-3.38,3.37-7.75-7.75c-.52-.05-4.62,3.89-4.62,4.38,0,.99,12.6,12.36,14,14.25Z" fill="none"/><path d="M50.38,206.11c-3.43.73-4.11-4.29-1.25-4.75,3.27-.52,3.78,4.21,1.25,4.75Z" fill="none"/><path d="M138.38,358.11c-3.43.73-4.11-4.29-1.25-4.75,3.27-.52,3.78,4.21,1.25,4.75Z" fill="none"/><path d="M149.01,347.74l-3.38,3.37c-2.21-3.21-22.58-21.28-22.87-22.87-.19-1.02,2.58-2.63,3.12-3.38l23.13,22.88Z" fill="none"/><path d="M130.38,142.11c-3.43.73-4.11-4.29-1.25-4.75,3.27-.52,3.78,4.21,1.25,4.75Z" fill="none"/><path d="M118.38,242.11c-3.47.74-4.03-4.21-1.25-4.75,3.15-.61,3.85,4.2,1.25,4.75Z" fill="none"/><path d="M138.76,65.49c.16.86-2.62,2.87-3.13,3.62l-9.37-9.5h-.25l-20.5-20.5v-.25L66.88,0h6.45l32.18,32.11v.25l27.25,27.25h.25c.51,1.05,5.65,5.36,5.75,5.88Z" fill="none"/><path d="M157.01,211.74l-3.38,3.37c-1.46-2.11-14.68-13.84-14.87-14.87-.16-.87,2.62-2.88,3.12-3.63l15.13,15.13Z" fill="none"/><path d="M32.74,0l-7.11,7.11c-.5-.75-3.28-2.76-3.12-3.62.05-.3,1.5-1.73,3.33-3.49h6.9Z" fill="none"/><path d="M55.96,0c-.03.97-.53,1.89-1.58,2.11-1.83.39-2.85-.81-2.99-2.11h4.57Z" fill="none"/><path d="M138.38,134.11c-3.43.73-4.11-4.29-1.25-4.75,3.36-.54,3.74,4.22,1.25,4.75Z" fill="none"/><path d="M122.38,22.11c-3.43.73-4.11-4.29-1.25-4.75,3.27-.52,3.78,4.21,1.25,4.75Z" fill="none"/><path d="M122.38,38.11c-3.47.76-4.08-4.3-1.25-4.75,3.26-.52,3.79,4.2,1.25,4.75Z" fill="none"/><path d="M133.52,364.25h-6.7c-.12-.1-.23-.2-.31-.26l3.12-3.63,3.89,3.89Z" fill="none"/><path d="M.38,45.61c-.14-.09-.27-.19-.38-.29v-3.31c.3-.33.69-.57,1.13-.65,4.31-.77,3.27,6.7-.75,4.25Z" fill="none"/><path d="M37.26,27.74l14,14.25-3.38,3.37-17.37-17.37,10.87-11.63,11.63,11.38-3.38,3.37c-.33-.26-1.17-1.12-2.19-2.17-.31-.32-.64-.65-.97-.99-.43-.45-.89-.92-1.33-1.37-.12-.11-.23-.23-.34-.34-1.53-1.56-2.9-2.88-3.17-2.88-.31.02-4.37,3.96-4.37,4.38Z" fill="none"/><path d="M128.38,45.61c-1.92-1.16-.98-3.94.75-4.25,4.3-.77,3.34,6.74-.75,4.25Z" fill="none"/><path d="M37.01,11.74l-11.38,11.37c-.5-.75-3.28-2.76-3.12-3.62.14-.78,10.02-9.54,11.12-11.13l3.38,3.38Z" fill="none"/><path d="M82.76,41.49c.1.56-2.66,3.33-2.88,3.37-1.19.22-15.17-15.22-17.37-16.87l3.12-3.63c1.67,2.42,16.91,15.93,17.13,17.13Z" fill="none"/><path d="M51.76,10.49c-.54.34-3.15,3.09-3.38,3.12-.68.1-9.76-8.94-9.87-9.62-.17-.95,2.47-2.98,3.12-3.63l10.13,10.13Z" fill="none"/><path d="M86.38,50.11c-3.31.7-4.17-4.18-1.25-4.75,3.2-.62,3.78,4.21,1.25,4.75Z" fill="none"/><path d="M82.38,30.11c-3.39.72-4.15-4.23-1.25-4.75,3.38-.61,3.72,4.23,1.25,4.75Z" fill="none"/><path d="M76.76,19.49c.1.56-2.66,3.33-2.88,3.37-.77.14-11.23-10.1-11.37-10.87-.16-.87,2.62-2.88,3.12-3.63,1.11,1.59,10.98,10.35,11.13,11.13Z" fill="none"/><polygon points="171.78 358.51 171.78 361.26 170.51 359.99 171.78 358.51" fill="none"/><path d="M18.38,30.11c-3.43.73-4.11-4.29-1.25-4.75,3.27-.52,3.78,4.21,1.25,4.75Z" fill="none"/><path d="M118.38,194.11c-3.45.73-4.22-4.46-1-4.75,3.1-.28,3.42,4.24,1,4.75Z" fill="none"/><path d="M124.76,211.49c.13.75-2.87,3.43-3.38,3.37-1.03-.12-12.54-13.23-14.62-14.62-.1-.53,2.66-3.3,2.87-3.38.99-.35,13.21,13.19,15.13,14.63Z" fill="none"/><path d="M156.76,83.49c.1.56-2.66,3.33-2.88,3.37-1.05.19-13.46-13.38-15.37-14.87l3.37-3.38c1.5,2.09,14.69,13.84,14.88,14.88Z" fill="none"/><path d="M133.01,219.74c0,.8-10.3,9.76-11.38,11.37-.5-.75-3.28-2.76-3.12-3.62.14-.78,10.02-9.54,11.12-11.13.36.54,3.38,3.14,3.38,3.38Z" fill="none"/><path d="M154.38,118.11c-3.43.73-4.11-4.29-1.25-4.75,3.27-.52,3.78,4.21,1.25,4.75Z" fill="none"/><path d="M122.38,278.11c-3.43.73-4.11-4.29-1.25-4.75,3.27-.52,3.78,4.21,1.25,4.75Z" fill="none"/><path d="M154.38,246.11c-3.43.73-4.11-4.29-1.25-4.75,3.36-.54,3.74,4.22,1.25,4.75Z" fill="none"/><path d="M165.01,123.74l-11.38,11.37c-.5-.75-3.28-2.76-3.12-3.62.14-.78,10.02-9.54,11.12-11.13l3.38,3.38Z" fill="none"/><path d="M130.38,14.11c-3.43.73-4.11-4.29-1.25-4.75,3.27-.52,3.78,4.21,1.25,4.75Z" fill="none"/><path d="M165.01,139.74l-11.38,11.37c-.5-.75-3.28-2.76-3.12-3.62.14-.78,10.02-9.54,11.12-11.13l3.38,3.38Z" fill="none"/><path d="M147.95,364.25h-4.53c-.28-1.24.25-2.66,1.71-2.89,2.05-.33,3.01,1.42,2.82,2.89Z" fill="none"/><path d="M165.01,251.74l-11.38,11.37c-.5-.75-3.28-2.76-3.12-3.62.14-.78,10.02-9.54,11.12-11.13l3.38,3.38Z" fill="none"/><path d="M146.38,30.11c-3.43.73-4.11-4.29-1.25-4.75,3.27-.52,3.78,4.21,1.25,4.75Z" fill="none"/><path d="M171.78,50.37v6.7c-4.4-4.43-13.52-12.45-13.52-13.33,0-.24,3.01-2.84,3.37-3.38.88,1.33,5.75,5.86,10.15,10.01Z" fill="none"/><path d="M138.38,6.11c-3.39.72-4.15-4.23-1.25-4.75,3.38-.61,3.72,4.23,1.25,4.75Z" fill="none"/><path d="M165.26,27.74l6.52,6.64v7.23c-4.6-4.78-11.57-12.57-13.27-13.62l10.87-11.63,2.4,2.35v6.51c-1.08-1.07-1.94-1.86-2.15-1.86-.31.02-4.37,3.96-4.37,4.38Z" fill="none"/><path d="M171.78,2.7v6.92c-2.55-2.48-5.21-5.27-5.27-5.63-.17-.93,2.42-2.86,2.87-3.63l2.4,2.34Z" fill="none"/><path d="M165.01,11.74l-11.38,11.37c-.5-.75-3.28-2.76-3.12-3.62.14-.78,10.02-9.54,11.12-11.13l3.38,3.38Z" fill="none"/><path d="M160.74,0l-7.11,7.11c-.5-.75-3.28-2.76-3.12-3.62.05-.3,1.5-1.73,3.33-3.49h6.9Z" fill="none"/><path d="M2.38,14.11c-1.07.23-1.87-.1-2.38-.68v-3.5c.28-.28.65-.49,1.13-.57,3.27-.52,3.78,4.21,1.25,4.75Z" fill="none"/><path d="M90.38,326.11c-3.48.76-4.03-4.18-1.25-4.75,3.14-.65,3.82,4.19,1.25,4.75Z" fill="none"/><path d="M165.01,267.74l-11.38,11.37c-.5-.75-3.28-2.76-3.12-3.62.14-.78,10.02-9.54,11.12-11.13l3.38,3.38Z" fill="none"/><path d="M138.38,262.11c-3.39.72-4.15-4.23-1.25-4.75,3.38-.61,3.72,4.23,1.25,4.75Z" fill="none"/><path d="M5.01,219.74l-5.01,5v-6.62c.8-.8,1.4-1.43,1.63-1.76l3.38,3.38Z" fill="none"/><path d="M21.01,219.74c.04.41-3.14,3.37-3.38,3.37-1.18,0-11.1-11.12-17.63-17.91v-6.82c5.28,4.83,18.33,19.66,21.01,21.36Z" fill="none"/><path d="M2.38,142.11c-1.07.23-1.87-.1-2.38-.68v-3.5c.28-.28.65-.49,1.13-.57,3.27-.52,3.78,4.21,1.25,4.75Z" fill="none"/><path d="M2.38,174.11c-1.07.23-1.87-.1-2.38-.68v-3.5c.28-.28.65-.49,1.13-.57,3.27-.52,3.78,4.21,1.25,4.75Z" fill="none"/><path d="M101.01,331.74l-11.63,11.12c-.48-.72-3.03-2.51-2.87-3.37.14-.78,10.02-9.54,11.12-11.13l3.38,3.38Z" fill="none"/><path d="M130.38,270.11c-3.43.73-4.11-4.29-1.25-4.75,3.27-.52,3.78,4.21,1.25,4.75Z" fill="none"/><polygon points="10.76 193.49 7.63 197.11 0 189.48 0 182.73 10.76 193.49" fill="none"/><path d="M50.38,334.11c-3.43.73-4.11-4.29-1.25-4.75,3.27-.52,3.78,4.21,1.25,4.75Z" fill="none"/><path d="M69.01,347.74l-11.38,11.37c-.5-.75-3.28-2.76-3.12-3.62.14-.78,10.02-9.54,11.12-11.13l3.38,3.38Z" fill="none"/><path d="M56.63,325.86c-2.08-.91-1.51-4.18.5-4.5,4.11-.66,3.54,6.26-.5,4.5Z" fill="none"/><path d="M21.01,251.74c0,.07-.16.3-.41.59-.12.15-.27.31-.43.49h0c-.16.18-.33.37-.5.55-.69.73-1.41,1.44-1.54,1.49-1.11.43-13.44-12.89-18.13-17.5v-3.11l1.63-1.89,19.38,19.38Z" fill="none"/><path d="M146.38,286.11c-3.43.73-4.11-4.29-1.25-4.75,3.27-.52,3.78,4.21,1.25,4.75Z" fill="none"/><path d="M149.01,251.74c0,.07-.16.3-.41.59-.12.15-.27.31-.43.49h0c-.16.18-.33.37-.5.55-.69.73-1.41,1.44-1.54,1.49-1.27.49-17.22-17.01-19.62-18.87l3.12-3.63,19.38,19.38Z" fill="none"/><path d="M138.38,230.11c-3.43.73-4.11-4.29-1.25-4.75,3.27-.52,3.78,4.21,1.25,4.75Z" fill="none"/><path d="M149.01,219.74c.04.38-3.14,3.37-3.38,3.37-1.62,0-19.62-20.86-22.87-22.87l3.12-3.38,23.13,22.88Z" fill="none"/><path d="M146.38,238.11c-3.47.76-4.08-4.3-1.25-4.75,3.26-.52,3.79,4.2,1.25,4.75Z" fill="none"/><path d="M122.38,294.11c-3.47.76-4.08-4.3-1.25-4.75,3.26-.52,3.79,4.2,1.25,4.75Z" fill="none"/><path d="M21.01,123.74c0,.07-.16.3-.41.59-.12.15-.27.31-.43.49h0c-.16.18-.33.37-.5.55-.69.73-1.41,1.44-1.54,1.49-1.11.43-13.44-12.89-18.13-17.5v-3.11l1.63-1.89,19.38,19.38Z" fill="none"/><path d="M128.38,301.61c-1.92-1.16-.98-3.94.75-4.25,4.3-.77,3.34,6.74-.75,4.25Z" fill="none"/><path d="M5.01,91.74l-5.01,5v-6.62c.8-.8,1.4-1.43,1.63-1.76l3.38,3.38Z" fill="none"/><path d="M10.38,6.11c-3.43.73-4.11-4.29-1.25-4.75,3.36-.54,3.74,4.22,1.25,4.75Z" fill="none"/><path d="M10.76,65.49c.16.86-2.62,2.87-3.13,3.62l-7.63-7.73v-6.53l4.76,4.76h.25c.51,1.05,5.65,5.36,5.75,5.88Z" fill="none"/><path d="M105.51,352.36l9.25,9.63-2.66,2.26h-1.34l-5.25-5.14v-.25l-11.25-11.12,11.25-11.38,11.5,11.38-3.38,3.37-8.12-7.75c-.55.52-4.21,3.83-4.25,4.13-.12.78,3.53,3.96,4.25,4.62v.25Z" fill="none"/><path d="M21.01,91.74c.04.38-3.14,3.37-3.38,3.37-1.18,0-11.1-11.12-17.63-17.91v-6.82c5.28,4.83,18.34,19.66,21.01,21.36Z" fill="none"/><path d="M165.26,27.74l6.52,6.64v-9.16c-1.09-1.08-1.95-1.87-2.15-1.86-.31.02-4.38,3.96-4.38,4.38Z" fill="#00aeef"/><path d="M165.26,155.74l6.52,6.64v-9.16c-1.09-1.08-1.95-1.87-2.15-1.86-.31.02-4.38,3.96-4.38,4.38Z" fill="#00aeef"/><path d="M165.26,283.74l6.52,6.64v-9.16c-1.09-1.08-1.95-1.87-2.15-1.86-.31.02-4.38,3.96-4.38,4.38Z" fill="#00aeef"/><path d="M169.38.36l2.4,2.34V0h-11.04l-7.11,7.11c-.5-.75-3.28-2.76-3.12-3.62.05-.3,1.5-1.73,3.33-3.49h-80.51l32.18,32.11v.25l27.25,27.25h.25c.51,1.05,5.65,5.36,5.75,5.88.16.86-2.62,2.87-3.13,3.62l-9.37-9.5h-.25l-20.5-20.5v-.25L66.88,0h-10.92c-.03.97-.53,1.89-1.58,2.11-1.83.39-2.85-.81-2.99-2.11h-18.65l-7.11,7.11c-.5-.75-3.28-2.76-3.12-3.62.05-.3,1.5-1.73,3.33-3.49H0v9.93c.28-.28.65-.49,1.13-.57,3.27-.52,3.78,4.21,1.25,4.75-1.07.23-1.87-.1-2.38-.68v28.58c.3-.33.69-.57,1.13-.65,4.31-.77,3.27,6.7-.75,4.25-.14-.09-.27-.19-.38-.29v9.53l4.76,4.76h.25c.51,1.05,5.65,5.36,5.75,5.88.16.86-2.62,2.87-3.13,3.62l-7.63-7.73v9c5.28,4.83,18.34,19.66,21.01,21.36.04.38-3.14,3.37-3.38,3.37-1.18,0-11.1-11.12-17.63-17.91v12.92c.8-.8,1.4-1.43,1.63-1.76l3.38,3.38-5.01,5v9.51l1.63-1.89,19.38,19.38c0,.07-.16.3-.41.59-.12.15-.27.31-.43.49h0c-.16.18-.33.37-.5.55-.69.73-1.41,1.44-1.54,1.49-1.11.43-13.44-12.89-18.13-17.5v28.57c.28-.28.65-.49,1.13-.57,3.27-.52,3.78,4.21,1.25,4.75-1.07.23-1.87-.1-2.38-.68v28.5c.28-.28.65-.49,1.13-.57,3.27-.52,3.78,4.21,1.25,4.75-1.07.23-1.87-.1-2.38-.68v9.3l10.76,10.76-3.13,3.62-7.63-7.63v8.9c5.28,4.83,18.33,19.66,21.01,21.36.04.41-3.14,3.37-3.38,3.37-1.18,0-11.1-11.12-17.63-17.91v12.92c.8-.8,1.4-1.43,1.63-1.76l3.38,3.38-5.01,5v9.51l1.63-1.89,19.38,19.38c0,.07-.16.3-.41.59-.12.15-.27.31-.43.49h0c-.16.18-.33.37-.5.55-.69.73-1.41,1.44-1.54,1.49-1.11.43-13.44-12.89-18.13-17.5v28.57c.28-.28.65-.49,1.13-.57,3.27-.52,3.78,4.21,1.25,4.75-1.07.23-1.87-.1-2.38-.68v28.58c.3-.33.69-.57,1.13-.65,4.31-.77,3.27,6.7-.75,4.25-.14-.09-.27-.19-.38-.29v9.53l4.76,4.76h.25c.51,1.05,5.65,5.36,5.75,5.88.16.86-2.62,2.87-3.13,3.62l-7.63-7.73v9c5.28,4.83,18.34,19.66,21.01,21.36.04.38-3.14,3.37-3.38,3.37-1.18,0-11.1-11.12-17.63-17.91v12.92c.8-.8,1.4-1.43,1.63-1.76l3.38,3.38-5.01,5v9.51l1.63-1.89,3.89,3.89h9.9c-.28-1.24.25-2.66,1.71-2.89,2.05-.33,3.01,1.42,2.82,2.89h10.7c-.08-.11-.13-.21-.14-.26-.17-.95,2.47-2.98,3.12-3.63.45.65,1.88,2.1,3.73,3.89h9.88l-4.73-4.76,3.12-3.13,7.91,7.89h9.27c-.21-.29-.34-.56-.3-.76.19-1.06,13.64-12.99,15.12-15.13l3.38,3.38-12.52,12.51h26.92c-.28-1.22.25-2.63,1.72-2.89,2.13-.38,3.05,1.39,2.82,2.89h10.81l-5.25-5.14v-.25l-11.25-11.12,11.25-11.38v-13c-.45.11-1.71,1.75-1.88,1.75-.67,0-8.11-8.53-9.37-9.5h-.25l-3.25-3.62,3.37-3.38,6.63,7h4.75v-4.75l-18.75-19.12c.47-.49,2.92-2.93,3.37-2.88,1.08.11,13.08,13.91,15.38,15.25v-9.25l-63-63.37,3.12-3.13,59.88,59.75v.25l27.25,27.25h9.75l11.12-11.25,3.38,3.38-7.75,7.87h22.52v-2.54c-4.4-4.43-13.52-12.45-13.52-13.33,0-.24,3.01-2.84,3.37-3.38.88,1.33,5.75,5.86,10.15,10.01v-8.76c-4.6-4.78-11.57-12.57-13.27-13.62l10.87-11.63,2.4,2.35v-9.09c-2.55-2.48-5.21-5.27-5.27-5.63-.17-.93,2.42-2.86,2.87-3.63l2.4,2.34v-9.31c-4.67-4.6-11.76-12.26-13.27-13.4-.17-.98,2.53-2.86,3.12-3.63.91,1.31,5.82,5.9,10.15,10.01v-9.11l-1.27-1.27,1.27-1.48v-33.62c-.25.6-.71,1.07-1.4,1.22-3.43.73-4.11-4.29-1.25-4.75,1.4-.22,2.28.48,2.65,1.41v-9.7l-13.27-13.08,2.87-3.63,10.4,10.25v-9.35l-13.27-13.27,10.87-11.63,2.4,2.35v-9.09c-2.55-2.48-5.21-5.27-5.27-5.63-.14-.77,2.31-3.02,2.87-3.63.32.34,1.24,1.19,2.4,2.26v-9.23c-4.67-4.6-11.76-12.26-13.27-13.4-.17-.98,2.53-2.86,3.12-3.63.91,1.31,5.82,5.9,10.15,10.01v-9.11l-1.27-1.27,1.27-1.48v-33.8c-.41,1.1-1.48,1.88-3.15,1.15-2.04-.89-1.56-4.13.5-4.5,1.45-.26,2.3.42,2.65,1.34v-9.63c-4.4-4.43-13.52-12.45-13.52-13.33,0-.24,3.01-2.84,3.37-3.38.88,1.33,5.75,5.86,10.15,10.01v-8.76c-4.6-4.78-11.57-12.57-13.27-13.62l10.87-11.63,2.4,2.35v-9.09c-2.55-2.48-5.21-5.27-5.27-5.63-.17-.93,2.42-2.86,2.87-3.63ZM121.13,17.36c3.27-.52,3.78,4.21,1.25,4.75-3.43.73-4.11-4.29-1.25-4.75ZM105.51,1.36c3.37.16,3.33,4.76,0,4.75-2.99-.55-2.95-4.23,0-4.75ZM105.51,23.11v-.25c-1.25-1.32-11.17-10.47-11-11.37.05-.3,2.76-2.59,3.12-3.13l7.88,7.75v.25l3.5,3.38-3.5,3.37ZM122.38,38.11c-3.47.76-4.08-4.3-1.25-4.75,3.26-.52,3.79,4.2,1.25,4.75ZM128.38,45.61c-1.92-1.16-.98-3.94.75-4.25,4.3-.77,3.34,6.74-.75,4.25ZM130.38,14.11c-3.43.73-4.11-4.29-1.25-4.75,3.27-.52,3.78,4.21,1.25,4.75ZM10.38,102.11c-3.43.73-4.11-4.29-1.25-4.75,3.27-.52,3.78,4.21,1.25,4.75ZM18.38,110.11c-3.43.73-4.11-4.29-1.25-4.75,3.27-.52,3.78,4.21,1.25,4.75ZM10.38,230.11c-3.43.73-4.11-4.29-1.25-4.75,3.27-.52,3.78,4.21,1.25,4.75ZM18.38,238.11c-3.43.73-4.11-4.29-1.25-4.75,3.27-.52,3.78,4.21,1.25,4.75ZM10.38,358.11c-3.43.73-4.11-4.29-1.25-4.75,3.27-.52,3.78,4.21,1.25,4.75ZM161.13,201.36c3.27-.52,3.78,4.21,1.25,4.75-3.43.73-4.11-4.29-1.25-4.75ZM161.13,73.36c3.27-.52,3.78,4.21,1.25,4.75-3.43.73-4.11-4.29-1.25-4.75ZM145.13,25.36c3.27-.52,3.78,4.21,1.25,4.75-3.43.73-4.11-4.29-1.25-4.75ZM153.63,48.36l3.38,3.38-7.75,7.87h-.25l-3.38,3.5-3.12-3.5,11.12-11.25ZM138.38,6.11c-3.39.72-4.15-4.23-1.25-4.75,3.38-.61,3.72,4.23,1.25,4.75ZM141.88,68.61c1.5,2.09,14.69,13.84,14.88,14.88.1.56-2.66,3.33-2.88,3.37-1.05.19-13.46-13.38-15.37-14.87l3.37-3.38ZM154.38,118.11c-3.43.73-4.11-4.29-1.25-4.75,3.27-.52,3.78,4.21,1.25,4.75ZM153.63,215.11c-1.46-2.11-14.68-13.84-14.87-14.87-.16-.87,2.62-2.88,3.12-3.63l15.13,15.13-3.38,3.37ZM154.38,246.11c-3.43.73-4.11-4.29-1.25-4.75,3.36-.54,3.74,4.22,1.25,4.75ZM130.38,142.11c-3.43.73-4.11-4.29-1.25-4.75,3.27-.52,3.78,4.21,1.25,4.75ZM130.38,174.11c-3.44.73-4.09-4.24-1.25-4.75,3.2-.57,3.82,4.2,1.25,4.75ZM126.51,107.99l3.12-3.63,19.38,19.38c0,.07-.16.3-.41.59-.12.15-.27.31-.43.49h0c-.16.18-.33.37-.5.55-.69.73-1.41,1.44-1.54,1.49-1.27.49-17.22-17.01-19.62-18.87ZM105.51,96.11v.25l9.25,9.63-3.38,2.87-5.87-5.75v-.25l-11.25-11.12,11.25-11.38,11.5,11.38-3.38,3.37-8.12-7.75c-.55.52-4.21,3.83-4.25,4.13-.12.78,3.53,3.96,4.25,4.62ZM94.51,139.49c.05-.3,2.76-2.59,3.12-3.13l7.88,7.75v.25l3.5,3.38-3.5,3.37v-.25c-1.25-1.32-11.17-10.47-11-11.37ZM98.38,110.11c-3.39.72-4.15-4.23-1.25-4.75,3.38-.61,3.72,4.23,1.25,4.75ZM98.38,126.11c-3.43.73-4.11-4.29-1.25-4.75,3.27-.52,3.78,4.21,1.25,4.75ZM105.51,129.36c3.37.16,3.33,4.76,0,4.75-2.99-.55-2.95-4.23,0-4.75ZM105.51,67.11v.25c-.45.11-1.71,1.75-1.88,1.75-.67,0-8.11-8.53-9.37-9.5h-.25l-3.25-3.62,3.37-3.38,6.63,7h.25l4.5,4.5v.25c1.62,1.02,1.57,1.76,0,2.75ZM90.38,70.11c-3.48.76-4.03-4.18-1.25-4.75,3.14-.65,3.82,4.19,1.25,4.75ZM97.63,72.36l3.38,3.38-11.63,11.12c-.48-.72-3.03-2.51-2.87-3.37.14-.78,10.02-9.54,11.12-11.13ZM106.76,72.24c-.19-1.02,2.8-2.88,3.37-3.63l14.63,14.88-3.13,3.37c-1.64-1.86-14.69-13.6-14.87-14.62ZM117.13,109.36c3.15-.61,3.85,4.2,1.25,4.75-3.47.74-4.03-4.21-1.25-4.75ZM122.38,150.11c-3.43.73-4.11-4.29-1.25-4.75,3.27-.52,3.78,4.21,1.25,4.75ZM122.38,166.11c-3.43.73-4.11-4.29-1.25-4.75,3.27-.52,3.78,4.21,1.25,4.75ZM121.63,103.11c-.5-.75-3.28-2.76-3.12-3.62.14-.78,10.02-9.54,11.12-11.13.36.54,3.38,3.14,3.38,3.38,0,.8-10.28,9.79-11.38,11.37ZM137.13,97.36c3.27-.52,3.78,4.21,1.25,4.75-3.43.73-4.11-4.29-1.25-4.75ZM145.13,105.36c3.27-.52,3.78,4.21,1.25,4.75-3.43.73-4.11-4.29-1.25-4.75ZM146.38,158.11c-3.43.73-4.11-4.29-1.25-4.75,3.27-.52,3.78,4.21,1.25,4.75ZM137.13,129.36c3.36-.54,3.74,4.22,1.25,4.75-3.43.73-4.11-4.29-1.25-4.75ZM145.63,191.11c-.5-.75-3.28-2.76-3.12-3.62.14-.78,10.02-9.54,11.12-11.13l3.38,3.38-11.38,11.37ZM125.88,68.86l23.13,22.88-3.38,3.37c-2.21-3.21-22.58-21.28-22.87-22.87-.19-1.02,2.58-2.63,3.12-3.38ZM117.13,61.36c3.27-.52,3.78,4.21,1.25,4.75-3.43.73-4.11-4.29-1.25-4.75ZM90.13,32.86c1.08.11,13.08,13.91,15.38,15.25v.25l7.25,7.38-3.38,3.12-3.87-3.75v-.25l-18.75-19.12c.47-.49,2.92-2.93,3.37-2.88ZM86.38,50.11c-3.31.7-4.17-4.18-1.25-4.75,3.2-.62,3.78,4.21,1.25,4.75ZM81.13,121.36c3.27-.52,3.78,4.21,1.25,4.75-3.43.73-4.11-4.29-1.25-4.75ZM65.63,111.11c-.5-.75-3.28-2.76-3.12-3.62.19-1.06,13.64-12.99,15.12-15.13l3.38,3.38-15.38,15.37ZM81.13,25.36c3.38-.61,3.72,4.23,1.25,4.75-3.39.72-4.15-4.23-1.25-4.75ZM65.63,8.36c1.11,1.59,10.98,10.35,11.13,11.13.1.56-2.66,3.33-2.88,3.37-.77.14-11.23-10.1-11.37-10.87-.16-.87,2.62-2.88,3.12-3.63ZM65.63,24.36c1.67,2.42,16.91,15.93,17.13,17.13.1.56-2.66,3.33-2.88,3.37-1.19.22-15.17-15.22-17.37-16.87l3.12-3.63ZM57.13,17.36c3.35-.53,3.75,4.21,1.25,4.75-3.47.76-4.08-4.3-1.25-4.75ZM57.63,32.36l26.13,26.13-1,1.12h-.25c-2.12,2.08-2.28,2.68-4.25,0h-.25c-2.17-3.41-23.2-21.99-23.5-23.62-.16-.87,2.62-2.88,3.12-3.63ZM68.01,59.61c-.03,3.39-4.54,3.28-4.75,0,.47-2.93,4.45-3.07,4.75,0ZM56.63,69.86c-2.08-.91-1.51-4.18.5-4.5,4.11-.66,3.54,6.26-.5,4.5ZM65.63,88.36l3.38,3.38-11.38,11.37c-.5-.75-3.28-2.76-3.12-3.62.14-.78,10.02-9.54,11.12-11.13ZM105.51,160.11v.25l33.25,33.63-3.13,3.12-30.12-30v-.25l-63-63.37,3.12-3.13,59.88,59.75ZM121.63,231.11c-.5-.75-3.28-2.76-3.12-3.62.14-.78,10.02-9.54,11.12-11.13.36.54,3.38,3.14,3.38,3.38,0,.8-10.3,9.76-11.38,11.37ZM122.38,278.11c-3.43.73-4.11-4.29-1.25-4.75,3.27-.52,3.78,4.21,1.25,4.75ZM121.38,214.86c-1.03-.12-12.54-13.23-14.62-14.62-.1-.53,2.66-3.3,2.87-3.38.99-.35,13.21,13.19,15.13,14.63.13.75-2.87,3.43-3.38,3.37ZM90.76,183.99l3.37-3.38,11.38,11.5v.25c1.62,1.02,1.57,1.76,0,2.75v.25c-.45.11-1.71,1.75-1.88,1.75-.92,0-11.24-11.73-12.87-13.12ZM90.38,198.11c-3.48.76-4.03-4.18-1.25-4.75,3.14-.65,3.82,4.19,1.25,4.75ZM105.51,183.11v-.25l-18.75-19.12c.04-.23,3.09-2.88,3.37-2.88,1.08.11,13.08,13.91,15.38,15.25v.25l7.25,7.38-3.38,3.12-3.87-3.75ZM118.38,194.11c-3.45.73-4.22-4.46-1-4.75,3.1-.28,3.42,4.24,1,4.75ZM54.51,163.99l3.12-3.63,25.63,25.38.5.75c-.5.37-3.15,3.1-3.38,3.12-1.81.19-22.29-23.31-25.87-25.62ZM66.38,190.11c-3.43.73-4.11-4.29-1.25-4.75,3.36-.54,3.74,4.22,1.25,4.75ZM58.38,198.11c-3.43.73-4.11-4.29-1.25-4.75,3.27-.52,3.78,4.21,1.25,4.75ZM57.13,145.36c3.36-.54,3.74,4.22,1.25,4.75-3.43.73-4.11-4.29-1.25-4.75ZM65.63,152.36c1.67,2.42,16.91,15.93,17.13,17.13.15.86-2.39,2.65-2.88,3.37-2.06-1.94-17.16-15.68-17.37-16.87-.16-.87,2.62-2.88,3.12-3.63ZM62.51,139.99c-.16-.87,2.62-2.88,3.12-3.63,1.11,1.59,10.98,10.35,11.13,11.13.15.86-2.39,2.65-2.88,3.37-1.48-1.11-11.23-10.1-11.37-10.87ZM82.38,158.11c-3.43.73-4.11-4.29-1.25-4.75,3.36-.54,3.74,4.22,1.25,4.75ZM47.88,124.86c-2.05-1.95-17.17-15.68-17.37-16.87-.17-.95,2.47-2.98,3.12-3.63,1.67,2.42,16.91,15.93,17.13,17.13.15.86-2.39,2.65-2.88,3.37ZM51.51,138.74c-.05.2-2.92,2.84-3.13,2.87-.68.1-9.75-8.95-9.87-9.62-.18-.98,2.61-2.62,2.87-3.63,1.4,1.39,10.35,9.24,10.13,10.38ZM25.63,135.11c-.5-.75-3.28-2.76-3.12-3.62.14-.78,10.02-9.54,11.12-11.13l3.38,3.38-11.38,11.37ZM37.01,139.74l-11.38,11.37c-.5-.75-3.28-2.76-3.12-3.62.14-.78,10.02-9.54,11.12-11.13l3.38,3.38ZM25.13,113.36c3.35-.53,3.75,4.21,1.25,4.75-3.47.76-4.08-4.3-1.25-4.75ZM50.01,59.61h-.25c-1.63,2.17-1.96,2.17-3.5,0h-.25l-15.75-15.87,3.37-3.38c1.65,2.5,17.5,16.39,17.63,17.63.06.56-1.13,1.08-1.25,1.62ZM50.38,78.11c-3.43.73-4.11-4.29-1.25-4.75,3.27-.52,3.78,4.21,1.25,4.75ZM42.38,70.11c-3.43.73-4.11-4.29-1.25-4.75,3.36-.54,3.74,4.22,1.25,4.75ZM34.38,78.11c-3.43.73-4.11-4.29-1.25-4.75,3.27-.52,3.78,4.21,1.25,4.75ZM53.01,27.74l-3.38,3.37c-.33-.26-1.17-1.12-2.19-2.17-.31-.32-.64-.65-.97-.99-.43-.45-.89-.92-1.33-1.37-.12-.11-.23-.23-.34-.34-1.53-1.56-2.9-2.88-3.17-2.88-.31.02-4.37,3.96-4.37,4.38l14,14.25-3.38,3.37-17.37-17.37,10.87-11.63,11.63,11.38ZM41.63.36l10.13,10.13c-.54.34-3.15,3.09-3.38,3.12-.68.1-9.76-8.94-9.87-9.62-.17-.95,2.47-2.98,3.12-3.63ZM33.63,8.36l3.38,3.38-11.38,11.37c-.5-.75-3.28-2.76-3.12-3.62.14-.78,10.02-9.54,11.12-11.13ZM17.13,25.36c3.27-.52,3.78,4.21,1.25,4.75-3.43.73-4.11-4.29-1.25-4.75ZM25.63,48.36l3.38,3.38-7.75,7.87h-.25l-3.38,3.5-3.12-3.5,11.12-11.25ZM10.38,6.11c-3.43.73-4.11-4.29-1.25-4.75,3.36-.54,3.74,4.22,1.25,4.75ZM10.76,72.24l3.12-3.63,15.13,15.13c-.55.36-2.84,3.07-3.13,3.12-1.03.19-13.25-13.15-15.12-14.62ZM17.13,153.36c3.27-.52,3.78,4.21,1.25,4.75-3.43.73-4.11-4.29-1.25-4.75ZM25.63,176.36l3.38,3.38-11.38,11.37c-.5-.75-3.28-2.76-3.12-3.62.14-.78,10.02-9.54,11.12-11.13ZM25.63,263.11c-.5-.75-3.28-2.76-3.12-3.62.14-.78,10.02-9.54,11.12-11.13l3.38,3.38-11.38,11.37ZM37.01,267.74l-11.38,11.37c-.5-.75-3.28-2.76-3.12-3.62.14-.78,10.02-9.54,11.12-11.13l3.38,3.38ZM25.13,241.36c3.27-.52,3.78,4.21,1.25,4.75-3.43.73-4.11-4.29-1.25-4.75ZM10.38,134.11c-3.43.73-4.11-4.29-1.25-4.75,3.27-.52,3.78,4.21,1.25,4.75ZM10.76,200.24l3.12-3.63,15.13,15.13c-.55.36-2.84,3.07-3.13,3.12-1.03.19-13.25-13.15-15.12-14.62ZM17.13,281.36c3.27-.52,3.78,4.21,1.25,4.75-3.43.73-4.11-4.29-1.25-4.75ZM10.38,262.11c-3.43.73-4.11-4.29-1.25-4.75,3.36-.54,3.74,4.22,1.25,4.75ZM25.88,342.86c-1.03.19-13.25-13.15-15.12-14.62l3.12-3.63,15.13,15.13c-.55.36-2.84,3.07-3.13,3.12ZM21.26,315.61h-.25l-3.38,3.5-3.12-3.5,11.12-11.25,3.38,3.38-7.75,7.87ZM34.38,334.11c-3.43.73-4.11-4.29-1.25-4.75,3.27-.52,3.78,4.21,1.25,4.75ZM42.38,326.11c-3.43.73-4.11-4.29-1.25-4.75,3.36-.54,3.74,4.22,1.25,4.75ZM46.26,315.61h-.25l-15.75-15.87,3.37-3.38c1.65,2.5,17.5,16.39,17.63,17.63.06.56-1.13,1.08-1.25,1.62h-.25c-1.63,2.17-1.96,2.17-3.5,0ZM50.38,334.11c-3.43.73-4.11-4.29-1.25-4.75,3.27-.52,3.78,4.21,1.25,4.75ZM49.63,287.11s-.07-.06-.11-.1c-.12-.1-.28-.24-.46-.42-.01-.02-.03-.03-.05-.05-.07-.07-.14-.14-.22-.22-.09-.09-.19-.19-.3-.3-.06-.06-.13-.13-.19-.2-.1-.1-.2-.21-.31-.31-.17-.19-.36-.37-.55-.57-.2-.21-.42-.43-.63-.65-.12-.11-.23-.22-.34-.34-.43-.45-.89-.92-1.33-1.37-.12-.11-.23-.23-.34-.34-.57-.58-1.12-1.14-1.6-1.59-.16-.16-.32-.3-.46-.43-.56-.53-.98-.86-1.11-.86-.31.02-4.37,3.96-4.37,4.38l14,14.25-3.38,3.37-17.37-17.37,10.87-11.63,11.63,11.38-3.38,3.37ZM41.63,256.36l10.13,10.13c-.54.34-3.15,3.09-3.38,3.12-.68.1-9.76-8.94-9.87-9.62-.17-.95,2.47-2.98,3.12-3.63ZM57.63,359.11c-.5-.75-3.28-2.76-3.12-3.62.14-.78,10.02-9.54,11.12-11.13l3.38,3.38-11.38,11.37ZM57.13,321.36c4.11-.66,3.54,6.26-.5,4.5-2.08-.91-1.51-4.18.5-4.5ZM63.26,315.61c.47-2.93,4.45-3.07,4.75,0-.03,3.39-4.54,3.28-4.75,0ZM82.76,315.61h-.25c-2.12,2.08-2.28,2.68-4.25,0h-.25c-2.17-3.41-23.2-21.99-23.5-23.62-.16-.87,2.62-2.88,3.12-3.63l26.13,26.13-1,1.12ZM97.63,328.36l3.38,3.38-11.63,11.12c-.48-.72-3.03-2.51-2.87-3.37.14-.78,10.02-9.54,11.12-11.13ZM90.38,326.11c-3.48.76-4.03-4.18-1.25-4.75,3.14-.65,3.82,4.19,1.25,4.75ZM86.38,306.11c-3.31.7-4.17-4.18-1.25-4.75,3.2-.62,3.78,4.21,1.25,4.75ZM81.13,281.36c3.38-.61,3.72,4.23,1.25,4.75-3.39.72-4.15-4.23-1.25-4.75ZM65.63,264.36c1.11,1.59,10.98,10.35,11.13,11.13.1.56-2.66,3.33-2.88,3.37-.77.14-11.23-10.1-11.37-10.87-.16-.87,2.62-2.88,3.12-3.63ZM65.63,280.36c1.67,2.42,16.91,15.93,17.13,17.13.1.56-2.66,3.33-2.88,3.37-1.19.22-15.17-15.22-17.37-16.87l3.12-3.63ZM58.38,278.11c-3.47.76-4.08-4.3-1.25-4.75,3.35-.53,3.75,4.21,1.25,4.75ZM53.13,253.36c3.15-.61,3.85,4.2,1.25,4.75-3.47.74-4.03-4.21-1.25-4.75ZM50.76,249.49c.1.56-2.66,3.33-2.88,3.37-1.19.22-15.17-15.22-17.37-16.87-.17-.98,2.53-2.86,3.12-3.63,1.67,2.42,16.91,15.93,17.13,17.13ZM33.13,201.36c3.27-.52,3.78,4.21,1.25,4.75-3.43.73-4.11-4.29-1.25-4.75ZM42.38,198.11c-3.43.73-4.11-4.29-1.25-4.75,3.27-.52,3.78,4.21,1.25,4.75ZM30.51,171.99c-.17-.98,2.4-3.01,3.12-3.63l17.88,17.88c-.59.31-3.15,3.09-3.38,3.12-1.23.15-15.22-15.76-17.62-17.37ZM50.38,206.11c-3.43.73-4.11-4.29-1.25-4.75,3.27-.52,3.78,4.21,1.25,4.75ZM49.63,159.11l-7.75-7.75c-.52-.05-4.62,3.89-4.62,4.38,0,.99,12.6,12.36,14,14.25l-3.38,3.37-17.37-17.37,10.87-11.63,11.63,11.38-3.38,3.37ZM53.38,125.36c3.02-.35,3.47,4.23,1,4.75-3.5.74-4.13-4.39-1-4.75ZM54.51,227.49c.14-.78,10.02-9.54,11.12-11.13l3.38,3.38-11.38,11.37c-.5-.75-3.28-2.76-3.12-3.62ZM62.51,235.49c.19-1.06,13.64-12.99,15.12-15.13l3.38,3.38-15.38,15.37c-.5-.75-3.28-2.76-3.12-3.62ZM82.38,254.11c-3.39.72-4.15-4.23-1.25-4.75,3.38-.61,3.72,4.23,1.25,4.75ZM85.13,173.36c3.15-.61,3.85,4.2,1.25,4.75-3.47.74-4.03-4.21-1.25-4.75ZM86.51,211.49c.14-.78,10.01-9.55,11.12-11.13l3.38,3.38-11.38,11.37c-.5-.75-3.28-2.76-3.12-3.62ZM105.51,279.11v-.25c-1.25-1.32-11.17-10.47-11-11.37.05-.3,2.76-2.59,3.12-3.13l7.88,7.75v.25l3.5,3.38-3.5,3.37ZM98.38,238.11c-3.39.72-4.15-4.23-1.25-4.75,3.38-.61,3.72,4.23,1.25,4.75ZM98.38,254.11c-3.44.73-4.09-4.24-1.25-4.75,3.2-.57,3.82,4.2,1.25,4.75ZM105.51,257.36c3.37.16,3.33,4.76,0,4.75-2.99-.55-2.95-4.23,0-4.75ZM111.38,236.86l-5.87-5.75v-.25l-11.25-11.12,11.25-11.38,11.5,11.38-3.38,3.37-8.12-7.75c-.55.52-4.21,3.83-4.25,4.13-.12.78,3.53,3.96,4.25,4.62v.25c.3.31,1.16,1.14,2.24,2.17.24.23.49.47.75.72.13.12.26.25.4.38.27.25.54.51.81.78.27.26.55.53.82.79.41.4.81.79,1.2,1.18.13.12.26.25.38.38,1.5,1.49,2.65,2.72,2.65,2.98-.02.22-2.98,3.16-3.38,3.12ZM118.38,242.11c-3.47.74-4.03-4.21-1.25-4.75,3.15-.61,3.85,4.2,1.25,4.75ZM122.38,294.11c-3.47.76-4.08-4.3-1.25-4.75,3.26-.52,3.79,4.2,1.25,4.75ZM128.38,301.61c-1.92-1.16-.98-3.94.75-4.25,4.3-.77,3.34,6.74-.75,4.25ZM130.38,270.11c-3.43.73-4.11-4.29-1.25-4.75,3.27-.52,3.78,4.21,1.25,4.75ZM138.38,262.11c-3.39.72-4.15-4.23-1.25-4.75,3.38-.61,3.72,4.23,1.25,4.75ZM146.38,286.11c-3.43.73-4.11-4.29-1.25-4.75,3.27-.52,3.78,4.21,1.25,4.75ZM148.6,252.33c-.12.15-.27.31-.43.49h0c-.16.18-.33.37-.5.55-.69.73-1.41,1.44-1.54,1.49-1.27.49-17.22-17.01-19.62-18.87l3.12-3.63,19.38,19.38c0,.07-.16.3-.41.59ZM137.13,225.36c3.27-.52,3.78,4.21,1.25,4.75-3.43.73-4.11-4.29-1.25-4.75ZM145.13,233.36c3.26-.52,3.79,4.2,1.25,4.75-3.47.76-4.08-4.3-1.25-4.75ZM145.63,223.11c-1.62,0-19.62-20.86-22.87-22.87l3.12-3.38,23.13,22.88c.04.38-3.14,3.37-3.38,3.37ZM153.63,279.11c-.5-.75-3.28-2.76-3.12-3.62.14-.78,10.02-9.54,11.12-11.13l3.38,3.38-11.38,11.37ZM161.63,248.36l3.38,3.38-11.38,11.37c-.5-.75-3.28-2.76-3.12-3.62.14-.78,10.02-9.54,11.12-11.13ZM153.63,151.11c-.5-.75-3.28-2.76-3.12-3.62.14-.78,10.02-9.54,11.12-11.13l3.38,3.38-11.38,11.37ZM161.63,120.36l3.38,3.38-11.38,11.37c-.5-.75-3.28-2.76-3.12-3.62.14-.78,10.02-9.54,11.12-11.13ZM153.63,23.11c-.5-.75-3.28-2.76-3.12-3.62.14-.78,10.02-9.54,11.12-11.13l3.38,3.38-11.38,11.37Z" fill="#ec008c"/><path d="M169.13,321.36c1.45-.26,2.3.42,2.65,1.34v-7.09h-22.77l-3.38,3.5-3.12-3.5h-9.5c.51,1.05,5.65,5.36,5.75,5.88.16.86-2.62,2.87-3.13,3.62l-9.37-9.5h-.25l-20.5-20.5v9.25l7.25,7.38-3.38,3.12-3.87-3.75v4.5h-4.5l4.5,4.5v.25c1.62,1.02,1.57,1.76,0,2.75v13.25l11.5,11.38-3.38,3.37-8.12-7.75c-.55.52-4.21,3.83-4.25,4.13-.12.78,3.53,3.96,4.25,4.62v.25l9.25,9.63-2.66,2.26h14.72c-.12-.1-.23-.2-.31-.26l3.12-3.63,3.89,3.89h9.9c-.28-1.24.25-2.66,1.71-2.89,2.05-.33,3.01,1.42,2.82,2.89h10.88c-.13-.1-.24-.2-.32-.26-.17-.98,2.53-2.86,3.12-3.63.45.65,1.88,2.1,3.73,3.89h6.42v-2.99l-1.27-1.27,1.27-1.48v-33.8c-.41,1.1-1.48,1.88-3.15,1.15-2.04-.89-1.56-4.13.5-4.5ZM117.13,317.36c3.27-.52,3.78,4.21,1.25,4.75-3.43.73-4.11-4.29-1.25-4.75ZM106.76,328.24c-.19-1.02,2.8-2.88,3.37-3.63l14.63,14.88-3.13,3.37c-1.64-1.86-14.69-13.6-14.87-14.62ZM121.63,359.11c-.5-.75-3.28-2.76-3.12-3.62.14-.78,10.02-9.54,11.12-11.13.36.54,3.38,3.14,3.38,3.38,0,.8-10.28,9.79-11.38,11.37ZM138.38,358.11c-3.43.73-4.11-4.29-1.25-4.75,3.27-.52,3.78,4.21,1.25,4.75ZM145.63,351.11c-2.21-3.21-22.58-21.28-22.87-22.87-.19-1.02,2.58-2.63,3.12-3.38l23.13,22.88-3.38,3.37ZM153.88,342.86c-1.05.19-13.46-13.38-15.37-14.87l3.37-3.38c1.5,2.09,14.69,13.84,14.88,14.88.1.56-2.66,3.33-2.88,3.37ZM162.38,334.11c-3.43.73-4.11-4.29-1.25-4.75,3.27-.52,3.78,4.21,1.25,4.75Z" fill="#ec008c"/></svg>