<?xml version="1.0" encoding="UTF-8"?><svg id="a" xmlns="http://www.w3.org/2000/svg" width="60.62mm" height="128.28mm" viewBox="0 0 171.84 363.63"><path d="M171.84,36.51v1.2c-2.16.82-4.76,1.59-7.08,1.68-9.71.37-19.2-13.45-28.91-9.71-2.8,1.08-4.83,3.71-7.44,5.04-7.08,3.62-12.99-2.43-19.53-1.77-4.25.42-4.12,4.96-7.05,6.15s-5.52-1.68-7.85-2.98c-5.76,4.74-10.88,12.07-18.99,12.85-6.19.6-8.93-2.89-13.77-5.38-4.12-2.12-7.22-1.92-11.29.24,7.56.24,12.11,7.93,19.55,8.53,12.87,1.03,20.63-10.96,32.64-11.78,5.37-.37,12.46,1.42,17.59,3.07,2.07.67,7.73,3.35,9.48,2.89,1.12-.3,2.03-1.6,3.93-1.84,11.78-1.46,17.58,14.88,30.82,7.54,2.86-1.58,5.14-3.97,7.92-5.64v1.44c-5.17,4.4-10.69,8.65-17.96,7.04s-13.85-10.97-21.46-8.91c-1.01.27-1.96,1.28-2.81,1.51-1.65.44-4.29-.54-5.95-1.02-7.31-2.11-12.81-5.18-20.83-4.63-13.33.9-21.44,15.43-36.64,10.74-6.79-2.09-13.2-10.9-20.52-6.23-4.73,3.01-6.92,6.81-12.98,8.38-11.82,3.07-16.75-9.36-26.53-9.03-2.65.09-3.7,2.06-6.16,1.9v-1.2c2.02-.05,3.02-1.64,5.19-1.89,11.66-1.37,17.41,14.64,30.5,7.7,7.16-3.8,12.39-12.38,21.55-11.56,7.56.68,10.4,8.98,19.51,6.54,6.13-1.64,9.55-6.34,13.97-10.27.5-.44,2.38-2.1,2.82-2.22,1.99-.52,4.29,3.12,6.91,3.07,2.87-.05,3.27-5.65,7.45-6.23,7.19-.98,12.65,5.23,19.7,1.7,2.35-1.17,7.02-5.56,9.07-5.81,10.5-1.27,16.42,8.31,25.75,10.02,3.5.64,6.11-.15,9.42-1.14Z"/><path d="M171.84,292.35v1.44c-3.54,1.19-7.34,2.05-11.04,1.08-7.38-1.94-15.63-11.6-23.77-9.61-3.9.95-6.34,4.78-10.01,6.07-6.49,2.28-12.44-3.17-18.65-2.33-4.63.63-3.68,8.04-9.98,5.85-1.75-.61-2.94-2.23-4.64-2.73-5.47,4.72-10.06,11.22-17.63,12.63-10.9,2.04-15.66-11.4-26.22-4.86,6.81.02,11,6.36,17.23,7.97,12.13,3.14,20.31-7.76,30.83-10.55,6.88-1.82,15.31.26,21.97,2.4,1.9.61,7.68,3.3,9.18,2.84,1.07-.33,1.9-1.58,3.49-1.79,10.8-1.47,16.03,10.63,26.56,9.28,4.73-.61,8.93-5.01,12.66-7.62v1.68c-5.14,4.19-9.8,7.91-16.92,7.2s-15.46-12.23-23.26-8.85c-.69.3-1.47,1.13-2.06,1.3-2.7.81-16.89-5.29-21.73-5.65-10.86-.8-13.93,2.82-22.52,7.48-7.39,4.01-14.81,5.74-22.64,1.68-5.34-2.77-10.52-8.77-16.95-4.8s-8.94,9.56-18.3,8.84c-7.94-.61-13.69-10.33-22.04-9.34-2.17.26-3.29,2.06-5.43,1.89v-1.2c1.7.09,2.79-1.57,4.5-1.86,12.24-2.06,17.82,14.82,31.42,7.42,7.65-4.16,13.4-13.78,23.55-10.91,6.87,1.95,8.89,8.6,17.76,5.89,6.3-1.92,9.52-6.78,14.21-10.75.38-.32,1.56-1.34,1.91-1.45,2.55-.83,4.35,3.44,7.81,2.77,1.77-.35,2.82-4.85,5.93-5.83,6.27-1.96,12.78,4.36,18.98,2.18,3.22-1.13,8.49-6.39,10.85-6.67,8.36-1.01,14.5,5.97,21.56,8.93,4.52,1.89,8.84,1.95,13.36-.04Z"/><path d="M171.84,164.43v1.2c-2.67,1.02-5.89,1.66-8.76,1.44-8.27-.63-14.14-9.39-23.05-10.07-6.77-.51-9.38,6.49-15.63,6.92-5.35.37-11.89-4.18-16.65-2.73-3.99,1.21-3.55,7.99-9.48,5.65-1.05-.42-3.84-2.79-4.51-2.61-.1.03-1.37,1.08-1.61,1.29-4.32,3.65-6.85,7.59-12.31,10.25-8.45,4.1-11.52-1.21-18.56-4.33-3.89-1.72-7.36-1.74-11.13.33,1.07.4,2.21.43,3.31.77,5.37,1.67,9.15,6.68,14.87,7.69,12.31,2.15,20.87-9.86,32.13-11.43,6.12-.85,14.04,1.18,19.9,3.09,2.28.74,6.84,3.19,9.01,2.54.82-.25,1.68-1.22,2.81-1.51,10.26-2.63,16.96,11.47,27.86,8.9,4.66-1.1,7.96-4.71,11.8-7.28v1.44c-4.66,4.14-9.78,8.05-16.44,7.44-8.16-.76-13.5-10.58-22.54-9.33-1.51.21-2.79,1.78-4.05,1.82-.9.02-2.58-.51-3.53-.76-7.15-1.84-13.32-5.32-21.01-5.17-15.71.32-24.27,18.49-41.79,9.17-5.16-2.75-10.43-8.5-16.62-4.7-4.69,2.88-6.99,6.81-12.93,8.43-12.57,3.43-18.05-10.87-28.44-8.76-1.47.3-2.74,2.21-4.49,1.87v-1.44c1.46.33,2.34-.95,3.53-1.39,8.49-3.11,15.63,7.26,23.3,8.76,11.8,2.31,18.07-13.5,29.46-13.14,9.2.29,11.32,10.69,22.76,5.74,5.41-2.34,8.34-6.5,12.63-10.17.34-.29,1.63-1.38,1.92-1.46,2.06-.58,4.62,4.29,7.94,2.68,2.16-1.05,2.22-4.26,4.96-5.36,6.01-2.43,12.57,3.53,18.61,2.29,4.07-.84,7.12-5.16,11.09-6.43,8.81-2.82,16.86,7.1,24.8,9.31,3.73,1.04,7.3.51,10.85-.89Z"/><path d="M171.84,17.55v1.2c-4.66.18-8.12-4.28-12.6-.96-.83.61-3.24,3.7-3.65,3.81-5.37-1.5-9.66,3.47-15.01,2.38-1.64-.33-3.63-2.73-5.52-2.53-1.33.14-4.75,3.56-6.34,4.46-5.39,3.06-11.16,3.14-17.13,1.86-4.67-1-10.19-7.07-15.3-5.73-1.19.31-2.1,1.44-3.16,1.88-3.53,1.42-11.85-2.22-16.19-2.29-14.07-.23-23.42,15.08-37.75,17.47-11.61,1.94-18.86-11.24-29.43-9.99-3.92.46-6.31,4.24-9.75,5.73v-1.68l8.1-5.46c12.3-2.09,19.43,12.23,31.75,9.91,6.97-1.31,12.77-6.02,18.49-9.83s11.08-7.95,18.54-7.31c1.77.15,3.44,1.06,5.19,1.05-1.1-4.13-4.03-2.22-6.84-2.52-3.99-.43-6.48-6.73-10.86-7.38-6.79-.99-13.45,7.86-21.75,7.11-3.67-.33-6.66-3.5-10.48-1.54-1.93.99-2.99,2.94-4.48,4.42-1.43-.11-2.75-.34-4.21-.14-3.68.51-6.9,3.74-11.18,2.42-1.56-.48-3.58-2.67-5.39-2.43-1.64.22-4.85,4.36-6.89,4.75v-1.44c3.4-1.46,5.03-5.48,9.25-3.85,2.21.85,2.32,2.09,5.28,1.94,3.24-.16,6.52-2.68,9.38-2.88.99-.07,2.28.35,3.3.41,1.85-1.69,3.17-4.07,5.81-4.72,4.31-1.06,8.64,2.27,13.6,1.6,1.02-.14,4.81-1.48,5.55-2.07.3-.24.05-.85.38-1.12,1.76.44.91-.21,1.36-.6,1.06-.94,6.37-2.74,7.88-2.87,7.03-.59,7.15,3.27,11.53,6.49,2.55,1.87,4.91-.44,7.02.42,1.2.49,3.06,4.03,3.78,4.08,3.43-2.53,6.4-3.86,8.4,1.01,6.55-5.34,12.29,1.47,18.23,3.37,5.46,1.75,12.86,1.71,17.82-1.39,1.57-.98,4.56-3.94,6.21-4.12,2.91-.32,4.29,2.54,7.66,2.4s6.55-2.69,9.38-2.88c.99-.07,2.28.35,3.3.41,1.6-1.31,2.54-3.18,4.45-4.16,3.62-1.85,8.49.94,12.25,1.33ZM85.68,22.34c1.32.32,7.52,2.34,5.16-.72-1.59-2.06-3.89-1.16-5.16.72Z"/><path d="M0,280.83c2.92-1.4,4.81-4.96,8.41-4.21,1.46.3,2.53,1.55,3.76,2,3.65,1.33,7.65-1.98,11.05-2.53,1.41-.23,3.25.44,4.22.14.23-.07,2.6-2.88,3.31-3.41,4.72-3.55,9.88,1.01,14.98.58,1.09-.09,6.07-1.58,6.48-2.4.14-.29.13-.64.12-.95,1.51.45,1.1-.19,1.83-.69,3.78-2.6,9.94-3.9,13.99-1.33,2.62,1.66,4.44,6.06,7.81,5.86,1.44-.09,3.11-.95,4.63-.3,1.06.46,2.45,3.64,3.35,3.87,1.04.27,2.97-2.72,5.85-2.02,1.49.36,1.87,1.87,2.53,3.03.62.11,2.5-1.46,3.39-1.64,5.82-1.19,9.93,3.42,14.96,5.1s12.91,1.69,17.73-1.21c1.61-.97,4.49-3.9,6.15-4.16,2.74-.44,3.54,1.23,5.63,2.02,3.86,1.46,7.61-1.98,11.22-2.45,1.32-.17,3.07.41,3.97.13.23-.07,2.51-2.8,3.17-3.31,4.01-3.09,8.94.35,13.31.47v1.2c-4.82.54-7.44-3.97-12.22-1.06-1.18.72-3.49,3.8-3.79,3.89-1.09.34-2.49-.28-3.73-.13-3.7.44-7.12,3.62-11.29,2.77-1.77-.36-3.97-2.91-6.04-2.58-.92.14-4.12,3.17-5.24,3.89-5.77,3.71-12.14,3.77-18.61,2.18-4.59-1.12-9.26-6.76-14.7-5.49-1.09.25-2.11,1.46-3.17,1.87-3.39,1.3-10.78-1.88-14.7-2.21-15.64-1.3-25.11,16.16-40.08,17.51-11.01.99-20.23-12.66-29.59-9.91-3.28.97-5.67,4.08-8.68,5.6v-1.68c2.58-1.09,6.36-5.45,8.99-5.77,8.42-1.02,14.95,6.41,22.21,9.24,11.04,4.3,22.01-5.58,30.5-11.25,4.91-3.28,9.74-5.64,15.91-4.91,1.47.17,2.92,1.12,4.47.93-1.14-3.87-3.63-2.29-6.35-2.39-4.03-.15-7.07-6.83-11.07-7.43-6.6-.99-12.54,6.4-19.42,6.95-4.38.35-4.99-.93-8.52-1.82-4.26-1.08-6.49,1.59-8.82,4.7-1.34.2-2.64-.34-3.97-.18-3.83.45-6.81,3.8-11.42,2.66-1.8-.45-3.61-2.73-5.66-2.47-1.71.22-4.67,4.39-6.86,4.56v-1.2ZM85.68,278.42l5.16.97c1.51-.1-.1-2.73-1.68-2.9-1.25-.14-3.05.66-3.49,1.93Z"/><path d="M0,152.91c2.94-1.64,4.89-5.02,8.65-4.21,1.22.26,2.3,1.45,3.41,1.87,3.78,1.44,7.49-1.86,10.91-2.4,1.26-.2,3.58.32,4.21.14.51-.14,2.63-3.03,3.55-3.67,4.2-2.87,9.13.93,13.54.93,7.85,0,14.97-10.59,23.24-6.06,2.6,1.42,5.13,6.36,7.97,6.45,1.41.04,3.65-1.04,5.15-.37,1.08.49,2.13,3.28,3.36,3.86.66.19,1.79-1.01,2.49-1.39,2.77-1.49,5.06-.71,5.68,2.44.3.23,2.56-1.37,3.12-1.56,5.32-1.83,10.4,3.26,15.05,4.87,5.29,1.83,13.14,1.9,18-1.09,2.71-1.67,4.74-4.8,8.29-4.08,1.2.24,2.36,1.63,3.58,1.94,5.22,1.35,9.6-3.87,14.9-2.27,1.34-.84,2.07-2.55,3.31-3.43,4.47-3.16,8.77.47,13.42.58v1.2c-3.44-.37-6.88-2.46-10.38-1.86-2.69.46-4.11,2.78-5.63,4.75-1.45-.02-2.72-.42-4.21-.19-4.16.66-6.04,3.47-11.18,2.43-2.09-.42-3.58-2.62-5.66-2.23-1.07.2-4.04,3.05-5.29,3.84-7.22,4.54-15.55,3.81-22.93.12-3.17-1.58-6.93-4.8-10.72-3.29-1.07.42-2.1,1.61-3.18,1.86-3.85.89-9.63-1.89-13.61-2.27-16.6-1.58-25.57,16.32-41.49,17.49-8.69.64-16.55-9.98-26.41-10.09-4.59-.05-7.51,3.41-11.15,5.53v-1.68c2.74-1.16,4.61-3.88,7.44-4.92,8.5-3.1,17.25,6.42,24.97,8.87,14.8,4.7,25.39-12.96,38.67-15.79,3.7-.79,7.35-.44,11,.32-.34-.91-.94-2.13-1.86-2.58-1.28-.63-2.71.21-4.02.2-5.68-.02-7.08-9.16-15.01-7.35-6.73,1.54-10.95,7.67-19.04,6.82-3.91-.41-6.63-4.02-10.83-.93-.88.65-3.15,3.64-3.65,3.79-.83.25-2.66-.31-3.97-.13-3.82.52-7.1,3.97-11.46,2.45-1.87-.65-3.43-2.67-5.63-2.27-1.63.3-4.71,4.04-6.61,4.55v-1.2ZM91.44,151.22c-.17-3.27-4.07-3.44-5.76-1.08,0,.55,5.05,1.31,5.76,1.08Z"/><path d="M0,70.11c6.1-4.5,12.18-7.23,19.92-5.4,4.39,1.03,8.02,3.87,12.18,5.34,1.67.59,3.46,1.53,4.82-.1,3.12-3.73,3.85-10.05,9.09-12.27,7.65-3.24,11.22,3.21,17.95,3.78,5.66.48,11.4-3.06,17.27-2.63,3.22.23,8.86,2.3,9.72,5.76l-5.36-2.92c-8.83-3.75-13.54,1.51-21.88.76-6.33-.57-9.73-6.16-16.57-3.85-4.17,1.41-6.9,6.58-8.03,10.57,1.01-.45,2.15-.18,3.24-.24,2.65-.15,6.33-.98,8.83-.18,2.79.9,3.74,2.49,7.26,2.11,2.4-.26,3.39-2.36,5.23-3.41,4.41-2.52,9.89,4.27,14.21.77,1.16-.94.98-2.9,2.64-2.89,1.82,0,4.24,3.43,7.38,3.31,3.75-.14,3.32-3.9,5.84-4.23,4.82-.64,10.18,6.78,14.25,8.98,15.52,8.4,23.52-13.4,39.85-8.65,4.41,1.29,8.72,4.35,13.07,5.65,2.56.76,3,.98,4.55-1.23,1.7-2.44,2.69-5.48,4.5-7.98.41-.57,1.2-1.61,1.88-1.84v1.44c-2.41,2.24-3.74,5.34-4.8,8.4l4.8-.48v1.44c-1.09-.2-2.32-.41-3.42-.19-1.63.33-2.29,2.39-4.82,2.33-4.9-.13-10.74-4.94-15.57-6.28-16.33-4.53-21.46,14.72-37.03,9.91-5.7-1.76-11.01-9.56-14.9-10.06-2.92-.38-3.24,1.66-5.3,2.82-2.24,1.26-4.57.97-6.81-.07-.86-.4-2.86-2-3.66-1.83-.16.03-1.57,2.29-2.03,2.66-3.71,2.96-8.87-1.57-12.41-1.46-2.05.06-3.17,2.38-4.85,3.33-5.16,2.91-8.52-2.04-12.69-1.65-.99.09-1.26.65-2.14.74-2.48.25-4.25-1.08-7.01.19-1.39.64-1.61,1.75-3.55,1.73-4.64-.06-10.85-4.98-15.55-6.31-8.16-2.3-14,1.12-20.1,6.06v-1.92Z"/><path d="M0,198.03c7.51-5.39,14.66-7.83,23.61-4.05,2.57,1.09,9.49,5.31,11.93,4.9,1.85-.31,4.03-5.95,5.07-7.65,2.08-3.41,4.22-5.96,8.5-6.38,5.76-.56,10.19,4.49,15.81,4.77,4.22.21,8.54-2.51,12.75-2.85s11.63,1.23,13.29,5.73c-2.16-.92-4.02-2.41-6.24-3.23-8.38-3.12-13.79,2.31-21.89,1.01-5.76-.93-9.12-5.84-15.44-3.78-4.46,1.45-6.72,6.25-8.27,10.33,1.92-.28,4.05.35,5.89.25s3.12-.99,5.25-.71c3.27.43,4.83,3.64,9.02,2.26,1.97-.65,3.83-3.44,5.41-3.71,4.12-.69,8.01,3.31,11.93,2.09,1.92-.59,2.42-3.76,3.9-3.76s4.24,3.59,7.68,3.35,2.72-4.41,6.23-4.34c4.63.1,9.83,7.27,13.96,9.34,13.5,6.76,20.98-8.47,33.09-9.57,6.84-.62,11.79,3.47,17.81,5.7,1.29.48,3.36,1.37,4.7.97,1.93-.58,5.14-10.29,7.85-11.47v1.68c-2.32,1.9-3.65,4.98-4.56,7.8l4.56.36v.96c-1.18.09-2.51-.15-3.66.06-1.23.22-1.87,1.49-2.92,1.88-4.09,1.53-13.01-4.91-17.47-6.09-15.27-4.03-19.36,11.92-34.4,10.64-7.44-.64-12.34-10.25-18.02-10.8-2.42-.23-2.83,2.25-4.48,3.16-3.47,1.91-7.1-.71-10.14-2.2-.84.02-1.71,2.08-2.39,2.64-3.75,3.1-9.1-1.68-12.97-1.21-1.88.23-2.96,2.5-4.6,3.32-5.27,2.63-8.06-2.14-12.2-1.9-.97.06-1.23.63-2.15.75-2.31.29-4.97-.96-7.21.23-.75.4-1.29,1.23-2.1,1.5-4.27,1.41-12.8-4.92-17.27-6.12-8.15-2.19-13.69,1.32-19.87,6.07v-1.92Z"/><path d="M0,325.95c6.16-4.1,11.53-6.86,19.21-5.41,5.27,1,10.37,5.52,15.34,6.26,1.79.27,2.06-.47,2.99-1.83,3.06-4.46,3.91-10.17,10.03-11.81s8.5,2.17,13.5,3.68c8.27,2.49,15.31-4.16,23.95-1.15,2.16.75,5.61,2.49,5.93,4.99-2.89-1.82-5.87-3.65-9.31-4.25-6.04-1.06-11.11,2.5-17.21,2.09-4.46-.3-6-2.03-9.64-3.56-8.18-3.45-13.47,2.87-15.68,10.04l10.19-.73c3.84.66,6.79,4.17,10.86,1.98,1.49-.8,3.12-3.13,4.77-3.39,4-.63,9.8,4.66,13.19,1.18.93-.96.75-2.66,2.4-2.67,2.21,0,4.14,3.61,7.93,3.15,3.33-.4,2.69-3.7,5.05-4.07,4.98-.78,10,6.21,13.95,8.58,13.8,8.25,21.99-8.3,34.76-9.07,6.72-.41,12.49,4.46,18.61,6.35,1.39.43,2.82,1.11,3.94-.12,1.45-1.6,2.67-4.97,3.87-6.93.87-1.42,1.93-3.06,3.22-4.1v1.68c-2.48,2.03-3.58,5.29-4.8,8.16l4.8-.24v1.2c-1.58.07-2.44-.49-3.97.23-.81.38-1.87,1.63-2.5,1.82-4.48,1.42-12.66-4.73-17.3-6.01-1.34-.37-3.58-.84-4.93-.85-12.4-.13-17.12,14.28-31.55,10.93-6.23-1.45-11.17-9.62-15.26-10.18-3.68-.51-3.82,2.27-6.59,3.21-3.73,1.26-6.11-.9-9.2-2.48-.83.16-1.58,3.19-4.14,3.54-3.48.47-5.07-.91-8.07-1.73-5.9-1.61-5.09,3.11-9.69,3.64-4.34.5-6.72-2.68-10.06-2.62-.98.02-1.53.88-2.17.97-1.37.18-3.63-.62-5.44-.41-2.4.28-2.59,1.62-3.77,1.98-4.58,1.41-13.89-5.68-19.4-6.55-7.44-1.17-12.11,2.36-17.81,6.41v-1.92Z"/><path d="M171.84,230.91v1.2c-3.89,1.23-6.59-1.83-9.24-4.08-1.52,1.94-2.51,3.75-5.3,3.81-4.94.1-10.65-5.58-13.66-9.09-5.07,5.52-12.71,3.32-18.36,0-6.21,12.49-20.25,10.2-30.65,4.6s-22.16-17.97-34.73-16.81c-10.62.98-18.72,12.86-29.76,11.7-7.29-.77-14.04-8.55-19.61-12.79-3.12-2.37-6.42-4.64-10.54-4.46v-.96c9.47-.68,14.96,8.91,22.19,13.45,14.76,9.25,20.75-3.52,33.06-7.27,22.41-6.84,37.32,25.4,60,19.68,5.13-1.3,6.7-4.95,9.95-8.53,4.95,2.44,10.34,5.03,15.69,2.01,1.15-.65,1.94-1.5,3-2.24,2.95,3.46,10.34,11.38,15.41,8.89,1.47-.72,1.76-3.45,3.07-3.43,1.07.01,2.1,1.57,2.89,2.18,1.83,1.41,4.17,3.04,6.59,2.17Z"/><path d="M171.84,359.07v1.2c-1.94.52-4.11-.26-5.74-1.34-1.24-.82-2.12-2.24-3.51-2.75-.4-.04-1.58,2.09-2.05,2.51-4.81,4.29-14.08-4.2-16.9-8.01-4.83,5.53-12.92,3.49-18.36,0-3.52,7.15-9.36,9.65-17.17,9.13-18.04-1.21-32.02-23.84-49.36-21.06-12.4,1.98-18.73,15.33-32.82,10.13-6.2-2.29-10.24-7.46-15.25-11.39-3.11-2.44-6.48-4.85-10.67-4.33v-1.2c9.66-.47,15.12,9.27,22.58,13.78,15.98,9.66,22.89-7.21,37.09-8.47,20.14-1.78,33.41,25.2,55.06,20.74,5.32-1.1,7.19-4.92,10.43-8.7,4.6,2.32,9.52,4.73,14.69,2.62,1.49-.61,2.9-1.79,4.04-2.92,2.87,3.79,9.54,10.61,14.77,9.24,1.97-.51,2.53-3.69,3.71-3.72.82-.02,2.65,2.09,3.37,2.63,1.9,1.43,3.66,2.21,6.11,1.93Z"/><path d="M0,76.11c8.12-.88,13.59,6.76,19.33,11.27,13.01,10.25,18.29,4,29.95-2.44,27.19-15,40.2,22.57,65.73,17.01,4.95-1.08,7.12-4.86,9.94-8.59,5.53,2.38,10.91,5.34,16.62,1.56.62-.41,1.99-1.88,2.52-1.8.1.02.94,1.4,1.22,1.7,2.44,2.65,6.12,6.1,9.6,7.2,1.54.49,2.77.73,4.3-.03s1.81-3.34,3.14-3.35c1.05,0,2.75,2.07,3.75,2.76,1.7,1.18,3.64,2.12,5.74,1.58v1.44c-3.91.56-6.35-2-9.04-4.3-1.66,1.04-1.76,2.88-3.97,3.41-5.8,1.39-11.67-4.87-15.2-8.71-5.16,5.28-12.54,3.33-18.22.01-2.94,4.8-6.59,8.37-12.51,8.86-22.03,1.8-34.28-23.02-53.49-21.09-12.54,1.26-19.21,15.73-33.57,10.23-6.41-2.45-10.61-7.92-15.91-11.93-2.79-2.11-6.27-4.52-9.95-3.61v-1.2Z"/><path d="M171.84,239.31v1.44c-4.93-2.55-8.82,2.63-13.59,3.09-3.99.39-7.95-1.8-11.76-1.87-4.25-.07-7.86,2.15-12.33.57-1.97-.7-3.18-2.46-5.43-2.73-6.48-.76-13.9,6.33-20.22,3.42-1.09-.5-3.14-2.3-4.05-2.45-.97-.16-2.92.65-4.05.65-2.98,0-7.31-3.31-9.69-5.01-.15,3.35-1.94,6.29-5.64,6-6.44-.51-8.76-12.15-13.93-15.03-.71-.1-1.97,3.02-2.63,3.76-3.74,4.14-10.06,2.9-14.36.43-1.71-.98-3.96-2.59-4.97-4.27l-.5.15c-1.68,3.02-3.48,5.28-7.28,4.86-2.9-.32-4.47-2.59-6.74-4.06-1.26.52-1.47,2.15-2.68,2.85-3.25,1.89-7.57-.43-10.24-2.4-2.21-1.63-4.26-3.86-6.04-5.96-4.24,4.51-10.55,3.95-15.72,1.44v-1.44c4.09,1.72,8.25,2.92,12.49.85,1.3-.64,2.27-1.72,3.44-2.52,2.7,3.59,9.51,10.3,14.37,9.3,2.5-.51,2.63-3.87,4.11-3.79.95.05,3.49,2.81,4.69,3.49,3.11,1.75,5.3,1.4,7.55-1.35.45-.55,1.63-2.87,2.18-2.87,3.91,3.55,8.63,7.5,14.34,6.67,1.99-.29,4.28-1.82,5.46-3.42,1.29-1.75,1.21-4.07,4.2-2.04,4.02,2.73,8.67,9.6,14.14,8.86,1.33-.18,2.09-1.17,3.33-1.38,3.33,2.36,6.67,6.26,11.1,5.97.9-.06,1.82-.46,2.64-.49,1.61-.06,3.17,1.65,4.74,2.21,6.62,2.36,14.06-5.29,20.81-3.29,1.2.35,2.33,1.57,3.43,2.09,4.47,2.13,8.15.05,12.55-.25,5.72-.39,9.86,3,15.82.94,3.63-1.25,5.99-4.85,10.43-2.41ZM90.24,235.71c-.23-.19-2.56,1.35-3.26,1.43-3.22.36-7.98-3.38-10.41-5.28-.5.65,3.58,6.28,4.32,7.07,2.03,2.17,4.97,3.81,7.55,1.33,1.31-1.25,1.22-2.98,1.8-4.56Z"/><path d="M0,94.83c3.92,1.41,7.47,2.82,11.61,1.17,1.63-.65,2.89-1.87,4.32-2.83,2.05,2.28,4.07,4.59,6.56,6.42,2.2,1.62,6.26,4.02,8.95,2.31,1.19-.76,1.72-3.26,3.01-3.25.93,0,3.87,3.12,5.35,3.79,5.08,2.31,6.37-1.38,9.05-4.72,4.31,5,14.41,10.64,19.56,3.72,1.53-2.06,1.24-4.51,4.68-2.03s8.91,9.21,13.66,8.61c1.18-.15,2.82-1.56,3.56-1.38.59.14,3.26,2.56,4.09,3.13,1.59,1.1,4.09,2.76,6.05,2.84,1.54.07,2.92-.77,4.51-.44,1.15.24,2.56,1.64,3.7,2.06,6.15,2.25,13.08-4.2,19.63-3.55,2.31.23,3.15,1.63,5,2.44,4.94,2.18,9.76-.65,14.94-.3,4.29.29,7.03,2.3,11.64,1.34s7.28-5.61,11.99-2.77v1.44c-4.5-2.58-8.22,1.94-12.42,2.82-4.71.99-9.33-1.91-14.07-1.59-4.02.27-7.67,2-11.76.18-1.25-.56-2.5-1.72-3.82-2.18-6.06-2.11-14.46,6.1-21.06,3.3-1.62-.69-3.18-2.6-4.9-2.53-.82.03-1.74.43-2.64.49-2.77.18-5.27-1.36-7.55-2.79-.98-.62-2.22-1.27-2.78-2.26-.23,2.98-1.82,6.24-5.25,6.22-6.33-.04-8.9-10.41-12.86-14.02-2.57-2.35-2.39.3-3.85,2.16-5.13,6.54-15.7,2.15-19.79-3.47-1.63,1.79-2.9,4.76-5.58,5.22-3.7.63-6.2-2.26-8.83-4.28-1.59,1.37-1.88,3.25-4.34,3.59-5.63.78-11.24-5.02-14.65-8.84-.34-.06-1.27,1.09-1.69,1.38-4.31,3.03-9.48,1.97-14,.04v-1.44ZM90.48,108.02c-.05-.26-.2-.45-.49-.38-.63.16-1.53,1.17-2.52,1.33-3.93.64-8.2-3.09-11.14-5.26-.35.39,3.95,6.64,4.57,7.31,2.67,2.91,7.17,3.73,8.65-.7.27-.81.03-2.24.95-2.3Z"/><path d="M171.84,5.07v1.68l-4.92-4.09c-1.2.91-1.48,1.83-3.08,2.45-6.2,2.4-14.44-2.82-21.4-2.2-10.45.94-20.17,15.59-31.26,7.97-4-2.75-7-7.2-11.7-8.94-5.37-1.98-6.4,1.47-10.69,3-6.57,2.34-12-2.25-18.35-1.79-8.92.64-17.97,9.49-26.99,3.46-.81-.54-4.06-3.95-4.45-3.95-.5,0-1.72,1.88-2.91,2.38-6.18,2.55-15.18-2.8-22.05-2.13-4.98.49-9.81,4.35-14.04,6.72v-1.68C4.4,5.44,9.25,1.69,14.52,1.47c6.01-.25,16.43,4.93,21.55,2.11,1.26-.69,1.65-2,2.92-2.6,2.11,1.59,3.45,3.62,5.88,4.93,8.95,4.85,15.1-3.16,23.44-3.93,6.98-.65,13.72,3.91,20.32,1.6,2.64-.92,4.21-3.36,7.24-3.55,6.75-.43,11.04,6.85,16.23,9.95,10.93,6.51,19.82-8.01,30.34-8.5,5.87-.27,17.37,5.17,22.04,1.88.99-.7,1.33-2.11,2.64-2.31l4.72,4.03Z"/><path d="M171.84,261.15v1.68l-4.92-4.26c-.84.53-1.13,1.5-1.96,2.06-5.13,3.46-15.44-2.15-21.32-1.88-10.24.47-18.3,12.36-28.69,9.97-6.94-1.6-13.04-14.32-21.03-10.74-1.35.6-2.62,1.83-3.99,2.49-7.08,3.38-12.82-1.83-19.96-1.24s-14.32,6.81-22.22,5.17c-3.98-.83-5.91-3.3-8.75-5.89-1.7,1.92-2.85,2.91-5.51,3.12-7.45.6-13.99-4.24-21.49-2.29-4.45,1.16-7.96,4.13-12,6.12v-1.44c5.3-3.31,10.25-7.02,16.89-6.45,5.3.46,14.56,4.7,19.28,1.94,1.92-1.12,1.76-3.55,4.15-1.61,2.88,2.34,3.47,4.28,7.67,5.29,7.23,1.73,13-4.41,19.59-5.14,7.3-.81,15.35,4.15,21.86,1.22,2.12-.95,3.35-2.94,5.94-3.18,9.18-.84,13.11,10.79,21.13,11.53,10.3.95,16.92-10.83,28.07-10.07,5.32.36,15.06,4.82,19.69,1.92.9-.56,1.95-2.51,2.86-2.42.63.06,3.81,3.61,4.69,4.09Z"/><path d="M171.84,132.99v1.68l-4.71-4.06c-1.14.57-1.67,1.8-2.87,2.36-5.37,2.47-15.51-2.23-21.55-2.11-9.8.2-15.45,11.17-26.66,10.05-6.29-.62-10.91-9.29-17.27-11.29-4.62-1.46-6.6,2.33-10.47,3.48-6.77,2.02-11.95-2.6-18.56-2-8.32.76-15.26,8.28-24.31,4.57-2.88-1.18-4.07-3.36-6.48-5.05-.95.46-1.25,1.6-2.31,2.18-5.73,3.11-15.46-2.43-21.89-1.97-5.38.39-10.21,4.22-14.76,6.72v-1.68c5.9-3.46,10.06-6.86,17.37-6.21,5.12.45,14.61,4.85,18.99,1.65,1-.73,1.52-2.19,3.11-1.92.54.09,3.33,2.99,4.1,3.6,9.17,7.16,17.42-3.35,26.87-3.11,5.24.14,10.13,2.94,15.6,2.4s7.23-5.77,13.21-3.85c8.15,2.61,10.95,13.05,21.24,10.94,9.29-1.91,13.74-10.68,24.8-9.7,5.06.45,13.79,4.38,18.37,2.23,1.11-.52,2.66-2.83,3.49-2.75,1.04.1,3.45,3.47,4.69,3.85Z"/><path d="M0,110.67c2.39,0,3.98,2.03,6.01,2.75,4.12,1.47,7.2-.29,11.16-.59,6.03-.45,10.41,2.98,16.43.83,1.73-.62,3.53-2.42,5.09-2.83,5.75-1.5,10.44,5.56,17.13,3.69,2.15-.6,3.54-3.14,4.11-3.34,1.21-.41,2.9.98,4.05,1.15,3.15.47,4.98-2.3,7.06-4.06-.64,3.41-4.3,5.21-7.56,4.81-1.01-.12-1.82-.85-2.83-.94-.43.11-1.24,1.65-1.76,2.1-2.53,2.17-6.62,1.95-9.68,1.48l3.78,2.1c3.37,1.39,11.82,3.51,15.31,3.19,1.41-.13,2.42-.84,3.66-1.14,5.64-1.38,9.85,3.53,15.78,3.06,4.51-.36,8.14-5.17,12.66-2.6,3.58,2.03,3.3,3.37,8.28,2.18,5.41-1.29,9.61-4.64,15.72-3.61,1.24.21,2.63,1.63,3.41,1.64.98.01,2.33-1.28,3.38-1.44,4.43-.69,9.45,1.1,13.23,3.3,1.91,1.11,4.24,2.63,5.12,4.72-.35.28-1.04.15-1.43,0-1.47-.58-4.41-3.82-6.44-4.84-2.47-1.24-7.76-2.48-10.44-1.93-1.2.24-2.33,1.73-3.65,1.65-.86-.05-2.44-1.57-3.71-1.84-6.99-1.45-13.7,5.53-19.65,4.05-1.83-.45-3.64-2.65-5.32-3.08-3.17-.81-5.31,1.66-8.06,2.51-7.49,2.32-13.03-3.57-18.89-2.57-.99.17-2.12.98-3.1,1.22-3.05.74-17.67-3.18-20.52-5.07-2.29-1.51-3.18-4.61-6.45-5.07-3.61-.5-5.86,1.97-8.91,3.04-5.71,2-10.21-1.49-15.76-1.12-3.93.27-7.09,1.84-11.19.32-2.04-.76-3.65-2.65-6.01-2.75v-.96Z"/><path d="M0,238.83c2.3-.34,3.77,1.67,5.59,2.45,4.57,1.93,9.31-.73,13.98-.53,5.32.22,8.47,3.08,14.26.84,2-.77,3.72-2.75,5.91-2.97,4.67-.47,9.01,4.45,13.89,4.31,2.77-.08,4.86-1.61,6.29-3.87,3.24.61,4.94,2.45,8.1,0,.38-.3,2.69-2.95,3-2.63-1.09,3.59-4.21,4.96-7.8,4.56-.82-.09-1.86-.78-2.39-.73-.68.07-1.52,1.58-2.21,2.13-2.5,1.99-6.48,2.02-9.44,1.24.18.44.68.73,1.07.96,2.78,1.66,15.42,5.07,18.32,4.39.97-.23,2.11-1.05,3.1-1.22,5.52-.93,10.44,3.64,16.51,3.07,3.45-.32,6.61-3.62,10.06-3.38,2.16.15,3.51,2.41,5.34,3.08,5.23,1.9,13.67-4.9,20.53-3.73,1.23.21,2.74,1.72,3.45,1.8.91.1,2.59-1.37,3.62-1.56,4.8-.9,12.32,2.18,16.02,5.23.82.67,1.94,1.75,2.29,2.75-.38.34-1.01-.13-1.36-.32-1.81-.95-3.35-2.57-5.04-3.6-2.78-1.7-8.65-3.49-11.85-2.82-1.16.25-2.59,1.79-3.47,1.79-.74,0-2.96-1.78-4.19-2.03-6.72-1.39-13.21,5.6-19.65,4.05-1.92-.46-3.76-2.62-5.56-3.08-2.84-.74-5.3,1.9-7.93,2.65-7.35,2.08-13.44-3.97-19.2-2.4-.91.25-1.9.88-2.82,1.02-3.14.5-17.12-3.13-19.91-4.93-1.61-1.04-2.46-2.89-3.93-3.99-5.2-3.86-9.16,1.96-14.29,2.47-4.11.41-8.07-1.86-11.97-1.89-4.32-.03-8.16,2.15-12.77.29-1.8-.73-3.45-2.7-5.59-2.45v-.96Z"/><path d="M171.84,88.35v1.68c-4.51,2.62-8.36,4.58-13.8,4.08-11.13-1.03-20.16-18.13-30.22-17.01-4.2.47-8.5,5.13-12.46,6.74-12.09,4.89-15.42-8.71-25.96-7.96-3.5.25-6.24,1.55-10.08,1.19-5.16-.48-9.73-4.96-15.31-4.02-1.32.22-2.71,1.4-4.14,1.4-.71,0-2.28-.48-2.29-1.34,0-1,.88-.22,1.38-.18,2.07.19,4.12-.57,6.19-.66,5.9-.27,9.34,3.26,14.87,3.61,4.07.25,7.82-1.62,11.94-1.14,7.98.91,11.72,10.14,20.88,8.51,3.73-.66,5.3-2.92,8.27-4.69,14.45-8.58,20.58,7.16,31.51,12.32,7.33,3.46,12.76,1.7,19.21-2.53Z"/><path d="M171.84,344.43v1.44c-5.23,3.67-10.91,5.55-17.23,3.43-8.96-3.01-17.52-17.23-27.03-16.12-5.1.6-9.79,6.97-15.41,7.63-8.08.95-10.77-5.18-17.01-7.9-5.77-2.52-9.84.71-15.36.24s-10.82-5.41-16.21-3.97c-1.2.32-2.63,1.37-3.93,1.31-.84-.04-2.02-.59-2.07-1.54-.04-.82,1.54.07,2.07.09,1.25.04,3.19-.6,4.54-.7,6.98-.48,10.34,3.45,16.55,3.61,3.97.1,7.42-1.73,11.71-1.15,6.3.85,10.72,8.04,17.09,8.59s7.36-2.43,11.82-5c14.51-8.36,20.86,8.12,32.15,12.88,7.14,3.01,12.15.99,18.33-2.85Z"/><path d="M171.84,216.27v1.68c-6.49,4.53-13.04,5.52-20.25,1.89s-14.42-14.25-22.15-14.82c-6.01-.44-11.23,7.19-17.76,7.86-8.26.85-11.77-7.18-18.8-8.74-4.31-.95-7.96,1.17-12.12,1.09-5.52-.1-10.94-4.98-16.27-4.26-2.06.28-3.44,1.89-5.71,1.27-.57-.16-1.66-.86-1.07-1.57,3.53.53,6.91-.57,10.55-.23s7.07,3.04,11.28,3.36c4.66.36,8.91-1.84,13.39-.91,6.92,1.44,10.97,9.14,18.75,8.55,4.86-.37,6.82-3.65,10.71-5.61,13.84-6.95,20.26,8.92,31.35,13.52,7.07,2.93,12.09.94,18.09-3.09Z"/><path d="M0,350.67c5.5,2.83,11.48,3.09,15.96-1.68,2.59,3.56,8.58,9.48,13.24,9.5,3.35.01,2.82-2.07,4.3-3.49,1.38-1.33,3.19,1.32,4.45,2.24,2.41,1.76,5.22,2.95,7.77.62,1.06-.96,1.84-3.11,2.64-3.83.86-.77.83.17,1.3.61,4.57,4.23,11.48,8.52,17.38,4.15,2.1-1.56,1.86-3.85,4.11-4.52l12.38,9.36h-1.68l-5.16-3.6c-.05,1.32,1.37,2.31,1.56,3.6h-.72c-.88-1.56-4.64-8.15-6.36-8.16-.83,0-1.78,2.57-2.28,3.24-4.88,6.57-15.8,1.86-19.8-3.48-2.72,3.39-4.23,6.57-9.24,4.67-1.43-.54-4.59-3.71-5.17-3.72s-1.78,2.35-2.82,2.93c-5.36,3.03-12.87-4.57-16.16-8.19-4.36,4.14-10.63,3.89-15.69,1.18v-1.44Z"/><path d="M0,248.43c1.32-.34,2.31-1.28,3.72-1.44,6.26-.71,14.4,2.95,17.64,8.4l-7.52-4.84c-4.33-2.18-9.7-3.9-13.84-.44v-1.68Z"/><path d="M0,120.51c1.28-.38,2.1-1.29,3.48-1.44,6.75-.73,14.03,2.63,17.88,8.16-.48.13-.65-.16-.97-.35-4.75-2.79-8.91-6.83-15-6.86-2.31-.01-3.44,1.05-5.39,1.93v-1.44Z"/><path d="M91.44,363.63h-3.12c.87-1.1,2.44-1.45,3.12,0Z"/><path d="M119.76,77.55c.65.55-2.54,1.56-2.82,1.62-10.35,2.24-15.32-6.43-22.96-6.16-1.06.04-4.19,1.53-3.98-.26,8.27-3.25,14.67,5.83,22.43,5.77,1.12,0,6.93-1.31,7.33-.97Z"/><path d="M119.76,333.39c.9.88-2.9,1.78-3.3,1.86-8.97,1.67-12.44-4.16-19.73-5.83-2.58-.59-4.08,0-6.59.13l-.14-.6c7.44-3.62,13.8,4.66,20.55,5.37,3.15.33,6.12-.57,9.21-.93Z"/><path d="M119.76,205.47c.17,1.27-1.91,1.45-2.83,1.61-8.9,1.55-10.6-1.65-17.73-4.7-3.7-1.58-4.63-1.47-8.47-.86-1.17.19-1.15-.58-.4-.9.33-.14,1.36-.37,1.73-.41,8.51-.89,13.63,7.21,22.78,6.22,1.61-.18,3.19-1.28,4.92-.96Z"/></svg>