<?xml version="1.0" encoding="UTF-8"?><svg id="a" xmlns="http://www.w3.org/2000/svg" width="60.62mm" height="128.52mm" viewBox="0 0 171.84 364.32"><path d="M171.84,178.32c-14.38-.03-28.69-1.54-43.09-1.21-.52.01-.92.4-1.19.4-.31,0-.88-.42-1.68-.41-2.5.03-4.95,2.19-6.96-.4l-2.88,2.09c-.23,0-.76-1.63-1.63-1.41-1.49.38-2.33,6.11-3.03,7.55-.14.29-.17.63-.62.59-.42.04-.49-.29-.62-.59-.4-.9-.2-7.34-1.06-7.34-.64.5-.8,1.36-1.01,2.11-.9,3.25-.89,6.88-1.59,10.17-.09.44.03,1.35-.64,1.16-.31-7.43.64-15.03.25-22.45-.06-1.16-.23-3.46-.56-4.48-.11-.36-.23-.8-.65-.91-.61,2.71-.95,5.51-1.2,8.28-.55,5.97-.21,19.62-2.52,24.36-1.01,2.07-1.88.48-2.04-1.08-1.17-11.68,2.84-25.24,1.91-37.19l-.71-2.52c-2.94,14.48-1.01,29.98-5.11,44.21-.41,1.43-.9,3.43-1.85,4.51-.02-5.09-.02-10.18.23-15.25.48-9.99,1.87-19.99,2.18-29.98.06-2.07.31-7.79-.17-9.45-.09-.3-.2-.7-.56-.76-.81,3.4-1.15,6.95-1.44,10.44-.93,11.18-1.02,22.43-2.16,33.6-.61,5.93-1.43,14.16-3.66,19.62-2.85,6.99-4.51,1.41-4.75-2.81-.68-11.63,2.42-23.77,3.37-35.29.64-7.78.15-15.77.96-23.52.16-1.48,1.9-12.65,2.41-13.07,1.29-1.08,1.84,2.85,1.9,3.47.93,9.56-.49,23.77-1.44,33.6-1.19,12.27-3.62,24.45-3.6,36.84l.84-2.16c2.79-11.31,4.03-23.5,4.68-35.16.42-7.42-.36-17.38,1.8-24.36.27-.87.92-3.3,2.07-2.49.98,1.33.77,10.1.7,12.22-.35,10.89-2.16,21.87-2.65,32.63-.13,2.83.09,5.69,0,8.52l1.32-4.56c2.37-10.9,1.62-22.2,2.76-33.24.15-1.41.97-8.78,2.06-9.22l.6.13c.48.6.88,4.07.94,5.02.6,9.59-1.35,19.04-1.92,28.56-.16,2.75-.31,5.54,0,8.28.43.09.47-.13.68-.4,2.31-3.03,2.15-21.2,2.68-26.12.12-1.07.91-7.03,1.82-7.31,1.25,0,1.4,2.44,1.53,3.47.66,5,0,10.42.24,15.48l3.12-12.48c1.55-1.05,1.72,5.2,2.16,5.52.64.11.69-.64,1.08-.96,2.89-2.36,2.89,1.39,4.32,1.67s3.56-.39,5.27-.23c1.81.17,4.16.95,6.02,1.18,11.81,1.49,25.81,1.75,37.66.74,1.79-.15,3.61-.51,5.4-.72v.72c-4.31.54-8.69.75-12.96,1.32l12.96.36v.72ZM85.44,214.08c.71-3.12.27-6.34.47-9.49,1.32-20.21,5.28-40.41,5.31-60.71,0-1.5-.38-3.23-.74-4.68-.38.06-.41.94-.5,1.3-3.14,11.88-2.04,24.6-3.1,36.74-.75,8.65-3,17.25-3.36,25.92-.14,3.42-.2,8.12,1.91,10.92ZM111.84,174.72l-1.68-5.04-1.18,6.62c.04.72,1.15.75,1.37,1.71.34,1.52-.02,4.15.29,5.83l2.29-6.23c1.5-4.12,2.91.23,3.35.23.93-.79,1-1.79,2.4-1.92,1.89-.18,1.78,1.13,2.64,1.21s2.99-.63,4.08-.72c1.9-.15,3.96.1,5.87,0l-9.24-1.67c-1.55-.1-3.79.61-5.23.19-.9-.26-1.26-2.06-1.53-2.12-1.44-.34-3.03,2.3-3.44,1.93Z"/><path d="M171.84,50.16c-8.96.17-17.82-.45-26.77-.71-6.43-.19-13.25-.68-19.68-.26-1.67.11-3.76,1.19-5.33.55-.49-.2-.89-1.03-1.34-.99l-2.69,1.9c-.49.07-1.03-2-2.16-.97s-1.72,5.73-2.57,7.27c-.66,1.18-1.14.58-1.33-.48-.14-.79-.08-6.78-.9-6.78-.64.5-.8,1.36-1.01,2.11-.9,3.24-.82,6.94-1.62,10.14-.1.42-.1,1.05-.61,1.19-.32-7.51.65-15.2.25-22.69-.07-1.25-.24-3.52-.66-4.62-.12-.3-.14-.71-.55-.77-.6,2.8-.94,5.67-1.2,8.52-.54,5.84-.2,18.55-2.12,23.32-.86,2.13-2.16,2.71-2.44-.04-.65-6.31.76-13.8,1.2-20.16.34-4.83,1.48-14.58.41-18.89-.06-.24-.07-.72-.41-.67-2.85,14.23-1.13,29.19-4.87,43.25-.47,1.75-.99,4.08-2.09,5.47-.02-5.09-.02-10.18.23-15.25.6-12.42,2.95-26.35,2.18-38.64-.03-.42-.09-1.57-.49-1.79-1.39,3.54-1.81,7.6-2.16,11.4-1.47,15.99,0,33.6-4.39,49.13-.4,1.42-2.54,9.19-4.67,5.53-3.84-6.62,1.65-31.63,2.34-40.26s.5-17.95,1.44-26.88c.14-1.29,1.14-9.49,2.08-9.73l1,.04c.33.93.66,1.98.75,2.97.82,8.97-.38,21.81-1.2,30.96-1.19,13.32-3.76,26.55-3.84,39.96l.96-2.03c5.82-18.65,1.82-40.33,6.07-58.97.17-.73.56-2.83,1.29-3.04.83-.21.97.22,1.21.87.56,1.57.59,3.8.56,5.46l-2.65,46.43.7-1.57c3.14-11.63,2.17-23.86,3.38-35.74.33-3.2.73-6.49,1.92-9.48.83-.63,1.36,2.48,1.41,2.79,1.52,9.54-1.07,21.44-1.65,31.17-.16,2.68-.32,5.38,0,8.04.37.08.5-.11.72-.36.76-.83,1.24-4.3,1.41-5.55.91-6.68.52-13.66,1.23-20.37.14-1.34,1.29-11.34,2.95-5.83.36,1.19.57,3.14.65,4.39.27,4.43-.2,9.1,0,13.56.35.04.39-.57.48-.83,1.28-3.75,1.29-8.12,2.39-11.95l.61-.31.54.19,1.26,5.47c.16.13,1.76-2.06,2.94-1.88,1.05.16,1.35,1.82,1.92,2.29.8.66,7.31.18,8.93.31,1.35.11,2.51.76,4.09.96,9.03,1.12,18.26,1.18,27.36,1.2l14.52-1.44v.96l-13.68,1.08c2.81.53,5.68.33,8.53.35.57,0,1.1.27,1.67.27,1.04,0,2.33-.5,3.48-.26v.72ZM85.44,86.16c.56-4.99.54-9.99.96-15,1.54-18.26,5.79-39.5,4.57-57.61-.05-.74-.17-1.9-.61-2.51-1.09,4.19-1.86,8.52-2.28,12.84-.81,8.36-.46,16.85-1.2,25.2-.92,10.28-4.32,23.27-3.09,33.33.15,1.23.54,3.02,1.65,3.75ZM111.84,46.8l-1.68-5.28-1.19,6.86c.01.54.74.62,1.07,1.06.69.92.36,5.07.61,6.48l3.52-7.89c1.2-.27,1.25,1.02,1.89,1.66.62.15,1.76-2.57,3.65-1.74.44.19.71.75,1.03.9.95.44,4.49-.41,5.88-.46,1.7-.06,3.65.27,5.4.1l-9.48-1.67c-1.67-.38-4.2.62-5.71.19-.98-.29-1-2.17-1.76-2.31l-3.21,2.12Z"/><path d="M171.84,306.24c-4.85.01-9.69-.04-14.53-.23-10.42-.4-20.78-1.23-31.19-.84-1.52.06-4.85,1.17-5.88.7-.35-.16-.63-.8-.97-.96-1.1-.52-2.23,1.19-3.03,1.79-.58.1-1.01-1.56-1.86-1.39-1.11.22-2.4,5.9-2.92,7.16-.3.73-.73,1.75-1.33.39-.55-1.25-.18-4.55-.56-6.16-.1-.41-.27-1.04-.85-.94-.9.67-1.86,10.75-2.37,12.64-.11.41.17.67-.51.55-.3-7.43.64-15.03.25-22.45-.06-1.16-.23-3.46-.56-4.48-.11-.36-.23-.8-.65-.91-.6,2.8-.94,5.67-1.2,8.52-.59,6.35-.45,13.15-1.23,19.41-.23,1.87-.64,5.36-2.85,5.67-.64-.44-.55-8.2-.49-9.49.35-7.83,1.7-15.86,1.94-23.74.07-2.23.2-5.52-.32-7.62-.06-.24-.07-.72-.41-.67-2.5,12.42-1.49,25.27-3.68,37.72-.59,3.37-1.44,7.06-2.74,10.23-.15.36.15.65-.54.53-.01-5.09-.02-10.18.23-15.25.6-12.38,2.99-26.41,2.18-38.64-.02-.36-.05-1.43-.49-1.55-1.41,3.59-1.81,7.56-2.16,11.4-1.46,15.83.27,37.1-5.28,51.84-.59,1.57-2.2,5.77-3.81,2.61-3.77-7.42,1.65-31.08,2.37-40.29.82-10.56.25-21.92,2.24-32.32.16-.83.77-5.01,2.09-4.17.62.8.83,1.93.92,2.92.87,8.94-.35,21.8-1.17,30.93-1.2,13.4-3.75,26.71-3.84,40.2l1.07-2.41c5.3-18.45,2.21-38.79,5.73-57.39.16-.85.78-5.05,2.08-4.41s1.26,5.23,1.21,6.5l-2.65,46.43,1.36-4.27c2.16-9.99,1.65-20.28,2.48-30.4.33-4.05.66-8.34,2.18-12.09.92-.59,1.28,2.05,1.38,2.76,1.46,9.71-1.06,21.11-1.65,30.93-.16,2.75-.31,5.54,0,8.28.43.09.47-.13.68-.4,2.25-2.96,2.09-18.97,2.44-23.48.26-3.34.73-6.76,1.68-9.96,1.14-.17,1.4,1.25,1.6,2.11s.55,2.78.55,3.53v14.04l3.25-13.19c.68-.21.92.6,1.08,1.06.53,1.5.4,3.19.95,4.69.98-.58,1.65-2.11,2.98-1.93,1.13.16,1.37,2.4,2.66,2.64,2.79.53,6.98-.74,9.77.26.18.06.11.43.53.48,9.24,1.08,19.57,1.62,28.82,1.18.96-.04,1.92.04,2.88,0l12.12-1.2v.72c-4.61.68-9.28.99-13.92,1.32,4.62.46,9.27.37,13.92.36v.72ZM85.44,342.24c.56-4.99.54-9.99.96-15,1.1-13.13,3.19-26.2,4.08-39.36.39-5.8.88-12.74.49-18.49-.06-.85-.31-1.68-.49-2.51l-1.13,4.27c-2.31,11.18-1.45,22.72-2.47,34.01-.89,9.9-4.41,23.55-3.09,33.09.19,1.37.5,3.1,1.65,3.99ZM111.84,302.64l-1.68-5.04-1.22,6.85c0,.51,1.19.74,1.41,1.48.37,1.28-.04,4.31.29,5.83l3.49-7.91c.67-.19,1.78,1.23,1.79,1.91.58.43,1.89-2.78,4.02-1.74.46.22.53.75.78.9.8.5,4.2-.59,5.4-.61,1.61-.03,3.46.52,5.16.25.06-.33-.43-.36-.66-.41-2.12-.46-6.82-1.33-8.86-1.41-1.29-.05-3.61.58-4.71.34-1.29-.29-1.19-2.32-2.21-2.35-.8-.02-2.61,2.22-3,1.92Z"/><path d="M0,46.56c11.72,1.8,23.56,2.45,35.4,1.44,7.09-.61,15.85-2.59,22.8-2.15.92.06,1.95.58,2.86.47,1.31-.15,2.92-1.89,3.92-2.11.84-.18,1.72.3,2.22.08,1.63-.71,2.46-5.93,4.22-5.89.97.02,1.27,3.17,1.32,3.95.16,2.38-.04,4.83.22,7.22.04.36.05.74.49.83,1.85-6.39.25-14.94,2.94-20.95,1.01-2.26,2.1-2.78,2.36.18.73,8.37-1.26,21.97-2.69,30.45-.21,1.24-1.16,7.46-2.02,7.82l-.6-.13c-1.89-5.42-1.37-11.42-3.1-16.89-.52-.39-1.55,1.68-1.8,1.67-1.27-1.44-.98-3.8-2.64-4.98-.64-.05-2.2,2.18-2.91,2.55-1.79.92-4.22-.81-6.2-.94-2.66-.17-5.95.76-8.65.97-10.03.77-20.85-.47-30.95-.73l-17.17-.23v-.72l4.56-.12-4.56-.84v-.96ZM74.16,65.28c1.46-9.12,3.07-18.22,3.61-27.47v-8.77c-.39.11-.62.96-.74,1.31-1.83,5.33-1.57,12.35-2.42,17.98-.08.55-.5,3.45-1.05,3.5-.76-.25-1.09-1.34-1.26-2.09-.74-3.27.11-7.06-.78-10.38-1.66.94-2.18,5.68-4.19,5.78-.62.03-1.03-.33-1.81-.17-1.08.22-2.37,1.68-3.57,1.96-1.56.37-4.56-.46-6.62-.37-7.22.3-15,1.76-22.34,2.39-.42.04-.79-.03-1.07.37,4.88,0,9.89.42,14.77.13,3.57-.21,7.19-1.29,10.8-.98,1.38.12,3.48,1.26,4.3,1.2,1.73-.11,2.36-3.55,4.76-2.82.89.27,2.03,3.08,2.09,4.03.35.36,1.17-1.16,1.2-1.44.31-.07.4.03.6.23,1.22,1.14,2.17,11.49,2.82,13.98.06.21.47,2.2.89,1.63Z"/><path d="M0,302.64c11.51,1.59,22.82,2.39,34.44,1.44,7.2-.59,15.23-2.32,22.33-2.41,1.81-.02,3.45,1.07,5.31.29.81-.34,1.89-1.4,2.71-1.61s1.56.01,2.28-.12c1.69-.31,2.55-5.92,4.31-5.77.82.13.88.96,1.03,1.64.65,3.05.14,6.63.55,9.78l.48.36c1.69-6.27.49-13.55,2.53-19.67.28-.84,1.07-3.26,2.12-2.86.54.34.59,1.16.64,1.76.72,8.7-1.34,23.55-2.96,32.34-.25,1.34-.79,4.74-1.37,5.77-.14.25-.37.27-.61.37-.51-.07-.88-1.58-1-2.06-.8-3.04-.82-6.39-1.31-9.49-.12-.76-.84-5.68-1.53-5.67-.65.56-.75,1.87-1.79,1.67-.47-.89-1.16-4.5-2.08-4.78-.86-.26-2.5,2.75-4.05,2.88-1.36.12-3.24-1.08-4.79-1.23-3.38-.32-6.94.8-10.32.98-5.09.27-10.3-.14-15.36-.26-6.24-.16-12.52-.24-18.72-.72H0s0-.71,0-.71l4.8-.12-4.8-.84v-.96ZM74.16,321.12c1.48-9.04,3.06-18.07,3.61-27.23v-8.77s-1.04,2.21-1.04,2.21c-1.59,6.68-1.33,13.66-2.82,20.35-1.06.14-1.42-1.04-1.62-1.86-.4-1.67-.22-9.86-.78-10.38-.38-.34-.42.14-.55.3-.83,1.06-1.95,4.68-2.81,5.1-.68.33-1.96-.01-2.89.23-1.16.3-2.32,1.81-3.78,2-1.22.16-2.98-.58-4.26-.62-1.48-.05-3.92.29-5.52.43-6.92.59-13.79,2.02-20.76,2.16l4.19.49c7.25,1.07,15.64-1.58,22.58-.98,1.29.11,3.46,1.22,4.08,1.19,1.26-.06,2.39-3.01,3.85-3.1,1.56-.1,2.81,2.74,2.98,4.08.96.05.87-1.48,1.9-1.19,1.57,4.22,1.56,8.84,2.53,13.2.13.6.32,1.57.55,2.09.15.33.03.38.54.3Z"/><path d="M0,174.72c4.61.29,9.2,1.1,13.8,1.44,7.44.55,14.89.42,22.32-.24,6.25-.55,13-1.98,19.2-2.16,1.92-.05,4.46.69,5.98.46,1.15-.18,2.3-1.51,3.24-1.8,2.14-.64,2.34.93,3.89-1.63.93-1.54,1.22-4.35,3.41-4.26.97.23.95,9.56,1.17,11.12.03.21.11.72.42.66,1.55-6.04.65-12.8,2.23-18.77.48-1.79,2.62-6.73,3.06-2,.74,8.02-1.17,20.85-2.45,29.01-.22,1.39-1.29,8.86-2.26,9.26l-.6-.13c-1.51-4.11-1.42-8.61-2.18-12.9-.12-.66-.62-3.99-1.28-3.99l-1.07,1.53-.5.04c-1.18-1.33-.84-3.51-2.3-4.68-.34-.06-1.93,1.8-2.65,2.11-2.06.88-4.74-.61-6.95-.66-3.06-.06-6.89.99-10.06,1.17-9.47.54-19.55-.71-29.03-.97l-17.41-.23v-.48l4.08-.36-4.08-.6v-.96ZM74.16,193.44c1.7-10.81,3.59-21.78,3.84-32.76,0-.41.25-.82.25-1.21,0-.8-.42-1.65-.25-2.51-1.31,1.13-1.54,3.55-1.84,5.24-1.03,5.81-.92,11.8-2.24,17.56-1.24.11-1.4-1.19-1.61-2.11-.75-3.3.07-7.01-.79-10.37-.41-.42-2.84,5.26-3.22,5.54-.71.51-2.27.03-3.27.33-.86.26-2.07,1.55-3.04,1.76-2.3.47-5.61-.29-8.1-.18-4.7.19-9.49,1.18-14.16,1.68-2.91.31-5.85.37-8.76.72-.06.42.54.23.84.24,4.29.17,8.92.47,13.21.25,5.61-.28,11.47-2.52,16.79.14,1.64-.59,2.73-3.58,4.74-2.98,1.31.39,1.75,4.04,2.21,4.03.57-.46.95-1.34,1.79-1.18,1.72,4.41,1.5,9.45,2.72,13.96.16.58.32,1.58.89,1.87Z"/><path d="M171.84,110.88c-2.28-2.76-3.77,1.81-4.56,3.6l-1.68-.96c-1.32,5.28-2.3,10.74-3.83,15.97-.1.35.14.42-.48.35-.66-.66-2.43-16.2-2.64-18.36-.48-4.95-1.2-11.19-.97-16.09.04-.86.42-5.12,1.12-5.36.25-.08.55-.01.81-.03l2.64,22.08.69-2.79c0-1.31.61-8.11,1.46-8.61.28-.17.77-.18,1.08-.12,1.21.23,2.38,4.93,3.48,5.89l2.88.36v.96l-3.5-.7-3.22-5.54-3.12,12.48-2.89-22.32c-.35-.04-.43.63-.46.86-.41,3.74-.11,8.65.22,12.46.63,7.34,2.28,14.61,2.64,21.96.44.55.83-1.19.89-1.39,1.36-4.32,1.34-9.21,2.95-13.49.75-.14,1.08.52,1.56.95,1.15-2.02,1.95-5.37,4.92-3.6v1.44Z"/><path d="M171.84,238.8c-.52-.3-1.08-1.1-1.75-.93-.88.23-2.53,3.55-2.81,4.53l-1.68-.96c-1.31,5.29-2.3,10.74-3.83,15.97-.1.35.14.42-.48.35-.62-.61-2.2-14.01-2.4-15.96-.7-6.73-1.65-14.89-.93-21.57.05-.49.27-1.74.57-2.07.4-.54.68-.07.94.25,1.92,2.4,1.58,11.86,1.82,15.22.16,2.2.53,4.41.72,6.6l2.65-11.75c1.44-1.19,3.4,5.22,4.17,5.77.59.42,2.21.12,3.02.7v.96c-.88-.77-2.81-.51-3.5-.94-.61-.39-2.77-5.65-3.22-5.3l-3,12.24-3-22.08c-.4,0-.46.8-.48,1.08-.36,4.53.06,10.07.51,14.61.64,6.46,2.06,12.85,2.37,19.35.44.55.83-1.19.89-1.39,1.03-3.28,1.28-7.02,2.1-10.37.37-1.51.66-4.48,2.4-2.16,1.06-1.94,2.18-5.61,4.92-3.36v1.2Z"/><path d="M22.56,364.32h-.96c-.3-5.92.4-12.24,0-18.12-.32-4.59-1.68-9.48-1.95-14.13l-.56-2.07c-.24,1.03-.54,2.19-.6,3.24-.19,3.2.63,6.4.73,9.59.05,1.72-.05,3.36,0,5.04.17,5.49.12,10.96.47,16.45h-.96c-.52-5.96-.39-11.9-.49-17.89-.04-2.42-.2-4.97-.24-7.42-.03-2.09-.32-9.45.44-10.86,1.14-2.13,2.19,2.67,2.38,3.48.96,4.16,1.36,10.01,1.52,14.32.23,6.1-.39,12.31.23,18.37Z"/><path d="M146.64,364.32c-.14-2.92-.13-5.85-.23-8.77-.2-6.06-.32-12.15-.5-18.22-.06-2.01-.27-7.95.66-9.43.26-.41.7-.5,1.04-.14,2.98,8.53,2.38,17.71,2.62,26.61.02.57.25,1.09.26,1.66.06,2.76-.06,5.53,0,8.29h-.72c-.03-.83.05-1.68,0-2.52-.6-9.09.27-18.52-1.27-27.53-.11-.62-1.01-4.9-1.25-4.99-.47-.18-.57,1.3-.59,1.57-.15,1.88-.07,4.33-.01,6.25.16,5.17.59,10.41.74,15.58.11,3.88.1,7.77.23,11.65h-.96Z"/><path d="M0,233.04c.94,2.32-.05,5.39,1.68,7.44.39-3.86.33-7.78.72-11.64.24-2.38,1.35-9.23,2.57-2.58,1,5.4.51,18.32-.49,23.86-.46,2.58-1.43,5.04-2.41.87-.56-2.39-.35-5.04-.66-7.5l-1.42-4.22v-6.24ZM3.36,251.52c1.56-8.49,1.63-17.59.6-26.16-1.17,6.84-1.99,14.25-1.56,21.24.07,1.17.3,2.85.56,4.01.06.28.03.95.4.91Z"/><path d="M0,105.84c.64,1.8.59,3.86,1.17,5.67.1.32.08.73.51.81.79-5.6-.1-11.41,1.93-16.8.47-.07.73.28.89.66,1.26,2.9.94,14.28.78,17.94-.08,1.93-.27,4.3-.51,6.21-.05.39-.89,5.99-1.89,4.95l-2.88-14.16v-5.28ZM3.36,123.6c1.56-8.49,1.63-17.59.6-26.16-1.18,6.85-1.99,14.26-1.56,21.24.07,1.17.3,2.85.56,4.01.06.28.03.95.4.91Z"/><path d="M17.28,0c.23,5.67,1.14,11.32,2.52,16.8.57-5.54.51-11.26.12-16.8h.72c.27.4.24.85.25,1.31.07,2.43.3,5.08.24,7.46s-.75,5.46-.73,7.91c0,.32.3,2.28.6,2.28,1.53-1.84,2.12-4.96,2.28-7.32.26-3.71,0-7.94-.24-11.64h.72c.18,4.63.59,9.64-.03,14.25-.83,6.18-3.84,8.94-5.65,1.15-1.15-4.91-1.31-10.38-1.52-15.4h.72Z"/><path d="M152.64,364.32l-.73-11.15c.43-6.08-1.21-12.57.47-18.46,1.19-.77,1.77.78,2.13,1.71,1.72,4.43,1.2,12.94,1.49,17.95.19,3.31.68,6.63.73,9.95h-.72c-.07-3-.55-6.01-.72-9-.38-6.6.21-13.49-1.93-19.8-.17-.13-.42.39-.49.58-.78,2.03-.23,5.15-.21,7.21.06,7.02.42,13.99.71,21.01h-.72Z"/><path d="M145.2,0c.65,5.25.77,11.43,2.36,16.48.1.32.08.73.51.8.5-5.73.24-11.55-.24-17.28h.96c.01,3.32.39,6.63.25,9.97-.1,2.56-.7,5.09-.5,7.68.26,3.33,1.68-.77,1.99-1.87,1.42-5.03.72-10.63.66-15.78h.48c.24,4.63.6,9.88-.03,14.49-.98,7.13-4.02,7.85-5.62.4-1.04-4.84-1.1-9.97-1.55-14.89h.72Z"/><path d="M28.56,364.32h-.48l-.96-11.88c-.01-3.91-.01-7.87-.48-11.76-.08-.69-.86-4.81-1.32-4.92-.41-.1-.4.16-.48.47-.94,3.62-.23,7.96-.11,11.64.17,5.5.35,10.95.71,16.45h-.72l-.97-14.99c.24-3.92-.28-8.14,0-12.02.2-2.73,1.28-4.2,2.69-.99,1.87,4.24,1.17,12.78,1.39,17.57.12,2.71.53,5.45.73,8.15.05.76-.03,1.52,0,2.28Z"/><path d="M16.8,364.32h-.72c-.07-2.84.09-5.69,0-8.53-.02-.57-.24-1.09-.26-1.66-.17-5.17.22-10.84-1.55-15.73-.28,0-.6,3.19-.61,3.71-.02,1.06.26,1.98.26,2.88.03,6.47.28,12.86.23,19.33h-.96c-.04-5.72.05-11.45,0-17.17-.02-3.01-.43-5.71,0-8.85s1.7-.76,2.26.83c1.26,3.62,1.23,12.73,1.34,16.9.07,2.76-.07,5.53,0,8.29Z"/><path d="M141.36,364.32c-.05-5.72.07-11.45,0-17.17-.03-2.6-.46-5.27-.26-7.92.05-.68.19-2.53,1.09-2.51.26,0,1.19,2.33,1.33,2.76,1.29,4.22.51,9.1,1.21,13.43v11.41h-.73v-11.17c-.74-4.87.25-10.15-1.8-14.75l-.12,25.92h-.72Z"/><path d="M134.88,364.32c.09-3.07-.12-6.18,0-9.25.02-.57.23-1.09.26-1.66.17-3.45-.05-7,1.55-10.21l.6.17c1.22,2.15.82,3.92.95,6.2.03.57.24,1.09.26,1.66.16,4.35-.14,8.74,0,13.09h-.72c-.09-3.8.11-7.61,0-11.41-.05-1.94-.07-4.61-.25-6.47-.09-.93-.46-1.8-.88-.41-.49,1.65-.71,4.86-.8,6.65-.19,3.88.22,7.76.24,11.64h-1.2Z"/><path d="M10.56,364.32h-.72l-.23-17.65-.61-1.56c-.47,0-1.05,5.86-1.09,6.59-.21,4.11.04,8.51.25,12.61h-1.2c.2-6.46-.6-13.17,1.03-19.49.92-3.59,1.92-.05,2.33,1.61l.24,17.88Z"/><path d="M158.4,364.32c-.34-6.05-1.49-12.31.14-18.25l1.06.02,2.16,18.24h-.48l-2.28-16.56c-.17,0-.32.68-.34.86-.2,1.92-.06,3.87-.02,5.74.06,3.34.11,6.68.72,9.96h-.96Z"/><path d="M30.48,364.32c-.5-6.01-1.57-12.38.15-18.25h1.05s2.16,18.25,2.16,18.25h-.72l-2.28-16.32c-.9,5.41.04,10.9.36,16.32h-.72Z"/><path d="M26.64,0l.24,12.24c2.74-3.13,1.66-8.35,1.92-12.24h.72c-.1,3.21.12,6.99-.55,10.13-.26,1.24-.8,3.03-2.22,3.3-1.02-.02-1.25-2.65-1.31-3.48-.25-3.22.18-6.71,0-9.96h1.2Z"/><path d="M154.56,0c-.2,1.18.2,2.36.25,3.47.1,2.43-.2,5.07-.02,7.46.03.43-.07.78.37,1.06,2.36-3.26,1.3-8.12,1.8-12h.48c-.08,2.03.11,4.09,0,6.12-.07,1.26-.26,3.53-.59,4.69s-1.19,2.73-2.62,2.65c-.21-.05-.57-1.33-.61-1.6-.12-.92-.22-2.38-.27-3.33-.15-2.85.12-5.7.25-8.53h.96Z"/><path d="M35.04,364.32c.1-1.84.24-3.93.64-5.72,1.27-5.66,3.52.89,4.52,2.61,1.15,1.98.72.94,2.34,1.24,3.03.57,3.16,1.35,7.02,1.38,3.24.03,6.56-.25,9.73.49h-14.64c-.59-.28-1.83-1-2.4-1.09-.5-.08-.88.19-1.31.14-1.11-.13-2.82-4.71-3.5-5.77-.35.03-.38.35-.47.61-.64,1.81-.77,4.24-1.45,6.11h-.48Z"/><path d="M130.08,364.32c.18-3.45-.37-8.64,1.01-11.83.59-1.35,1.08-1.23,1.5.07,1.14,3.55.74,8.06.85,11.76h-.72c-.18-3.16-.22-6.61-.72-9.72-.06-.36-.01-.74-.48-.84l-.96,10.56h-.48Z"/><path d="M1.92,364.32c.42-3.23.14-6.39.79-9.65.31-1.56,1.13-5.03,2.02-1.68.95,3.62.4,7.62.55,11.33h-.72c0-3.61.14-7.26-.6-10.8l-1.32,10.8h-.72Z"/><path d="M171.84,362.88v.96c-.58,0-1.18-.5-1.65-.59-.58-.1-1.19.36-1.88-.2-1.07-.88-1.77-4.51-3.18-5.45l-1.44,6.72h-.72c.3-1.99.26-4.32.84-6.24,1.47-4.93,3.75,2.19,4.64,3.53,1.15,1.75,1.76.25,3.41,1.27Z"/><path d="M14.4,0l1.2,8.3.97.22c-1.1,3.88-1.99.43-2.33-1.52-.39-2.26-.54-4.72-.55-7.01h.72Z"/><path d="M142.56,0l.96,8.64,1.2-.48c-.65,2.27-1.47,3.28-2.09.29-.57-2.76-.58-5.67-1.03-8.45h.96Z"/><path d="M128.64,364.32h-1.2c-.11-1.41.39-3.13-.6-4.32-.56,0-1.26,3.67-1.32,4.32h-.72c.12-1.11.53-5.64,2-5.46s1.41,4.33,1.84,5.46Z"/><path d="M123.84,364.32h-3.6c.64-1.98,2.99-2.01,3.6,0Z"/><path d="M138.24,0c-.05,2.37-2.18,2.62-2.4,0h2.4Z"/><path d="M10.32,0c-.73,2.25-2.27,2.95-2.4,0h2.4Z"/><path d="M162,0c-.07,2.33-.86,2.18-1.2,0h1.2Z"/><polygon points="34.08 0 33.72 1.68 32.88 0 34.08 0"/><path d="M31.62,218.21c2.13,7.19,1.16,14.92,2.46,22.27l.65-2.1c.28-1.76.67-8.69,1.62-9.66,1.61-1.64,3.13,3.32,3.69,4.25,1.25,2.06.93,1.1,2.75,1.57,2.94.77,3.22,1.47,6.78,1.39,13.98-.28,27.73,3.13,41.76,2.64,7.36-.26,15.75-2.19,22.8-2.18,1.6,0,3.53.62,5.18.61,2.34-2.58,2.9-3.11,5.24-.12.46-1.6.48-3.68,1.19-5.17.24-.51.41-.89,1.08-.84.83.07,1.09,1.64,1.26,2.36.37,1.61.47,3.26.62,4.9l.89,2.82c.84-4.31.12-8.74.75-13.05.54-3.62,2.12-7.3,2.84-.99.67,5.87.38,14.24-.24,20.15-.07.71-.79,7.24-2.4,6.12-.99-3.16-.67-6.74-1.22-9.94-.35-2.05-1.63-4.54-1.88-6.52-.19-1.48.57-3.84-.74-4.66l-1.92,6-3-2.36c-.71.45-1.89,2.23-2.67,2.31-.45.04-1.06-.56-1.66-.66-3.73-.6-8.58,1.01-12.35,1.31l9.02.85c.68.07.96-.68,1.53-.87,2.31-.76,3.81,2.01,4.9,1.83,3.21-5.66,4.99,2.57,5.68,5.26l.48-2.04c.04-1.35-.22-3.27.96-4.2.21,1.54-.32,2.97-.47,4.44-.06.61.19,3.36-.39,3.49-.3.07-.72,0-.94-.25-.63-.75-1.79-7.92-3.12-7.92-.75.76-1.38,2.19-2.65,2.17-1.12-.01-2-2.1-2.88-2.19-4.33,2.08-9.14.25-13.66,0-12.87-.71-26.21,1.31-39.14.74-4.31-.19-10.74-1.7-14.76-.62-1.57.42-2.83,1.75-4.64.82-.77-.4-2.08-2.55-2.86-2.34-.92.24-2.65,3.51-2.81,4.53-.81.18-1.07-.66-1.67-.96l-4.2,16.31c-.6,0-1.41-6.05-1.53-6.87-1.24-8.47-3.13-21.96-2.17-30.18.11-.95.56-3.36,1.84-2.49ZM33.84,241.92l-3.12-22.08c-1.03,11.86,1.95,23.53,2.88,35.28.49-.15.57-.68.7-1.09,1.48-4.47,1.37-9.62,3.14-14.03l1.67,1.2c.23-1.21,1.38-3.82,2.63-4.22,2.26-.72,2.96,2.77,4.69,2.8.8.01,1.75-.85,2.53-1.1,4.22-1.34,13.56.41,18.35.61,3.63.15,7.9.14,11.53,0,.29-.01.89.18.84-.24-7.59-.33-15.11-1.86-22.68-2.4-3.51-.25-7.53.34-10.74-.06-2.02-.26-3.79-1.62-5.89-1.43l-3.05-5.47c-.41-.01-1.92,7.13-2.12,7.96-.29,1.24-.31,2.88-.86,3.93-.13.24.13.46-.5.34ZM131.04,251.52c1.43-5.69,1.96-11.75,1.68-17.64-.1-2.2-.36-5.26-.74-7.42-.04-.21-.15-.87-.33-.87-.84,4.88-.91,9.83-1.07,14.77-.11,3.43-.37,6.29.02,9.8.03.28.11,1.32.45,1.35Z"/><path d="M31.68,90l2.64,21.6c.36-.05.39-1.03.44-1.35.25-1.6.59-8.91,1.71-9.57.32-.19.73-.13,1.09-.14.2-.05.27.08.38.18.89.79,2.1,5.01,2.96,5.62.56.41,1.27.12,1.88.28,1.38.35,2.75,1.14,4.2,1.32,2.37.3,5.71-.28,8.34-.18,14.71.59,26.95,3.54,42.24,2.4,7.17-.54,14.43-2.27,21.59-1.2,1.38-.25,1.82-3.41,4.03-1.68.32.25,1,1.8,1.38,1.44.59-1.37.45-6.04,2.52-5.77.67.09,1.14,2.61,1.26,3.32.34,1.96.24,3.92.85,5.87.08.25.06.73.41.67.84-4.3.17-8.72.75-13.05.09-.66.7-5.02,1.89-4.23.49.33,1.17,6.11,1.22,7.07.27,5.25.16,12.07-.52,17.26-.11.85-.8,4.95-1.55,5.18-.32.09-.48.01-.7-.22-1.03-1.1-1.04-7.75-1.38-9.66-.36-2.05-1.52-4.36-1.8-6.36-.14-1.05.27-4.18-.67-4.62-.43-.2-.61.81-.67,1.01-.2.69-.91,4.67-1.29,4.76-1.57.38-1.71-1.76-2.85-2.41-1.65,1.53-2.41,3.42-4.85,1.73-4.13-.05-8.21.98-12.31,1.39-.06.42.54.23.84.24,2.97.11,5.93.39,8.89.62,2.19-2.1,3.79-.1,5.75.99.47-.04,1.14-1.75,2.03-2,1.97-.54,3.57,5.91,3.85,7.34l.48-2.28c.02-1.33-.24-3.05.96-3.96l-.6,7.44c-1.07,1.26-1.24-.16-1.57-1.07-.6-1.65-.9-3.48-1.63-5.09-1.68-3.71-1.88.67-3.76.67-1.11,0-2-2.1-2.89-2.19-4.24,1.88-8.58.24-12.94,0-12.79-.71-25.93,1.25-38.66.74-4.6-.18-9.88-1.37-14.4-.98-1.77.15-3.76,1.52-5.03,1.46-2.05-.09-3.25-4.81-5.36-1.54-.99,1.52-.66,4.68-3.16,2.48l-4.2,16.31c-.58-.01-1.4-6.48-1.53-7.35-.98-6.97-1.96-15.03-2.2-22.04-.12-3.48-.13-7.06.75-10.43l1.18-.03ZM33.84,114l-3.12-22.08c-1.04,11.85,2,23.53,2.88,35.28.8-.76,1.02-2.33,1.27-3.4.7-2.92.94-5.97,1.68-8.88.17-.68.49-3.06,1.44-2.8l1.12.93c.15-1,1.5-3.67,2.39-3.97,2.36-.79,3.31,2.57,4.73,2.72.75.08,2.67-1.27,4.04-1.39,8.68-.78,18.31,1.78,27.14.98l2.03-.49c-1.71,0-3.46-.08-5.16-.24-6.39-.61-13.06-1.88-19.44-2.16-2.72-.12-5.8.5-8.34.18-1.42-.18-2.7-.9-4.01-1.27-.7-.2-1.44.08-2.07-.33l-3.1-5.29c-.56,0-2.36,9.72-2.63,10.8-.04.18-.45,1.97-.85,1.43ZM131.04,123.6c1.41-5.71,1.96-11.74,1.68-17.64-.1-2.2-.36-5.26-.74-7.42-.04-.21-.15-.87-.33-.87-.84,4.72-.9,9.51-1.07,14.29-.13,3.55-.43,6.66.02,10.28.04.29.11,1.31.45,1.35Z"/><path d="M142.08,210.72c-.33,1.61-.29,3.29-.25,4.93.02.68.25,1.27.26,1.9.25,15.75-.75,31.55,1.43,47.17l1.2-.36-.71,1.69-1-.03c-.62-3.15-1.12-6.38-1.41-9.58-1.19-12.97-1.4-27.78-.71-40.79.06-1.11-.26-6.87,1.31-6.86.54.04.61.52.78.91,1.09,2.51,1.58,8.59,1.74,11.46.85,14.77-.76,29.69,1.47,44.37.4,2.64.99,5.26,1.64,7.84l.49-2.27c.39-14.19-1.71-28.31-2.18-42.48-.19-5.84.15-11.7.02-17.54-.06-2.98-.77-5.78-.19-8.81.19-.98.59-1.88.9-2.82,1.04-.79,2,4.58,2.08,5,2.23,11.52,1.04,22.69,1.51,34.25.41,10.22,2.94,23.62.9,33.52-.38,1.82-1.86,5.9-3.87,3.05-2.97-4.19-3.39-26.49-3.51-32.49-.18-8.94.95-20.92-.82-29.42-.17-.8-.43-2.13-1.09-2.63ZM147.36,201.6c-.59-.07-.38,0-.5.34-.64,1.73-.4,3.29-.44,5.07-.49,21.17,3.02,42.39,2.14,63.58-.06,1.39-.18,3.21.37,4.45,2.98-3.92,2.31-9.61,2.53-14.29-2.32-15.34-.89-30.94-1.93-46.31-.29-4.34-.92-8.68-2.16-12.84Z"/><path d="M14.4,210.48c-.42-.06-.23.55-.24.84-.23,6.17-.21,12.55-.25,18.71-.08,11.38-.22,22.8,1.49,34.05l.31.35c1.7-.96.42,1.87,0,1.97-.68.16-1.14-1.65-1.25-2.11-1.26-5.24-1.07-12.24-1.27-17.69-.33-9.14-.48-18.2-.23-27.35.04-1.6-.34-9.74.75-10.41l.95.11c.77,1.67,1.11,3.47,1.38,5.28,2.08,13.7.12,29.29,1.24,43.4.4,5.06,1.35,10.06,2.4,15l.49-2.75c.48-18.31-2.73-36.42-1.92-54.74-.06-3.97-1.07-9.83-.14-13.56,1.33-5.33,2.52,1.19,2.89,3.12,2.27,11.58.95,23.68,1.54,35.42.36,7.12,3.43,30.04-.37,35.13-2.49,3.34-4.01-3.25-4.35-4.97-3.23-16.12-1.05-35.66-1.98-52.26-.14-2.56-.69-5.11-1.45-7.55ZM18.96,201.6c-.72,2.43-.74,5.01-.72,7.56.15,15.95,1.89,31.8,2.65,47.75.11,2.41.3,5.33.24,7.7-.06,2.57-.74,5.57-.71,8.12,0,.31.28,2.32.58,2.3,1.56-2.05,2.13-5.02,2.29-7.55.68-10.85-1.4-21.83-1.7-32.64-.26-9.44.73-19.41-1.06-28.7-.28-1.44-.64-3.43-1.57-4.55Z"/><path d="M14.4,82.56c-.58.47-.7,2.43-.73,3.23-.04,1.23.25,2.3.26,3.36.07,11.17,0,22.47.47,33.61.18,4.49.36,8.94,1,13.4l.33.4,1.08-.36-1.21,2.04c-.86.61-1.35-3.34-1.41-3.75-1.72-13.36-.91-29.74-.98-43.42-.02-2.98-.42-5.74.01-8.85.33-2.38,1.29-1.27,1.94.17,1.26,2.78,1.25,7.7,1.41,10.83.77,15.8-.74,31.81,2.23,47.45.22,1.18.34,2.93,1.12,3.8-.21-1.49.2-3.03.25-4.43.63-17.06-2.78-34.08-1.71-51.1-.24-4.73-.83-9.95-.46-14.67.05-.67.51-3.83,1.56-2.51.36.45,1.29,3.99,1.45,4.79,1.99,9.57,1.01,20.38,1.3,30.14.21,6.8,1.12,13.59,1.46,20.38.21,4.24.9,17.38-1.69,20.41-2.15,2.52-3.08-1.81-3.53-3.43-3.86-13.73-2.26-31.59-2.72-46-.16-5.11.18-10.61-1.43-15.49ZM19.44,73.92c-.68-.11-.4.14-.51.55-.43,1.6-.46,3.44-.46,5.09,1.22,20.99,1.51,42.09,2.41,63.11.06,1.47-.14,2.98.12,4.44,1.58-1.2,1.84-3.75,2.04-5.64,1.11-10.62-1.1-22.82-1.45-33.59-.19-5.75.38-11.84,0-17.53-.35-5.37-1.97-11.02-2.16-16.44Z"/><path d="M142.32,82.32c-.48.19-.46,1.34-.49,1.79-.21,3.68.22,7.41.26,11.04.15,13.92-.56,27.86,1.43,41.65l1.2-.6c-.22.56-.95,2.1-1.69,1.92-.41-.31-.87-3.8-.95-4.57-1.49-13.94-.79-29.97-.97-44.15-.04-2.84-.22-5.78.49-8.53,1.14-.75,2.24,3.51,2.36,4.23.56,3.19.39,7.03.5,10.3.5,13.91-.15,27.89,1.73,41.71l1.64,7.84c-.2-1.18.2-2.36.25-3.47.72-16.43-1.97-32.98-1.94-49.46,0-5.55-.62-11.93-.24-17.28.05-.76.6-4.39,1.66-2.84.5.73,1.14,3.42,1.35,4.41,2.26,10.51,1.11,23.8,1.55,34.69.26,6.46,1.25,12.95,1.46,19.42.11,3.49.4,14.51-1.8,16.94-1.94,2.15-2.6-.09-3.18-1.88-4.57-14.04-2.63-34.82-3.2-49.84-.17-4.47.1-9.08-1.43-13.33ZM148.8,146.88c.81.22,1.26-.88,1.49-1.51,1.13-3.18,1.01-9.77.92-13.26-.18-6.94-1.12-13.92-1.46-20.86-.52-10.74.49-22.26-1.27-32.81-.29-1.76-.72-3.53-1.24-5.23-.42.39-.54,1.01-.6,1.56-.19,1.82-.07,4.59,0,6.49.56,17.25,1.38,34.57,1.94,51.82.15,4.6.17,9.21.23,13.81Z"/><path d="M85.18,272.18c.16.9.64,1.84.74,2.74.85,7.81-.51,19.55-1.2,27.6-.74,8.62-1.6,17.83-2.91,26.37-.22,1.42-.72,5.75-1.51,6.65-.2.23-.41.45-.74.47-1.21,0-1.95-3.74-2.04-4.69-1-11.34,2.26-24.19,3.35-35.52.59-6.05.49-12.17,1.48-18.2.28-1.7.53-5.77,2.82-5.42ZM84.72,273.36c-.67-.08-.87.75-1.03,1.25-1.81,5.68-1.49,15.23-2.09,21.43-.78,8.09-2.5,16.13-3.12,24.24-.36,4.73-.64,9.7.72,14.28,1.26.94.92-4.55.95-4.93.75-11.76,2.99-23.37,4.3-35.06.6-5.38,1.75-13.2.96-18.42-.14-.95-.43-1.87-.69-2.79Z"/><path d="M83.8,16.36c1.57-.98,2.02,1.68,2.12,2.72.9,9.46-.76,22.95-1.68,32.64-.68,7.19-1.4,20.31-3.48,26.76-.21.65-.33,1.54-1.19,1.45-1.31-.14-1.92-3.4-2.02-4.48-1.07-11.32,2.24-24.39,3.33-35.73.47-4.85.44-9.76.99-14.61.15-1.31,1.1-8.23,1.93-8.75ZM84.72,17.28c-.52-.09-.67.33-.84.72-.4.93-.64,2.7-.81,3.75-.96,6.09-.88,12.32-1.48,18.44-.79,8.09-2.52,16.12-3.12,24.24-.34,4.65-.64,9.54.72,14.04,1.69-.54.85-3.37.95-4.93,1.01-16.35,5.8-34.36,5.54-50.4-.03-1.93-.5-4.01-.97-5.87Z"/><path d="M84.17,144.27c.28-.08.54-.07.79.08.5.25.84,1.85.93,2.43.5,3.17.12,6.21.01,9.33-.31,9.39-1.14,18.76-2.15,28.09-.72,6.57-1.36,14.46-2.67,20.85-1.04,5.04-3,2.63-3.32-.93-1.02-11.35,2.05-25.05,3.11-36.48.51-5.49.47-11.05,1.23-16.53.17-1.22.92-6.52,2.06-6.84ZM84.24,145.2c-2.28,7.34-1.9,15.3-2.64,22.92-.9,9.19-3.01,18.35-3.37,27.59-.13,3.49-.24,7.8,1.33,10.93.57,0,1.23-4.99,1.31-5.64,1.57-11.61,2.54-24.28,3.36-36,.37-5.33,1.33-13.39.73-18.48-.06-.5-.18-1.11-.72-1.31Z"/><path d="M24.87,206.43c1.83-.35,2.54,5.84,2.7,7.08.82,6.39.91,13.2,1.23,19.65.46,9.11,1.15,18.44.73,27.61-.1,2.1-.28,6.6-1.8,8.04-1.98,1.87-2.17-1.28-2.29-2.77-.27-3.51-.02-7.7-.01-11.29.03-14.17-3.38-31.64-1.67-45.11.09-.7.34-3.06,1.11-3.21ZM25.44,207.84c-.38-.36-.41.08-.5.33-.22.59-.41,2.43-.45,3.15-.9,14.34,1.43,30.2,2.16,44.64.21,4.11.14,8.26.36,12.36,1.43-1.76,1.66-4.15,1.8-6.36.48-8.01-.15-16.26-.49-24.23-.3-7.05-.46-14.36-1.19-21.37-.14-1.36-.95-7.84-1.68-8.52Z"/><path d="M153.56,78.52c.32.19,1.23,2.55,1.36,3.07.3,1.21.48,2.71.6,3.96,1.15,12.09.91,24.82,2.17,36.95-.17,4.42.3,9.04-.28,13.42-.15,1.15-1.27,6.8-3.35,5.32-.36-.26-.66-3.85-.7-4.58-.61-11.43.82-23.49-1.2-35.04-.04-.96.04-1.92,0-2.88-.26-5.31-1.01-12.56-.45-17.73.09-.81.59-3.24,1.85-2.51ZM153.36,79.68c-.48-.45-.66.88-.69,1.1-.31,2.47-.04,4.35-.02,6.68.16,14.52,1.25,28.98,1.91,43.45.14,3.15.11,6.33.36,9.48,1.13-1.23,1.54-2.85,1.77-4.47,1.05-7.26-.26-15.43-.21-22.77-1.9-9.63-.18-21.56-2.22-30.9-.07-.34-.8-2.49-.9-2.59Z"/><path d="M26.18,141.58c-1.05-.74-.76-12.93-.75-14.99.02-11.13-1.35-21.99-1.68-33.1-.11-3.74-.31-8.85.01-12.49.25-2.76,1.41-3.74,2.68-.77,1.9,4.47,1.14,12.83,1.4,17.8.58,11.15,3.93,29.24,1.13,39.53-.22.8-1.41,4.97-2.79,4ZM25.44,79.68c-.52-.09-.48.04-.6.47-.67,2.49-.44,7.5-.37,10.22.33,12.36,1.32,24.85,1.93,37.19.21,4.2.14,8.42.6,12.6.48-.42.82-1.01,1.05-1.59,1.81-4.54.78-16.37.51-21.57-.45-8.86-.92-17.78-1.44-26.64-.11-1.82-.27-4.18-.51-5.97-.21-1.62-.68-3.17-1.17-4.71Z"/><path d="M155.67,268.95c-.61.54-1.16.87-1.7.07-.37-.55-.58-3.51-.62-4.41-.55-11.07.85-22.67-1.19-33.85-.32-5.24-1.38-19.04.06-23.45.37-1.13.84-1.23,1.61-.31,2.33,2.76,2.65,20.25,2.88,24.72.51,9.79,1.27,20.43.73,30.25-.1,1.82-.4,5.77-1.78,6.98ZM155.28,268.08c1.67-2.55,1.28-5.43,1.43-8.29.54-10.05-.09-21.1-.71-31.19-.31-5.13-.5-14.76-2.04-19.32-.18-.55-.33-1.49-1.08-1.44-.1,1.82-.42,3.82-.49,5.63-.56,13.36,1.48,27.67,2.17,41.05.21,4.06-.07,8.53.24,12.48.02.28.07,1.08.48,1.08Z"/><path d="M9.54,257.7c-1.19,1.15-1.61-.85-1.8-1.8-.7-3.57-.42-8.04-.53-11.71-.24-7.56-.63-15.74,0-23.27.07-.8.87-5.51,1.56-5.65,1.16-.23,1.4,2.44,1.53,3.27.72,4.86.39,10.18.5,15.1.14,6.04.68,12.4.25,18.47-.08,1.19-.68,4.79-1.5,5.58ZM8.88,216.72c-1.13,3.35-.91,6.94-.96,10.44-.11,6.88.43,13.98.47,20.87,0,.89-.26,8.55.61,8.53.94-1.26,1.21-3.36,1.32-4.92.35-4.98-.16-10.15-.25-15.11-.1-5.48.47-14.04-.78-19.14-.06-.24-.07-.72-.41-.67Z"/><path d="M137.27,87.37c.11.07.92,2.27.96,2.52.26,1.72-.28,3.74.26,5.5-.62,9.85.92,20.26.24,30.02-.14,2.04-1.64,7.51-2.78,2.76s-.71-12.34-.82-17.42c-.14-6.69-.86-15.02.79-21.51.13-.49.46-2.46,1.35-1.87ZM137.28,89.28c-.38-.36-.41.08-.5.33-1.14,3.09-1.04,10.71-.95,14.2,1.21,7.12.06,14.85.48,21.84.02.4.35,2.99.61,2.99.46-1.1.98-2.27,1.09-3.47.83-9.01-1-19.19-.24-28.34-.59-1.25.13-6.96-.49-7.55Z"/><path d="M9.33,87.39l.99,2.96.48,34.82c-.09,1.03-.58,4.8-1.81,4.81l-.55-.19c-1.45-5.77-1.09-11.9-1.24-17.84-.01-.57-.25-1.09-.26-1.66-.16-7.59-.46-15.42,1.42-22.79l.96-.11ZM9.12,128.64c1.13-2.87,1.03-5.48.97-8.53-.01-.68-.25-1.27-.26-1.9-.13-9.45.07-18.97-.41-28.39l-.54-.54c-1.88,8.69-.63,17.9-.48,26.76.06,3.36-.27,6.95-.01,10.33.05.65.13,1.95.73,2.27Z"/><path d="M137.5,215.31c.19.13.63,2.33.7,2.77.67,4.23.4,8.45.51,12.69.16,6.03.49,12.18.26,18.24-.07,2-.17,5.21-.6,7.08-.2.88-.54,1.59-1.46,1.92-1.03,0-1.28-3.62-1.33-4.44-.39-6.52-.32-13.37-.48-19.92-.1-4.24-.21-9.28.25-13.45.09-.78.59-5.97,2.14-4.9ZM137.28,216.96c-.42-.54-.85,1.18-.9,1.38-1.5,6.59-.49,18.79-.29,25.85.12,4.16-.25,8.26.71,12.37.54.1.38-.03.54-.31.2-.36.51-1.37.6-1.79,1.83-8.8-.74-19.94.07-28.99l-.73-8.51Z"/></svg>