<?xml version="1.0" encoding="UTF-8"?><svg id="a" xmlns="http://www.w3.org/2000/svg" width="5.08mm" height="128.52mm" viewBox="0 0 14.4 364.32"><path d="M10.32,0c-.69,3.74-1.56,7.56-1.21,11.41.16,1.83,1.44,3.46,2.05,5.15,1.47,4.08-.2,12.45-.37,17.15-.59,16.68,3.55,33.61.18,50.1-1.39,6.8-4.72,14.14-5.2,20.96-.54,7.49,1.59,14.67,1.93,22.07.48,10.65-1.8,21.6-1.22,32.18.21,3.83,1.29,7.65.98,11.52-.21,2.66-1.22,5.39-3.17,1.71-4.63-8.69-3.28-26.63-3.09-36.53.01-.57.25-1.09.26-1.66.24-15.5-3.39-29.23,2.45-44.35.33-.85.64-2.04,1.38-2.58-.86,4.02-2.23,7.95-3.01,11.99-1.81,9.41-.09,18.96.14,28.44.3,12.23-2.68,33.29,2.34,44.22.1.22,1.19,2.33,1.49,1.63.84-4.17-.37-8.34-.72-12.48-1.05-12.53,1.95-25.14.72-37.92-.35-3.59-1.23-7.2-1.44-10.8-.79-13.55,5.49-24.18,6.48-37.44,1.08-14.45-2.72-29.55-1.67-43.67.22-2.98,1.53-6.39,1.45-9.36-.07-2.55-1.75-6.1-2.35-8.71-1.12-4.86-1.09-8.47,1.13-13.01h.48Z"/><path d="M7.2,364.32h-.96c-.61-3.84-1.02-7.74-.97-11.65.13-10.47,1.98-20.62.97-31.19-.34-3.59-1.22-7.21-1.44-10.8-.81-13.54,5.49-24.2,6.48-37.44,1.07-14.45-2.69-29.53-1.67-43.67.29-4.09,1.99-7.4,1.09-11.65-.76-3.61-2.54-7.06-2.77-10.91-.21-3.58,2.03-9.69,3.35-13.2.59-1.56,1.32-3.42,2.4-4.68-.12,2.07-1.41,3.99-2.1,5.94-1.56,4.42-3.13,10.55-2.4,15.24.33,2.13,2.33,4.43,2.58,6.78.46,4.22-.81,10.62-.97,15.11-.59,16.67,3.56,33.62.17,50.09-1.4,6.81-4.73,14.11-5.2,20.96-.51,7.45,1.57,14.49,1.93,21.83.52,10.65-1.78,21.6-1.22,32.18.12,2.34.75,4.71.73,7.07Z"/><path d="M1.92,0C.02,5.83,2.51,11.65,2.89,17.39c.21,3.12-.18,6.29-.25,9.37-.23,10.21-1.55,37.53,3.79,45.64,1.74,2.65,1.59-.68,1.46-2.18-.27-3.05-1.87-6.29-2.14-9.14-.14-1.45.24-2.78.26-4.08.16-11.47.65-22.87.7-34.34.02-5.7-1.17-6.81-2.27-11.87-.78-3.59.51-7.24,1.08-10.8h.96c-2.7,5.09-.69,9.57.36,14.64,2.32,11.1-.17,23.8.61,35.17-1.95,7.06,1.22,14.73,1.17,21.38-.01,1.63-.61,4.93-2.75,2.99-3.42-3.11-3.4-15.49-3.71-20.05-.15-2.26-.62-4.74-.73-6.95-.44-9.38,1-19.31.5-28.58C1.59,12.42-.55,6.19.96,0h.96Z"/><path d="M13.68,364.32h-.96c-.06-2.03.09-4.09,0-6.12-.34-7.83-1.68-15.67-1.93-23.51-.22-6.81.82-13.66.5-20.42-.42-8.73-2.97-16.5.83-25.07.19-.42.36-1.03.83-1.2-.16,2.47-1.38,4.75-1.81,7.19-1.68,9.59,2.03,19.32,1.58,28.94-.33,7.15-.69,12.88-.25,20.15.4,6.67,1.43,13.34,1.2,20.04Z"/><path d="M2.16,364.32c-1.39-7.22-1.33-14.62-1.21-21.97,0-.57.25-1.09.26-1.66.05-2.72.2-5.48.24-8.16.19-12.7-2.45-24.71.39-37.29.74-3.29,1.78-6.54,3.08-9.65.64-.09.26.35.2.68-.7,3.75-2.11,7.51-2.84,11.32-1.79,9.36-.1,18.78.13,28.19.28,11.4-1.24,22.59,0,34.09.16,1.48.52,2.97.72,4.44h-.96Z"/><path d="M0,192v-7.2c2.19-5.92,1.39-12.47,0-18.48v-6.96c1.87,7.69,2.89,15.71,1.89,23.61-.39,3.02-1.09,6.1-1.89,9.03Z"/><path d="M0,292.08v-4.32c3.06-8.62,2.48-17.73,0-26.4v-3.84c1.57,6.15,3.41,13.18,3.13,19.57-.22,4.95-1.73,10.27-3.13,14.99Z"/><path d="M0,93.6v-4.08c3-8.73,2.54-17.87,0-26.64v-3.84c2.22,8,3.86,15.97,2.57,24.29-.53,3.42-1.5,6.98-2.57,10.27Z"/><path d="M14.4,122.64c-.32-.28-.4-.7-.46-1.1-.83-6.23-3.05-17.27-1.5-23.06.11-.41-.17-.67.51-.55.25,1.05-.25,2.33-.24,3.24.02,1.3.47,2.9.24,4.32l1.44,9.72v7.44Z"/><path d="M14.4,320.88c-.42-.25-.43-.65-.48-1.08-.8-6.22-3.02-17.07-1.47-22.85.11-.41-.17-.67.51-.55.25,1.05-.25,2.33-.24,3.24.01,1.22.47,2.74.24,4.08l1.44,9.96v7.2Z"/><path d="M14.4,200.4c-2.27,4.54-2.11,10.1,0,14.64v17.04c-.8-3.83-.52-8.16-.49-12.13,0-.64.29-1.2.26-1.9-.07-1.8-1.46-3.54-1.67-5.07-.52-3.85-.57-10.64,1.21-14.11.17-.34.28-.72.69-.87v2.4Z"/><path d="M13.92,0h.48v2.16c-2.28,4.46-2.08,9.93,0,14.4v2.88c-1.42-2.78-2.04-5.4-2.17-8.51-.16-3.67.07-7.6,1.69-10.93Z"/><path d="M14.4,33.6c-.35-.69-.45-1.73-.49-2.51-.15-2.89-.17-6.74,0-9.62.03-.58.11-1.33.49-1.79v13.92Z"/><path d="M1.2,364.32H0v-6.48c.64,2.08,1.06,4.3,1.2,6.48Z"/><path d="M6.96,179.52c-1.17,5.43-3.2,10.65-4.44,16.08-.6,2.61-1.41,5.89-1.33,8.53.12,3.81,1.45,7.93,1.7,11.74.2,3.12-.18,6.29-.25,9.37-.22,9.69-1.51,38.64,3.97,45.94.21.27.45.51.71.73.85.18.64-2.4.59-2.99-.24-3.23-1.92-6.57-2.17-9.6-.11-1.39.24-2.61.26-3.84.14-11.55.66-23.03.7-34.58,0-1.76.28-2.46-.1-4.44-1.14-5.89-3.08-6.96-1.98-13.72,1.32-8.11,5.02-15.75,6.77-23.71,4.08-18.5-2.44-37.6-.11-56.27.8-9.05-2.62-18.61-.61-27.49.42-1.85,1.16-4.28,2.28-5.76-.33,3.16-1.84,6.05-2.13,9.27-.79,9.03,2.32,17.89,1.9,26.86-.06,1.19-.43,2.65-.49,3.83-.87,18.29,4.3,36.64-.9,54.54-1.67,5.74-4.5,11.69-5.89,17.39-1.32,5.39,1.87,10.99,2.24,16.38.86,12.46-.76,26.14-.74,38.66.34,1.12.15,2.25.25,3.35.29,3,2.19,10.2.9,12.67-.58,1.12-1.72.72-2.45-.08-3.37-3.69-3.45-17.94-3.74-23.14-.52-9.25-.08-17.47.01-26.63.06-6.26-1.17-11.35-1.46-17.28-.34-6.99,2.62-16.23,5.05-22.82.36-.96.69-2.36,1.44-3Z"/></svg>