<?xml version="1.0" encoding="UTF-8"?><svg id="a" xmlns="http://www.w3.org/2000/svg" width="5mm" height="128.5mm" viewBox="0 0 14.17 364.25"><path d="M1.82,12.76c-.26-2.87-1.14-5.88-1.82-8.91v4.84c.77,4.27,1.61,8.54,1.49,12.27-.11,3.27-.89,7.06-1.49,10.88v3.79c.6-7.6,2.52-14.99,1.82-22.87Z" fill="none"/><path d="M14.17,208.22v21.56c-.19-.96-.33-1.79-.39-2.43-.58-6.24-.19-12.79.39-19.13Z" fill="none"/><path d="M14.17,0v3.01c-.19-.96-.33-1.79-.39-2.43-.02-.19-.02-.39-.04-.58h.43Z" fill="none"/><path d="M14.17,252.16v5.62c-.07-1.77-.25-3.52-.71-5.19-.06-.47.25-.45.71-.43Z" fill="none"/><path d="M9.25,66.13c-.52,4.49-3.54,9.64-9.25,11.76v.46c6.18-2.17,9.95-7.58,9.25-12.22Z" fill="none"/><path d="M3.43,92.26c-1.1-1.5-2.27-1.96-3.43-1.82v.59c1.01-.11,2.13.2,3.43,1.22Z" fill="none"/><path d="M9.58,55.94c-.32-2.37-3.59-6.39-4.53-8.86-1.94-5.12-1.58-10.14-1.78-15.39-.54,3.65-.87,7.53-.16,11.18.67,3.46,4.07,10.45,5.82,13.95.03.07.49.44.65.22-.03-.37.05-.74,0-1.11Z" fill="none"/><path d="M1.17,57.05c-.39-.69-.78-1.31-1.17-1.88v1.31c.77,1.06,1.42,2.13,1.82,3.23,1.1,3.06,1.82,9.87-1.82,12.34v.54c5.12-2.64,3.22-11.83,1.17-15.53Z" fill="none"/><path d="M6.67,67.01c.86-7.36-3.43-11.02-6.67-15.31v.96c3.29,4.21,7.23,8.05,6.02,15.01-.43,2.46-2.75,5.54-6.02,7.1v.56c3.87-1.62,6.31-5.26,6.67-8.32Z" fill="none"/><path d="M9.25,71.66c-.46,1.48-.44,2.85-1.62,4.21-.25.29-4.6,3.32-7.64,5.36v.65c3.03-2.03,7.69-5.27,7.96-5.57,1.11-1.22,1.95-3.31,1.29-4.65Z" fill="none"/><path d="M14.17,25.39v5.62c-.07-1.78-.25-3.52-.71-5.19-.06-.48.25-.45.71-.43Z" fill="none"/><path d="M14.17,279.44v3.5c-.16-.69-.38-1.52-.39-2-.01-.5.17-1,.39-1.5Z" fill="none"/><path d="M14.17,321.73v21.52c-.16-.91-.31-1.82-.39-2.74-.56-6.12-.19-12.56.39-18.78Z" fill="none"/><path d="M14.17,94.96v21.52c-.16-.91-.31-1.83-.39-2.74-.56-6.13-.19-12.56.39-18.78Z" fill="none"/><path d="M14.17,275.02v.29c-.16-.15-.34-.31-.55-.46.21.05.38.11.55.17Z" fill="none"/><path d="M14.17,48.25v.29c-.16-.16-.34-.31-.55-.46.21.05.38.11.55.17Z" fill="none"/><path d="M9.25,292.9c-.52,4.49-3.54,9.64-9.25,11.76v.46c6.18-2.17,9.95-7.58,9.25-12.22Z" fill="none"/><path d="M12.49,156.81c-.09-21.73.02-43.5,0-65.22-.03-30.5-.24-61.05-.33-91.59h-1.75s-.02.02-.03.02l-.09-.02h-2.13c-.18,2.49-.53,5.06-.52,6.33.02,2.57,1.21,5.07.97,7.98-.82,9.89-6.17,26.13,0,35.21.32.47,2.2,1.62,2.26,1.77.31.74-.03,9.86,0,11.63-.67.09-1.07-.46-1.29-.78C4.7,55.12.76,46.31,0,40.14v4.69c.15.47.32.92.52,1.37.97,2.12,1.56,4.51,2.7,6.64,1.76,3.31,4.19,7.84,7.33,10.52.02,2.25.84,11.99.32,13.18-.1.22-3.97,2.96-4.53,3.54-.95,1-3.42,4.66-4.36,4.98-.69.24-1.37.14-1.98.08v.59c.35.29.12.75,0,1.27v.83s.02.07.04.11l10.83-10.3c-.36,1.21.49,4.14,0,5.1-.11.22-4.4,1.91-5.17,3.1-1.08,1.65-.97,4.01.32,5.53.91,1.07,4.72,2.21,4.85,2.44.7,1.25-.73,4.74,0,6.2-2.56-.91-3.75-4.44-6.31-5.65-1.65-.77-3.17-.6-4.56.05v.63c1.07-.65,2.1-1.04,2.95-.9,1.58.26,5.75,4.93,6.63,6.09.05.07,1.14.34,1.29.67.38.84.02,3.97-.49,4.98-2.49-3.61-5.6-10.47-10.38-7.14v.82c1.73-1.32,3.88-1.82,6.02.45.77.82.76,2.05,1.29,2.77-2.59-.77-4.17-.89-6.14.77-.47.4-.85.87-1.17,1.39v1.25c.55-1.46,1.47-2.59,2.95-3.19,3.46-1.4,4.6,1.56,4.69,3.43-.11.46-2.49-.39-3.4-.11-.27.08-1.27,2.04-1.78,2.33,2.01-.4,1.63-3.04,4.69-1.66,2.05.92.47,10.61.49,12.73.01,1.16.92,3.02.97,4.21.16,4.27-1.59,8.19-1.94,12.4-.57,6.8-.6,13.67-.65,20.48.09,1.41.53,3.02,1.29,4.32.58.98,3.48,3.34,3.56,3.55.38.96-.25,5.77-.32,7.19-.07,1.44.05,2.88,0,4.32-2.29-4.48-3.55-7.47-5.5-11.07-1.49-2.75-4.28-5.35-4.85-8.31-.69-10.22,2.53-20.39,1.62-30.67-.17-1.88-1.14-5.42-1.82-9.2v3.2c.65,3.16,1.35,6.05,1.49,7.99.44,5.92-.73,11.82-1.49,17.72v12.45c1.11,2.77,3.62,5.25,5.05,7.93,1.83,3.43,3.86,7.34,5.5,10.63.51,1.03-.08,2.76,0,3.87.08,1.18.58,8.98.32,9.41-.13.22-3.76,2.52-4.53,3.32-.96,1.01-3.37,4.65-4.36,4.99-.69.23-1.37.13-1.98.08v.58c.35.3.12.76,0,1.28v.82s.02.08.04.12l10.83-10.52c-.6,1.36.59,4.15,0,5.31-.11.22-4.4,1.92-5.17,3.1-1.08,1.65-.97,4.01.32,5.54.91,1.07,4.72,2.21,4.85,2.43.63,1.13-.55,4.8,0,6.21-.94.96-4.87-6.82-9.22-6.32-.52.06-1.08.28-1.65.6v.74c1.06-.64,2.08-1.02,2.95-.89,1.61.23,5.79,4.93,6.63,6.09.23.32,1.15.37,1.29.66.58,1.25-.32,3.52,0,4.98-2.64-.68-2.71-4.2-3.88-5.64-2.36-2.91-4.87-2.71-6.99-1.3v.65c2.51-1.81,5.5-1.78,7.31,3.08l-.64.22c-2.95-1.94-5.69.46-6.67,2.5v1.04c.07-.18.12-.36.2-.55,1.82-4.31,7.64-4.36,7.44.56-.11.45-2.49-.39-3.4-.11-.27.08-1.27,2.03-1.78,2.32,1.54.14,1.46-2,2.75-2.1.05,0,.21.03.42.09.11.02.23.06.36.1.38.11.86.27,1.21.43.07.03.14.06.19.09.12.06.2.12.25.17,1.45,1.78-.03,9.7,0,12.3.02,2.56,1.21,5.06.97,7.97-.82,9.89-6.17,26.13,0,35.21.32.47,2.2,1.62,2.26,1.77.31.74-.03,9.87,0,11.63-.67.09-1.07-.46-1.29-.78-4.88-7.02-8.82-15.83-9.58-22v4.69c.15.47.32.92.52,1.37.97,2.13,1.56,4.52,2.7,6.64,1.76,3.31,4.19,7.84,7.33,10.52.02,2.25.84,11.99.32,13.18-.1.22-3.97,2.96-4.53,3.54-.95,1-3.42,4.66-4.36,4.98-.69.24-1.37.14-1.98.08v.59c.35.3.12.76,0,1.28v.82s.02.07.04.11l10.83-10.3c-.36,1.21.49,4.14,0,5.1-.11.22-4.4,1.91-5.17,3.1-1.08,1.65-.97,4.01.32,5.53.91,1.07,4.72,2.22,4.85,2.44.7,1.25-.73,4.74,0,6.2-2.56-.91-3.75-4.44-6.31-5.65-1.65-.77-3.17-.59-4.56.05v.63c1.07-.65,2.1-1.04,2.95-.9,1.58.26,5.75,4.93,6.63,6.09.05.08,1.14.35,1.29.67.38.85.02,3.97-.49,4.98-2.49-3.61-5.6-10.46-10.38-7.13v.81c1.73-1.32,3.88-1.82,6.02.45.77.83.76,2.05,1.29,2.77-2.59-.77-4.17-.88-6.14.77-.47.4-.85.87-1.17,1.39v1.25c.55-1.46,1.47-2.59,2.95-3.19,3.46-1.4,4.6,1.56,4.69,3.43-.11.46-2.49-.39-3.4-.11-.27.09-1.27,2.04-1.78,2.33,2.01-.4,1.63-3.04,4.69-1.66,2.05.92.47,10.61.49,12.73.01,1.16.92,3.02.97,4.21.16,4.28-1.59,8.19-1.94,12.4-.04.38-.05.77-.08,1.15h.51c.48-3.42,1.93-7.13,2.15-10.23.17-2.23-2.07-12.48-.32-13.51.6-.35,1.05.18,1.62.11.3,7.88.42,15.75.44,23.63h1.47c0-15.3.04-30.6.03-45.88-.05-45.18-.5-90.46-.33-135.65.01-2.65-.03-5.31,0-7.97.07-5.98.42-11.95.33-17.94ZM10.38,93.03c-3.51-.73-5.5-3.63-4.68-6.09.25-.75,4.57-4.12,5.17-3.1.25.43.14,9.03-.49,9.19ZM10.38,206.42c-3.44-.72-5.45-3.76-4.68-6.09.24-.75,4.57-4.13,5.17-3.1.25.43.14,9.03-.49,9.19ZM10.38,319.81c-3.51-.74-5.5-3.64-4.68-6.09.25-.75,4.57-4.13,5.17-3.1.25.42.14,9.03-.49,9.19ZM10.87,155.6c-2.93.3-.25-4.63-1.13-5.87-.43,2.12-1.91,5.79,1.13,7.08-.26.89.67,6.79-.81,6.65-.65-.06-4-5.65-3.39-6.65-.38-6.11-.23-12.37.32-18.49.33-3.64,2.02-7.72,2.26-11.07.17-2.23-2.07-12.48-.32-13.51.6-.35,1.05.18,1.62.11.52,13.9.55,27.8.32,41.75ZM10.55,113.41l-1.62-.33c.36-1.98-.67-4.08-.97-5.98-.06-.4-.4-2.28.65-2.33.54.91,2.14,1.82,2.26,2.11.76,1.83-.4,4.63-.32,6.53ZM7.96,220.59c-.04-.41-.11-2.51.16-2.65.23.6,2.35,1.66,2.43,1.77.5.72.62,6.86-.17,7.08l-1.45-.33c.47-1.88-.79-4.12-.97-5.87ZM10.55,340.18l-1.62-.33c.36-1.98-.67-4.08-.97-5.98-.06-.4-.4-2.28.65-2.33.54.91,2.14,1.82,2.26,2.11.76,1.83-.4,4.63-.32,6.53ZM10.87,268.98c-3.14.36.23-4.69-1.62-5.54.41,1.4-.54,4.63,0,5.76.19.38,1.49.63,1.62.89.15.3.15,6.12,0,6.42-.87,1.73-4.08-4.31-4.2-4.87-2.17-10.19,1.93-21.2,2.58-31.23.13-1.93-2.13-12.84-.16-13.39.38-.11,1.64.31,1.78.55.2.35.29,6.48.32,7.53.39,11.27-.65,22.59-.32,33.88ZM10.87,42.21c-3.14.36.23-4.7-1.62-5.54.41,1.39-.54,4.62,0,5.76.19.38,1.49.62,1.62.89.15.3.15,6.12,0,6.42-.87,1.73-4.08-4.31-4.2-4.87-2.17-10.2,1.93-21.2,2.58-31.23.13-1.93-2.13-12.84-.16-13.4.38-.1,1.64.31,1.78.56.2.35.29,6.48.32,7.53.39,11.27-.65,22.59-.32,33.88Z" fill="none"/><path d="M14.17,52.67v3.5c-.16-.69-.38-1.52-.39-2-.01-.5.17-1,.39-1.5Z" fill="none"/><path d="M4.89,15.97C6.37,10.65,2.64,5.32,3.8,0h-.54c-.08.32-.13.6-.15.8-.64,4.98,2.23,10.17,1.78,15.17Z" fill="none"/><path d="M9.58,282.71c-.32-2.37-3.59-6.39-4.53-8.86-1.94-5.12-1.58-10.14-1.78-15.39-.54,3.65-.87,7.53-.16,11.18.67,3.46,4.07,10.45,5.82,13.95.03.07.49.44.65.22-.03-.37.05-.74,0-1.11Z" fill="none"/><path d="M14.17,161.62v.4c-.15-.18-.33-.37-.55-.56.21.05.38.1.55.16Z" fill="none"/><path d="M9.41,170.54c0,2.03-5.98-13.73-5.98-13.73-1.33-3.24-.38-6.66-.32-9.96.08-4.44-.2-8.88.48-13.29.59,4.43-.08,8.88-.16,13.29-.05,3.26-.41,6.85.65,9.96,0,0,5.35,11.71,5.33,13.73Z" fill="none"/><path d="M1.82,239.53c-.26-2.87-1.14-5.88-1.82-8.91v4.84c.77,4.27,1.61,8.54,1.49,12.27-.11,3.27-.89,7.06-1.49,10.88v3.79c.6-7.6,2.52-14.99,1.82-22.87Z" fill="none"/><path d="M3.43,205.64c-1.1-1.5-2.27-1.96-3.43-1.82v.59c1.01-.11,2.13.2,3.43,1.22Z" fill="none"/><path d="M4.89,242.74c1.65-5.94-3.21-11.89-.49-17.83l1.62-1.99c-1.94.13-2.77,3.6-2.91,4.65-.64,4.98,2.23,10.17,1.78,15.17Z" fill="none"/><path d="M14.17,138.91v7.98l-.71-7.9c.25-.01.49-.04.71-.08Z" fill="none"/><path d="M9.25,298.44c-.46,1.48-.44,2.85-1.62,4.21-.25.29-4.6,3.32-7.64,5.36v.65c3.03-2.03,7.69-5.27,7.96-5.57,1.11-1.22,1.95-3.31,1.29-4.65Z" fill="none"/><path d="M6.67,293.78c.86-7.36-3.43-11.02-6.67-15.31v.96c3.29,4.21,7.23,8.05,6.02,15.01-.43,2.46-2.75,5.54-6.02,7.1v.56c3.87-1.62,6.31-5.26,6.67-8.32Z" fill="none"/><path d="M1.17,283.82c-.39-.69-.78-1.31-1.17-1.88v1.31c.77,1.06,1.42,2.13,1.82,3.23,1.1,3.06,1.82,9.87-1.82,12.34v.54c5.12-2.64,3.22-11.83,1.17-15.53Z" fill="none"/><path d="M3.43,319.03c-1.1-1.5-2.27-1.96-3.43-1.82v.59c1.01-.11,2.13.2,3.43,1.22Z" fill="none"/><path d="M5.37,125.48l-.48,4.09c.53-5.08-2.44-10.33-1.78-15.39.14-1.05.97-4.51,2.91-4.65l-1.62,2c-1.86,4.63.03,9.31.97,13.95Z" fill="none"/><path d="M2.79,173.76c-.45-1.68-1.53-3.31-2.79-4.94v1.21c1.2,1.69,2.16,3.42,2.46,5.28.48,2.96.55,8-2.46,10.08v.62c4.02-2.25,3.67-8.91,2.79-12.25Z" fill="none"/><path d="M14.17,167.37v1.96c-.02-.22-.04-.45-.07-.67-.04-.43,0-.87.07-1.29Z" fill="none"/><path d="M6.02,336.3c-1.94.13-2.77,3.6-2.91,4.65-.66,5.06,2.31,10.31,1.78,15.39l.49-4.1c-.94-4.64-2.83-9.31-.97-13.95l1.62-1.99Z" fill="none"/><path d="M1.82,352.91c-.17-1.88-1.14-5.43-1.82-9.2v3.21c.65,3.16,1.35,6.05,1.49,7.99.23,3.12,0,6.23-.36,9.35h.41c.38-3.77.61-7.55.27-11.34Z" fill="none"/><path d="M3.59,360.33c-.2,1.3-.32,2.61-.38,3.92h.61c0-1.31-.06-2.61-.23-3.92Z" fill="none"/><path d="M9.25,179.73c-.62,4.44-3.65,9.41-9.25,11.5v.5c6.08-2.14,9.84-7.43,9.25-12Z" fill="none"/><path d="M9.41,184.72c-.61,1.55-.53,3.1-1.78,4.54-.25.29-4.6,3.32-7.64,5.36v.66c3.03-2.03,7.69-5.27,7.96-5.57,1.21-1.34,1.89-3.45,1.46-4.98Z" fill="none"/><path d="M6.67,180.4c.83-6.85-3.38-11.08-6.67-16.02v1.27c3.16,4.53,7.04,8.62,6.02,15.2-.4,2.6-2.69,5.73-6.02,7.31v.56c3.85-1.62,6.29-5.21,6.67-8.31Z" fill="none"/><path d="M0,85.73v1.28c.12-.52.35-.98,0-1.28Z" fill="#ec008c"/><path d="M4.56,94.36c2.56,1.2,3.75,4.74,6.31,5.65-.73-1.46.7-4.95,0-6.2-.13-.23-3.94-1.37-4.85-2.44-1.29-1.52-1.4-3.89-.32-5.54.77-1.18,5.06-2.88,5.17-3.1.49-.96-.36-3.89,0-5.09L.04,87.94s-.02-.08-.04-.11v2.61c1.16-.14,2.33.32,3.43,1.82-1.3-1.02-2.42-1.33-3.43-1.22v3.38c1.39-.65,2.91-.83,4.56-.05Z" fill="#ec008c"/><path d="M0,8.68v23.15c.61-3.82,1.38-7.61,1.49-10.88.12-3.73-.72-7.99-1.49-12.27Z" fill="#ec008c"/><path d="M1.98,85.06c.94-.32,3.41-3.99,4.37-4.98.55-.58,4.43-3.32,4.53-3.54.52-1.19-.3-10.92-.32-13.18-3.13-2.68-5.57-7.21-7.33-10.52-1.13-2.13-1.73-4.52-2.69-6.64-.2-.44-.37-.9-.52-1.37v6.88c3.24,4.29,7.53,7.95,6.67,15.31-.36,3.07-2.79,6.7-6.67,8.32v2.55c5.71-2.12,8.73-7.27,9.25-11.76.7,4.64-3.08,10.05-9.25,12.22v2.88c3.03-2.04,7.38-5.06,7.64-5.36,1.18-1.36,1.16-2.73,1.62-4.21.66,1.34-.19,3.43-1.29,4.65-.27.3-4.93,3.54-7.96,5.57v3.26c.61.06,1.29.16,1.98-.08Z" fill="#ec008c"/><path d="M6.02,67.68c1.22-6.96-2.73-10.8-6.02-15.01v2.5c.39.57.78,1.18,1.17,1.88,2.05,3.7,3.95,12.9-1.17,15.53v2.2c3.27-1.57,5.59-4.64,6.02-7.1Z" fill="#ec008c"/><path d="M1.49,128.13c-.14-1.94-.84-4.83-1.49-7.99v25.7c.76-5.9,1.93-11.8,1.49-17.71Z" fill="#ec008c"/><path d="M1.17,103.55c1.97-1.66,3.55-1.55,6.14-.78-.53-.71-.52-1.94-1.29-2.77-2.14-2.27-4.29-1.77-6.02-.45v5.38c.32-.52.7-.99,1.17-1.39Z" fill="#ec008c"/><path d="M10.38,105.88c.51-1.01.87-4.13.49-4.98-.15-.32-1.24-.59-1.29-.66-.88-1.16-5.04-5.83-6.63-6.09-.85-.14-1.88.24-2.95.89v3.71c4.78-3.33,7.89,3.53,10.38,7.13Z" fill="#ec008c"/><path d="M1.82,59.7c-.39-1.1-1.05-2.17-1.82-3.23v15.56c3.64-2.47,2.92-9.27,1.82-12.34Z" fill="#ec008c"/><path d="M10.87,62.92c-.03-1.76.31-10.89,0-11.63-.06-.15-1.94-1.3-2.26-1.77-6.16-9.08-.82-25.32,0-35.21.24-2.91-.95-5.41-.97-7.97-.01-1.28.34-3.84.53-6.33H3.8c-1.16,5.32,2.57,10.65,1.09,15.97.45-5-2.42-10.19-1.78-15.17.03-.2.07-.47.15-.8H0v3.85c.67,3.03,1.56,6.03,1.82,8.91.7,7.88-1.21,15.27-1.82,22.87v4.52c.76,6.16,4.7,14.97,9.58,22,.22.32.63.87,1.29.78ZM8.93,56.83c-1.75-3.51-5.15-10.5-5.82-13.95-.71-3.65-.38-7.53.16-11.18.2,5.25-.16,10.27,1.78,15.39.93,2.47,4.21,6.49,4.53,8.86.05.36-.03.74,0,1.11-.16.22-.61-.15-.65-.22Z" fill="#ec008c"/><path d="M11.19,8.33c-.04-1.05-.12-7.18-.32-7.53-.14-.24-1.4-.66-1.78-.55-1.97.56.29,11.47.16,13.4-.65,10.02-4.76,21.03-2.59,31.23.12.56,3.34,6.6,4.2,4.87.15-.3.15-6.12,0-6.42-.13-.26-1.43-.51-1.62-.89-.55-1.14.41-4.37,0-5.76,1.85.84-1.53,5.9,1.62,5.54-.33-11.29.71-22.61.32-33.88Z" fill="#ec008c"/><path d="M5.7,86.94c-.82,2.46,1.17,5.35,4.69,6.09.63-.16.73-8.76.49-9.19-.6-1.03-4.92,2.35-5.17,3.1Z" fill="#ec008c"/><path d="M10.41,0h-.13l.1.02s.02-.02.03-.02Z" fill="#ec008c"/><path d="M8.93,113.08l1.62.33c-.07-1.9,1.08-4.7.32-6.53-.12-.29-1.72-1.2-2.26-2.1-1.05.04-.71,1.93-.65,2.33.3,1.9,1.33,4,.97,5.98Z" fill="#ec008c"/><path d="M13.46,25.82c.46,1.67.64,3.41.71,5.19v17.24c-.17-.06-.34-.12-.55-.17.21.15.39.3.55.46v4.13c-.22.5-.4,1-.39,1.5,0,.48.23,1.31.39,2v38.79c-.58,6.22-.95,12.65-.39,18.78.08.91.23,1.83.39,2.74v22.43c-.22.04-.46.07-.71.08l.71,7.9v14.73c-.17-.06-.34-.11-.55-.16.22.19.4.38.55.56v5.35c-.07.42-.11.86-.07,1.29.03.22.05.45.07.67v38.89c-.58,6.34-.97,12.89-.39,19.13.06.64.2,1.47.39,2.43v22.38c-.46-.02-.77-.04-.71.43.46,1.67.64,3.42.71,5.19v17.24c-.17-.06-.34-.12-.55-.17.21.15.39.31.55.46v4.13c-.22.5-.4,1-.39,1.5,0,.48.23,1.31.39,2v38.79c-.58,6.22-.95,12.66-.39,18.78.08.92.23,1.83.39,2.74v21h-1.71c0-15.3.04-30.6.03-45.88-.05-45.18-.5-90.46-.33-135.65.01-2.65-.03-5.31,0-7.97.07-5.98.42-11.95.33-17.94-.09-21.73.02-43.5,0-65.22-.03-30.5-.24-61.05-.33-91.59h1.58c.02.19.02.39.04.58.06.64.2,1.47.39,2.43v22.38c-.46-.02-.77-.05-.71.43Z" fill="#006838"/><path d="M0,312.5v1.28c.12-.52.35-.98,0-1.28Z" fill="#ec008c"/><path d="M0,235.46v23.15c.61-3.82,1.38-7.61,1.49-10.88.12-3.73-.72-7.99-1.49-12.27Z" fill="#ec008c"/><path d="M6.02,294.45c1.22-6.96-2.73-10.8-6.02-15.01v2.5c.39.57.78,1.18,1.17,1.88,2.05,3.7,3.95,12.9-1.17,15.53v2.2c3.27-1.57,5.59-4.64,6.02-7.1Z" fill="#ec008c"/><path d="M6.67,216.27l.65-.22c-1.82-4.86-4.8-4.9-7.31-3.08v5.8c.98-2.05,3.72-4.44,6.67-2.5Z" fill="#ec008c"/><path d="M1.98,311.83c.94-.32,3.41-3.99,4.37-4.98.55-.58,4.43-3.32,4.53-3.54.52-1.19-.3-10.92-.32-13.18-3.13-2.68-5.57-7.21-7.33-10.52-1.13-2.13-1.73-4.52-2.69-6.64-.2-.44-.37-.9-.52-1.37v6.88c3.24,4.29,7.53,7.95,6.67,15.31-.36,3.07-2.79,6.7-6.67,8.32v2.55c5.71-2.12,8.73-7.27,9.25-11.76.7,4.64-3.08,10.05-9.25,12.22v2.88c3.03-2.04,7.38-5.06,7.64-5.36,1.18-1.36,1.16-2.73,1.62-4.21.66,1.34-.19,3.43-1.29,4.65-.27.3-4.93,3.54-7.96,5.57v3.26c.61.06,1.29.16,1.98-.08Z" fill="#ec008c"/><path d="M6.99,213.62c1.17,1.44,1.24,4.96,3.88,5.65-.32-1.46.58-3.73,0-4.98-.14-.29-1.06-.34-1.29-.66-.84-1.16-5.02-5.86-6.63-6.09-.86-.12-1.89.26-2.95.89v3.9c2.12-1.42,4.63-1.62,6.99,1.29Z" fill="#ec008c"/><path d="M4.56,321.13c2.56,1.2,3.75,4.74,6.31,5.65-.73-1.46.7-4.95,0-6.2-.13-.23-3.94-1.37-4.85-2.44-1.29-1.52-1.4-3.89-.32-5.54.77-1.18,5.06-2.88,5.17-3.1.49-.96-.36-3.89,0-5.09L.04,314.71s-.02-.08-.04-.11v2.61c1.16-.14,2.33.32,3.43,1.82-1.3-1.02-2.42-1.33-3.43-1.22v3.38c1.39-.65,2.91-.83,4.56-.05Z" fill="#ec008c"/><path d="M0,199.11v1.28c.12-.52.35-.98,0-1.28Z" fill="#ec008c"/><path d="M1.98,198.45c1-.34,3.41-3.98,4.37-4.98.77-.8,4.4-3.11,4.53-3.32.26-.44-.24-8.23-.32-9.41-.08-1.11.51-2.85,0-3.88-1.64-3.29-3.66-7.19-5.5-10.63-1.43-2.67-3.94-5.15-5.05-7.93v6.08c3.29,4.94,7.5,9.17,6.67,16.02-.38,3.1-2.82,6.69-6.67,8.31v2.53c5.6-2.1,8.63-7.06,9.25-11.5.58,4.57-3.17,9.86-9.25,12v2.88c3.03-2.04,7.38-5.06,7.64-5.36,1.25-1.44,1.17-2.99,1.78-4.54.44,1.53-.25,3.64-1.46,4.98-.27.3-4.93,3.54-7.96,5.57v3.26c.61.06,1.29.16,1.98-.08Z" fill="#ec008c"/><path d="M10.87,213.4c-.55-1.4.63-5.07,0-6.2-.13-.23-3.94-1.37-4.85-2.44-1.29-1.52-1.4-3.89-.32-5.54.77-1.18,5.06-2.88,5.17-3.1.59-1.16-.6-3.96,0-5.31L.04,201.33s-.02-.08-.04-.11v2.61c1.16-.14,2.33.32,3.43,1.82-1.3-1.02-2.42-1.33-3.43-1.22v3.26c.57-.32,1.13-.53,1.65-.59,4.34-.5,8.28,7.28,9.22,6.31Z" fill="#ec008c"/><path d="M1.49,354.91c-.14-1.94-.84-4.83-1.49-7.99v17.34h1.13c.37-3.11.59-6.23.36-9.35Z" fill="#ec008c"/><path d="M10.38,332.65c.51-1.01.87-4.13.49-4.98-.15-.32-1.24-.59-1.29-.66-.88-1.16-5.04-5.83-6.63-6.09-.85-.14-1.88.24-2.95.89v3.71c4.78-3.33,7.89,3.53,10.38,7.13Z" fill="#ec008c"/><path d="M1.17,330.32c1.97-1.66,3.55-1.55,6.14-.78-.53-.71-.52-1.94-1.29-2.77-2.14-2.27-4.29-1.77-6.02-.45v5.38c.32-.52.7-.99,1.17-1.39Z" fill="#ec008c"/><path d="M8.61,350.7c-.04-1.18-.96-3.05-.97-4.21-.02-2.12,1.56-11.81-.49-12.73-3.06-1.38-2.69,1.27-4.69,1.66.51-.29,1.51-2.24,1.78-2.33.91-.28,3.29.57,3.4.11-.09-1.87-1.22-4.84-4.69-3.43-1.47.6-2.4,1.73-2.95,3.19v10.75c.68,3.78,1.65,7.32,1.82,9.2.34,3.79.11,7.57-.27,11.34h1.67c.07-1.31.18-2.62.38-3.92.17,1.3.23,2.61.23,3.92h2.77c.03-.38.04-.77.07-1.15.35-4.21,2.1-8.13,1.94-12.4ZM5.37,352.25l-.49,4.1c.53-5.08-2.43-10.34-1.78-15.39.14-1.05.97-4.52,2.91-4.65l-1.62,1.99c-1.86,4.64.03,9.31.97,13.95Z" fill="#ec008c"/><path d="M10.55,340.62c-.57.06-1.02-.46-1.62-.11-1.75,1.03.49,11.28.32,13.51-.23,3.1-1.68,6.81-2.15,10.23h3.89c-.02-7.88-.14-15.75-.44-23.63Z" fill="#ec008c"/><path d="M6.02,180.84c1.02-6.58-2.86-10.67-6.02-15.2v3.17c1.26,1.63,2.34,3.26,2.79,4.94.88,3.34,1.24,9.99-2.79,12.25v2.15c3.33-1.57,5.61-4.71,6.02-7.31Z" fill="#ec008c"/><path d="M1.82,286.48c-.39-1.1-1.05-2.17-1.82-3.23v15.56c3.64-2.47,2.92-9.27,1.82-12.34Z" fill="#ec008c"/><path d="M2.46,175.31c-.3-1.86-1.27-3.59-2.46-5.28v15.36c3.02-2.08,2.94-7.12,2.46-10.08Z" fill="#ec008c"/><path d="M10.55,171.87c.07-1.42.7-6.23.32-7.19-.08-.21-2.98-2.57-3.56-3.55-.76-1.3-1.2-2.91-1.29-4.32.05-6.81.08-13.68.65-20.48.35-4.21,2.1-8.13,1.94-12.4-.05-1.19-.96-3.05-.97-4.21-.02-2.12,1.56-11.81-.49-12.73-3.06-1.38-2.68,1.26-4.69,1.66.51-.29,1.51-2.25,1.78-2.33.91-.28,3.29.57,3.4.11-.09-1.87-1.23-4.83-4.69-3.43-1.48.6-2.4,1.73-2.95,3.19v10.75c.68,3.78,1.65,7.32,1.82,9.2.91,10.28-2.31,20.45-1.62,30.67.57,2.96,3.36,5.56,4.85,8.31,1.95,3.6,3.21,6.59,5.5,11.07.05-1.44-.07-2.88,0-4.32ZM3.11,114.18c.14-1.05.97-4.51,2.91-4.65l-1.62,2c-1.86,4.63.03,9.31.97,13.95l-.48,4.09c.53-5.08-2.44-10.33-1.78-15.39ZM3.43,156.81c-1.33-3.24-.38-6.66-.32-9.96.08-4.44-.2-8.88.48-13.29.59,4.43-.08,8.88-.16,13.29-.05,3.26-.41,6.85.65,9.96,0,0,5.35,11.71,5.33,13.73,0,2.03-5.98-13.73-5.98-13.73Z" fill="#006838"/><path d="M10.06,163.46c-.65-.06-4-5.65-3.39-6.65-.38-6.11-.23-12.37.32-18.49.33-3.64,2.02-7.72,2.26-11.07.17-2.23-2.07-12.48-.32-13.51.6-.35,1.05.18,1.62.11.52,13.9.55,27.8.32,41.75-2.93.3-.25-4.63-1.13-5.87-.43,2.12-1.91,5.79,1.13,7.08-.26.89.67,6.79-.81,6.65Z" fill="#006838"/><path d="M10.87,289.69c-.03-1.76.31-10.89,0-11.63-.06-.15-1.94-1.3-2.26-1.77-6.16-9.08-.82-25.32,0-35.21.24-2.91-.95-5.41-.97-7.97-.02-2.6,1.45-10.51,0-12.29-.28-.34-2.27-.9-2.43-.89-1.29.11-1.21,2.24-2.75,2.1.51-.29,1.51-2.24,1.78-2.33.91-.28,3.29.57,3.4.11.21-4.91-5.61-4.87-7.44-.55-.08.18-.13.37-.2.55v10.8c.67,3.03,1.56,6.03,1.82,8.91.7,7.88-1.21,15.27-1.82,22.87v4.52c.76,6.16,4.7,14.97,9.58,22,.22.32.63.87,1.29.78ZM3.11,227.57c.14-1.05.97-4.52,2.91-4.65l-1.62,1.99c-2.72,5.93,2.14,11.89.49,17.83.45-5-2.42-10.19-1.78-15.17ZM8.93,283.6c-1.75-3.51-5.15-10.5-5.82-13.95-.71-3.65-.38-7.53.16-11.18.2,5.25-.16,10.27,1.78,15.39.93,2.47,4.21,6.49,4.53,8.86.05.36-.03.74,0,1.11-.16.22-.61-.15-.65-.22Z" fill="#ec008c"/><path d="M10.87,227.57c-.14-.24-1.4-.66-1.78-.55-1.97.56.29,11.47.16,13.4-.65,10.02-4.76,21.03-2.59,31.23.12.56,3.34,6.6,4.2,4.87.15-.3.15-6.12,0-6.42-.13-.26-1.43-.51-1.62-.89-.55-1.14.41-4.37,0-5.76,1.85.84-1.53,5.9,1.62,5.54-.33-11.29.71-22.61.32-33.88-.04-1.05-.12-7.18-.32-7.53Z" fill="#ec008c"/><path d="M5.7,313.72c-.82,2.46,1.17,5.35,4.69,6.09.63-.16.73-8.76.49-9.19-.6-1.03-4.92,2.35-5.17,3.1Z" fill="#ec008c"/><path d="M5.7,200.33c-.76,2.33,1.24,5.37,4.69,6.09.63-.16.73-8.76.49-9.19-.6-1.03-4.93,2.35-5.17,3.1Z" fill="#ec008c"/><path d="M8.93,226.46l1.46.33c.79-.23.66-6.37.16-7.09-.08-.11-2.2-1.17-2.43-1.77-.27.14-.2,2.24-.16,2.66.18,1.75,1.44,3.99.97,5.87Z" fill="#ec008c"/><path d="M8.61,331.54c-1.05.04-.71,1.93-.65,2.33.3,1.9,1.33,4,.97,5.98l1.62.33c-.07-1.9,1.08-4.7.32-6.53-.12-.29-1.72-1.2-2.26-2.1Z" fill="#ec008c"/></svg>