<?xml version="1.0" standalone="no"?>
 <!DOCTYPE svg PUBLIC "-//W3C//DTD SVG 1.1//EN" 
 "http://www.w3.org/Graphics/SVG/1.1/DTD/svg11.dtd"> 
<svg
  xmlns:svg="http://www.w3.org/2000/svg"
  xmlns="http://www.w3.org/2000/svg"
  xmlns:xlink="http://www.w3.org/1999/xlink"
  xmlns:inkscape="http://www.inkscape.org/namespaces/inkscape"
  version="1.1"
  width="297.0022mm" height="210.0072mm" viewBox="0.0000 0.0000 297.0022 210.0072">
<title>SVG Image created as 03-coral-vault-L08-blue-mask-only-PTH-drl_map.svg date 2026-10-08T19:55:02 </title>
  <desc>Image generated by PCBNEW </desc>
<g style="fill:#000000; fill-opacity:1.0000;stroke:#000000; stroke-opacity:1.0000;
stroke-linecap:round; stroke-linejoin:round;"
 transform="translate(0 0) scale(1 1)">
</g>
<g style="fill:none; 
stroke:#000000; stroke-width:0.0615; stroke-opacity:1; 
stroke-linecap:round; stroke-linejoin:round;">
<path d="M86.2264 120.9736
L86.2264 5.0307
" />
<path d="M86.2264 5.0307
L210.7758 5.0307
" />
<path d="M210.7758 5.0307
L210.7758 120.9736
" />
<path d="M210.7758 120.9736
L86.2264 120.9736
" />
</g>
<g style="fill:none; 
stroke:#000000; stroke-width:0.2000; stroke-opacity:1; 
stroke-linecap:round; stroke-linejoin:round;">
<text x="88.1957" y="124.2043"
textLength="14.8667" font-size="2.6667" lengthAdjust="spacingAndGlyphs"
text-anchor="start" opacity="0" stroke-opacity="0">Drill Map:</text>
<g class="stroked-text"><desc>Drill Map:</desc>
<path d="M88.8034 124.1192
L88.8034 122.1192
" />
<path d="M88.8034 122.1192
L89.2796 122.1192
" />
<path d="M89.2796 122.1192
L89.5653 122.2144
" />
<path d="M89.5653 122.2144
L89.7558 122.4049
" />
<path d="M89.7558 122.4049
L89.8510 122.5953
" />
<path d="M89.8510 122.5953
L89.9463 122.9763
" />
<path d="M89.9463 122.9763
L89.9463 123.2620
" />
<path d="M89.9463 123.2620
L89.8510 123.6430
" />
<path d="M89.8510 123.6430
L89.7558 123.8334
" />
<path d="M89.7558 123.8334
L89.5653 124.0239
" />
<path d="M89.5653 124.0239
L89.2796 124.1192
" />
<path d="M89.2796 124.1192
L88.8034 124.1192
" />
<path d="M90.8034 124.1192
L90.8034 122.7858
" />
<path d="M90.8034 123.1668
L90.8987 122.9763
" />
<path d="M90.8987 122.9763
L90.9939 122.8811
" />
<path d="M90.9939 122.8811
L91.1844 122.7858
" />
<path d="M91.1844 122.7858
L91.3749 122.7858
" />
<path d="M92.0415 124.1192
L92.0415 122.7858
" />
<path d="M92.0415 122.1192
L91.9463 122.2144
" />
<path d="M91.9463 122.2144
L92.0415 122.3096
" />
<path d="M92.0415 122.3096
L92.1368 122.2144
" />
<path d="M92.1368 122.2144
L92.0415 122.1192
" />
<path d="M92.0415 122.1192
L92.0415 122.3096
" />
<path d="M93.2796 124.1192
L93.0891 124.0239
" />
<path d="M93.0891 124.0239
L92.9939 123.8334
" />
<path d="M92.9939 123.8334
L92.9939 122.1192
" />
<path d="M94.3272 124.1192
L94.1368 124.0239
" />
<path d="M94.1368 124.0239
L94.0415 123.8334
" />
<path d="M94.0415 123.8334
L94.0415 122.1192
" />
<path d="M96.6129 124.1192
L96.6129 122.1192
" />
<path d="M96.6129 122.1192
L97.2796 123.5477
" />
<path d="M97.2796 123.5477
L97.9463 122.1192
" />
<path d="M97.9463 122.1192
L97.9463 124.1192
" />
<path d="M99.7558 124.1192
L99.7558 123.0715
" />
<path d="M99.7558 123.0715
L99.6606 122.8811
" />
<path d="M99.6606 122.8811
L99.4701 122.7858
" />
<path d="M99.4701 122.7858
L99.0891 122.7858
" />
<path d="M99.0891 122.7858
L98.8987 122.8811
" />
<path d="M99.7558 124.0239
L99.5653 124.1192
" />
<path d="M99.5653 124.1192
L99.0891 124.1192
" />
<path d="M99.0891 124.1192
L98.8987 124.0239
" />
<path d="M98.8987 124.0239
L98.8034 123.8334
" />
<path d="M98.8034 123.8334
L98.8034 123.6430
" />
<path d="M98.8034 123.6430
L98.8987 123.4525
" />
<path d="M98.8987 123.4525
L99.0891 123.3573
" />
<path d="M99.0891 123.3573
L99.5653 123.3573
" />
<path d="M99.5653 123.3573
L99.7558 123.2620
" />
<path d="M100.7082 122.7858
L100.7082 124.7858
" />
<path d="M100.7082 122.8811
L100.8987 122.7858
" />
<path d="M100.8987 122.7858
L101.2796 122.7858
" />
<path d="M101.2796 122.7858
L101.4701 122.8811
" />
<path d="M101.4701 122.8811
L101.5653 122.9763
" />
<path d="M101.5653 122.9763
L101.6606 123.1668
" />
<path d="M101.6606 123.1668
L101.6606 123.7382
" />
<path d="M101.6606 123.7382
L101.5653 123.9287
" />
<path d="M101.5653 123.9287
L101.4701 124.0239
" />
<path d="M101.4701 124.0239
L101.2796 124.1192
" />
<path d="M101.2796 124.1192
L100.8987 124.1192
" />
<path d="M100.8987 124.1192
L100.7082 124.0239
" />
<path d="M102.5177 123.9287
L102.6130 124.0239
" />
<path d="M102.6130 124.0239
L102.5177 124.1192
" />
<path d="M102.5177 124.1192
L102.4225 124.0239
" />
<path d="M102.4225 124.0239
L102.5177 123.9287
" />
<path d="M102.5177 123.9287
L102.5177 124.1192
" />
<path d="M102.5177 122.8811
L102.6130 122.9763
" />
<path d="M102.6130 122.9763
L102.5177 123.0715
" />
<path d="M102.5177 123.0715
L102.4225 122.9763
" />
<path d="M102.4225 122.9763
L102.5177 122.8811
" />
<path d="M102.5177 122.8811
L102.5177 123.0715
" />
</g></g> 
</svg>
