<?xml version="1.0" encoding="UTF-8"?>
<svg id="a" data-name="back: Z Mesh" xmlns="http://www.w3.org/2000/svg" width="58.91mm" height="128.5mm" viewBox="0 0 166.99 364.25">
  <path d="M23.7,0h5.45c2.32,2.86,4.65,5.71,7.05,8.49,1.44,1.67,1.58,2.77.05,4.55C24.13,27.18,12.1,41.4,0,55.56v-6.42c9.99-11.77,19.97-23.55,29.96-35.32,2.53-2.98,2.54-2.95.15-5.89-2.15-2.63-4.27-5.29-6.41-7.92Z" style="fill: #ae742a; stroke-width: 0px;"/>
  <path d="M40.03,233.21c1.69,1.98,1.42,3.12-.12,4.92C26.56,253.73,13.28,269.38,0,285.03v-6.58c11.65-13.76,23.32-27.52,35.01-41.25,1.02-1.2,1.18-2.01.07-3.32C23.35,220.01,11.67,206.1,0,192.19v-6.29c13.36,15.75,26.63,31.59,40.03,47.31Z" style="fill: #ae742a; stroke-width: 0px;"/>
  <path d="M1.91,6.68q2.75,3.41-.21,6.78C1.14,14.1.57,14.74,0,15.38V4.35s.03.04.05.06c.62.76,1.25,1.51,1.87,2.28Z" style="fill: #ae742a; stroke-width: 0px;"/>
  <path d="M7.16,0h5.42c2.31,2.83,4.63,5.65,7,8.44,1.18,1.38,1.2,2.3-.05,3.72C12.98,19.6,6.53,27.14,0,34.61v-6.61c4.58-5.32,9.12-10.67,13.78-15.92,1.27-1.43,1.12-2.39,0-3.76C11.56,5.57,9.34,2.8,7.16,0Z" style="fill: #ae742a; stroke-width: 0px;"/>
  <path d="M0,211.4v-6.59c8.12,9.57,16.16,19.2,24.28,28.77,1.33,1.56,1.33,2.56-.05,4.14C16.11,247.01,8.05,256.36,0,265.71v-6.45c6.24-7.28,12.46-14.57,18.75-21.79,1.3-1.49,1.22-2.36-.06-3.86C12.41,226.25,6.21,218.82,0,211.4Z" style="fill: #ae742a; stroke-width: 0px;"/>
  <path d="M7.42,344.89c.43-.53.51-1.96.1-2.47-2.48-3.1-4.99-6.17-7.52-9.24v-6.64c4.36,5.27,8.77,10.51,13.22,15.71,1.19,1.39.36,2.17-.45,3.12C8.5,350.43,4.28,355.5,0,360.52v-6.67c2.49-2.97,4.97-5.95,7.42-8.96Z" style="fill: #ae742a; stroke-width: 0px;"/>
  <path d="M42.51,341.5c-12.69-14.88-25.3-29.84-38-44.71-1.18-1.38-1.08-2.22,0-3.52,15.61-18.53,31.16-37.1,46.78-55.62,1.33-1.58,1.51-2.56.04-4.3-14.53-17.18-28.94-34.48-43.41-51.71-1.21-1.44-1.26-2.41.04-3.95,14.9-17.62,29.69-35.34,44.58-52.98,1.33-1.58,1.3-2.53-.04-4.11-2.35-2.78-4.7-5.57-7.05-8.35l2.88-3.27c3.25,3.85,6.5,7.7,9.75,11.54,1.29,1.52,1.4,2.59.04,4.19-14.64,17.31-29.21,34.68-43.8,52.03-2.51,2.99-2.55,2.99,0,6.02,14.18,16.84,28.34,33.7,42.58,50.49,1.48,1.74,1.38,2.88-.06,4.57-15.52,18.28-30.96,36.64-46.48,54.92-1.44,1.7-1.49,2.78.01,4.53,12.59,14.65,25.06,29.4,37.62,44.08,1.2,1.4,1.16,2.35-.04,3.77-5.41,6.36-10.79,12.74-16.17,19.13h-5.71c5.46-6.48,10.93-12.97,16.41-19.44,1.04-1.23,1.1-2.03,0-3.32Z" style="fill: #ae742a; stroke-width: 0px;"/>
  <path d="M25.31,124.28C16.84,134.1,8.46,144,0,153.82v-6.38c6.54-7.67,13.06-15.35,19.63-22.99,1.27-1.47,1.21-2.48-.03-3.97C13.04,112.63,6.52,104.73,0,96.83v-6.6c8.44,10.07,16.8,20.21,25.23,30.28,1.14,1.36,1.32,2.31.07,3.76Z" style="fill: #ae742a; stroke-width: 0px;"/>
  <path d="M110.03,341.26c-5.88-6.6-11.54-13.39-17.28-20.11-.85-.99-1.57-1.94-.13-3.1,1.2-.97,2.06-.57,2.94.42,2.98,3.37,5.99,6.72,8.97,10.1,3.84,4.36,7.62,8.78,11.51,13.09,1.35,1.5,1.36,2.61.03,4.2-5.1,6.11-10.17,12.25-15.24,18.39h-5.55c4.97-6,9.96-11.99,14.99-17.93,1.74-2.05,1.42-3.19-.24-5.06Z" style="fill: #ae742a; stroke-width: 0px;"/>
  <path d="M41.25,124.52C27.48,140.69,13.77,156.92,0,173.09v-6.61c11.88-13.98,23.74-27.98,35.66-41.93,1.38-1.61,1.18-2.58-.12-4.12C23.66,106.32,11.83,92.15,0,77.99v-6.37c13.77,16.31,27.48,32.68,41.25,48.98,1.27,1.5,1.26,2.43,0,3.92Z" style="fill: #ae742a; stroke-width: 0px;"/>
  <path d="M30.79,342.07c1.04,1.02.88,1.87-.02,2.95-5.37,6.4-10.73,12.81-16.08,19.23h-5.64c5.25-6.3,10.49-12.61,15.77-18.89,1.14-1.36,1.29-2.31.04-3.76C16.53,331.96,8.26,322.26,0,312.56v-6.52c9.73,11.39,19.47,22.78,29.21,34.16.53.62,1.01,1.3,1.59,1.87Z" style="fill: #ae742a; stroke-width: 0px;"/>
  <path d="M92.12,0h5.65c3.02,3.68,6.05,7.36,9.14,10.99,1.17,1.38,1.04,2.25-.07,3.54-13.43,15.66-26.81,31.35-40.2,47.04-2.37,2.77-2.3,2.73.11,5.57,12.45,14.66,24.86,29.36,37.29,44.03,2.65,3.12,5.29,6.25,8.02,9.29,1.34,1.48,1.4,2.63.04,4.21-15.53,17.95-30.97,35.98-46.51,53.91-1.52,1.75-1.4,2.81.04,4.51,14.42,16.96,28.75,34,43.15,50.97,1.21,1.43,1.08,2.39-.09,3.77-12.95,15.32-25.85,30.69-38.78,46.03h.02s-6.37,8.07-6.37,8.07c-1.14,1.82-2.04,3.56-1.85,4.26.29,1.06,9.89,12.2,17.16,20.54,9.54,10.88,19.58,22.35,21.91,24.96,1.12,1.26.58,2.14-.3,3.18-5.44,6.45-10.87,12.92-16.31,19.38h-5.78c3.71-4.42,7.43-8.84,11.14-13.26,1.84-2.19,3.71-4.36,5.66-6.47,1.1-1.19,1.07-2.13.02-3.38-2.96-3.5-5.8-7.1-8.69-10.66-.37-.45-23.81-26.75-29.07-32.96l-1.23-1.34v-.04c-.55-.72-1.23-1.96-.68-2.49.16-.16.35-.35.53-.54v-.02s5.37-5.78,5.37-5.78c.13-.2.28-.4.46-.61,7.89-9.3,15.65-18.7,23.5-28.04,5.8-6.89,11.62-13.76,17.51-20.56,1.36-1.57,1.48-2.57.02-4.3-14.15-16.76-28.19-33.61-42.23-50.46-2.32-2.78-2.21-2.8.15-5.54,14.27-16.55,28.52-33.12,42.78-49.68,1.12-1.3,2.2-2.65,3.4-3.87,1.18-1.2.97-2.13-.07-3.34-15.5-18.19-30.93-36.44-46.46-54.61-1.37-1.61-1.3-2.61.02-4.14,13.06-15.22,26.05-30.49,39.07-45.74.32-.37.6-.8.97-1.11,1.95-1.66,1.86-3.12.14-5.09-2.92-3.35-5.75-6.78-8.56-10.22Z" style="fill: #ae742a; stroke-width: 0px;"/>
  <path d="M110.02,178.01c11.08-12.81,22.11-25.67,33.13-38.53v6.64c-9.26,10.76-18.53,21.53-27.82,32.27-1.34,1.55-1.41,2.56-.06,4.15,9.31,10.95,18.59,21.92,27.88,32.9v6.47c-11.04-13.06-22.06-26.14-33.13-39.17-1.52-1.79-1.59-2.88,0-4.71Z" style="fill: #ae742a; stroke-width: 0px;"/>
  <path d="M114.25,285.09c9.64-11.63,19.25-23.27,28.9-34.89v6.71l-22.97,27.54c-1.57,1.86-1.46,2.92.08,4.68,7.65,8.72,15.27,17.47,22.88,26.22v6.42l-29.17-33.42c-1.26-1.43-.65-2.17.27-3.27Z" style="fill: #ae742a; stroke-width: 0px;"/>
  <path d="M132.03,284c3.72-4.41,7.42-8.83,11.12-13.26v6.79c-.04.05-.08.1-.13.15-1.99,2.39-3.98,4.79-6.07,7.09-1.16,1.27-1.19,2.15-.01,3.52,2.07,2.4,4.14,4.82,6.21,7.22v6.57c-3.72-4.31-7.43-8.63-11.15-12.93-1.71-1.97-1.62-3.2.03-5.15Z" style="fill: #ae742a; stroke-width: 0px;"/>
  <path d="M111.9,67.76c-.97-1.12-1.08-1.94-.05-3.15,10.45-12.26,20.86-24.55,31.3-36.82v6.57c-7.97,9.39-15.95,18.78-23.92,28.17-3.86,4.54-3.55,3.21-.02,7.42,7.96,9.51,15.95,18.99,23.95,28.46v6.62c-8.38-9.96-16.77-19.92-25.15-29.88-2.05-2.44-4.01-4.97-6.1-7.38Z" style="fill: #ae742a; stroke-width: 0px;"/>
  <path d="M136.25,62.79c-3.47,4.1-3.4,3.03-.17,6.87,2.35,2.79,4.71,5.58,7.07,8.37v6.64c-4.67-5.58-9.34-11.16-14.05-16.71-1.09-1.29-.91-2.16.11-3.36,4.65-5.48,9.29-10.98,13.93-16.47v6.53c-2.3,2.71-4.6,5.42-6.9,8.13Z" style="fill: #ae742a; stroke-width: 0px;"/>
  <path d="M143.15,179.99v1.26c-.14-.43-.14-.84,0-1.26Z" style="fill: #ae742a; stroke-width: 0px;"/>
  <path d="M73.7,0h5.72c1.21,1.48,2.41,2.95,3.62,4.43,1.72,2.08,3.42,4.19,5.24,6.18,1.26,1.37,1.13,2.43-.04,3.81-13.6,15.94-27.1,31.96-40.77,47.85-1.79,2.08-1.67,3.26.04,5.27,15.04,17.62,29.94,35.35,44.96,52.99,1.44,1.69,1.5,2.76.03,4.5-14.81,17.49-29.49,35.09-44.31,52.57-1.58,1.87-1.46,2.9.06,4.68,14.71,17.25,29.3,34.6,44,51.86,1.42,1.67.76,2.7-.34,3.99-12.69,15-25.36,30.01-38.03,45.02-3.01,3.56-5.96,7.18-9.05,10.68-1.29,1.46-1.2,2.51.05,3.97,12.48,14.53,24.86,29.14,37.38,43.63,1.48,1.72,1.59,2.78.11,4.5-5.22,6.09-10.41,12.21-15.59,18.33h-5.77c5.43-6.4,10.85-12.81,16.3-19.2,1.05-1.23.78-2.05-.16-3.14-12.79-14.91-25.54-29.85-38.34-44.75-.95-1.11-.95-1.75-.01-2.87,15.86-18.74,31.67-37.54,47.52-56.29,1.25-1.47,1.46-2.49.06-4.14-14.67-17.28-29.22-34.68-43.9-51.95-1.62-1.9-1.02-2.96.31-4.52,14.8-17.5,29.52-35.06,44.34-52.55,1.35-1.6,1.26-2.55-.07-4.11-15.25-17.97-30.41-36.02-45.65-54.01-1.2-1.42-1.17-2.32.02-3.73,13.66-16.1,27.24-32.28,40.92-48.37,1.39-1.64,1.46-2.66.02-4.31-2.94-3.39-5.86-6.81-8.67-10.31Z" style="fill: #ae742a; stroke-width: 0px;"/>
  <path d="M56.83,0h5.68c2.81,3.37,5.62,6.72,8.48,10.05,1.23,1.43,1.35,2.45.04,3.99-13.79,16.21-27.46,32.52-41.29,48.69-1.78,2.08-.86,3.2.44,4.72,14.98,17.66,29.9,35.38,44.97,52.98,1.7,1.99,1.4,3.07-.1,4.85-14.45,17.04-28.84,34.13-43.19,51.26-3.23,3.86-3.22,2.86,0,6.69,13.76,16.34,27.5,32.7,41.23,49.07,2.67,3.18,2.67,3.23-.04,6.47-14.7,17.58-29.41,35.15-44.12,52.73-.42.5-.79,1.06-1.26,1.5-1.49,1.37-1.16,2.51.08,3.94,7.1,8.15,14.12,16.35,21.14,24.57,5.53,6.47,10.97,13.02,16.56,19.44,1.44,1.66,1.34,2.77-.04,4.39-5.37,6.28-10.71,12.59-16.05,18.9h-5.75c5.59-6.56,11.17-13.11,16.77-19.66.93-1.09.91-1.84-.02-2.93-12.61-14.85-25.14-29.76-37.8-44.57-1.49-1.74-1.49-2.77-.03-4.5,15.36-18.21,30.6-36.5,45.96-54.71,1.47-1.75,1.43-2.82-.01-4.54-14.4-17.08-28.7-34.25-43.09-51.35-1.39-1.65-1.63-2.65-.06-4.49,14.9-17.52,29.65-35.17,44.49-52.74,1.29-1.53,1.31-2.51-.06-4.12-15.23-17.88-30.36-35.85-45.56-53.75-1.38-1.62-1.41-2.63.04-4.32,13.61-15.93,27.08-31.98,40.68-47.92,1.53-1.8,1.56-2.97.03-4.77-2.76-3.25-5.44-6.55-8.11-9.87Z" style="fill: #ae742a; stroke-width: 0px;"/>
  <path d="M111.07,0h22.25c3.16,3.73,6.32,7.46,9.53,11.15.12.13.21.26.3.39v2.9c-.12.17-.25.34-.4.51-13.91,16.21-27.79,32.45-41.68,48.68-2.19,2.57-2.16,2.53.07,5.17,14,16.57,27.97,33.16,42.01,49.69v7.87c-14.93,17.36-29.81,34.76-44.77,52.09-1.35,1.56-1.4,2.49-.04,4.07,14.4,16.87,28.7,33.82,43.06,50.72,1,1.18,1.58,1.85,1.75,2.43v.72c-.17.59-.75,1.27-1.75,2.45-12.84,15.3-25.63,30.63-38.48,45.92-1.13,1.35-1.25,2.28.02,3.73,13.43,15.38,26.79,30.83,40.2,46.23v17.82c-3.27,3.9-6.54,7.8-9.81,11.7h-21.69c5.02-5.96,10.04-11.92,15.06-17.87,2.37-2.81,2.36-2.78-.04-5.6-15.06-17.7-30.1-35.43-45.2-53.1-1.29-1.51-1.17-2.54.05-3.99,12.75-15.16,25.42-30.38,38.2-45.52,1.37-1.62,1.46-2.54,0-4.25-14.65-17.19-29.18-34.49-43.77-51.73-1.1-1.3-1.12-2.23.04-3.57,12.57-14.56,25.07-29.17,37.6-43.76,3.09-3.6,6.21-7.18,9.39-10.71,1.18-1.31,1.34-2.22.07-3.72-14.63-17.21-29.16-34.51-43.78-51.73-1.46-1.72-1.42-2.8.06-4.53,13.88-16.23,27.66-32.56,41.49-48.84,1.07-1.26,1.26-2.18.07-3.57-3.32-3.88-6.58-7.81-9.83-11.75Z" style="fill: #ae742a; stroke-width: 0px;"/>
  <path d="M40.28,0h5.61c2.69,3.28,5.4,6.55,8.17,9.76,1.31,1.52,1.17,2.51-.06,3.95-13.85,16.27-27.62,32.59-41.48,48.85-1.24,1.46-1.36,2.42-.07,3.94,5.47,6.46,10.93,12.93,16.39,19.4l-3.2,2.87c-6.13-7.29-12.27-14.57-18.4-21.85-1.19-1.41-1.97-2.49-.37-4.36,9.99-11.7,19.82-23.54,29.74-35.29,3.91-4.63,7.88-9.2,11.91-13.72,1.06-1.19,1.22-2.05.14-3.34-2.82-3.38-5.61-6.78-8.39-10.19Z" style="fill: #ae742a; stroke-width: 0px;"/>
  <path d="M127.78,177.34c5.13-5.97,10.25-11.95,15.37-17.93v6.52c-3.63,4.23-7.25,8.46-10.89,12.68-1.34,1.55-1.15,2.46.08,3.9,3.61,4.25,7.21,8.51,10.82,12.76v6.59c-5.16-6.11-10.31-12.22-15.47-18.33-2.63-3.12-2.58-3.07.1-6.19Z" style="fill: #ae742a; stroke-width: 0px;"/>
</svg>