<?xml version="1.0" encoding="UTF-8"?>
<svg id="a" data-name="Z Mesh All" xmlns="http://www.w3.org/2000/svg" width="58.91mm" height="128.5mm" viewBox="0 0 166.99 364.25">
  <path d="M60.61,27.76c-14.87,16.89-29.7,33.82-44.62,50.68-1.4,1.58-1.28,2.55.03,4.11,12.93,15.33,25.77,30.73,38.69,46.07,1.1,1.3.9,2.2-.11,3.38-10.25,12.02-20.46,24.07-30.69,36.12-4.34,5.12-8.7,10.22-13,15.37-.78.93-2.14,1.97-.54,3.3,1.51,1.26,2.37-.04,3.21-1.02,13.17-15.23,26.34-30.47,39.5-45.71,2.41-2.79,4.76-5.62,7.21-8.37.96-1.08.9-1.84-.03-2.94-12.76-15.15-25.48-30.34-38.22-45.51-2.3-2.74-2.27-2.67.09-5.35,15.02-17.1,29.99-34.23,45.03-51.3,1.25-1.42.89-2.32-.15-3.55-6.45-7.67-12.88-15.36-19.3-23.05h-5.7c6.22,7.39,12.44,14.78,18.64,22.19,2.41,2.87,2.34,2.85-.06,5.58Z" style="fill: #ae742a; stroke-width: 0px;"/>
  <path d="M134.46,0h-5.58c4.74,5.51,9.49,11.01,14.27,16.5v-6.16c-2.9-3.44-5.8-6.88-8.69-10.33Z" style="fill: #ae742a; stroke-width: 0px;"/>
  <path d="M9.52,130.23C6.34,126.43,3.17,122.61,0,118.8v6.75c1.26,1.51,2.5,3.02,3.76,4.53,1.59,1.9,1.35,2.94-.13,4.68-1.22,1.43-2.42,2.87-3.64,4.3v6.48c3.19-3.77,6.38-7.54,9.58-11.31,1.29-1.52,1.16-2.54-.06-4Z" style="fill: #ae742a; stroke-width: 0px;"/>
  <path d="M12.16,243.47C8.1,238.77,4.05,234.07,0,229.36v6.68c2.04,2.38,4.07,4.75,6.11,7.13,2.28,2.66,2.31,2.72.01,5.46-2.04,2.43-4.08,4.85-6.12,7.27v6.66c4.1-4.84,8.19-9.69,12.3-14.52,1.52-1.79,1.28-2.93-.14-4.57Z" style="fill: #ae742a; stroke-width: 0px;"/>
  <path d="M26,129.52C17.32,119.1,8.66,108.66,0,98.22v6.71c7.05,8.43,14.1,16.86,21.18,25.27,1.3,1.54,1.18,2.46-.05,3.92C14.07,142.43,7.03,150.75,0,159.08v6.62c8.66-10.24,17.32-20.48,25.98-30.72,2.35-2.79,2.29-2.74.03-5.46Z" style="fill: #ae742a; stroke-width: 0px;"/>
  <path d="M43.97,133.87c1.53-1.8,1.32-2.88-.08-4.53-12.74-15.06-25.42-30.18-38.11-45.28-2.19-2.61-2.17-2.59.06-5.22,14.69-17.27,29.37-34.55,44.09-51.8,1.13-1.33,1.1-2.3,0-3.61-6.57-7.8-13.13-15.62-19.67-23.44h-5.68c6.6,7.8,13.19,15.6,19.83,23.37,1.26,1.48,1.04,2.38-.1,3.71-11.02,12.87-21.99,25.78-32.98,38.68C7.57,70.16,3.84,74.58,0,78.9v5.05c11.19,13.19,22.32,26.43,33.46,39.65,1.79,2.13,3.52,4.32,5.37,6.39,1.14,1.28,1.12,2.23-.02,3.58C25.86,148.81,12.95,164.08,0,179.33v6.52c.14-.2.31-.41.49-.63,14.53-17.09,28.93-34.28,43.47-51.35Z" style="fill: #ae742a; stroke-width: 0px;"/>
  <path d="M131.36,299.54c-1.15,1.32-.95,2.32.19,3.59,3.87,4.34,7.73,8.69,11.6,13.04v-6.37c-1.73-1.95-3.46-3.9-5.19-5.85-2.34-2.63-2.38-2.66-.09-5.36,1.76-2.07,3.52-4.14,5.28-6.21v-6.92c-2.38,2.79-4.75,5.58-7.13,8.37-1.59,1.87-3.05,3.85-4.66,5.7Z" style="fill: #ae742a; stroke-width: 0px;"/>
  <path d="M124.76,191.74c6.14,7.21,12.26,14.42,18.39,21.63v-6.34c-4.6-5.46-9.2-10.91-13.83-16.35-1.42-1.67-1.37-2.67.03-4.3,4.61-5.4,9.2-10.82,13.8-16.24v-6.55c-6.1,7.17-12.21,14.35-18.32,21.51-2.89,3.39-2.89,3.33-.07,6.64Z" style="fill: #ae742a; stroke-width: 0px;"/>
  <path d="M139.76,190.26c1.13,1.34,2.26,2.69,3.39,4.04v-11.6c-1.13,1.4-2.26,2.8-3.41,4.18-1.02,1.23-1.06,2.1.02,3.38Z" style="fill: #ae742a; stroke-width: 0px;"/>
  <path d="M106.36,190.98c12.29,14.53,24.54,29.11,36.79,43.68v-6.31c-.69-.82-1.38-1.63-2.07-2.45-9.77-11.67-19.49-23.39-29.31-35.02-1.26-1.49-1.03-2.35.14-3.7,10.43-12.02,20.83-24.06,31.25-36.09v-6.3c-12.25,14.14-24.48,28.3-36.75,42.43-1.19,1.37-1.26,2.34-.04,3.77Z" style="fill: #ae742a; stroke-width: 0px;"/>
  <path d="M115,77.53c9.4,10.92,18.77,21.87,28.15,32.81v-6.46c-7.01-8.22-14.01-16.44-20.99-24.67-3.58-4.23-4.11-2.98.23-7.7,6.93-7.53,13.84-15.08,20.76-22.62v-4.54c-9.37,10.05-18.73,20.1-28.1,30.13-1.07,1.14-1.09,1.83-.04,3.04Z" style="fill: #ae742a; stroke-width: 0px;"/>
  <path d="M135.56,78.43c2.53,2.95,5.06,5.91,7.59,8.86v-6.75c-.57-.67-1.14-1.34-1.71-2.01-1.61-1.88-1.65-3.02,0-4.88.57-.64,1.14-1.29,1.71-1.93v-6.23c-2.51,2.85-5.01,5.7-7.52,8.54-1.39,1.58-1.51,2.71-.07,4.39Z" style="fill: #ae742a; stroke-width: 0px;"/>
  <path d="M114.78,305.22c9.5,10.63,18.93,21.32,28.37,32v-5.8c-8.51-9.7-17.02-19.4-25.56-29.08-1.44-1.63-1.45-2.69-.08-4.31,8.56-10.14,17.1-20.3,25.64-30.46v-6.7c-9.71,11.48-18.98,23.34-28.69,34.83-4.11,4.86-3.89,4.81.32,9.52Z" style="fill: #ae742a; stroke-width: 0px;"/>
  <path d="M143.15,364.25v-4.31c-1.24,1.43-2.46,2.87-3.69,4.31h3.69Z" style="fill: #ae742a; stroke-width: 0px;"/>
  <path d="M132.98,18.02h0c-5.04-6.02-10.11-12.02-15.18-18.02h-5.34c4.93,5.72,9.85,11.45,14.77,17.17.72.84,1.45,1.66,2.17,2.5h-.01s.31.35.31.35c.84.97,1.68,1.94,2.52,2.9.22.25.46.46.71.64l4.57,5c-8.4,8.12-16.82,16.23-25.11,24.46-9.23,9.18-18.2,18.61-27.33,27.88-1.26,1.28-1.23,2.13-.08,3.48,12.17,14.36,24.25,28.79,36.43,43.15,1.24,1.46,1.08,2.31-.1,3.69-16.07,18.67-32.07,37.4-48.13,56.08-1.16,1.35-1.03,2.25.07,3.55,2.74,3.24,5.48,6.49,8.22,9.73-.44.03-.89.09-1.32.16-.49.08-.57.09-.63,0-.04-.05-.18-.11-.32-.13-.32-.04-.48.06-.49.32,0,.16-.06.22-.3.36-.16.09-.8.47-1.43.85-.99.6-1.22.78-1.74,1.3-.58.58-1.14,1.19-1.58,1.67-1.06-1.25-2.11-2.5-3.17-3.75.02-.32.04-.63.05-.9l.04-1.05.33-.36c.66-.72.9-1.54.52-1.76-.2-.11-.41-.06-.67.17-.26.24-.32.42-.16.58.11.11.11.14.03.29-.13.25-.18.2-.23-.17-.07-.62-.05-.79.09-.83.19-.05.14-.32-.06-.35-.29-.04-.44.04-.51.29-.04.13-.07.32-.07.43,0,.29-.42.88-.99,1.4l-.16.15c-1.91-2.27-3.82-4.53-5.74-6.8-.42-.5-.78-1.06-1.25-1.52-1.17-1.14-1.05-2.06.03-3.32,14.62-17.01,29.18-34.06,43.75-51.11,1.44-1.68,2.74-3.48,4.24-5.09,1.32-1.43,1.24-2.55,0-4.02-8.44-10.02-16.81-20.08-25.19-30.15-4.03-4.84-7.96-9.77-12.07-14.55-1.4-1.62-1.23-2.6.21-4.08,13.51-13.8,26.97-27.66,40.4-41.55,2.84-2.94,5.44-6.11,8.28-9.06,1.28-1.33,1.08-2.27-.02-3.53-7.02-8.14-14.02-16.31-21.02-24.47h-5.52c7.2,8.33,14.4,16.66,21.64,24.95,1.44,1.65.66,2.55-.43,3.68-10.56,10.96-21.11,21.95-31.68,32.9-5.63,5.83-11.28,11.64-17,17.38-1.26,1.26-1.25,2.08-.1,3.46,12.47,14.85,24.85,29.79,37.33,44.64,1.4,1.67,1.26,2.75-.11,4.34-16.02,18.71-31.97,37.48-47.97,56.22-.96,1.12-1.42,1.93-.23,3.32,1.1,1.3,2.2,2.6,3.3,3.91-.21-.02-.4-.03-.57-.03-.49,0-.8.08-1.02.24-.46.32-1.62,1.59-1.94,2.13-.06.09-.3.27-.54.41-.57.31-1.36.92-1.62,1.25-.25.3-.76.58-1.41.76-.06.02-.11.03-.16.05-2.13-2.53-4.27-5.07-6.4-7.6-2.21-2.63-2.14-2.6.06-5.17,15.47-18.11,30.92-36.23,46.35-54.37,2.32-2.73,2.26-2.77.04-5.45-12.34-14.86-24.65-29.74-37.08-44.53-1.54-1.83-1.28-2.83.18-4.46,15.67-17.39,31.25-34.86,46.92-52.25,1.45-1.61,1.46-2.6.02-4.27-6.12-7.13-12.18-14.31-18.23-21.49h-5.63c3.66,4.28,7.3,8.56,10.96,12.84,2.44,2.86,4.83,5.77,7.35,8.58,1.4,1.56,1.41,2.75-.05,4.37-12.79,14.25-25.51,28.57-38.25,42.87-2.94,3.3-5.85,6.63-8.85,9.87-1.16,1.25-1.24,2.14-.07,3.53,12.49,14.95,24.91,29.95,37.35,44.95q2.25,2.71-.07,5.42c-15.22,17.78-30.47,35.54-45.66,53.35-3.78,4.43-3.12,3.4.14,7.26,4.43,5.24,8.86,10.5,13.28,15.75-.2.19-.44.44-.59.63l-.37.43-.23-.29c-.12-.16-.52-.6-.87-1-.36-.39-.81-.91-1.02-1.16-.4-.5-.56-.63-1.36-1.16-.33-.22-.7-.53-.95-.82-.46-.51-.72-.67-1.55-.93-.32-.1-.67-.24-.79-.32-.6-.38-.73-.42-1.4-.4l-.63.02v-.29c0-.16-.04-.36-.08-.44-.05-.1-.15-.17-.25-.18-.15-.02-.19.02-.29.22-.07.13-.15.31-.17.4-.08.25-.24.6-.31.65-.04.03-.33.13-.66.24-.9.29-1.23.47-1.98,1.1-.17.14-.32.26-.46.39-3.99-4.72-7.97-9.45-11.97-14.16-1.51-1.78-1.57-2.88.02-4.71,15.77-18.18,31.41-36.46,47.17-54.65,1.72-1.98,1.56-3.21-.08-5.16-11.29-13.49-22.45-27.1-33.65-40.67-1.25-1.51-2.47-3.06-3.83-4.47-1.21-1.26-1.18-2.22,0-3.54,9.5-10.61,18.97-21.25,28.38-31.93,5.95-6.76,11.75-13.65,17.71-20.39,1.27-1.44,1.13-2.36-.02-3.73-6.27-7.47-12.51-14.97-18.75-22.47h-5.57c5.22,6.26,10.43,12.53,15.65,18.79,1.1,1.32,2.15,2.68,3.32,3.95,1.08,1.18,1.1,2.09-.02,3.35-11.82,13.36-23.58,26.79-35.38,40.17-3.57,4.05-7.17,8.08-10.84,12.05-1.23,1.33-1.31,2.28-.08,3.74,12.86,15.28,25.61,30.65,38.49,45.92,1.48,1.76.59,2.74-.46,3.95-8.62,9.97-17.26,19.92-25.84,29.92-7.31,8.51-14.52,17.09-21.85,25.57-1.34,1.55-1.33,2.56.01,4.14,4.99,5.87,9.96,11.76,14.93,17.65,0,.15-.05.26-.2.5-.25.42-.25.56-.01.58.13.02.2-.03.37-.27l.21-.29.11.17c.06.1.11.2.11.22,0,.26,1.83,2.28,2.74,3.03,1.45,1.72,2.91,3.43,4.36,5.15-.09.1-.19.27-.27.49-.18.49-.23.57-.34.55-.06-.01-.17.12-.3.36-.12.23-.39.56-.66.82-.25.24-.63.63-.84.86l-.39.44-.34-.34c-.18-.19-.64-.6-1.03-.91-.38-.31-.92-.78-1.2-1.02-.45-.41-1-.88-2.04-1.77-.59-.5-1.67-.93-2.35-.93-.16,0-.51-.08-.79-.18l-.51-.18v-.46c-.02-.25-.06-.5-.1-.55-.05-.06-.1-.09-.15-.09s-.1.03-.15.09c-.06.07-.2.68-.2.88,0,.03-.16.05-.36.05-.83,0-1.21.11-2.26.62-.56.27-1.2.61-1.43.77-.48.31-1.11,1.02-2.12,2.41-.32.45-.49.66-.6.75-8.92-10.36-17.84-20.72-26.8-31.05-.2-.23-.38-.45-.52-.66v6.63c11.35,13.1,22.67,26.23,34.02,39.32-.16.15-.35.35-.58.63-.33.39-1.04,1.12-1.59,1.63-1.33,1.23-2.21,2.15-2.51,2.63-.23.36-.28.41-.59.5-.33.1-.64.32-.64.48,0,.04.08.14.18.22,1.92,1.68,3.37,2.67,5.37,3.65,1.43.71,1.93.88,2.43.88h.28l.04.51c.05.64.11.76.35.76.27,0,.34-.18.3-.81l-.03-.53.64-.31c.35-.17.93-.4,1.3-.51.63-.19,1.75-.69,2.5-1.1,1.26,1.66,1.21,2.79-.42,4.68C27.3,264.5,13.69,280.62,0,296.66v10.46c12.96,15.23,25.83,30.55,38.78,45.79,1.58,1.86,1.55,3.11-.04,4.98-1.78,2.09-3.51,4.22-5.23,6.36h5.48c1.93-2.32,3.86-4.63,5.82-6.93,1.15-1.34,1.27-2.31.03-3.77-14.16-16.65-28.21-33.39-42.4-50.01-1.54-1.8-.58-2.7.44-3.88,9.96-11.59,19.93-23.17,29.87-34.77.06-.05.11-.1.17-.15,1.33-1.28,2.14-1.91,2.38-1.87.13.02.04.12-.75.83-1.01.9-1.57,1.46-1.57,1.59,0,.13.13.24.3.24.27,0,.72-.38,1.98-1.66.68-.7,1.26-1.26,1.28-1.26.03,0,.27-.17.53-.38.38-.31.49-.37.56-.31.07.06-.06.22-.73.9-1.05,1.09-1.35,1.43-2.38,2.83-.88,1.2-.98,1.41-.76,1.6.16.13.47-.08,1.12-.79.32-.36.95-1.03,1.4-1.5.45-.47,1.42-1.5,2.15-2.28,1.58-1.7,2.17-2.2,1.76-1.49-.26.46-.63.88-1.99,2.24-1.74,1.75-2.86,2.99-3.7,4.11-.55.73-.71,1-.68,1.09.07.22.27.22.54,0,.18-.15.25-.17.25-.1,0,.13.23.25.34.18.05-.03.31-.31.58-.62l.49-.57.05.2c.06.22.27.39.46.39.23,0,.69-.25,1.17-.65.61-.5.69-.56.59-.43-.66.88-1.46,1.92-1.79,2.32-.49.58-.57.72-.57.95,0,.34.51.39.95.11.15-.1.61-.45,1.01-.78.4-.33.92-.69,1.15-.81.23-.12.76-.48,1.17-.81.52-.42.75-.57.76-.5.03.15.12.11.3-.12.1-.13.25-.24.37-.26.11-.03.35-.13.54-.23s.35-.17.37-.16c.01.01-.06.22-.17.46-.17.38-.33.58-1.21,1.46-1.02,1.04-1.13,1.21-.93,1.41.11.11.4.1.62-.02.11-.06.19-.09.19-.08,0,0-.08.22-.19.46-.1.25-.19.5-.19.58,0,.04.01.08.03.12-8.45,9.76-16.91,19.53-25.38,29.28-1.24,1.43-1.42,2.4-.1,3.95,6.63,7.79,13.24,15.59,19.84,23.41l-2.22,11.4h2.33l1.61-9.09,4.3,9.78,1.46-3.23c2.95,3.49,5.89,6.98,8.84,10.47,1.85,2.19,3.67,4.4,5.58,6.53,1.06,1.18,1.13,2.13.06,3.39-2.03,2.4-4.04,4.81-6.05,7.23h5.53c1.89-2.24,3.78-4.47,5.7-6.69,1.3-1.49,1.49-2.5.08-4.14-4.43-5.17-8.84-10.36-13.26-15.55l-2.6-14.88-3.51,7.71c-7.5-8.82-15-17.63-22.53-26.42-1.46-1.7-.78-2.66.33-3.93,7.66-8.79,15.3-17.59,22.94-26.4.03-.02.05-.05.08-.09.2-.23.39-.45.59-.68-.04.21-.12.54-.22.93-.32,1.24-.36,1.61-.16,1.79.06.06.16.1.22.08.08-.03.09,0,.09.18,0,.67.51.89,1.35.58l.4-.15-.04.29c-.08.45-.06.93.02,1.01.04.04.14.08.22.08.2,0,.3-.23.47-1.09l.14-.73.52-.31c.29-.17.59-.32.66-.33.08-.01.17-.05.21-.08.04-.04.09-.01.15.08.06.11.13.13.35.1.21-.03.51-.13.94-.36.03-.01.04.1.04.26-.02.34.09.5.31.48.2-.03.23-.1.34-.71.08-.49.09-.51.34-.65l.26-.15-.18.76c-.09.42-.19.8-.22.85-.03.04-.28.39-.56.78-1.37,1.87-1.67,2.55-1.26,2.89.09.08.22.13.28.13.13,0,.36-.09.6-.2-5.77,6.66-11.55,13.33-17.34,19.98-.16.18-.28.35-.41.52h-4.02v2.13h3.35c.02.12.05.25.09.38v12.54h2.26v-9.56c1.27,1.42,2.52,2.85,3.79,4.27-.01.17-.04.34-.04.52,0,1.45.42,2.66,1.27,3.63.85.95,1.93,1.42,3.24,1.42.14,0,.29-.03.43-.04,4.22,4.75,8.44,9.51,12.65,14.27-.68.24-1.29.61-1.83,1.14-.98.96-1.46,2.13-1.46,3.5,0,1.46.48,2.66,1.43,3.63.96.97,2.14,1.46,3.56,1.46s2.63-.48,3.61-1.43c.39-.38.68-.82.91-1.27,5.68,6.43,11.37,12.86,17.06,19.27,1.2,1.35,1.06,2.27-.03,3.55-1.33,1.56-2.64,3.12-3.96,4.69h5.39c1.35-1.62,2.71-3.25,4.09-4.85,1.16-1.34,1.14-2.2-.03-3.52-4.88-5.52-9.75-11.05-14.62-16.58.69-.18,1.33-.55,1.92-1.12v.99h2.19v-16.46h-2.19v8.07c-.87-.91-1.86-1.36-2.96-1.36-1.27,0-2.33.48-3.17,1.43-.6.67-.97,1.46-1.15,2.37-5.58-6.34-11.16-12.67-16.74-19.01v-8.48h-2.19v1.1c-.87-.91-1.86-1.36-2.96-1.36-.77,0-1.45.2-2.07.54-.4-.45-.79-.9-1.19-1.35-.97-1.1-1.57-1.78-1.81-2.35h.3v-1.6c.33-.49.86-1.1,1.59-1.94,5.73-6.6,11.45-13.21,17.17-19.81-.03.05-.06.09-.09.14-1.41,2.08-1.79,2.69-2.21,3.53-.49.97-.54,1.2-.29,1.37.15.1.17.1.32,0,.09-.06.76-.71,1.5-1.44l1.34-1.33-.05.46c-.06.53-.02.85.12,1.01.23.25.58.07.83-.44.18-.36.61-1.64.84-2.5.19-.71.2-.74.73-1.42.3-.37.55-.67.56-.66.02.01-.03.27-.09.56-.31,1.32-.41,2.46-.24,2.68.04.06.14.12.21.14.23.07.44-.19.62-.74.25-.78.7-2.66.92-3.8.12-.62.25-1.12.32-1.23l.12-.19-.04.29c-.15,1.1-.69,3.43-1.1,4.77-.29.92-.6,2.22-.66,2.75-.07.58.01,1.05.22,1.27.21.22.43.23.8.04.47-.22.94-.78,1.83-2.11.47-.71.85-1.24.85-1.18,0,.16-.3,1.58-.4,1.93-.15.46-.13.78.03.86.23.13.37.02.48-.37.06-.2.18-.65.28-1,.27-.93.54-2.05.73-2.99.13-.64.26-1.03.56-1.72l.39-.89.02,2.03v2.03s-.2.92-.2.92c-.55,2.29-1.12,5.03-1.16,5.47s-.03.5.1.62c.18.18.36.17.53-.02.07-.08.57-1.01,1.1-2.07.53-1.05.97-1.86.97-1.8,0,.24.32.37.49.2.09-.1.09-.11-.02.43-.05.25-.09.67-.09.96,0,.57.08.72.39.72.42,0,1.26-.99,1.84-2.15.16-.31.29-.43.29-.25,0,.14.25.36.41.36.08,0,.19-.06.24-.13.09-.13.09-.12.23.1.22.36.52.46.71.24.13-.13.22-.71.28-1.67l.04-.73.11.41c.07.23.22.73.35,1.12l.23.71-.37,1.06c-.29.86-.35,1.09-.3,1.21.08.17.28.25.45.16.15-.08.52-.96.78-1.86.14-.47.23-.67.28-.65.04.02.11.05.16.07.04.02.16-.03.25-.11.2-.18.33-.75.43-1.93.04-.46.1-.92.15-1.02.04-.11.11-.34.15-.51.11-.48.39-2.26.39-2.46,0-.1.03-.18.05-.18s.11.95.2,2.11c.1,1.47.17,2.37.23,2.92-4.05,5-8.11,9.99-12.16,14.99-2.32,2.86-2.27,2.88.09,5.61.61.7,1.22,1.41,1.84,2.12-.47-.2-.95-.31-1.47-.31-1.27,0-2.33.47-3.18,1.42-.85.95-1.27,2.13-1.27,3.56s.42,2.66,1.27,3.63c.85.95,1.93,1.42,3.24,1.42,1.03,0,2-.42,2.9-1.27v.99h2.19v-5.21c1,1.15,2,2.3,3,3.46l-1.44,1.76h2.97c4.6,5.3,9.2,10.6,13.8,15.9v8.05h2.18v-5.54c.97,1.11,1.93,2.22,2.9,3.34.19.38.41.74.69,1.06.26.29.56.53.86.73,2.61,3.01,5.23,6.02,7.85,9.04,2.35,2.71,2.33,2.72.12,5.4-3.05,3.69-6.11,7.38-9.16,11.07h5.52c2.34-2.81,4.68-5.63,6.98-8.47,1.29-1.6,2.23-1.53,3.41.05,3.64,4.88,4,3.47-.09,8.34-.02.03-.05.06-.07.08h5.55c.6-.68,1.19-1.36,1.8-2.03,1.55-1.7,1.53-2.83.04-4.54-5.35-6.16-10.68-12.34-16.02-18.51h1.53v-9.49h-2.19v1.1c-.87-.91-1.86-1.36-2.95-1.36-1.27,0-2.33.47-3.18,1.42-.07.08-.13.18-.19.26-1.13-1.31-2.26-2.62-3.39-3.93v-4.47h-2.18v1.94c-2.71-3.14-5.43-6.29-8.14-9.43h1.3v-2.07h-3.08c-.43-.5-.86-1-1.29-1.5l4.87-5.93h-9.13v1c-.84-.97-1.68-1.95-2.52-2.92-2.6-3.01-2.66-3.04-.14-6.17,3.86-4.79,7.73-9.57,11.58-14.36.17.38.26.48.34.41.02-.02-.05-.28-.16-.62.07-.09.14-.17.21-.26.19.44.36.57.58.43.09-.06.16-.11.16-.13,0-.01.16-.74.35-1.62,0,0,0-.02,0-.03.26-.33.53-.65.79-.98.04.2.09.38.12.53.13.49.24,1.18.32,1.94.23,2.24.38,2.78.84,3.01.23.11.25.11.45.02.12-.06.21-.08.21-.05s.11.2.25.38c.2.25.3.32.44.32.3,0,.34-.11.29-.84-.03-.35-.06-.69-.08-.74s.01-.04.07.04c.06.08.16.15.23.15.11,0,.12.04.12.37,0,.42.12.65.34.65.2,0,.35-.2.35-.46q0-.23.18-.16c.16.06.21.05.31-.04.11-.1.13-.24.16-1.21.04-1.15.1-1.76.16-1.76.1,0,.73,1.33.81,1.7.11.51.18.63.33.49.09-.09.12-.08.25.06.17.18.45.21.61.05.09-.09.1-.18.06-.58-.04-.44-.03-.49.09-.58.12-.09.14-.15.12-.51-.04-.67-.03-.88.06-1.7l.09-.78.16.32c.09.17.26.44.39.59.13.15.4.5.62.76.21.27.47.55.57.62.06.05.12.06.18.08-2.98,3.68-5.97,7.35-8.95,11.03-1.24,1.53-2.36,3.15-3.66,4.61-1.13,1.26-.89,2.14.17,3.35,1.05,1.2,2.09,2.4,3.14,3.6h-.35v5.5c0,.87.09,1.53.27,1.97.19.49.51.94.96,1.34.74.64,1.67.97,2.8.97s2.07-.32,2.81-.97c.24-.21.43-.44.59-.68,4.73,5.43,9.47,10.85,14.2,16.28v9.04h2.18v-4.92c0-.56.06-1.02.18-1.41,5.38,6.18,10.75,12.35,16.13,18.53,1.77,2.04,3.53,4.09,5.38,6.06,1,1.07.9,1.91,0,2.96-1.11,1.28-2.22,2.58-3.32,3.86h4.7c1.15-1.34,2.29-2.68,3.46-4,1.23-1.4,1.12-2.44-.07-3.81-7.57-8.67-15.12-17.35-22.67-26.03l.21-.43c-.33-.2-.65-.34-.97-.44-4.09-4.7-8.2-9.39-12.3-14.08.11,0,.21.03.32.03,1.08,0,2.06-.42,2.92-1.27v.99h2.19v-6.21c.83.92,1.66,1.85,2.49,2.77.21.85.62,1.61,1.25,2.25.53.54,1.14.91,1.81,1.16,11.92,13.28,23.83,26.58,35.78,39.84v-5.19c-10.44-11.69-20.85-23.4-31.26-35.12.29-.19.58-.4.84-.66.98-.96,1.46-2.15,1.46-3.58s-.48-2.6-1.45-3.57c-.98-.97-2.18-1.45-3.58-1.45s-2.59.48-3.56,1.44c-.12.12-.21.25-.32.38-1.01-1.13-2.02-2.26-3.02-3.4-.15-.17-.29-.32-.43-.47v-4.65h-1.47c.43-.51,1-1.16,1.75-2.07,12.86-15.71,25.74-31.39,38.69-47.02,1.52-1.83,1.39-2.94-.14-4.75-10.6-12.54-21.12-25.15-31.64-37.75.03-.16,0-.33-.09-.44-.09-.11-.24-.17-.41-.17h0s-.01,0-.02,0c-1.89-2.27-3.79-4.54-5.68-6.8-2.42-2.89-4.83-5.79-7.37-8.56-1.29-1.4-1.12-2.41.05-3.77,9.98-11.6,19.92-23.24,29.86-34.88,5.69-6.66,11.39-13.3,16.99-20.04.28-.34.55-.61.8-.83v-7.53c-14.22-16.38-28.42-32.79-42.67-49.14-1.52-1.74-1.56-2.71.09-4.37,13.07-13.21,26.08-26.47,39.09-39.74l3.5,3.82v-5.9l-.72-.76c.24-.24.48-.49.72-.73v-4.26c-.94.91-1.89,1.83-2.83,2.74l-7.34-7.8ZM45.52,330.09l.71,4.48c-.6-.7-1.19-1.4-1.79-2.1l1.08-2.38ZM58.66,336.66c-.51.55-1.19.83-2.04.83s-1.53-.28-2.04-.84c-.5-.55-.76-1.3-.76-2.25,0-.88.26-1.6.77-2.16.47-.51,1.07-.77,1.8-.82,1,1.13,2.01,2.26,3.01,3.4-.06.75-.3,1.37-.74,1.85ZM65.74,334.39c0-.85.25-1.57.75-2.14.5-.57,1.13-.86,1.88-.86.79,0,1.44.28,1.94.85.5.58.75,1.31.75,2.2s-.25,1.62-.75,2.2c-.5.56-1.15.84-1.96.84-.47,0-.89-.13-1.26-.35-.34-.38-.68-.77-1.02-1.15-.21-.46-.33-.98-.33-1.59ZM42.16,307.44c.79,0,1.44.28,1.94.85.5.58.75,1.31.75,2.2,0,.43-.06.82-.18,1.18-1.18-1.34-2.36-2.68-3.53-4.01.31-.14.65-.21,1.03-.21ZM65.54,312.7c-.5.56-1.15.84-1.96.84-.76,0-1.38-.29-1.88-.87-.48-.57-.73-1.31-.73-2.22,0-.85.25-1.57.75-2.14.5-.57,1.13-.86,1.88-.86.79,0,1.44.28,1.94.85.5.58.75,1.31.75,2.2s-.25,1.62-.75,2.2ZM98.44,338.27s.08-.06.12-.1v.24s-.08-.09-.12-.14ZM94.13,332.25c.5-.57,1.13-.86,1.88-.86.79,0,1.44.28,1.94.85.5.58.75,1.31.75,2.2s-.25,1.62-.75,2.2c-.16.18-.34.32-.54.44-1.22-1.41-2.45-2.83-3.67-4.24.11-.21.23-.41.39-.6ZM76.01,307.77l-1.91,2.32c-.67-.77-1.34-1.55-2-2.32h3.91ZM107.13,308.28c.52-.56,1.19-.84,2.02-.84s1.53.28,2.04.84c.51.55.77,1.29.77,2.21s-.26,1.66-.77,2.21c-.19.21-.42.37-.66.5-1.27-1.43-2.55-2.87-3.83-4.3.11-.22.25-.43.42-.62ZM106.55,213.32c-.06-.09-.16-.17-.23-.17-.16,0-.93.29-1.57.58l-.52.24.28-.36c.29-.38.48-.71.48-.85,0-.04.21-.18.47-.3.54-.25.75-.44.71-.65-.03-.2-.38-.23-.89-.06-.39.13-.4.13-.63.02l-.23-.12.92-.6c.49-.31.87-.57,1.21-.82.95,1.13,1.9,2.27,2.85,3.4-.03,0-.06,0-.09,0-.24.05-1.31.5-2.63,1.1-.59.27-1.35.55-1.91.71-.83.24-.93.26-1.05.18-.13-.09-.11-.1.23-.41.23-.21.57-.41.96-.59.75-.33,1.43-.75,1.6-.97.12-.16.12-.18.02-.33ZM105.24,208.65s0,0,0,0c.02.02.04.05.06.07-.03.01-.05.02-.07.04-.03.02-.03-.03.01-.1ZM100.57,278.3c0,.16-.14.19-.59.08.14-.17.28-.35.42-.52.1.19.17.36.17.44ZM98.88,279.96l.15.2-.25-.19s-.03-.03-.05-.04l.07-.09s.07.09.09.12ZM93.7,279.58c-.23-.21-.33-.34-.26-.34s.36.3.69.69c-.03.03-.05.06-.08.09-.02-.12-.11-.22-.35-.44ZM100.66,270.15c-.35-.37-.67-.73-.71-.81q-.08-.14.08-.03c.09.06.35.33.58.6.61.74.79.83,1.12.57.05-.04.1-.07.15-.09-.13.17-.27.33-.4.5-.24-.15-.43-.32-.82-.73ZM104.47,256.5c.36,0,.42.07.64.26.18.15.31.27.3.29-.03.04-1.16-.15-1.93-.32l-.66-.14.6-.04c.52-.03.84-.05,1.06-.05ZM78.33,278.83s0,0,0-.01c0-.11.06-.29.14-.4.07-.1.11-.14.14-.14.02,0,.04.02.05.07,0,0,.01.04.02.06-.12.14-.23.29-.35.43ZM71.67,274.65c-.03.55-.06,1.2-.06,1.44-.03.48-.06.55-.17.44-.13-.13-.08-1.53.08-2.25.08-.34.15-.62.17-.62s.01.45-.02,1ZM67.77,275.4s-.02.43-.06.95c-.04.6-.09.92-.14.91-.08-.03-.2-.46-.27-1.05l-.06-.44.25-.18c.14-.1.25-.17.27-.17,0,0,0,0,0,0ZM66.27,276.06c0,.07-.5,2.29-.54,2.39-.01.03-.03-.56-.03-1.32v-1.39s.16.13.16.13c.09.08.22.13.28.13.07,0,.12.03.12.06ZM69.17,247.15c.15,0,.19.5.19,2.05,0,.72.03,1.25.07,1.32.06.12.06.12-.17.03-.13-.05-.27-.13-.32-.17-.11-.1-.11-1.07.03-2.27.09-.82.12-.97.21-.97ZM69.07,244.53c-.04,1.02-.15,1.36-.65,2.85-.33.97-.4,1.23-.42,1.73-.04.69.02.88.36,1.18.15.13.25.28.27.42.06.3.57,1.41.8,1.75.11.16.33.43.5.59.26.26.3.34.28.5-.04.24-.16.27-.99.27-.59,0-3.25-.47-4.49-.79-.69-.18-1.54-.48-2.31-.79,2.21-2.58,4.42-5.15,6.65-7.71ZM68.7,247.97c-.06.34-.1.82-.11,1.06,0,.24-.03.6-.04.79l-.04.35-.16-.22c-.25-.36-.21-.92.13-2.01.15-.48.24-.72.28-.71s.02.26-.06.75ZM62.26,252.42c1.31.54,2.4.85,4.09,1.18l1.63.32-1,.15c-.56.08-1.06.16-1.13.17-.1.03-.15-.03-.23-.22-.16-.38-.42-.47-1.48-.51q-.88-.04-.9-.2c-.04-.31-.3-.42-.55-.23-.1.07-.15.07-.34,0-.13-.05-.28-.15-.44-.26.12-.14.23-.27.35-.41ZM54.24,270.34c-.08-.08.3-1.05.75-1.94.27-.55.5-.98.53-.97,0,0,0,0,0,0,.03.06-.77,2.23-.91,2.48-.11.2-.33.47-.37.44ZM53.16,268.41c.09-.55.13-.6.53-.82.16-.08.29-.15.3-.16,0,0,0,0,0,0,.09.02-.83,2.5-.98,2.66-.05.05.05-1.14.15-1.68ZM53.13,274.69l.06-.27.27.03c.25.03.29.01.45-.17l.17-.21-.04.18c-.03.1-.07.25-.09.33-.02.06-.03.11-.04.16-.42.48-.84.97-1.26,1.45.19-.55.42-1.26.49-1.51ZM54.38,274.2c.2-.46.38-.95.38-1.04,0-.03.09-.08.21-.09.16-.02.3-.03.42-.03-.34.39-.67.78-1.01,1.16ZM75,243.48c.17-.19.29-.56.33-1.02l.04-.44.34-.22c.54-.32.92-.43,1.24-.36.25.06.31.04.68-.13.22-.11.42-.2.45-.2h0s.3.83.3.97c0,.06.06.2.14.33.08.15.13.33.13.5,0,.14.03.32.08.41.09.14.09.17-.03.32-.07.09-.13.19-.13.22,0,.04-.06.13-.13.22-.07.09-.13.23-.13.31,0,.11-.04.15-.19.18-.2.04-.38.24-.38.43,0,.14-.06.14-.21.02-.07-.05-.2-.1-.29-.1s-.22.04-.29.1c-.17.13-.43.11-.56-.03-.06-.07-.16-.14-.21-.16-.06-.01-.13-.1-.16-.17-.08-.17-.52-.49-.68-.5-.06,0-.14-.08-.18-.17-.04-.1-.11-.23-.16-.29-.09-.1-.09-.13,0-.23ZM65.82,222.05c0,.07-.39-.04-1.03-.32-.52-.22-2.1-1.18-2.86-1.75-.25-.18-.86-.74-1.36-1.23-.56-.56-.78-.82-.7-.81.1.01.69.47,1.67,1.32,1.28,1.12,1.62,1.37,2.39,1.76.4.21.95.51,1.23.67.28.16.54.29.58.29s.08.03.08.06ZM65,221.27c-.23-.14-.65-.37-.95-.51-.75-.36-1.06-.59-2.91-2.21-.3-.25-.71-.59-.93-.74l-.4-.27.42-.62c.23-.35.49-.71.59-.81,0,0,.01-.01.02-.02,1.52,1.81,3.05,3.61,4.58,5.41-.02,0-.2-.11-.42-.25ZM70.33,220.97c-.07-.09-.14-.17-.22-.26.08-.08.16-.16.24-.24.26-.23.68-.71.95-1.05.72-.97.99-1.27,1.65-1.86l.6-.54.31.32c.17.18.3.35.28.37-.04.11-2.45,2.42-2.77,2.66-.19.14-.65.41-1.03.58h-.02ZM72.3,217.3c-.42.41-.97,1.02-1.31,1.47-.32.43-.85,1.05-1.19,1.38-.03.03-.05.06-.09.09-1.4-1.66-2.8-3.31-4.19-4.96,0-.37.01-.69.05-.94.04-.28.09-.66.09-.85.01-.18.03-.35.04-.36.01-.01.27-.1.56-.18.3-.09.6-.16.68-.16.18,0,2.07.54,2.31.67.11.06.78.6,1.49,1.22.71.62,1.51,1.3,1.78,1.53l.49.41-.72.69ZM64.87,214.49c-.17-.21-.35-.41-.52-.62.03-.02.07-.04.09-.05.26-.17.4-.26.46-.28.03,0,.04.01.01.05-.03.04-.04.42-.04.89ZM65.02,213.06c-.04.07-.37.29-.86.59-.12-.14-.23-.28-.35-.42.14-.05.27-.09.42-.14.4-.12.64-.18.75-.19.12,0,.11.05.04.16ZM60.67,215.9c-.21.21-.38.43-.56.71-.13.2-.25.36-.26.36s-.03-.17-.03-.36v-.36l.61-.62c.08.09.16.18.23.28ZM73.06,219.23c.56-.55,1.09-1.06,1.18-1.12l.17-.12.6.75c.33.41.78.95,1.02,1.21.23.25.42.49.42.51,0,.09.37.14.49.07.14-.08.5-1.42.68-2.49.06-.36.08-1.05.09-1.82,1.94,2.3,3.88,4.61,5.82,6.91-.3.25-.58.49-.82.7-.23.2-.64.54-.92.76-.27.22-.64.52-.8.68-.26.25-.3.31-.27.47.04.22.18.36.25.25.03-.04.01-.11-.03-.15-.1-.12-.02-.17.32-.17h.31l-.09.17c-.17.34-.18.51-.04.55.18.04.16.13-.09.32-.27.2-.4.18-.98-.17-.47-.28-.78-.31-.81-.07-.01.1.06.2.23.34.13.11.26.25.28.32.02.08.11.14.23.16.11.03.21.08.23.13.04.1.52.13.52.03,0-.04-.06-.06-.14-.06-.1,0-.12-.02-.07-.07.1-.1.32.07.69.53.63.79,1.05,1.6,1.45,2.78.15.44.37,1.07.49,1.4.12.33.24.79.27,1.02.11,1.08.25,1.8.51,2.66.32,1.05.45,1.58.53,2.36-4.75-5.62-9.5-11.24-14.24-16.86.95-.48,1.35-.8,2.53-1.97ZM76.34,214.61c.11.13.22.26.33.39-.02,0-.05.02-.07.02-.04-.02-.16.12-.28.34-.13.22-.44.6-.81.95l-.6.58-.28-.23-.27-.23.27-.19c.76-.54,1-.78,1.65-1.55l.07-.08ZM76.98,217.67c-.07.49-.08.4-.05-1.05.01-.63.02-1.03,0-1.28.04.05.08.09.11.14,0,.86-.02,1.83-.07,2.2ZM76.62,216.27c-.03.47-.06,1.33-.09,1.9-.05,1.18,0,1.16-.54.18-.15-.27-.41-.67-.57-.87l-.3-.38.55-.51c.31-.28.66-.67.77-.85.12-.19.22-.34.23-.34s-.01.4-.04.87ZM108.81,234.23c-.09-.08-.07-.1.2-.25.14-.08.31-.13.54-.18.41.49.83.98,1.24,1.46-.08.01-.15.02-.18,0-.19-.1-.73-.27-1.43-.45-.64-.17-.68-.18-.52-.25.22-.08.28-.24.14-.34ZM111.17,237.28c-.21-.07-.2-.07.3-.18.28-.06.52-.11.56-.11.03,0,.04.1.04.24,0,.17-.06.32-.19.51-.25.36-.34.39-.77.32-.35-.06-.35-.06-.23-.18.06-.06.16-.12.21-.12.12,0,.29-.17.29-.29,0-.05-.09-.13-.2-.17ZM111.22,239.38l.41-.11c.22-.06,1.14-.29,2.03-.5.03,0,.05-.01.08-.02.15.18.3.35.45.53-1.03.24-2.41.59-2.85.72-.11.04-.13.01-.12-.29v-.33ZM113.29,238.22c-.77.19-1.39.34-1.4.32-.01-.01.09-.13.23-.28.31-.31.43-.55.46-.88.24.28.47.56.71.84ZM110.43,238.69s-.18.13-.41.25c-.31.15-.5.2-.76.2-.18,0-.36-.03-.38-.06-.09-.15-.46-.27-1.03-.34l-.61-.08.47-.2c.29-.12.46-.17.62-.17.04,0,.07,0,.11,0,.5.06,1.99.36,1.99.4ZM108.09,233.9c-.47.25-.62.3-1.22.37l-.68.09-.61-.24c-.56-.22-.71-.32-.71-.46,0-.03.85-.04,1.88-.04h1.88s-.54.29-.54.29ZM106.08,251.08c.47.03,1.03.07,1.53.13,1.1.13,1.7.27,1.45.34-.4.11-.63.1-2.13-.15-.36-.06-.7-.12-.99-.17.04-.05.09-.11.13-.16ZM108.19,246.19c-.08-.13-.18-.27-.28-.42.42-.12.5-.12.77-.04.57.18.8.11.8-.24v-.19l.4.04c.42.04,1.95.42,2.32.57l.22.1-.54.18-.53.18-1.37-.04c-.62-.02-1.27-.07-1.78-.12ZM101.52,249.54l-.68.27c-.86.34-.9.34-.9.03,0-.13.02-.34.04-.44l.04-.2h.47c.4,0,.51.03.75.17l.28.18ZM98.54,252.82l-.08.2c-.05.13-.14.21-.22.22-.13.02-2.17-.95-2.43-1.16-.12-.1-.11-.1.13-.1.25,0,.51.08,1.96.6l.64.24ZM85.1,235.86s.02,0,.04.01c.05.02.18.04.28.04h.18v1.44c-.02,1.22-.02,1.35-.07.87-.05-.6-.23-1.54-.4-2.08-.07-.22-.08-.28-.03-.28ZM84.65,232.28v.86s-.12-.22-.12-.22c-.06-.12-.16-.54-.23-.92-.09-.59-.31-1.59-.44-2.01-.02-.07-.03-.11-.02-.11.03,0,.14.18.35.55.44.78.46.88.46,1.86ZM87.27,220.63c-.1.07-.21.15-.32.24-.05-.06-.1-.12-.15-.18.57-.42,1.19-.87,1.92-1.39.63-.44,1.14-.81,1.16-.81.13,0-1.41,1.25-2.61,2.14ZM82.56,229s-.15-.19-.32-.5c-.18-.3-.5-.73-.7-.96l-.36-.41.28.1c.15.05.43.18.61.3l.33.2.08.6c.04.33.08.63.08.66ZM86.34,243.66c.09-.1.15-.19.23-.29-.04.3-.08.38-.35.65l-.32.3v-.17c.16-.16.3-.33.44-.49ZM105.86,251.35l.2.03c1.61.26,2.07.36,1.93.41-.2.08-.49.06-.66-.04-.27-.15-.5-.12-.62.1-.06.11-.15.18-.2.17-.05-.02-.27-.04-.47-.06-.29-.03-.48-.05-.6-.07.14-.18.28-.35.43-.53ZM105.87,258.39c.11.11.11.12-.42.22-.49.1-.91.1-1.38,0-.08-.02-.18-.13-.24-.25-.08-.16-.08-.22-.03-.22.04,0,.49.03,1.01.06.77.06.95.09,1.05.18ZM104.23,261.1c.88.09,1.78.19,1.99.22.21.03.41.06.44.07.04,0-.22.07-.57.15l-.63.14-.82-.15c-1.06-.18-2.43-.52-2.43-.6,0-.02.03-.04.09-.04.03,0,.07,0,.12.01.11.02.93.11,1.81.2ZM103.08,262.12s-.29.06-.63.12l-.62.11-.3-.15c-.27-.13-.57-.51-.58-.71,0-.02.02-.03.05-.03.02,0,.04,0,.06.01.42.11,2.03.64,2.02.65ZM101.11,267.35l.28.32c.24.27.32.32.51.32.12,0,.25-.03.29-.05.14-.09.23-.34.19-.55-.04-.19-.03-.22.13-.25.31-.07,1.48-.22,2.24-.3-.58.71-1.15,1.42-1.73,2.13-.22-.13-.62-.32-.98-.46-.72-.3-1.85-.88-1.85-.96,0-.02.21-.08.46-.11l.46-.08ZM96.89,276.53c-.21-.13-.45-.28-.63-.38-.49-.29-.56-.36-.64-.67-.03-.13-.01-.18.07-.2.06-.01.1-.02.14-.02.13,0,.24.07.58.33.3.23.57.41.81.53l-.34.42ZM96.04,277.34c-.02-.08-.03-.12,0-.11h0s.09.04.19.11c-.05.07-.11.13-.16.2,0-.07-.02-.15-.03-.19ZM94.29,279.74c-.07-.08-.13-.15-.16-.19l-.15-.18.18.04c.07.02.18.06.29.12-.06.07-.11.14-.17.21ZM95.29,278.08c-.09-.03-.25-.06-.37-.08-.11-.02-.25-.08-.31-.13-.18-.16-.72-.92-.76-1.08-.03-.08-.03-.14-.02-.14.02,0,.34.23.71.51.38.28.74.54.8.57.06.04.11.13.11.22,0,.15-.02.16-.16.13ZM94.5,276.79c-.67-.51-.87-.71-.93-.88-.05-.15-.07-.2-.03-.2.02,0,.05,0,.09.02.19.06,1.02.51,1.35.74.23.16.27.23.33.53.04.2.06.37.05.41-.01.03-.4-.25-.87-.61ZM92.27,282.22l-.2-.14-.13-.75c-.07-.42-.12-.76-.11-.76s.1.15.21.32c.2.33.44.61.66.8-.14.17-.28.35-.43.52ZM103.67,273.85c.1.08.19.15.27.21.31.24.54.44.52.46-.06.06-.63-.03-1.2-.17.14-.17.27-.33.41-.5ZM105.32,266.14c-.31-.03-.82-.1-1.18-.16l-.69-.11.69-.08c.39-.04.81-.11.95-.14.1-.03.4-.08.73-.12-.17.2-.33.41-.5.61ZM106.69,264.45c-.11-.05-.22-.1-.34-.14-.59-.24-.6-.37-.04-.51.53-.13.63-.27.46-.62-.18-.34-.35-.49-.9-.75l-.47-.23.57.03c1.21.07,1.96.11,2.45.08-.58.71-1.15,1.42-1.73,2.13ZM109.25,261.3c-.51-.4-1.79-.77-3.84-1.12-.62-.11-1.12-.2-1.13-.21-.01-.01-.09-.12-.19-.25l-.17-.23.49-.13c.43-.11.75-.13,2.51-.16,1.94-.03,3.04-.12,3.69-.3.3-.08.54-.34.48-.55-.03-.1,0-.15.06-.15.15,0,.3-.2.28-.37-.02-.16-.08-.19.7-.07-.96,1.18-1.92,2.36-2.88,3.54ZM110.76,256.51c-.76-.15-1.6-.3-1.88-.34l-.51-.08.38-.04c.14-.01.32-.02.52-.02.61,0,1.44.05,1.9.13.63.11,1.23.32,1.19.43-.06.2-.23.2-1.6-.07ZM112.86,256.85s0-.02,0-.03c.11-.24.04-.47-.19-.69-.12-.11-.22-.21-.21-.21,0,0,.39.07.83.16.06.01.11.02.16.03-.2.25-.4.49-.6.74ZM114.09,255.33c-1.43-.46-2.71-.72-4.88-.99l-1.43-.18-1.13-.57-1.13-.57.33-.1c.32-.1.35-.1,1.01.09.83.22,1.26.24,1.5.05.09-.07.16-.18.16-.25,0-.06.04-.12.09-.12s1.49.11,3.2.25c2.44.2,3.53.28,4.01.26-.58.71-1.15,1.42-1.73,2.13ZM109.41,249.07l.17-.06c.07-.03.12-.04.22-.04.17,0,.5.04,1.38.16,1.42.18,3.17.49,3.24.56.1.1-.99.15-2.36.11l-1.3-.04-.44-.22c-.23-.13-.47-.23-.52-.23s-.16-.06-.25-.12l-.15-.12ZM116.11,252.84c-.07-.12-.25-.19-.63-.25-.48-.08-2.31-.23-3.51-.29-1.13-.06-1.68-.15-1.95-.31-.04-.02.04-.07.16-.11.11-.04.24-.13.28-.21.05-.11.1-.13.25-.11.63.1,4.18.48,4.34.46.11-.01.23-.07.27-.13.1-.17-.03-.32-.35-.41-.35-.1-2.17-.34-3.88-.52-.73-.08-1.37-.15-1.42-.17-.16-.06.06-.15.47-.19.32-.04.41-.08.58-.26l.2-.21,1.57.06c2.24.08,2.99-.02,3.09-.41.1-.41-.56-.69-2.31-.97-.44-.08-1.24-.17-1.8-.22-.64-.06-1.09-.13-1.22-.2-.19-.1-1.11-.2-1.96-.22.12-.23.2-.43.24-.63.43-.06,1-.08,1.74-.07,1.12,0,1.22,0,1.37-.12.09-.07.18-.2.2-.29.03-.12.09-.17.25-.19.48-.07,2.79-.29,3.47-.33.61-.03.76-.06.85-.16.09-.1.09-.15.04-.28-.08-.17-.18-.19-.87-.17-.32.01-1.9.17-2.31.24-.21.03-.23.03-.2-.12.07-.37-.24-.57-1.34-.84-.38-.1-.7-.18-.71-.19-.01,0,.39-.1.88-.18,1.68-.32,3.43-.69,3.54-.75.13-.07.14-.32,0-.44-.14-.11-.33-.1-1.78.24-1.76.39-3.49.72-4.02.77q-.44.03-.59-.17c-.08-.11-.14-.21-.13-.22.09-.06,1.32-.39,2.07-.54.95-.19,4.82-1.13,5.78-1.4.81.96,1.62,1.92,2.43,2.88,1.64,1.93.69,2.97-.43,4.35-.89,1.09-1.78,2.19-2.67,3.28ZM112.83,242.75c-3.09.81-5.23,1.29-5.75,1.28-.12,0-.39-.06-.59-.14l-.17-.06s-.05-.06-.08-.09l.53-.06c.35-.04.8-.12.98-.18.42-.13.47-.27.25-.61l-.16-.25.44-.22c.4-.2.49-.22,1-.22.66,0,.83-.09.86-.44.02-.26-.03-.24,1.58-.88,1.55-.62,2.16-.84,2.94-1.04.57.67,1.14,1.35,1.71,2.02-.57.12-1.63.39-3.55.9ZM109.17,226.76c.06,0,.13,0,.19,0,.62,0,.9.03,1.13.09.39.11.66.28.59.34-.09.08-.66.17-1.33.24-.19-.23-.38-.45-.57-.68ZM108.82,226.35c-.08-.1-.17-.19-.25-.29.36,0,.38.03.39.14,0,.09,0,.12-.14.15ZM106.5,223.42s-.09,0-.16,0c-.11-.13-.21-.25-.32-.38.09-.02.19-.05.27-.07.52-.13,1.11-.28,1.29-.32.19-.04.47-.08.63-.08.28,0,.27,0-.6.44-.75.37-.92.44-1.12.41ZM99.88,215.35c-.1.06-.17.11-.25.15-.09-.1-.17-.2-.26-.31l.12-.09.98-.73.04.26c.03.15.04.27.03.27,0,0-.3.2-.66.44ZM109.18,233.36l-.27.13h-2.07c-2.09,0-2.22-.01-2.22-.23,0-.05.17-.08.56-.07.59,0,1.5-.15,3.04-.49l.34-.08c.21.24.41.49.62.73ZM92.48,216.29c-1.26,1.1-1.89,1.6-2.89,2.28-.88.6-1.87,1.31-2.85,2.04-2.57-3.05-5.14-6.1-7.72-9.15.6-.04.62-.04.91.38.06.09.16.17.23.17.15,0,.32-.2.32-.37,0-.13.03-.15.21-.11.11.02.44.01.72-.02.49-.05.59-.1,2.08-.84,1.63-.82,1.83-.94,2.46-1.49.21-.18.55-.44.76-.57.21-.13.57-.43.81-.65.04-.03.07-.06.1-.1.36.42.71.84,1.07,1.27.33.66.53.87.98,1.21.04.03.07.05.11.07,1.34,1.59,2.68,3.17,4.02,4.76-.39.33-.81.7-1.3,1.12ZM83.07,202.48c1.37,1.62,2.74,3.24,4.11,4.86l-.03.03c-.3.31-.67.58-1.26.93-.45.27-1.07.67-1.36.89-.59.43-1.07.72-2.1,1.26l-.68.36h-.73c-.54,0-.73-.02-.73-.08,0-.04-.03-.22-.06-.39-.03-.18-.09-1.23-.13-2.35-.08-2.33-.12-2.81-.39-3.91-.13-.55-.2-.97-.2-1.35v-.56s.47-.15.47-.15c.32-.1.67-.16,1.01-.15.58,0,1.19.15,1.78.45.07.04.18.1.29.18ZM79.82,201.43c.27-.06.81-.15,1.22-.19.33-.04.64-.06.93-.07.2.23.39.47.59.7-.16-.07-.33-.12-.52-.18-.73-.22-1.3-.22-1.97-.02-.28.08-.54.17-.59.18-.06.02-.1-.03-.11-.15-.02-.16,0-.17.46-.27ZM75.78,203.76c.28-.27.7-.58,1.07-.81.35-.2.91-.55,1.25-.77.35-.22.65-.4.68-.4.03,0,.05.08.05.18,0,.17-.07.23-.71.63-.39.25-1.08.65-1.54.9-.45.25-.92.51-1.04.58-.17.1-.12.03.23-.32ZM76.66,203.79c.59-.33,1.3-.74,1.58-.92.28-.18.52-.33.55-.33h0s.06.11.08.24c.02.13.08.47.13.75.06.31.09.92.09,1.56,0,1.07.07,2.36.2,3.56.08.74.08,1.37.03,1.61l-.04.16-.32-.15c-.19-.09-.36-.22-.41-.31-.09-.19-.3-.27-.42-.17-.08.07-.35-.04-.73-.27l-3.18-3.77c.56-.79,1.08-1.18,2.46-1.95ZM69.48,199.97c.23-.12.44-.22.47-.22.04,0,.04.59.02.98-.2-.23-.39-.47-.59-.7.03-.02.06-.04.1-.05ZM59.1,196.54l.04-.74.39-.13c.21-.07.38-.1.56-.1.05,0,.11,0,.17,0,1.82,2.15,3.63,4.3,5.45,6.45-.94.94-1.36,1.14-3.16,1.5-.95.2-1.19.22-1.71.2-.79-.04-.83-.06-.73-.32.11-.29.24-1.09.19-1.25-.02-.07-.11-.15-.2-.17-.21-.06-.39.15-.41.48,0,.13-.03-.41-.06-1.2-.04-1.34-.06-1.49-.27-2.4-.3-1.27-.32-1.46-.27-2.33ZM62.39,204.28s-.25.1-.56.2c-.77.24-1.5.25-2.21.03-.27-.08-.49-.16-.49-.17,0,0,.02-.06.04-.11.02-.05.07-.09.12-.08,0,0,.01,0,.02,0,.42.12,1.39.29,1.66.29.18,0,.57-.04.87-.1.3-.05.54-.08.56-.07ZM54.43,199.41c1.07-.54,1.35-.78,1.88-1.53.49-.69.48-.69,1.46-1.3l.7-.43.04.93c.02.51.07,1.05.11,1.21s.1.94.14,1.75c.04.8.11,1.87.16,2.38.04.51.08.93.06.94-.03.03-.36-.15-1.66-.92-.67-.4-1.53-.85-1.93-1.02-.39-.16-.79-.33-.9-.38-.37-.18-1.16-.75-1.17-.83,0-.16.3-.38,1.11-.79ZM54.26,201.61c.53.25.83.45,1.48,1,.64.54.99.78,1.61,1.11.44.22,1.02.53,1.3.69.67.37,1.3.54,2.07.54.52,0,.7-.03,1.26-.22.37-.12,1-.37,1.41-.57.42-.19.82-.37.91-.39.09-.03.39-.17.66-.31.39-.21.63-.39,1.17-.93,3.26,3.86,6.52,7.71,9.78,11.57-.3.35-.57.67-.7.81-.18.19-.56.51-.86.71-.51.34-.55.36-.68.27-.15-.1-.18-.2-.06-.2.04,0,.15-.06.22-.13.42-.4-.2-1.14-1.56-1.87-.37-.2-.94-.56-1.27-.79-.8-.58-1.28-.86-1.74-1.02-.18-.06-.55-.12-.92-.15-.37-.03-.74-.03-.95,0-.72.12-1.38.17-2.42.18-1.14,0-1.24.02-1.75.19-.09.03-.19.07-.29.1-3.03-3.6-6.07-7.2-9.1-10.81.16.08.3.16.42.22ZM56.12,210.74c0-.08,0-.15,0-.22.26.31.52.62.78.92-.02.12-.03.25-.05.36l-.14.59-.32-.27-.32-.27.04-1.11ZM54.96,209.85c.13-.11.24-.21.35-.3.16.19.32.38.48.57-.03.67-.07,1.4-.09,1.42-.04.04-1.22-.72-1.36-.88l-.15-.16.76-.65ZM53.73,210.99l.15.16c.08.08.32.27.54.41.36.24,1.23,1.14,1.23,1.28,0,.03.06.06.13.06.08,0,.13-.04.13-.13,0-.07.02-.13.04-.13s.2.14.39.32c.4.37.64.42.81.17.09-.14.23-.58.34-1.02.74.88,1.49,1.77,2.23,2.65-.13.25-.25.5-.33.74-.08.22-.23.53-.34.68-.2.26-.21.27-.25.13-.05-.18-.05-1.21,0-1.35.04-.09.05-.08.13.03.11.15.23.17.33.04.16-.2-.31-.78-.58-.71-.27.06-.39.42-.41,1.29-.02.66,0,.83.11,1.18.23.71.66,1.26,1.88,2.45,1,.98,1.23,1.17,2.26,1.86,1.3.86,1.95,1.21,2.84,1.52.34.11.61.24.61.29,0,.36.28,2.19.35,2.29.06.1.15.15.27.15.32,0,.35-.1.3-1.04-.02-.46-.06-.95-.08-1.08l-.02-.11c4.36,5.17,8.72,10.34,13.1,15.5-.5-.15-.9-.33-1.25-.55-.3-.18-.66-.36-.92-.43-.33-.09-.49-.17-.75-.41-.42-.39-.73-.49-1.14-.36-.28.1-.35.1-.68,0-.46-.12-.58-.18-1.48-.76-.92-.58-1.57-.93-2.07-1.12l-.4-.15-.41-.79c-.23-.43-.45-.85-.51-.94-.27-.41-1.18-.88-1.42-.72-.06.04-.16.07-.21.07-.14,0-.47.35-.47.5,0,.08-.06.14-.14.16-.11.03-.2-.03-.4-.26-.24-.27-.27-.29-.32-.18-.03.07,0,.29.05.5.05.2.08.37.07.37,0,0-.09-.11-.18-.25s-.22-.27-.28-.29c-.15-.05-.37.07-.37.19s-.1.12-.15,0c-.05-.15-.23-.11-.23.04,0,.07.16.41.37.74.4.66.57.98,1,1.91.18.39.23.57.16.5-.22-.2-.45-.09-.45.21,0,.37.19.81.51,1.18.18.2.38.38.44.39.06.01.13.08.15.15.03.1,0,.11-.11.08-.02,0-.04,0-.06,0-1.81-2.14-3.62-4.29-5.43-6.43.03-.14.02-.42,0-1.12-.04-.91-.02-1.45.09-2.63.16-1.94.17-2.75.01-2.89-.15-.13-.51-.14-.69-.01s-.87,1.05-1.04,1.39c-.08.14-.38.5-.69.8-.3.29-.63.65-.77.81-3.83-4.54-7.68-9.08-11.51-13.63.15-.08.29-.16.44-.25.2-.13.7-.37,1.12-.54.86-.34,1.09-.49,1.68-1,.23-.2.69-.57,1.04-.83.35-.25.78-.6.95-.77l.32-.31ZM45.22,228.1c.69-1.05.97-1.28,2.69-2.26.59-.33,1.3-.74,1.58-.92l.51-.32.12.36c.09.31.13.67.16,2.24.05,1.74.11,2.83.25,4,.03.26.03.65,0,.86s-.05.43-.05.49c0,.1-.08.07-.43-.15-.23-.15-.71-.41-1.07-.58-.65-.32-1.19-.73-2.83-2.16-.28-.24-.68-.56-.9-.71l-.39-.27.37-.58ZM44.6,227.83h-.23s.21-.18.21-.18c.65-.56,2.79-2,3.73-2.5.57-.31,1.06-.56,1.08-.56.09,0-.39.3-1.5.92-1.78,1-2.14,1.29-2.8,2.24-.1.15-.16.19-.21.15-.04-.04-.17-.07-.29-.07ZM50.74,230.31c-.04-.44-.09-1.12-.11-1.53l-.03-.73.15,1.11c.08.61.2,1.39.26,1.72.06.33.15.93.2,1.33.04.4.09.74.09.74,0,0-.14-.04-.32-.1-.27-.08-.3-.11-.23-.19.1-.13.1-1.32,0-2.36ZM44.96,229.1c.08,0,.59.39,1.18.92,1.62,1.43,2.1,1.79,2.7,2.07.23.11.7.36,1.04.56s.8.43,1.02.51c.37.12.42.17.49.35.07.19.06.22-.06.26-.07.03-.53.04-1.02.03-1.03-.03-1.34-.11-2.62-.73-.86-.41-1.32-.73-1.98-1.38-.61-.6-.75-.94-.78-1.86-.02-.46,0-.71.04-.71ZM51.42,226.07c-.02-.42-.04-.83-.06-1.16,1.78,2.11,3.57,4.21,5.35,6.32-.15.13-.29.25-.37.3-.77.55-2.91,1.46-3.65,1.56-.26.03-.27.03-.27-.13,0-.11-.04-.19-.15-.24-.2-.09-.32-.39-.47-1.23-.2-1.13-.23-1.45-.39-5.41ZM52.43,233.51c0-.13.03-.15.25-.15.64,0,3.11-1.05,3.95-1.68.07-.05.16-.13.27-.23.14.16.27.32.41.49-1.01.47-3.65,1.45-4.46,1.63l-.43.1v-.15ZM61.92,228.69c.07-2.14.08-2.16.23-2.37.08-.11.17-.2.19-.2.04,0-.02.73-.15,2-.05.49-.11,1.34-.13,1.89-.04.82-.06.99-.13.92-.06-.06-.07-.5-.01-2.24ZM61.5,230.47c-.25-.3-.51-.6-.76-.9,0-.01.01-.02.02-.04.21-.37.29-.6.61-1.66.13-.41.24-.74.26-.72.02.03-.09,2.82-.13,3.32ZM60.3,229.05c-.14-.16-.27-.33-.41-.49.09-.11.21-.24.34-.38.26-.29.49-.51.52-.52,0,0,0,0,0,0,.04.04-.27.98-.44,1.39ZM44.99,204.37s.31-.05.59-.05c.49,0,.52.01.94.28l.43.28-.62.03c-.39.02-.76.08-.98.16l-.36.12-.04-.38c-.03-.27-.02-.39.04-.43ZM44.88,208.04c.03-1.75.06-2.49.12-2.53.08-.05.81-.27,1.05-.32.06-.01.14-.02.23-.01.28,0,.68.06,1,.14.77.19,1.21.46,2.34,1.42,1.95,1.67,2.75,2.45,3.41,3.32l.18.24-.75.74c-.83.82-1.86,1.7-2.22,1.88-.13.07-.51.24-.83.37-.33.13-.84.38-1.14.55-.2.12-.39.21-.56.29-.94-1.11-1.88-2.22-2.81-3.33-.03-.63-.03-1.32,0-2.77ZM44.04,209.8c-.32-.38-.64-.76-.96-1.14.02-.05.05-.09.07-.14.06-.18.05-.25-.04-.38-.06-.09-.14-.19-.19-.22-.04-.03-.08-.1-.08-.17,0-.06-.04-.17-.1-.22-.07-.07-.18-.1-.29-.1-.07,0-.13.02-.19.06-.03.02-.05.06-.08.09-.09-.11-.19-.22-.28-.33.05-.03.09-.05.15-.08.52-.29,1.15-.65,1.39-.81l.44-.27.04,1.12c.02.53.07,1.6.12,2.57ZM41.27,206.14c.96-.81,1.04-.86,1.81-1.13.37-.13.71-.24.75-.24.05,0,.08.13.08.47v.48l-.42.28c-.24.15-.93.55-1.54.9-.09.05-.16.09-.24.14-.21-.24-.41-.49-.62-.73.06-.05.11-.1.18-.16ZM44.33,221.82c.37-.44.71-.84.74-.89.02-.03.04-.05.05-.05.06,0,.04.28-.05.71-.32,1.54-.39,1.76-.52,1.78-.2.03-.48-.14-.7-.43-.11-.13-.2-.27-.2-.29s.3-.4.68-.84ZM34.76,217.26s.07-.02.11-.01c.15.01.41.1,1,.33.9.36,2.06.98,2.44,1.32.16.14.47.53.68.86.47.74.87,1.09,1.68,1.52.42.23.76.46,1.08.77l.46.44-.85.86c-1.1,1.12-1.49,1.42-2.32,1.84-1.01.5-2.05.76-3.35.83l-.71.04v-.3c0-.17-.03-.82-.06-1.45-.21-4.07-.25-5.01-.25-5.95,0-.79.02-1.07.08-1.09ZM33.64,217.75c.12-.07.23-.12.26-.12,0,0,0,0,0,0,.01,0-.01.26-.05.57s-.09.96-.11,1.46l-.04.91-.11-.48c-.15-.64-.25-1.43-.22-1.85.02-.32.03-.35.27-.48ZM33.71,223.74c.04.77.12,1.04.32,1.04.08,0,.09.06.06.36-.02.2-.06.44-.07.54l-.03.17-.42-.26c-.23-.14-.71-.4-1.07-.57-.65-.32-1.18-.72-2.86-2.19-.29-.25-.69-.57-.9-.71l-.37-.25.49-.72c.32-.48.61-.82.85-1.01.36-.29.54-.4,2.2-1.36.51-.29.93-.53.95-.54.03,0,.06.32.07.71.03.55.1,1,.32,1.93.34,1.43.41,1.86.46,2.87ZM28.54,222.34c.26.16.6.42,1,.78,1.52,1.34,2.18,1.85,2.89,2.2.39.19.81.42.95.51l.25.16-.41-.04c-.68-.06-1.35-.23-1.97-.46-.9-1.05-1.81-2.1-2.72-3.15ZM28.03,221.04c1.12-1.52,1.96-2.54,2.26-2.74.28-.2,2.24-1.17,2.46-1.23.1-.02.18-.04.23-.04.09,0,.11.03.09.1-.03.06-.06.24-.08.39-.04.34-.11.38-1.66,1.25-1.23.69-1.74,1.04-2.12,1.44-.29.3-.89,1.18-1.12,1.6-.12-.13-.23-.27-.35-.4.09-.12.19-.25.29-.38ZM45.21,240.69c-.08-.11.24-.51,1.07-1.32.35-.35.69-.74.75-.86.05-.1.1-.16.13-.16,0,0,0,0,.01.01.01.04-.02.95-.07,2.01-.06,1.07-.1,2.05-.1,2.17v.24l-.23-.22c-.18-.17-1.12-1.31-1.56-1.88ZM32.99,237.24c.34-.32.8-.81,1.04-1.07.15-.17.31-.34.44-.46.18.2.35.41.53.61-.05.04-.1.07-.18.11-.48.31-1.82,1.07-2.29,1.32-.09.04.12-.18.46-.51ZM30.96,239.51c.54-.77.85-1.02,2.39-1.88.64-.36,1.36-.79,1.59-.93.1-.06.18-.12.26-.17.1.12.2.24.31.35.03.15.06.31.1.5.14.75.19,1.29.23,2.37.03.77.09,1.79.13,2.26.08.87.1,2.26.03,2.33-.03.02-.23-.08-.47-.22-.23-.15-.72-.41-1.07-.58-.63-.32-1.29-.82-2.69-2.05-.51-.45-1.19-.97-1.31-1.02-.1-.03-.01-.2.52-.95ZM36.16,245.18c-.44,0-.93-.18-2.24-.83-1.19-.6-2.54-1.4-3.57-2.14-.36-.26-1.22-.99-1.23-1.04,0-.02.09-.09.2-.16.11-.07.3-.29.44-.48.13-.19.36-.5.51-.68.18-.22.28-.34.3-.34,0,0,0,.03-.03.08-.23.38-.48.75-.53.78-.03.02-.06.1-.06.17,0,.08.04.12.15.12.19,0,.67.32,1.35.91,2.03,1.75,2.12,1.82,2.89,2.22.42.21.93.5,1.14.63.21.13.48.29.61.34.15.07.23.15.25.26.03.15.01.16-.18.16ZM37.29,244.8c-.27,0-.32-.06-.36-.48-.02-.21-.12-1.19-.23-2.19-.1-1-.24-2.7-.32-3.78-.01-.16-.02-.32-.03-.48,1.46,1.68,2.91,3.36,4.36,5.04-.18.13-.36.25-.49.33-.29.17-.77.46-1.07.64-.8.49-1.67.92-1.87.92ZM40.98,243.77c-.83.41-1.37.65-1.37.62,0-.01.27-.17.59-.36.4-.23.69-.41.96-.61.05.06.09.12.14.18-.11.06-.22.12-.32.16ZM40.44,255.83c.27-.21.56-.42.87-.67,1.3-.99,2.49-1.91,2.64-2.03.15-.12.27-.2.27-.18s-.43.39-.96.82c-1.32,1.08-2.81,2.32-3.63,3.04.27-.33.54-.65.81-.98ZM38.05,262.42c-.25.25-.94,1-1.54,1.67-1.11,1.23-1.4,1.54-1.28,1.37.49-.72,1.15-1.53,1.95-2.38.54-.58,1.01-1.06,1.06-1.08.06-.03.11-.04.14-.03.08,0-.03.15-.32.45ZM40.94,265.96c-.07.16-.13.36-.13.46,0,.14-.09.24-.49.55-.54.41-1.16.84-1.41.97-.15.08-.15.08-.06-.04.05-.06.54-.6,1.1-1.18.55-.58,1.04-1.12,1.09-1.19.06-.09.1-.13.12-.14.03,0-.04.19-.22.57ZM40.87,263.39c-.06.07-.42.58-.78,1.12-.37.55-.81,1.12-.97,1.26-.47.42-1.82,1.42-2.17,1.61l-.32.18.04-.23c.04-.29.8-1.44,1.8-2.73.39-.51.73-.93.74-.93s-.08.17-.2.37c-.28.48-.28.73.01.76.18.02.26-.05.85-.7.36-.39.78-.8.92-.9.15-.1.28-.21.31-.24.02-.03.05-.06.07-.06.04,0-.15.3-.3.48ZM39.9,257s-.27.13-.55.39c-.28.24-.52.44-.54.44-.02,0,0-.03.03-.07,0,0,0-.01.01-.02.31-.36,1.96-1.8,3.79-3.28.75-.61,1.73-1.41,2.18-1.78.45-.37,1.15-.94,1.55-1.28.4-.34.9-.76,1.11-.93.21-.18.39-.32.4-.32.09-.02-1.77,1.7-2.48,2.28-.92.76-2.39,2.1-2.9,2.66-.16.18-.32.32-.35.31-.06-.02-.39.32-.57.6-.17.25-1.58,1.11-1.67,1.01ZM47.16,251.02c.22-.25,2.2-2,3.21-2.84.56-.46,1.02-.84,1.04-.84.06,0-1.86,2-2.19,2.28-.42.36-2.23,1.59-2.05,1.4ZM48.26,250.45c.06,0-.34.35-1.29,1.19-.59.52-1.59,1.42-2.22,2.01-.63.59-1.3,1.19-1.48,1.34-.31.24-.28.2.22-.34.68-.73,2.75-2.76,3.1-3.03.14-.11.56-.41.94-.68.44-.31.69-.48.73-.49ZM41.36,263.63c.12-.23.58-.97.8-1.27.09-.14.11-.14.25-.04.18.12.32.06.56-.26.1-.13.17-.19.22-.18.01,0,.02,0,.03.01.04.04.13.07.2.08.1.02.03.1-.32.37-.24.19-.76.62-1.15.95-.67.55-.71.58-.59.35ZM41.66,265.89s.96-1.77,1.07-1.89c.06-.06.11-.06.25.01.2.1.47.04.61-.13.04-.05.07-.07.09-.07.03,0,.04.06,0,.17-.06.17-.59.76-.68.76-.04,0-.04-.03,0-.08.04-.04.08-.11.08-.16,0-.18-.14-.06-.44.38-.27.41-.92,1.05-.99.99ZM57.02,248.12l.04-.22.24.24c.13.13.35.44.47.69.13.25.36.64.51.88.15.24.25.43.23.43-.16,0-1.11-1.06-1.35-1.5-.13-.22-.16-.37-.14-.52ZM58.15,247.98c-.97-1.02-.98-1.04-.98-1.43,0-.2-.04-.45-.09-.57-.09-.22-.37-.41-.59-.41-.08,0-.2-.15-.37-.46-.5-.88-.48-.79-.2-1.13.24-.29.32-.5.18-.5-.04,0-.08.04-.09.08-.02.04-.13.08-.24.09-.18,0-.2-.02-.2-.16,0-.09.04-.26.09-.37.07-.17.07-.22,0-.3-.13-.16-.37-.12-.44.07-.06.15-.07.15-.2.06-.26-.18-.5.17-.31.46.09.15-2.08,2.38-2.79,2.86-.78.53-2.4,1.93-3.3,2.84-1.01,1.02-3.44,2.99-7.84,6.34,2.14-2.57,4.27-5.15,6.45-7.67,1.08-1.25,1.17-2.15.31-3.33.07-.24.09-.61.12-1.35.02-.68.11-1.87.2-2.64.09-.77.16-1.7.16-2.08v-.68l.18-.06c.3-.11.36-.17.38-.37.02-.22-.16-.39-.4-.39-.08,0-.17-.04-.21-.1-.15-.18-.34-.09-.38.16-.03.2-.08.25-.51.48-.37.2-.56.37-.89.76-.23.27-.71.76-1.07,1.09l-.66.58-.22-.2c-.12-.11-.51-.44-.85-.72-.35-.29-1.24-1.05-1.99-1.7-.04-.04-.08-.07-.12-.1-3.04-3.53-6.08-7.05-9.12-10.58.64.14,1.34.23,1.85.23.28,0,.3.01.33.2.02.11.04.29.04.39,0,.27.11.43.28.43.26,0,.35-.16.35-.61v-.41h.59c.66,0,1.34-.1,2.27-.35.71-.18,1.2-.39,2.06-.86.85-.47,1.18-.7,1.78-1.26.52-.48,1.21-1.03,1.29-1.03.03,0,.21.13.4.28.39.3.71.48.85.48.1,0,.61.51.69.71.03.07.11.11.16.11.11-.03.16-.23.29-1.32.04-.4.2-1.18.34-1.74.37-1.43.55-2.32.58-2.83,1.28,1.52,2.57,3.03,3.85,4.54,0,0-.02.01-.02.02-.1.11-.59.41-1.26.75-1.55.81-2.02,1.08-3.4,2.06-1.31.92-2.31,1.75-2.41,2-.08.22-.01.47.23.81.16.23.26.3.36.29.2-.03.2-.19.02-.46-.2-.29-.21-.45-.04-.54.16-.08.34,0,.45.21.04.08.09.56.11,1.12.03.88.06,1.02.21,1.35.26.58.53.9,1.24,1.52.57.5.8.64,1.61,1.04,1.25.61,1.57.72,2.3.81.72.08,2.46,0,3.22-.17.97-.21,3.94-1.31,4.96-1.83,2.05,2.42,4.09,4.84,6.15,7.26,1.68,1.97,1.4,3.09-.15,4.87-1.47,1.68-2.92,3.37-4.39,5.06-.51-.84-.74-1.14-1.23-1.65ZM49.89,266.81c.15-.17.29-.34.43-.51-.02.19-.06.37-.15.58-.16.35-.21.41-.47.52-.17.07-.3.11-.3.1,0,0,.05-.11.13-.28.12-.14.25-.28.37-.42ZM46.12,272.15c-.07.23-.13.58-.15.79-.02.36-.04.4-.58,1.13-.32.42-.55.72-.53.66.13-.34.4-1.28.56-1.9.1-.39.21-.74.26-.77.04-.03.18-.12.3-.21.11-.08.21-.14.24-.14,0,0,0,0,0,0,.02.01-.03.21-.1.44ZM46.21,275.25l-.11.86-.33.11c-.18.06-.46.1-.62.1-.28,0-.3,0-.3-.18,0-.31.37-.96,1.17-2.06.07-.09.16-.16.21-.16,0,0,0,0,.01,0,.12.02.11.2-.03,1.32ZM47.31,275.49c-.18.11-.35.18-.36.17-.01-.01.03-.39.09-.86.1-.78.12-.84.27-.92l.16-.08.04.64c.02.36.06.7.08.76.04.08-.03.15-.28.3ZM49.26,272.97c-.36.68-.66,1.23-.66,1.23,0,0,.04-.36.12-.77l.13-.76.52-.48c.28-.27.52-.48.53-.48,0,.01-.28.58-.63,1.26ZM49.66,271.38c-.27.27-.54.53-.6.57-.11.06-.11.04-.08-.27.1-.83.11-.9.18-.83.19.19.69.01.8-.29.03-.09.08-.13.12-.13.07,0,.12.09.09.25-.03.14-.19.36-.52.7ZM50.74,273.18s.04-.41.1-.9c.07-.48.15-1.09.17-1.33.04-.44.04-.45.47-.89.23-.25.51-.57.63-.72.11-.14.21-.25.24-.24,0,0,0,0,0,0,.09.08-.01.55-.42,1.88-.25.82-.45,1.53-.45,1.57,0,.08-.7.67-.74.63ZM49.82,278.05c.26-.39.49-.71.5-.71s0,.3-.01.68c-.03.6-.06.71-.18.81-.16.15-.92.51-.96.46-.06-.06.18-.54.65-1.24ZM50.93,278.03c-.04-.36.25-1.98.39-2.21l.13-.22.05.2c.03.11.09.23.15.27.14.11.39.03.46-.17.09-.22.3-1.11.36-1.48.03-.16.06-.31.07-.32,0,0,.03-.01.07-.02.04,0,.1,0,.16,0l.22.03-.12.45c-.25.92-.64,1.86-1.02,2.55-.3.35-.61.7-.91,1.05v-.13ZM56.47,280.32c-.06.3-.13.38-.87,1.1-.84.81-1.64,1.48-1.57,1.32.05-.13.8-1.44,1.41-2.46.28-.46.52-.84.53-.85h0s0,.1-.02.22c-.03.17-.01.25.09.35.15.15.27.16.4.03.12-.11.12-.12.03.29ZM58.4,276.81c-.15.86-.37,1.84-.44,1.98-.14.26-.72.88-.69.74.01-.07.15-.74.31-1.49s.3-1.4.32-1.46c.01-.03.05-.05.09-.05.01,0,.03,0,.04,0,.06.02.17.04.25.04.15,0,.15.02.12.24ZM60.07,275.15c-.17.62-.35,1.18-.39,1.26-.37.57-1.25,1.76-1.23,1.66.02-.07.07-.31.11-.54.04-.23.23-.98.44-1.68.1-.35.2-.69.28-.97.27-.31.53-.61.8-.92l.28.08-.3,1.12ZM61.12,278.3c.09-.33.17-.6.2-.62,0,0,0,0,0,0,.04.04-.09,1.06-.25,1.84-.13.66-.54,2.03-.59,1.98-.04-.04.43-2.35.64-3.21ZM62.2,276.81c-.2,1.16-.57,3.71-.67,4.57-.05.45-.06.69-.01.77.06.1.02.18-.24.5-.3.36-.68.72-1.02.94-.23.15-.3.01-.09-.2.21-.24.31-.44.57-1.25.43-1.35.79-2.96,1.06-4.79.11-.8.15-.95.33-1.22.11-.17.21-.3.22-.29.01.01-.05.44-.14.97ZM63.42,278.23c-.11,1.53-.08,1.43-.61,2.23-.26.4-.46.67-.44.6.21-.83.47-2.9.52-4.12.04-.87.04-.93.15-.9.06.03.17.01.23-.03.06-.04.13-.07.16-.07.06,0,.06,1.27-.02,2.29ZM64.27,275.88c-.11.86-.21,1.72-.21,1.92,0,.25-.05.46-.16.7l-.16.34.04-.44c.09-1.07.16-2.54.16-3.32v-.84h.21c.11,0,.23.03.28.05.05.03.02.44-.15,1.6ZM66.54,282.1c-.04.52-.28,1.21-.71,2.07-.3.62-1.3,2.28-1.25,2.1.01-.07.11-.53.2-1.02s.18-.9.19-.91c0-.01.08,0,.15.05.17.09.37-.01.41-.21.02-.08.18-.78.35-1.57.32-1.4.76-3.84.76-4.18,0-.08,0-.14.02-.14,0,0,0,0,0,0,.04.03-.07,3.01-.13,3.8ZM67.1,280.17v-.51c-.01-.28,0-.99.03-1.57l.04-1.06.11.24c.06.14.16.27.21.29.14.06.09.51-.19,1.72l-.2.9ZM68.95,283.32c-.43.85-1.42,2.18-1.42,1.89,0-.14.15-.95.59-3.11.22-1.1.42-2.17.45-2.37.02-.18.06-.31.08-.32,0,0,0,0,.01,0,.03.03.08.37.12.75.04.39.15,1.16.22,1.72l.15,1.02-.21.42ZM69.62,281.86c-.05.14-.05.15-.09.03-.2-.63-.61-4.16-.56-4.73l.03-.22.13.35c.07.19.14.45.15.57.01.12.07.72.12,1.33.06.61.15,1.43.2,1.82.05.43.07.76.03.85ZM70.71,282.92c-.02.29-.06.51-.08.48-.03-.03-.09-.22-.16-.43-.16-.56-.08-1.81.14-2.41.09-.24.18-.43.2-.43.03,0-.03,1.95-.09,2.78ZM71.75,281.5c-.35-1.03-.39-1.22-.43-1.87-.03-.46-.03-.79.01-.91.08-.24.13-.18.21.25.08.44.22.53.22.15,0-.15-.03-.46-.07-.7-.04-.32-.04-.47,0-.57.04-.08.08-.11.14-.1.02,0,.04,0,.07.01.08.02.15.06.17.07.02.02.04,1.11.04,2.42v2.4s-.37-1.14-.37-1.14ZM76.32,280.71c.1-.32.23-.83.29-1.12.06-.29.13-.53.15-.53s.19.44.38.99c.02.07.04.12.06.18-.36.44-.71.88-1.07,1.31.04-.26.12-.58.19-.83ZM104.94,252.49c.14.04.13.05-.11.15,0,0-.02,0-.02,0,.04-.05.09-.11.13-.16ZM87.76,280.36c-.03.21-.07.06-.2-.83-.16-1.18-.2-1.68-.11-1.97.02-.07.03-.12.05-.12.03,0,.06.22.17.97.13.88.16,1.5.08,1.94ZM90.65,280.2c-.06-.04-.18-.2-.25-.37-.27-.58-.63-1.54-.63-1.63,0-.06.01-.09.04-.09.05,0,.14.07.3.24.24.25.35.53.58,1.52.09.38.08.39-.03.34ZM92.08,282.42s.01,0,.02.01c-.02.02-.03.04-.05.06,0-.04.01-.07.02-.07ZM85.9,313.53c-1.23,0-1.85-.79-1.85-2.36v-3.35c1.21,1.38,2.42,2.77,3.63,4.16-.19,1.03-.78,1.55-1.78,1.55ZM99.03,312.7c-.5.56-1.15.84-1.96.84-.76,0-1.38-.29-1.88-.87-.48-.57-.73-1.31-.73-2.22,0-.85.25-1.57.75-2.14.5-.57,1.13-.86,1.88-.86.79,0,1.44.28,1.94.85.5.58.75,1.31.75,2.2s-.25,1.62-.75,2.2ZM99.64,300.88c-.21-.4-.22-.72,0-1.13v1.13ZM135.47,244.04c1.67,1.77,1.61,2.91.13,4.7-10.71,12.91-21.35,25.89-31.99,38.86-2.85,3.48-5.59,7.06-8.45,10.53-1.06,1.29-1.15,2.18.07,3.54,1.47,1.63,2.93,3.27,4.4,4.9v.26c-.87-.91-1.86-1.36-2.96-1.36-1.27,0-2.33.48-3.17,1.43-.85.95-1.27,2.13-1.27,3.55,0,.09.02.18.02.27-.78-.89-1.55-1.78-2.33-2.66v-2.32h-2.03c-1.29-1.47-2.57-2.95-3.87-4.43-1.62-1.84-.51-2.69.45-3.87,4.69-5.77,9.39-11.54,14.08-17.31.16.12.29.21.35.24.2.11.21.11.32,0,.11-.1.11-.12,0-.32-.03-.06-.14-.2-.29-.38.29-.36.59-.73.89-1.09.48.13.78.14.91.03.17-.14.1-.49-.15-.96.84-1.03,1.67-2.05,2.51-3.08.62.16,1.45.27,1.58.19.06-.04.11-.1.13-.13.04-.12-.31-.46-.96-.97.09-.11.19-.23.28-.34.13.02.26.05.35.06.27.03.51.12.87.32.29.17.54.27.6.25.16-.06.08-.17-.32-.38-.26-.14-.38-.24-.38-.32,0-.14-.21-.31-.62-.53.24-.29.47-.58.71-.87.07.01.14.02.2.02.3,0,.45-.15.45-.46,0-.09-.03-.18-.08-.26,6-7.36,12-14.72,18.03-22.06,1.53-1.87,1.58-3.1-.03-4.99-2.76-3.24-5.5-6.5-8.26-9.75.42-.13.71-.22.75-.24.12-.04.15-.1.13-.27-.02-.18-.04-.2-.24-.22-.07,0-.47.09-1.03.26-.6-.71-1.2-1.42-1.81-2.13.13-.07.21-.13.23-.15.12-.17.1-.39-.04-.47-.13-.07-.34-.08-.73-.02-.32-.38-.64-.76-.97-1.14.9-.28,1.82-.55,2.07-.59.31-.05.51-.18.51-.35,0-.31-.35-.33-1.23-.06-.55.17-1.16.34-1.75.51-.27-.32-.55-.64-.82-.97.23-.15.38-.26.41-.31.03-.04.09-.07.15-.07s.17-.06.25-.13c.1-.1.44-.2,1.23-.38.64-.14,1.13-.29,1.2-.35.26-.24.08-.53-.33-.53-.14,0-.61.08-1.06.17l-.8.17-.25-.25c-.27-.27-.74-.46-1.15-.46h-.22l.2-.22c.23-.26.25-.46.07-.65-.18-.19-.37-.23-1-.18-.3.02-.53.03-.51.01.01-.01.68-.31,1.47-.64,1.26-.54,2.44-.97,3.21-1.18.4-.11.39-.57,0-.57-.09,0-1.28.37-2.63.83-1.35.46-2.5.82-3.36,1.05-.04-.05-.08-.1-.12-.14.86-.31,1.46-.57,1.49-.65.01-.04-.04-.1-.11-.12-.09-.03.3-.15,1.05-.34,1.54-.39,1.81-.48,1.97-.68.15-.19.16-.51.03-.68-.05-.06-.23-.17-.4-.23l-.31-.1.29-.22c.33-.24.41-.48.23-.65-.2-.2-.58-.12-2.4.5-1.65.56-1.83.6-2.75.72-.54.06-.99.11-.99.11-.01,0,.31-.27.7-.59.56-.45.76-.58.91-.58.32,0,2.14-.62,2.35-.8.28-.24.23-.57-.11-.74-.16-.09-.14-.1.98-.67.63-.32,1.21-.64,1.3-.71.19-.15.21-.32.06-.47-.19-.2-1.03,0-2.79.63-.57.2-.78.25-.82.2-.15-.25-.54-.27-1.48-.1-.52.1-.62.1-.65.02-.02-.04.01-.15.06-.22.12-.17.12-.45,0-.64-.09-.15-.09-.15,1.91-1.14,1.1-.55,2.05-1.01,2.11-1.03.18-.06.25-.25.14-.41-.13-.19-.27-.18-.95.11-.33.14-.63.25-.66.25-.03,0-.04-.08-.02-.18.02-.1,0-.24-.03-.31-.06-.12-.03-.15.39-.39.44-.24.7-.45.77-.59,4.75,5.67,9.49,11.34,14.25,16.99,3.74,4.44,7.53,8.86,11.51,13.09ZM136.08,121.68h0s2.61,3.1,3.25,3.83c.64.73-.18,3.06-2.01,5.48-.04.05-.06.09-.09.14l-4,4.58c-14.38,16.88-28.66,33.86-43.04,50.74-1.49,1.75-1.35,2.74.12,4.47,4.76,5.6,9.49,11.22,14.21,16.85-.09,0-.18,0-.27,0-.57.07-1.02.36-1.9,1.21-.7.68-.87.81-1.45,1.12-.88.46-2.15,1.28-3.75,2.42,0,0,0,0,0,0-2.02-2.39-4.03-4.77-6.05-7.15,0-.45-.06-.83-.15-1.21-.09-.36-.18-.86-.2-1.11-.04-.53-.16-.7-.43-.63-.2.05-.28.26-.28.74,0,.22-.07.48-.17.76-3.79-4.48-7.57-8.96-11.36-13.44-1.15-1.36-1.33-2.2-.06-3.68,13.75-16.02,27.42-32.12,41.12-48.19,2.23-2.62,4.42-5.27,6.74-7.81,1.19-1.3,1.1-2.25-.01-3.57-11.62-13.75-23.21-27.53-34.76-41.35-3.65-4.36-3.3-3.13.11-6.96,1.24-1.39,2.42-2.84,3.92-4.59,14.51,16.73,26.58,31.14,40.54,47.33Z" style="fill: #ae742a; stroke-width: 0px;"/>
  <path d="M0,341.22v6.56c1.45,1.7,2.89,3.4,4.33,5.09,1.53,1.79,1.58,2.99.04,4.78-1.48,1.71-2.92,3.45-4.38,5.19v1.42h4.57c1.98-2.38,3.96-4.77,6.08-7.03,1.25-1.34,1.03-2.27-.06-3.55C7.05,349.52,3.53,345.37,0,341.22Z" style="fill: #ae742a; stroke-width: 0px;"/>
  <path d="M29.62,244.08C19.73,232.59,9.87,221.07,0,209.56v6.54c5.97,6.97,11.94,13.93,17.91,20.89,1.97,2.3,3.88,4.66,5.97,6.85,1.4,1.47,1.44,2.56.08,4.15-7.74,9-15.39,18.07-23.04,27.15-.31.36-.61.73-.92,1.1v6.68c9.89-11.71,19.78-23.42,29.71-35.09,1.24-1.46,1.09-2.37-.09-3.74Z" style="fill: #ae742a; stroke-width: 0px;"/>
  <path d="M32.03,22.26C25.81,14.84,19.6,7.42,13.39,0h-5.61c6.71,7.92,13.41,15.85,20.14,23.75,1.07,1.25.71,2.02-.23,3.11C18.45,37.58,9.23,48.31,0,59.03v6.55c10.7-12.45,21.38-24.91,32.07-37.36q2.51-2.93-.05-5.96Z" style="fill: #ae742a; stroke-width: 0px;"/>
  <path d="M0,320.93v6.55c7.14,8.44,14.28,16.88,21.46,25.29,1.66,1.94,1.74,3.19.03,5.16-1.8,2.08-3.57,4.19-5.32,6.32h5.71c1.99-2.38,3.99-4.75,6.03-7.09,1.11-1.27,1.03-2.13-.02-3.35C18.58,342.86,9.29,331.9,0,320.93Z" style="fill: #ae742a; stroke-width: 0px;"/>
  <path d="M0,23.17v3.21C.89,25.17.76,24.25,0,23.17Z" style="fill: #ae742a; stroke-width: 0px;"/>
  <path d="M15.49,22.24C10.32,16.07,5.16,9.89,0,3.71v6.71c3.61,4.3,7.22,8.6,10.85,12.88,1.2,1.42,1.19,2.32-.04,3.72C7.2,31.15,3.6,35.29,0,39.42v6.39c5.15-5.92,10.29-11.84,15.44-17.76,2.54-2.92,2.49-2.9.05-5.81Z" style="fill: #ae742a; stroke-width: 0px;"/>
  <path d="M48.13,228.47c.44,0,1.02-.68,1.02-1.19,0-.36-.08-.5-.32-.58-.12-.04-.21-.06-.3-.06-.14,0-.26.05-.4.17-.27.23-.37.5-.37.98s.11.69.37.69Z" style="fill: #ae742a; stroke-width: 0px;"/>
  <path d="M77.55,206.11c.11.11.15.11.25.03.11-.09.11-.1.01-.28-.06-.11-.11-.28-.11-.38,0-.15.03-.2.16-.23.13-.03.16-.08.16-.23s-.03-.2-.16-.23c-.08-.02-.18-.08-.23-.13-.04-.05-.18-.09-.32-.09-.21,0-.3.04-.6.33-.19.18-.39.41-.44.51-.11.23-.11.56.01.74.14.2.61.2.91-.01.21-.15.22-.15.35-.03Z" style="fill: #ae742a; stroke-width: 0px;"/>
  <path d="M56.44,199.94c.11.04.26.16.32.26.2.32.52.17.37-.17-.06-.13-.05-.16.06-.19.07-.03.17-.11.22-.19.14-.22.06-1.05-.11-1.27-.09-.12-.18-.16-.36-.16-.21,0-.28.04-.57.34-.29.32-.32.38-.32.64,0,.39.14.64.4.74Z" style="fill: #ae742a; stroke-width: 0px;"/>
  <path d="M32.18,219.83c-.09,0-.28-.27-.28-.41,0-.06-.06-.13-.12-.17-.02-.01-.05-.02-.07-.02-.18,0-.42.26-.69.76-.27.48-.27.49-.2.83.04.19.1.39.14.43.1.12.44.11.63-.03.8-.53.81-.54.86-.86.04-.24-.11-.55-.27-.55Z" style="fill: #ae742a; stroke-width: 0px;"/>
  <path d="M33.59,240.48c.42,0,.9-.41,1.02-.88.11-.44,0-.96-.27-1.27-.1-.1-.28-.15-.47-.15-.19,0-.39.06-.52.17-.32.27-.44.59-.44,1.11,0,.74.18,1.02.68,1.02Z" style="fill: #ae742a; stroke-width: 0px;"/>
  <polygon points="49.65 298.76 49.65 315.22 51.83 315.22 51.83 311.57 52.18 311.22 55.3 315.22 58.12 315.22 53.73 309.71 57.82 305.73 54.9 305.73 51.83 308.8 51.83 298.76 49.65 298.76" style="fill: #ae742a; stroke-width: 0px;"/>
  <path d="M75.85,329.68v5.5c0,.87.09,1.53.27,1.97.19.49.51.94.96,1.34.74.64,1.67.97,2.8.97s2.07-.32,2.81-.97c.45-.4.76-.84.94-1.34.19-.55.28-1.21.28-1.97v-5.5h-2.18v5.45c0,1.57-.62,2.36-1.85,2.36s-1.85-.79-1.85-2.36v-5.45h-2.18Z" style="fill: #ae742a; stroke-width: 0px;"/>
</svg>