<?xml version="1.0" encoding="UTF-8"?>
<svg xmlns="http://www.w3.org/2000/svg" width="58.91mm" height="128.5mm" viewBox="0 0 166.99 364.25">
  <g id="a" data-name="Z Mesh Cu front">
    <g>
      <path d="M113.93,184.83c9.75-11.24,19.48-22.5,29.22-33.75v-6.3c-11.56,13.35-23.11,26.72-34.69,40.05h5.47Z" style="fill: #ae742a; stroke-width: 0px;"/>
      <path d="M26,129.52C17.32,119.1,8.66,108.66,0,98.22v6.71c7.05,8.43,14.1,16.86,21.18,25.27,1.3,1.54,1.18,2.46-.05,3.92C14.07,142.43,7.03,150.75,0,159.08v6.62c8.66-10.24,17.32-20.48,25.98-30.72,2.35-2.79,2.29-2.74.03-5.46Z" style="fill: #ae742a; stroke-width: 0px;"/>
      <path d="M0,23.17v3.21C.89,25.17.76,24.25,0,23.17Z" style="fill: #ae742a; stroke-width: 0px;"/>
      <path d="M143.15,10.33c-2.9-3.44-5.8-6.88-8.69-10.33h-5.58c4.74,5.51,9.49,11.01,14.27,16.5v-6.16Z" style="fill: #ae742a; stroke-width: 0px;"/>
      <path d="M115,77.53c9.4,10.92,18.77,21.87,28.15,32.81v-6.46c-7.01-8.22-14.01-16.44-20.99-24.67-3.58-4.23-4.11-2.98.23-7.7,6.93-7.53,13.84-15.08,20.76-22.62v-4.54c-9.37,10.05-18.73,20.1-28.1,30.13-1.07,1.14-1.09,1.83-.04,3.04Z" style="fill: #ae742a; stroke-width: 0px;"/>
      <path d="M122.99,187.45h5.61c.18-.33.43-.68.76-1.07,4.61-5.4,9.2-10.82,13.8-16.24v-6.55c-6.1,7.17-12.21,14.35-18.32,21.51-.89,1.04-1.5,1.76-1.84,2.34Z" style="fill: #ae742a; stroke-width: 0px;"/>
      <path d="M3.64,134.76c-1.22,1.43-2.42,2.87-3.64,4.3v6.48c3.19-3.77,6.38-7.54,9.58-11.31,1.29-1.52,1.16-2.54-.06-4C6.34,126.43,3.17,122.61,0,118.8v6.75c1.26,1.51,2.5,3.02,3.76,4.53,1.59,1.9,1.35,2.94-.13,4.68Z" style="fill: #ae742a; stroke-width: 0px;"/>
      <path d="M135.56,78.43c2.53,2.95,5.06,5.91,7.59,8.86v-6.75c-.57-.67-1.14-1.34-1.71-2.01-1.61-1.88-1.65-3.02,0-4.88.57-.64,1.14-1.29,1.71-1.93v-6.23c-2.51,2.85-5.01,5.7-7.52,8.54-1.39,1.58-1.51,2.71-.07,4.39Z" style="fill: #ae742a; stroke-width: 0px;"/>
      <path d="M79.1,22.74c1.08,1.18,1.1,2.09-.02,3.35-11.82,13.36-23.58,26.79-35.38,40.17-3.57,4.05-7.17,8.08-10.84,12.05-1.23,1.33-1.31,2.28-.08,3.74,12.86,15.28,25.61,30.65,38.49,45.92,1.48,1.76.59,2.74-.46,3.95-8.62,9.97-17.26,19.92-25.84,29.92-6.07,7.07-12.09,14.18-18.15,21.25h5.33c14.62-16.89,29.15-33.85,43.78-50.73,1.72-1.98,1.56-3.21-.08-5.16-11.29-13.49-22.45-27.1-33.65-40.67-1.25-1.51-2.47-3.06-3.83-4.47-1.21-1.26-1.18-2.22,0-3.54,9.5-10.61,18.97-21.25,28.38-31.93,5.95-6.76,11.75-13.65,17.71-20.39,1.27-1.44,1.13-2.36-.02-3.73-6.27-7.47-12.51-14.97-18.75-22.47h-5.57c5.22,6.26,10.43,12.53,15.65,18.79,1.1,1.32,2.15,2.68,3.32,3.95Z" style="fill: #ae742a; stroke-width: 0px;"/>
      <path d="M44.3,27.08c-11.02,12.87-21.99,25.78-32.98,38.68C7.57,70.16,3.84,74.58,0,78.9v5.05c11.19,13.19,22.32,26.43,33.46,39.65,1.79,2.13,3.52,4.32,5.37,6.39,1.14,1.28,1.12,2.23-.02,3.58C25.86,148.81,12.95,164.08,0,179.33v6.52c.14-.2.31-.41.49-.63,14.53-17.09,28.93-34.28,43.47-51.35,1.53-1.8,1.32-2.88-.08-4.53-12.74-15.06-25.42-30.18-38.11-45.28-2.19-2.61-2.17-2.59.06-5.22,14.69-17.27,29.37-34.55,44.09-51.8,1.13-1.33,1.1-2.3,0-3.61-6.57-7.8-13.13-15.62-19.67-23.44h-5.68c6.6,7.8,13.19,15.6,19.83,23.37,1.26,1.48,1.04,2.38-.1,3.71Z" style="fill: #ae742a; stroke-width: 0px;"/>
      <path d="M27.69,26.87C18.45,37.58,9.23,48.31,0,59.03v6.55c10.7-12.45,21.38-24.91,32.07-37.36q2.51-2.93-.05-5.96C25.81,14.84,19.6,7.42,13.39,0h-5.61c6.71,7.92,13.41,15.85,20.14,23.75,1.07,1.25.71,2.02-.23,3.11Z" style="fill: #ae742a; stroke-width: 0px;"/>
      <path d="M10.81,27.03C7.2,31.15,3.6,35.29,0,39.42v6.39c5.15-5.92,10.29-11.84,15.44-17.76,2.54-2.92,2.49-2.9.05-5.81C10.32,16.07,5.16,9.89,0,3.71v6.71c3.61,4.3,7.22,8.6,10.85,12.88,1.2,1.42,1.19,2.32-.04,3.72Z" style="fill: #ae742a; stroke-width: 0px;"/>
      <path d="M60.61,27.76c-14.87,16.89-29.7,33.82-44.62,50.68-1.4,1.58-1.28,2.55.03,4.11,12.93,15.33,25.77,30.73,38.69,46.07,1.1,1.3.9,2.2-.11,3.38-9.71,11.39-19.39,22.81-29.07,34.22l4.41.63c7.71-8.93,15.43-17.85,23.14-26.78,2.41-2.79,4.76-5.62,7.21-8.37.96-1.08.9-1.84-.03-2.94-12.76-15.15-25.48-30.34-38.22-45.51-2.3-2.74-2.27-2.67.09-5.35,15.02-17.1,29.99-34.23,45.03-51.3,1.25-1.42.89-2.32-.15-3.55-6.45-7.67-12.88-15.36-19.3-23.05h-5.7c6.22,7.39,12.44,14.78,18.64,22.19,2.41,2.87,2.34,2.85-.06,5.58Z" style="fill: #ae742a; stroke-width: 0px;"/>
      <path d="M116.03,28.63c-10.56,10.96-21.11,21.95-31.68,32.9-5.63,5.83-11.28,11.64-17,17.38-1.26,1.26-1.25,2.08-.1,3.46,12.47,14.85,24.85,29.79,37.33,44.64,1.4,1.67,1.26,2.75-.11,4.34-7.61,8.89-15.21,17.79-22.8,26.7h5.39c6.14-7.19,12.29-14.37,18.43-21.56,1.44-1.68,2.74-3.48,4.24-5.09,1.32-1.43,1.24-2.55,0-4.02-8.44-10.02-16.81-20.08-25.19-30.15-4.03-4.84-7.96-9.77-12.07-14.55-1.4-1.62-1.23-2.6.21-4.08,13.51-13.8,26.97-27.66,40.4-41.55,2.84-2.94,5.44-6.11,8.28-9.06,1.28-1.33,1.08-2.27-.02-3.53-7.02-8.14-14.02-16.31-21.02-24.47h-5.52c7.2,8.33,14.4,16.66,21.64,24.95,1.44,1.65.66,2.55-.43,3.68Z" style="fill: #ae742a; stroke-width: 0px;"/>
      <path d="M129.4,19.67h-.01s.31.35.31.35c.84.97,1.68,1.94,2.52,2.9.22.25.46.46.71.64l4.57,5c-8.4,8.12-16.82,16.23-25.11,24.46-9.23,9.18-18.2,18.61-27.33,27.88-1.26,1.28-1.23,2.13-.08,3.48,12.17,14.36,24.25,28.79,36.43,43.15,1.24,1.46,1.08,2.31-.1,3.69-10.72,12.45-21.4,24.92-32.09,37.39h4.8c8.52-9.99,17.03-19.98,25.54-29.97,2.23-2.62,4.42-5.27,6.74-7.81,1.19-1.3,1.1-2.25-.01-3.57-11.62-13.75-23.21-27.53-34.76-41.35-3.65-4.36-3.3-3.13.11-6.96,1.24-1.39,2.42-2.84,3.92-4.59,14.51,16.73,26.58,31.14,40.54,47.33h0s2.61,3.1,3.25,3.83c.64.73-.18,3.06-2.01,5.48-.04.05-.06.09-.09.14l-4,4.58c-9.32,10.94-18.6,21.91-27.89,32.88h6.31c4.57-5.34,9.14-10.69,13.71-16.04,5.69-6.66,11.39-13.3,16.99-20.04.28-.34.55-.61.8-.83v-7.53c-14.22-16.38-28.42-32.79-42.67-49.14-1.52-1.74-1.56-2.71.09-4.37,13.07-13.21,26.08-26.47,39.09-39.74l3.5,3.82v-5.9l-.72-.76c.24-.24.48-.49.72-.73v-4.26c-.94.91-1.89,1.83-2.83,2.74l-7.34-7.8h0c-5.04-6.02-10.11-12.02-15.18-18.02h-5.34c4.93,5.72,9.85,11.45,14.77,17.17.72.84,1.45,1.66,2.17,2.5Z" style="fill: #ae742a; stroke-width: 0px;"/>
      <path d="M96.85,21.41c1.4,1.56,1.41,2.75-.05,4.37-12.79,14.25-25.51,28.57-38.25,42.87-2.94,3.3-5.85,6.63-8.85,9.87-1.16,1.25-1.24,2.14-.07,3.53,12.49,14.95,24.91,29.95,37.35,44.95q2.25,2.71-.07,5.42c-9.59,11.2-19.18,22.39-28.77,33.59h5.58c9.54-11.19,19.08-22.37,28.61-33.56,2.32-2.73,2.26-2.77.04-5.45-12.34-14.86-24.65-29.74-37.08-44.53-1.54-1.83-1.28-2.83.18-4.46,15.67-17.39,31.25-34.86,46.92-52.25,1.45-1.61,1.46-2.6.02-4.27-6.12-7.13-12.18-14.31-18.23-21.49h-5.63c3.66,4.28,7.3,8.56,10.96,12.84,2.44,2.86,4.83,5.77,7.35,8.58Z" style="fill: #ae742a; stroke-width: 0px;"/>
    </g>
  </g>
  <g id="b" data-name="Z Logo">
    <g>
      <path d="M59.02,194.77c.49,0,1.15.07,2.05.22,1.43.24,2.05.41,2.94.85.9.44,1.11.6,1.71,1.32.59.72.69.81,1.58,1.49.39.29.78.61.88.72l.18.2.51-.46c.57-.52.99-1.11.99-1.4,0-.11.03-.31.07-.43.06-.25.21-.34.51-.29.2.03.25.3.06.35-.15.04-.16.21-.09.83.05.37.11.42.23.17.08-.15.08-.18-.03-.29-.16-.16-.1-.34.16-.58.26-.23.47-.28.67-.17.38.22.13,1.04-.52,1.76l-.33.36-.04,1.05c-.04,1.27-.27,3.28-.4,3.48-.11.17-.25.18-.42.04-.09-.08-.11-.2-.11-.65,0-.51-.01-.56-.16-.71-.09-.08-.41-.45-.71-.82-.3-.37-.57-.71-.62-.76-.12-.13-1.04.57-1.92,1.46-.59.6-.82.78-1.23,1-.28.14-.57.28-.66.31s-.49.2-.91.39c-.41.19-1.04.44-1.41.57-.56.18-.75.22-1.26.22-.77,0-1.4-.17-2.07-.54-.28-.16-.86-.47-1.3-.69-.62-.32-.97-.57-1.61-1.11-.66-.55-.95-.75-1.48-1-.37-.18-1.01-.53-1.43-.78-.42-.25-.79-.46-.82-.46-.11,0-.28-.22-.28-.36,0-.2.2-.32.75-.48.64-.18,1.16-.46,1.41-.76.27-.33,1.06-.93,1.62-1.25.24-.13.48-.32.54-.41.32-.54,1.48-1.81,1.94-2.13.22-.16.54-.24,1.02-.24h0ZM60.08,195.57c-.18,0-.35.04-.56.1l-.39.13-.04.74c-.06.87-.03,1.05.27,2.33.21.91.23,1.06.27,2.4.03.79.05,1.33.06,1.2.02-.32.2-.53.41-.48.09.02.18.1.2.17.05.16-.08.97-.19,1.25-.11.26-.06.28.73.32.52.03.76,0,1.71-.2,1.85-.37,2.24-.57,3.25-1.6.39-.39.94-.88,1.25-1.11.3-.22.55-.42.55-.44,0-.08-.83-.86-1.36-1.28-.28-.22-.8-.67-1.17-.98-1.52-1.33-2.26-1.95-2.48-2.07-.23-.12-1.69-.42-2.32-.47-.06,0-.12,0-.18,0h0ZM57.77,196.58c-.98.61-.97.6-1.46,1.3-.53.76-.81.99-1.88,1.53-.81.42-1.11.64-1.11.79,0,.08.8.65,1.17.83.11.05.51.22.9.38.39.17,1.26.62,1.93,1.02,1.3.78,1.63.95,1.66.92.01-.01-.02-.43-.06-.94-.05-.51-.12-1.58-.16-2.38-.04-.81-.1-1.59-.14-1.75s-.09-.7-.11-1.21l-.04-.93-.69.43ZM57.28,198.38c.18.22.25,1.05.11,1.27-.05.08-.15.17-.22.19-.11.03-.11.06-.06.19.15.34-.17.5-.37.17-.06-.1-.2-.22-.32-.26-.27-.1-.4-.35-.4-.74,0-.27.03-.32.32-.64.28-.3.36-.34.57-.34.18,0,.27.04.36.16ZM69.95,199.74s-.24.1-.47.22c-.23.12-.44.25-.45.28-.03.03.17.25.42.48l.46.42.04-.18c.06-.25.06-1.23.01-1.23h0ZM82.63,200.53c.57,0,.71.03,1.04.18.59.27.95.59,1.6,1.4.34.41.76.93.94,1.16.2.24.53.8.8,1.35.49.97.74,1.4.99,1.62l.14.13.47-.5c.83-.87,1.42-1.99,1.42-2.71,0-.48.08-.69.28-.74.27-.07.39.1.43.63.02.25.11.75.2,1.11.24,1,.2,1.91-.19,4.49-.09.56-.16,1.16-.16,1.32,0,.25-.03.34-.16.46-.21.22-.34.2-.77-.11-.61-.46-.76-.68-1.38-2.08-.16-.36-.3-.67-.32-.69-.02-.01-.22.16-.45.39-.24.23-.6.52-.81.65-.21.13-.55.39-.76.57-.63.55-.83.67-2.46,1.49-1.48.74-1.59.79-2.08.84-.28.03-.61.04-.72.02-.18-.04-.21-.03-.21.11,0,.18-.17.37-.32.37-.06,0-.16-.08-.23-.17-.29-.43-.3-.43-.93-.38-.32.02-.77.06-1.01.08-.38.04-.45.03-.52-.07-.12-.18-.1-.38.08-.74.09-.18.15-.33.14-.34-.01,0-.2-.11-.42-.22-.89-.45-1.54-.9-2.44-1.72-.35-.31-.73-.56-1.21-.81-.45-.24-.73-.42-.77-.51-.11-.23-.08-.78.05-1.07.12-.26,1.21-1.49,2.34-2.63.52-.52.75-.69,1.74-1.3.63-.37,1.27-.76,1.43-.85.24-.14.29-.2.3-.36,0-.27.17-.37.49-.32.14.03.28.08.32.13.06.08.15.08.63,0,.82-.14,1.74-.22,2.49-.2h0ZM81.04,201.24c-.4.04-.95.13-1.22.19-.46.1-.48.11-.46.27.01.11.05.17.11.15.05-.01.32-.1.59-.18.67-.2,1.24-.2,1.97.02.87.25,1.29.52,2.65,1.71.68.59,1.36,1.18,1.5,1.3l.26.22-.26-.5c-.34-.62-1.9-2.59-2.28-2.87-.16-.12-.42-.26-.58-.32-.17-.06-.48-.09-.87-.09s-.89.03-1.42.09ZM78.1,202.18c-.34.22-.9.57-1.25.77-.38.23-.8.54-1.07.81-.35.34-.4.41-.23.32.12-.07.59-.33,1.04-.58.45-.25,1.14-.65,1.54-.9.64-.4.71-.46.71-.63,0-.1-.03-.18-.05-.18-.03,0-.33.18-.68.4ZM80.99,201.85c-.35,0-.69.05-1.01.15l-.47.15v.56c.01.38.08.81.21,1.35.27,1.1.32,1.58.39,3.91.04,1.12.09,2.17.13,2.35.03.17.06.36.06.39,0,.06.2.08.73.08h.73s.68-.36.68-.36c1.03-.54,1.51-.83,2.1-1.26.3-.22.91-.62,1.36-.89.59-.35.95-.62,1.26-.93l.43-.43-.4-.65c-.47-.75-.49-.77-1.48-1.63-.41-.36-1.15-.99-1.64-1.41-.52-.45-1.04-.84-1.28-.95-.6-.29-1.2-.44-1.78-.45h0ZM78.79,202.54s-.27.15-.55.33c-.28.18-.99.59-1.58.92-1.7.95-2.1,1.31-2.86,2.57l-.14.23.23.15c.13.08.51.37.84.65s.98.83,1.44,1.23c.93.78,1.78,1.3,1.94,1.16.13-.1.33-.03.42.17.05.09.22.22.41.31l.32.15.04-.16c.06-.24.05-.87-.03-1.61-.13-1.19-.2-2.49-.2-3.56,0-.64-.04-1.25-.09-1.56-.05-.28-.11-.62-.13-.75-.02-.13-.06-.24-.08-.24h0ZM44.58,202.87c.1.01.2.08.25.18.04.09.08.29.08.44v.29l.63-.02c.66-.02.8.02,1.4.4.12.08.47.22.79.32.83.25,1.1.41,1.55.93.25.29.61.6.95.82.81.53.97.67,1.36,1.16.2.25.66.78,1.02,1.16.35.39.75.84.87,1l.23.29.37-.43c.2-.24.54-.59.76-.78.22-.2.5-.53.62-.73.12-.2.27-.41.33-.46.14-.11.24-.64.24-1.21,0-.36.03-.46.13-.57.07-.07.16-.13.21-.13.11,0,.35.29.35.42,0,.04.18.72.4,1.5.22.78.44,1.62.47,1.87.09.58.09,1.52,0,2.14-.08.55-.33,1.46-.47,1.67-.16.25-.41.2-.81-.17-.19-.18-.37-.32-.39-.32s-.04.06-.04.13c0,.08-.04.13-.13.13-.07,0-.13-.03-.13-.06,0-.14-.87-1.04-1.23-1.28-.21-.14-.45-.33-.54-.41l-.15-.16-.32.31c-.18.17-.61.51-.95.77s-.81.62-1.04.83c-.59.51-.82.66-1.68,1-.42.17-.92.41-1.12.54-.96.62-1.86.93-2.68.93-.9,0-1.5-.21-2.42-.86-.26-.18-.72-.47-1.02-.64-.3-.17-.73-.44-.95-.6-.83-.63-2.9-2.89-2.9-3.16,0-.03-.05-.12-.11-.22l-.11-.17-.21.29c-.17.24-.24.29-.37.27-.24-.03-.24-.17.01-.58.2-.32.21-.41.18-.67-.03-.27-.02-.32.14-.44.09-.08.23-.14.29-.14.07,0,.19-.11.28-.24.96-1.43,1.3-1.82,2.41-2.73.76-.63,1.09-.81,1.98-1.1.32-.11.62-.22.66-.24.07-.05.23-.39.31-.65.03-.09.1-.27.17-.4.1-.2.15-.24.29-.22h0ZM59.29,204.15c-.05,0-.1.03-.12.08-.02.05-.04.11-.04.11,0,.01.22.09.49.17.71.22,1.44.21,2.21-.03.32-.1.57-.2.56-.2-.01-.01-.26.02-.56.07-.29.05-.68.1-.87.1-.27,0-1.24-.17-1.66-.29,0,0-.01,0-.02,0h0ZM44.99,204.37c-.06.04-.06.16-.04.43l.04.38.36-.12c.21-.08.59-.14.98-.16l.62-.03-.43-.28c-.42-.27-.45-.27-.94-.28-.28,0-.54.03-.59.05ZM77.31,204.57c.14,0,.28.04.32.09.04.05.15.11.23.13.13.03.16.08.16.23s-.03.2-.16.23-.16.08-.16.23.05.27.11.38c.1.18.1.19-.01.28-.11.08-.14.08-.25-.03-.13-.12-.14-.12-.35.03-.3.21-.77.22-.91.01-.13-.18-.13-.51-.01-.74.05-.1.25-.32.44-.51.3-.29.39-.33.6-.33h0ZM89.93,205.27c-.2.31-.59.81-.87,1.11-.35.38-.49.57-.45.62.54.72,1.38,1.69,1.42,1.65.16-.18.48-3.96.33-3.96-.03,0-.21.26-.42.57ZM43.83,204.77s-.39.11-.75.24c-.77.27-.85.32-1.81,1.13-.76.65-1.17,1.09-1.61,1.75-.25.38-.28.45-.21.59.09.2.12.19.31-.06.27-.36,1.03-.89,2.19-1.54.61-.34,1.3-.74,1.54-.9l.42-.28v-.48c0-.34-.03-.48-.08-.47h0ZM46.28,205.18c-.09,0-.17,0-.23.01-.23.04-.97.27-1.05.32-.06.04-.09.78-.12,2.53-.03,2.17-.03,2.64.08,3.76.11,1.14.11,1.73,0,2.18-.03.11.54.31,1.14.39.76.1,1.31-.03,2.16-.51.3-.17.81-.42,1.14-.55.33-.13.71-.3.83-.37.36-.18,1.39-1.06,2.22-1.88l.75-.74-.18-.24c-.66-.87-1.45-1.65-3.41-3.32-1.13-.97-1.57-1.23-2.34-1.42-.33-.08-.73-.14-1-.14h0ZM43.43,206.37c-.24.15-.87.51-1.39.81-1.52.85-1.87,1.13-2.48,2.03l-.32.46.14.25c.13.24.75.81,2.13,2,.84.72,1.13.92,1.95,1.32l.71.36v-.65c0-.36-.04-1.54-.09-2.62-.05-1.09-.12-2.48-.15-3.1l-.04-1.12-.44.27ZM108.51,206.56c.17,0,.32.07.41.17.19.23.11.66-.16.88-.06.06-.1.19-.1.38,0,.37-.11.53-.86,1.21-.75.69-1.33,1.12-2.44,1.84l-.92.6.23.12c.23.11.24.11.63-.02.51-.17.87-.15.89.06.03.22-.18.41-.71.65-.26.12-.47.25-.47.3,0,.14-.19.47-.48.85l-.28.36.52-.24c.64-.29,1.4-.58,1.57-.58.07,0,.17.08.23.17.1.15.1.17-.02.33-.16.22-.85.64-1.6.97-.39.18-.73.38-.96.59-.35.31-.36.32-.23.41.12.08.23.06,1.05-.18.56-.16,1.32-.44,1.91-.71,1.31-.6,2.39-1.05,2.63-1.1.21-.04.4.08.4.26s-.28.38-.8.67c-.42.24-.45.27-.39.39.04.07.05.21.03.31s-.01.18.02.18c.03,0,.32-.11.66-.25.69-.29.82-.3.95-.11.11.15.04.35-.14.41-.06.02-1.01.48-2.11,1.03-2,.99-2.01.99-1.91,1.14.12.18.12.46,0,.64-.05.08-.08.18-.06.22.03.08.13.08.65-.02.93-.17,1.33-.15,1.48.1.04.06.25,0,.82-.2,1.76-.64,2.6-.83,2.79-.63.15.15.13.32-.06.47-.09.07-.68.39-1.3.71-1.12.57-1.14.58-.98.67.34.18.39.5.11.74-.21.18-2.03.8-2.35.8-.15,0-.35.13-.91.58-.39.32-.71.58-.7.59,0,0,.45-.04.99-.11.92-.12,1.1-.17,2.75-.72,1.82-.62,2.2-.69,2.4-.5.18.18.09.41-.23.65l-.29.22.31.1c.17.06.35.17.4.23.13.17.11.49-.03.68-.16.2-.43.29-1.97.68-.75.19-1.14.31-1.05.34.07.02.12.08.11.12-.03.1-.9.46-2.04.85-.45.16-.71.27-.57.24.71-.11,2.4-.6,4.61-1.35,1.35-.46,2.54-.83,2.63-.83.4,0,.41.46,0,.57-.77.21-1.95.64-3.21,1.18-.8.34-1.46.63-1.47.64-.02.02.21,0,.51-.01.63-.05.82-.01,1,.18.18.2.16.39-.07.65l-.2.22h.21c.41,0,.88.19,1.15.46l.25.25.8-.17c.44-.09.92-.17,1.06-.17.41,0,.59.3.33.53-.07.06-.56.21-1.2.35-.79.18-1.13.29-1.23.38-.08.07-.19.13-.25.13s-.12.03-.15.07c-.09.15-1.04.71-2.23,1.32-1.16.59-1.26.66-1.21.77.04.07.12.13.18.13.28,0,3.21-.79,5.41-1.46.88-.27,1.23-.25,1.23.06,0,.17-.2.3-.51.35-.42.07-2.83.81-3.75,1.14-.77.29-.8.31-.8.48v.18h.51c.47,0,.52.01.69.18l.18.18,1.07-.24c1.1-.25,1.52-.29,1.73-.18.14.08.16.3.04.47-.04.06-.85.5-1.79.96-1.64.82-1.69.85-1.4.85.16,0,.31.03.33.06.07.11-.14.18-.78.26-.49.06-.75.12-.97.24-.27.15-.3.17-.2.25.15.1.08.26-.14.34-.16.06-.12.08.52.25.7.18,1.24.35,1.43.45.07.04.32-.02.76-.17,2.07-.71,4.66-1.49,4.86-1.47.2.02.22.04.24.22.02.17,0,.22-.13.27-.13.05-3.95,1.23-4.6,1.41q-.42.13-.16.26c.14.07.37.23.52.35l.27.22,1.31-.32c.73-.18,1.39-.32,1.48-.32s.2.06.26.14c.18.25.02.37-.69.53-.34.08-.97.22-1.38.32l-.76.18v.36c-.01.42-.13.67-.48,1.03-.15.15-.25.27-.23.28s.7-.15,1.53-.36c1.53-.38,1.91-.44,2.05-.3.12.12.09.36-.05.43-.07.04-.86.24-1.75.45-.9.21-1.81.43-2.03.5l-.41.11v.33c0,.31,0,.33.12.29.72-.22,3.88-.99,4.06-.99.27,0,.39.09.39.29,0,.21-.11.27-.92.47-.89.22-1.47.42-3.15,1.09-1.61.65-1.56.62-1.58.88-.03.35-.2.44-.86.44-.52,0-.6.02-1,.22l-.44.22.16.25c.23.34.17.48-.25.61-.18.06-.63.13-.98.18l-.66.07.37.15c.2.08.47.14.59.14.52.01,2.66-.47,5.75-1.28,3.25-.86,4.04-1.04,4.16-.97.13.09.14.41.01.48-.14.08-4.93,1.25-6,1.46-.75.15-1.98.48-2.07.54-.01,0,.04.11.13.22q.15.2.59.17c.53-.04,2.26-.37,4.02-.77,1.45-.33,1.64-.35,1.78-.24.13.11.13.37,0,.44-.11.06-1.86.43-3.54.75-.5.09-.9.18-.88.18s.33.1.71.19c1.1.27,1.41.47,1.34.84-.03.15-.01.15.2.12.42-.06,1.99-.22,2.31-.24.69-.03.79,0,.87.17.06.13.05.18-.04.28-.09.1-.24.13-.85.16-.68.04-2.99.26-3.47.33-.16.03-.21.07-.25.19-.02.08-.11.22-.2.29-.15.12-.25.13-1.37.12-.8,0-1.42.02-1.86.09-.62.09-.76.15-.76.34,0,.04-.02.11-.04.17-.03.09.03.1.42.1.91,0,2.01.11,2.22.22.13.06.57.13,1.22.2.56.05,1.36.15,1.8.22,1.76.29,2.41.56,2.31.97-.09.39-.85.5-3.09.41l-1.57-.06-.2.21c-.17.18-.26.22-.58.26-.42.04-.64.13-.47.19.05.01.69.09,1.42.17,1.71.18,3.53.42,3.88.52.32.1.45.25.35.41-.04.06-.16.12-.27.13-.16.02-3.71-.36-4.34-.46-.15-.03-.2,0-.25.11-.04.08-.16.17-.28.21-.12.04-.2.09-.16.11.27.16.82.24,1.95.31,1.2.06,3.03.22,3.51.29.45.08.63.16.67.32.09.37.08.37-4.33.02-1.71-.14-3.15-.25-3.2-.25s-.09.06-.09.12-.08.18-.16.25c-.24.19-.67.17-1.5-.05-.66-.18-.69-.18-1.01-.09l-.33.1,1.13.57,1.13.57,1.43.18c2.26.29,3.55.55,5.06,1.05.71.23.95.38.95.63,0,.34-.42.36-1.93.06-.45-.09-.83-.16-.83-.16-.01,0,.09.1.21.21.23.22.3.45.19.69-.04.09.04.13.51.24.73.18,1.05.36,1.08.6.05.41-.11.43-1.63.21-1.54-.23-1.43-.23-1.4-.03.02.18-.13.37-.28.37-.06,0-.08.04-.06.15.06.21-.18.47-.48.55-.65.18-1.75.27-3.69.3-1.77.03-2.08.04-2.51.16l-.49.13.17.23c.09.13.18.24.19.25,0,.01.51.1,1.13.21,2.19.37,3.53.78,3.95,1.2.18.18.16.51-.01.68-.33.3-.89.32-3.37.17l-.57-.03.47.23c.54.26.72.41.9.75.17.35.07.49-.46.62-.56.14-.56.27.04.51.63.24,1.23.57,1.23.68,0,.26-.26.35-1.42.5-.45.05-.93.13-1.07.17-.14.03-.56.1-.95.14l-.69.08.69.11c.39.06.94.13,1.24.17.3.03.58.07.62.1.04.03.07.13.07.24,0,.23-.17.31-.66.31-.31,0-2.45.26-2.89.36-.16.03-.17.06-.13.25.04.21-.05.46-.19.55-.04.03-.17.05-.29.05-.19,0-.27-.04-.51-.32l-.28-.32-.45.08c-.25.04-.46.1-.46.11,0,.08,1.13.66,1.85.96.42.17.92.41,1.09.53.18.11.54.3.82.41s.56.25.62.31c.15.13.14.39-.03.56l-.13.14.46.19c.25.1.53.21.62.24.27.08.44.29.44.53,0,.31-.15.46-.45.46-.48,0-1.77-.55-2.87-1.21-.28-.17-.56-.31-.63-.31-.06,0-.18.06-.27.13-.33.26-.51.17-1.12-.57-.23-.27-.49-.55-.58-.6q-.16-.11-.08.03c.04.08.36.44.71.81.55.57.71.69,1.15.91.28.13.54.24.58.24.1,0,.39.33.39.45,0,.13.23.26,1.3.72.76.32,1.14.58,1.14.77,0,.08.12.18.38.32.4.21.49.31.32.37-.06.03-.31-.08-.6-.25-.36-.2-.59-.29-.87-.32-.21-.03-.59-.1-.85-.17-.26-.06-.47-.11-.49-.11,0,.01.28.25.66.52.69.53,1.05.88,1.01,1-.01.04-.07.1-.13.13-.15.1-1.18-.05-1.79-.25-.59-.19-.58-.19-.54-.03.06.2-.1.49-.32.58-.3.13-1.33.11-1.73-.03l-.33-.11-.15.18-.16.18.24.25c1.3,1.38,1.42,1.91.34,1.46-.04-.02.03.11.15.31.44.64.57,1.15.37,1.32-.18.15-.68.08-1.55-.23-.87-.31-1.02-.33-1.36-.24l-.2.06.75.82c.41.45.8.92.87,1.04.11.2.11.22,0,.32-.1.11-.12.11-.32,0-.11-.06-.55-.39-.97-.72-.96-.78-1.33-1.02-1.62-1.07-.26-.05-.28-.03-.18.27.09.27-.01.5-.31.65-.14.08-.27.16-.29.19-.02.04.27.32.63.65.65.57.81.82.54.82-.19,0-.88-.55-1.24-1-.2-.24-.37-.39-.45-.39-.08,0-.26-.08-.41-.15-.15-.08-.36-.17-.46-.2l-.18-.04.15.18c.08.1.38.45.65.78.56.66.86,1.22.75,1.39-.17.25-.58.05-1.34-.65-.15-.15-.26-.22-.24-.16.15.44.29.97.33,1.26.03.19.1.44.17.55.14.24.1.36-.11.31-.09-.03-.18,0-.22.06-.11.13-.67.12-.99-.03-.15-.06-.44-.24-.64-.37-.21-.15-.39-.26-.41-.26-.03,0-.04.12-.04.27,0,.46-.32.64-.69.37-.1-.07-.35-.35-.57-.62-.21-.27-.49-.62-.62-.76-.13-.15-.3-.42-.39-.59l-.16-.32-.09.78c-.09.81-.1,1.02-.06,1.7.02.36,0,.42-.12.51-.12.1-.13.14-.09.58.04.4.03.5-.06.58-.16.16-.44.13-.61-.05-.13-.15-.16-.15-.25-.06-.15.14-.23.03-.33-.49-.08-.37-.71-1.7-.81-1.7-.06,0-.12.61-.16,1.76-.03.97-.05,1.11-.16,1.21-.1.09-.15.1-.31.04q-.18-.07-.18.16c0,.26-.15.46-.35.46-.22,0-.34-.23-.34-.65,0-.32-.01-.37-.12-.37-.07,0-.17-.06-.23-.15-.06-.08-.09-.1-.07-.04s.05.39.08.74c.05.72.01.84-.29.84-.14,0-.23-.07-.44-.32-.14-.18-.25-.35-.25-.38,0-.03-.09,0-.21.05-.2.1-.23.09-.45-.02-.46-.23-.61-.78-.84-3.01-.08-.76-.19-1.45-.32-1.94-.11-.42-.26-1.13-.34-1.59l-.15-.83-.04.65c-.03.42-.16,1.19-.39,2.24-.19.88-.35,1.61-.35,1.62,0,.02-.07.08-.16.13-.24.16-.42,0-.64-.56-.15-.39-.39-.72-.45-.65-.01,0,.1.38.24.83.15.44.25.82.23.84-.1.1-.23-.12-.53-.88-.27-.69-.32-.86-.25-.91s.05-.22-.13-.94l-.22-.89-.12.2c-.23.37-.51.24-.74-.34l-.13-.32v.58c0,.61-.05.71-.42.95-.28.19-.4.03-.79-1.08-.19-.55-.36-.99-.38-.99s-.08.24-.15.53c-.06.29-.19.8-.29,1.12-.09.33-.2.81-.22,1.07-.05.58-.27,1.66-.39,1.95-.1.24-.21.31-.45.25-.32-.08-.36-.32-.6-3.84-.08-1.16-.17-2.11-.2-2.11s-.05.08-.05.18-.28,1.98-.39,2.46c-.04.17-.11.4-.15.51-.04.1-.11.56-.15,1.02-.1,1.18-.23,1.74-.43,1.93-.09.08-.21.13-.25.11-.05-.02-.13-.05-.16-.07-.06-.02-.15.18-.28.65-.27.9-.64,1.78-.78,1.86-.16.09-.37.01-.45-.16-.05-.12,0-.35.3-1.21l.37-1.06-.23-.71c-.13-.39-.28-.9-.35-1.12l-.11-.41-.04.73c-.06.95-.15,1.53-.28,1.67-.2.22-.49.12-.71-.24-.14-.22-.15-.23-.23-.1-.05.08-.16.13-.24.13-.16,0-.41-.22-.41-.36,0-.18-.13-.06-.29.25-.59,1.16-1.43,2.15-1.84,2.15-.31,0-.39-.16-.39-.72,0-.29.04-.71.09-.96.11-.53.11-.52.02-.43-.17.17-.49.04-.49-.2,0-.06-.44.74-.97,1.8-.53,1.06-1.03,1.99-1.1,2.07-.17.19-.35.2-.53.02-.13-.13-.13-.18-.1-.62s.61-3.18,1.16-5.47l.21-.92v-2.03s-.03-2.03-.03-2.03l-.39.89c-.3.69-.43,1.08-.56,1.72-.19.94-.46,2.06-.73,2.99-.09.35-.22.8-.28,1-.11.39-.25.5-.48.37-.16-.08-.17-.4-.03-.86.11-.35.4-1.77.4-1.93,0-.06-.39.48-.85,1.18-.88,1.33-1.36,1.89-1.83,2.11-.37.18-.58.17-.8-.04-.21-.22-.29-.69-.22-1.27.06-.53.37-1.82.66-2.75.41-1.33.95-3.67,1.1-4.77l.04-.29-.12.19c-.08.11-.2.61-.32,1.23-.21,1.14-.67,3.03-.92,3.8-.18.55-.39.81-.62.74-.08-.02-.18-.08-.21-.14-.17-.22-.07-1.36.24-2.68.06-.29.11-.55.09-.56-.01-.01-.27.29-.56.66-.52.68-.54.71-.73,1.42-.23.86-.66,2.14-.84,2.5-.26.51-.61.69-.83.44-.14-.16-.18-.48-.12-1.01l.05-.46-1.34,1.33c-.74.73-1.41,1.37-1.5,1.44-.15.1-.18.1-.32,0-.25-.17-.2-.39.29-1.37.42-.84.8-1.46,2.21-3.53.38-.55.62-.98.64-1.11.02-.12.03-.23.03-.23,0,0-.25.25-.54.57-.9.96-2.57,2.57-2.89,2.77-.35.22-.6.24-.78.06-.21-.21-.16-.56.15-1.16.44-.84,1.81-3.11,2.46-4.09.33-.49.62-.93.65-.99.03-.05-.15.1-.39.33-.67.64-1.66,1.52-2.38,2.1-.61.49-.66.55-.94,1.1-.44.84-.81,1.12-1.13.83-.11-.1-.14-.09-.44.13-.32.24-.85.48-1.07.48-.06,0-.19-.06-.28-.13-.42-.33-.11-1.02,1.26-2.89.28-.39.54-.74.56-.78.03-.04.13-.43.22-.85l.18-.76-.26.15c-.25.15-.26.17-.34.65-.11.61-.14.68-.34.71-.22.03-.33-.13-.31-.48,0-.16-.01-.27-.04-.26-.44.22-.73.33-.94.36-.22.03-.28,0-.35-.1-.06-.09-.11-.11-.15-.08-.04.03-.14.07-.21.08s-.37.16-.66.33l-.52.31-.14.73c-.16.86-.27,1.09-.47,1.09-.08,0-.18-.03-.22-.08-.08-.08-.09-.56-.02-1.01l.04-.29-.4.15c-.84.31-1.35.09-1.35-.58,0-.17-.02-.21-.09-.18-.06.02-.16-.02-.22-.08-.2-.18-.16-.55.16-1.79.16-.62.27-1.13.26-1.15-.02-.01-.13.04-.25.11-.18.13-.23.2-.26.44-.05.38-.22.55-.45.45-.09-.04-.16-.1-.16-.13,0-.03-.25.2-.55.51-.85.87-1.36,1.14-1.54.81-.07-.13.04-.45.19-.54.1-.06.08-.15-.06-.19-.16-.05-.28-.37-.23-.58.06-.22.25-.51,1.18-1.74l.74-.99.04-.78c.02-.43.02-.78,0-.76-.29.16-.56.25-.68.22-.12-.02-.19.06-.43.46-.33.57-.77,1.09-.92,1.09s-.33-.19-.33-.34.09-.33.19-.58c.11-.24.19-.45.19-.46,0-.01-.08.02-.19.08-.22.11-.51.13-.62.02-.2-.2-.09-.38.93-1.41.87-.88,1.04-1.08,1.21-1.46.11-.24.18-.44.17-.46s-.18.06-.37.16-.43.2-.54.23c-.12.03-.27.13-.37.26-.18.24-.27.27-.3.12-.01-.07-.24.08-.76.5-.41.33-.94.69-1.17.81-.23.12-.75.48-1.15.81-.4.33-.86.68-1.01.78-.44.28-.95.22-.95-.11,0-.22.08-.36.57-.95.33-.4,1.13-1.44,1.79-2.32.09-.13.01-.07-.59.43-.48.39-.94.64-1.17.65-.2,0-.4-.18-.46-.39l-.05-.2-.49.57c-.27.31-.53.59-.58.62-.11.06-.34-.06-.34-.18,0-.07-.07-.04-.25.1-.27.22-.47.22-.54,0-.03-.1.13-.36.68-1.09.84-1.12,1.96-2.36,3.7-4.11,1.36-1.36,1.73-1.79,1.99-2.24.41-.71-.18-.21-1.76,1.49-.73.78-1.7,1.81-2.15,2.28-.45.47-1.09,1.14-1.4,1.5-.65.71-.95.93-1.12.79-.22-.18-.12-.39.76-1.6,1.03-1.4,1.32-1.75,2.38-2.83.67-.68.8-.85.73-.9-.07-.06-.18,0-.56.31-.27.21-.5.38-.53.38-.03,0-.61.57-1.28,1.26-1.26,1.28-1.71,1.66-1.98,1.66-.17,0-.3-.11-.3-.24,0-.13.56-.69,1.57-1.59.79-.71.88-.81.75-.83-.24-.03-1.04.6-2.38,1.87-.64.61-1.47,1.33-1.83,1.6s-.94.71-1.29.97c-1.17.88-1.38,1.02-1.56,1-.14-.02-.16-.05-.16-.22s.12-.32.95-1.11c.86-.83.94-.93.92-1.11,0-.14.03-.26.14-.39.08-.1.17-.26.2-.36.04-.16.55-.62.9-.8.08-.04.44-.34.82-.65.37-.32.9-.74,1.18-.94.52-.36,1.18-.98,1.54-1.46.3-.38,3.52-3.4,3.73-3.49.09-.04.41-.29.71-.57.56-.51,2.46-2.12,4.09-3.44.53-.43.96-.8.96-.82s-.12.06-.27.18c-.15.12-1.34,1.04-2.64,2.03-3.82,2.92-4.18,3.2-4.69,3.67-.27.25-.52.45-.55.45-.16,0-.02-.27.39-.73.85-.95,2.36-2.54,2.44-2.56.2-.05.03.2-.75,1.03-.46.49-.91.98-1,1.08-.19.22.42-.23,3.32-2.43,4.61-3.5,7.12-5.54,8.15-6.58.9-.91,2.52-2.31,3.3-2.84.71-.48,2.89-2.71,2.79-2.86-.19-.3.05-.65.31-.46.13.09.15.09.2-.06.07-.19.32-.23.44-.07.06.08.06.13,0,.3-.05.11-.09.29-.09.37,0,.14.03.16.2.16.11,0,.22-.04.24-.09.01-.04.06-.08.09-.08.13,0,.06.22-.18.5-.28.34-.3.25.2,1.13.18.32.29.46.37.46.22,0,.5.2.59.41.05.12.09.37.09.57,0,.39,0,.41.98,1.43.57.6.78.9,1.52,2.15.27.47.58.95.69,1.07.36.4,2.79,1.42,4.37,1.84,1.23.32,3.89.79,4.49.79.83,0,.95-.03.99-.27.02-.17-.02-.24-.28-.5-.16-.17-.39-.43-.5-.59-.23-.34-.74-1.46-.8-1.75-.03-.14-.13-.29-.27-.42-.34-.3-.4-.5-.36-1.18.03-.5.09-.76.42-1.73.64-1.91.64-1.91.68-3.89l.03-1.73-.2-.62c-.11-.34-.36-.99-.55-1.44-.43-1.02-.45-1.37-.11-1.28.12.03.14.02.11-.08-.02-.07-.08-.13-.15-.15-.06-.01-.25-.19-.44-.39-.32-.37-.51-.81-.51-1.18,0-.3.23-.41.45-.21.08.07.02-.1-.16-.5-.43-.92-.6-1.25-1-1.91-.21-.34-.37-.67-.37-.74,0-.16.18-.19.23-.04.05.12.15.12.15,0s.23-.24.37-.19c.06.02.2.15.28.29s.18.25.18.25c.01,0-.02-.17-.07-.37-.06-.21-.08-.43-.05-.5.04-.11.08-.09.32.18.21.24.29.29.4.26.08-.02.14-.08.14-.16,0-.15.33-.5.47-.5.06,0,.15-.03.21-.07.25-.15,1.15.31,1.42.72.06.09.28.51.51.94l.41.79.4.15c.51.19,1.15.54,2.07,1.12.91.58,1.02.64,1.48.76.33.09.4.09.68,0,.41-.13.72-.04,1.14.36.26.24.41.32.75.41.25.07.62.24.92.43.49.31,1.06.53,1.89.72.5.11.72.24,1.07.62.3.32.38.48.25.53-.07.03,0,.14.25.43.19.21.35.41.35.43s.17.14.38.25c.66.36,1.03.9,1.25,1.83l.1.44.18-.43c.23-.54.47-1.45.52-1.98.02-.23,0-1.03-.03-1.78-.08-1.53-.15-1.98-.6-3.44-.26-.86-.4-1.58-.51-2.66-.03-.23-.15-.69-.27-1.02-.12-.33-.34-.96-.49-1.4-.4-1.18-.82-1.98-1.45-2.78-.37-.46-.59-.64-.69-.53-.05.05-.03.07.07.07.08,0,.14.03.14.06s-.49.08-.52-.03c-.02-.04-.13-.1-.23-.13-.13-.02-.21-.08-.23-.16-.02-.07-.15-.21-.28-.32-.18-.14-.25-.24-.23-.34.03-.24.34-.21.81.07.57.35.71.37.98.17.25-.19.28-.28.09-.32-.14-.04-.13-.21.04-.55l.09-.17h-.31c-.34,0-.42.04-.32.17.04.04.05.11.03.15-.06.11-.2-.03-.25-.25-.03-.17,0-.22.27-.47.16-.16.53-.46.8-.68.28-.22.69-.56.92-.76,1.56-1.38,4.6-3.69,6.9-5.26,1-.68,1.64-1.18,2.89-2.28,2.13-1.86,3.09-2.62,4.66-3.76,1.6-1.14,2.87-1.96,3.75-2.42.58-.31.76-.44,1.45-1.12.88-.86,1.33-1.14,1.9-1.21.42-.05.84.05.97.24.11.16.13.44.03.63-.04.07-.04.12-.01.1.39-.18.64-.35.67-.43.03-.11,1.62-1.36,2.09-1.63.16-.1.36-.14.53-.13h0ZM42.44,207.44c.11,0,.22.02.29.1.06.05.1.15.1.22s.04.15.08.17c.05.03.13.13.19.22.09.13.09.2.04.38-.08.24-.35.57-.48.57-.04,0-.08.04-.08.1s-.11.17-.25.26c-.21.14-.27.15-.39.09-.13-.07-.14-.11-.11-.69.03-.65.21-1.22.42-1.35.06-.03.12-.05.19-.06h0ZM56.37,207.97c-.14.41-.18.88-.25,2.76l-.04,1.11.32.27.32.27.14-.59c.26-1.09.18-2.43-.21-3.73l-.15-.47-.13.37ZM55.82,209.04s-.04.03-.06.07c-.02.05-.38.39-.8.74l-.76.65.15.16c.15.16,1.33.92,1.36.88.03-.03.15-2.46.12-2.49,0,0,0,0,0,0h0ZM68.35,211.73c.37.03.73.08.92.15.45.17.93.44,1.74,1.02.33.24.9.59,1.27.79,1.36.74,1.98,1.47,1.56,1.87-.08.07-.18.13-.22.13-.13,0-.09.1.06.2.13.09.18.08.68-.27.3-.2.68-.52.86-.71.32-.34,1.54-1.8,1.75-2.11.12-.18.44-.23.53-.09.2.32.28,4.27.11,5.32-.18,1.07-.54,2.41-.68,2.49-.13.07-.49.02-.49-.07s-.19-.26-.42-.51c-.23-.26-.69-.81-1.02-1.21l-.6-.75-.17.12c-.09.06-.62.57-1.17,1.12-1.26,1.25-1.61,1.53-2.71,2.07-.83.41-.88.44-1,.71-.16.37-.46.67-.84.85-.27.13-.41.15-1.04.15h-.71l.04.24c.02.13.06.62.08,1.08.05.93.02,1.04-.3,1.04-.12,0-.21-.05-.27-.15-.08-.11-.35-1.93-.35-2.29,0-.04-.27-.17-.61-.29-.88-.31-1.54-.65-2.84-1.52-1.03-.69-1.26-.88-2.26-1.86-1.21-1.19-1.64-1.75-1.88-2.45-.11-.35-.13-.52-.11-1.18.03-.87.14-1.23.41-1.29.27-.07.75.51.58.71-.1.13-.22.11-.33-.04-.08-.11-.09-.12-.13-.03-.05.13-.05,1.16,0,1.35.04.13.06.13.25-.13.11-.15.27-.46.34-.68.28-.84.95-1.82,1.55-2.27.46-.34,1.57-.89,2.31-1.13.51-.17.61-.18,1.75-.19,1.04-.01,1.7-.06,2.42-.18.2-.03.58-.03.95,0h0ZM66.94,212.78c-.08,0-.38.07-.68.16-.29.09-.54.17-.56.18-.02.01-.03.18-.04.36,0,.18-.05.57-.09.85-.17,1.13.07,3.55.67,6.71l.16.87.23.04c.51.08,1.11.04,1.62-.12l.51-.15.21-.46c.17-.38.32-.57.82-1.07.34-.33.88-.95,1.19-1.38.34-.45.88-1.06,1.31-1.47l.72-.69-.49-.41c-.27-.22-1.07-.91-1.78-1.53-.71-.62-1.38-1.16-1.49-1.22-.25-.13-2.13-.68-2.31-.67h0ZM64.98,212.91c-.12,0-.35.07-.75.19-.95.29-1.74.61-2.06.85-.16.12-.75.69-1.31,1.26l-1.03,1.04v.36c0,.2.01.36.03.36s.13-.17.26-.36c.56-.85,1.02-1.21,2.68-2.15,1.16-.65,2.15-1.26,2.22-1.39.07-.11.08-.16-.04-.16h0ZM64.9,213.54c-.06.01-.21.1-.46.28-.23.15-.91.55-1.52.89-1.12.63-1.79,1.08-2.09,1.41-.09.1-.36.46-.59.81l-.42.62.4.27c.22.15.64.48.93.74,1.84,1.61,2.15,1.85,2.91,2.21.3.14.72.37.95.51.23.14.42.25.42.25,0,0,.04-.22.08-.48.08-.56-.02-1.51-.3-3.09-.11-.56-.22-1.23-.26-1.49-.07-.5-.1-2.75-.03-2.86.03-.04.02-.06-.01-.05h0ZM76.27,214.7c-.64.78-.89,1.01-1.65,1.55l-.27.19.27.23.28.23.6-.58c.37-.36.68-.73.81-.95.12-.22.24-.36.28-.34.04.01.11,0,.15-.04s.1-.04.15-.02c.06.04.07.42.04,1.65-.03,1.46-.02,1.54.05,1.05.08-.56.1-2.54.03-3.36l-.04-.46-.71.85ZM99.5,215.1l-.98.74.35-.04c.3-.03.45-.1,1.01-.46.36-.24.66-.43.66-.44,0,0,0-.13-.03-.27l-.04-.26-.98.73ZM62.91,215.26s.11.03.25.08c.12.05.28.1.35.1.06,0,.19.08.28.17.15.15.16.22.13.46-.08.54-.22.87-.51,1.14-.26.24-.31.26-.63.26-.45,0-.61-.17-.61-.68,0-.29.04-.4.22-.68.12-.18.22-.41.22-.5s.06-.2.14-.26c.09-.06.12-.09.17-.09h0ZM34.61,215.47c.04.05.08.3.09.55v.46s.52.18.52.18c.28.1.63.18.79.18.68,0,1.76.44,2.35.93,1.04.89,1.59,1.36,2.04,1.77.28.25.82.71,1.2,1.02.39.31.85.72,1.03.91l.34.34.39-.44c.21-.24.59-.63.84-.86.27-.26.54-.59.66-.82.13-.24.23-.37.3-.36.11.03.16-.06.34-.55.14-.38.31-.61.46-.61.05,0,.15.06.23.12.14.11.15.17.14.56-.02.49-.2,1.42-.59,2.92-.14.55-.3,1.33-.34,1.74-.13,1.09-.18,1.3-.29,1.32-.05,0-.13-.04-.16-.11-.09-.2-.59-.71-.69-.71-.15,0-.47-.18-.85-.48-.19-.15-.37-.28-.4-.28-.09,0-.77.55-1.3,1.03-.6.56-.92.79-1.78,1.26-.86.47-1.35.67-2.06.86-.93.25-1.62.35-2.27.35h-.59v.41c0,.45-.09.61-.35.61-.18,0-.28-.17-.28-.43,0-.1-.02-.28-.04-.39-.04-.18-.06-.2-.33-.2-.76,0-1.93-.2-2.68-.45-1.15-.38-1.68-.67-2.47-1.33-.93-.78-2.03-1.48-2.84-1.81-.36-.15-.73-.32-.81-.37-.2-.13-.27-.44-.14-.65.13-.19,1.99-1.18,2.15-1.14.1.03.25-.14.74-.81,1.02-1.39,1.64-2.1,2.12-2.41.23-.16.88-.5,1.43-.77,1.06-.51,1.43-.61,2.26-.62.2,0,.36-.02.36-.05,0-.2.14-.81.2-.88.05-.06.1-.09.15-.09s.1.03.15.09ZM76.66,215.4s-.11.15-.23.34c-.11.18-.46.57-.77.85l-.55.51.3.37c.16.2.42.6.58.87.55.99.49,1,.54-.18.03-.57.06-1.43.09-1.9.03-.47.05-.86.04-.87h0ZM72.96,217.56c-.66.59-.93.9-1.65,1.86-.27.35-.69.83-.95,1.05-.25.24-.51.51-.57.62l-.11.19.68-.32c.38-.17.84-.44,1.03-.58.32-.24,2.72-2.55,2.77-2.66.01-.03-.11-.2-.28-.37l-.31-.32-.6.54ZM32.98,217.04c-.05,0-.13.01-.23.04-.22.06-2.18,1.03-2.46,1.23-.3.2-1.13,1.22-2.26,2.74-.4.54-.81,1.04-.92,1.11-.09.06-.2.15-.23.2-.08.13-.2.1-.36-.08-.18-.19-.25-.2-.45-.04l-.15.11.37.14c.2.07.48.2.63.27.49.25,1.84,1.18,2.38,1.65.99.84,2.43,1.41,3.92,1.55l.41.04-.25-.16c-.14-.09-.57-.32-.95-.51-.71-.35-1.37-.86-2.89-2.2-.64-.57-1.15-.93-1.37-.96-.09,0-.16-.06-.18-.12-.03-.13.85-1.45,1.21-1.82.39-.41.89-.75,2.12-1.44,1.55-.87,1.62-.92,1.66-1.25.02-.15.06-.33.08-.39.02-.07,0-.1-.09-.1h0ZM34.88,217.24s-.08,0-.11.01c-.06.03-.08.31-.08,1.09,0,.95.04,1.89.25,5.95.03.63.06,1.28.06,1.45v.3l.71-.04c1.3-.07,2.34-.32,3.35-.83.83-.41,1.22-.72,2.32-1.84l.85-.86-.46-.44c-.32-.31-.66-.54-1.08-.77-.81-.43-1.21-.78-1.68-1.52-.21-.33-.52-.72-.68-.86-.39-.34-1.54-.97-2.44-1.32-.59-.23-.86-.32-1-.33h0ZM33.64,217.75c-.24.13-.25.16-.27.48-.03.42.07,1.21.22,1.85l.11.48.04-.91c.02-.5.07-1.15.11-1.46s.06-.56.05-.57c0,0,0,0,0,0-.03,0-.14.06-.26.12ZM59.87,217.94c-.08,0,.14.25.7.81.51.5,1.12,1.05,1.36,1.23.76.57,2.34,1.53,2.86,1.75.64.27,1.03.39,1.03.32,0-.04-.04-.06-.08-.06s-.3-.13-.58-.29-.83-.46-1.23-.67c-.76-.39-1.11-.64-2.39-1.76-.98-.85-1.57-1.31-1.67-1.32h0ZM32.85,218.24s-.45.25-.95.54c-1.66.96-1.84,1.07-2.2,1.36-.23.19-.52.53-.85,1.01l-.49.72.37.25c.2.13.61.45.9.71,1.68,1.47,2.2,1.87,2.86,2.19.36.17.84.43,1.07.57l.42.26.03-.17c.01-.1.05-.34.07-.54.03-.3.03-.36-.06-.36-.2,0-.28-.27-.32-1.04-.05-1-.12-1.44-.46-2.87-.22-.93-.3-1.37-.32-1.93-.01-.39-.04-.71-.07-.71h0ZM88.72,219.3c-1.54,1.09-2.62,1.89-3.65,2.75-.93.78-1.02.86-.77.77.3-.11.44-.21,1.2-.83.42-.34,1.22-.95,1.77-1.36,1.2-.89,2.74-2.14,2.61-2.14-.01,0-.53.36-1.16.81ZM31.71,219.23s.05,0,.07.02c.06.04.12.11.12.17s.19.41.28.41c.15,0,.3.32.27.55-.05.32-.06.33-.86.86-.2.13-.53.15-.63.03-.04-.04-.1-.24-.14-.43-.07-.34-.07-.36.2-.83.28-.51.51-.77.69-.76h0ZM45.07,220.93c-.03.05-.37.45-.74.89-.38.44-.68.82-.68.84s.09.15.2.29c.22.29.51.46.7.43.14-.02.2-.24.52-1.78.09-.43.11-.71.05-.71-.01,0-.03.01-.05.05ZM50.93,222.56s.08.03.16.09c.11.08.15.17.16.43l.02.33.32.02c.59.03,1.97.39,2.53.65.26.13.8.55,1.71,1.33.73.64,1.68,1.45,2.12,1.81.44.36.95.82,1.16,1.02l.36.37.23-.29c.13-.15.47-.52.78-.82.31-.3.61-.66.69-.8.16-.34.86-1.26,1.04-1.39.18-.13.54-.12.69.01.16.14.15.95-.01,2.89-.11,1.18-.13,1.72-.09,2.63.04,1.04.03,1.16-.06,1.26-.18.18-.37.13-.69-.2-.18-.19-.34-.3-.4-.28-.07.01-.15-.04-.21-.16-.06-.1-.32-.34-.58-.54-.76-.56-.69-.54-.94-.28-.7.74-1.66,1.57-2.05,1.77-.96.51-4.04,1.65-5.03,1.86-.75.17-2.5.25-3.22.17-.73-.09-1.05-.2-2.3-.81-.81-.4-1.04-.54-1.61-1.04-.71-.62-.99-.94-1.24-1.52-.15-.33-.18-.47-.21-1.35-.03-.57-.08-1.04-.11-1.12-.11-.21-.3-.29-.45-.21-.17.09-.16.25.04.54.18.27.18.44-.02.46-.1.01-.2-.06-.36-.29-.25-.34-.32-.58-.23-.81.09-.25,1.1-1.08,2.41-2,1.38-.98,1.84-1.25,3.4-2.06.67-.34,1.16-.64,1.26-.75.11-.13.21-.19.34-.19.18,0,.18-.01.18-.32,0-.23.03-.33.11-.37.07-.04.11-.07.15-.06h0ZM107.58,222.65c-.19.04-.77.19-1.3.32-.52.13-1.22.29-1.55.35l-.6.11h.4c.28.01.42.04.51.13.1.11.13.11.66-.03.33-.09.66-.13.79-.11.2.03.37-.03,1.12-.41.87-.43.88-.44.6-.44-.16,0-.44.03-.63.08ZM51.32,224.27c.02.14.06.95.1,1.8.16,3.97.18,4.28.39,5.41.16.85.27,1.14.47,1.23.11.05.15.13.15.24,0,.17.01.17.27.13.74-.1,2.87-1.02,3.65-1.56.23-.16.87-.74,1.43-1.3l1.02-1-.32-.33c-.18-.18-.49-.5-.68-.71-.23-.25-.53-.48-.88-.68-.55-.31-.79-.52-1.12-1-.34-.51-.76-.83-2.05-1.58-1.22-.71-1.66-.9-2.08-.9h-.38l.04.25ZM48.32,225.15c-.94.5-3.08,1.94-3.73,2.5l-.21.18h.23c.12,0,.25.04.29.08.04.04.11,0,.21-.15.66-.95,1.02-1.25,2.8-2.24,1.11-.62,1.59-.92,1.5-.92-.02,0-.51.25-1.08.56ZM49.49,224.92c-.28.18-.99.59-1.58.92-1.72.97-2,1.2-2.69,2.26l-.37.58.39.27c.22.15.63.47.9.71,1.64,1.43,2.18,1.84,2.83,2.16.36.18.84.44,1.07.58.35.22.42.24.43.15,0-.06.03-.28.05-.49s.03-.6,0-.86c-.13-1.18-.2-2.26-.25-4-.04-1.57-.07-1.93-.16-2.24l-.12-.36-.51.32ZM107.2,226.14c-.12.04-.33.14-.47.22l-.25.14.51-.03c.28-.02.84-.06,1.24-.08.73-.04.74-.04.73-.2-.01-.15-.02-.15-.78-.15-.45,0-.85.04-.98.09ZM62.15,226.32c-.15.21-.16.23-.23,2.37-.06,1.75-.05,2.18.01,2.24.07.07.09-.1.13-.92.03-.55.08-1.4.13-1.89.13-1.27.18-2,.15-2-.02,0-.11.1-.19.2ZM48.82,226.7c.25.09.32.22.32.58,0,.51-.58,1.19-1.02,1.19-.26,0-.37-.2-.37-.69,0-.48.11-.76.37-.98.14-.12.25-.17.4-.17.09,0,.18.02.3.06ZM109.07,226.77c-.59,0-1.17.02-1.28.03-.2.03-.2.03-.13.21.05.13.05.23,0,.36-.04.09-.07.18-.06.18.01,0,.53,0,1.16-.03,1.03-.04,2.19-.2,2.32-.32.08-.06-.2-.23-.59-.34-.23-.07-.51-.09-1.13-.09-.09,0-.18,0-.29,0ZM81.54,227.55c.2.23.52.66.7.96.18.31.33.53.32.5,0-.03-.04-.33-.08-.66l-.08-.6-.33-.2c-.18-.11-.46-.25-.61-.3l-.28-.1.36.41ZM61.37,227.87c-.32,1.06-.4,1.28-.61,1.66-.1.18-.17.36-.15.39.05.08.87.66.88.63.03-.04.16-3.37.14-3.41-.02-.01-.13.31-.26.72ZM60.74,227.66s-.25.23-.52.52c-.27.3-.51.58-.54.63-.03.04.04.19.18.35l.23.27.14-.24c.15-.24.56-1.48.51-1.53,0,0,0,0,0,0h0ZM50.63,228.79c.02.4.07,1.09.11,1.53.1,1.04.1,2.24,0,2.36-.07.08-.03.11.23.19.18.06.32.1.32.1,0,0-.04-.34-.09-.74-.05-.4-.14-1-.2-1.33-.06-.33-.18-1.11-.26-1.72l-.15-1.11.03.73ZM108.72,228.99s-.02,0-.03,0c-.07,0-.37.03-.66.04-.41.03-.68.1-1.15.29-.34.13-.62.26-.62.28s.2.1.43.18l.42.13.79-.41c.79-.41.97-.52.82-.52h0ZM44.96,229.1s-.06.25-.04.71c.03.92.17,1.26.78,1.86.66.65,1.12.97,1.98,1.38,1.28.62,1.59.7,2.62.73.49.02.95,0,1.02-.03.13-.04.13-.07.06-.26-.06-.18-.12-.23-.49-.35-.23-.08-.69-.31-1.02-.51s-.8-.45-1.04-.56c-.6-.27-1.08-.64-2.7-2.07-.59-.52-1.11-.92-1.18-.92h0ZM58.05,230.38c-.53.53-1.16,1.11-1.41,1.3-.84.64-3.31,1.68-3.95,1.68-.23,0-.25.02-.25.15v.15l.43-.1c.91-.21,4.14-1.42,4.76-1.79.16-.1.69-.54,1.16-.99l.86-.82-.15-.15c-.08-.09-.22-.22-.32-.28l-.17-.13-.96.97ZM83.84,229.87s0,.04.02.11c.13.43.35,1.42.44,2.01.06.38.16.8.23.92l.11.22v-.86c0-.98-.02-1.07-.45-1.86-.21-.37-.32-.55-.35-.55h0ZM112.04,231.84s-.39.08-.79.18c-.65.15-.76.2-1.11.47-.44.34-.66.38-.83.15l-.11-.16-.98.22c-1.54.34-2.45.49-3.05.49-.39,0-.56.02-.56.07,0,.22.13.23,2.22.23h2.07s1.31-.66,1.31-.66c1.33-.67,1.93-.99,1.81-.99h0ZM35.69,233.37c.07,0,.15.04.21.11s.13.32.18.72l.06.6.36.11c.2.06.49.18.65.26.21.11.4.15.64.15.4,0,1.31.25,1.84.51.25.12.83.58,1.74,1.37.75.65,1.64,1.41,1.99,1.7.35.29.73.61.85.72l.22.2.66-.58c.36-.32.85-.81,1.07-1.09.33-.39.52-.55.89-.76.42-.24.48-.29.51-.48.04-.25.23-.34.38-.16.04.05.14.1.21.1.24,0,.42.18.4.39-.02.2-.08.26-.38.37l-.18.06v.68c0,.38-.07,1.32-.16,2.08s-.18,1.96-.2,2.64c-.04,1.25-.08,1.45-.33,1.73-.11.13-.35.15-.44.03-.03-.04-.32-.59-.64-1.21-.59-1.17-.77-1.44-1.26-1.96-.49-.52-.4-.56-1.51.54-.54.53-1.18,1.11-1.41,1.27-.55.39-2.26,1.19-3.09,1.45-.37.11-.95.34-1.3.51l-.64.31.03.53c.04.63-.03.81-.3.81-.25,0-.3-.12-.35-.76l-.04-.51h-.28c-.51,0-1-.18-2.43-.88-2-.99-3.45-1.97-5.37-3.65-.1-.08-.18-.18-.18-.22,0-.15.31-.38.64-.48.31-.1.36-.14.59-.5.3-.48,1.18-1.4,2.51-2.63.55-.51,1.26-1.25,1.59-1.63.66-.8.93-.99,1.48-1.04l.37-.04.04-.57c.03-.41.07-.6.15-.69.07-.08.14-.11.21-.11h0ZM106.75,233.62c-1.04,0-1.88.02-1.88.04,0,.14.16.24.71.46l.61.24.68-.09c.6-.07.75-.11,1.22-.37l.54-.28h-1.88ZM35.07,235.46c-.13,0-.32.05-.43.11-.11.06-.39.33-.61.6-.23.27-.69.75-1.04,1.07s-.55.55-.46.51c.47-.25,1.81-1.02,2.29-1.32.47-.29.56-.38.52-.48-.02-.08-.04-.21-.04-.31,0-.16-.02-.17-.24-.17h0ZM36.79,235.82c-.08,0-.21.03-.32.08-.24.09-.26.11-.23.29.01.11.08,1.08.15,2.17.08,1.08.21,2.78.32,3.78.11,1,.21,1.98.23,2.19.04.41.09.48.36.48.2,0,1.07-.43,1.87-.92.3-.18.78-.47,1.07-.64.29-.17.77-.53,1.07-.8s.88-.72,1.29-1c1.02-.69,1.16-.82,1.09-.95-.04-.06-.39-.38-.79-.7-.4-.33-.99-.83-1.31-1.11-.75-.66-1.02-.85-2.22-1.56-.9-.53-2.2-1.21-2.5-1.3-.02,0-.04,0-.07,0h0ZM85.13,236.14c.16.53.35,1.48.4,2.08.04.48.05.35.06-.87v-1.44s-.18,0-.18,0c-.1,0-.23-.02-.28-.04-.02,0-.03,0-.04-.01-.05,0-.03.06.03.28ZM35.37,236.42s-.21.13-.44.28c-.23.15-.94.57-1.59.93-1.54.86-1.84,1.11-2.39,1.88-.53.76-.62.92-.52.95.13.04.81.57,1.31,1.02,1.4,1.23,2.06,1.73,2.69,2.05.35.18.84.44,1.07.58.23.14.44.24.47.22.07-.08.05-1.46-.03-2.33-.04-.47-.11-1.49-.13-2.26-.04-1.08-.09-1.62-.23-2.37-.09-.53-.19-.97-.21-.96h0ZM111.47,237.11c-.5.11-.51.11-.3.18.11.04.2.12.2.17s-.17.29-.29.29c-.05,0-.15.06-.21.12-.12.12-.11.12.23.18.43.08.52.04.77-.32.13-.18.19-.34.19-.51s-.02-.24-.04-.24c-.03,0-.28.06-.56.11ZM33.88,238.18c.19,0,.37.04.47.15.28.31.39.83.27,1.27-.13.46-.61.88-1.02.88-.5,0-.68-.27-.68-1.02,0-.51.13-.84.44-1.11.14-.11.33-.17.52-.17h0ZM108.33,238.29c-.16,0-.33.05-.62.17l-.47.2.61.08c.57.08.94.2,1.03.34.02.03.2.06.38.06.26,0,.45-.05.76-.2.23-.11.41-.22.41-.25,0-.04-1.49-.34-1.99-.4-.04,0-.07,0-.11,0h0ZM47.16,238.35s-.08.06-.13.16c-.06.12-.4.51-.75.86-.83.81-1.15,1.21-1.07,1.32.44.57,1.38,1.72,1.56,1.88l.23.22v-.24c0-.13.04-1.11.1-2.17.05-1.07.08-1.98.07-2.01,0,0,0-.01-.01-.01h0ZM30.57,239.53s-.12.11-.3.34c-.15.18-.37.49-.51.68s-.33.41-.44.48c-.11.07-.2.14-.2.16,0,.05.87.78,1.23,1.04,1.03.74,2.38,1.54,3.57,2.14,1.31.65,1.79.83,2.24.83.19,0,.21-.01.18-.16-.02-.11-.1-.19-.25-.26-.13-.05-.4-.2-.61-.34-.21-.13-.73-.42-1.14-.63-.76-.4-.85-.46-2.89-2.22-.68-.58-1.16-.91-1.35-.91-.11,0-.15-.04-.15-.12,0-.07.03-.15.06-.17.05-.03.3-.4.53-.78.03-.05.04-.07.03-.08h0ZM101.36,240.8c-.2,0-.24.03-.26.09-.03.08.01.16.16.29l.21.18.54-.15c.3-.09.63-.17.73-.2.33-.07.03-.14-.8-.18-.27-.01-.46-.02-.58-.02h0ZM78.09,241.12s-.23.09-.45.2c-.37.18-.43.19-.68.13-.33-.08-.71.03-1.24.36l-.34.22-.04.44c-.04.46-.16.83-.33,1.02-.09.1-.09.13,0,.23.05.06.13.18.16.29.04.1.11.17.18.17.16,0,.61.33.68.5.03.08.11.16.16.17.06.02.15.09.21.16.13.15.39.16.56.03.07-.05.2-.1.29-.1s.22.04.29.1c.16.12.21.12.21-.02s.18-.38.38-.43c.15-.03.19-.08.19-.18,0-.08.06-.22.13-.31s.13-.18.13-.22c0-.03.06-.13.13-.22.12-.15.13-.18.03-.32-.05-.08-.09-.27-.08-.41,0-.17-.04-.34-.13-.5-.08-.13-.14-.27-.14-.33,0-.15-.26-.97-.3-.97h0ZM43.78,241.44s-.34.21-.72.47c-.38.25-.9.66-1.17.9-.58.53-.94.79-1.69,1.22-.32.18-.59.34-.59.36,0,.03.54-.21,1.37-.62.39-.19.89-.49,1.11-.67.36-.29,1.76-1.67,1.69-1.66h0ZM84.78,242.4c-.04.15-.19.51-.32.79l-.25.53.13.81c.08.45.14.83.15.84s.09-.06.17-.16c.15-.17.15-.22.2-1.6.03-.79.03-1.44.02-1.45,0,0,0,0,0,0-.02,0-.06.11-.1.24ZM86.18,242.48c-.13.47-.19.83-.23,1.33l-.04.51.32-.3c.28-.27.32-.35.35-.65.03-.29.01-.4-.14-.74l-.18-.4-.07.25ZM104.44,245.16s-.05.02-.08.05c-.04.06-.07.11-.06.12.03.03,1.19.4,1.36.44.16.03,1.71-.36,1.62-.41-.03-.02-.44-.01-.91.02-1.43.08-1.54.08-1.76-.1-.09-.08-.14-.11-.18-.12h0ZM109.48,245.48c0,.35-.22.42-.8.24-.3-.09-.34-.08-.9.08-.32.09-.56.18-.54.21.13.11,1.48.26,2.73.3l1.37.04.53-.18.54-.18-.22-.1c-.37-.15-1.9-.52-2.32-.57l-.4-.04v.19ZM68.96,248.12c-.13,1.2-.14,2.17-.03,2.27.05.04.19.11.32.17.23.1.23.1.17-.03-.04-.08-.07-.6-.07-1.32,0-1.56-.04-2.05-.19-2.05-.09,0-.12.15-.21.97ZM68.76,247.22s-.13.23-.28.71c-.35,1.09-.39,1.66-.13,2.01l.16.22.04-.35c.02-.19.04-.55.04-.79,0-.24.05-.72.11-1.06.08-.49.1-.74.06-.75h0ZM51.41,247.34s-.48.37-1.04.84c-1.01.84-2.99,2.59-3.21,2.84-.18.19,1.63-1.04,2.05-1.4.33-.29,2.25-2.28,2.19-2.28h0ZM107.41,247.67s-.4.06-.82.12c-.43.06-.82.15-.88.18-.19.11.27.2.95.2.63,0,.64,0,.71-.16.09-.18.1-.35.03-.34h0ZM57.02,248.12c-.02.15.01.3.14.52.23.44,1.18,1.49,1.35,1.5.03,0-.08-.19-.23-.43-.15-.24-.38-.63-.51-.88s-.34-.56-.47-.69l-.24-.24-.04.22ZM109.58,249.01l-.17.06.15.12c.08.06.2.12.25.12s.29.1.52.23l.44.22,1.3.04c1.36.04,2.46-.01,2.36-.11-.07-.07-1.83-.37-3.24-.56-.88-.12-1.21-.16-1.38-.16-.1,0-.15.02-.22.04ZM99.98,249.38c-.02.11-.04.31-.04.44,0,.32.04.32.9-.03l.68-.27-.28-.18c-.23-.15-.34-.17-.75-.17h-.47l-.04.2ZM47.88,250.15s-.2.15-.4.32c-.21.17-.71.59-1.11.93-.4.34-1.09.92-1.55,1.28-.45.37-1.43,1.17-2.18,1.78-2.1,1.7-3.99,3.37-3.83,3.37.03,0,.27-.2.54-.44.28-.25.52-.42.55-.39.09.1,1.5-.76,1.67-1.01.19-.28.51-.62.57-.6.03.01.18-.13.35-.31.51-.55,1.98-1.89,2.9-2.66.71-.58,2.57-2.3,2.48-2.28h0ZM48.26,250.45s-.29.18-.73.49c-.38.27-.8.57-.94.68-.35.27-2.43,2.3-3.1,3.03-.51.54-.53.57-.22.34.18-.15.85-.75,1.48-1.34.63-.58,1.63-1.49,2.22-2.01.95-.84,1.35-1.19,1.29-1.19h0ZM105.34,251.05c-.2,0-.29.01-.19.04.11.03.91.17,1.79.32,1.5.25,1.72.26,2.13.15.25-.07-.35-.21-1.45-.34-.83-.1-1.83-.16-2.27-.16h0ZM105.21,251.54c0,.34-.04.32.83.41.21.02.42.04.47.06.06.01.14-.06.2-.17.12-.22.35-.25.62-.1.17.1.46.11.66.04.13-.06-.32-.15-1.93-.41l-.85-.14v.3ZM61.1,252.12c.29.36.89.81,1.26.97.19.08.24.08.34,0,.25-.19.51-.08.55.23q.02.16.9.2c1.06.04,1.32.13,1.48.51.08.19.13.24.23.22.07-.01.57-.1,1.13-.17l1-.15-1.63-.32c-2.12-.43-3.3-.8-5.16-1.65l-.37-.17.28.32ZM95.93,251.98c-.25,0-.25,0-.13.1.27.21,2.3,1.18,2.43,1.16.08-.01.17-.1.22-.22l.08-.2-.64-.24c-1.46-.52-1.72-.6-1.96-.6h0ZM104.65,252.45c-.22,0-.48.09-.97.29l-.71.29.33.08c.33.08.34.08.81-.14.27-.12.59-.27.73-.33.25-.1.25-.11.09-.15-.09-.03-.18-.05-.28-.04h0ZM108.75,256.04l-.38.04.51.08c.28.04,1.12.2,1.88.34,1.37.27,1.54.27,1.6.07.04-.1-.57-.31-1.19-.43-.46-.08-1.29-.13-1.9-.13-.2,0-.39,0-.52.02ZM104.47,256.5c-.21,0-.53.02-1.06.05l-.6.04.66.14c.78.17,1.9.36,1.93.32.01-.01-.12-.14-.3-.29-.23-.19-.29-.25-.64-.26h0ZM103.81,258.15c-.06,0-.05.06.03.22.06.13.16.24.24.25.47.1.89.1,1.38,0,.52-.1.53-.11.42-.22-.09-.1-.28-.13-1.05-.18-.52-.03-.97-.06-1.01-.06h0ZM102.3,260.89c-.06,0-.09.01-.09.04,0,.08,1.38.43,2.43.6l.82.15.63-.14c.35-.08.61-.15.57-.15-.03,0-.23-.04-.44-.07-.21-.03-1.11-.13-1.99-.22-.88-.09-1.71-.18-1.81-.2-.05,0-.09-.01-.12-.01h0ZM100.95,261.5c0,.19.32.57.58.71l.3.15.62-.11c.34-.06.63-.11.63-.12.01-.01-1.59-.53-2.02-.65-.02,0-.05-.01-.06-.01-.03,0-.05,0-.05.03ZM43.19,261.87s-.12.05-.22.18c-.24.32-.38.38-.56.26-.15-.1-.16-.1-.25.04-.22.3-.68,1.04-.8,1.27-.11.23-.08.2.59-.35.39-.33.91-.76,1.15-.95.35-.27.42-.35.32-.37-.06-.01-.15-.04-.2-.08,0,0-.02-.01-.03-.01h0ZM38.37,261.96s-.07,0-.14.03c-.04.02-.52.5-1.05,1.08-.8.85-1.46,1.66-1.95,2.38-.12.17.18-.14,1.28-1.37.6-.67,1.3-1.42,1.54-1.67.29-.3.4-.44.32-.45h0ZM41.17,262.91s-.05.03-.07.06c-.03.03-.16.14-.31.24-.15.1-.56.5-.92.9-.59.65-.68.72-.85.7-.29-.03-.3-.28-.01-.76.12-.2.21-.37.2-.37s-.35.42-.74.93c-1,1.3-1.76,2.45-1.8,2.73l-.04.23.32-.18c.35-.19,1.7-1.19,2.17-1.61.16-.15.6-.72.97-1.26.37-.55.72-1.06.78-1.12.15-.17.34-.48.3-.48h0ZM43.68,263.83s-.05.02-.09.07c-.14.17-.42.23-.61.13-.14-.08-.19-.08-.25-.01-.11.11-1.09,1.86-1.07,1.89.07.06.71-.58.99-.99.3-.44.44-.57.44-.38,0,.04-.03.11-.08.16-.05.05-.05.08,0,.08.09,0,.63-.59.68-.76.04-.11.03-.17,0-.17h0ZM41.16,265.39s-.05.05-.12.14c-.05.07-.54.6-1.09,1.19-.56.58-1.05,1.12-1.1,1.18-.09.11-.09.12.06.04.25-.13.87-.56,1.41-.97.39-.31.49-.41.49-.55,0-.1.06-.3.13-.46.18-.39.25-.58.22-.57h0ZM49.82,266.63c-.23.47-.42.87-.42.88s.13-.03.3-.1c.27-.11.32-.17.47-.52.13-.28.17-.49.17-.76,0-.2-.03-.36-.05-.36s-.24.39-.47.86ZM46.91,267.3s-.16.15-.32.33c-.16.18-.32.39-.35.46-.03.07-.09.5-.15.95-.06.45-.11.93-.14,1.05l-.03.22.26-.25c.14-.14.29-.36.33-.48.04-.13.21-.53.37-.91.17-.37.32-.83.34-1.02.04-.33.04-.34-.07-.2-.06.08-.16.21-.22.29-.08.11-.12.13-.18.07-.06-.06-.05-.12.05-.3.08-.13.13-.23.11-.23h0ZM55.51,267.42s-.26.43-.53.97c-.45.89-.82,1.86-.75,1.94.03.03.26-.24.37-.44.14-.25.93-2.41.91-2.48,0,0,0,0,0,0h0ZM54,267.43s0,0,0,0c-.01,0-.15.08-.3.16-.4.22-.44.27-.53.82-.09.55-.2,1.73-.15,1.68.16-.16,1.07-2.64.98-2.66h0ZM44.34,268.64s-.16.1-.32.23l-.3.23-.04.48c-.03.27-.06.57-.08.67l-.04.19.26-.25c.17-.17.29-.36.35-.55.09-.3.2-1.02.16-1h0ZM52.34,269.1s-.12.1-.24.24c-.11.15-.4.47-.63.72-.42.44-.42.45-.47.89-.03.24-.1.85-.17,1.33-.06.49-.11.9-.1.9.04.04.74-.55.74-.63,0-.04.2-.75.45-1.57.4-1.33.51-1.8.42-1.88,0,0,0,0,0,0h0ZM50.09,270.43s-.09.04-.12.13c-.11.3-.61.48-.8.29-.07-.07-.08,0-.18.83-.04.32-.04.34.08.27.06-.04.33-.29.6-.57.33-.34.49-.56.52-.7.03-.16-.02-.26-.09-.25h0ZM43.66,271.62s-.2.25-.37.55c-.28.5-.69,1.29-.76,1.44-.06.14.4-.22.62-.47.16-.2.28-.43.38-.79.08-.28.15-.56.17-.62.02-.06,0-.11-.03-.11h0ZM46.22,271.71s-.12.06-.24.14c-.12.09-.25.18-.3.21s-.16.37-.26.77c-.16.62-.44,1.56-.56,1.9-.02.06.21-.24.53-.66.54-.73.56-.78.58-1.13.01-.2.08-.56.15-.79s.12-.43.1-.44c0,0,0,0,0,0h0ZM49.36,272.18l-.52.48-.13.76c-.08.41-.13.76-.12.77s.3-.55.66-1.23c.35-.69.64-1.25.63-1.26-.01,0-.25.21-.53.48ZM100.66,272.38s-.01.04.03.13c.1.19,1.18,1.33,1.35,1.44.42.25,2.29.69,2.41.57.02-.02-.21-.22-.52-.46-.3-.24-.76-.6-1.02-.81-.52-.42-1.04-.66-1.62-.74-.21-.03-.45-.08-.53-.1-.05-.02-.09-.03-.1-.02h0ZM55.5,273.03c-.13,0-.32,0-.53.03-.11.01-.21.06-.21.09,0,.18-.73,1.9-.8,1.9-.09,0-.11-.24-.03-.46.03-.08.07-.23.09-.33l.04-.18-.17.21c-.16.18-.2.2-.45.17l-.27-.03-.06.27c-.09.35-.52,1.64-.69,2.07-.13.31-.13.34-.03.25.26-.2,1.11-.97,2.04-1.85l.99-.93.14-.55c.07-.3.13-.57.13-.61,0-.03-.08-.05-.21-.05h0ZM100.34,273.38c-.12.03-.15.07-.15.27,0,.22.01.24.3.34.3.11,1.15.15,1.15.06s-.11-.1-.23-.17-.38-.21-.56-.33c-.18-.12-.33-.21-.35-.21-.01,0-.09.03-.16.04ZM71.52,274.28c-.16.72-.21,2.12-.08,2.25.11.11.15.04.17-.44,0-.24.04-.88.06-1.44.03-.55.04-1,.02-1s-.09.28-.17.62ZM47.31,273.88c-.15.08-.17.14-.27.92-.06.46-.1.85-.09.86s.18-.06.36-.17c.26-.15.32-.22.28-.3-.03-.06-.06-.4-.08-.76l-.04-.64-.16.08ZM59.65,273.85c-.07,0-.1.02-.11.07-.01.04-.06.21-.09.37s-.23.86-.44,1.56c-.2.7-.4,1.46-.44,1.68-.04.23-.09.47-.11.54-.03.1.85-1.09,1.23-1.66.04-.08.22-.64.39-1.26l.3-1.12-.33-.1c-.2-.06-.31-.09-.38-.09h0ZM56.51,273.91s-.33.51-.73,1.13c-.81,1.24-1.3,2.08-1.74,2.96-.16.32-.52,1-.81,1.51-.51.9-.59,1.07-.48,1.07.03,0,.29-.18.59-.41.69-.52,2.08-1.87,2.69-2.61l.47-.57v-1.54c.01-.85.02-1.54.02-1.54h0ZM46.23,273.92c-.05,0-.15.07-.21.16-.8,1.1-1.16,1.75-1.17,2.06,0,.17.01.18.3.18.16,0,.44-.04.62-.1l.33-.11.11-.86c.15-1.12.15-1.3.03-1.32,0,0,0,0-.01,0h0ZM52.61,274.08s-.07,0-.07.02c-.01.02-.04.17-.07.32-.06.37-.27,1.26-.36,1.48-.08.2-.32.29-.46.17-.05-.04-.12-.17-.15-.27l-.05-.2-.13.22c-.14.24-.42,1.85-.39,2.21l.02.2.24-.2c.52-.44,1.28-1.99,1.68-3.47l.12-.45-.22-.03c-.06,0-.12,0-.16,0h0ZM63.93,275.06c0,.78-.07,2.26-.16,3.32l-.04.44.16-.34c.11-.24.16-.45.16-.7,0-.2.1-1.06.21-1.92.16-1.16.2-1.57.15-1.6-.04-.03-.17-.05-.28-.05h-.21v.84ZM95.83,275.26s-.09.01-.14.02c-.08.02-.1.07-.07.2.08.31.15.37.64.67.27.16.69.42.94.57.33.22.46.27.54.23.2-.1.44-.06.59.1.18.17.2.36.07.62l-.09.17.98.32c1.01.34,1.28.36,1.28.13,0-.18-.32-.78-.66-1.23-.28-.37-.38-.44-.95-.73-.63-.32-.64-.32-.75-.2-.06.07-.21.14-.33.17-.27.05-.81-.2-1.46-.71-.34-.26-.45-.33-.58-.33h0ZM67.77,275.4s-.14.08-.27.17l-.25.18.06.44c.08.59.19,1.03.27,1.05.04.01.09-.31.14-.91.04-.51.07-.94.06-.95,0,0,0,0,0,0h0ZM99.14,275.51l-.2.07.38.43c.3.34.47.47.82.64.25.11.45.19.47.18.04-.05-1.12-1.39-1.2-1.38-.04,0-.16.04-.27.07ZM93.55,275.7s-.02.05.03.2c.06.17.26.37.93.88.47.36.86.64.87.61.01-.03-.01-.21-.05-.41-.06-.31-.11-.38-.33-.53-.33-.22-1.16-.68-1.35-.74-.04-.01-.07-.02-.09-.02h0ZM65.7,277.13c0,.76.01,1.35.03,1.32.04-.1.54-2.32.54-2.39,0-.03-.05-.06-.12-.06-.06,0-.19-.06-.28-.13l-.16-.13v1.39ZM62.34,275.85s-.11.12-.22.29c-.18.27-.22.42-.33,1.22-.27,1.82-.63,3.44-1.06,4.79-.26.81-.35,1.02-.57,1.25-.2.22-.14.36.09.2.34-.22.73-.58,1.02-.94.26-.32.3-.4.24-.5-.04-.08-.04-.32.01-.77.09-.86.47-3.41.67-4.57.09-.52.15-.95.14-.97h0ZM63.28,276.01c-.06.04-.16.05-.23.03-.11-.03-.11.03-.15.9-.05,1.22-.32,3.29-.52,4.12-.02.07.18-.2.44-.6.52-.8.5-.71.61-2.23.08-1.02.08-2.29.02-2.29-.03,0-.1.03-.16.07ZM57.99,276.53s-.08.02-.09.05c-.01.05-.16.71-.32,1.46-.16.75-.3,1.42-.31,1.49-.03.15.55-.48.69-.74.08-.15.3-1.12.44-1.98.03-.22.03-.24-.12-.24-.08,0-.2-.02-.25-.04-.01,0-.03,0-.04,0h0ZM93.83,276.64s0,.06.02.14c.04.17.59.92.76,1.08.06.05.2.11.31.13.11.02.27.06.37.08.15.03.16.02.16-.13s-.05-.18-.11-.22c-.06-.03-.42-.29-.8-.57-.37-.29-.69-.51-.71-.51h0ZM68.97,277.15c-.05.57.37,4.11.56,4.73.04.12.04.11.09-.03.04-.09.02-.42-.03-.85-.05-.39-.14-1.21-.2-1.82-.05-.61-.11-1.21-.12-1.33s-.08-.38-.15-.57l-.13-.35-.03.22ZM67.13,278.08c-.03.58-.04,1.29-.04,1.57v.51s.21-.9.21-.9c.28-1.21.33-1.66.19-1.72-.06-.02-.15-.15-.21-.29l-.11-.24-.04,1.06ZM96.05,277.23s-.02.04,0,.11c.03.08.04.25.04.36,0,.21.01.22.73.56.71.34.89.5.59.55-.13.02,0,.13,1.37,1.16l.25.19-.15-.2c-.32-.45-2-2.2-2.34-2.42-.31-.21-.45-.3-.49-.31h0ZM49.82,278.05c-.47.7-.71,1.18-.65,1.24.04.04.8-.32.96-.46.12-.1.15-.21.18-.81.02-.37.03-.68.01-.68s-.24.32-.5.71ZM87.51,277.44s-.03.05-.05.12c-.09.29-.06.79.11,1.97.13.89.16,1.04.2.83.08-.44.05-1.07-.08-1.94-.11-.75-.15-.98-.17-.97h0ZM61.12,278.3c-.21.86-.69,3.17-.64,3.21.05.05.47-1.32.59-1.98.16-.78.3-1.8.25-1.84,0,0,0,0,0,0-.03.02-.11.28-.2.62ZM71.7,277.85c-.05.1-.05.25,0,.57.04.24.07.55.07.7,0,.39-.15.29-.22-.15-.08-.43-.13-.49-.21-.25-.04.12-.04.45-.01.91.04.65.08.84.43,1.87l.39,1.14v-2.4c-.02-1.32-.04-2.4-.06-2.42-.02-.01-.09-.05-.17-.07-.03,0-.05-.01-.07-.01-.06,0-.1.03-.14.1ZM89.81,278.11s-.04.03-.04.09.37,1.05.63,1.63c.07.17.18.33.25.37.11.06.12.04.03-.34-.23-.99-.33-1.27-.58-1.52-.16-.16-.25-.24-.3-.24h0ZM78.61,278.27s-.06.05-.13.14c-.08.11-.14.29-.14.4,0,.23.45,1.33.56,1.37.04.01.13-.1.2-.24l.13-.26-.25-.62c-.15-.34-.28-.67-.3-.73-.02-.04-.03-.07-.05-.07h0ZM66.67,278.3s-.02.06-.02.14c0,.34-.44,2.78-.76,4.18-.18.79-.33,1.49-.35,1.57-.04.2-.24.3-.41.21-.07-.04-.14-.06-.15-.05-.01.01-.09.42-.19.91s-.19.95-.2,1.02c-.05.18.95-1.48,1.25-2.1.43-.86.67-1.54.71-2.07.06-.79.17-3.77.13-3.8,0,0,0,0,0,0h0ZM80.93,278.84s-.07.06-.1.26c-.06.47-.04.81.06,1.05.13.31.13.47,0,.36-.06-.04-.11-.07-.12-.06s-.04.28-.06.6c-.03.4-.01.63.04.76.08.17.09.12.32-.89.14-.59.26-1.28.28-1.54.03-.44.03-.46-.11-.46-.08,0-.19-.03-.25-.06-.03-.01-.05-.02-.06-.02h0ZM93.44,279.25c-.07,0,.03.13.26.34.29.27.37.37.36.52,0,.11-.04.24-.08.28-.07.06-.05.11.08.22.09.08.37.32.62.53.42.37.57.47.57.35,0-.22-1.64-2.24-1.82-2.24h0ZM68.66,279.41s-.06.14-.08.32c-.03.2-.23,1.27-.45,2.37-.44,2.16-.59,2.97-.59,3.11,0,.29.99-1.04,1.42-1.89l.21-.42-.15-1.02c-.08-.56-.18-1.33-.22-1.72-.04-.38-.09-.72-.12-.75,0,0,0,0-.01,0h0ZM55.96,279.44s-.25.38-.53.85c-.61,1.02-1.36,2.33-1.41,2.46-.06.16.73-.51,1.57-1.32.75-.72.81-.8.87-1.1.09-.41.09-.4-.03-.29-.13.13-.25.13-.4-.03-.1-.1-.12-.18-.09-.35.02-.12.03-.22.02-.22h0ZM70.8,280.13s-.1.19-.2.43c-.22.6-.3,1.85-.14,2.41.06.2.13.4.16.43.03.03.06-.18.08-.48.06-.83.13-2.78.09-2.78h0ZM91.83,280.58s.04.34.11.76l.13.75.48.32c.26.17.58.36.72.42.27.11.64.13.7.04s-.61-.89-.75-.89c-.3,0-.81-.46-1.19-1.08-.11-.17-.2-.32-.21-.32h0Z" style="fill: #ae742a; stroke-width: 0px;"/>
      <g>
        <path d="M36.99,302.31v-2.13h-9.13v2.13h3.44s0,12.91,0,12.91h2.26v-12.91s3.43,0,3.43,0Z" style="fill: #ae742a; stroke-width: 0px;"/>
        <path d="M44.71,306.83c-.87-.91-1.86-1.36-2.96-1.36-1.27,0-2.33.47-3.18,1.42-.85.95-1.27,2.13-1.27,3.56s.42,2.66,1.27,3.63c.85.95,1.93,1.42,3.24,1.42,1.03,0,2-.42,2.9-1.27v.99h2.19v-9.49h-2.19v1.1ZM40.28,308.3c.5-.57,1.13-.86,1.88-.86.79,0,1.44.28,1.94.85.5.58.75,1.31.75,2.2s-.25,1.62-.75,2.2c-.5.56-1.15.84-1.96.84-.76,0-1.38-.29-1.88-.87-.48-.57-.73-1.31-.73-2.22s.25-1.57.75-2.14Z" style="fill: #ae742a; stroke-width: 0px;"/>
        <path d="M49.65,298.76v16.46h2.18v-3.65s.35-.35.35-.35l3.12,4.01h2.83s-4.4-5.51-4.4-5.51l4.1-3.99h-2.93s-3.07,3.07-3.07,3.07v-10.04h-2.18Z" style="fill: #ae742a; stroke-width: 0px;"/>
        <path d="M66.15,306.83c-.87-.91-1.86-1.36-2.96-1.36-1.27,0-2.33.47-3.18,1.42-.85.95-1.27,2.13-1.27,3.56,0,1.45.42,2.66,1.27,3.63.85.95,1.93,1.42,3.24,1.42,1.03,0,2-.42,2.9-1.27v.99h2.19v-9.49h-2.19v1.1ZM61.72,308.3c.5-.57,1.13-.86,1.88-.86.79,0,1.44.28,1.94.85.5.58.75,1.31.75,2.2s-.25,1.62-.75,2.2c-.5.56-1.15.84-1.96.84-.76,0-1.38-.29-1.88-.87-.48-.57-.73-1.31-.73-2.22,0-.85.25-1.57.75-2.14Z" style="fill: #ae742a; stroke-width: 0px;"/>
        <path d="M80.32,305.73h-9.13v2.05h4.81s-6.11,7.45-6.11,7.45h9.93v-2.07h-5.61s6.1-7.43,6.1-7.43Z" style="fill: #ae742a; stroke-width: 0px;"/>
        <path d="M81.87,305.73v5.5c0,.87.09,1.53.27,1.97.19.49.51.94.96,1.34.74.64,1.67.97,2.8.97s2.07-.32,2.81-.97c.45-.4.76-.84.94-1.34.19-.55.28-1.21.28-1.97v-5.5h-2.18v5.45c0,1.57-.62,2.36-1.85,2.36s-1.85-.79-1.85-2.36v-5.45h-2.18Z" style="fill: #ae742a; stroke-width: 0px;"/>
        <path d="M99.64,306.83c-.87-.91-1.86-1.36-2.96-1.36-1.27,0-2.33.48-3.17,1.43-.85.95-1.27,2.13-1.27,3.55,0,1.45.42,2.66,1.27,3.63.85.95,1.92,1.42,3.22,1.42,1.09,0,2.06-.42,2.92-1.27v.99h2.19v-16.46h-2.19v8.07ZM95.21,308.3c.5-.57,1.13-.86,1.88-.86.79,0,1.44.28,1.94.85.5.58.75,1.31.75,2.2s-.25,1.62-.75,2.2c-.5.56-1.15.84-1.96.84-.76,0-1.38-.29-1.88-.87-.48-.57-.73-1.31-.73-2.22,0-.85.25-1.57.75-2.14Z" style="fill: #ae742a; stroke-width: 0px;"/>
        <path d="M105.56,314.03c.96.97,2.14,1.46,3.56,1.46s2.63-.48,3.61-1.43c.98-.96,1.46-2.15,1.46-3.58s-.48-2.6-1.45-3.57c-.98-.97-2.18-1.45-3.58-1.45s-2.59.48-3.56,1.44c-.98.96-1.46,2.13-1.46,3.5,0,1.46.48,2.66,1.43,3.63ZM107.13,308.28c.52-.56,1.19-.84,2.02-.84s1.53.28,2.04.84c.51.55.77,1.29.77,2.21,0,.92-.26,1.66-.77,2.21-.51.55-1.19.83-2.04.83s-1.53-.28-2.04-.84c-.5-.55-.76-1.3-.76-2.25,0-.88.26-1.6.77-2.16Z" style="fill: #ae742a; stroke-width: 0px;"/>
        <path d="M35.19,339.17l1.61-9.09,4.3,9.78,4.43-9.77,1.44,9.08h2.32s-2.83-16.18-2.83-16.18l-5.32,11.69-5.13-11.69-3.15,16.18h2.33Z" style="fill: #ae742a; stroke-width: 0px;"/>
        <path d="M53.02,337.98c.96.97,2.14,1.46,3.56,1.46s2.63-.48,3.61-1.43c.98-.96,1.46-2.15,1.46-3.58s-.48-2.6-1.45-3.57c-.98-.97-2.18-1.45-3.58-1.45s-2.59.48-3.56,1.44c-.98.96-1.46,2.13-1.46,3.5,0,1.46.48,2.66,1.43,3.63ZM54.59,332.23c.52-.56,1.19-.84,2.02-.84s1.53.28,2.04.84c.51.55.77,1.29.77,2.21s-.26,1.66-.77,2.21c-.51.55-1.19.83-2.04.83s-1.53-.28-2.04-.84c-.5-.55-.76-1.3-.76-2.25,0-.88.26-1.6.77-2.16Z" style="fill: #ae742a; stroke-width: 0px;"/>
        <path d="M70.91,330.78c-.87-.91-1.86-1.36-2.96-1.36-1.27,0-2.33.48-3.17,1.43-.85.95-1.27,2.13-1.27,3.55,0,1.45.42,2.66,1.27,3.63.85.95,1.92,1.42,3.22,1.42,1.09,0,2.06-.42,2.92-1.27v.99h2.19v-16.46h-2.19v8.07ZM66.49,332.25c.5-.57,1.13-.86,1.88-.86.79,0,1.44.28,1.94.85.5.58.75,1.31.75,2.2s-.25,1.62-.75,2.2c-.5.56-1.15.84-1.96.84-.76,0-1.38-.29-1.88-.87-.48-.57-.73-1.31-.73-2.22s.25-1.57.75-2.14Z" style="fill: #ae742a; stroke-width: 0px;"/>
        <path d="M75.85,329.68v5.5c0,.87.09,1.53.27,1.97.19.49.51.94.96,1.34.74.64,1.67.97,2.8.97s2.07-.32,2.81-.97c.45-.4.76-.84.94-1.34.19-.55.28-1.21.28-1.97v-5.5h-2.18v5.45c0,1.57-.62,2.36-1.85,2.36s-1.85-.79-1.85-2.36v-5.45h-2.18Z" style="fill: #ae742a; stroke-width: 0px;"/>
        <path d="M86.67,322.71v16.46h2.18v-16.46h-2.18Z" style="fill: #ae742a; stroke-width: 0px;"/>
        <path d="M98.56,330.78c-.87-.91-1.86-1.36-2.96-1.36-1.27,0-2.33.47-3.18,1.42-.85.95-1.27,2.13-1.27,3.56,0,1.45.42,2.66,1.27,3.63.85.95,1.93,1.42,3.24,1.42,1.03,0,2-.42,2.9-1.27v.99h2.19v-9.49h-2.19v1.1ZM94.13,332.25c.5-.57,1.13-.86,1.88-.86.79,0,1.44.28,1.94.85.5.58.75,1.31.75,2.2,0,.89-.25,1.62-.75,2.2-.5.56-1.15.84-1.96.84-.76,0-1.38-.29-1.88-.87-.48-.57-.73-1.31-.73-2.22s.25-1.57.75-2.14Z" style="fill: #ae742a; stroke-width: 0px;"/>
        <path d="M103.5,339.17h2.18v-4.92c0-1.81.59-2.71,1.78-2.71.39,0,.8.15,1.21.45l1-2.01c-.63-.38-1.23-.57-1.8-.57-.43,0-.81.08-1.12.24-.31.16-.67.45-1.07.87v-.85h-2.18v9.49Z" style="fill: #ae742a; stroke-width: 0px;"/>
      </g>
    </g>
  </g>
</svg>