<?xml version="1.0" encoding="UTF-8"?><svg id="a" xmlns="http://www.w3.org/2000/svg" width="14.9mm" height="128.5mm" viewBox="0 0 42.24 364.25"><path d="M42.24,1.71V0H0v1.72h1.2s.37,7.11.37,7.11l-1.57.02v38.61h7.95v7.5l-7.95-.15v11.09l20.45-.19.25,7.5-20.7-.3v38.55h20.7l-.25,7.5-20.45-.3v11.06h1.2s.37,7.11.37,7.11l-1.57.02v38.61h7.95l-.25,7.5-7.7-.15v11.09l20.45-.19.25,7.5-20.7-.3v38.55h20.7l-.25,7.5-20.45-.3v11.06h1.2s.37,7.11.37,7.11l-1.57.02v38.61h7.95v7.5l-7.95-.15v11.09l20.45-.19.25,7.5-20.7-.3v35.34h39.32v-1.04l.13-15,2.79.04v-19.19l-2.79.15-.13-25.63c.88.02,1.9-.13,2.92-.27v-38.12l-21.92-.11.13-7.37h21.79v-10.89l-2.54.14-.38-26.38,2.92-.16v-19.36l-2.79.15-.13-25.63c.92.01,1.92-.15,2.92-.29v-38.1l-21.92-.11.13-7.37h21.79v-10.97l-2.92-.16v-11.37l.13-15,2.79.04v-19.19l-2.79.15-.13-25.63c.88.02,1.9-.13,2.92-.27V9.19l-21.92-.11.13-7.37h21.79ZM1.32,355.08l.13-6.87,25.5-.25.25,7.5-25.88-.38ZM33.45,284.21v7.25l-32.13-.38.38-6.87h31.75ZM27.2,227.46l-25.88-.38.38-6.87h25.5v7.25ZM33.45,156.21v7.25l-32.13-.38.38-6.87h31.75ZM1.32,99.08l.13-6.87,25.5-.25.25,7.5-25.88-.38ZM33.45,28.21v7.25l-32.13-.38.38-6.87h31.75Z" fill="none"/><polygon points="1.2 1.71 0 1.72 0 8.85 1.57 8.83 1.2 1.71" fill="#ec008c"/><polygon points="1.32 35.08 33.45 35.46 33.45 28.21 1.7 28.21 1.32 35.08" fill="#ec008c"/><polygon points="20.45 65.71 0 65.9 0 72.91 20.7 73.21 20.45 65.71" fill="#ec008c"/><polygon points="20.32 9.08 42.24 9.19 42.24 1.71 20.45 1.71 20.32 9.08" fill="#ec008c"/><polygon points="1.45 92.21 1.32 99.08 27.2 99.46 26.95 91.96 1.45 92.21" fill="#ec008c"/><path d="M39.45,73.21l2.79-.15v-25.75c-1.02.14-2.03.29-2.91.27l.12,25.62Z" fill="#ec008c"/><polygon points="7.95 47.46 0 47.46 0 54.81 7.95 54.96 7.95 47.46" fill="#ec008c"/><polygon points="39.32 363.21 42.24 363.21 42.24 348.25 39.45 348.21 39.32 363.21" fill="#ec008c"/><polygon points="42.24 92.25 42.24 118.74 39.32 118.58 39.32 107.21 39.45 92.21 42.24 92.25" fill="#ec008c"/><polygon points="1.2 257.71 0 257.72 0 264.85 1.57 264.83 1.2 257.71" fill="#ec008c"/><polygon points="1.2 129.71 0 129.72 0 136.85 1.57 136.83 1.2 129.71" fill="#ec008c"/><polygon points="1.32 291.08 33.45 291.46 33.45 284.21 1.7 284.21 1.32 291.08" fill="#ec008c"/><polygon points="1.32 163.08 33.45 163.46 33.45 156.21 1.7 156.21 1.32 163.08" fill="#ec008c"/><polygon points="20.45 321.71 0 321.9 0 328.91 20.7 329.21 20.45 321.71" fill="#ec008c"/><polygon points="20.45 193.71 0 193.9 0 200.91 20.7 201.21 20.45 193.71" fill="#ec008c"/><polygon points="20.32 265.08 42.24 265.19 42.24 257.71 20.45 257.71 20.32 265.08" fill="#ec008c"/><polygon points="20.32 137.08 42.24 137.19 42.24 129.71 20.45 129.71 20.32 137.08" fill="#ec008c"/><polygon points="20.7 239.46 0 239.46 0 246.66 20.45 246.96 20.7 239.46" fill="#ec008c"/><polygon points="20.7 111.46 0 111.46 0 118.66 20.45 118.96 20.7 111.46" fill="#ec008c"/><polygon points="39.7 246.96 42.24 246.82 42.24 220.42 39.32 220.58 39.7 246.96" fill="#ec008c"/><polygon points="1.45 348.21 1.32 355.08 27.2 355.46 26.95 347.96 1.45 348.21" fill="#ec008c"/><polygon points="1.32 227.08 27.2 227.46 27.2 220.21 1.7 220.21 1.32 227.08" fill="#ec008c"/><path d="M39.45,329.21l2.79-.15v-25.75c-1.02.14-2.03.29-2.91.27l.12,25.62Z" fill="#ec008c"/><path d="M39.45,201.21l2.79-.15v-25.77c-1,.14-1.99.3-2.91.29l.12,25.62Z" fill="#ec008c"/><polygon points="7.95 303.46 0 303.46 0 310.81 7.95 310.96 7.95 303.46" fill="#ec008c"/><polygon points="7.95 175.46 0 175.46 0 182.81 7.7 182.96 7.95 175.46" fill="#ec008c"/><rect x="39.32" y="363.21" width="2.91" height="1.05" fill="#ec008c"/></svg>