<?xml version="1.0" encoding="UTF-8"?><svg id="a" xmlns="http://www.w3.org/2000/svg" width="14.9mm" height="128.5mm" viewBox="0 0 42.24 364.25"><path d="M22.69,266.49c-.54.34-3.15,3.09-3.38,3.12-.68.1-9.75-8.95-9.87-9.62-.18-.93,2.41-2.86,2.87-3.63l10.38,10.13Z" fill="none"/><path d="M42.24,286.13v6.72c-3.84-3.95-7.73-8.05-8.8-8.86l3.12-3.63c.6.86,2.92,3.14,5.68,5.77Z" fill="none"/><path d="M25.31,258.11c-3.47.74-4.03-4.21-1.25-4.75,3.15-.61,3.85,4.2,1.25,4.75Z" fill="none"/><path d="M21.31,206.11c-3.44.73-4.11-4.29-1.25-4.75,3.27-.52,3.77,4.21,1.25,4.75Z" fill="none"/><path d="M13.31,198.11c-3.44.73-4.11-4.29-1.25-4.75,3.36-.54,3.74,4.22,1.25,4.75Z" fill="none"/><path d="M39.94,347.74l-11.38,11.37c-.5-.75-3.28-2.76-3.12-3.62.14-.78,10.01-9.54,11.12-11.13l3.38,3.38Z" fill="none"/><path d="M29.31,326.11c-3.44.73-4.11-4.29-1.25-4.75,3.27-.52,3.77,4.21,1.25,4.75Z" fill="none"/><path d="M7.94,267.74l-7.94,7.93v-6.73c2.15-2.04,4.1-3.92,4.56-4.58l3.38,3.38Z" fill="none"/><path d="M29.31,70.11c-3.44.73-4.11-4.29-1.25-4.75,3.27-.52,3.77,4.21,1.25,4.75Z" fill="none"/><path d="M7.94,251.74l-7.94,7.93v-6.73c2.15-2.04,4.1-3.92,4.56-4.58l3.38,3.38Z" fill="none"/><path d="M7.94,139.74l-7.94,7.93v-6.73c2.15-2.04,4.1-3.92,4.56-4.58l3.38,3.38Z" fill="none"/><path d="M39.94,91.74l-11.38,11.37c-.5-.75-3.28-2.76-3.12-3.62.14-.78,10.01-9.54,11.12-11.13l3.38,3.38Z" fill="none"/><path d="M5.31,334.11c-3.44.73-4.11-4.29-1.25-4.75,3.27-.52,3.77,4.21,1.25,4.75Z" fill="none"/><path d="M21.31,78.11c-3.44.73-4.11-4.29-1.25-4.75,3.27-.52,3.77,4.21,1.25,4.75Z" fill="none"/><path d="M11.56,325.86c-2.04-.89-1.56-4.13.5-4.5,4.17-.75,3.53,6.26-.5,4.5Z" fill="none"/><path d="M21.69,249.49c.1.56-2.66,3.33-2.88,3.37-1.19.22-15.17-15.22-17.37-16.87-.17-.98,2.53-2.86,3.12-3.63,1.67,2.42,16.91,15.93,17.13,17.13Z" fill="none"/><path d="M8.19,155.74l14,14.25-3.38,3.37L1.44,155.99l10.87-11.63,11.63,11.38-3.38,3.37c-1.04-.84-7.38-7.75-8-7.75-.31.02-4.37,3.96-4.37,4.38Z" fill="none"/><path d="M35.56,189.86c-2.08-.91-1.51-4.18.5-4.5,4.18-.67,3.51,6.25-.5,4.5Z" fill="none"/><polygon points="22.19 185.99 19.06 189.36 1.44 171.99 4.31 168.36 22.19 185.99" fill="none"/><path d="M5.31,78.11c-3.44.73-4.11-4.29-1.25-4.75,3.27-.52,3.77,4.21,1.25,4.75Z" fill="none"/><path d="M8.19,283.74l14,14.25c0,.36-3.14,3.37-3.38,3.37-1.23,0-14.89-15.83-17.37-17.37l10.87-11.63,11.63,11.38-3.38,3.37c-1.04-.84-7.38-7.75-8-7.75-.31.02-4.37,3.96-4.37,4.38Z" fill="none"/><path d="M5.31,206.11c-3.44.73-4.11-4.29-1.25-4.75,3.27-.52,3.77,4.21,1.25,4.75Z" fill="none"/><path d="M7.94,123.74l-7.94,7.93v-6.73c2.15-2.04,4.1-3.92,4.56-4.58l3.38,3.38Z" fill="none"/><path d="M21.69,121.49c.1.56-2.66,3.33-2.88,3.37-1.19.22-15.17-15.22-17.37-16.87-.17-.98,2.53-2.86,3.12-3.63,1.67,2.42,16.91,15.93,17.13,17.13Z" fill="none"/><path d="M29.31,198.11c-3.44.73-4.11-4.29-1.25-4.75,3.27-.52,3.77,4.21,1.25,4.75Z" fill="none"/><path d="M11.56,69.86c-2.04-.89-1.56-4.13.5-4.5,4.17-.75,3.53,6.26-.5,4.5Z" fill="none"/><path d="M8.28,364.25H1.76c-.13-.1-.24-.2-.32-.26-.17-.98,2.53-2.86,3.12-3.63.45.65,1.88,2.1,3.72,3.89Z" fill="none"/><path d="M39.94,219.74l-11.38,11.37c-.5-.75-3.28-2.76-3.12-3.62.14-.78,10.01-9.54,11.12-11.13l3.38,3.38Z" fill="none"/><path d="M22.69,138.49c-.02.22-3.15,3.09-3.38,3.12-.68.1-9.75-8.95-9.87-9.62-.15-.77,2.31-3.02,2.87-3.63,1.17,1.25,10.38,9.36,10.38,10.13Z" fill="none"/><path d="M25.31,130.11c-3.5.74-4.13-4.39-1-4.75,3.02-.35,3.47,4.23,1,4.75Z" fill="none"/><path d="M29.31,150.11c-3.43.75-4.12-4.23-1.25-4.75,3.37-.6,3.73,4.21,1.25,4.75Z" fill="none"/><path d="M29.31,278.11c-3.44.73-4.11-4.29-1.25-4.75,3.36-.54,3.74,4.22,1.25,4.75Z" fill="none"/><polygon points="3.67 0 0 3.67 0 0 3.67 0" fill="none"/><polygon points="42.24 126.04 42.24 132.79 13.44 103.99 16.56 100.36 42.24 126.04" fill="none"/><path d="M42.24,98.7v6.73l-5.68,5.68c-.5-.75-3.28-2.76-3.12-3.62.11-.62,4.68-4.89,8.8-8.79Z" fill="none"/><path d="M22.19,57.99c.05.56-1.13,1.08-1.25,1.62h-.25c-1.63,2.17-1.96,2.17-3.5,0h-.25c-1.31-2.36-15.75-14.76-15.75-15.87,0-.24,3.01-2.84,3.37-3.38,1.65,2.5,17.49,16.39,17.63,17.63Z" fill="none"/><path d="M42.24,46.04v6.57c-6.92-6.67-16.6-15.52-16.8-16.62-.16-.87,2.62-2.88,3.12-3.63l13.68,13.68Z" fill="none"/><path d="M38.94,59.61c-.03,3.39-4.54,3.28-4.75,0,.47-2.93,4.45-3.07,4.75,0Z" fill="none"/><polygon points="42.24 0 42.24 4.83 37.41 0 42.24 0" fill="none"/><path d="M42.24,174.04v7.07c-6.6-6.91-14.68-15.75-16.8-17.12l3.12-3.63,13.68,13.68Z" fill="none"/><path d="M42.24,158.13v6.72c-3.84-3.95-7.73-8.05-8.8-8.86l3.12-3.63c.6.86,2.92,3.14,5.68,5.77Z" fill="none"/><path d="M42.24,226.7v6.73l-5.68,5.68c-.5-.75-3.28-2.76-3.12-3.62.11-.62,4.68-4.89,8.8-8.79Z" fill="none"/><polygon points="42.24 254.07 42.24 260.83 13.44 231.99 16.56 228.36 42.24 254.07" fill="none"/><path d="M42.24,269.99v6.91c-3.34-2.98-8.7-8.36-8.8-8.91-.16-.87,2.62-2.88,3.12-3.63.54.77,3.13,3.22,5.68,5.63Z" fill="none"/><path d="M42.24,141.99v6.91c-3.34-2.98-8.7-8.36-8.8-8.91-.16-.87,2.62-2.88,3.12-3.63.54.77,3.13,3.22,5.68,5.63Z" fill="none"/><path d="M29.31,22.11c-3.44.73-4.11-4.29-1.25-4.75,3.36-.54,3.74,4.22,1.25,4.75Z" fill="none"/><path d="M22.19,313.99c.05.56-1.13,1.08-1.25,1.62h-.25c-1.63,2.17-1.96,2.17-3.5,0h-.25c-1.31-2.36-15.75-14.76-15.75-15.87,0-.24,3.01-2.84,3.37-3.38,1.65,2.5,17.49,16.39,17.63,17.63Z" fill="none"/><path d="M42.24,354.7v6.73l-2.82,2.82h-5.68c-.22-.29-.34-.56-.3-.76.11-.62,4.68-4.89,8.8-8.79Z" fill="none"/><path d="M38.94,315.61c-.03,3.39-4.54,3.28-4.75,0,.47-2.93,4.45-3.07,4.75,0Z" fill="none"/><path d="M8.19,27.74l14,14.25c0,.36-3.14,3.37-3.38,3.37-1.23,0-14.89-15.83-17.37-17.37l10.87-11.63,11.63,11.38-3.38,3.37c-1.04-.84-7.38-7.75-8-7.75-.31.02-4.37,3.96-4.37,4.38Z" fill="none"/><path d="M42.24,302.04v6.57c-6.92-6.67-16.6-15.52-16.8-16.62-.16-.87,2.62-2.88,3.12-3.63l13.68,13.68Z" fill="none"/><path d="M22.69,10.49c-.54.34-3.15,3.09-3.38,3.12-.68.1-9.75-8.95-9.87-9.62-.18-.93,2.41-2.86,2.87-3.63l10.38,10.13Z" fill="none"/><path d="M7.94,11.74L0,19.67v-6.73c2.15-2.04,4.1-3.92,4.56-4.58l3.38,3.38Z" fill="none"/><polygon points="24.45 364.25 17.7 364.25 13.44 359.99 16.56 356.36 24.45 364.25" fill="none"/><path d="M42.24,30.13v6.72c-3.84-3.95-7.73-8.05-8.8-8.86l3.12-3.63c.6.86,2.92,3.14,5.68,5.77Z" fill="none"/><path d="M42.24,13.99v6.91c-3.34-2.98-8.7-8.36-8.8-8.91-.16-.87,2.62-2.88,3.12-3.63.54.77,3.13,3.22,5.68,5.63Z" fill="none"/><path d="M26.89,0c-.03.97-.53,1.89-1.58,2.11-1.84.39-2.85-.81-2.99-2.11h4.57Z" fill="none"/><path d="M36.56,8.36c.54.77,3.13,3.22,5.68,5.63V4.83l-4.83-4.83h-10.52c-.03.97-.53,1.89-1.58,2.11-1.84.39-2.85-.81-2.99-2.11H3.67L0,3.67v9.27c2.15-2.04,4.1-3.92,4.56-4.58l3.38,3.38L0,19.67v105.27c2.15-2.04,4.1-3.92,4.56-4.58l3.38,3.38-7.94,7.93v9.27c2.15-2.04,4.1-3.92,4.56-4.58l3.38,3.38-7.94,7.93v105.27c2.15-2.04,4.1-3.92,4.56-4.58l3.38,3.38-7.94,7.93v9.27c2.15-2.04,4.1-3.92,4.56-4.58l3.38,3.38-7.94,7.93v88.58h1.76c-.13-.1-.24-.2-.32-.26-.17-.98,2.53-2.86,3.12-3.63.45.65,1.88,2.1,3.72,3.89h9.42l-4.26-4.26,3.12-3.63,7.89,7.89h9.29c-.22-.29-.34-.56-.3-.76.11-.62,4.68-4.89,8.8-8.79v-46.09c-6.92-6.67-16.6-15.52-16.8-16.62-.16-.87,2.62-2.88,3.12-3.63l13.68,13.68v-9.19c-3.84-3.95-7.73-8.05-8.8-8.86l3.12-3.63c.6.86,2.92,3.14,5.68,5.77v-9.23c-3.34-2.98-8.7-8.36-8.8-8.91-.16-.87,2.62-2.88,3.12-3.63.54.77,3.13,3.22,5.68,5.63v-9.16l-28.8-28.84,3.12-3.63,25.68,25.71v-20.64l-5.68,5.68c-.5-.75-3.28-2.76-3.12-3.62.11-.62,4.68-4.89,8.8-8.79v-45.59c-6.6-6.91-14.68-15.75-16.8-17.12l3.12-3.63,13.68,13.68v-9.19c-3.84-3.95-7.73-8.05-8.8-8.86l3.12-3.63c.6.86,2.92,3.14,5.68,5.77v-9.23c-3.34-2.98-8.7-8.36-8.8-8.91-.16-.87,2.62-2.88,3.12-3.63.54.77,3.13,3.22,5.68,5.63v-9.2l-28.8-28.8,3.12-3.63,25.68,25.68v-20.61l-5.68,5.68c-.5-.75-3.28-2.76-3.12-3.62.11-.62,4.68-4.89,8.8-8.79v-46.09c-6.92-6.67-16.6-15.52-16.8-16.62-.16-.87,2.62-2.88,3.12-3.63l13.68,13.68v-9.19c-3.84-3.95-7.73-8.05-8.8-8.86l3.12-3.63c.6.86,2.92,3.14,5.68,5.77v-9.23c-3.34-2.98-8.7-8.36-8.8-8.91-.16-.87,2.62-2.88,3.12-3.63ZM12.31.36l10.38,10.13c-.54.34-3.15,3.09-3.38,3.12-.68.1-9.75-8.95-9.87-9.62-.18-.93,2.41-2.86,2.87-3.63ZM5.31,334.11c-3.44.73-4.11-4.29-1.25-4.75,3.27-.52,3.77,4.21,1.25,4.75ZM11.56,325.86c-2.04-.89-1.56-4.13.5-4.5,4.17-.75,3.53,6.26-.5,4.5ZM20.94,315.61h-.25c-1.63,2.17-1.96,2.17-3.5,0h-.25c-1.31-2.36-15.75-14.76-15.75-15.87,0-.24,3.01-2.84,3.37-3.38,1.65,2.5,17.49,16.39,17.63,17.63.05.56-1.13,1.08-1.25,1.62ZM22.19,297.99c0,.36-3.14,3.37-3.38,3.37-1.23,0-14.89-15.83-17.37-17.37l10.87-11.63,11.63,11.38-3.38,3.37c-1.04-.84-7.38-7.75-8-7.75-.31.02-4.37,3.96-4.37,4.38l14,14.25ZM12.31,256.36l10.38,10.13c-.54.34-3.15,3.09-3.38,3.12-.68.1-9.75-8.95-9.87-9.62-.18-.93,2.41-2.86,2.87-3.63ZM38.94,315.61c-.03,3.39-4.54,3.28-4.75,0,.47-2.93,4.45-3.07,4.75,0ZM28.06,321.36c3.27-.52,3.77,4.21,1.25,4.75-3.44.73-4.11-4.29-1.25-4.75ZM36.56,344.36l3.38,3.38-11.38,11.37c-.5-.75-3.28-2.76-3.12-3.62.14-.78,10.01-9.54,11.12-11.13ZM29.31,278.11c-3.44.73-4.11-4.29-1.25-4.75,3.36-.54,3.74,4.22,1.25,4.75ZM24.06,253.36c3.15-.61,3.85,4.2,1.25,4.75-3.47.74-4.03-4.21-1.25-4.75ZM21.69,249.49c.1.56-2.66,3.33-2.88,3.37-1.19.22-15.17-15.22-17.37-16.87-.17-.98,2.53-2.86,3.12-3.63,1.67,2.42,16.91,15.93,17.13,17.13ZM4.06,201.36c3.27-.52,3.77,4.21,1.25,4.75-3.44.73-4.11-4.29-1.25-4.75ZM13.31,198.11c-3.44.73-4.11-4.29-1.25-4.75,3.36-.54,3.74,4.22,1.25,4.75ZM1.44,171.99l2.87-3.63,17.88,17.63-3.13,3.37L1.44,171.99ZM21.31,206.11c-3.44.73-4.11-4.29-1.25-4.75,3.27-.52,3.77,4.21,1.25,4.75ZM20.56,159.11c-1.04-.84-7.38-7.75-8-7.75-.31.02-4.37,3.96-4.37,4.38l14,14.25-3.38,3.37L1.44,155.99l10.87-11.63,11.63,11.38-3.38,3.37ZM9.44,131.99c-.15-.77,2.31-3.02,2.87-3.63,1.17,1.25,10.38,9.36,10.38,10.13-.02.22-3.15,3.09-3.38,3.12-.68.1-9.75-8.95-9.87-9.62ZM36.06,185.36c4.18-.67,3.51,6.25-.5,4.5-2.08-.91-1.51-4.18.5-4.5ZM28.06,193.36c3.27-.52,3.77,4.21,1.25,4.75-3.44.73-4.11-4.29-1.25-4.75ZM36.56,216.36l3.38,3.38-11.38,11.37c-.5-.75-3.28-2.76-3.12-3.62.14-.78,10.01-9.54,11.12-11.13ZM29.31,150.11c-3.43.75-4.12-4.23-1.25-4.75,3.37-.6,3.73,4.21,1.25,4.75ZM24.31,125.36c3.02-.35,3.47,4.23,1,4.75-3.5.74-4.13-4.39-1-4.75ZM21.69,121.49c.1.56-2.66,3.33-2.88,3.37-1.19.22-15.17-15.22-17.37-16.87-.17-.98,2.53-2.86,3.12-3.63,1.67,2.42,16.91,15.93,17.13,17.13ZM4.06,73.36c3.27-.52,3.77,4.21,1.25,4.75-3.44.73-4.11-4.29-1.25-4.75ZM11.56,69.86c-2.04-.89-1.56-4.13.5-4.5,4.17-.75,3.53,6.26-.5,4.5ZM17.19,59.61h-.25c-1.31-2.36-15.75-14.76-15.75-15.87,0-.24,3.01-2.84,3.37-3.38,1.65,2.5,17.49,16.39,17.63,17.63.05.56-1.13,1.08-1.25,1.62h-.25c-1.63,2.17-1.96,2.17-3.5,0ZM21.31,78.11c-3.44.73-4.11-4.29-1.25-4.75,3.27-.52,3.77,4.21,1.25,4.75ZM20.56,31.11c-1.04-.84-7.38-7.75-8-7.75-.31.02-4.37,3.96-4.37,4.38l14,14.25c0,.36-3.14,3.37-3.38,3.37-1.23,0-14.89-15.83-17.37-17.37l10.87-11.63,11.63,11.38-3.38,3.37ZM38.94,59.61c-.03,3.39-4.54,3.28-4.75,0,.47-2.93,4.45-3.07,4.75,0ZM28.06,65.36c3.27-.52,3.77,4.21,1.25,4.75-3.44.73-4.11-4.29-1.25-4.75ZM36.56,88.36l3.38,3.38-11.38,11.37c-.5-.75-3.28-2.76-3.12-3.62.14-.78,10.01-9.54,11.12-11.13ZM29.31,22.11c-3.44.73-4.11-4.29-1.25-4.75,3.36-.54,3.74,4.22,1.25,4.75Z" fill="#00aeef"/><polygon points="42.24 364.25 42.24 361.43 39.42 364.25 42.24 364.25" fill="#00aeef"/></svg>