<?xml version="1.0" encoding="UTF-8"?>
<svg xmlns="http://www.w3.org/2000/svg" width="116.09mm" height="128.5mm" viewBox="0 0 329.08 364.25">
  <g id="a" data-name="UFO Cu">
    <path d="M268.3,361.33c-4.25-15.53-14.06-31.27-19.27-47.63-1.81-6.17-1-12.73-2.87-18.8-1.98-6.45-6.13-12.26-8.31-18.94-1.38-4.06-2.12-8.32-3.05-12.5-3.48-15.72-11.33-31.16-18.05-45.02-1.11-2.38-1.94-4.75-2.42-7.22l-.04-.18c-.47-2.38-.65-4.86-.92-7.29-.47-5.22-2.36-10.57-4.14-15.67-2.13-6.31-6.03-11.61-7.48-18.08-3.13-13.1-5.51-26.96-12.15-38.9-1.89-3.42-3.48-6.97-4.66-10.67-.14-1.77-.27-3.24-.41-3.69-1.04-3.46-1.95-6.96-3.04-10.4-.28-.87-.6-1.72-.94-2.57-1.16-3.97-2.4-7.94-3.68-11.9-.4-1.45-.85-2.87-1.36-4.21-.08-.24-.15-.47-.23-.71v.06c-1.24-3.08-1.82-6.41-2.78-9.6-.37-1.24-.97-2.41-1.46-3.61-2.87.09-5.74.24-8.62.25-.96,0-1.92-.34-2.89-.53-1.82,2.47-4,4.34-7.2,4.83-1.34.21-2.57,1.08-3.91,1.3-1.99.32-4.04.3-6.05.47-.88.07-1.92.59-2.58.27-2.18-1.06-4.29-2.3-6.29-3.68-1.14-.79-2-1.98-2.98-2.98-3.34.11-6.68.26-10.02.31-1.14.02-2.29-.2-3.44-.32-.35,1.36-.62,2.74-1.06,4.07-.67,2.05-1.47,4.06-2.18,6.1-.85,2.43-1.67,4.88-2.5,7.32-.49,1.44-.98,3.04-1.47,4.64-.06.11-.11.22-.17.33-2.06,3.9-1.94,7.73-2.93,11.97-.42,1.89-1.2,3.74-1.89,5.57-2.5,6.53-3.22,13.83-5.61,20.54-2.53,7.41-7.54,13.72-9.83,20.97-1.45,4.31-1.49,9.05-2.5,13.21-.61,2.74-1.69,5.32-2.91,7.84-10.31,20.65-13.39,49.84-23.13,72.87-8.39,19.65-15.16,37.73-21.31,58.65-1.12,3.82-2.37,7.65-4.13,11.23-2.12,4.47-5.12,8.32-6.59,12.44-1.21,3.5-1.27,7.21-2.31,10.76-1.4,5.01-4.25,9.61-5.76,14.84-.93,2.76-1.68,5.29-1.44,7.2h249.47c-.03-.85-.19-1.81-.52-2.92ZM159.04,196.87c.24.45.57,1.3.4,1.45-.54.47-1.38,1.08-1.95.96-1.72-.37-3.37-1.07-5.2-1.69,0,1.29-.2,2.52.04,3.65.97,4.56,1.42,9.16,1.09,13.8-.08,1.12-.51,2.22-1.03,3.37-1.18-1.29-2.74-2.06-2.92-4.08-.13-1.53-.8-3.02-1.24-4.53-.28,0-.57.02-.85.03-.13,1.03-.22,2.07-.39,3.1-.26,1.65-.45,3.33-.89,4.94-.37,1.33-1.44,1.19-2.12.31-.73-.95-1.37-2.08-1.67-3.23-.94-3.63-1.72-7.3-2.52-10.96-.23-1.07-.36-2.16-.59-3.61-1.24.96-2.33,1.84-3.45,2.67-.64.47-1.28,1.03-2.01,1.27-1.16.37-2.02-.21-1.65-1.44.55-1.83,1.2-3.69,2.18-5.32,1.07-1.77,2.63-3.24,3.82-4.95.33-.47.35-1.59.02-2-1.28-1.59-2.2-3.28-2.5-5.32-.31-2.05.95-3.44,1.99-4.88.49-.68,1.23-1.27,2-1.62,3.45-1.57,10.38.61,10.11,5.84-.08,1.49-.22,2.97-.23,4.46,0,.41.25.98.58,1.2,1.42.99,2.91,1.87,4.36,2.81,1.68,1.1,3.63,1.88,4.64,3.78ZM129.75,129.06c1.09-1.3,2.27-2.6,3.64-3.58,1.49-1.08,3.29-1.73,4.86-2.71.43-.27.84-1.17.71-1.63-.49-1.75-.65-3.45-.18-5.23.46-1.78,1.98-2.48,3.33-3.29.63-.38,1.46-.61,2.2-.63,3.37-.07,8.27,4.13,6.23,8.31-.58,1.19-1.22,2.35-1.75,3.56-.15.33-.14.89.05,1.19.81,1.31,1.73,2.55,2.58,3.83.99,1.48,2.31,2.81,2.47,4.72.04.46,0,1.27-.18,1.33-.61.2-1.51.4-1.93.1-1.28-.91-2.38-2.06-3.66-3.2-.45,1.06-1.05,1.99-1.25,3-.8,4.07-2.05,7.98-3.94,11.67-.46.89-1.19,1.63-2.02,2.4-.52-1.47-1.52-2.64-.96-4.36.43-1.3.4-2.75.58-4.14-.24-.09-.47-.18-.71-.27-.46.8-.91,1.62-1.4,2.4-.79,1.26-1.53,2.57-2.46,3.72-.77.96-1.6.47-1.84-.48-.26-1.03-.39-2.18-.23-3.22.5-3.29,1.15-6.57,1.78-9.84.18-.95.46-1.89.78-3.16-1.35.35-2.55.69-3.76.97-.69.16-1.41.4-2.09.33-1.08-.1-1.58-.88-.84-1.75ZM182.71,313.64c-2.58,4.16-5.3,8.23-8.07,12.27-3.02,4.66-1.21,13.25-8.59,13.91-3.06-.7.58-1.75,1.37-5.34-.16-5.61,4.94-7.98,7.71-12.08,1.64-2.84,7.13-9.63,5.85-10.97-3.14,7.09-13.02,9.74-14.25,17.44-.03,3.08.16,2.72-2.06,5.05-4.12,3.71-6.06,9.51-9.63,13.36-.38.08-.77.06-1.06.02-.83-.54-2.24-1.45-2.88-1.86-.07-.12-.12-.25-.12-.39,2.59-2.02,9.28-9.4,7.03-9.99-3.15,2.62-5.16,6.47-8.13,9.17-.32-.03-.65-.1-.9-.17-.61-.4-1.56-1.01-2.29-1.48-.3-.45-.24-.89.05-1.3,5.06-2.91,8.51-8.18,8.87-14.07.01-2.4-2.99,3.99-2.77.2.25-.81,1.61-2.06.55-2.67-5.79,3.94,2.39-5.04-4.01-2.08-3.07-.76,2.25-1.79,1.36-3.34-.06-.95-.51-1.31-1.4-1.52-6.37-1.6-11.62-5.97-16.56-10.1-5.03,3.25-8.82,11.41-11.92,17.09.07,1.69-5.18-2.08-4.43-2.05,5.3-3.73,6.5-10.24,8.28-16.05.63-1.97-1.37.75-2,1.19-4.47,3.32-6.43,8.85-9.93,12.77-7.71-3.75,1.09-3.23,3.24-11.83,6.37-11.51-1.1-11.35,2.63-20.67,2.67-4.23,4.46-8.84,5.66-13.68,1.92-5.99-4.74-2.96-5.56-7-1.59-1.53.36-2.55.87-4.09,1.47-1.18,3.86-1.06,5.37-2.42.42-.34,1.05-1.18.3-1.55-2.08-.84-4.82-6.72-1.06-6.51,5.73.3,4.86,9.3,5.4-1.39,1.47-1.41.24,4.36,3.31,3.67,4.43-1.3,4.33,6.46,8.4,3.3.41-.26.69-.05.6.38,0,2.43-3.64,1.62-3.49,3.5,4.89-.74,5.93,5.76.53,5.41,1.53,10.44,13.6,16.96,21.45,22.9,8.91,5.26,29.63,8.26,22.28,22.96Z" style="fill: #fde27a; stroke-width: 0px;"/>
  </g>
  <g id="b" data-name="UFL start point">
    <rect width="28.35" height="28.35" style="fill: #ed1c24; stroke-width: 0px;"/>
  </g>
</svg>