<?xml version="1.0" encoding="UTF-8"?>
<svg xmlns="http://www.w3.org/2000/svg" width="116.09mm" height="128.5mm" viewBox="0 0 329.08 364.25">
  <g id="a" data-name="UFO flying">
    <path d="M222.96,60.57c-.33-1.21-1.02-2.48-1.91-3.35-1.1-1.07-2.65-1.68-3.9-2.63-3.79-2.91-8.48-2.83-12.81-3.9-2.56-.64-5.18-1.01-7.77-1.5-.1-.67-.05-1.4-.31-2-1.27-2.97-2.61-5.9-3.94-8.84-.64-1.43-1.06-3.06-2.03-4.22-1.71-2.05-3.84-3.76-5.67-5.72-2.55-2.72-5.74-4.52-9.08-5.86-3.15-1.27-6.57-1.91-9.9-2.71-1.42-.34-3.01-.1-4.34-.6-3.13-1.17-6.32-.97-9.55-1.06-1.82-.05-3.61-.76-5.42-1.17h-2.27c-.82.26-1.63.66-2.47.74-1.69.17-3.39.2-5.09.21-.38,0-.77-.31-1.15-.48-2.13.19-4.27.25-6.37.6-3.04.51-6.04,1.27-9.07,1.87-4.86.96-9.26,2.77-13.66,5.26-5.87,3.32-9.47,8.27-12.55,13.74-1.83,3.25-2.68,7.05-3.97,10.6h0c-2.88.45-5.78.77-8.62,1.38-3.12.67-6.25,1.42-9.24,2.5-1.92.69-3.66,1.96-5.36,3.13-.67.46-.89,1.58-1.56,2.02-1.85,1.21-1.32,3.13-1,4.49.25,1.06,1.8,2,2.98,2.61,1.17.61,2.56.89,3.89,1.05,2.55.31,5.13.3,7.67.67,1.77.26,3.42.07,5.14-.05,1.29-.09,2.99-.01,4.48.24,1.83,1.34,2.54,3.58,4.7,4.88,4.13,2.5,8.12,2.65,12.51,1.3,3.69-1.14,7.26-2.41,9.98-5.32.79.02,1.58.03,2.37.05,1.13.11,2.26.33,3.39.31,3.3-.05,6.59-.2,9.88-.31.97.99,1.82,2.17,2.94,2.94,1.97,1.36,4.05,2.59,6.2,3.63.65.32,1.68-.2,2.55-.26,1.99-.16,4.01-.14,5.97-.46,1.32-.21,2.54-1.08,3.85-1.28,3.16-.48,5.31-2.33,7.1-4.76.95.18,1.9.53,2.85.52,2.83,0,5.67-.16,8.5-.25,1.51-.06,3.03-.12,4.54-.18,1.86,1.4,3.17,3.51,5.73,4.01,1.65.32,3.18,1.41,4.82,1.59,2.48.27,5.02.13,7.53,0,2.71-.15,4.77-1.8,6.68-3.5.87-.78,1.42-1.92,2.12-2.89.56-.11,1.17-.42,1.67-.29,2.64.74,5.3.33,7.91.08,2.46-.24,4.86-1.02,7.3-1.5,2.75-.54,4.44-2.73,3.74-5.33ZM166.12,32.03c1.18-1.06,2.96-1.44,4.46-2.13,3.79.54,6.54,3.64,5.99,6.69-.33,1.83-1.17,3.49-2.69,3.99-2.41.8-5.05.68-7.18-1.12-2.66-2.25-3.23-5.06-.58-7.43ZM137.56,32.55c.09-2.95,2.84-5.33,6.04-5.18,3.4.16,6.49,3,6.37,6.35-.1,2.89-2.65,5.15-5.61,5.07-5.02-.13-6.94-1.89-6.8-6.24ZM111.8,32.6c.97-1.18,2.22-2.7,4.56-2.2,1.98.42,3.93.48,5.18,2.34.39.58.71,1.2.79,1.34,0,4.12-3.63,7.3-7.03,6.91-2.35-.27-3.37-1.64-4.68-3.57-1.74-2.56.26-3.7,1.18-4.83Z" style="fill: #fff; stroke-width: 0px;"/>
  </g>
  <g id="b" data-name="UFL start point">
    <rect width="28.35" height="28.35" style="fill: #ed1c24; stroke-width: 0px;"/>
  </g>
</svg>