<?xml version="1.0" encoding="UTF-8"?><svg id="a" xmlns="http://www.w3.org/2000/svg" width="5.08mm" height="128.52mm" viewBox="0 0 14.4 364.32"><path d="M14.4,98.16v9.84c-1.54,2.75-2.68,5.97-3.6,9-3.05,9.97-4.13,21.5-3.61,31.93.06,1.19.23,3.91.61,4.91.58,1.53,2.97.26,4.2.23-.17-.35-.24-.66-.26-1.06-.25-8.17.07-17.1,1.25-25.17.31-2.09.62-4.46,1.4-6.4v5.52c-.35.74-.52,1.77-.65,2.59-1.1,7-1.39,15.67-.53,22.71.09.71.36,1.69,1.18,1.82v3.6c-4.84,0-9.69.6-14.4,1.68v-3.6l1.68-.36c.01-.58-1.24-1.82-1.68-2.28v-1.68c.86.54,1.35,1.73,2.03,2.41.43.43,2.49,2.2,2.52.85.05-1.6-3.76-7.9-4.55-9.74v-3.12l4.08,9.36c-.78-8.88,1.76-18.45-4.08-26.16v-1.68c1.96,2,3.02,4.92,4.2,7.44l1.55-7.31c-1.49-3.09-3.82-5.72-5.75-8.53v-3.6l5.75,9.01.49-.02c1.14-2.25-.43-6.29-1.26-8.57-1.31-3.63-3.11-7.14-4.98-10.5v-3.6c3.49,4.98,5.3,10.91,7.44,16.56l2.65-5.87c-2.58-6.62-6.53-12.7-10.09-18.85v-2.16c2.54,3.66,4.25,7.85,6.35,11.77.79,1.48,3.15,6.29,4.08,7.2.1.1.26.31.36.23l3.12-5.89c-1.9-5.65-4.68-11.43-7.55-16.67-1.83-3.35-3.88-6.69-6.37-9.59v-2.16c6.63,7.49,9.92,17.13,14.4,25.92Z"/><path d="M14.4,52.56v2.4l-6.6-1.92h-3.48c-.05.42.54.23.84.24.63.02,1.27-.05,1.9.02,2.66.47,4.88,2.12,7.35,3.09v1.68l-9.36-4.2c2.19,3.08,6.15,4.37,9.36,6.12v.96l-3.84-1.56c.91,1.77,2.51,3.2,3.84,4.68v4.56c-4.17-5.09-8.7-10.02-14.4-13.44v-6.24c4.66,1.65,9.41,3.22,14.4,3.6Z"/><path d="M14.4,308.64v2.4c-3.28-1.03-6.55-2.4-10.08-1.92-.03.29.4.35.48.48.1.16.08.43.34.73,2.41,2.68,6.27,3.88,9.26,5.75v.72l-3.84-1.32c.99,1.65,2.39,3.21,3.84,4.44v4.56c-.51.12-.51-.29-.73-.58-3.75-4.9-8.32-9.5-13.67-12.62v-6.24c4.71,1.52,9.43,3.1,14.4,3.6Z"/><path d="M14.4,312.48v1.44l-9.6-4.32c.09-.41.75-.23,1.08-.24,3.31-.11,5.64,1.84,8.52,3.12Z"/><path d="M14.4,354.24v10.08h-4.32c-.74-2.24-1.96-4.54-3.08-6.64-2.17-4.1-4.55-8.14-7-12.08v-2.4l10.32,19.2.49-.15,3.1-5.5c-2.01-5.98-4.92-12.13-8.03-17.63-1.69-2.99-3.55-6.11-5.89-8.63v-2.16c6.69,7.43,9.95,17.13,14.4,25.92Z"/><path d="M14.4,253.68v2.16c-4.32-.22-9.67,2.54-11.8,6.32-4.2,7.46,5.36,16.04,11.8,18.4v1.2c-5.94-2.16-11.69-6.38-14.4-12.24v-6.96c2.99-5.07,8.31-8.99,14.4-8.88Z"/><path d="M11.52,0c-2.82.81-5.71,2.21-7.69,4.43-6.81,7.68,3.36,17.55,10.57,20.05v1.44c-5.9-2.48-11.51-6.37-14.4-12.24v-6.96C1.38,3.87,3.61,1.97,6,0h5.52Z"/><path d="M14.4,296.88v2.64l-4.08.48c-.3.4,3.45,2.07,4.08,1.68v1.68l-14.4-7.44v-2.64l7.86,5.22c.53.19,5.33.02,5.34-.3-4.62-2.21-9.05-4.81-13.2-7.8v-2.16c4.55,3.24,9.06,6.76,14.4,8.64Z"/><path d="M14.4,40.8v2.64l-4.08.48c.88,1.23,2.67,1.56,4.08,1.92v1.44L0,39.84v-2.4c2.32.83,6.53,5.16,8.79,5.28.49.03.81-.24.93-.24h3.96L0,34.56v-2.16c4.7,2.94,9.02,6.74,14.4,8.4Z"/><path d="M14.4,244.08v1.44c-2.72-.42-5.06,1.15-7.36,2.36s-4.71,2.75-7.04,4.12v-2.16c2.72-1.98,5.74-3.49,8.88-4.68-3.6-.9-4.62-5.68-8.88-4.44v-1.68c1.71-.56,3.48-.35,4.92.72,1.3.97,1.84,2.56,3.39,3.33,1.81.9,4.11.8,6.09.99Z"/><path d="M14.4,183.6v5.76c-2.09-1.06-3.34-3.13-5.65-3.83-2.96-.89-5.74-.26-8.75-.25v-1.92c2.76-.2,5.5-.61,8.29-.49l6.11.73Z"/><path d="M14.4,33.36v1.68c-5.6-.16-10.08-2.69-14.4-6v-2.16c4.37,2.98,9.34,4.97,14.4,6.48Z"/><path d="M14.4,289.2v1.92c-1.13-.44-2.5-.32-3.65-.55-4.09-.8-7.37-3.19-10.75-5.45v-2.16c4.42,2.81,9.26,5.09,14.4,6.24Z"/><path d="M14.4,87.12v1.92l-4.7-8.14c-2.61-3.66-5.35-8.22-8.61-11.31-.35-.33-.57-.54-1.09-.47v-2.4c.73.15,1.32.91,1.8,1.44,5.2,5.62,9.06,12.22,12.6,18.96Z"/><path d="M14.4,342.96v1.92c-1.62-2.26-2.76-4.82-4.22-7.18-2.86-4.64-6.19-9.27-10.18-12.98v-2.16c3.93,3.58,7.29,8.1,10.03,12.65,1.53,2.54,2.72,5.32,4.37,7.75Z"/><path d="M14.4,259.92v1.68c-.61.01-1.2.29-1.73.55-6.59,3.21-2.4,9.05,1.73,12.17v1.44c-3.17-1.5-6.81-5.57-6.74-9.24.06-3.32,3.42-6.59,6.74-6.6Z"/><path d="M14.4,3.84v1.68c-8.2,2.11-5.28,9.2,0,12.72v1.68c-3.98-2.5-8.26-6.85-6.05-11.93,1.07-2.45,3.44-3.88,6.05-4.15Z"/><path d="M14.4,209.52v2.16c-4.69-1.14-9.62-1.21-14.4-.72v-1.92c4.77-.94,9.66-.36,14.4.48Z"/><path d="M14.4,75.36v1.68c-.51.12-.51-.29-.73-.58-4.08-5.32-8.34-10.18-13.67-14.3v-1.68c1.25.69,2.55,1.8,3.6,2.76,4.01,3.65,7.49,7.84,10.8,12.12Z"/><path d="M14.4,331.2v1.92c-2.55-2.84-4.76-6.02-7.43-8.77-2.11-2.17-4.59-4.23-6.97-6.11v-1.92c2.3,1.54,4.08,3.68,6.25,5.39l8.15,9.49Z"/><path d="M14.4,30.72v1.2c-4.12-1.26-8.1-3.03-11.6-5.56-.95-.69-1.77-1.63-2.8-2.12v-2.64c4.09,4.12,8.92,7.19,14.4,9.12Z"/><path d="M14.4,286.56v1.2c-5.31-1.23-10.29-4.13-14.4-7.68v-2.4c4.15,3.86,8.86,7.34,14.4,8.88Z"/><path d="M14.4,172.08v1.44c-1.09-.34-2.17-.16-3.25-.23-.31-.02-.63-.25-.71-.25H2.04c-.38,0-1.39.49-2.04.24v-1.92c4.81-.4,9.66-.17,14.4.72Z"/><path d="M14.4,197.04v1.68c-4.78-.73-9.55-1.18-14.4-.96v-1.68c4.84-.19,9.63.21,14.4.96Z"/><path d="M14.4,165.36v1.68c-.92-.05-1.85.07-2.77,0-.31-.02-.63-.25-.71-.25H3.48c-.08,0-.4.23-.71.25-.92.06-1.85-.06-2.77,0v-1.68c1.32-.05,2.65.07,3.97,0,.31-.01.62-.25.71-.25h7.44c.45,0,1.57.49,2.28.24Z"/><polygon points="14.4 160.56 14.4 162.24 0 162.72 0 161.04 14.4 160.56"/><path d="M14.4,230.16v1.44c-2.46-.27-4.82-.6-7.3-.22s-4.7,1.65-7.1,2.38v-1.68c4.49-2.32,9.46-2.53,14.4-1.92Z"/><path d="M14.4,194.64v1.2c-4.71-1.22-9.47-2.61-14.4-2.4v-1.68c4.92.01,9.81,1.2,14.4,2.88Z"/><path d="M14.4,233.04v2.64c-.62-.43-2.34.4-1.54.98l1.54.46v2.4c-6.82-.24-5.78-5.71,0-6.48Z"/><path d="M14.4,170.4v1.2l-11.4-.98-3,.26v-1.44c4.83-.21,9.61.47,14.4.96Z"/><path d="M14.4,203.28v1.2c-4.77-.61-9.67-.8-14.4.24v-1.44l3.24-.48h8.4l2.76.48Z"/><path d="M5.28,364.32h-1.92c-.86-2.35-1.87-4.95-3.36-6.96v-3.6c2.45,3.13,3.78,6.93,5.28,10.56Z"/><path d="M14.4,224.64v1.2c-4.85-.75-9.68-.75-14.4.72v-1.2c4.77-1.25,9.52-1.51,14.4-.72Z"/><path d="M14.4,177.36v.72c-4.81-.25-9.61-.79-14.4,0v-.96c.68-.04,1.37.07,2.05,0,.31-.03.63-.25.71-.25h7.68c.08,0,.4.23.71.25,1.08.08,2.16-.11,3.25.23Z"/><path d="M14.4,181.2v.72l-7.31-.73c-2.37,0-4.75.19-7.09.49v-1.2h6.61s7.79.72,7.79.72Z"/><path d="M14.4,218.88v.48c-4.84-.65-9.66-.09-14.4.96v-.72c4.72-.98,9.61-1.31,14.4-.72Z"/></svg>