<?xml version="1.0" encoding="UTF-8"?><svg id="a" xmlns="http://www.w3.org/2000/svg" width="5.08mm" height="128.52mm" viewBox="0 0 14.4 364.32"><path d="M.07,51.6c.72,1.16,1.55.79,2.51,1.44,2.14,1.45,1.33,3.75,1.56,5.88.25,2.38.92,4.71,1.19,7.08.41.06.25-.57.23-.83-.05-.65-.24-1.18-.24-1.92,0-.28-.16-.91.24-.84,3.29,10.81,9.01,21.73,6.1,33.36-1.56,6.22-6.23,12.43-11.59,15.84v-6.48c7.74-7,10.4-17.45,8.53-27.65l-2.55-9.07c1.52,7.91,3.82,16.37,1.43,24.36-1.28,4.27-4.15,8.43-7.41,11.4v-12.48c3.35-5.6,3.57-12.2,3.34-18.6l-2.15-15.96C.23,68.14,5.88,79.98.07,90.24v-38.64Z"/><path d="M.07,307.68c.48.05.63.83.75.91.04.03.51-.18.86-.04,3.09,1.18,2.17,3.71,2.45,6.21s.93,4.86,1.19,7.32c.41.06.25-.57.23-.83-.05-.65-.24-1.18-.24-1.92,0-.27-.16-.91.24-.84,3.57,11.38,9.72,23.23,5.44,35.34-1.43,4.03-3.9,7.3-6.63,10.5H.07v-3.6c1.07-.04,1.96-1.48,2.62-2.29,5.49-6.72,7.37-15.11,6.15-23.69l-2.8-10.5c1.68,8.84,4.19,17.95.66,26.7-1.41,3.49-3.98,6.69-6.63,9.3v-12.72c1.09-1.41,1.8-3.56,2.27-5.28,1.23-4.46,1.17-8.72,1.07-13.32l-2.15-15.96c-1.05,11.11,4.61,22.96-1.2,33.36v-38.64Z"/><path d="M14.4,254.88c-7.66,12.24-15.91,34.65,0,43.92v1.68c-5.16-2.24-10.47-6.8-12.7-12.08-.74-1.76-1.08-3.63-1.63-5.44.15-2.17-.2-4.59,0-6.72.67-7.11,5.55-16.35,9.6-22.16,1.4-2.01,2.87-4.09,4.73-5.68v6.48Z"/><path d="M13.68,0c-7.25,12.07-14.82,33.89.72,42.72v1.68c-1.68-.46-3.43-1.66-4.85-2.68C4.42,38.03,1.18,33.19.07,26.88c.16-2.16-.21-4.6,0-6.72.12-1.23.73-3.53,1.08-4.8C2.61,9.92,5.37,4.68,8.43,0h5.25Z"/><path d="M14.4,235.44v6.24l-3,2.41c-1.82-1.07-3.06-1.13-5.12-.73l3.1.6,1.43.96c-3.97,4.2-7.66,8.65-10.74,13.56v-9.84c1.32-1.66,2.56-3.08,4.3-4.32-1.78.49-2.93,2.22-4.3,3.36v-8.4c4.14-3.09,9.13-5.1,14.33-3.84Z"/><path d="M14.4,222.96v5.28c-2.34-.08-4.66.01-6.93.6l6.93-.12v6.24c-5.06-.95-10.08.69-14.33,3.36v-12.24c4.47-2.12,9.34-3.35,14.33-3.12Z"/><path d="M14.4,81.12v18.72c-2.66,6.27-5.89,12.54-11.22,16.92-.89.73-2.02,1.69-3.11,2.04v-6.48c11.01-7.02,15.1-18.97,12.3-31.68-1.66-7.56-6.4-15.12-7.02-22.95-.06-.74-.27-2.73.93-2.4,1.85.51,1.29,2.51,1.46,3.84.94,7.62,4.24,14.79,6.66,21.99Z"/><path d="M.07,152.4c6.73,4.6,13.12,12.56,12.18,21.24-.39,3.64-3.39,4.2-6.45,4.68v-3.96c0-.8-.86-3.68-1.19-4.57-.9-2.44-2.5-4.99-4.54-6.59v-5.04c2.77,1.71,4.42,3.97,6.35,6.46.08.1.47.69.58.38-1.43-3-4.03-5.69-6.93-7.32v-5.28Z"/><path d="M14.4,145.68v4.32c-2.05-.99-3.81-3.66-5.73-4.68-.38-.2-.55-.24-.48.24l6.21,6.12v6c-.54.03-.62-.36-.87-.69-3.82-5.21-8.03-9.23-13.47-12.75v-8.64l.96-.37,13.37,10.45Z"/><path d="M14.4,337.2v18.48l-4.06,8.64h-5.02c.61-1.22,1.77-2.16,2.59-3.28,4.2-5.74,5.77-12.28,5.29-19.4-.55-8.11-4.94-15.31-6.86-23.11-.34-1.39-1.57-6.05-.81-7.11.52-.51,1.99.52,2.13.99.19,8.69,4.07,16.7,6.73,24.79Z"/><path d="M14.4,160.08v15.12l-1.67.48c1.62-10.08-4.04-20.08-12.66-24.96v-6c4.02,2.87,7.83,6.4,10.84,10.34,1.24,1.62,2.22,3.42,3.49,5.02Z"/><path d="M14.4,113.28v6.24c-4.28,3.72-9.09,6.91-14.33,9.12v-4.8c3.54-1.79,7.05-3.95,10.04-6.6,1.42-1.26,2.63-3.07,4.3-3.96Z"/><path d="M14.4,244.32v2.88c-1.99,1.83-3.79,4.27-5.35,6.51-3.93,5.65-7.05,11.82-8.98,18.45v-10.08c3.52-6.37,8.03-12.23,13.37-17.16.29-.27.49-.6.96-.6Z"/><path d="M14.4,207.36v5.52c-4.85-.51-9.75.3-14.33,1.92v-5.04c4.59-1.63,9.43-2.65,14.33-2.4Z"/><polygon points="14.4 192.72 14.4 197.28 8.31 196.8 .07 197.52 .07 192.48 6.41 191.99 14.4 192.72"/><path d="M14.4,28.32v6.72c-1.53-.74-7.11-3.01-7.7-4.38-.16-.37-.15-.63-.19-1.01-.11-1.15.12-3.59.25-4.81.14-1.33.36-2.68.72-3.96l6.92,7.44Z"/><path d="M14.4,284.16v6.72c-1.98-.62-4.24-1.61-5.95-2.78-.98-.67-1.82-1.1-1.94-2.37-.12-1.18.12-3.56.25-4.81s.25-2.88.83-3.96c.5,0,5.33,6.98,6.81,7.2Z"/><path d="M14.4,121.2v5.28c-4.52,2.95-9.23,5.62-14.33,7.44v-4.08c2.32-.97,4.61-2.12,6.76-3.41,2.65-1.58,5.02-3.52,7.57-5.23Z"/><path d="M14.4,111.12c-3.85,4.84-8.88,8.46-14.33,11.28v-2.64c4.74-2.69,8.51-6.91,11.33-11.54,1.05-1.72,1.78-3.69,3-5.26v8.16Z"/><path d="M14.4,217.92v4.08c-4.94-.22-9.91.97-14.33,3.12v-4.8c4.53-1.83,9.45-2.54,14.33-2.4Z"/><path d="M14.4,53.28v4.08c-5.16-1.71-9.75-4.59-14.33-7.44v-4.32c4.52,3.01,9.4,5.41,14.33,7.68Z"/><path d="M14.4,309.12v4.08c-5.21-1.43-9.88-4.45-14.33-7.44v-4.08c4.63,2.75,9.24,5.6,14.33,7.44Z"/><path d="M14.4,202.08v3.84c-4.9-.25-9.71.89-14.33,2.4v-4.56c4.68-1.23,9.47-1.95,14.33-1.68Z"/><path d="M14.4,140.88c-1.36-.39-8.38-6.88-8.37-7.56.4-.6,2.24-1.98,2.87-2.17.86-.26,1.43-.09,2.16.37-.15-1.95,1.99-2.55,3.35-3.36v12.72Z"/><path d="M.07,163.92c2.61,2.31,4.17,5.64,4.71,9.07.48,3.02,1.07,7.45-3.25,7.23-.45-2.38-.32-4.96-1.46-7.17v-9.12Z"/><polygon points="14.4 177.6 14.4 180.48 .07 186.72 .07 183.6 14.4 177.6"/><path d="M14.4,214.32v2.64c-4.88-.22-9.79.34-14.33,2.16v-3.6c4.67-1.17,9.53-1.98,14.33-1.2Z"/><path d="M14.4,46.32v1.44c-5.84-1.45-10.43-5.7-14.33-10.08v-6.24c2.49,6.92,7.97,11.62,14.33,14.88Z"/><path d="M14.4,302.16v1.68c-5.75-1.74-10.66-5.62-14.33-10.32v-6.24c2.33,6.83,7.89,11.98,14.33,14.88Z"/><path d="M7.47,0C4.34,5.03,1.81,10.39.07,16.08V6L3.65,0h3.82Z"/><path d="M14.4,198.72v2.16c-4.88-.27-9.64.35-14.33,1.68v-3.6c4.73-.8,9.59-1.01,14.33-.24Z"/><path d="M14.4,141.84v2.88l-12.16-9.69c.09-.5,2.38-1.95,3.02-1.42l9.14,8.22Z"/><path d="M14.4,282.96c-.58-.05-.95-.56-1.32-.96-2.71-2.98-6.64-7.23-3.95-11.37l.49-.15c.94,1.8,2.35,3.78,3.77,5.22.32.33.36.68,1.01.54v6.72Z"/><path d="M14.4,20.64v6.48c-3.16-3.26-8.38-7.81-5.14-12.72l5.14,6.24Z"/><path d="M14.4,8.16v10.8c-.51-.05-1.11-.93-1.43-1.33-.64-.8-3.31-4.29-3.32-5.03l2.61-6.36c.52-.38,1.63,1.77,2.15,1.92Z"/><path d="M14.4,274.8c-.57-.04-.85-.47-1.19-.85-.61-.69-3.55-4.65-3.59-5.29l2.65-6.32.65.02,1.47,1.87v10.56Z"/><path d="M14.4,68.64v7.92c-.52-.3-.69-1.08-.89-1.62-1.66-4.42-3.73-10.07-4.49-14.69-.2-1.19-.51-2.45-.1-3.61,1.7.39,1.28,2.79,1.66,4.21.66,2.51,2.57,5.5,3.83,7.79Z"/><path d="M14.4,324.72v7.68c-.66.14-.45-.34-.59-.72-1.74-4.57-3.58-9.61-4.55-14.4-.14-.69-1.06-4.39-.23-4.56,1.26-.26,1.25,3.16,1.42,3.84.64,2.59,2.76,5.72,3.95,8.16Z"/><path d="M14.4,49.92v1.92c-5.19-1.61-9.75-4.81-14.33-7.68v-3.6c4,4.31,8.97,7.08,14.33,9.36Z"/><path d="M14.4,305.76v2.16c-5.18-1.8-9.89-4.76-14.33-7.92v-3.6c3.76,4.39,8.94,7.41,14.33,9.36Z"/><polygon points="14.4 181.68 14.4 183.84 .07 190.32 .07 187.68 14.4 181.68"/><path d="M14.4,184.8v5.52c-3.66.69-7.53-1.21-11.23-.24l11.23-5.28Z"/><path d="M14.4,36.24v4.56c-1.74-.35-7.36-6.48-7.17-7.8.06-.42.37-.27.64-.17,2.02.72,4.26,2.9,6.53,3.41Z"/><path d="M14.4,292.32v4.32c-.68.04-1.3-.56-1.78-.97-1.01-.84-5.59-5.48-5.38-6.59l.73-.27,6.43,3.5Z"/><path d="M14.4,60.72v4.8c-.58.13-.49-.3-.67-.63-.58-1.08-2.51-5.21-2.44-6.21.02-.29.11-.47.4-.57,1.51-.51,1.78,1.88,2.71,2.61Z"/><path d="M14.4,316.8v4.8c-.98-1.36-3.12-5.25-3.12-6.85,0-2.6,2.9,1.24,3.12,2.05Z"/><path d="M14.4,359.04v5.28h-3.11c.97-1.46,1.62-3.1,2.43-4.65.18-.34.09-.76.67-.63Z"/><path d="M14.4,258.96v3.84c-.64.11-1.21-1.68-1.21-2.04,0-.46.55-1.86,1.21-1.8Z"/><path d="M14.4,6.72c-.58.13-.5-.29-.67-.63-.76-1.47-.71-2.15.67-3.21v3.84Z"/><polygon points="1.74 0 .07 2.4 .07 0 1.74 0"/><path d="M.07,180.72v-4.08c.38,1.16.95,3.07,0,4.08Z"/></svg>