<?xml version="1.0" encoding="UTF-8"?><svg id="a" xmlns="http://www.w3.org/2000/svg" width="60.62mm" height="128.49mm" viewBox="0 0 171.84 364.23"><path d="M2.4,0c-.1,9.81,4.25,17.95,9.64,25.75s11.41,15,20.71,17.44c.32-.12-.28-.49-.38-.58-5.36-4.42-8.82-7.84-12.75-13.65C13.94,20.57,8.3,10.38,8.16,0h1.44c.7,12.19,6.72,24.44,18.12,29.76.15-.2-.36-.77-.5-.94-.89-1.11-1.87-2.14-2.69-3.31-5.26-7.43-8.02-16.43-8.44-25.51h.96c-.3,5.58,1.8,11.24,3.97,16.31,3.1,7.27,7.19,13.37,14.27,17.28.1-.47-.11-.65-.35-.97-.78-1.06-2.42-2.28-3.38-3.34-4.05-4.49-8.63-10.34-10.08-16.32-.99-4.11-.93-8.76-.6-12.96h1.44c.04,4.24-.28,8.42.74,12.58,2.05,8.39,10.96,18.14,17.63,23.41,1.64,1.29,9.02,6.67,10.59,6.72.48.01.82-.23.92-.23h3.72l-8.86-4.94C34.71,29.47,20.12,16.51,24.24,0h1.92l-.7,5.42c-.15,16.44,20.66,31.81,34.65,36.81,8.76,3.13,18.6,4.66,26.36,10.12,2.53,1.78,4.66,4.16,7.25,5.87.51-.24,3.12-1.36,2.99-1.94-3.86-5.08-8.41-7.63-14.34-9.67-6.22-2.14-14.52-3.26-20.21-5.95-1.87-.88-5.42-2.85-4.83-5.25l-.2-.28c-1.41-.4-2.98-.36-4.38-.66-8.4-1.76-19.7-12.89-22.14-21.06-1.35-4.52-.79-8.88.11-13.43h1.68c-.86,4.26-1.31,9.41-.06,13.62,3.03,10.22,13.44,16.53,23.16,19.32,2.48.71,5.35.89,7.62,1.74,3.19,1.19,5.77,4.21,8.57,6.07,3.51,2.33,7.5,2.91,11.42,4.42,3.61,1.4,8.64,3.69,11.57,6.18.97.83,3.13,3.84,4.08,3.85,1.27.01,2.89-.7,2.42-2.19-.66-2.1-6.32-6.92-8.37-7.95-3.94-1.98-8.26-1.59-11.99-3.13-5.65-2.33,1.32-10.07,2.51-13.46,4.19-11.9-11.6-27.07-22.6-28.48h6.96c10.06,5.62,20.2,15.88,17.31,28.46-.31,1.34-.9,2.98-1.58,4.18-.21.37-4.8,6.15-3.6,6.23,3.37-1.08,4.47-2.75,8.37-2.37,1.61.16,3.16,1.01,4.71,1.05-3.83-9.95-4.91-21.52-12.11-29.88-2.29-2.66-5.32-4.94-7.56-7.67h2.88c1.65,2.28,4.79,4.54,6.34,6.73,2.26,3.18,5.52,9.26,6.73,12.94,1.47,4.45,2.23,9.15,3.66,13.62,1,3.11,1.5,5.03,4.03,7.25,2.93,2.57,6.76,4.26,8.99,7.69-.25-2.8-3.35-4.46-4.9-6.5-3.45-4.54-4.99-13.21-7.22-18.69-3.49-8.56-8.72-16.5-15.24-23.04h1.68c5.69,6.21,9.72,13.35,13.24,20.95,2.38,5.13,4.24,10.62,6.64,15.68,1.35,2.85,2.89,5.9,5.92,7.28.21-.42-.21-1.13-.35-1.57-4.28-12.73-9.4-28.05-17.77-38.62-1-1.27-2.26-2.34-3.11-3.73h2.4l5.86,8.18c7.71,13.03,12.49,27.61,16.67,42.12l.39.35c.71.1,4.9-1.57,4.94-1.85-3.93-13.92-9.59-27.38-17.2-39.66l-6.34-9.14h1.2c11.06,14.16,18.44,30.79,23.41,48,1.02-.2,6.85-2.13,7.04-2.81-.41-1.92-1.22-3.72-1.79-5.59-1.35-4.46-2.66-8.12-4.63-12.41-4.42-9.64-9.91-18.79-16.36-27.19h1.92c2.23,3.31,4.67,6.48,6.82,9.86,5.52,8.68,9.1,16.53,12.5,26.14,1.02,2.89,2.11,5.86,3.38,8.61,1.08-.36,3.06-.87,2.97-2.22-.07-1.09-1.28-3.82-1.73-5.01-4.05-10.66-9.07-21.22-15.3-30.78-1.46-2.24-3.1-4.36-4.56-6.59h1.2c2.33,3.32,4.68,6.64,6.82,10.1,2.8,4.53,5.27,9.02,7.22,13.9,2.48,6.21,4.84,12.47,7.21,18.72.96-.38,5.62-2.33,5.85-3.05l-.02-.62c-3.13-7.17-5.61-14.69-9.43-21.54-1.34-2.4-2.8-5.04-4.19-7.33-2.11-3.48-4.62-6.71-6.74-10.18h3.36c.96,1.95,2.41,3.6,3.56,5.44,3.8,6.03,7.42,12.31,10.4,18.88,2.07,4.56,3.77,9.31,5.82,13.87.82.67,4.45-1.26,5.31-1.95l.02-.48c-4.7-12.38-9.67-24.78-17.19-35.74h1.92c6.77,10.7,11.75,22.39,15.96,34.31.55.1.3-.24.39-.56,2.21-7.62,2.12-8.92-.88-16.23-2.47-6.03-5.75-11.89-8.99-17.52h2.16c3.35,5.43,6.68,10.92,8.82,16.98.4,1.14.62,2.46,1.04,3.52.1.25.09.58.46.62.21-2.2,1.43-4.49,1.62-6.67.14-1.68-1.66-4.41-2.54-5.97-1.63-2.9-3.57-5.66-5.32-8.48h2.16l5.88,9.84,1.58-6.12-1.69-3.72h5.04l-6.84,35.51c1.33-.43,4.04-.15,4.57-1.67,2.09-11.26,2.78-22.79,5.87-33.84h1.68c-3.12,10.93-2.86,22.52-5.75,33.5l.21.71.62.33c.29-.02.55-.11.78-.3.98-.83,2.5-6.51,2.88-8.03,2.16-8.62,2.85-17.56,4.87-26.2h.96l-6.84,34.08c1.65-.54,3.9.14,5.17-1.31,1.04-1.19,1.75-5.35,2.07-7.05,1.62-8.53,1.9-17.34,4.4-25.72h2.4c-4.17,10.41-4.14,21.83-6.72,32.63l8.4-1.2v2.16c-8.39,1.39-17.19,3.98-24.31,8.68-1.39.92-2.98,2.02-4.01,3.31,9.34-3.15,18.49-7.16,28.32-8.64v.96c-7.61,1.66-14.89,4.38-22.07,7.33-11.47,4.7-23.49,10.11-34.65,15.5-4.13,1.99-8.36,3.93-12.09,6.63-12.06,8.74-21.83,28.23-27.54,41.81-4.58,10.89-12.09,32.21-9.67,43.72.52,2.49,2.47,1.73,4.5,1.86v-9.25c.52-14.63,6.52-28.63,12.44-41.78,7.55-16.78,17.26-34.34,35.5-41.05,7.03-2.58,14.1-4.52,20.86-7.94,4.18-2.11,7.68-4.96,11.68-7.28,6.47-3.76,13.61-6.53,21.04-7.64v1.68c-16.6,2.99-29.57,15-45.42,19.98-6.95,2.18-11.25,2.89-17.44,7.28-14.98,10.62-27.19,37.07-33.15,54.2-3.66,10.51-5.1,20.98-4.1,32.12l4.58.87c-.88-13.99.68-28.79,8.21-40.86,2.59-4.15,5.84-7.87,8.24-12.16,5.91-10.6,6.72-23.53,17.6-30.87,12.62-8.5,27.86-9.97,40.75-17.32,6.65-3.79,12.87-8.96,20.72-10.12v.96c-11.73,2.72-20.23,11.36-31.49,15.42s-29.71,8.06-36.77,19.39c-3,4.81-4.34,10.38-6.51,15.57-5.81,13.92-16.65,22.81-19.04,38.55-.85,5.63-1.71,14.31-1.24,19.89.26,3.14,2.24,2.48,4.81,2.75-.41-4.56-.88-9.42-.17-13.97,1.99-12.78,16.29-37.03,23.17-48.82,7.65-13.1,13.28-19.51,26.76-26.75,12.55-6.74,26.42-12.27,40.48-14.84v2.4c-15.86,3.31-32.46,9.52-46.06,18.38-10.67,6.94-16.16,15.8-22.38,26.57-5.44,9.43-11.01,19.78-15.36,29.75-4.14,9.49-5.63,14.34-5.01,25.01.04.71.19,2.6.6,3,.44.43,3.78,1.49,4.22,1.18-3.34-15.55,4.19-30.41,11.48-43.59s16.56-27.67,28.01-36.54c12.86-9.96,28.47-16.8,44.51-19.69v.96c-14.18,2.73-28.63,8.71-40.4,17.08-13.64,9.69-24.88,27.96-32.69,42.66-5.33,10.03-11.06,20.79-10.43,32.52.06,1.09.63,6.5,1,7.16.34.59,4.78,2.25,4.99,2.08-5.35-16.46,2.48-32.67,10.61-46.62,6.41-11,15.49-24.75,25.42-32.66,11.73-9.34,26.82-15.71,41.5-18.62v1.2c-14.17,2.71-27.88,8.39-39.34,17.18-7.99,6.13-12.4,12.46-17.98,20.65-10.82,15.88-23.58,34.67-19.65,54.83.2,1,.67,3.7,1.07,4.45.38.71,4.38,2.72,4.62,2.46-.64-5.94-1.34-12.13-.97-18.12.82-13.19,13.82-31.14,21.38-41.97,3.97-5.7,8.96-10.49,14.52-14.75,10.65-8.15,23.32-14.3,36.35-17.53v1.2c-15.58,3.84-30.5,11.71-42.13,22.79-6.57,6.26-11.44,14.21-16.29,21.86s-10.79,16.63-12.31,26.08c-1.13,7.05-.25,14.21.65,21.23l4.56,2.1c-3.55-19.3,5.85-37.27,14.61-53.65.27-.5.26-1.12.53-1.63,9.38-17.61,32.01-27.02,50.37-31.82v1.92c-4.05.78-7.99,2.19-11.82,3.66-13.9,5.33-30.58,14.36-37.75,28.01-8.2,15.61-16.96,33.01-14.73,51.2.42,3.45.37,3.51,3.35,5.29.3.18,2.02,1.2,2.14,1.1-3.58-14.11-.43-28.83,5.24-41.91,5.16-11.91,10.42-21.3,21.09-29.07,9.61-6.99,20.74-12.4,32.48-14.68v.24c-12.79,2.89-24.7,9.06-34.56,17.63-14.5,12.6-25.63,37.85-24.49,57.12.13,2.25,1.24,9.99,2.12,11.8.74,1.52,4.89,3.02,6.29,4.15.28-.38-1.75-6.83-1.99-7.96-3.84-17.89,1.76-36.09,12.12-50.66,9.61-13.52,24.09-23.09,40.52-26.08v.96c-19.4,3.99-34.28,16.35-43.72,33.43-8.35,15.11-10.44,28.86-6.62,45.81.96,4.25,2.86,8.15,7.14,9.78-16.52-34.47,6.7-76.31,43.2-83.74v1.92c-36.55,7.61-59.95,50.28-40.81,84.11l17.53,14.38c-2.46-2.75-5.34-5.04-7.68-7.92-5.26-6.49-8.33-14.28-9.34-22.58-.33-2.71-.81-7.45-.52-10.06.04-.36.05-.74.49-.83.58,8.39,1.37,17.37,5.08,25.04,4.38,9.05,17.25,20.55,26.72,23.91,1,.35,2.96,1.18,3.9.78,1.32-.56,3.24-4.41,4.63-5.34v4.08c-4.93,4.31-7.11,11.03-8.52,17.27-.79,3.51-1.08,7.33-1.97,10.75-1.5,5.74-4.72,11.83-6.73,17.51-4.51,12.78-5.35,26.94-8.46,40.13,1.22-.48,4.03-.26,4.58-1.53,2.26-11,2.75-22.52,5.76-33.36,1.64-5.93,4.4-11.66,5.91-17.6,1.15-4.53,1.78-9.37,2.82-13.97,1.45-6.41,2.91-12.94,6.6-18.47v2.4c-2.48,4.86-3.82,10.47-4.97,15.79-1.05,4.87-1.54,9.95-2.78,14.73-1.39,5.36-3.87,10.37-5.46,15.66-3.37,11.24-3.09,23.21-6,34.56.05.74.89.73,1.44.47,1.01-.46,2.23-5.08,2.57-6.3,2.64-9.49,3.24-19.47,5.51-29.04,1.3-5.49,3.47-10.7,5-16.12,1.63-5.81,2.52-11.86,4.68-17.52v4.08c-1.88,4.6-2.38,9.62-3.72,14.4-1.19,4.24-3.02,8.31-4.26,12.53-1.76,5.95-2.37,12.15-3.61,18.23-1.31,6.44-3.17,12.77-4.25,19.27,3.33.22,5.15.28,6.25-3.11,2.07-6.37,2.24-14.58,3.43-21.29,1.44-8.18,4.1-16.16,6.17-24.18v7.44c-.56,2.16-.93,4.37-1.51,6.53s-1.4,4.11-1.97,6.19c-2.44,8.91-2.74,18.26-4.92,27.23l8.4-1.08v2.16c-10.16,1.5-20.87,5.03-28.56,11.99,9.43-3.12,18.62-7.31,28.56-8.64v.96c-8.96,1.79-17.47,5.28-25.84,8.83-10.6,4.49-21.76,9.41-32.08,14.47-7.35,3.6-12.5,6.48-18.04,12.68-8.75,9.8-14.59,22.48-20.04,34.32h-1.68c5.13-11.77,11.34-24.34,19.69-34.19,8.15-9.62,17.04-13.22,28.15-18.4,4.34-2.02,10.54-4.05,14.45-6.43,2.6-1.58,5.74-4.83,8.3-6.82,2.28-1.77,4.77-3.34,6.94-5.18-8.49.13-13.52,7.36-19.84,11.71s-13.69,6.48-21.08,8.92c-9.1,3-14.28,7.18-20.27,14.53-8.6,10.55-14.76,23.34-19.93,35.86h-1.44c3.98-9.44,8.72-18.86,13.97-27.67,8.32-13.97,13.86-19.63,29.35-25.37,10.17-3.76,17.11-5.66,25.57-13.07.14-.13.81-.63.59-.85-7.37,1.81-13.88,6.02-20.84,8.92-9.17,3.83-20.93,6.29-27.65,14.11-2.34,2.73-3.26,5.67-4.97,8.71-4.83,8.65-11.17,16.89-16.37,25.38-1.94,3.18-3.95,6.39-5.42,9.82h-2.16c4.92-10.98,13.03-20.08,19.3-30.25.84-1.37,3.11-4.79,3.5-6.1s-1.75.78-1.92.96c-8.39,8.75-16.52,18.06-22.35,28.76-1.13,2.08-2.33,4.42-3.08,6.64h-4.08c-.96-2.73-2.42-5.29-3.8-7.84-4.57-8.46-11.36-21.65-18.52-27.79-8.3-7.12-20.53-7.86-30.24-3.24v-1.68c6.52-2.96,15.78-2.84,22.61-.89s11.6,7.37,15.5,13.05c5.68,8.27,9.5,17.78,14.68,26.36l.49-.03,3.04-5.69c-1.82-5.29-4.35-10.6-7.01-15.53-5.83-10.81-12.27-19.64-25.04-22.24-8.2-1.67-16.17-1.09-24.29.65v-1.92c8.81-1.29,18.51-2.24,27.17.31,16.72,4.93,23.34,22.66,29.71,37.12.32.25,2.36-3.26,2.36-3.96,0-.54-.85-2.28-1.12-2.92-4.8-11.03-13.4-23.34-23.58-29.93s-22.99-8.32-34.54-4.22v-1.2c8.42-1.83,16.46-3.02,24.9-.54,17.94,5.25,28.09,21.41,34.86,37.73.27.21,3.46-3.79,3.55-4.4-4.6-11.43-13.01-21.66-22.92-28.91-11.65-8.53-25.96-13.26-40.4-9.64v-1.44c27.26-5.51,48.97,11.75,61.96,33.91.64,1.09,1.57,3.42,2.24,4.24.48.59.97-.98,1-1.35.16-2.46-4.58-11.56-6.06-13.99-8.8-14.35-23.75-23.71-40.34-26.38-6.22-1-12.53-.9-18.8-.52v-1.68c1.01-.17,2.22-.44,3.23-.49,10.02-.53,20.34.54,29.57,4.53l10.16,5.56c-3.27-3.04-7.65-5.34-11.77-7.07-9.87-4.14-20.49-5.71-31.19-5.41v-3.36l3.36-.12c-.02-.66-2.64-3.48-3.36-3.96v-3.6c1.78,1.93,3.27,4.45,5.05,6.35s1.82,1.28,4.24,1.76c.36.07.38.06.31-.32-.11-.68-.85-1.74-1.25-2.35-2.42-3.75-6.03-7.06-8.36-10.96v-4.8c2.92,6.57,7.46,12.18,11.75,17.88,1.87,1.56,6.32.88,8.65,1.79-5.39-6.85-11.67-13.31-15.16-21.43-4.31-10.03-4.55-21.03-2.53-31.64,1.66-8.72,5.2-14.96,11.09-21.55,31.01-34.7,69.77-12.82,95.89,14.51,7.75,8.1,15.58,16.83,21.15,26.6,5.13,9,9.15,18.9,12.44,28.71.4-.07.43-.47.55-.77,2.44-6.48,1.8-9.37-.68-15.54-7.21-17.93-21.47-38.47-36.48-50.63-16.92-13.71-43.51-27.12-65.75-25.68-17.71,1.15-33.13,13.95-40.92,29.27v-4.8c4.67-5.9,9.6-11.78,15.36-16.68,3.52-3,6.61-4.93,10.98-6.53,11.21-4.12,23.59-3.55,35.1-1.02l-6.59-2.64c-10.84-3.24-22.1-2.57-32.37,2.2l-6.15,3.32c7.25-6.8,18.14-9.7,27.97-9.13,14.59.86,39.41,14.26,51.93,22.23,15.86,10.09,28.13,23.75,38.28,39.47,3.78,5.86,7.75,12.32,10.16,18.88.42,1.13.97,3.89,1.38,4.62.06.11.3.31.36.24.1-2.28,1.7-5.11,1.68-7.32,0-1.24-2.2-4.69-2.93-5.95-12.76-22.16-27.89-37.12-47.84-52.71-5.58-4.36-11.24-8.14-17.71-11.09-7.05-3.22-15.26-5.41-21.7-9.74-3.55-2.39-4.75-5.02-9.54-5.34-11.8-.8-26.94,7.83-36,14.9-4.54,3.54-8.59,7.66-12.37,11.99v-3.36c7.78-8.49,18.02-15.74,28.47-20.6,19.63-9.13,36.8-4.55,55.05,5.12,20.02,10.6,37.28,25.83,54.37,40.42l13.67,16.81c.52.09.28-.1.38-.33.79-1.8,1.54-2.16.56-3.97-6.05-11.06-21.17-22-30.94-30.25-20.24-17.1-44.22-33.97-71.99-34.56-18.8-.4-36.91,11.32-49.57,24.24v-1.68c9.3-9.8,20.92-16.9,33.6-21.48-1.25-2.55-4.05-1.31-6.13-.6-3.66,1.25-7.91,3.58-11.32,5.48-5.69,3.17-11.36,6.67-16.16,11.08v-1.2c8.87-7.83,19.51-14.36,30.96-17.64,30.67-8.78,67.16,6.89,90.13,26.98,10.6,9.27,21.14,19,31.66,28.33.44.39,3.98,3.53,4.2,3.35.44-1.39,1.69-3.04.49-4.44-.27-.32-.79-.49-1.1-.82-8.48-9.33-20.66-19.17-30.47-27.36-13.44-11.21-25.86-19.85-42.53-25.86-27.31-9.83-51.95-9.08-76.93,6.22-2.19,1.34-4.25,2.87-6.41,4.27v-4.32c10.67-4.22,20.9-10.2,32.16-12.84,6.48-1.52,13.16-2.05,19.8-1.55,2.03.15,4.11.73,6.12.6.02-.66-12.01-1.08-13.09-1.34-11.19.57-22.62,2.59-33.12,6.49-4.12,1.53-7.93,3.62-11.88,5.52v-1.2c8.49-4.78,17.45-8.6,27.07-10.49,32.22-6.33,70.11,8.46,94.64,28.82,12.52,10.4,24.67,21.25,36.82,32.05.87-.73,1.19-3.66.61-4.45-8.86-7.26-17.19-15.15-25.93-22.54-18.6-15.73-37.91-31.42-62.6-36.03-24.03-4.49-48.92-1.2-70.6,10v-1.44c6.04-3.25,12.36-5.89,18.96-7.8,18.96-5.46,41.22-6.02,60.29-.77,16.12,4.43,31.53,15.55,44.1,26.21s23.78,20.69,35.65,31.07c.53.07.28-.07.35-.36.46-1.98.82-4.01,1.23-6l-.08-.31c-12.82-8.01-23.58-18.73-35.36-28.12-17.32-13.81-37.19-26.3-59.76-28.56-22.59-2.26-45.28,2.55-65.4,12.72v-8.16c1.17.81,2.95,1.57,4.32.84l-4.32-3v-1.68c2.06,1.56,4.86,4.64,7.68,3.24.07-.32-3.05-2.99-3.59-3.6-1.54-1.72-2.76-3.75-4.09-5.63v-3.6c2.41,3.84,4.3,8.54,8.48,10.84,2.01,1.1,2.89,1.18,4.72-.4-3.48-2.78-6.2-6.38-8.64-10.07-1.58-2.4-2.83-5.02-4.56-7.32v-2.4c2.59,3.75,4.54,7.91,7.24,11.59,1.31,1.79,5.56,7.13,7.57,7.55,1.13.24,2.55.02,3.43-.79.09-.38-3.2-3.37-3.72-3.95-5.67-6.34-9.82-13.83-14.52-20.88v-3.36c5,7.62,9.52,15.57,15.72,22.32.89.97,3.99,4.24,4.99,4.61.77.29,1.48.16,2.08-.42-10.94-8.42-14.75-22.29-22.8-32.99v-1.68c6.81,9.62,11.74,22.21,20.4,30.36,1.84,1.74,5.14,5.11,7.44,2.4-7.47-5.7-10.83-14.27-15.31-22.12-2.53-4.44-5.28-8.96-7.96-13.28,7.79,10.06,12.17,21.63,20.89,31.55.79.9,3.04,3.62,4.05,3.85.21.05,2.95-.81,3.14-.97.27-.21.3-.34.21-.68-.07-.27-3.25-3.45-3.8-4.13-10.97-13.27-17.16-30-29.05-42.58v-1.68c11.47,12.02,17.16,28.09,27.61,40.9,1.24,1.52,5.53,6.85,7.02,7.38.58.21,1,.36,1.14-.42-2.38-3.3-5.04-6.34-7.36-9.68-5.34-7.72-9.98-16.12-15.11-24.01-4.09-6.28-8.28-12.72-13.3-18.26v-2.64c12.68,14.37,20.36,32.4,32.06,47.48,1.08,1.39,4.58,6.04,5.92,6.55.85.33,1.71.31,2.33-.43-1.52-2.28-3.38-4.3-4.99-6.5-10.25-14.01-17.17-30.2-27.21-44.3-2.42-3.39-5.09-6.92-8.12-9.76v-1.68c16.11,16.53,23.76,39.13,37.48,57.42.7.94,3.19,4.3,4.05,4.6.76.26,1.97-.24,2.62-.72-8.04-9.67-12.66-21.52-18.67-32.43-2.99-5.43-6.43-11.16-9.78-16.37-4.53-7.06-9.5-14-15.7-19.7v-2.88c18.97,17.32,26.72,42.92,40.22,64.04,1.09,1.7,4.26,6.93,6.09,7.35.44.1.66.08.73-.48-1.44-3.81-3.55-7.3-4.98-11.11-1.7-4.53-2.75-9.26-4.75-13.73-3.22-7.17-8.62-13.01-12.84-19.56-4.83-7.5-8.01-14.82-14.27-21.48-3-3.19-6.6-6.4-10.2-8.87v-1.68c7.58,5.74,15.05,12.71,20.02,20.89,2.35,3.86,3.84,8.15,6.28,11.96,3.13,4.88,7.28,9.04,10.06,14.17,4.46,8.22,5.9,17.75,9.96,26.16.63-.03,0-.94,0-1.08v-14.88c0-8.13-10.73-19.5-15.13-26.39-7.98-12.5-14.95-29.79-31.19-33v-2.64c4.35.26,8.19-3.19,12.36-3.6,10.47-1.02,16.01,6.54,21.43,14.08,6.7,9.32,12.5,19.37,16.13,30.31l2.63-6.1c-1.7-3.8-3.7-7.45-5.71-11.09-4.59-8.32-10.84-20.58-18.69-25.95-8.18-5.59-19.42-6.08-28.16-1.48v-1.92c5.36-2.33,11.61-2.59,17.37-1.89,9.6,1.16,14.72,5.66,20.12,13.23,6.1,8.55,10.06,18.47,15.31,27.53.73-1.11,3.43-4.79,3.49-5.87.08-1.37-3.2-8.13-4.01-9.81-3.76-7.87-9.18-17.85-16.31-23.05-9.86-7.19-24.57-7.04-35.98-4.22v-2.16c8.9-1.16,18.16-2.2,26.93.31,16.87,4.82,23.51,22.61,29.95,37.12.35.26,2.36-3.19,2.4-3.74.06-.92-3.13-7.17-3.8-8.42-5.93-11.16-14.79-22.39-26.6-27.64-9.04-4.02-19.52-4.42-28.89-1.23v-1.2c8.53-1.67,16.1-2.97,24.66-.54,18.04,5.11,27.92,21.27,35.09,37.38l.7.08,2.82-3.92c-4.96-12.77-14.84-24.05-26.33-31.42S13.08,47.84,0,50.87v-1.44c13.37-2.62,26.74.31,38.04,7.67,9.77,6.37,17.39,15.43,23.35,25.37.8,1.34,1.94,4.09,2.81,5.11.52.61,1.02-.91,1.03-1.31.03-1.45-1.94-5.88-2.63-7.41C52.11,55.76,29.39,44.19,4.43,45.1c-1.4.05-2.94.46-4.43.25v-1.68c11.56-1.37,23.63-.14,34.24,4.76l9.92,5.8c-5.51-4.95-12.83-8.34-19.92-10.43-7.9-2.34-16.02-3.03-24.24-3v-3.12l3.36-.36c-.01-.5-2.72-3.52-3.36-3.96v-3.36l5.94,7.2c.74.58,2.27.56,3.31.71.38.05.38.04.35-.35L0,24.23v-4.56c3.13,6.49,7.55,12.17,11.83,17.92,2.61,1.16,5.58.85,8.33,1.51.18-.16-1.02-1.56-1.2-1.79-3.84-4.81-8.09-9.35-11.23-14.69C3.65,15.7,1.77,8.02,1.44,0h.96ZM21.12,28.32c2.08,3.69,5.15,6.99,8.27,9.84,2.27,2.07,5.68,5,8.21,6.67.82.54,3.02,1.44,3.44,1.84.59.58-.5,1.2.87,2.01,5.48,3.24,15.05,3.57,21.25,5.14,8.58,2.18,14.31,7.96,20.03,14.31.68.18,2.52-1.86,3.09-2.38l.07-.31c-3.16-3.91-7.69-7.28-12.05-9.8-4.81-2.78-10.11-4.57-15.13-6.95-6.96-3.3-13.46-7.42-20.31-10.89-4.79-2.43-10.05-4.04-14.48-7.12-.52-.36-2.94-2.64-3.28-2.35ZM67.92,40.55c-2.11-2.63-5.36-4.74-8.88-4.31.72,1.45,2.78,2.44,4.23,3.08s3.02,1.3,4.65,1.23ZM151.92,37.19c-8.79.18-13.78,7.51-20.32,11.95-12.29,8.33-25.42,7.22-36.53,18.18-15.65,15.45-29.8,48.97-33.07,70.59-.64,4.25-1.31,11.12-.8,15.3.15,1.21,1.68,1.18,2.67.96l.19-.29c.39-6.46.17-12.69,1.31-19.09,3.37-18.95,18.75-52.09,32.8-65.34,10.24-9.66,26.16-13.85,38.48-20.31,4.94-4.18,9.97-8.25,15.28-11.96ZM102.52,53.48c.39.23,3.07-.89,3.08-1.52.03-1.29-4.39-5.75-5.52-6.73-3.53-3.1-11.1-7.65-15.85-6.72-1.24.24-6.15,1.43-3,2.54,2.3.81,5.3.65,7.81,1.31,5.54,1.46,11.39,5.67,13.48,11.12ZM138.96,41.27c-7.24,1.64-13.67,5.79-20.48,8.68-9.84,4.17-23.67,7.03-29.88,16.44-1.69,2.56-2.92,5.73-4.5,8.45-8.26,14.19-19.15,26.69-24.76,42.43-3.74,10.48-5.25,24.16-3.64,35.19.34,2.32,2.32,1.42,4.06,1.58-.73-21.5,6.52-41.71,16.19-60.47,5.14-9.97,12.48-24.11,21.51-30.81s19.57-8.02,29.35-12.89c4.34-2.16,8.5-5.44,12.15-8.6ZM65.52,45.35c-4.28-.89-8.29-2.59-12.72-1.44,2.92,3.33,8.03,1.26,11.88,1.68l.84-.24ZM87.92,61.34c.6.56,1.25,1.21,2.09.94.45-.14,2.8-2,2.52-2.54-.38-.73-3.74-3.16-4.62-3.8-5.18-3.74-11.77-7.28-18.07-8.56-3.65-.74-7.09-.94-10.8-.6-.12.56.07.39.31.54,5.51,3.54,13.38,3.31,19.42,4.81s5.65,5.91,9.15,9.21ZM50.04,53.03c-1.09-.12-2.36.09-3.48,0,3.33,4.45,8.96,5.73,13.28,8.92,3.2,2.35,5.85,5.78,9.52,7.4.02.29-.1.57-.27.8-1.87,2.59-9.05-2.98-9.57-2.49l3.48,5.52c2.44,1.88,6.56.52,9.36.46,1.73-.04,3.74.79,5.39-.58-5.64-6.86-13.4-11.31-21.27-15.2-2.63-1.3-6.56-2.6-8.9-4.05-.25-.16-.42.01-.31-.54,3.79-.26,7.43,2.08,10.72,3.8,5.18,2.7,10.38,5.59,14.72,9.52,1.89,1.71,3.48,3.74,5.53,5.29.66.49,2.28-1.05,2.04-1.57-6.58-6.6-13.63-11.49-22.39-14.81-2.14-.81-5.67-2.21-7.86-2.46ZM84.48,59.5c-1.02-3.49-5.18-6.52-8.88-6.24-.09.45.22.58.5.82.7.61,7.99,5.83,8.38,5.42ZM59.41,53.99c-.08.02-.48.34-.25.48,4.04,2.17,8.64,3.85,12.34,6.62,3.17,2.36,5.92,5.76,9.05,8.23.69.46,1.29.34,1.77-.33-2.95-3.23-5.77-6.81-9.47-9.24-1.9-1.25-11.66-6.17-13.44-5.75ZM65.76,69.1c.28-.27-1.97-2.36-2.27-2.64-3.07-2.94-6.38-5.75-10.44-7.19-.13.49.15.65.35.97,2.25,3.53,5.21,5.68,8.92,7.4,1.12.52,2.29,1.02,3.44,1.47ZM54.21,154.01c-.06-13.54-.02-27.52,4.59-40.4,5.68-15.86,18.44-27.82,25.68-42.83-14.59,13.91-27.66,30.64-32.52,50.63-1.32,5.42-2.09,11.1-2.29,16.67s-.24,11.14.7,16.31c.33.49,3.2-.12,3.84-.37ZM3.6,74.38c7.4,1.43,15.79.69,21.37,6.59,8.99,9.51,14.08,26.84,21.98,37.78.2.28,1.24,1.81,1.54,1.59,1.26-2.62-.1-5.79-1.02-8.34-3.42-9.51-10.31-21.38-16.3-29.53-4.56-6.21-8.13-10.48-16.43-11.17-3.65-.3-8.16.96-11.13,3.09ZM74.88,75.58c-3.01-.03-7.04-.67-9.97-.24-.36.05-.38-.14-.36.36.04.87,2.84,6.98,3.25,7.08l2.46-2.52c-.04-.54-1.99-1.17-1.86-2.04,1.03-.11,2,1.18,2.95.92.6-.16,2.9-2.96,3.53-3.56ZM46.8,131.01c-.04-2.82,1.66-5.56,1.07-8.39-2.34-3.61-5.15-6.95-7.35-10.65-8.04-13.53-12.51-34.6-32.36-34.23,7.37,5.1,13.52,11.25,18.04,19.03,2.79,4.81,4.81,10.07,7.78,14.78,3.4,5.39,8.02,9.95,11.02,15.61l1.79,3.84ZM27.12,163.64c3.82-.52,7.59-1.56,11.44-2.12,29.14-4.23,51.39,2.92,75.04,19.2,12.88,8.87,24.03,19.81,36.43,29.32,3.4,2.61,6.85,5.17,10.31,7.7l.56.11c.74-.95,1.74-2.9.4-3.71-21.33-16.12-40.4-35.74-64.96-47.11-23.46-10.86-44.02-12.24-68.64-3.9-.37.13-.69-.21-.56.5ZM33.36,179.96c2.21,2.62,5.94.71,8.76.48,10.52-.84,24.55,1.84,34.5,5.33,26.9,9.46,46.38,29.63,67.62,47.57l9.72,11.16c.58-.97,2.51-4.11,2.24-5.1-10.06-9.22-20.44-18.14-30.69-27.16-5.7-5.02-10.51-9.7-16.86-14.09-17.86-12.33-45.27-22.85-67.22-20.07-2.74.35-5.45,1.08-8.07,1.89ZM121.28,225.7c-.4-.33-.84-1.11-1.41-1.59-1.68-1.41-8.26-5.47-8.51-7.34-.09-.71.29-1.36.06-1.95-.55-1.39-6.84-6.11-8.39-7.23-5.37-3.85-11.49-7.41-17.35-10.49-9.3-4.88-19.4-9.39-29.76-11.39-.28.26,1.54,1.92,1.81,2.15,4.89,4.18,12.37,5.85,18.2,8.44,12.3,5.47,23.61,14.39,33.76,23.12,7.86,6.76,14.78,13.35,21.35,21.36,6.32,7.71,12.64,15.98,16.81,25.07.61.1.37-.06.5-.34.41-.91,1.53-5.36,1.37-6.2-.1-.54-1.03-2.13-1.35-2.74-4.74-8.96-11.08-17.19-18.64-23.83-2.76-2.42-5.62-4.7-8.44-7.04ZM148.8,198.91l14.48,12.3.53-.04,1.79-2.3-7.12-3.44-9.68-6.52ZM106.24,233.31c-15.24-15.53-38.58-31.7-61.45-29.09-19.14,2.19-36.84,19.14-41.03,37.69-3.74,16.56-.47,27.6,9.1,40.96,5.01,6.99,10.95,14.13,19.77,16.1-8.66-6.77-15.42-16.41-20.13-26.31-9.15-19.21-3.29-45.07,14.19-57.49,26.32-18.69,61.35,5.97,79.02,25.96,6.91,7.82,13.08,16.32,18.46,25.22s9.39,17.95,12.98,27.57c.86,1.02,4.61-1.01,5.43-1.79l.11-.38c-3.4-8.92-6.82-17.9-11.38-26.3-6.21-11.44-15.97-22.86-25.09-32.15ZM134.6,295.81c.2-.35-.12-1.08-.25-1.46-3.89-11.43-10.28-23.75-16.93-33.7-15.38-23-48.53-56.94-79.26-48.9-13.61,3.56-24.14,17.15-27.19,30.4-3.84,16.66.43,34.61,16.04,43.38.36.06.43,0,.36-.36-.08-.46-2.03-2.59-2.5-3.26-19.1-27.23-6.19-65.78,30.45-63.32,20.83,1.4,42.7,23.84,54.08,39.99,4.7,6.68,9.31,13.99,12.27,21.56,2.38,6.09,4.71,12.2,6.99,18.32.45.32,5.68-2.22,5.94-2.66ZM121.52,223.06c6.09,5.28,12.41,9.3,17.67,15.57,4.18,4.98,7.68,10.48,11.17,15.95,1.73-1.58-.01-3.65-.98-5.26-5.45-9.09-19.44-22.35-28.2-28.43-1.25-.86-2.88-1.74-4.23-2.49-.21-.12-.6-.53-.79-.17,1.37,1.27,2.92,2.36,4.32,3.6.44.39.73.97,1.04,1.24ZM36.24,290.09c-5.1-5.51-11.27-11.39-13.93-18.59-3.8-10.31-.96-28.82,6.6-37.08,11.86-12.96,27.62-12.68,42.37-4.68,24.55,13.32,41.1,36.23,50.32,62.22,1,2.82,2.09,5.62,3.08,8.45.19.33.3.13.53.07.48-.13,2.81-1.25,2.87-1.62-.25-1.04-.6-2.06-.95-3.07-9.72-27.91-31.49-60.78-59.37-73.09-23.86-10.54-49.05,3.42-50.72,29.84-.72,11.36,4.91,26.19,13.56,33.7,1.64,1.43,3.67,2.91,5.63,3.84ZM123.09,301.34c-1.64-7.05-4.32-13.89-7.44-20.45-10.49-22.05-28.2-43.85-51.5-52.89-27.56-10.68-45.42,12.17-41.55,38.43,1.69,11.49,14.71,23.66,24.04,29.72,2.88,1.87,3.28,2.59,7.01,2.34l2.04-.47c-9.39-4.26-18.67-10.8-25.19-18.85-9.63-11.89-8.87-23.73-.1-35.84,7.02-9.7,15.52-15.87,28.13-12.82,13.86,3.35,28.21,17.27,36.48,28.55,9.77,13.33,16.56,29.04,20.93,44.95l7.17-2.67ZM109.69,306.64c.3.27,4.46-1.27,4.92-1.66.19-.16.34-.33.33-.6-6.54-21.68-16.53-43.63-33.58-59.04-8.05-7.28-22.35-16.39-33.55-13.62-11.05,2.73-22.4,18.67-22.35,29.92.06,13.91,14.92,26.45,26.06,32.73s24.42,6.73,34.71,13.77c2.56,1.75,4.74,4.15,7.3,5.92.97.27,2.19-1.23,3.18-1.41-3.38-5.56-8.85-8.22-14.83-10.24-5.29-1.79-21.2-4.72-24.05-8.83-.52-.75-.66-1.28-.3-2.17l-.17-.23c-3.04-.6-5.62-.76-8.5-2.08-7.42-3.39-17.18-13.38-18.77-21.55s3.13-27.85,12.98-28.8c5.69-.55,4.93,4.19,10.11,5.01,5.75.91,7.44.19,12.79,3.53,7.98,4.98,18.03,16.33,21.9,24.89,2.74,6.05,4.12,19.82,8.36,23.8,2.88,2.7,5.89,4.1,8.79,7.29.24.27.36.6.82.5.7-.77-3.99-4.94-4.55-5.64-3.48-4.33-4.97-12.24-6.96-17.51-3.43-9.08-8.54-16.93-15.12-24-3.66-3.94-15.59-15.89-20.34-16.85-1.91-.39-3.63-.1-5.51-1.21-3.73-2.19,1.45-6.44,4.56-5.52.52.15,3.05,3.05,3.77,3.67,4.69,4.1,10.39,6.88,15.44,10.48,11.53,8.21,17.98,19.01,23.32,31.88,3.71,8.95,6.77,18.21,9.26,27.58ZM58.8,237.3c-1.16-1.05-2.37-2.67-3.84-1.08,0,.52,3.23,1.19,3.84,1.08ZM51.12,244.98c-4.04-1.23-3.98-5.49-9.17-4.25-7.65,1.83-10.45,16.28-10.42,22.89.08,13.56,12.15,21.93,24.03,25.28,4.08,1.15,6.83.91,10.52,3.4,3.07,2.07,5.33,4.8,8.92,6.2,6.81,2.66,13.67,3.79,19.57,8.75.73.61,3.34,3.72,3.6,3.85.64.3,3.01-.46,3.13-1.21.23-1.52-3.83-5.43-5.05-6.47-5.45-4.67-9.26-3.23-15.01-5.39-6.12-2.29.26-9.33,1.77-12.88,6.79-15.95-22.83-38.88-36.34-25.29-7.85,7.9,2.94,17.77,10.22,20.76,4.82,1.98,19.36,5.71,16.73-4.01-1.16-4.3-8.7-10.4-13.25-10.03-1.33.11-1.76.41-1.55,1.79.32,2.16,4.93,6.96,7.19,6.28.67-.2.94-1.09,1.67-1.1.17.65-.21,2.13-.88,2.36-3.52,1.2-11.78-5.96-8.49-9.44,2.77-2.93,8.39.36,10.81,2.4,3.46,2.92,10.7,11.87,3.42,14.7-11.52,4.49-39.91-11.14-27.67-24.55,15.46-16.94,48.75,9.59,38.86,29.01-.56,1.1-4.75,6.07-4.05,6.87,1.86-.22,3.89-2.19,5.63-2.4,2.61-.32,5.13.4,7.56,1.2-3.1-8.32-4.36-17.39-8.75-25.2-3.64-6.46-16.42-18.27-23.15-21.48-5.76-2.75-7.29-1.45-12.41,1.29-2.99,1.6-6.16,3.21-8.2,5.96-10.43,14.09,3.91,28.78,17.43,32.64,7.85,2.24,22.56,3.41,20.66-8.9-1.49-9.7-13.98-21.16-23.95-15.61-7.7,4.3,1.73,12.22,6.37,14.47,1.95.94,7.75,2.93,9.23.65,2.12-3.3-5.59-5.65-5.78-6.26-.04-.12-.08-.62.14-.6,3.95-.53,11.05,7.8,4.24,8.82-7.42,1.11-23.81-8.75-16.98-16.98,5.72-6.89,18.27.15,23.05,5.28,8.72,9.37,6.25,22.2-8.16,21.83-10.38-.27-24.98-6.55-29.2-16.63-3.66-8.74-1.02-20.19,7.56-24.92l6.16-3.08ZM106.08,299.93c-6.11-17.74-11.2-35.46-25.91-48.11-3.06-2.63-9.15-7.49-12.64-9.2-.35-.17-.61-.36-1.04-.28l2.51,2.64c10.15,8.65,17.85,18.08,23.61,30.14,2.99,6.26,5.32,14.1,8.63,19.92,1.18,2.07,2.65,3.83,4.84,4.88ZM20.88,283.61c1.73,3.76,4.9,7.16,7.91,9.96,2.41,2.24,5.87,5.18,8.56,7.03.64.44,3.81,2.13,3.88,2.37.15.49-.44.82.43,1.48,1.12.85,6.4,2.38,8.01,2.79,5.91,1.52,12.2,1.54,17.85,3.99,6.52,2.83,11.05,7.87,15.87,12.86.74-.53,3.35-2.06,2.89-3.06-.15-.33-2.87-2.91-3.37-3.36-7.06-6.32-14.23-8.61-22.52-12.52-6.91-3.26-13.33-7.17-20.07-10.65-6.6-3.41-14.1-5.55-19.44-10.91ZM67.92,296.57c-1.95-2.73-5.39-4.85-8.88-4.31.48,1.65,8.03,4.95,8.88,4.31ZM105.58,308.31c.79-1.08-5.21-6.92-6.22-7.78-2.63-2.26-9.92-6.33-13.33-6.37-1.49-.02-8.83,1.77-4.39,2.97,2.2.6,4.66.47,6.91,1.01,5.6,1.33,12.02,5.77,13.93,11.4l3.09-1.22ZM64.8,301.13c-3.15-.67-6.17-1.85-9.45-1.65-.38.02-2.55.25-2.54.57,2.44,2.28,5.72,1.73,8.75,1.56l3.24-.48ZM58.8,303.04c3.64,1.75,7.5,3.01,11.47,3.77,2.77.53,5.82.63,8.53,1.31,5.27,1.32,5.36,4.71,8.32,8.24,2.58,3.07,3.04,2.13,5.5-.5.05-.3-1.45-1.48-1.79-1.76-7.99-6.58-19.15-12.17-29.75-11.52l-2.28.47ZM79.84,327.2c.16-.16.6-.8.56-.98-6.27-5.96-12.35-10.6-20.4-13.93-4.12-1.71-8.66-3.64-13.19-3.25-.3.27,1.89,2.26,2.18,2.5,2.46,1.99,5.61,3.07,8.3,4.66,4.39,2.58,7.53,6.69,11.97,9.15-.82,4.2-9.05-2.2-9.73-1.67,1.34,1.58,2.2,4.97,4.11,5.85,2.34,1.08,4.89.26,7.3.15,2.27-.1,4.77.44,6.84-.6-7.31-9.28-18.35-13.64-28.64-18.63-.6-.29-1.47-.58-1.83-1.16.81.06,1.72-.1,2.52,0,2.82.33,15.48,7.55,18.34,9.5,3.73,2.54,6.57,6.08,10.03,8.95.43.42,1.33-.2,1.67-.54ZM84.48,315.52c-1.01-3.62-5.29-6.73-9.12-6.23.64.79,8.74,6.64,9.12,6.23ZM82.08,325.36c.35-.49-2.06-3.1-2.52-3.6-4.31-4.79-8.55-7.48-14.44-10.04-.91-.39-5.58-2.53-6.08-1.35,4.67,2.38,9.59,4.32,13.68,7.67,2.44,2.01,4.72,4.83,7.22,6.7.7.53,1.25,1.03,2.14.62ZM65.76,325.12c.1-.45-.25-.57-.48-.84-.72-.87-1.9-1.97-2.75-2.77-2.77-2.61-5.77-5.11-9.49-6.23-.06.44.25.75.48,1.08,1.22,1.71,3.13,3.46,4.57,5.03l7.66,3.73ZM75.12,331.36c-2.67-.09-5.38.11-8.05,0-1.48-.06-3-1.2-2.35,1.15.58,2.08,2.1,4.35,3.07,6.28l2.52-2.53-1.91-2.03,2.95.93,3.77-3.8Z"/><path d="M4.56,123.81c-1.4-1.81-2.97-3.65-4.56-5.28v-1.2c1.89,1.88,3.17,4.25,4.56,6.48Z"/><path d="M47.52,364.23h-1.68c-3.45-7.93-7.79-15.81-12.67-22.97-2.36-3.45-6.75-9.78-10.36-11.71-6.07-3.25-13.3-2.9-19.21.49,3.15,1.14,6.61,1.06,9.89,1.63,8.9,1.54,11.49,4.37,16.13,11.71,4.21,6.65,7.46,13.92,11.18,20.85h-2.16c-5.65-10.62-10.59-25.97-23.52-29.63-1.99-.56-4.29-.95-6.36-.84-.27.01-.66-.16-.59.24,11.52,6.78,18.62,18.2,23.76,30.24h-1.2c-3.98-6.62-7.58-13.57-12.38-19.65s-10.6-11.49-18.34-12.5v-2.64c4.84-.04,9-3.7,13.79-3.85,11.35-.36,19.06,12.49,24.47,20.91,3.56,5.55,7.25,11.43,9.26,17.74Z"/><path d="M171.84,308.57v2.64c-8.77,1.45-17.48,4.4-25.67,7.81-10.55,4.39-22.85,10.56-30.61,19.06-6.97,7.64-11.52,17.3-16.68,26.16h-1.92c5.47-9.31,9.9-19.7,17.16-27.84,5.53-6.2,11.33-9.73,18.6-13.56,12.3-6.48,25.47-11.47,39.13-14.27Z"/><path d="M171.84,123.81v2.4c-4.73,2.34-9.67,5.78-13.08,9.83s-4.32,9.52-6.11,14.52c-3.45,9.65-8.79,19.72-3.89,30.03,1.96,4.13,12.05,14.12,16.71,14,2-.05,4.3-.89,6.37-.73v1.2c-3.03-.08-6.17,1.79-9.17.89-4.11-1.22-9.9-6.23-12.39-9.69-7.6-10.54-5.48-18.6-2.02-30.02,2.27-7.51,5.01-17.26,10.15-23.2,3.49-4.04,8.41-7.42,13.43-9.24Z"/><path d="M171.84,110.13v.72c-17.35,6.88-30,22.49-33.05,40.98-1.83,11.12-.8,19.79,4.87,29.54s16.31,19.57,28.18,17.53v1.44c-11.93,2.38-21.74-5.86-27.94-15.14-6.95-10.4-8.53-20.05-6.83-32.46,2.71-19.76,16.08-35.93,34.77-42.62Z"/><path d="M39.12,0c-8.18,14.53,6.88,28.18,20.11,31.36,5.58,1.34,16.94,2.63,19-4.62,2.48-8.74-7.98-20.91-16.67-21.7-4.19-.38-11.17,1.63-9.7,7.06,1.37,5.08,12.24,12.33,17.27,10.09,2.29-1.02.96-3.39-.48-4.57-.77-.63-4.14-1.98-4.32-2.4-.04-.1-.1-.59.11-.59,3.62-.54,10.87,7.53,4.69,8.77-8.34,1.68-25.64-10.07-16.58-17.77,9.64-8.19,35.24,11.33,24.96,24.23-5.28,6.62-19.41,3.04-26,.09-12.34-5.52-19.37-16.51-13.83-29.96h1.44Z"/><path d="M171.84,295.85v1.68c-15.9,2.68-28.4,13.91-43.32,19.2-4,1.42-8.21,2.06-12.12,3.72-16.29,6.95-26.11,25.44-33.17,40.74-.43.94-.96,2.02-1.16,3.04h-1.2c5.97-13.98,13.35-29.76,25.7-39.21,9.14-6.99,20.75-8.72,31.02-13.62,6.33-3.02,11.67-7.54,17.99-10.57,5.03-2.41,10.68-4.35,16.24-5Z"/><path d="M53.76,0c-7.36,2.35-12.62,7.78-8.02,15.58,3.01,5.1,9.08,8.74,14.69,10.27,4.63,1.27,15.04,3.37,13.32-4.68-.81-3.81-5.86-8.18-9.35-9.61-5.08-2.09-7.75-.53-3.68,4.16,1.33,1.53,4.96,4.63,6.47,1.92.66-.52.9,2.27-1.1,2.52-3.78.47-12.43-7.95-6.58-10.43,7.79-3.31,25.27,17.3,9.96,18.59-8.03.68-19.06-4.19-24.24-10.31-5.87-6.93-3.6-13.11,3.24-18h5.28Z"/><path d="M171.84,134.13v3.12c-9.18-.31-13.64,7.8-17.01,15.03-6.03,12.97-9.04,29.87,7.1,36.5,3.06,1.26,6.57,2.22,9.9,1.98v1.44c-9.07,1.11-17.39-3.22-21.16-11.6-2.16-4.8-3.14-12.27-1.65-17.33,1.76-5.97,6.16-17.37,10.32-21.83,3.22-3.45,8.23-5.46,12.49-7.31Z"/><path d="M171.84,141.57v1.92c-7.63,2.45-12.48,11.02-14.38,18.37-3.03,11.69-.6,27.41,14.38,27.22v1.44c-21.98,0-19.91-28.04-10.76-41.11,2.58-3.69,6.38-6.6,10.76-7.84Z"/><path d="M171.84,301.61c-8.88,1.59-15.87,7.67-23.6,11.8-12.47,6.66-27.63,7.86-39.26,16.9-7.79,6.06-9.08,15.58-12.94,24.01-1.58,3.46-3.69,6.62-5.56,9.92h-.96c.97-1.95,2.36-3.68,3.4-5.6,3.66-6.73,5.32-14.53,9.04-21.2,7.88-14.11,26.19-17.12,40.07-22.33,10.56-3.96,18.65-12.27,29.81-14.7v1.2Z"/><path d="M171.84,315.28v.96c-8.12,1.27-15.98,4.03-23.44,7.4-10.72,4.83-21.33,11.47-28.87,20.56-5.17,6.24-9.82,13.05-13.93,20.03h-1.92c3.71-6.63,8.1-12.99,12.97-18.83,4.11-4.93,7.9-8.55,13.12-12.32,12.32-8.91,27.04-15.28,42.08-17.8Z"/><path d="M171.84,336.4v1.68c-5.57,1.46-11.02,3.39-16.31,5.65-10.88,4.63-22.05,10.96-29.29,20.51h-2.16c4.65-7.11,11.91-12.66,19.28-16.84,8.72-4.94,18.71-8.74,28.48-11Z"/><path d="M171.84,117.81c-14.47,5.67-24.34,17.5-28.49,32.34-1.01,3.6-2.01,8.22-2.23,11.93-.18,3.04.45,6.04.21,9.08l-.33.39c-.45,0-1.05-5.14-1.09-5.86-.6-10.27,3.05-21.97,8.55-30.58s13.79-15.28,23.38-18.74v1.44Z"/><path d="M171.84,319.84v1.2c-18.56,3.38-36.65,12.31-49.32,26.39l-11.64,16.8h-1.68c5.67-8.31,11.16-17.39,18.85-23.99,12.05-10.33,28.22-17.49,43.79-20.4Z"/><path d="M171.84,148.04v2.16c-1.26.84-2.38,2.07-3.35,3.25-7.49,9.06-11.78,26.46,3.35,30.11v1.2c-6.06-.57-10.75-4.24-11.45-10.5-1.11-9.79,2.83-20.97,11.45-26.21Z"/><path d="M171.84,328.24v.96c-17.05,4.54-33.88,13.64-45.85,26.75-2.37,2.6-4.33,5.21-5.99,8.28h-1.44c.53-1.38,1.61-2.5,2.41-3.71,4.38-6.56,10.62-12.12,17.09-16.74,9.97-7.12,21.82-12.77,33.77-15.54Z"/><path d="M24.72,364.23h-1.44c-2.17-3.43-3.95-7.12-6.14-10.54-4.5-7.03-10.5-13-17.14-18.02v-1.44c10.77,7.65,19.54,17.76,24.72,29.99Z"/><path d="M18.72,364.23h-1.92c-4.67-7.84-10.03-15.44-16.8-21.59v-2.88c7.72,6.88,13.66,15.51,18.72,24.47Z"/><path d="M171.84,347.92v1.2c-10.89,2.3-21.55,7.3-29.52,15.12h-2.16c8.47-8.5,20.03-13.72,31.68-16.32Z"/><path d="M171.84,354.4v1.92c-6.83,1.38-13.38,4.15-19.2,7.92h-2.88c.8-1.06,2.23-1.79,3.38-2.5,5.65-3.46,12.13-6.22,18.7-7.34Z"/><path d="M171.84,341.68v.48c-14.83,3.22-28.73,11.08-39.12,22.07h-2.16c1.47-2.16,3.83-3.89,5.89-5.51,10.35-8.18,22.48-14.16,35.39-17.04Z"/><path d="M171.84,159.56c-.44.15-.5.54-.66.9-2.35,5.1-3.7,11.99.66,16.38v2.16c-5.83-4.59-4.63-14.22-1.48-20.08.36-.67.83-1.59,1.48-2v2.64Z"/><path d="M11.28,364.23h-1.2c-2.95-4.6-6.27-9.02-10.08-12.96v-1.68c4.2,4.49,8.13,9.34,11.28,14.64Z"/><path d="M4.56,364.23h-1.92l-2.64-3.36v-2.4c1.64,1.79,3.38,3.62,4.56,5.76Z"/></svg>