<?xml version="1.0" encoding="UTF-8"?><svg id="a" xmlns="http://www.w3.org/2000/svg" width="60.62mm" height="128.52mm" viewBox="0 0 171.84 364.32"><path d="M22.32,364.32c2.86-2.49,6.57-3.82,9.47-6.25s4.86-6,7.56-8.52c2.29-2.13,5.41-3.38,7.8-5.4.39.22-.09.54-.22.74-1.15,1.86-2.65,3.49-3.71,5.41l-3.51,8.97c2.55-2.49,2.89-6.15,4.31-9.13,3.68-7.72,12.38-9.48,18.83-13.81,4.26-2.86,8.21-7.23,10.83-11.62l.48.12c.14,1.05-1.01,2.76-1.58,3.7-3.16,5.18-7.97,9.02-12.34,13.1.46.19,1.2-.57,1.55-.85,7.79-6.02,11.55-11.64,15.36-20.64,2.97-7.03,5.2-13.96,6.97-21.35.23-.94.43-1.9.36-2.88.4.07.43.47.55.77.92,2.4,2.05,6.7,2.5,9.26s.75,5.28.3,7.84l.25,2.05c.73-7.09.55-14.26.24-21.36-.42-.06-.23.55-.24.84-.11,2.64-.06,5.29-.24,7.93l-.48.36c-.83-4.07-2.94-8.88-2.09-13.01.52-2.54,1.68-4.95,2.06-7.54.34-2.33.16-4.72.51-7.05,2.06,1.52,2.87,4.48,2.88,6.96.94.21.2-1.04.6-1.44,1.45.94,2.3,2.45,2.94,4.02,1.06,4.88,1.19,9.95,1.27,14.93.42.06.23-.55.24-.84.16-3.9-.39-7.74-.24-11.64.48-.06.8.41,1.08.72,2.96,3.26,1.82,9.24,2.03,13.33.61,12.05,2.62,22.52-1.97,34.25-4.15,10.61-14.21,16.97-25.14,18.89,1.95-2.23,4.45-3.97,6.61-5.99.45-.42,1.59-1.3,1.43-1.93-2,1.75-3.95,3.59-6.01,5.27-1.07.87-2.92,2.6-4.02,3.18-1.82.93-5.08,1.08-7.13,1.39,3.93-4.99,9.52-8.34,14.16-12.59,12.49-11.46,16.52-26.31,15.84-42.97-.01-.29.18-.89-.24-.84.06,13.58-2.28,27.9-11.29,38.51-4.66,5.49-10.45,8.94-15.6,13.68-1.03.95-4.04,4.69-4.8,5.04-1.91.86-5.4-.17-7.32,1.32-.12.04-.34-.64-.31-.8.07-.44,4.2-4.15,4.88-4.71,8.74-7.19,18.96-11,24.78-21.54.12-.21.53-.6.17-.79-3.49,5.41-8.51,9.25-13.59,13.05-4.13,3.1-9.22,6.1-12.93,9.63-1.41,1.34-3.6,4.6-5.05,5.51-1.12.7-3.38.84-4.74,1.26-.71.22-1.26.67-1.97.79l.6-3.12c-1.31,2.14-2.96,3.96-4.68,5.76h-11.04c1.6-1.58,3.62-2.73,5.46-4.02.11-.08.75-.38.42-.54-2.41,1.26-4.88,2.66-6.84,4.56h-6ZM80.88,346.32c.29.26,2.22-1.83,2.52-2.15,8.67-9.18,12.19-20.47,12.61-32.99v-9.25c-.43-.06-.24.54-.25.84-.09,2.15.1,4.33,0,6.48-.47,9.89-2.5,19.76-7.82,28.18-2.06,3.26-4.54,6.01-7.06,8.9ZM66.72,342.72c.85-.29,1.75-.95,2.48-1.48,6.47-4.69,11.57-12.75,12.16-20.83l-2.04,6.24c-2.66,6.54-7.17,11.69-12.6,16.08ZM58.56,343.2c-.72.27-1.58,1.04-2.16,1.55-2.99,2.62-6.06,5.67-8.35,8.93-.36.51-.89,1.14-1,1.76,2.95-3.58,7.05-5.8,11.04-8.04l-4.56,1.2,5.04-5.4ZM88.56,343.92c-.74-.16-6.04,3.58-5.76,3.84l5.76-3.84Z"/><path d="M0,134.64c3.15,3.59,5.02,8.13,8.76,11.28.27.23.39.58.84.48-1.45-1.57-2.77-3.24-4.04-4.96-.89-1.21-5.26-7.39-5.32-8.37-.03-.46,2.16-4.23,2.52-4.42l1.32,1.92c.02-.75-.63-1.35-.71-2.06-.24-2.02,2.07-3.92,2.88-5.62l4.07,5.28c-.85-2.07-3.93-4.48-2.94-6.9.12-.3,1.57-2.05,1.86-1.98,7.63,12.3,20.27,21.05,34.64,23.44,1.15.19,6.62.62,7.01.91.73.56-.1,1.66-.49,2.16-7.48,9.71-20.24,11.21-31.12,6.65-1.85-.77-3.52-1.91-5.36-2.68,8.41,6.14,20.35,7.92,29.68,2.68,4.07-2.29,6.34-5.7,9.5-8.98.83-.36,3.51-.43,3.9.54.25-.79,3.74-2.08,3.72-1.08-9.28,9.87-19.32,21.83-33.96,22.68-8.81.51-16.95-3.29-23.51-8.88-1.01-.86-1.91-2.43-3.25-2.63v-6.72c4.19,4.15,8.89,7.87,14.31,10.29,10.74,4.78,22.35,4.08,31.75-3.23,1.02-.79,3.37-2.43,3.02-3.7-3.05,3.07-6.49,5.91-10.62,7.38-8.81,3.13-19.14,1.22-27.18-3.17-4.46-2.44-7.91-5.74-11.27-9.49v-10.8ZM24,139.68l-4.8-3.12c1.29,1.25,3.09,2.49,4.8,3.12ZM28.56,148.56c-3.16-1-6.16-2.42-9.04-4.04l-9.68-6.76c4.35,4.56,11.72,9.73,17.99,10.93.25.05.79.31.73-.13ZM39.48,145.68c1.66.17,3.8,0,5.52,0,.06,0,1.15-.24,1.08-.48-3.96.65-7.78-.17-11.64-.97-.39.29.22.26.4.31,1.3.36,3.37,1,4.63,1.13ZM54.24,146.16l-.84.48-3.24,3.36c.45.1.57-.25.84-.48,1.17-.98,2.2-2.24,3.24-3.36Z"/><path d="M0,306.48c4.35-1.87,8.69-4.22,12.46-7.1,22.84-17.46,20.93-53.49,8.46-76.58-3.01-5.57-10.61-16.01-9.85-22.25.24-2.01,3.91-9.73,5.9-10.18.59-.13,1.49-.08,2.12-.06,2.68.07,5.48.28,8.16.48.41.03.79-.02,1.07.37-7.77,2.2-13.73,7.37-12.97,16.09.44,5.04,7.71,13.9,10.13,18.91,1.17,2.43,2.43,5.85,3.33,8.43.15.44.25.87.23,1.33.43.05.23-.54.21-.81-.13-1.53-.63-1.87-1.05-3.03-.87-2.43-1.69-5.01-2.8-7.28-3.68-7.58-13.18-16.43-7.84-25.43,2.17-3.66,9.13-7.31,13.3-7.59.45-.03.77-.07,1.05.35-6.63,10.37-10.99,22.01-4.36,33.64,4.04,7.09,6.14,9.87,7.45,18.47,1.99,13.1,2.83,35.59-2.96,47.61-5.03,10.45-18.3,20.61-28.53,25.71-1.21.6-2.06,1.17-3.52.92v-5.28c11.38-5.49,23-13.31,28.53-25.11,4.65-9.94,5.1-21.13,6.29-31.88l-.25-1.09c-1.58,14.91-3.45,31.93-14.04,43.44-5.55,6.03-13.26,10.32-20.52,13.92v-6ZM23.04,200.16c-2.02.34-2.26,3.12-2.4,4.8l2.4-4.8ZM22.32,216.24l-.16-1.16-1.51-4.36c.2,1.79.43,4.18,1.68,5.52ZM21.36,293.76c10.59-11.1,13.21-28.72,11.49-43.53-.32-2.74-1.1-5.39-1.65-8.07-.42-.06-.24.54-.21.81.21,2,.88,4.21,1.14,6.3,1.55,12.56-.09,25.47-5.93,36.73l-4.84,7.76Z"/><path d="M171.84,270.72v2.64c-2.35.12-4.67-.16-6.97-.59-.31-.06-3.59-1.12-3.59-.73,3.38,1.17,6.97,1.82,10.56,1.8v5.76c-3.28,1.62-6.72,3.1-10.43,3.37-14.94,1.08-27.24-9.33-33.23-22.21l2.5-3.95c2.65,4.04,5.51,7.92,9.24,11.04.1-.45-.25-.57-.48-.84-1.13-1.34-2.58-2.56-3.7-3.98-.8-1.02-4.38-6.16-4.46-7.09-.09-1.06,2.18-4,3.02-4.89l3.46,4.31c-.4-1.43-2.49-3.27-2.63-4.7-.14-1.35,1.16-2.79,2.04-3.69,7.53,12.58,20.21,21.23,34.68,23.76ZM149.52,266.16l-.64-.68-3.92-2.68c.72.91,1.85,1.69,2.8,2.35.52.36,1.14.89,1.76,1ZM167.76,277.2c-10.09,1.32-19.82-2.99-27.36-9.36-.25.26.74,1.12.95,1.32.95.88,2.51,1.9,3.62,2.62,6.17,3.98,13.06,6.36,20.5,5.9l2.28-.48Z"/><path d="M171.84,308.64v4.08c-21.61,8.54-45.19,3.85-62.4-11.4s-23.69-32.88-21.35-55.2c1.13-10.78,5.19-17.14,13.7-23.5,12.97-9.7,29.11-11.76,43.4-3.36.97.57,5.84,3.69,6.28,4.28.5.67.29,1.35-.61,1.35-1.53,0-4.91-2.98-6.52-3.82-26.3-13.89-55.79,7.71-53.13,36.81,2.5,27.33,19.24,46.67,45.55,53.81,12.05,3.27,23.66,1.42,35.09-3.05Z"/><path d="M91.2,364.32c1.16-.99,2.66-1.57,3.97-2.39,10.6-6.7,18.2-17.94,19.31-30.61.68-7.89-.66-15.79.6-23.64.64.01.83.95.84,1.44.54.05-.11-.88.59-.71,3.37.82,2.56,5.1,2.8,7.52.21,2.14.99,4.24,1.17,6.39.43.05.23-.54.21-.81-.07-.85-.33-1.84-.43-2.69-.06-.47.05-.35.46-.34,3.52,11.58,9.81,23.57,5.23,35.82-1.44,3.84-3.91,6.87-6.42,10.02h-7.92c4.41-3.58,8.2-7.64,10.43-12.97,3.67-8.76,2.37-17.7-.71-26.39,1.3,7.68,3.47,15.04,1.49,22.85-1.79,7.09-6.84,11.91-12.17,16.51h-12c9.67-5.32,18.2-15.04,19.65-26.31,1.04-8.16-.94-16.25-1.77-24.33-1.18,9.06,2.77,18.15.72,27.12-2.35,10.27-11.58,18.7-20.52,23.52h-5.52Z"/><path d="M144.24,0c7.07,7.81,17.24,12.87,27.6,14.64v2.64c-1.29-.08-2.68.11-3.96,0-.55-.05-6.12-1.39-6.13-1.08,3.22,1.12,6.67,1.69,10.08,1.56v5.76c-13.79,8.12-30.19,1.19-38.93-10.87-.8-1.1-4.89-7.29-4.71-8.15l2.48-3.77c7.34,12.15,20.88,22.32,35.73,20.85l1.83-.45c-15.28,2-30.23-7.81-36.96-21.12h12.96Z"/><path d="M171.84,307.44c-30.85,13.78-67.77-4.97-77.16-36.72-5.52-18.68-2.64-36.15,14.2-47.23,12.23-8.05,29.62-7.45,40.63,2.47l-3.51,2.71c-.73.07-.86-.63-1.23-.91-15.6-11.53-36.15-4.17-45.75,11.3-4.95,7.98-4.71,14.38-3.47,23.35,1.53,11.02,8.32,15.27,13.8,23.64,3.16,4.82,3.95,9.17,8.61,13.23,12.01,10.43,32.41,11.74,47.1,7.27,2.31-.7,4.47-1.75,6.78-2.46v3.36Z"/><path d="M44.16,364.32c10.59-5.4,23.07-5.25,34.14-9.42,19.9-7.51,22.63-24.74,22.03-43.99l-1.21-17.87,2.11,2.33,1.97,19.99.25-2.05-1.21-16.43c.17-.18,1.46.89,1.68,1.08.75.64,3.69,3.61,4.09,4.31.67,1.17.52,5.68.48,7.22-.2,6.91-.96,14.09-3.07,20.69-.16.49-.33,1.48-.78,1.73-.33-3.71-.58-7.44-.72-11.16-.01-.29.18-.89-.24-.84.42,11.75-1.26,23.53-10.44,31.69-8.5,7.55-20.07,9.49-30.61,12.71h-18.48Z"/><path d="M171.84,162.96v15.84c-1.54,3.58-3.54,6.92-6.12,9.84-.97,1.1-3.64,3.2-4.22,4.18-.17.29-.43.85-.11,1.09,4.1-3.86,7.97-7.54,10.44-12.72v7.92c-4.39,5.33-9.51,9.95-14.81,14.37-.66.17-3.25-1.54-3.1-2.14l6.15-6.47c-.67.23-1.5.97-2.03,1.44-.95.83-4.16,4.37-5.1,4.52s-4.54-3.27-5.58-3.92c9.55-12.32,23.05-19.62,19.56-37.56-.25-1.28-1.32-4.17-1.32-5.16v-3.96c2.73,3.85,4.45,8.37,6.24,12.72Z"/><path d="M154.8,364.32c-2.69-9.73-9.41-17.71-13.41-26.79-2.91-6.62-3.25-9.93.83-16.15,1.43-2.17,1.98-3.23,4.79-3.15,3.18.09,6.5.89,9.71.73l-3.23.73c-7,2.18-11.22,10.21-9.62,17.27.87,3.85,3.96,7.04,6.01,10.31.32-.27-.18-.84-.32-1.12-2.87-5.57-7.47-9.73-5.02-16.71,2.03-5.8,9.59-9.13,15.31-9.77.45.45-2.14,4.3-2.53,5.03-4.69,8.89-7.4,17.32-2.8,27.05,1.48,3.13,3.89,5.53,5.37,8.79.54,1.2,1.01,2.5,1.4,3.76h-6.48ZM148.32,333.36v4.92c0,.57.82,3.03,1.08,3.72.07.17.11.74.36.36-1.04-2.79-1.08-5.26-1.2-8.16-.01-.29.18-.89-.24-.84ZM157.44,364.08c-.55-3.32-2.13-6.94-3.56-10-1.01-2.16-2.16-4.44-3.64-6.32l3.88,8,3.32,8.32Z"/><path d="M91.2,0c.69,13.14,5.75,27.51,14.52,37.44,7.7,8.72,22.14,16.39,33.48,18.84s22.17.52,32.64-3.72v4.32c-11.79,4.16-23.9,5.38-36.15,2.43-21.98-5.3-42.32-25.47-46.78-47.78-.76-3.81-.99-7.67-1.31-11.53h3.6Z"/><path d="M21.12,364.32h-4.56c2.72-2.46,6.43-3.67,9.25-5.99,1.72-1.42,4.21-4.13,5.63-5.89,2.47-3.08,3.48-6.36,6.61-8.99,6.34-5.32,16.01-7.67,23.09-12.43,15.02-10.1,20.24-31.99,20.96-49.12.15-3.56-.41-7.89-.02-11.3.04-.36.03-.61.38-.83,2.32,1.15,2.6,4.28,2.75,6.6,1.13,17.02-5.81,40.9-17.39,53.64-9.17,10.08-23.3,13.08-32.89,22.79-1.65,1.67-2.92,3.71-4.8,5.28-2.79,2.35-6.42,3.68-8.99,6.25Z"/><path d="M0,180.96c18.97,6.98,40.71,4.5,57.2-7.24,9.7-6.91,13.51-13.32,18.99-23.49,1.53-2.83,4.03-6.55,6.48-8.64.93-.79,6.84-1.39,6.85-.59-4.59,2.63-8.76,6.28-11.41,10.92-3.41,5.97-4.53,11.33-9.47,16.69-13.48,14.63-35.05,22.42-54.81,19.76-4.75-.64-9.32-2.05-13.83-3.57v-3.84Z"/><path d="M171.84,297.36c-14.15,6.86-33.46,10.09-47.12.44-22.04-15.58-1.72-47.02,14.64-58.47.33-.23,2-1.45,2.24-1.24-10.04,12.76-22.32,28.97-21.13,46.21,1.42,20.54,28.25,20.27,42.49,14.15.74-.32,1.97-1.3,2.09-1.33.56-.13,1.12.37,1.73.14,1.46-.55,3.38-2.77,5.06-3.24v3.36Z"/><path d="M94.8,0c.7,4.83.81,8.87,2.77,13.43,3.12,7.27,9.28,12.1,13.11,18.81,2.64,4.63,3.34,7.84,7.77,11.43,14.2,11.52,37.24,11.67,53.39,4.33v3.6c-4.89,1.69-9.85,3.42-15.03,4.05-25.65,3.14-51.68-12.81-60.75-36.87-2.28-6.06-3.43-12.33-3.9-18.78h2.64Z"/><path d="M73.92,0c2.75,10.15,3,20.87,1.92,31.32-1.69,16.31-7.06,30.75-20.56,40.64-.82.6-4.88,3.54-5.47,3.65-.36.07-.43-.01-.37-.37.09-.49,5.79-6.08,6.72-7.2,7.2-8.65,12.63-20.26,14.13-31.47,1.37-10.24.32-20.42.02-30.68-.06-1.96.06-3.93,0-5.89h3.6Z"/><path d="M0,177.36c23.1,9.58,55.21-.53,68.11-22.01,2.26-3.75,3.46-8.14,5.68-11.84,1.93-3.21,3.83-3.05,7.33-2.27-1.87,2.12-3.66,4.2-5.14,6.62-3.8,6.19-5.45,11.6-10.58,17.26-16.45,18.19-42.78,23.73-65.4,14.16v-1.92Z"/><path d="M36,0c.62,9.72.85,20.34-1.75,29.81-3.76,13.71-16.24,23.49-28.09,30.23-1.91,1.09-3.9,2.68-6.16,2.36v-5.28c1.32-.48,2.61-1.13,3.85-1.79,8.4-4.52,17.29-10.93,22.41-19.11,6.75-10.76,7.29-23.91,8.54-36.22h1.2Z"/><path d="M128.64,0c-5.26,9.45-10.82,22.93-6.96,33.72,5.63,15.75,29.81,13.9,42.17,8.32.51-.23,1.26-.93,1.45-.98.5-.13.77.47,1.11.42.81-.11,4.24-3.25,5.44-3.57v3.36c-14.51,7.39-35.97,10.37-49.2-1.08-11.41-9.87-8.23-24.15-1.8-35.89.8-1.46,1.84-2.8,2.53-4.31h5.28Z"/><path d="M106.56,0l-.48,2.52v8.76l.48-3,.48-8.28h9.6l-3.73,6.5c-.24.25-.58-.04-.59-.02-.07.12-.24,2.2-.41,2.83-.59,2.13-1.77,4.12-2.4,6.24-1.12,3.77-.95,7.68-1.15,11.57-.3,0-1.28-1.24-1.55-1.57-1.14-1.38-2.91-3.38-2.89-5.15l-.69.23c-1.02-2.09-2.43-3.96-3.44-6.07-.15-.32-.56-1.29-.72-1.68-1.61-3.96-2.85-8.61-2.83-12.89h10.32ZM104.88,16.56l.48-4.08c-.57.38-.66,2.04-.72,2.76-.02.29-.2,1.31.24,1.32Z"/><path d="M171.84,24.48v2.88c-14.07,8.76-32.63,3.07-42.95-8.77-.79-.91-4.09-5.06-4.1-5.99,0-.65,2-5.37,2.44-5.97.15-.2.23-.47.56-.39.58.13,4.52,6.63,5.3,7.66,8.75,11.41,25.34,17.85,38.74,10.58Z"/><path d="M171.84,280.32v3.12c-13.85,8.37-32.12,3.25-42.47-8.29-.8-.9-4.56-5.61-4.58-6.47-.02-.79,1.92-5.24,2.45-5.97.15-.2.22-.46.55-.38.75.17,3.99,5.75,4.74,6.79,8.53,11.79,25.79,19.02,39.32,11.2Z"/><path d="M171.84,28.08v3.36c-14.85,10.23-33.55,6.74-44.87-6.85-2.5-3.01-5.26-6.27-2.53-10.19,9.64,15.18,31.15,24.26,47.4,13.68Z"/><path d="M171.84,284.16v3.36c-14.66,9.81-32.82,6.86-44.28-6.24-2.54-2.9-6.09-6.98-3.12-10.8,9.76,15.14,31.03,24.1,47.4,13.68Z"/><path d="M0,168v-4.32c8.85,4.28,18.52,6.66,28.33,4.69,7.68-1.54,14.05-6.41,20.23-10.97,5.14-3.79,8.78-9.76,13.6-14,1.17-1.03,3.75-3.64,5.04-1.92l-19.19,20.88c-5.17,4.32-11.67,7.15-18.24,8.64-9.75,2.2-20.98,2.26-29.76-3Z"/><path d="M34.56,0c-.9,6.9-1.53,13.65-3.23,20.42-.08.32-.33.57-.37.7,1.52-5.49,2.61-14.14,2.41-19.81-.02-.46.02-.91-.25-1.31h1.44Z"/><path d="M32.64,0c.48,12.67-2.65,25-9.79,35.45-.49.72-1.96,2.27-2.21,2.83-.05.1-.06.39.12.36,2.22-2.29,4.23-5.07,5.83-7.85,1.49-2.58,3.58-6.84,4.37-9.67-.95,3.61-1.63,6.69-3.15,10.17-5.38,12.24-15.95,19.73-27.81,25.11v-5.76c7.35-3.43,14.29-7.67,19.43-14.05C27.62,26.43,30.64,12.88,30,0h2.64Z"/><path d="M2.4,0c1.83,4.71,3.58,8.95,7.19,12.61,3.99,4.05,9.73,7.1,13.58,11.14.19.2.49.4.56.66.28,1.05-2.49,5.42-3.22,6.53-.17.26-.95,1.79-1.3,1.46C15.66,23.47,7.27,17.76,0,12V0h2.4Z"/><path d="M0,257.04l2.16-1.44c1.28,2.36,1.99,5.08,3.24,7.44,1.4,2.64,4.03,5.44,6.25,7.43,1.63,1.46,12.04,9,12.1,10.19-.86,2.87-2.79,5.22-4.19,7.81-2.75-5.55-6.7-10.06-11.4-14.04l-8.16-6.36v-11.04Z"/><path d="M171.84,265.44c-12.99-3.32-24.36-11.46-31.92-22.44.28-.51,2.52-4.39,3.11-3.96.75,1.3,1.95,2.71,3,3.84,7.08,7.63,16.03,13.48,25.8,17.04v5.52Z"/><path d="M79.68,364.32h-3.12c5.3-2.57,10.48-5.25,14.88-9.24,10.91-9.88,16.77-26.3,17.51-40.81.19-3.63-.16-7.3-.11-10.92,1.61.43,2.8,1.67,4.08,2.64.32,10.35-.57,21.08-4.96,30.57-4.07,8.79-11.11,15.84-18.85,21.47-3.06,2.23-6.33,4.12-9.44,6.28Z"/><path d="M0,248.64v-6.24c2.71-2.45,4.93-5.94,6.45-9.27,6.24-13.71,1.6-29.49-6.45-41.37v-5.28c1.63,1.71,2.8,4.2,3.88,6.32,6.05,11.9,8.1,18.6,8.37,32.19.18,8.94-5.4,18.25-12.25,23.65Z"/><path d="M122.64,0c-7.98,12.06-13.58,29.44-1.33,40.81,8.35,7.74,20.58,10.3,31.56,7.67.72.72-2.8,1.33-3.06,1.37-19.66,3.23-41.68-8.41-38.9-30.74.85-6.88,4.15-13.4,7.89-19.11h3.84Z"/><path d="M171.84,88.08c-.77,1.37-1.3,3.11-1.74,4.62-3.17,10.73-3.34,21.04.06,31.75.45,1.43.97,2.88,1.68,4.2v7.92c-1.29-1.75-2.31-4.05-3.16-6.08-3.93-9.37-6.2-19.85-4.44-29.97,1.24-7.16,4.33-14.41,7.6-20.84v8.4Z"/><path d="M171.84,218.4v3.36c-1.87,2.38-2.23,5.77-3.72,8.4-2.25,4.01-6.67,6.01-10.08,8.88l-6.69,6.7c-.42-.5-1.44-.71-1.33-1.49.08-.5,4.11-5.41,4.76-6.06,2.45-2.44,5.76-4.14,8.41-6.35-5.39,2.57-10.52,6.71-13.44,12-.35.09-.4-.09-.6-.23-1.06-.73-2.15-2.41-3.23-3.25l16.56-13.19c2.67-3.33,5.69-6.53,9.35-8.77Z"/><path d="M0,171.84v-1.92c11.19,6.24,25.66,4.24,37.2,0l-.48.6c-.04.18.23.15.35.12,1.49-.46,6.57-4.19,8.12-5.32,6.33-4.62,14.46-11.79,19.22-17.98,1.16-1.51,2.74-4.78,3.97-5.87.53-.47,1.95-1.06,1.94,0,0,.35-2.6,4.69-3.03,5.39-10.13,16.28-27.26,27.87-46.77,28.83-7.02.34-14.4-.23-20.53-3.85Z"/><path d="M131.52,364.32h-5.04c4.39-7.51,6.87-14.98,5.17-23.77-1.5-7.77-7.92-19.26-7.83-26.51,0-.39-.05-1.46.61-1.32,1.17.8.68,2,.95,3.13,1.2,4.98,5.19,10.26,7.3,15.02,3.86,8.69,4.57,19.31,1.24,28.29-.67,1.8-1.61,3.43-2.4,5.16Z"/><path d="M171.84,33.12v3.84c-4.72,2.74-9.78,4.88-15.12,6.12-8.92,2.07-21.64,2.63-29.16-3.49-1.07-.87-5.42-5.34-5.17-6.59l.64-.17c10.68,6.53,23.1,10.42,35.55,6.83,4.8-1.39,9-4.04,13.26-6.54Z"/><path d="M171.84,288.96v4.08c-11.47,6.6-29.96,10.98-42.07,4.03-2.22-1.27-5.57-4.38-6.84-6.6-.22-.39-1.13-2.12.03-1.71,1.59.57,4.2,2.49,6.01,3.35,8.04,3.82,16.97,5.98,25.89,4.45,6.22-1.07,11.84-4.13,16.99-7.61Z"/><path d="M0,240.72v-7.44c5.84-10.34,4.77-22.83,0-33.36v-5.76c6.12,8.44,8.53,18.29,7.93,28.69-.38,6.59-3.59,13.02-7.93,17.87Z"/><path d="M89.52,364.32h-5.04c14.1-9.17,26.74-22.3,29.4-39.6.41,0,.16,5.62.12,6.12-1.39,14.7-11.41,27.23-24.48,33.48Z"/><path d="M43.44,0c5.67,13.84,15.49,25.32,24.59,36.97.32.79.19,1.81-.48,2.39-4.94-4.04-9.26-9.36-13.17-14.43-5.82-7.55-11.46-15.85-14.54-24.94h3.6Z"/><path d="M51.12,0c4.21,8.48,10.34,15.83,17.38,22.1.83,2.29-.18,4.77.14,7.18C60.25,20.29,51.32,11.29,46.08,0h5.04Z"/><path d="M0,85.44v-6c9.08-.47,17.42,4.69,24,10.44.53.46,3.12,2.71,3.12,3.12,0,.71-1.56,2-2.24,2.25-4.08-2.39-7.66-5.62-12.1-7.35-4-1.56-8.49-2.5-12.78-2.46Z"/><path d="M0,341.28v-6c6.9-.11,13.24,2.67,18.8,6.52,1.16.81,8.33,6.4,8.33,7.28-.44.75-1.54,2.2-2.47,2.01-3.87-2.2-7.32-5.35-11.46-7.04s-8.71-2.45-13.2-2.76Z"/><path d="M0,320.64c13.85,1.66,25.55,10.18,36.24,18.48-1.27.3-1.67,2.22-3.24,1.7-1.18-.39-3.39-2.15-4.52-2.94-2.59-1.82-5.06-4.02-7.67-5.77-6.08-4.06-13.52-6.41-20.81-6.91v-4.56Z"/><path d="M0,69.12v-4.56c13.88,1.77,25.33,10.31,36.24,18.36,0,.15-1.92,1.73-2.22,1.86-1.03.44-2.71-.97-3.61-1.55-3.53-2.3-6.66-5.28-10.21-7.55-5.97-3.82-13.15-5.92-20.19-6.57Z"/><path d="M55.2,0c1.98,4.26,5.12,7.86,8.76,10.8-.08-.4-.57-.99-.84-1.32-2.51-2.98-5.44-5.76-6.95-9.49h4.56c.81,1.55,2.07,3.24,3.24,4.56,1.02,1.16,4.39,3.93,4.86,4.98s.22,2.85.07,4.02c-.27,2.16-2.29-1.24-3.37-1.33,2.19,2.6,4.11,3.05,3.49,6.97-.09.59-.23,1.66-.97,1.44-.14-.04-1.32-2-1.69-2.41-1.8-2.04-4.05-3.63-5.89-5.63-3.4-3.71-6.06-8.18-8.39-12.61h3.12Z"/><path d="M137.76,364.32h-4.8c5.45-9.82,5.76-21.65,1.69-32.05-1.86-4.76-5.11-9.29-7.08-14.04-.29-.7-1.95-4.29-.5-4.31.77-.01,1.16.84,1.52,1.37,7.49,11.09,13.29,28.5,11.26,41.89-.36,2.4-1.18,4.91-2.09,7.15Z"/><path d="M0,255.12v-4.8c6.07-4.8,10.9-11.34,12.89-18.91,1.03-3.9.73-6.76.55-10.73-.08-1.74-.43-3.59-.24-5.4.37.13.66.86.83,1.2,2.93,5.93,2.97,13.74,1.01,19.97-2.42,7.7-8.33,14.4-15.05,18.67Z"/><path d="M125.28,364.32h-5.04c6.42-6.65,8.99-14.89,7.89-24.09-1.18-9.88-7.67-18.46-7.61-28.55l.57-.41c.52-.05,1.37.7,1.5,1.15.4,1.3.33,3.64.6,5.16,1.94,10.76,9.07,21.23,7.58,32.44-.68,5.1-2.85,9.97-5.49,14.31Z"/><path d="M9.6,0c2.27,4.58,6.14,8.07,10.68,10.32.32-.11-.28-.5-.38-.58-1.15-.9-2.52-1.61-3.69-2.55-2.44-1.95-4.63-4.31-5.89-7.19h4.08c.79,1.97,2.69,4.03,4.32,5.4,1.24,1.05,7.97,5.04,8.24,5.69.34.8.14,1.77-.31,2.48l-1.69-.38c1.81,1.43,2.11,2.06,1.2,4.32l-.65-.18c-4.86-4.22-10.61-7.36-14.94-12.18L7.44.24c.08.83.39,1.74.76,2.48,2.41,4.81,10.06,9.55,14.23,13.13.62.53,2.87,2.34,3.12,2.88.54,1.17-.85,3.71-1.44,4.79-4.66-4.92-11.26-8.19-15.6-13.43C6.3,7.41,4.48,3.21,3.12,0h6.48Z"/><path d="M171.84,236.64v6.72c-4.18,2.51-7.41,6.23-10.92,9.54l-6-4.26-.35-.58c5.33-4.38,10.91-8.66,17.27-11.42Z"/><path d="M171.84,216.96c-2.92,1.92-5.69,4.14-8.04,6.72-1.68,1.84-2.99,4.01-4.91,5.65-2.57,2.18-6.36,3.7-8.76,5.88-1.09.99-3.38,4.14-4.45,4.69-.98.51-1.93-2.14-1.57-3.27.47-1.46,7.75-4.77,9.47-6.13,4.21-3.31,6.24-7.26,9.18-11.46,2.48-3.53,5.16-5.17,9.08-6.88v4.8Z"/><path d="M171.84,266.64v2.4c-10.45-1.62-20.89-6.99-27.96-14.88-.88-.99-5.86-7.24-5.86-8.04,0-.51.81-1.58,1.31-1.57.41,0,2.93,3.57,3.48,4.21,7.42,8.58,17.9,15.38,29.03,17.89Z"/><path d="M171.84,333.36c-4.73,8.95-8.99,18.99-9.12,29.28-1.6-.81-2.47-4.18-2.63-5.88-.51-5.44,2.28-11.72,4.51-16.6,2.07-4.51,4.54-8.89,7.24-13.04v6.24Z"/><path d="M171.84,77.28c-4.66,8.99-8.97,18.99-9.12,29.28-.65.74-2.11-3.34-2.19-3.68-1.32-5.02.3-9.45,2.08-14.07,2.35-6.08,5.6-12.14,9.23-17.53v6Z"/><path d="M0,16.56c5.83,4.65,12.35,10.54,13.81,18.23.85,4.49-.03,5.54-4.21,7.21,1.05-8.03-3.41-14.72-8.63-20.29-.28-.29-.53-.58-.97-.59v-4.56Z"/><path d="M0,272.64c5.67,4.36,11.82,10.03,13.61,17.23,1.18,4.71.55,6.29-4.01,8.21,1.03-8.18-3.71-15.87-9.6-21.12v-4.32Z"/><path d="M171.84,343.92c-2.82,6.41-3.91,13.44-4.32,20.4h-4.08c.3-10.05,3.74-19.78,8.4-28.56v8.16Z"/><path d="M0,328.8v-2.4c3.32.54,6.66,1.03,9.89,1.99,8.88,2.64,15.1,8.94,22.75,13.74-2.2,3.88-2.63,3.12-5.52.72-4.73-3.92-8.63-8.8-14.4-11.28-3.97-1.7-8.39-2.65-12.71-2.77Z"/><path d="M0,70.56c4.95.43,10.2,1.55,14.73,3.63,6.53,3.01,11.71,8.32,17.92,11.85-.46.74-1.76,3.12-2.72,2.95-4.14-2.93-7.6-6.9-11.57-10.02-5.26-4.14-11.72-5.85-18.35-6.25v-2.16Z"/><path d="M0,155.04c5.16,4.96,11.09,9.3,18.19,10.97,4.84,1.14,9.13.15,13.97.19-10.65,4.04-22.27.95-32.16-3.72v-7.44Z"/><path d="M0,334.32v-4.08c7.53.54,14.44,3.51,20.38,8.06,3.3,2.53,5.8,5.79,9.38,7.9l-1.8,1.8c-7.07-8.2-16.85-13.89-27.96-13.68Z"/><path d="M163.2,0c2.69,1.62,5.66,2.82,8.64,3.84v5.52c-7.05-1.66-13.72-4.97-19.44-9.36h10.8Z"/><path d="M0,74.16c1.94.36,3.92.54,5.85.99,5.14,1.18,10.79,4.13,14.9,7.42,3.03,2.42,5.41,5.84,9.01,7.44l-1.8,1.91c-2.2-2-4.01-4.22-6.38-6.09-6.1-4.8-13.79-7.51-21.58-7.58v-4.08Z"/><path d="M0,12.96l6.96,5.4c3.51,3,11.56,10.04,11.54,14.89,0,1.69-2.06,3.24-3.14,4.44C14.08,28.29,7.24,21.27,0,15.84v-2.88Z"/><path d="M0,268.8c2.63,2.11,5.39,4.13,7.92,6.36,3.26,2.86,10.73,9.62,10.58,14.17-.06,1.8-1.91,3.07-3.14,4.2-1.03-6.82-4.98-12.48-9.84-17.16l-5.52-4.44v-3.12Z"/><path d="M0,345.84c7.71.25,16.12,2.64,21.36,8.52-1.04.2-2.79,2.48-3.67,2.25-.56-.15-3.1-2.62-4.03-3.19-3.88-2.37-9.14-3.53-13.66-3.5v-4.08Z"/><path d="M0,350.88c6.19.16,12.66,2.05,17.04,6.6l-4.95,3.19-2.96-1.63c.26.69,1.89,1.51,1.67,2.25-.14.45-3.09,2.17-3.35,3.03H0v-7.68c2.94-.02,5.77.66,8.4,1.92-2-2.1-5.65-2.2-8.4-2.4v-5.28Z"/><path d="M0,90c5.59-.15,11.48,1.39,16.3,4.22.84.49,5.07,3.29,5.06,4.06l-3.49,2.46c-4.86-4.63-11.18-6.82-17.88-6.9v-3.84Z"/><path d="M0,94.8c1.69.32,3.31.29,5.05.59,2.74.48,5.85,1.63,8.23,3.05.61.37,4.04,2.58,3.52,3.3-1.57.23-3.83,3.23-5.28,2.79-.58-.18-2.01-1.37-2.87-1.82-.18-.15-.28-.43-.63-.68-2.23-1.6-5.41-1.6-8.01-1.96v-5.28Z"/><path d="M8.64,102.72c.35.29,2.57,2.38,2.4,2.64-1.44.3-3.89,3.58-4.98,3.8-.65.13-2.59-1.26-2.7-1.16l1.42,2.01-4.78,4.71v-14.16c3.15.18,5.84.71,8.64,2.16Z"/><path d="M0,22.08c3.78,3.64,7.1,7.97,8.28,13.2.74,3.26,1.78,9.56-3.24,9.36v-4.92c0-.77-.75-3.36-1.03-4.25-.83-2.63-2.35-5.2-4.01-7.39v-6Z"/><path d="M0,278.16c3.72,3.38,7.15,7.95,8.29,12.95.76,3.35,1.76,9.5-3.25,9.61v-5.16c0-.58-.63-2.76-.84-3.48-.82-2.79-2.33-5.7-4.2-7.92v-6Z"/><path d="M171.84,68.4l-6.28,10.4-3.86,8.38c-1.11,2.04-1.46,6.04-2.45,7.87-.06.11-.28.3-.36.24-.02-.48-.36-.91-.43-1.38-1.09-7.21,8.5-23.95,12.62-30.23.22-.33.35-.65.76-.8v5.52Z"/><path d="M171.84,324.24c-5.2,8.44-10.31,16.85-12.59,26.65-.28.38-.41.16-.55-.18-1.52-3.66,1.91-11.37,3.5-14.87,1.41-3.1,3.14-6.38,4.8-9.36,1.42-2.54,2.93-5.34,4.84-7.52v5.28Z"/><path d="M150.48,0c6.17,5.18,13.59,8.73,21.36,10.8v2.16c-9.57-1.34-19.24-5.97-25.92-12.96h4.56Z"/><path d="M27.12,0c.27,1.29.32,2.64.24,3.96-.05.7-.12,2.28-.72,2.4,1.06.92.86,2.54.35,3.73-.64.08-3.63-2.07-4.37-2.59-2.96-2.08-5.85-4.59-7.99-7.49h12.48Z"/><path d="M38.64,0c4.96,12.43,13.2,22.82,21.36,33.24.03.18-.22.14-.36.12-2.41-.39-10.25-10.38-11.97-12.75-4.42-6.09-8.85-12.98-9.75-20.61h.72Z"/><path d="M171.84,233.28c-.68.65-.81,1.22-1.6,1.88-2.81,2.37-7.75,4.13-11.01,6.27-2,1.32-3.77,2.96-5.66,4.42-.18.14-.73.65-.94.5,3.34-7.24,12.36-9.64,16.21-16.43,1.18-2.09,1.6-4.53,3-6.48v9.84Z"/><path d="M171.84,196.8c-2.44,1.52-9.32,9.03-11.91,9.12-.62.02-2.56-1.49-2.47-2,4.96-4.36,9.93-8.7,14.38-13.59v6.48Z"/><path d="M0,117.36c3.09-2.63,6.18-5.28,9.38-7.78,4.61-3.59,9.77-6.8,14.25-10.47.62-.51,4.81-4.94,5.41-4.31.03.58.04,1.12-.11,1.69-.83,3.09-13.17,9.83-16.28,12.04-4.79,3.39-8.82,7.78-12.64,12.2v-3.36Z"/><path d="M0,86.16c7.05,0,13.88,3.18,19.84,6.68.68.4,4.18,2.43,4.09,3.04-.4.44-1.05,1.44-1.68,1.28-2.29-1.36-4.4-3.31-6.74-4.57-4.72-2.52-10.23-3.42-15.52-3.8v-2.64Z"/><path d="M0,344.88v-2.64c6.83-.25,13.31,2.94,19.12,6.2.77.43,4.76,2.73,4.86,3.31-.11.54-1.17,1.53-1.68,1.42-.83-.18-4.49-3.23-5.67-3.92-4.93-2.9-10.94-4.19-16.63-4.37Z"/><path d="M171.84,302.4c-7.28,3.43-15.49,5.9-23.64,5.52-.32-.01-1.01.2-.84-.36,8.69-1.32,16.88-4.72,24.48-9v3.84Z"/><path d="M171.84,42.72v3.6c-7.51,3.74-16.01,6.11-24.48,5.4,6.48-1.27,12.67-3.27,18.64-6.08,1.97-.93,3.8-2.15,5.84-2.92Z"/><path d="M0,129.12v-7.2c2.7-2.6,5.13-5.53,7.92-8.04.92-.83,3.87-3.43,4.8-3.84.43-.19.45-.06.72.25-2.28,4.45-6.19,7.75-9.08,11.8-1.6,2.25-2.92,4.69-4.36,7.04Z"/><path d="M0,47.76v-17.76c2.76,3.81,4.79,9.04,4.33,13.81-.25,2.57-2.32,3.05-4.33,3.95Z"/><path d="M0,303.6v-17.52c2.82,3.77,4.79,9.04,4.33,13.81-.24,2.45-2.27,3.07-4.33,3.71Z"/><path d="M143.04,364.32h-3.84c2.97-6.8,3.22-14.16,1.68-21.36.99,1.08,1.67,2.81,2.16,4.2,1.97,5.52,1.97,11.64,0,17.16Z"/><path d="M171.84,122.88c-.72-1.2-1.06-2.89-1.37-4.27-1.86-8.46-1.45-18.26,1.37-26.45v30.72Z"/><path d="M171.84,205.92c-1.68.92-9.14,2.03-10.42,1.18-.23-.15-.39-.26-.4-.57,0-1.04,9.82-6.88,10.81-8.52v7.92Z"/><path d="M0,230.64v-10.08c.4-.25.24-.91.24-1.32.02-1.6.02-3.21,0-4.81,0-.41.15-1.07-.24-1.32v-9.6c3.75,8.33,3.84,18.8,0,27.12Z"/><path d="M171.84,160.32c-2.94-5.8-7.04-10.74-6.24-17.64.04-.34.14-.69.48-.35l5.76,10.32v7.68Z"/><path d="M171.84,208.08v3.36l-8.58,4.62c-1.03,1.66-3.2,5.91-4.62,7.02-.18.14-.26.15-.48.11.42-7.28,7.67-12.25,13.68-15.12Z"/><path d="M146.88,364.32c-.91-2.72-1.35-5.74-.73-8.54l.96.02c-1.45-1.69-1.51-4-1.68-6.12,1.2.53,3.56,5.97,3.37,6.81-.05.24-.58.07-.49.27,2.02,1.99,2.94,4.87,3.6,7.56h-1.44c-.96-1.67-1.79-3.61-3.36-4.8.68,1.7,2.16,3.02,2.64,4.8h-2.88Z"/><path d="M171.84,248.88l-8.07,5.73c-.52-.17-1.77-.98-1.77-1.54,0-.69,8.28-8.76,9.85-9.24v5.04Z"/><path d="M13.2,364.32h-1.92c3.62-3.2,7.89-5.62,11.63-8.65,1.99-1.61,3.66-3.56,5.77-5.02,1.15,1.49-.48,3.18-1.56,4.2-3.93,3.73-9.67,6.1-13.92,9.48Z"/><path d="M64.56,364.32c5.5-1.87,11.53-2.56,16.93-4.79.93-.38,5.18-3.05,5.63-2.64.08.34-.05.39-.23.6-.44.5-2.58,1.79-3.29,2.23-2.87,1.75-6.03,2.97-8.95,4.61h-10.08Z"/><path d="M86.64,0c.18,6,.82,11.98,2.4,17.76-.74-.71-1.3-2-1.72-2.96-2.01-4.57-2.99-9.82-3.08-14.8h2.4Z"/><path d="M171.84,250.32v6.96c-.34.16-.63.42-1.03.41-.81-.02-6.14-2.16-6.16-2.69l7.2-4.68Z"/><path d="M171.84,348.24v16.08h-2.4c-.16-5.04.54-10.19,1.89-15.03.11-.39.12-.81.51-1.05Z"/><path d="M171.84,137.28v5.28c-2.45-3.59-5.62-9.38-5.77-13.79,0-.27-.15-.91.25-.85l5.52,9.36Z"/><path d="M171.84,150.96c-2.63-3.84-5.93-8.72-6.01-13.55,0-.49-.14-.7.49-.61l5.52,9.6v4.56Z"/><path d="M64.56,0c1.45,2.62,6.08,4.6,3.96,8.16-.72-.01-6.73-6.92-7.32-8.16h3.36Z"/><path d="M77.04,0c.29,2.6,1.53,4.83,3.13,6.83,1.32,1.65,3.85,3.25,3.47,5.65-4.3-2.86-7.28-7.49-8.52-12.48h1.92Z"/><path d="M0,173.52c3.59,1.6,7.24,3.28,11.19,3.81,3.57.48,6.57-.24,10.05-.45.43-.03,3.96-.08,3.96.12-8.36,2.06-17.12,1.21-25.2-1.56v-1.92Z"/><path d="M81.84,0l.85,6.95c.08.34-.18.49-.49.49-.42,0-4.16-6.28-3.72-7.44h3.36Z"/><path d="M171.84,313.92v1.44l-10.74,2.34-1.51-.06c-.03-.43.43-.58.76-.68,1.08-.33,2.76-.38,4.09-.71,2.52-.63,4.87-1.72,7.39-2.33Z"/><path d="M171.84,57.84v1.68l-10.7,2.14c-.27-.05-1.75.32-1.54-.34l12.24-3.48Z"/><path d="M166.56,0h5.28v1.2c-1.4,1.14-3.9-.45-5.28-1.2Z"/><path d="M68.64,0c.22.66.3,1.34.24,2.04-.03.36.18.69-.36.6-.57-.09-1.95-2.03-2.28-2.64h2.4Z"/><polygon points="144.48 364.32 145.56 361.92 146.4 364.32 144.48 364.32"/><path d="M90.72,26.88l.48-1.2c.38-.4,2.13,1.94,2.35,2.33,1.33,2.35,1.51,6.14,1.72,8.84.2,2.5.25,5.05.24,7.56.42.06.23-.55.24-.84.16-3.9-.42-7.74-.24-11.64,4.42,3.04,2.9,9.78,3.12,14.52.51,11.14,2.4,20.63-1.2,31.69-3.87,11.89-13.79,19.02-25.92,20.99,1.81-1.91,3.97-3.48,5.89-5.27.45-.42,1.59-1.3,1.43-1.93l-9.4,7.88c-2.26.7-4.66,1.21-7.04,1.24,3.8-4.61,8.9-7.83,13.31-11.76,8.67-7.72,13.79-17.06,15.85-28.55.89-4.99,1.04-10.18.83-15.25-.01-.29.18-.89-.24-.84.11,14.37-2.52,29.08-12.48,39.97-4.49,4.91-10.19,8.28-14.89,12.71-1.48,1.4-3.49,4.64-5.42,4.9-2.03.27-4.3-.06-6.21.99-1.44.08,1.92-3.16,2.14-3.37,8.79-8.27,20.65-12.05,26.96-23.2.12-.21.52-.61.17-.79-6.17,9.45-17.05,14.13-25.19,21.37-1.72,1.53-4.83,5.71-6.38,6.58-.96.54-2.92.64-4.07.97-.85.25-1.51.82-2.39.84l.36-2.64c-1.71,2.49-3.43,4.82-6.05,6.43-1.32.81-2.9,1.19-4.13,1.87-3.38,1.86-6.62,4.99-10.1,6.82l2.39-3.25,8.17-6.95-.36-.12c-3.65,3.14-8.61,5.52-10.69,10.08l-2.11-1.32,4.51-5.88-1.08.24-3.6,4.78-3.62-2.87-.07-.31c3.58-5.49,10.57-7.17,15.1-11.56,1.66-1.61,3.09-3.93,4.67-5.65,2.68-2.93,5.47-4.48,8.74-6.62.2-.13.53-.59.75-.21-3.17,3.86-5.18,8.01-6.68,12.76l-1.36,2.72c3.63-3.63,3.52-8.82,6.72-12.72,4.86-5.93,12.47-7.41,18.34-11.9,3.79-2.9,6.93-6.85,9.74-10.66.39.92-.38,1.98-.8,2.8-2.94,5.72-8.93,10.22-13.48,14.6.4.24,1.1-.5,1.42-.74,11.94-9.17,15.42-18.74,20.31-32.49.61-1.72.57-2.62.95-4.33.63-2.81,2-5.5,2.05-8.39.72-.13.38.19.5.56,2.04,6.02,3.18,10.91,2.84,17.3-.02.39-.18,1.64.25,1.81.75-7.09.54-14.26.24-21.36-.42-.06-.23.55-.24.84-.12,2.84-.01,5.69-.36,8.52-.93-1.41-1.24-3.42-1.64-5.08s-1.2-4.63-1.13-6.31c.12-2.82,1.93-6.4,2.37-9.4.34-2.33.16-4.72.51-7.05,1.95,1.61,2.89,4.48,2.88,6.96ZM79.68,91.68c5.88-5.08,10.58-11.47,13.2-18.84,2.04-5.74,2.74-11.7,3.13-17.75v-9.01s-.25.84-.25.84c.11,8.75-.57,17.66-3.6,25.93-1.81,4.96-4.56,9.62-7.93,13.67-1.27,1.52-2.85,2.87-4.07,4.33-.23.27-.58.39-.48.84ZM66.48,86.88l4.8-3.23c5.7-5.32,9.75-12.37,10.31-20.28l-1.74,5.82c-2.58,7.21-7.37,13.08-13.38,17.7ZM53.52,92.64c.53-1.39,3.63-3.45,4.08-4.44.05-.1.06-.39-.12-.36-3.35,3.15-6.98,6.17-9.48,10.08.36.32,1.95-1.42,2.29-1.67,2.08-1.58,4.38-3.16,6.83-4.09l-.12-.48-3.48.96ZM87.84,88.32c-1.95.7-3.82,2.14-5.28,3.6l5.28-3.6ZM35.04,103.92c-1.97.66-3.6,2.1-5.36,3.16l-2.8,2.47c.44.54.34.3.72,0,2.46-1.93,4.93-3.79,7.44-5.64Z"/><path d="M115.92,53.04l.39-.49c3.68.58,2.74,4.66,3,7.31.22,2.22,1.06,4.38,1.17,6.63.41.06.26-.57.24-.83-.08-1.03-.38-2.2-.48-3.24.7.78,1.06,2.2,1.44,3.24,5.11,13.88,10.2,27.37-.25,40.32-9.69,12.01-30.34,16.57-45,18.36-7.81.96-16.74.59-23.16,5.76,1.63-.59,3.11-1.48,4.74-2.1,7.2-2.73,14.49-2.73,21.99-3.69,21.94-2.82,51.41-12.52,48.12-40.14-.99-8.3-5.77-15.8-7.29-24.15-.21-1.13-1.18-5.94,1.07-4.43,1.18.79.79,2.98,1.01,4.28,2.66,16.38,12.81,25.8,5.12,43.34-2.75,6.26-7.21,12.34-13.09,15.95-16.45,10.09-38.75,1.9-54.11,14.29-2.32-.32-7.46-.15-9.42-1.12-.42-.21-.51-.78-.67-.79-.19-.02-.6.25-.94.25-1.58,0-2.56-.23-3.96-.96,4.54-4.46,10.51-7.83,16.75-9.28,5.12-1.19,10.12-1.18,15.28-1.76,25.4-2.82,52.87-15.22,44.93-45.89l-1.37-4.27c1.26,7.19,3.13,14.03,1.56,21.36-2.28,10.62-12.67,18.66-22.21,22.67-12.4,5.2-26.18,5.68-39.35,7.57,1.4-1.19,3.33-2.4,4.97-3.31,1.9-1.06,4.81-1.87,6.15-2.68.26-.15.09-.53.32-.74,2.54-2.3,9.93-3.18,13.41-4.3,14.11-4.56,25.97-17.97,27.92-32.8,1.12-8.5-.32-17.01.76-25.52.68-.05.97.61.96,1.2ZM89.04,111.6c17.17-3.6,31.24-19.45,29.52-37.56l-1.92-16.2c-.42-.06-.23.54-.24.84-.08,1.94-.12,4.32-.01,6.25.3,5.44,1.84,10.8,1.45,16.31-.77,10.77-10.03,20.77-19.04,25.84-2.97,1.67-5.91,2.67-8.99,3.97-.3.13-.71.13-.77.54Z"/><path d="M156.72,62.88l-4.08,1.08c-4.3,1.76-7.28,5.57-8.64,9.95.64.12.42-.13.59-.48,2.19-4.49,4.93-6.6,9.61-8.4,1.01-.39,3.9-1.38,4.83-1.43.33-.02.7.03.8.38.14.47-3.94,7.4-4.51,8.65-3.38,7.42-4.43,14.48-1.18,22.23,1.23,2.92,3.17,4.82,4.63,7.37,5.37,9.38,6.3,31.78,5.63,42.6-1.35,21.75-13.02,33.67-31.13,43.75-.93.52-2.89,1.81-3.81,1.95-2.1.34-5.22-.6-7.42-.72-1.24-.06-2.5.05-3.73.13,4.1-2.13,8.4-3.83,12.48-6,12.62-6.71,23.06-15.33,27.84-29.28.68-2,1.69-5.17,1.91-7.21.03-.25.17-.9-.24-.83-1.28,6.76-4.16,13.47-8.21,19.03-8.86,12.19-23.35,18.84-36.85,24.59l-8.7.9c13.85-5.69,28.89-10.37,39.6-21.36.04-.18-.25-.16-.36-.12-.32.14-2.31,2.17-2.89,2.63-11.74,9.3-27.1,13.69-40.6,19.88-7.7,3.54-16.99,7.52-19.64,16.36-1.16-2.79.46-6.34,2.27-8.52,9.1-11,36.65-17.66,50-25.36,21.81-12.59,25.57-32.94,21.97-56.67-2.04-13.46-6.67-19.56-12.72-30.96-4.53-8.52-7.86-13.96-1.25-22.7.71-.93,1.09-1.8,2.37-1.95,3.7-.43,7.67.79,11.4.49ZM157.44,108c-.05-.83-.21-1.74-.46-2.53-2.65-8.31-7.66-14.34-11.34-21.78-.95-1.93-1.77-4.15-1.86-6.32-.02-.56.19-1.07.23-1.64.02-.25.15-.91-.25-.85-1.77,7.46,3.62,11.98,6.84,17.75,1.19,2.13,2.1,4.43,3.28,6.56l3.56,8.8ZM148.32,77.28v4.92c0,.57.82,3.03,1.08,3.72.07.17.11.74.36.36-1.07-2.81-1.08-5.24-1.2-8.16-.01-.29.18-.89-.24-.84ZM156.24,155.28c3.36-7.6,5.24-15.76,5.05-24.13l-.73-8.03c-.42.07-.27,1.25-.25,1.57.04.68.24,1.27.26,1.9.25,7.38-.57,15.54-2.59,22.63-.51,1.81-1.28,3.55-1.87,5.33-.08.24-.33.77.12.72Z"/><path d="M137.52,231.36l1.34,1.92-4.63,3.8-2.47-.68,1.16,1.35c.18.91-5.1,5.3-5.97,6.21-1.01.47-1.58-.68-2.53-.83-1.05-.17-1.97.25-2.99.23l3.43.77,1.13.79c-3.69,3.7-7.05,7.77-9.94,12.14-.51.77-2.97,5.22-3.26,5.36-.13.06-.35-.03-.48-.1,0,3.88-2.56,7.24-3.29,10.99-.63,3.26-.45,6.59-.67,9.89-1.14-1.34-3.48-3.65-4.16-5.2-.24-.54-.36-.92-.28-1.52l-.71.24-3.01-5.27c-3.23-7.07-4.86-14.34-3.64-22.14,2.86-18.4,26.18-32.41,43.37-23.59.79.41,5.14,2.92,5.02,3.58-1.19.86-4.11,3.59-5.51,3.17-.41-.12-1.66-1.32-1.91-1.1ZM124.2,228.72c2.09-.12,4.37,0,6.48,0,.7,0,2.81.69,3.61.95s1.39.74,2.15.97c.33-.15-.31-.46-.42-.54-3.55-2.5-9.31-2.02-13.37-1.38.19.68,1.32.01,1.56,0ZM128.52,234.72c-.79-.2-3.29,0-4.32,0-1.54,0-6.3,1.94-7.78,2.78-9.39,5.3-10.97,20.17-10.22,29.86.72-6.26.45-12.77,2.58-18.78,2.93-8.29,11.09-14.58,20.1-13.38,0-.15-.28-.46-.36-.48ZM108.72,234.96c-.45-.1-.57.25-.84.48-5.33,4.49-9.56,10.65-10.2,17.76l2.36-6.64c2.09-4.43,5.27-8.15,8.68-11.6ZM119.04,244.56c-.8.13-1.68.9-2.29,1.43-3.33,2.96-5.22,7.82-5.15,12.25l1.13-4.5c1.24-3.6,3.32-6.81,6.31-9.17ZM104.88,272.64c.12-1.46.67-2.83.48-4.32-.33-.06-.36.43-.41.66-.12.54-.26,1.54-.3,2.1-.02.33-.21,1.48.23,1.56Z"/><path d="M103.2,59.52l.25-2.29-1.21-16.19c.37-.07.56.04.85.23.48.31,4.31,4.17,4.67,4.69,1.32,1.92.57,6.59.48,8.88-.27,6.82-.65,13.92-3.18,20.34-.1.25-.07.72-.41.66-.36-3.71-.58-7.44-.72-11.16-.01-.29.18-.89-.24-.84.22,9.56-.53,19.44-6.39,27.33-11.17,15.05-32.75,14.23-48.33,21.75l11.23-3.65c6.83-2.09,14.78-3.01,21.34-5.78.89-.38,4.81-2.71,5.24-2.65.19.03.48.51.35.69-9.39,6.55-20.5,9.39-31.02,13.5-4.34,1.7-9.48,3.77-13.36,6.32-1.21.79-5.97,4.95-6.68,5.1-.54.11-1.99-.68-1.98-1.27.01-1.29,5.94-6.91,7.37-7.76l7.04-4.36c-5.98,2.51-11.66,6.66-15.36,12l-6.71-4.92c6.07-4.67,12.19-9.57,19.27-12.64,12.68-5.5,27.85-4.55,39.74-12.1,13.95-8.86,15.36-25.14,14.91-40.31l-1.21-17.87c.35-.38,2.1,1.89,2.15,2.29l1.93,20.03Z"/><path d="M62.88,197.76l.96-2.16c.43-.32,1.24,3.24,1.32,3.6.61,2.78.76,2.93-.47,5.53-1.91,4.04-4.52,7.8-6.34,11.9-6.8,15.39-5.96,29.74,4.77,42.92.83,1.01,2,2.84,3.35,2.76-3.67-3.77-6.99-7.99-9.09-12.87-5.53-12.86-2-26.38,4.16-38.25,1.31-2.52,2.92-5.26,4.68-7.43.01,2.07,1.83,3.99,1.39,6.07-5.09,10.29-10.58,20.15-8.76,32.15.73,4.8,3.59,11.65,6.66,15.42,1.73,2.12,4.76,3.52,3.11,6.84l-.47-.24c-.24.86.5,1.16.74,1.78.39,1.01.12,2.74-.01,3.87-.04.36-.01.6-.37.83l-6.84-6.23c-.1.45.25.57.48.84,1.98,2.35,4.72,4.35,6.67,6.77.51.93.46,4.48-.55,4.86l-1.79-2.28c-9.98-8.66-17.26-20.37-19.17-33.63-3.16-22,9.41-36.88,15.01-56.67.26-.93.5-3.1.79-3.71.11-.22.48-.31.71-.42-.87,4.34.62,8.81.25,13.09-.14,1.67-.91,3.07-1.21,4.67ZM61.44,263.76c-5.75-6.74-9.78-15.01-10.77-23.91-1.17-10.49,2.13-19.19,6.17-28.57.97-2.26,2.34-4.63,3.22-6.86.09-.23.37-.74.07-.9-6.59,12.14-12.01,25-9.65,39.17,1.05,6.35,4.06,13.56,7.99,18.65.44.57,2.18,3,2.98,2.42Z"/><path d="M126.48,58.08c1.36-.25,1.72.66,2.35,1.61,7.76,11.66,13.86,30.33,10.44,44.19-5.7,23.13-39.46,32.44-60.19,32.93-5.37.13-11.44-1.79-16.4-.56-2.47.61-4.86,2.09-7.44,2.4-13.64,1.64-30.16-8.52-39.06-18.17-.77-.84-4.24-4.59-4.2-5.38.03-.51,2.45-4.23,2.76-4.22,9.46,11.87,23.78,21.62,39.12,23.51,1.42.18,8.7.89,9.54.67.42-.11,1.12-.73,1.7-.95,7.55-2.81,17.65-2.39,25.72-3.32,27.17-3.14,53.49-19.82,44.93-50.93-1.83-6.67-5.83-11.81-8.37-18.03-.5-1.21-1.1-2.4-.92-3.76Z"/><path d="M38.4,264.96c2.1,3.58,4.05,7.87,6.38,11.26,4.02,5.85,7.29,7.22,9.15,15.09,3.55,14.97-1.76,26.66-13.02,36.28-1.47,1.26-6.72,5.57-8.26,5.9-.9.2-3.15-.11-3.14-1.21s7.07-6.44,8.3-7.55c5.06-4.58,9.91-10.86,11.75-17.53,2.9-10.5-1.48-22.17-7.56-30.72,1.45,3.71,3.71,7.1,5.15,10.8,2.42,6.22,3.5,13.41,1.68,19.92-2.8,10.02-11.76,17.37-19.33,23.87-1.36.53-2.83-.4-3.5-1.54-.13-.53,2.48-2.47,2.91-2.89,11.83-11.47,22.26-21.35,14.32-39.29-2.36-5.34-6.33-8.86-5.57-15.32.04-.3.25-1.42.73-1.2l1.44,1.8c-.72-1.87-1.59-3.68-1.85-5.71-.03-.27-.3-2.67.41-1.97Z"/><path d="M41.52,19.68c2.75,5.91,6.25,11.51,7.56,18,1.76,8.71.14,15.75-4.97,22.88-4.04,5.63-9.6,10.21-14.83,14.71-1.2.36-2.64-.82-3.35-1.73-.07-.3.18-.4.34-.57,3.14-3.3,6.86-6.11,9.97-9.47,9.08-9.82,12.9-19.74,6.76-32.69-2.44-5.14-6.77-9.64-5.08-15.92.91-.28.8.77,1.44.84-.71-2.22-1.62-4.45-1.44-6.84.32.06.5.4.67.64,2.37,3.26,4.07,7.82,6.42,11.1,3.04,4.27,5.98,5.94,7.96,11.48,6.59,18.41-2.92,34.23-18.1,44.17-1.74,1.14-3.79,2.21-5.33.13-.21-1.23,8.16-7.48,9.46-8.72,4.06-3.87,8.58-10.06,10.26-15.42,3.54-11.32-1.22-23.35-7.74-32.58Z"/><path d="M132.96,167.16c-.09-.82-.63-2.55-.9-3.42-2.75-8.99-11.55-16.17-19.26-20.94-.11.49.25.55.54.78.89.69,2.09,1.29,3.03,2.01,6.84,5.19,17.27,16.81,16.04,26.08-.34,2.54-2.26,3.39-4.5,4.02.31-2.9.26-5.35-.32-8.2-2.46-12.13-14.42-20.43-26.33-21.44l10.39-9.06c1.01-.39,2.3,1.38,3.29,1.5l-1.68-1.79,2.76-1.5c7.02,6.29,16.01,11.13,21.68,18.81,1.96,2.66,5.7,9.99,4.09,13.13-.29.56-3.8,3.32-4.05,3.03-.11-3.59-.23-6.95-1.57-10.31-2.18-5.51-6.67-9.65-11.04-13.44l-2.99-2.16c6.29,6.46,16.28,15.39,14.58,25.5-.37,2.18-3.78,3.93-3.78,2.7,0-1.63.17-3.73,0-5.28Z"/><path d="M155.28,133.56l-.49.26-1.19-.61,1.87,2.57-.55,2.47c-4.71-2.81-9.14-6.04-12.6-10.32,2.43,5.29,8.09,7.62,12.49,10.97.47.9.12,1.79-.01,2.71l-2.64-1.2c1.79,1.64,3.54,2.71,1.8,5.28-6.82-5.94-15.73-9.68-18.85-18.83-.21-.6-.77-2.11-.72-2.64.04-.39,1.24-1.8,1.56-1.33.7,1.04,1.15,4.4,1.79,5.89,1.51,3.51,5.21,6.52,8.65,8.03-3.02-2.32-6.12-4.57-7.89-8.07-.64-1.27-1.75-4.36-1.72-5.71s1.02-3.34,2.41-3.73l.48,2.16c-.1-1.94-.03-4.25,1.68-5.52,1.26,4.82,3.26,9.63,7.08,12.97l2.77,2.15c-3.9-3.87-10.41-11-8.96-16.99.16-.65,1.22-2.84,1.99-2.44-.23-1.08.35-5.03,1.33-5.52.47-.23.34.38.39.56.52,1.96,1,4.38,2.37,5.91-1.28-4.27-3.26-8.37-2.16-12.96l.96.12c-1.5-1.59-1.62-4.06-1.56-6.12.99.99,1.78,2.61,2.32,3.92.33.79,1.45,2.97.44,3.16,2.44,2.67,3.59,6.41,3.84,9.96h-.71c-.85-2.66-2.56-5.38-4.45-7.44l-.12.35c4.11,5.61,7.21,12.08,7.92,19.08l-1.44-.6c.37.87,1.35,2.15,1.56,3,.11.43.35,2.4.35,2.77v5.76ZM151.2,125.28l-2.68-3.92-.68-.64c.55,1.77,1.94,3.43,3.36,4.56Z"/><path d="M7.2,255.6c-.31-1.35-1.33-4.73.72-4.8.62,3.77,2.6,7.06,4.81,10.08l.71-.36c-2.98-3.11-6.97-9.91-2.51-13.32l.84,2.4c.06-1.12-.13-2.26.11-3.37.09-.42,1.07-2.52,1.57-2.15,1.41,5.34,3.27,9.59,7.56,13.2.27.23.39.58.84.48-3.58-3.83-8.89-10.18-7.58-15.85.06-.26,1.24-2.29,1.34-2.38.54-.45.36.6.71.48-.07-2.13-.13-4.28,1.32-5.99.36,0,1.5,6.26,2.76,6.72-1.54-4.17-3.14-8.67-2.36-13.17l.68-.03c-.73-1.12-1.1-2.87-1.2-4.2-.02-.26-.15-2.5.47-1.8,0,.3.04.62.19.88,2.42,4.22,4.83,11.05,6.05,15.8.03.13.07.39-.11.35-1.86-1.79-2.55-4.65-4.21-6.59-.21-.25-.82-1.09-1.19-.73,4.06,5.77,7.65,12.31,7.92,19.56-.54.39-.84-1.35-.96-.36,1.55,3.65,2.01,7.72,1.44,11.64l-1.44-.6c1.06,1.04,1.8,1.46,1.68,3.12-.03.47-.22,1.79-.97,1.45-1.48-.67-4.97-3.33-6.35-4.45-2.21-1.79-3.63-3.48-5.45-5.59-.18-.21-.47-.78-.44-.05,1.21,1.89,2.61,3.81,4.31,5.29,1.55,1.34,7.76,4.72,8.38,5.78.49.85.28,1.83-.2,2.63l-1.93-.62c1.89,1.56,2.42,2.06,1.44,4.56-.37.1-.4-.11-.6-.24-7.17-4.81-14.28-10.11-18.36-17.76,1.88,8.28,12.6,13.2,18.26,18.82.9,1.49-.86,3.41-.98,4.94-.27.24-2.61-2.08-3-2.39-5.85-4.75-11.52-7.81-15.36-14.64-.54-.96-3.14-5.95-3.17-6.65-.05-.95,1.93-2.21,2.67-2.71.9.53.92,1.72,1.33,2.48.08.16.25.14.25.15ZM23.76,254.16c-.11-.62-.64-1.24-1-1.76-.95-1.36-1.98-2.75-3.07-4,.9,2.08,2.4,4.25,4.08,5.76ZM20.16,266.16l-5.76-4.56c-.09.77.78,1.46,1.32,1.91,1.19,1,3,2.01,4.43,2.64Z"/><path d="M78.24,166.8l6.08-3.4c11.26-6.47,28.19-1.23,30.77,12.27.47,2.44,1.28,6.24-2.27,6.23-2.31-6.47-7.7-12.99-14.48-14.92-9.59-2.74-17.47,2.21-23.7,9.06l-.48-.25c.44-2.02.43-4.37,1.48-6.19.27-.47,1.12-1.23,1.25-1.6.36-.97.27-2.21.98-3.62,4.29-8.47,19.32-8.13,27.11-5.97s14.02,7.04,15.02,15.46c.33,2.76.55,6.77-3.37,6.25-.35-2.42-.58-4.7-1.36-7.04-5.11-15.42-26.39-16.15-37.03-6.3Z"/><path d="M78.24,182.4c1.21-6.78,7.16-10.31,13.8-9.83,1.11.08,2.33.51,3.43.65.26.03.83.27.77-.17-5.49-1.73-11.85-1.29-15.84,3.23-9.81,11.11,5.19,30.31,2.34,41.22-.34,1.28-2.33,3.88-2.58,1.76-.19-1.61.37-3.9.26-5.78-.69-11.45-11.97-29.12-3.36-39.1,3.62-4.2,11.59-7.88,17.15-7.56,6.55.38,14.21,6.74,16.56,12.72.3.76,1.22,2.84.44,3.31-2.09,1.26-5.66,1.84-7.88,3.11-1.19-1.31-2.08-3.01-3.35-4.27-4.52-4.49-10.76-5.67-16.54-2.84l-5.19,3.57Z"/><path d="M80.88,222.24l-1.32,5.04c-2.16,6.16-5.87,13.22-6.36,19.8-.57,7.71,2.73,14.72,3.13,22.31,1.22,23.16-3.09,46.41-23.21,60.09-.4.27-3.47,2.44-3.67,2.2l.24-1.07c10.7-9.45,18.72-23.69,20.6-37.96,2.93-22.11-6.39-51.3,9.27-69.21l1.32-1.2Z"/><path d="M89.42,227.66c-4.42,6.35-7.97,21.29-7.58,29.02.09,1.86.58,3.87.76,5.73.04.38.34.55-.16.87-1.22.22-3.78-6.04-4.08-7.2-2.76-10.89,4.78-28.08,12-36.25,15.27-17.29,41.21-25.34,59.89-8.28,2.41,2.2,4.41,5.18,7.44,6.49.04.19-1.33,2.31-1.91,1.68-2.55-1.95-4.33-4.67-6.89-6.56-4.67-3.47-12.61-6.86-18.43-7.25-14.75-1-32.78,9.9-41.03,21.75Z"/><path d="M68.64,285.36c-10.79-11.7-23.27-24.3-26.56-40.52-4.06-19.98,7.7-39.7,15.97-57.08,1.07-2.25,1.55-5.25,3.76-6.56.12.99-.24,2.14-.48,3.12-3.23,13.39-11.61,25.29-14.4,38.88-3.91,19.02,3.28,36.32,16.32,49.93,1.16,1.22,4.68,3.95,5.27,5.05.92,1.72-.27,5.16.14,7.18Z"/><path d="M58.2,182.89c.22.18.34.29.37.59.12,1.25-2.91,7.79-3.64,9.33-6.41,13.53-13.74,24.27-15.32,39.88-2.38,23.41,15.07,43.07,28.34,60.22.5.44.08,2.43-.38,2.54-4.79-4.14-8.94-9.06-12.83-14.05-10.17-13.07-20.22-30.55-19.21-47.75.73-12.32,11-34.87,17.48-45.64,1.39-2.31,2.6-4.02,5.2-5.11Z"/><path d="M17.76,111.6c-.32.23-2.83-1.92-1.85-3.05,3.33-2.52,7.8-4.24,10.86-7.02,1.51-1.37,3.91-4.03,5.15-5.65,1.51-1.98,2.49-4.45,3.98-6.34,4.33-5.45,15.49-8.91,21.71-12.37,21.49-11.96,24.82-39.59,24.49-61.94,0-.5-.49-1.33.35-1.31.6.01,1.96,1.77,2.16,2.4.32.96.54,3.35.61,4.43,1.09,18.67-7.06,45.43-21.98,57.48-8.18,6.61-18.41,9.58-26.4,16.8-3.04,2.75-4.93,5.79-8.34,8.22-3.65,2.6-8.25,4.46-10.74,8.35Z"/><path d="M160.8,214.08l-2.74,3.11c-6.85-5.9-12.47-12.69-21.55-15.18-19.26-5.27-41.33,7.13-51.64,23.12-5.32,8.26-11.8,26.94-6,35.96,1.55,2.41,4.62,4.21,4.9,7.22-.39.39-2.99-2.12-3.36-2.51-11.37-12.07-3.31-29.12,1.44-42.25,8.41-23.23,39.82-30.71,60.96-21.35,6.82,3.02,11.44,8.56,18.01,11.88Z"/><path d="M93.92,227.84c-8.03,8.7-8.04,22.28-7.04,33.39.38,4.27,1.06,8.46,2.16,12.6-1.04-1.23-1.83-3.14-2.4-4.67-4.14-11.17-2.6-24.36,1.38-35.35,1.6-4.42,2.83-6.61,6.06-10.02,9.92-10.49,26.93-19.57,41.65-15.48,7.31,2.03,14.21,7.32,19.5,12.6-.31.73-1.83,2.47-2.65,2.25-.28-.07-2.73-2.24-3.35-2.66-5.47-3.67-12.92-6.88-19.5-7.62-12.06-1.36-27.69,6.19-35.79,14.96Z"/><path d="M164.16,211.2c-1.49.47-1.44,2.16-3.37,1.57-.86-.26-3.89-2.61-4.86-3.29-3.97-2.82-7.36-5.98-11.84-8.08-16.85-7.92-38.46-5.07-52.89,6.56-.64.52-3.16,3.11-3.48,3.24-.42.17-.47-.4-.53-.66-.4-1.78-.34-4.52.04-6.31,1.21-5.74,16.18-9.66,21.21-10.71,21.54-4.5,34.88,2.13,51.72,14.37,1,.73,2.99,1.96,3.75,2.73.19.2.35.21.25.58Z"/><path d="M108.72,47.52c.55-.54,4.14,2.12,4.31,3.01.23,1.2.07,4.37.02,5.76-.63,16.95-5.32,30.04-18.25,41.27-15.37,13.37-35.49,19.3-51.37,31.91-1.09.51-5.88-1.53-6.36-2.26-.28-.43.21-.7.48-.97,10.47-10.51,30.78-13.48,43.97-20.35,21.24-11.08,29.04-35.57,27.2-58.36Z"/><path d="M120.96,178.32c.32-7.65-2.91-14.33-9.68-18.04-5.55-3.04-14.23-4.28-20.44-3.55-1.61.19-4.02,1.14-5.52.96-1.22-.15.26-.63.44-.76,1.23-.9,4.29-3.84,5.43-4.18,1.05-.31,4.61-.18,5.89-.11,7.38.41,15.18,2.51,20.64,7.67l.36-.71c-1.3-.69-2.36-1.74-3.62-2.51-6.33-3.84-14.23-5.23-21.58-5.18,1.15-1.23,5.04-4.62,6.59-4.81,2-.24,7.8,1.41,9.85,2.17,8.71,3.23,18.8,13.53,18.13,23.41-.3,4.3-2.61,5.09-6.49,5.63ZM122.64,166.08c-.59-1.68-1.71-3.45-3.12-4.56-.12.49.14.65.35.97.74,1.15,1.93,2.45,2.76,3.59Z"/><path d="M63.84,132.96c2.03-2.69,5.94-3.7,9.12-4.44,22.93-5.34,44.49,1.03,56.21-25.39,7.75-17.48-1.53-25.61-4.77-41.64-.14-.68-1.11-4.79-.2-4.84,1.51.63.93,2.05,1.19,3.37.16.79.72,2,1.05,2.79,2.95,7.04,7.41,12.3,8.85,20.19,5.13,28.17-16.4,41.68-40.91,45.81-10.14,1.71-20.69.91-30.53,4.15Z"/><path d="M149.04,156.48c.64,1.49-.47,2.51-1.35,3.58-.94.3-1.28-1.83-2.01-2.14.54,1.99,1.39,3.5,0,5.4l-2.4,2.28c-2.01-14.4-15.94-21.79-26.05-30.24-.38-.63,2.21-1.93,2.66-1.92.81.02,5.59,5.17,6.62,6.09,7.03,6.26,12.25,9.52,18.31,17.21.2.25,0,.6.62.45-3.94-8.57-12.89-13.08-19.68-19.07-.97-.86-2.25-1.97-3.12-2.88-.23-.24-1.62-1.81-1.67-1.93-.16-.41.17-.32.3-.42,1.42-1.02,3.3-2.63,4.98-1.38-.28-2.17,2.49-2.57,3.72-3.84,1.49,2.59,2.41,5.49,3.92,8.08,3.79,6.51,10.87,9.96,16.23,14.97.77.72,1.74,1.3,1.52,2.45-.08.44-1.78,3.77-1.99,3.78l-.6-.48Z"/><path d="M30.48,95.28c-.18-5.39,3.5-8.92,7.51-11.81,6.76-4.89,14.27-7.04,20.69-12.67,16.96-14.89,19.27-36.57,18.62-57.96-.04-1.24-.43-2.48-.25-3.83.04-.33-.13-.42.36-.35,3.13,1.85,3.99,3.77,4.21,7.31.36,5.73-.63,13.21-1.49,18.93-3.02,20.15-8.3,32.77-26.44,43.16-6.29,3.6-16.41,6.42-20.27,12.61-.78,1.24-1.33,2.85-2.16,4.08-.21.31-.27.66-.77.55Z"/><path d="M30.96,351.36l-.48-.12c-.2-6.15,4.84-10.04,9.48-13.08,6.01-3.95,12.22-5.98,17.89-10.67,13.25-10.96,18.72-28.07,19.45-44.87.26-6.03-.24-12.11-.13-18.13,1.51.93,3.7,2.72,4.1,4.54,1.28,5.86-.4,17.22-1.37,23.37-3.21,20.34-9.24,32.41-27.64,42.44-5.88,3.21-14.79,5.74-18.6,11.4-1.03,1.53-1.8,3.49-2.69,5.12Z"/><path d="M68.16,211.68c.68,1.88,1.39,3.2.79,5.23-.21.71-.7,1.25-.79,1.97l1.54-1.19c2.58,3.37-1.03,6.41-1.78,9.59l2.76-4.79c.95,1.24,1.38,3.3.98,4.82-.13.49-1.03.67-.85,1.41l1.08-.96c.78-.02.15,4.42.05,5.09-.79,5.09-3.36,9.98-2.81,15.31l-.96-.24c.46,1.29,1.51,5.54.74,6.58-.2.27-.69.09-.74.14-.15.14,1.36,3.35.6,4.08-.59.07-.51-.12-.8-.4-11.83-11.7-9.25-28.5-2.96-42.24.27-.59,2.4-4.95,3.16-4.4ZM67.92,220.08c-.38-.38-1.41,1.65-1.57,1.91-.95,1.65-1.93,3.66-2.27,5.52.64.13.41-.16.6-.47,1.24-2.1,1.98-4.83,3.24-6.96ZM66.96,252.72c-.89-1.95-1.98-3.82-2.65-5.87-1.34-4.09-1.67-8.43-1.43-12.73.05-.9.41-1.98.47-2.89.02-.27.18-.89-.23-.83-1.17,7.34-1.21,16.38,3.84,22.32ZM66.96,242.64v-5.52l-.5,2.52.5,3Z"/><path d="M38.14,278.9c.8,2.9,2.89,5.32,4.15,7.98,8.44,17.95-3.3,30.01-16.12,40.85-.38.32-1.33,1.16-1.75,1.05l-4.94-3.9c5.86-8.76,18.35-16.36,19.86-27.42.85-6.25-1.44-12.38-1.89-18.57l.7.02Z"/><path d="M37.44,23.04c.39-.02.56-.09.83.25.33.41,1.05,2.4,1.44,3.12,2.81,5.1,5.11,9.4,5.42,15.46.69,13.77-11.45,22.75-20.5,31.07l-5.18-4.16c5.87-8.52,18.31-16.35,19.88-27.17.91-6.24-1.41-12.39-1.89-18.57Z"/><path d="M68.16,139.92c4.54-3.62,11.19-2.12,16.69-2.39,17.45-.84,42.22-9.5,51.96-24.84,5.28-8.33,5.67-15.49,4.13-25.02-.06-.38-.2-.84.29-.29,8.25,14.48-.1,30.78-12.51,39.55-14.98,10.58-34.67,12.21-52.51,12.77-2.67.08-5.43-.26-8.05.23Z"/><path d="M32.88,78.48c9.22-6.23,19.07-14.61,22.06-25.82,1.27-4.77,1.5-10.74.19-15.51-.51-1.86-1.95-4.58-2.08-6.34-.19-2.64,3.16,1.17,3.71,1.83,4.97,6,5.1,15.31,3.06,22.51-2.8,9.89-14.08,27.2-26.32,23.79-.28-.08-.58-.08-.62-.45Z"/><path d="M32.88,334.8c9.43-7.08,19.73-15.19,22.4-27.4.79-3.6,1.01-8.89.33-12.49-.29-1.55-3.05-8.25-2.55-9.04.38-.61,2.2,1.12,2.62,1.54,7.02,7.03,6.33,19.18,2.76,27.72-3.9,9.32-13.82,22.99-25.56,19.68Z"/><path d="M157.2,222.96c-.55,3.05-3.89,5.31-6.31,7.01-3.97,2.8-8.28,4.99-12.15,8.01-14.19,11.09-33.86,39.06-19.7,56.37,7.86,9.6,21.99,12.97,33.83,10.21.54.43-1.35.95-1.52,1-9.65,2.59-23.84-.51-31.47-7.01-15.67-13.32-8.91-33.27,2.28-46.91,9.62-11.72,21.78-18.99,33.62-27.82.23-.17,1.25-1.05,1.41-.86Z"/><path d="M158.64,99.12c-.45.1-.58-.23-.82-.5-2-2.25-2.03-8.69-1.82-11.62.41-5.81,3.88-11.5,5.76-16.92-5.32,7.43-7.21,17.13-6,26.16l-1.98-4.38c-2.28-7.38-.03-14.91,3.3-21.55.73-1.46,3.03-5.8,4.08-6.72,1.14-.99,3.83-1.35,3.84.72,1.22-2.09,3.85-2.47,5.97-3.1l.4.59c-2.34,5.02-5.72,9.55-8.3,14.51-3.74,7.2-6.66,14.54-4.44,22.8Z"/><path d="M171.36,317.28c.33.33-.83,2.43-1.07,2.88-5.09,9.72-13.16,18.7-12.36,30.59.1,1.46.66,3,.6,4.44-2.87-2.72-2.8-8.61-2.52-12.36.45-5.94,4.2-12.12,6.23-17.64-.53.39-.9,1.18-1.24,1.76-4.5,7.54-6.5,16.38-5.24,25.12-.88-.84-1.43-2.43-1.8-3.59-2.64-8.23-.15-15.89,3.68-23.21.82-1.57,3.01-6.03,4.73-6.3.48-.08,2.17-.13,2.4.21.26.38-.16,1.19.34,1.21-.13-1.61,5.87-3.49,6.24-3.12Z"/><path d="M30.48,219c.1-1.18.58-2.96.9-4.14,1.92-7.15,6.46-13.85,9.9-20.34-.4-.5-.39-.01-.53.2-3.65,5.26-9.31,15.52-10.43,21.72-.76,4.22-.14,6.31.3,10.35.04.34.33.57-.26.49-2.94-3.73-2.62-9.97-1.98-14.45.61-4.23,2.26-7.75,4.05-11.55.95-2.02,4.55-9.59,6.03-10.53.63-.4,4.56-1.77,4.97-1.39-.14,1.48-1.31,2.67-1.88,4-.09.22-.52.61-.16.8,1.5-1.93,2.67-5.62,5.33-6.19.45-.1.55-.2.56.32.01,1.36-2.26,5.68-3,7.08-2.85,5.38-6.72,10.4-9.21,15.99-1.79,4.03-2.58,8.23-3.85,12.42l-.74.14c.1-1.6-.14-3.34,0-4.92Z"/><path d="M100.32,139.44c.1.44-.13.47-.4.68-2.74,2.14-6.66,3.9-9.66,6.18-12.18,9.26-14.3,22.42-26.58,31.5-9.98,7.38-21.51,11.29-33.92,12.04-.06-.35.42-.33.67-.4,1.14-.32,2.43-.44,3.6-.72,13.47-3.19,28.73-10.81,37.48-21.8s9.98-27.26,27.52-27.7c.49-.01.83.11,1.28.23Z"/><path d="M74.4,140.88l-3,4.55c-3.54,9.88-8.29,16.67-16.84,22.76-9.94,7.08-23.05,12.05-35.35,11.8.04-.37.89-.52,1.2-.6,1.64-.44,3.45-.49,5.13-.87,12.64-2.87,32.36-15.35,39.61-26.15,2.44-3.64,4.21-7.89,6.74-11.5.67-.56,1.78-.17,2.52,0Z"/><path d="M3.84,318.96c-.1-.44.13-.47.4-.68,1.99-1.55,5.24-3.03,7.5-4.5,8.36-5.45,16-11.93,20.51-21.01,1.67-3.37,2.45-6.92,3.92-10.24.13-.29.12-.71.54-.78-.03,2.74.12,5.53-.27,8.25-1.93,13.73-16.22,21.32-24.45,30.99-.25.19-.5.11-.77.07-2.24-.29-5.01-1.93-7.38-2.12Z"/><path d="M3.84,62.88c-.14-.55.11-.39.3-.55,1.9-1.49,5.17-2.97,7.36-4.39,10.24-6.66,17.94-13.63,22.52-25.24.79-2,1.33-4.32,2.15-6.25.13-.3.13-.71.54-.77,0,2.82.12,5.66-.3,8.45-2.08,13.81-16.26,21.33-24.65,31.02l-7.93-2.28Z"/><path d="M131.76,190.8c5.82-3.78,11.89-7.18,17.15-11.76,9.4-8.18,10.93-13.47,15.31-24.53.1-.25.07-.71.41-.66-.06,1.78.11,3.59-.03,5.37-1.28,16.51-14.96,22.74-24.7,33.87-1.15.53-6.49-2.38-8.15-2.29Z"/><path d="M18.68,68.6c-.33.19-4.56-1.93-5.17-2.32-.98-.62-.22-1.12.4-1.85,9.57-11.37,21.61-15.48,23.55-32.37.03-.25.1-1.13.45-1.11,5.31,16.39-11.25,26.11-19.24,37.64Z"/><path d="M12.97,322.07c-.06-.26-.01-.48.11-.71.11-.2,2.15-2.39,2.51-2.77,10.11-10.56,19.69-14.53,21.91-30.65.03-.24.07-.96.41-.9,5.23,16.26-11.21,26.27-19.43,37.57l-5.51-2.54Z"/><path d="M165.84,158.88c.41.05.47.9.56,1.24,3.4,13.25-7.58,22.19-15.32,30.91-.68.77-3.84,4.98-4.2,5.18s-.58.03-.91-.05c-.41-.1-4.65-1.95-4.85-2.12-.23-.21-.38-.31-.13-.6,9.53-10.46,24.12-18.82,24.85-34.55Z"/><path d="M68.88,137.52c-1.41,1.19-3.52,1.96-5.28,2.52-18.02,5.71-40.41-2.75-51.08-18.05-.56-.8-1.87-2.58-2.09-3.43-.18-.68-.44-2.15.53-2.12.56.02,2.51,2.91,3.07,3.56,9.96,11.41,27.89,22.46,43.61,19.37,3.71-.73,7.33-3.28,11.23-1.85Z"/><path d="M74.16,170.88c-.18,2.13-.76,4.23-.96,6.36-1.21,13.17,3.74,19.99,5.93,31.75.73,3.92,1.63,10.77-1.49,13.73-.16-9.15-3.94-17.58-6.1-26.3-1.57-6.36-2.64-13.65-.91-20.07.46-1.71,1.46-5.51,3.53-5.47Z"/><path d="M79.68,111.36c3.09-2.18,6.38-4.06,9.44-6.28,10.25-7.45,19.07-17,23.03-29.29l1.85-7.14c.33,3.68-.05,7.61-.88,11.23-3.63,15.85-17.54,28.6-33.44,31.48Z"/><path d="M34.56,234.48c-.56.12-.39-.07-.54-.31-.64-1-2.33-5.68-2.34-6.77-.04-3.25,3.12-11.24,4.52-14.45,3.23-7.41,7.76-13.78,11.6-20.8.74-1.35,1.94-4.9,3.02-5.69.43-.31,2.04-.9,1.95.08-.04.37-1.11,2.61-1.36,3.21-2.92,6.8-6.77,13.2-9.85,19.91-3.62,7.9-6.46,16.03-7,24.8Z"/><path d="M160.08,294c.17.63-1.19.76-1.63.89-8.17,2.37-17.28.83-25.08-2.15-1.78-.68-11.23-4.73-11.65-6.11-.25-3.25.24-6.47.68-9.67.4-.09.49.13.71.36,1.08,1.11,2.14,2.77,3.24,3.96,6.35,6.87,14.23,12.35,23.77,13.44l9.95-.72Z"/><path d="M99.04,185.36c-4.05-3.54-15.5.17-18.52,4.47l-1.79,3.85c-.79-4.44-1.59-9.03,2.04-12.48,1.81-1.72,6.64-3.67,9.13-3.62,5.41.12,9.79,4.25,12.72,8.42-1.56,2.46-2.46.33-3.57-.64ZM92.16,181.2c-1.81.04-3.75.41-5.52.83-.9.21-2.31.35-2.88,1.08l8.4-1.92Z"/><path d="M133.92,124.8c1.43,5.31,4.83,9.95,9.01,13.43,2.62,2.19,5.61,3.99,8.25,6.15.49.4,2.12,1.6,2.3,2.02.55,1.31-.62,4.16-1.44,5.27l-3.12-3.11c-5.65-4.57-11.24-7.88-14.88-14.4-.66-1.19-3.25-6.01-2.95-7.03.08-.28,1.87-1.84,2.24-2.1.2-.14.24-.33.6-.24Z"/><path d="M97.49,188.22c-.1.06-.2.46-.44.62-4.08,2.81-9.74,3.58-13.18,7-.82.82-2.32,3.08-3.12,3.61-.26.17-.17.38-.48,0-1.51-1.87-.13-5.24,1.56-6.6-.58-.38-.95.75-1.44.84-.38-4.17,4.61-6.98,8.16-7.68l-.12.72c2.15-2.61,8.74-2.74,10.79-.23,1.69,2.07-1.3,1.48-1.73,1.72Z"/><path d="M36.72,191.04c-4.51,9.99-10,18.39-9.37,29.89.06,1.06.49,2.16.37,3.23-5.38-8.84-2.32-19.1,2.24-27.52,1.55-2.87,2.8-6.43,6.76-5.6Z"/><path d="M68.16,176.4c-1.79,16.41,3.83,31.96,7.45,47.65.13.59-1,3.56-1.33,3.71-.09.04-.64.1-.6-.15-1.61-11.09-5.59-21.74-6.93-32.88-.56-4.63-1.02-12.73.32-17.14.16-.52.4-1.24,1.09-1.19Z"/><path d="M108.48,137.52l-28.56,22.32c2.27-4.97,6.19-9.12,10.45-12.47,3.15-2.47,7.97-5.86,11.47-7.73,2.21-1.18,4.17-1.71,6.64-2.12Z"/><path d="M68.4,291.6l-.96-.36c-7.09-10.2-16.15-19.29-20.63-31.08,1.29,1.73,2.37,3.61,3.64,5.36,4.05,5.56,8.87,10.3,13.28,15.52,2.57,3.04,5.98,6.18,4.68,10.56Z"/><path d="M47.28,4.32c4.26,8.37,11.52,14.68,17.41,21.84,2.26,2.75,4.95,5.43,3.71,9.36l-.85-.22c-7.22-10.06-15.95-19.26-20.74-30.86l.47-.12Z"/><path d="M58.8,61.2c-.21-1.67.92-3,1.37-4.51,1.63-5.42,2.1-11.75.87-17.29-.21-.96-.91-2.32-1-3.1-.03-.3.02-.72.32-.78.63-.13,6.26,4.63,6.66,5.59.31.74-.51,3.2-.78,4.13-1.23,4.26-3.53,9.17-5.64,13.08-.5.93-1.09,2.11-1.8,2.87Z"/><path d="M59.28,317.04c-.46.02-.48.11-.48-.36,0-1.34,1.25-3.57,1.67-5.06,1.43-5.01,1.68-10.85.62-15.94-.24-1.17-.95-2.73-1.08-3.73-.09-.7.74-.31,1.08-.12,1.07.58,5.56,4.31,5.99,5.3.29.65-.73,3.82-1.02,4.73-1.66,5.32-4.52,10.12-6.79,15.18Z"/><path d="M60,289.44c-.4.07-.7-.09-1.04-.27-3.52-1.85-11.44-12.5-13.84-16.16-3.51-5.34-6.89-11.34-7.19-17.89.36.06.45.45.6.71,1.84,3.08,3.24,7.08,5.03,10.33,4.6,8.35,10.91,15.56,16.45,23.27Z"/><path d="M76.56,224.4l-5.16-19.44c-1.91-9.83-4.99-20.71-1.44-30.48-.26,4.76-1.16,9.49-.85,14.29.76,11.93,9.34,23.27,7.45,35.63Z"/><path d="M9.53,189.39c.48-.13,5.51.68,5.59,1.05l-5.16,9.23c-.47.11-1.07-1.33-1.19-1.69-.49-1.47-1.02-8.13.76-8.6Z"/><path d="M143.28,62.4l-5.52,9.36c-2.14-3.26-1.87-6.73-.7-10.3l6.22.95Z"/><path d="M143.04,318.24l-5.16,9.36c-2.45-2.79-1.88-6.79-.81-10.05l5.97.69Z"/><path d="M85.92,204c-.04,2.95,1.53,7.43-.48,9.96-.36.45-.79.96-1.43.84-1.37-3.27-.49-7.58,1.38-10.49.15-.24-.02-.43.54-.31Z"/><path d="M90,192.96c-3.38,3.12-6.57,6.2-8.76,10.31-.35-.23-.33-.46-.37-.83-.42-3.82,5.58-8.9,9.13-9.49Z"/><path d="M135.36,66.72c-.99-.52-3.15-5.97-2.64-6.48,4.98.07,2.94,3.23,2.64,6.48Z"/><path d="M135.36,322.56c-.56.12-.39-.07-.54-.31-.48-.75-2.64-5.39-2.1-5.93,4.9-.05,3.03,3.07,2.64,6.24Z"/><path d="M7.44,194.64c-.63.11-.37-.09-.5-.34-.95-1.86-1.55-3.98-2.38-5.9,5.16-.26,3.07,2.96,2.88,6.24Z"/><path d="M86.4,285.84l-.49-2.75v-9.25c.85.61,1.13,2.24,1.22,3.23.25,2.96-.39,5.85-.73,8.77Z"/><path d="M86.4,29.76l-.49-2.75v-9.25c.47.2.7,1,.84,1.45,1.04,3.31,0,7.19-.35,10.55Z"/><path d="M168.48,207.84c.1.44-.13.47-.4.68-1.71,1.33-3.62,2.44-4.87-.08.03-.51,4.62-1.08,5.27-.6Z"/><path d="M36.91,335.83c.51-.07,3.67-.29,3.65.29-1.86,1.38-3.43,2.86-5.27.48-.13-.6,1.18-.71,1.63-.77Z"/><path d="M35.28,80.16c.65-.16,5.28-.98,5.27-.12-1.64,1.57-4.08,3.01-5.27.12Z"/><path d="M160.08,38.16c-.11.42-1.01.54-1.39.65-9.93,2.96-20.1.36-29.25-3.73-2.64-1.18-5.5-2.38-7.63-4.37-.41-.97.13-8.79.71-9.6.32-.45.35-.06.56.16,7.48,7.93,14.53,16.47,26.56,17.36,3.36.25,7.04-.68,10.43-.47Z"/></svg>