<?xml version="1.0" encoding="UTF-8"?>
<svg xmlns="http://www.w3.org/2000/svg" width="116.09mm" height="128.5mm" viewBox="0 0 329.08 364.25">
  <g id="a" data-name="UFO pattern">
    <g>
      <path d="M256.44,77.87c10.21,12.04,20.46,24.05,30.71,36.05v-16.62c-5.76-6.74-11.53-13.49-17.31-20.21-1.45-1.68-1.33-2.82.07-4.39,5.76-6.52,11.5-13.05,17.24-19.58v-16.13c-10.16,11.06-20.32,22.13-30.48,33.19-4.34,4.72-3.81,3.47-.23,7.7Z" style="fill: none; stroke-width: 0px;"/>
      <path d="M263.6,189.35c7.88,9.27,15.71,18.57,23.55,27.87v-12.69c-4.37-5.2-8.73-10.41-13.11-15.61-1.08-1.28-1.04-2.15-.02-3.38,3.61-4.34,7.1-8.78,10.71-13.12.81-.97,1.62-1.94,2.42-2.91v-12.14c-7.83,9.23-15.66,18.47-23.52,27.67-1.4,1.64-1.44,2.64-.03,4.3Z" style="fill: none; stroke-width: 0px;"/>
      <path d="M275.72,77.19c3.82,4.48,7.62,8.97,11.43,13.46v-31.25c-3.81,4.31-7.61,8.62-11.43,12.91-1.65,1.85-1.6,2.99,0,4.88Z" style="fill: none; stroke-width: 0px;"/>
      <path d="M246.04,189.54c9.82,11.63,19.54,23.35,29.31,35.02,3.78,4.52,7.59,9.02,11.47,13.45.12.14.22.28.32.41v-14.98c-9.38-11-18.74-22.02-28.11-33.03-2.82-3.31-2.82-3.25.07-6.64,9.35-10.97,18.69-21.94,28.04-32.91v-12.33c-13.69,15.74-27.29,31.56-40.97,47.31-1.17,1.35-1.4,2.21-.14,3.7Z" style="fill: none; stroke-width: 0px;"/>
      <path d="M282.53,20.8c-14.41,14.71-28.82,29.4-43.29,44.04l-9.06,9.05-4.13,4.35c-3.41,3.82-3.76,2.6-.11,6.96,11.55,13.81,23.14,27.59,34.76,41.35,1.11,1.32,1.2,2.27.01,3.57-2.32,2.54-4.51,5.19-6.74,7.81-13.07,15.34-26.12,30.69-39.23,45.98.43,1.13.86,2.46,1.38,4.28.57,2.02,1.01,4.46,1.44,7.1,13.57,16.04,27.11,32.11,40.72,48.11,1.61,1.89,1.56,3.12.03,4.99-5.3,6.46-10.58,12.93-15.85,19.41.8,3.5,1.71,6.54,3.01,8.87.13.23.26.47.39.7,8.03-9.79,16.07-19.58,24.16-29.33,1.49-1.79,1.54-2.93-.13-4.7-3.98-4.22-7.77-8.64-11.51-13.09-11.23-13.33-22.36-26.75-33.65-40.03-1.47-1.73-1.61-2.72-.12-4.47,13.25-15.56,26.42-31.18,39.66-46.75l.02.04s.91-1.11,1.77-2.15c.52-.61,1.04-1.22,1.56-1.83.71-.66,1.38-.8,1.75-.49l2.12,1.77c.38.35.14.76-.2,1.18-.81.96-1.63,1.92-2.45,2.88-.42.49-.73.85-.73.85h0c-2.82,3.33-5.65,6.66-8.48,9.97-9.94,11.64-19.88,23.28-29.86,34.88-1.17,1.36-1.34,2.36-.05,3.77,2.54,2.77,4.95,5.67,7.37,8.56,12.61,15.06,25.16,30.17,37.84,45.17,1.53,1.81,1.66,2.91.14,4.75-9.09,10.96-18.13,21.96-27.16,32.96,1.51,3.05,2.95,6.34,3.92,9.37,11.75-14.11,22.99-28.66,35.32-42.27v-7.42c-.14.2-.31.39-.51.6-1.19,1.2-1.87.24-2.6-.54-.78-.84-1.55-1.69-2.28-2.57-13.7-16.28-27.38-32.58-41.13-48.83-1.22-1.44-1.15-2.41.04-3.77,13.37-15.38,26.68-30.81,40.03-46.21,4.66-5.38,4.26-3.75-.25-8.7-.1-.11-.19-.18-.28-.28l-8.98-9.52c-10.23-11.79-20.37-23.48-30.62-35.28h0s-.05-.05-.05-.05c-.77-.88-1.53-1.76-2.29-2.64-.11-.2-.13-.44.03-.65l1.73-1.63s.56-.53,1.09.07c15.35,17.64,30.64,35.33,45.99,52.97.03.03.05.06.07.09v-13.68c-12.62-14.72-25.22-29.46-37.87-44.15-1.04-1.21-1.02-1.9.04-3.04,12.62-13.51,25.21-27.04,37.82-40.55V8.76c-2.49-2.92-4.98-5.84-7.47-8.76h-9.81c4.22,5.03,8.44,10.07,12.69,15.07,2.53,2.98,2.68,2.97-.02,5.72Z" style="fill: none; stroke-width: 0px;"/>
      <path d="M205.55,126.63c-5.38-6.38-10.74-12.78-16.09-19.18,4.15,11.16,8.02,21.94,10.52,29.04,1.7-1.97,3.41-3.94,5.11-5.91,1.05-1.21,1.94-2.19.46-3.95Z" style="fill: none; stroke-width: 0px;"/>
      <path d="M272.24,302.61c4.97,5.6,9.94,11.2,14.91,16.79v-39.81c-5,5.89-10,11.77-15,17.66-2.29,2.7-2.25,2.72.09,5.36Z" style="fill: none; stroke-width: 0px;"/>
      <path d="M257.07,319.93c2.29,4.01,13.14,19.63,15.36,22.12.49.55,1.6,2.13,3.04,4.26,2.53,2.84,5.06,5.68,7.59,8.51,1.25,1.4,1.37,2.46.44,3.73,1.35,2.09,2.61,4.05,3.65,5.68v-17.34c-10.87-12.28-21.72-24.58-32.62-36.83.65,4.2,1.51,8.07,2.54,9.88Z" style="fill: none; stroke-width: 0px;"/>
      <path d="M253.06,296.45c.09,1.59.28,3.93.56,6.54,11.2,12.7,22.36,25.43,33.53,38.16v-15.39c-7.1-7.99-14.2-15.98-21.32-23.96-1.14-1.27-1.33-2.27-.19-3.59,1.6-1.86,3.07-3.83,4.66-5.7,5.61-6.6,11.23-13.19,16.85-19.79v-18c-11.4,13.53-22.79,27.08-34.2,40.61.05.39.09.77.12,1.14Z" style="fill: none; stroke-width: 0px;"/>
      <path d="M287.15,0h-1.74c.58.69,1.16,1.37,1.74,2.06V0Z" style="fill: none; stroke-width: 0px;"/>
      <path d="M253.49,243.87c-11.59-13.62-23.11-27.29-34.64-40.95.79,4.18,1.84,8.42,3.58,12.08,2.04,4.3,5.5,10.14,8.76,16.33,3.25,3.86,6.51,7.72,9.76,11.57,2.56,3.03,2.51,3.01-.06,6.19-.58.72-1.17,1.45-1.75,2.17.89,3.99,1.58,7.82,2.25,11.34,3.89-4.79,7.78-9.59,11.67-14.38,1.12-1.38,2.07-2.42.43-4.35Z" style="fill: none; stroke-width: 0px;"/>
      <path d="M238.87,125.67c-12.48-14.85-24.86-29.78-37.33-44.64-1.16-1.38-1.16-2.19.1-3.46,2.37-2.39,4.73-4.79,7.09-7.2-1.57.11-3.04.09-4.33-.1-3.54,4.77-9.71,6.91-15.38,7.35-.74,1.13-.65,2.06.56,3.51,12.43,14.79,24.73,29.67,37.08,44.53,2.22,2.68,2.28,2.73-.04,5.45-7.16,8.41-14.33,16.81-21.49,25.21.61,3.7,1.22,7.42,2.03,10.72,10.53-12.35,21.06-24.71,31.61-37.04,1.37-1.59,1.51-2.67.11-4.34Z" style="fill: none; stroke-width: 0px;"/>
      <path d="M279.76,189.32c2.47,2.92,4.92,5.84,7.39,8.76v-21.61c-2.47,2.98-4.94,5.97-7.42,8.95-1.25,1.5-1.23,2.41.03,3.9Z" style="fill: none; stroke-width: 0px;"/>
      <path d="M255.65,26.66c-2.84,2.94-5.44,6.12-8.28,9.06-6.81,7.04-13.63,14.07-20.46,21.1.79,1.5,1.11,2.92.95,4.15-.46,3.58-6.73,6.85-13.25,8.45-2.55,2.61-5.09,5.23-7.65,7.84-1.44,1.48-1.61,2.46-.21,4.08,4.11,4.77,8.04,9.7,12.07,14.55,8.38,10.06,16.75,20.13,25.19,30.15,1.24,1.47,1.33,2.59,0,4.02-1.5,1.62-2.81,3.41-4.24,5.09-10.4,12.18-20.81,24.35-31.23,36.51.31.8.63,1.57.99,2.26,1.42,2.69,2.43,4.4,3.22,5.84,14.28-16.62,28.52-33.28,42.82-49.88,1.19-1.38,1.34-2.23.1-3.69-12.18-14.35-24.26-28.78-36.43-43.15-1.14-1.35-1.18-2.2.08-3.48,9.14-9.27,18.11-18.7,27.33-27.88,10.45-10.39,21.11-20.56,31.67-30.83,1.13-1.1,2.31-1.98.7-3.81-4.94-5.65-9.84-11.34-14.74-17.03h-11.11c5.38,6.36,10.75,12.72,16.09,19.11.56.67.94,2.29.54,2.8-.99,1.27-2.33.81-3.34-.34-1.68-1.9-3.34-3.82-5-5.74-4.54-5.28-9.08-10.56-13.62-15.83h-12.12c6.62,7.71,13.23,15.43,19.87,23.13,1.09,1.27,1.3,2.2.02,3.53Z" style="fill: none; stroke-width: 0px;"/>
      <path d="M221.25,125.66c-12.44-14.99-24.86-30-37.35-44.95-1.05-1.26-1.08-2.11-.22-3.19-3.24-.38-5.84-1.36-6.92-2.67,2.42,5.72,5.27,12.96,8.18,20.59,8.37,10.16,16.74,20.32,25.19,30.41,1.64,1.95,1.79,3.18.08,5.16-2.89,3.33-5.76,6.68-8.64,10.01.26.76.49,1.42.67,1.97.79,2.32,1.39,5.05,1.94,7.94,5.67-6.61,11.34-13.23,17-19.85q2.32-2.71.07-5.42Z" style="fill: none; stroke-width: 0px;"/>
      <path d="M32.94,25.59C21.95,38.45,11.01,51.35,0,64.2v15.53c13.94,16.45,27.84,32.95,41.79,49.38,1.44,1.69,1.54,2.83.06,4.57-.75.92-1.17.49-1.64.17l-2.86-3.32h0s0,0,0,0l-4.09-4.76C22.17,112.6,11.09,99.41,0,86.22v13.45c8.27,9.73,16.54,19.45,24.84,29.15,1.54,1.8,1.81,2.94.12,4.92C16.61,143.54,8.3,153.39,0,163.23v13.57c9.6-11.44,19.19-22.9,28.81-34.32l.02.02s2.56-2.93,3.28-3.88,1.49-1.01,1.92-.58h0c.43.43,1.23,1.32,1.55,1.62s.3,1.1-.14,1.62c-.44.52-1.83,2.17-1.83,2.17h0C22.39,156.72,11.19,170.02,0,183.32v7.75c14.35,17.06,28.67,34.14,43.07,51.17,1.36,1.6,1.25,2.67-.04,4.19C28.67,263.39,14.36,280.4,0,297.36v10.02c7.04,8.27,14.07,16.55,21.09,24.84,1.4-3.24,2.75-6.3,4.01-9.07-5.3-6.26-10.61-12.53-15.94-18.77-1.45-1.7-1.42-2.71-.04-4.32,14.84-17.47,29.6-35.01,44.46-52.46.54-1.75,1.05-3.4,1.53-4.94-.11-.15-.23-.31-.37-.48-14.84-17.57-29.59-35.22-44.49-52.74-1.57-1.84-1.33-2.85.06-4.49,14.39-17.09,28.69-34.26,43.09-51.35,1.45-1.72,1.49-2.79.01-4.54-15.36-18.2-30.61-36.5-45.96-54.71-1.46-1.73-1.46-2.76.03-4.5,12.66-14.81,25.19-29.72,37.8-44.57.93-1.09.95-1.85.02-2.93-6.37-7.44-12.72-14.9-19.07-22.35h-11.77c6.13,7.29,12.27,14.57,18.44,21.82,1.2,1.42,1.24,2.37.04,3.77Z" style="fill: none; stroke-width: 0px;"/>
      <path d="M50.53,188.36c5.19,5.99,10.36,11.99,15.53,17.99.87-2.91,1.8-5.84,2.82-8.75-2.65-3.08-5.3-6.17-7.96-9.25-1.16-1.34-1.14-2.27-.04-3.57,7.55-8.92,15.08-17.85,22.62-26.78,2.02-6.19,2.83-11.22,4.72-16.5.45-1.26.89-2.48,1.32-3.68-12.99,15.34-25.95,30.72-38.97,46.04-1.45,1.7-1.56,2.76-.04,4.51Z" style="fill: none; stroke-width: 0px;"/>
      <path d="M66.59,188.36c1.3,1.51,2.59,3.02,3.89,4.53,2.81-8.67,3.16-12.81,7.3-21.55-3.68,4.37-7.36,8.75-11.05,13.11-1.15,1.36-1.54,2.29-.14,3.91Z" style="fill: none; stroke-width: 0px;"/>
      <path d="M105.12,82.5c.72.86,1.44,1.73,2.16,2.59,1.13-3.76,1.86-6.24,1.86-6.24,0,0-1.87,0-4.59-.18-.86,1.29-.72,2.29.57,3.83Z" style="fill: none; stroke-width: 0px;"/>
      <path d="M20.59,242.39C13.71,234.34,6.85,226.28,0,218.21v12.51c3.41,3.99,6.82,7.98,10.24,11.95,1.25,1.45,1.07,2.4-.07,3.76C6.77,250.49,3.38,254.56,0,258.63v12.29c6.81-8.15,13.63-16.29,20.47-24.41,1.3-1.54,1.49-2.51.12-4.12Z" style="fill: none; stroke-width: 0px;"/>
      <path d="M14.68,304.22c4.16,4.86,8.3,9.74,12.44,14.62,1.54-3.22,2.88-5.8,3.91-7.44.21-.34.44-.73.67-1.14-1.78-2.1-3.55-4.2-5.33-6.3-1.19-1.41-1.22-2.31-.02-3.73,5.65-6.66,11.28-13.34,16.91-20.01,2.46-7.42,4.92-15.19,7.14-22.32-11.78,13.85-23.52,27.73-35.28,41.59-1.29,1.52-2.21,2.65-.44,4.72Z" style="fill: none; stroke-width: 0px;"/>
      <path d="M87.86,82.18c4.97,5.91,9.92,11.84,14.88,17.76,1.08-3.48,2.15-6.95,3.09-10.04-2.21-2.68-4.43-5.36-6.64-8.03-.91-1.1-1.52-1.84-.27-3.27.12-.14.24-.28.37-.42-3.16-.41-6.54-1.07-9.32-2.12-.7.8-1.39,1.6-2.08,2.39-1.27,1.46-1.16,2.38-.02,3.73Z" style="fill: none; stroke-width: 0px;"/>
      <path d="M37.48,242.24C24.96,227.41,12.5,212.53,0,197.69v13.89c8.72,10.28,17.44,20.57,26.18,30.84,1.27,1.49,1.27,2.41,0,3.92C17.44,256.69,8.72,267.07,0,277.45v13.3c12.47-14.81,24.93-29.62,37.44-44.39,1.34-1.58,1.37-2.53.04-4.11Z" style="fill: none; stroke-width: 0px;"/>
      <path d="M71.42,82.6c5.29,6.14,10.49,12.35,15.69,18.57,3.66,4.38,7.32,8.77,10.97,13.16.95-2.74,2.04-6.08,3.16-9.62-6.25-7.5-12.49-15.01-18.75-22.5-1.12-1.35-1.72-2.34-.27-3.96,1.29-1.44,2.56-2.9,3.85-4.34-1.1-.93-1.81-2.03-1.92-3.35-1.85.11-3.67.11-5.45.02-2.42,2.77-4.83,5.54-7.25,8.3-1.22,1.39-1.24,2.32-.03,3.73Z" style="fill: none; stroke-width: 0px;"/>
      <path d="M50.38,25.99c-5.59,6.42-11.03,12.97-16.56,19.44-7.02,8.21-14.05,16.42-21.14,24.57-1.25,1.43-1.57,2.57-.08,3.94.48.44.84,1,1.26,1.5,14.71,17.58,29.42,35.15,44.12,52.73,2.71,3.24,2.71,3.28.04,6.47-13.73,16.36-27.47,32.73-41.23,49.07-3.23,3.84-3.24,2.84,0,6.69,13.25,15.82,26.54,31.6,39.88,47.35.74-2.32,1.33-4.15,1.76-5.34.53-1.48,1.04-3.04,1.54-4.63-10.74-12.74-21.47-25.49-32.24-38.22-1.26-1.49-1.84-2.53-.5-4.26.55-.48,1.48-1.18,1.83-.82.5.53,4.08,4.88,4.08,4.88,9.46,11.15,18.86,22.34,28.28,33.53,1.08-3.77,2.14-7.74,3.28-11.79-6.3-7.32-12.61-14.65-18.92-21.97-2.36-2.74-2.47-2.76-.15-5.54,14.04-16.85,28.08-33.7,42.23-50.46,1.46-1.73,1.34-2.73-.02-4.3-5.89-6.81-11.72-13.67-17.51-20.56-7.85-9.33-15.61-18.74-23.5-28.04-2.07-2.36-3.9-5.76-3.64-7.28l27.1-34.85v-.1c.14-.58.77-1.04,1.18-1.55,2.89-3.56,5.73-7.16,8.69-10.66,1.06-1.25,1.08-2.18-.02-3.38-1.94-2.11-3.81-4.28-5.65-6.47-4.48-5.31-8.94-10.64-13.41-15.96h-11.61c5.94,7.02,11.89,14.04,17.87,21.02,1.48,1.72,1.37,2.79-.11,4.5-12.52,14.5-24.9,29.11-37.38,43.63-1.25,1.46-1.35,2.51-.05,3.97,3.09,3.5,6.04,7.11,9.05,10.68,12.67,15.01,25.34,30.02,38.03,45.02,1.1,1.3,1.76,2.33.34,3.99-12.95,15.21-25.83,30.49-38.77,45.71-.71.71-1.19.87-1.41.64l-.31-.35c-.19-.22-.45-.51-.71-.8l-.77-.88h0c-.39-.46-.37-.86-.17-1.14.27-.32.55-.65.82-.97.33-.39.64-.75.64-.75h0c11.6-13.73,23.17-27.49,34.8-41.19,1.4-1.65,1.19-2.67-.06-4.14-15.85-18.75-31.66-37.54-47.52-56.29-.94-1.12-.94-1.76.01-2.87,12.81-14.89,25.55-29.84,38.34-44.75.94-1.1,1.21-1.91.16-3.14-6.21-7.29-12.4-14.59-18.58-21.89h-11.65c6.09,7.21,12.19,14.42,18.33,21.59,1.38,1.62,1.49,2.73.04,4.39Z" style="fill: none; stroke-width: 0px;"/>
      <path d="M0,3.15c5.23,6.26,10.46,12.52,15.7,18.77.91,1.08,1.06,1.93.02,2.95-.58.57-1.05,1.25-1.59,1.87C9.43,32.26,4.71,37.77,0,43.29v14.46c9.15-10.77,18.28-21.55,27.44-32.3,1.09-1.28,1.03-2.09,0-3.32C21.19,14.77,14.97,7.38,8.75,0H0v3.15Z" style="fill: none; stroke-width: 0px;"/>
      <path d="M85.7,25.25c-3.73,4.17-7.41,8.38-11.15,12.55v.02s-4.84,6.3-10.42,13.61c1.67-.99,3.7-1.97,6.12-2.91,2.92-1.11,5.35-1.98,7.37-2.66.02-.02.03-.04.05-.06,5.74-6.72,11.41-13.51,17.28-20.11,1.66-1.87,1.98-3,.24-5.06-5.79-6.84-11.51-13.73-17.22-20.63h-11.15c6.19,7.36,12.38,14.72,18.58,22.07.88,1.04,1.42,1.92.3,3.18Z" style="fill: none; stroke-width: 0px;"/>
      <path d="M101.26,21.44c.57-.38,1.16-.75,1.78-1.11,1.78-1.01,3.82-1.95,6.06-2.8-4.93-5.84-9.85-11.69-14.78-17.54h-10.78c5.8,7.04,11.61,14.08,17.46,21.09.1.12.18.24.27.36Z" style="fill: none; stroke-width: 0px;"/>
      <path d="M52.51,80.3h0c13.51,16.02,26.98,32.06,40.5,48.07,1.03-2.79,2.14-5.84,3.41-9.39-9.99-11.9-19.96-23.83-29.97-35.72-1.22-1.45-1.34-2.48-.05-3.99,2.6-3.05,5.2-6.1,7.8-9.16-9.15-1.41-16.1-5.47-16.48-10.25-5.12,6.77-9.53,12.7-9.99,13.63l4.77,6.8Z" style="fill: none; stroke-width: 0px;"/>
      <path d="M4.57,242.49c-1.53-1.78-3.04-3.56-4.57-5.34v14.78c1.51-1.82,3.02-3.65,4.54-5.47,1.24-1.48,1.29-2.49.03-3.97Z" style="fill: none; stroke-width: 0px;"/>
      <path d="M136.71,11.97c-3.36-3.99-6.72-7.97-10.07-11.97h-10.62c3.64,4.36,7.29,8.72,10.95,13.07,3.17-.49,6.44-.86,9.74-1.1Z" style="fill: none; stroke-width: 0px;"/>
      <path d="M165.88,13.45c2.54.53,4.92,1.18,7.14,1.92-4.35-5.12-8.7-10.23-13.03-15.36h-11.2c3.45,4.12,6.89,8.24,10.34,12.35,2.34.28,4.6.64,6.75,1.09Z" style="fill: none; stroke-width: 0px;"/>
      <path d="M192.8,28.8c.7-.79,1.39-1.59,2.09-2.38,2.4-2.73,2.46-2.71.06-5.58-5.83-6.95-11.67-13.9-17.51-20.85h-11.78c5.38,6.43,10.77,12.85,16.17,19.27,4.46,2.58,8.06,5.77,10.97,9.53Z" style="fill: none; stroke-width: 0px;"/>
      <path d="M236.67,24.42c-6.98,7.74-13.93,15.51-20.89,23.27,3.97,1.8,6.95,3.97,8.97,6.15,8.53-8.85,17.04-17.7,25.57-26.55,1.09-1.13,1.87-2.04.43-3.68-6.86-7.84-13.67-15.72-20.48-23.61h-10.67c5.68,6.74,11.37,13.46,17.1,20.15,1.44,1.68,1.43,2.66-.02,4.27Z" style="fill: none; stroke-width: 0px;"/>
      <path d="M19.95,129.75C13.28,121.93,6.65,114.08,0,106.25v12.43c3.05,3.52,6.09,7.05,9.16,10.56,1.38,1.58,1.38,2.58.06,4.14C6.13,137,3.06,140.64,0,144.28v12.53c6.66-7.92,13.33-15.84,20.01-23.74,1.11-1.31.96-2.12-.07-3.32Z" style="fill: none; stroke-width: 0px;"/>
      <path d="M218.74,24.85c-5.57,6.3-11,12.72-16.54,19.05,3.55.5,6.72,1.27,9.53,2.2,6.44-7.23,12.89-14.45,19.36-21.65,1.46-1.63,1.45-2.81.05-4.37-2.51-2.8-4.9-5.71-7.35-8.58-3.27-3.83-6.54-7.67-9.81-11.5h-12.88c5.87,7.05,11.74,14.1,17.63,21.13,1.15,1.37,1.29,2.29.02,3.73Z" style="fill: none; stroke-width: 0px;"/>
      <path d="M201.45,25.26c-2.08,2.36-4.14,4.72-6.22,7.08,1.58,2.59,2.91,5.39,4.02,8.41,4.7-5.34,9.39-10.67,14.1-16,1.11-1.26,1.1-2.18.01-3.35-1.16-1.26-2.22-2.63-3.32-3.95-4.84-5.82-9.68-11.64-14.53-17.45h-12.4c6.05,7.24,12.11,14.48,18.18,21.71,1.04,1.24,1.39,2.14.15,3.55Z" style="fill: none; stroke-width: 0px;"/>
      <path d="M153.23,11.82c-3.34-3.94-6.69-7.88-10.03-11.82h-10.9c3.25,3.9,6.51,7.79,9.76,11.68,3.77-.12,7.53-.08,11.16.14Z" style="fill: none; stroke-width: 0px;"/>
      <path d="M0,329.05c4.99,5.87,10,11.73,15.01,17.59,1.37-3.32,2.76-6.64,4.12-9.84C12.74,329.23,6.39,321.63,0,314.06v14.99Z" style="fill: none; stroke-width: 0px;"/>
      <path d="M9.75,21.59C6.49,17.71,3.24,13.82,0,9.92v26.83c3.26-3.81,6.52-7.61,9.79-11.41,1.25-1.45,1.1-2.4-.04-3.76Z" style="fill: none; stroke-width: 0px;"/>
      <path d="M3.69,129.48c-1.24-1.42-2.46-2.85-3.69-4.27v12.43c1.21-1.43,2.41-2.87,3.63-4.3,1.28-1.49,1.36-2.36.06-3.86Z" style="fill: none; stroke-width: 0px;"/>
      <path d="M122.02,13.94c-3.92-4.65-7.85-9.29-11.76-13.94h-10.28c4.49,5.36,8.99,10.71,13.49,16.06,2.68-.81,5.55-1.52,8.56-2.12Z" style="fill: none; stroke-width: 0px;"/>
      <path d="M87.14,43.86c.15-.81.46-2.24,1.02-4.03-1.19,1.35-2.39,2.69-3.58,4.03,1.64-.31,2.32-.22,2.56,0Z" style="fill: none; stroke-width: 0px;"/>
      <path d="M0,349.68c1.49,1.71,2.97,3.41,4.46,5.11,1.25,1.42,1.22,2.34.05,3.72-1.52,1.79-3.02,3.59-4.51,5.4v.34h7.85c1.66-4.14,3.46-8.61,5.32-13.15C8.78,345.93,4.39,340.75,0,335.58v14.1Z" style="fill: none; stroke-width: 0px;"/>
      <path d="M32.41,304.69c.43.49.85.99,1.27,1.49,1.76-3.95,3.76-9.2,5.85-15.09-2.36,2.78-4.71,5.57-7.08,8.34-1.72,2.01-1.83,3.19-.04,5.27Z" style="fill: none; stroke-width: 0px;"/>
      <path d="M241.09,80.97c-.53-.6-1.09-.08-1.09-.07l-1.73,1.63c-.16.21-.14.45-.03.65.77.88,1.53,1.76,2.29,2.64l.05.05h0c10.24,11.8,20.38,23.49,30.62,35.28l8.98,9.52c.09.09.18.17.28.28,4.51,4.95,4.91,3.33.25,8.7-13.34,15.4-26.66,30.83-40.03,46.21-1.19,1.37-1.26,2.34-.04,3.77,13.74,16.25,27.42,32.55,41.13,48.83.74.88,1.5,1.73,2.28,2.57.72.78,1.4,1.75,2.6.54.2-.2.36-.4.51-.6v-2.57c-.09-.13-.19-.27-.32-.41-3.89-4.43-7.69-8.93-11.47-13.45-9.77-11.67-19.49-23.39-29.31-35.02-1.26-1.49-1.03-2.35.14-3.7,13.68-15.75,27.27-31.57,40.97-47.31v-4.5s-.04-.06-.07-.09c-15.35-17.64-30.64-35.33-45.99-52.97Z" style="fill: #1a1a1a; stroke-width: 0px;"/>
      <path d="M231.13,20.07c1.4,1.56,1.41,2.75-.05,4.37-6.47,7.2-12.92,14.43-19.36,21.65,1.45.49,2.8,1.02,4.05,1.59,6.96-7.76,13.91-15.52,20.89-23.27,1.45-1.61,1.46-2.6.02-4.27-5.74-6.69-11.43-13.41-17.1-20.15h-5.61c3.27,3.83,6.54,7.67,9.81,11.5,2.44,2.86,4.84,5.77,7.35,8.58Z" style="fill: #1a1a1a; stroke-width: 0px;"/>
      <path d="M60.92,188.34c2.66,3.08,5.31,6.17,7.96,9.25.09-.24.17-.49.25-.73.51-1.44.95-2.75,1.35-3.97-1.3-1.51-2.59-3.02-3.89-4.53-1.4-1.62-1.01-2.55.14-3.91,3.69-4.37,7.37-8.74,11.05-13.11.37-.79.77-1.6,1.21-2.47,2.06-4.09,3.45-7.64,4.51-10.89-7.54,8.93-15.07,17.86-22.62,26.78-1.1,1.3-1.12,2.23.04,3.57Z" style="fill: #1a1a1a; stroke-width: 0px;"/>
      <path d="M213.38,21.4c1.08,1.18,1.1,2.09-.01,3.35-4.71,5.33-9.41,10.66-14.1,16,.35.95.68,1.91.98,2.9.67.07,1.32.16,1.96.25,5.54-6.33,10.97-12.75,16.54-19.05,1.27-1.44,1.13-2.36-.02-3.73-5.9-7.03-11.77-14.07-17.63-21.13h-5.56c4.85,5.82,9.69,11.63,14.53,17.45,1.1,1.32,2.15,2.68,3.32,3.95Z" style="fill: #1a1a1a; stroke-width: 0px;"/>
      <path d="M194.89,26.42c-.7.79-1.39,1.59-2.09,2.38.87,1.13,1.68,2.31,2.43,3.54,2.07-2.36,4.14-4.72,6.22-7.08,1.25-1.42.89-2.32-.15-3.55-6.07-7.23-12.13-14.47-18.18-21.71h-5.69c5.84,6.94,11.68,13.89,17.51,20.85,2.41,2.87,2.34,2.85-.06,5.58Z" style="fill: #1a1a1a; stroke-width: 0px;"/>
      <path d="M274.02,185.54c-1.02,1.23-1.06,2.1.02,3.38,4.38,5.2,8.74,10.4,13.11,15.61v-6.44c-2.46-2.92-4.92-5.85-7.39-8.76-1.26-1.49-1.28-2.39-.03-3.9,2.48-2.98,4.94-5.97,7.42-8.95v-6.96c-.81.97-1.62,1.94-2.42,2.91-3.61,4.34-7.1,8.78-10.71,13.12Z" style="fill: #1a1a1a; stroke-width: 0px;"/>
      <path d="M26.36,303.96c1.78,2.1,3.55,4.2,5.33,6.3.62-1.12,1.29-2.5,2-4.08-.42-.49-.85-.99-1.27-1.49-1.79-2.08-1.67-3.26.04-5.27,2.37-2.77,4.72-5.56,7.08-8.34,1.22-3.44,2.47-7.11,3.71-10.86-5.63,6.67-11.26,13.35-16.91,20.01-1.2,1.42-1.17,2.32.02,3.73Z" style="fill: #1a1a1a; stroke-width: 0px;"/>
      <path d="M9.17,304.38c5.33,6.24,10.63,12.5,15.94,18.77.7-1.53,1.37-2.98,2.01-4.31-4.14-4.88-8.28-9.76-12.44-14.62-1.78-2.08-.86-3.2.44-4.72,11.76-13.86,23.5-27.75,35.28-41.59,1.14-3.65,2.21-7.13,3.2-10.3-14.86,17.45-29.62,34.99-44.46,52.46-1.37,1.62-1.41,2.63.04,4.32Z" style="fill: #1a1a1a; stroke-width: 0px;"/>
      <path d="M99.18,81.86c2.22,2.67,4.43,5.35,6.64,8.03.53-1.74,1.02-3.37,1.45-4.81-.72-.86-1.44-1.73-2.16-2.59-1.3-1.54-1.43-2.54-.57-3.83-1.54-.1-3.36-.26-5.26-.5-.12.14-.24.28-.37.42-1.26,1.43-.65,2.17.27,3.27Z" style="fill: #1a1a1a; stroke-width: 0px;"/>
      <path d="M29.05,184.48c-.34-.37-1.27.34-1.83.82-1.34,1.74-.76,2.77.5,4.26,10.76,12.72,21.49,25.48,32.24,38.22.49-1.58.97-3.21,1.45-4.88-9.41-11.19-18.82-22.38-28.28-33.53,0,0-3.58-4.35-4.08-4.88Z" style="fill: #1a1a1a; stroke-width: 0px;"/>
      <path d="M45.29,25.29c-12.61,14.85-25.14,29.76-37.8,44.57-1.49,1.74-1.49,2.77-.03,4.5,15.36,18.21,30.6,36.5,45.96,54.71,1.47,1.75,1.43,2.82-.01,4.54-14.4,17.08-28.7,34.25-43.09,51.35-1.39,1.65-1.63,2.65-.06,4.49,14.9,17.52,29.65,35.17,44.49,52.74.14.17.26.32.37.48.56-1.81,1.08-3.46,1.54-4.91-13.34-15.75-26.63-31.53-39.88-47.35-3.23-3.86-3.22-2.86,0-6.69,13.76-16.34,27.5-32.7,41.23-49.07,2.67-3.18,2.67-3.23-.04-6.47-14.7-17.58-29.41-35.15-44.12-52.73-.42-.5-.79-1.06-1.26-1.5-1.49-1.37-1.17-2.51.08-3.94,7.1-8.15,14.12-16.35,21.14-24.57,5.53-6.47,10.97-13.02,16.56-19.44,1.45-1.66,1.34-2.77-.04-4.39-6.13-7.18-12.23-14.38-18.33-21.59h-5.77c6.35,7.46,12.7,14.91,19.07,22.35.93,1.09.91,1.84-.02,2.93Z" style="fill: #1a1a1a; stroke-width: 0px;"/>
      <path d="M278.35,20.84c-10.57,10.27-21.23,20.44-31.67,30.83-9.23,9.18-18.2,18.61-27.33,27.88-1.26,1.28-1.23,2.13-.08,3.48,12.17,14.36,24.25,28.79,36.43,43.15,1.24,1.46,1.08,2.31-.1,3.69-14.3,16.61-28.54,33.26-42.82,49.88.79,1.43,1.38,2.59,1.98,4.15,13.12-15.29,26.16-30.65,39.23-45.98,2.23-2.62,4.42-5.27,6.74-7.81,1.19-1.3,1.1-2.25-.01-3.57-11.62-13.75-23.21-27.53-34.76-41.35-3.65-4.36-3.3-3.13.11-6.96l4.13-4.35,9.06-9.05c14.47-14.65,28.88-29.34,43.29-44.04,2.7-2.76,2.55-2.74.02-5.72-4.25-5.01-8.47-10.04-12.69-15.07h-5.55c4.9,5.69,9.8,11.38,14.74,17.03,1.6,1.83.42,2.72-.7,3.81Z" style="fill: #1a1a1a; stroke-width: 0px;"/>
      <path d="M80.12,22.43c1.1,1.19,1.07,2.13.02,3.38-2.96,3.5-5.8,7.1-8.69,10.66-.41.51-1.04.97-1.17,1.55v.1s-27.11,34.85-27.11,34.85c-.25,1.52,1.57,4.92,3.64,7.28,7.89,9.3,15.65,18.7,23.5,28.04,5.8,6.89,11.62,13.76,17.51,20.56,1.36,1.57,1.48,2.57.02,4.3-14.15,16.76-28.19,33.61-42.23,50.46-2.32,2.78-2.21,2.8.15,5.54,6.31,7.32,12.61,14.64,18.92,21.97.44-1.58.9-3.16,1.37-4.76-5.17-6-10.34-12-15.53-17.99-1.52-1.75-1.4-2.81.04-4.51,13.03-15.31,25.98-30.69,38.97-46.04,1.13-3.12,2.24-6.12,3.46-9.45-13.52-16-26.99-32.05-40.5-48.07h0s-4.77-6.8-4.77-6.8c.46-.93,4.87-6.87,9.99-13.63-.22-2.7,1.66-5.62,6.41-8.44,5.57-7.31,10.42-13.61,10.42-13.61v-.02c3.73-4.16,7.41-8.38,11.14-12.55,1.12-1.26.58-2.14-.3-3.18-6.2-7.35-12.39-14.71-18.58-22.07h-5.78c4.47,5.32,8.94,10.64,13.41,15.96,1.84,2.19,3.71,4.36,5.65,6.47Z" style="fill: #1a1a1a; stroke-width: 0px;"/>
      <path d="M62.08,25.03c-12.79,14.91-25.54,29.85-38.34,44.75-.95,1.11-.95,1.75-.01,2.87,15.86,18.74,31.67,37.54,47.52,56.29,1.25,1.47,1.46,2.49.06,4.14-11.63,13.7-23.2,27.46-34.8,41.19h0s-.31.37-.64.76c-.27.32-.55.65-.82.97-.2.28-.22.68.17,1.13h0s.77.88.77.88c.26.29.51.58.71.8l.31.35c.21.23.7.07,1.41-.64,12.94-15.22,25.82-30.49,38.77-45.71,1.42-1.67.76-2.7-.34-3.99-12.69-15-25.36-30.01-38.03-45.02-3.01-3.56-5.96-7.18-9.05-10.68-1.29-1.46-1.2-2.51.05-3.97,12.48-14.53,24.87-29.14,37.38-43.63,1.48-1.72,1.59-2.78.11-4.5-5.99-6.98-11.93-14-17.87-21.02h-5.78c6.19,7.3,12.38,14.6,18.58,21.89,1.05,1.23.78,2.05-.16,3.14Z" style="fill: #1a1a1a; stroke-width: 0px;"/>
      <path d="M250.31,27.29c-8.52,8.85-17.04,17.7-25.57,26.55.92,1,1.65,2.01,2.16,2.98,6.83-7.02,13.65-14.06,20.46-21.1,2.84-2.94,5.44-6.11,8.28-9.06,1.28-1.33,1.08-2.27-.02-3.53-6.64-7.7-13.25-15.41-19.87-23.13h-5.52c6.81,7.88,13.63,15.76,20.48,23.61,1.44,1.65.66,2.55-.43,3.68Z" style="fill: #1a1a1a; stroke-width: 0px;"/>
      <path d="M27.44,25.45C18.28,36.2,9.15,46.98,0,57.74v6.46c11.01-12.85,21.95-25.75,32.94-38.61,1.2-1.4,1.16-2.35-.04-3.77C26.73,14.57,20.6,7.29,14.47,0h-5.71c6.22,7.38,12.44,14.77,18.68,22.13,1.04,1.23,1.1,2.03,0,3.32Z" style="fill: #1a1a1a; stroke-width: 0px;"/>
      <path d="M249.28,76.19c12.65,14.7,25.25,29.44,37.87,44.15v-6.42c-10.26-12-20.5-24.01-30.71-36.05-3.58-4.23-4.11-2.98.23-7.7,10.17-11.06,20.32-22.13,30.48-33.19v-4.38c-12.61,13.51-25.2,27.05-37.82,40.55-1.07,1.14-1.09,1.83-.04,3.04Z" style="fill: #1a1a1a; stroke-width: 0px;"/>
      <path d="M269.84,77.09c5.78,6.73,11.54,13.47,17.31,20.21v-6.65c-3.81-4.49-7.61-8.99-11.43-13.46-1.61-1.88-1.65-3.02,0-4.88,3.82-4.29,7.62-8.61,11.43-12.91v-6.29c-5.74,6.53-11.49,13.06-17.24,19.58-1.39,1.58-1.51,2.71-.07,4.39Z" style="fill: #1a1a1a; stroke-width: 0px;"/>
      <path d="M82.49,82.21c6.26,7.49,12.5,15,18.75,22.5.5-1.57,1-3.17,1.5-4.77-4.96-5.92-9.92-11.84-14.88-17.76-1.13-1.35-1.25-2.28.02-3.73.7-.8,1.39-1.6,2.08-2.39-1.54-.58-2.89-1.29-3.9-2.14-1.28,1.45-2.55,2.9-3.85,4.34-1.45,1.62-.86,2.61.27,3.96Z" style="fill: #1a1a1a; stroke-width: 0px;"/>
      <path d="M66.46,83.26c10,11.89,19.97,23.82,29.97,35.72.33-.92.67-1.87,1.03-2.87.2-.55.41-1.15.62-1.78-3.66-4.39-7.31-8.78-10.97-13.16-5.2-6.22-10.4-12.43-15.69-18.57-1.21-1.41-1.19-2.33.03-3.73,2.42-2.76,4.83-5.53,7.25-8.3-1.54-.08-3.04-.24-4.49-.46-2.6,3.05-5.2,6.11-7.8,9.16-1.29,1.51-1.17,2.54.05,3.99Z" style="fill: #1a1a1a; stroke-width: 0px;"/>
      <path d="M94.96,25.69c-5.88,6.6-11.54,13.39-17.28,20.11-.02.02-.03.04-.05.06,3.3-1.11,5.5-1.71,6.95-1.98,1.2-1.34,2.39-2.69,3.58-4.03,1.59-5.09,5.23-13.12,13.11-18.39-.09-.12-.17-.23-.27-.36-5.85-7.01-11.66-14.05-17.46-21.09h-5.56c5.71,6.9,11.44,13.79,17.22,20.63,1.74,2.05,1.42,3.19-.24,5.06Z" style="fill: #1a1a1a; stroke-width: 0px;"/>
      <path d="M259.04,190.4c9.37,11.01,18.73,22.03,28.11,33.03v-6.22c-7.83-9.3-15.67-18.6-23.55-27.87-1.42-1.67-1.37-2.67.03-4.3,7.86-9.21,15.69-18.44,23.52-27.67v-6.51c-9.35,10.97-18.69,21.94-28.04,32.91-2.89,3.39-2.89,3.33-.07,6.64Z" style="fill: #1a1a1a; stroke-width: 0px;"/>
      <path d="M266.5,21.57c1.01,1.14,2.35,1.61,3.34.34.4-.51.02-2.13-.54-2.8-5.34-6.39-10.71-12.75-16.09-19.11h-5.32c4.54,5.28,9.08,10.56,13.62,15.83,1.65,1.92,3.32,3.84,5,5.74Z" style="fill: #1a1a1a; stroke-width: 0px;"/>
      <path d="M26.18,242.42C17.44,232.16,8.72,221.87,0,211.59v6.62c6.85,8.07,13.71,16.14,20.59,24.19,1.38,1.61,1.18,2.58-.12,4.12C13.63,254.64,6.81,262.78,0,270.93v6.52c8.72-10.37,17.44-20.75,26.19-31.11,1.27-1.5,1.26-2.43,0-3.92Z" style="fill: #1a1a1a; stroke-width: 0px;"/>
      <path d="M126.97,13.07c-3.65-4.36-7.3-8.71-10.95-13.07h-5.77c3.92,4.65,7.84,9.29,11.76,13.94,1.62-.32,3.27-.61,4.95-.87Z" style="fill: #1a1a1a; stroke-width: 0px;"/>
      <path d="M4.46,354.79c-1.49-1.7-2.98-3.41-4.46-5.11v14.24c1.49-1.81,2.99-3.62,4.51-5.4,1.18-1.38,1.2-2.3-.05-3.72Z" style="fill: #1a1a1a; stroke-width: 0px;"/>
      <path d="M43.07,242.24C28.67,225.22,14.35,208.13,0,191.07v6.62c12.5,14.84,24.97,29.72,37.48,44.55,1.33,1.58,1.3,2.53-.04,4.11C24.93,261.12,12.47,275.93,0,290.74v6.62c14.36-16.96,28.67-33.97,43.03-50.93,1.29-1.52,1.4-2.59.04-4.19Z" style="fill: #1a1a1a; stroke-width: 0px;"/>
      <path d="M254.52,310.04c10.9,12.25,21.75,24.55,32.62,36.83v-5.73c-11.17-12.72-22.34-25.46-33.53-38.16.24,2.25.54,4.7.91,7.06Z" style="fill: #1a1a1a; stroke-width: 0px;"/>
      <path d="M283.06,354.81c-2.53-2.83-5.06-5.68-7.59-8.51,2.26,3.34,5.31,8.03,8.03,12.24.93-1.27.81-2.33-.44-3.73Z" style="fill: #1a1a1a; stroke-width: 0px;"/>
      <path d="M287.15,2.06c-.58-.69-1.16-1.37-1.74-2.06h-5.73c2.49,2.92,4.98,5.84,7.47,8.76V2.06Z" style="fill: #1a1a1a; stroke-width: 0px;"/>
      <path d="M113.46,16.06c-4.5-5.35-9-10.7-13.49-16.06h-5.66c4.93,5.85,9.85,11.69,14.78,17.54,1.38-.53,2.84-1.02,4.36-1.48Z" style="fill: #1a1a1a; stroke-width: 0px;"/>
      <path d="M258.28,243.4c-13.62-16-27.15-32.08-40.72-48.11.4,2.42.79,5.01,1.29,7.63,11.53,13.66,23.05,27.34,34.64,40.95,1.64,1.93.69,2.97-.43,4.35-3.89,4.79-7.78,9.59-11.67,14.38.35,1.82.7,3.56,1.07,5.2,5.28-6.47,10.56-12.95,15.85-19.41,1.53-1.87,1.58-3.1-.03-4.99Z" style="fill: #1a1a1a; stroke-width: 0px;"/>
      <path d="M240.95,242.9c-3.25-3.86-6.51-7.72-9.76-11.57,3.15,5.98,6.12,12.28,7.46,17.83.17.7.33,1.41.49,2.1.58-.72,1.17-1.45,1.75-2.17,2.57-3.19,2.62-3.16.06-6.19Z" style="fill: #1a1a1a; stroke-width: 0px;"/>
      <path d="M226.65,125.66c-12.34-14.86-24.65-29.74-37.08-44.53-1.21-1.44-1.3-2.38-.56-3.51-1.87.14-3.68.1-5.32-.09-.86,1.08-.84,1.93.22,3.19,12.49,14.95,24.91,29.95,37.35,44.95q2.25,2.71-.07,5.42c-5.67,6.62-11.33,13.23-17,19.85.33,1.76.63,3.57.94,5.39,7.16-8.4,14.34-16.8,21.49-25.21,2.32-2.73,2.26-2.77.04-5.45Z" style="fill: #1a1a1a; stroke-width: 0px;"/>
      <path d="M252.95,295.31c11.41-13.53,22.8-27.07,34.2-40.61v-6.3c-12.33,13.61-23.57,28.16-35.32,42.27.53,1.65.92,3.23,1.12,4.64Z" style="fill: #1a1a1a; stroke-width: 0px;"/>
      <path d="M210.13,125.86c-8.45-10.09-16.82-20.25-25.19-30.41,1.51,3.94,3.03,7.99,4.51,12,5.36,6.4,10.71,12.8,16.09,19.18,1.48,1.76.59,2.74-.46,3.95-1.7,1.97-3.41,3.94-5.11,5.91.62,1.76,1.16,3.29,1.59,4.55,2.88-3.34,5.75-6.68,8.64-10.01,1.72-1.98,1.56-3.21-.08-5.16Z" style="fill: #1a1a1a; stroke-width: 0px;"/>
      <path d="M265.64,298.2c-1.15,1.32-.95,2.32.19,3.59,7.12,7.98,14.22,15.97,21.32,23.96v-6.35c-4.97-5.6-9.94-11.2-14.91-16.79-2.34-2.63-2.38-2.66-.09-5.36,5-5.89,10-11.77,15-17.66v-6.89c-5.62,6.6-11.23,13.19-16.85,19.79-1.59,1.87-3.05,3.85-4.66,5.7Z" style="fill: #1a1a1a; stroke-width: 0px;"/>
      <path d="M0,335.58c4.39,5.18,8.78,10.35,13.17,15.53.61-1.48,1.22-2.97,1.83-4.46C10,340.78,4.99,334.92,0,329.05v6.52Z" style="fill: #1a1a1a; stroke-width: 0px;"/>
      <path d="M10.24,242.67C6.82,238.69,3.41,234.71,0,230.72v6.43c1.52,1.78,3.04,3.57,4.57,5.34,1.27,1.47,1.21,2.48-.03,3.97-1.52,1.82-3.03,3.65-4.54,5.47v6.71c3.38-4.07,6.77-8.14,10.17-12.2,1.14-1.36,1.32-2.31.07-3.76Z" style="fill: #1a1a1a; stroke-width: 0px;"/>
      <path d="M159.13,12.35c-3.45-4.12-6.9-8.23-10.34-12.35h-5.59c3.34,3.94,6.69,7.88,10.03,11.82,2.01.12,3.99.3,5.91.53Z" style="fill: #1a1a1a; stroke-width: 0px;"/>
      <path d="M0,314.06c6.39,7.57,12.74,15.17,19.13,22.75.66-1.56,1.32-3.09,1.97-4.59C14.07,323.93,7.04,315.65,0,307.37v6.68Z" style="fill: #1a1a1a; stroke-width: 0px;"/>
      <path d="M24.84,128.82C16.54,119.12,8.27,109.4,0,99.67v6.58c6.65,7.83,13.28,15.68,19.95,23.5,1.02,1.2,1.18,2.01.07,3.32C13.33,140.97,6.66,148.89,0,156.81v6.42c8.3-9.84,16.61-19.69,24.96-29.49,1.69-1.98,1.42-3.12-.12-4.92Z" style="fill: #1a1a1a; stroke-width: 0px;"/>
      <path d="M181.83,19.27c-5.4-6.42-10.79-12.84-16.17-19.27h-5.67c4.34,5.13,8.69,10.24,13.03,15.36,3.26,1.09,6.18,2.39,8.81,3.91Z" style="fill: #1a1a1a; stroke-width: 0px;"/>
      <path d="M244.03,130.05c1.32-1.43,1.24-2.55,0-4.02-8.44-10.02-16.81-20.08-25.19-30.15-4.03-4.84-7.96-9.77-12.07-14.55-1.4-1.62-1.23-2.6.21-4.08,2.55-2.61,5.1-5.23,7.65-7.84-2,.49-4.01.82-5.9.95-2.36,2.41-4.71,4.81-7.09,7.2-1.26,1.26-1.25,2.08-.1,3.46,12.47,14.85,24.85,29.79,37.33,44.64,1.4,1.67,1.26,2.75-.11,4.34-10.56,12.33-21.09,24.68-31.61,37.04.41,1.67.87,3.22,1.4,4.61,10.42-12.16,20.83-24.34,31.23-36.51,1.44-1.68,2.74-3.48,4.24-5.09Z" style="fill: #1a1a1a; stroke-width: 0px;"/>
      <path d="M33.6,143.45s1.39-1.65,1.83-2.17c.44-.52.46-1.32.14-1.62s-1.12-1.19-1.55-1.62h0c-.43-.43-1.19-.36-1.92.58s-3.28,3.88-3.28,3.88l-.02-.02C19.19,153.91,9.6,165.36,0,176.8v6.52c11.19-13.3,22.39-26.6,33.61-39.87h0Z" style="fill: #1a1a1a; stroke-width: 0px;"/>
      <path d="M15.73,24.87c1.04-1.02.88-1.87-.02-2.95C10.46,15.67,5.23,9.41,0,3.15v6.77c3.24,3.89,6.49,7.79,9.75,11.66,1.14,1.36,1.29,2.31.04,3.76C6.52,29.14,3.26,32.95,0,36.75v6.53c4.72-5.51,9.43-11.03,14.14-16.54.53-.62,1.01-1.3,1.59-1.87Z" style="fill: #1a1a1a; stroke-width: 0px;"/>
      <path d="M9.16,129.24C6.09,125.73,3.05,122.2,0,118.68v6.53c1.23,1.42,2.45,2.85,3.69,4.27,1.3,1.49,1.22,2.36-.06,3.86-1.22,1.43-2.42,2.87-3.63,4.3v6.64c3.06-3.64,6.13-7.28,9.21-10.9,1.33-1.56,1.33-2.56-.06-4.14Z" style="fill: #1a1a1a; stroke-width: 0px;"/>
      <path d="M142.06,11.68c-3.26-3.89-6.51-7.79-9.76-11.68h-5.65c3.35,3.99,6.71,7.98,10.07,11.97,1.78-.13,3.57-.22,5.35-.28Z" style="fill: #1a1a1a; stroke-width: 0px;"/>
      <path d="M37.36,130.53h0s2.86,3.32,2.86,3.32c.47.32.88.76,1.64-.17,1.48-1.74,1.38-2.88-.06-4.57C27.84,112.67,13.94,96.18,0,79.73v6.49c11.09,13.19,22.17,26.38,33.27,39.55l4.09,4.76Z" style="fill: #1a1a1a; stroke-width: 0px;"/>
      <path d="M274.93,243.59c-12.68-15-25.24-30.11-37.84-45.17-2.42-2.89-4.83-5.79-7.37-8.56-1.29-1.4-1.12-2.41.05-3.77,9.98-11.6,19.92-23.24,29.86-34.88,2.83-3.32,5.66-6.65,8.48-9.97h0s.31-.36.73-.86c.82-.96,1.64-1.92,2.45-2.88.33-.41.58-.83.2-1.18l-2.12-1.77c-.37-.31-1.04-.17-1.75.49-.52.61-1.04,1.22-1.56,1.83-.86,1.05-1.77,2.15-1.77,2.15l-.02-.04c-13.24,15.57-26.41,31.2-39.66,46.75-1.49,1.75-1.35,2.74.12,4.47,11.29,13.28,22.42,26.7,33.65,40.03,3.74,4.44,7.53,8.86,11.51,13.09,1.67,1.77,1.61,2.91.13,4.7-8.09,9.75-16.13,19.53-24.16,29.33.68,1.23,1.37,2.55,2.05,3.93,9.03-11.01,18.08-22,27.16-32.96,1.52-1.83,1.39-2.94-.14-4.75Z" style="fill: #1a1a1a; stroke-width: 0px;"/>
    </g>
  </g>
  <g id="b" data-name="UFO Cu">
    <path d="M268.3,361.33c-4.25-15.53-14.06-31.27-19.27-47.63-1.81-6.17-1-12.73-2.87-18.8-1.98-6.45-6.13-12.26-8.31-18.94-1.38-4.06-2.12-8.32-3.05-12.5-3.48-15.72-11.33-31.16-18.05-45.02-1.11-2.38-1.94-4.75-2.42-7.22l-.04-.18c-.47-2.38-.65-4.86-.92-7.29-.47-5.22-2.36-10.57-4.14-15.67-2.13-6.31-6.03-11.61-7.48-18.08-3.13-13.1-5.51-26.96-12.15-38.9-1.89-3.42-3.48-6.97-4.66-10.67-.14-1.77-.27-3.24-.41-3.69-1.04-3.46-1.95-6.96-3.04-10.4-.28-.87-.6-1.72-.94-2.57-1.16-3.97-2.4-7.94-3.68-11.9-.4-1.45-.85-2.87-1.36-4.21-.08-.24-.15-.47-.23-.71v.06c-1.24-3.08-1.82-6.41-2.78-9.6-.37-1.24-.97-2.41-1.46-3.61-2.87.09-5.74.24-8.62.25-.96,0-1.92-.34-2.89-.53-1.82,2.47-4,4.34-7.2,4.83-1.34.21-2.57,1.08-3.91,1.3-1.99.32-4.04.3-6.05.47-.88.07-1.92.59-2.58.27-2.18-1.06-4.29-2.3-6.29-3.68-1.14-.79-2-1.98-2.98-2.98-3.34.11-6.68.26-10.02.31-1.14.02-2.29-.2-3.44-.32-.35,1.36-.62,2.74-1.06,4.07-.67,2.05-1.47,4.06-2.18,6.1-.85,2.43-1.67,4.88-2.5,7.32-.49,1.44-.98,3.04-1.47,4.64-.06.11-.11.22-.17.33-2.06,3.9-1.94,7.73-2.93,11.97-.42,1.89-1.2,3.74-1.89,5.57-2.5,6.53-3.22,13.83-5.61,20.54-2.53,7.41-7.54,13.72-9.83,20.97-1.45,4.31-1.49,9.05-2.5,13.21-.61,2.74-1.69,5.32-2.91,7.84-10.31,20.65-13.39,49.84-23.13,72.87-8.39,19.65-15.16,37.73-21.31,58.65-1.12,3.82-2.37,7.65-4.13,11.23-2.12,4.47-5.12,8.32-6.59,12.44-1.21,3.5-1.27,7.21-2.31,10.76-1.4,5.01-4.25,9.61-5.76,14.84-.93,2.76-1.68,5.29-1.44,7.2h249.47c-.03-.85-.19-1.81-.52-2.92ZM159.04,196.87c.24.45.57,1.3.4,1.45-.54.47-1.38,1.08-1.95.96-1.72-.37-3.37-1.07-5.2-1.69,0,1.29-.2,2.52.04,3.65.97,4.56,1.42,9.16,1.09,13.8-.08,1.12-.51,2.22-1.03,3.37-1.18-1.29-2.74-2.06-2.92-4.08-.13-1.53-.8-3.02-1.24-4.53-.28,0-.57.02-.85.03-.13,1.03-.22,2.07-.39,3.1-.26,1.65-.45,3.33-.89,4.94-.37,1.33-1.44,1.19-2.12.31-.73-.95-1.37-2.08-1.67-3.23-.94-3.63-1.72-7.3-2.52-10.96-.23-1.07-.36-2.16-.59-3.61-1.24.96-2.33,1.84-3.45,2.67-.64.47-1.28,1.03-2.01,1.27-1.16.37-2.02-.21-1.65-1.44.55-1.83,1.2-3.69,2.18-5.32,1.07-1.77,2.63-3.24,3.82-4.95.33-.47.35-1.59.02-2-1.28-1.59-2.2-3.28-2.5-5.32-.31-2.05.95-3.44,1.99-4.88.49-.68,1.23-1.27,2-1.62,3.45-1.57,10.38.61,10.11,5.84-.08,1.49-.22,2.97-.23,4.46,0,.41.25.98.58,1.2,1.42.99,2.91,1.87,4.36,2.81,1.68,1.1,3.63,1.88,4.64,3.78ZM129.75,129.06c1.09-1.3,2.27-2.6,3.64-3.58,1.49-1.08,3.29-1.73,4.86-2.71.43-.27.84-1.17.71-1.63-.49-1.75-.65-3.45-.18-5.23.46-1.78,1.98-2.48,3.33-3.29.63-.38,1.46-.61,2.2-.63,3.37-.07,8.27,4.13,6.23,8.31-.58,1.19-1.22,2.35-1.75,3.56-.15.33-.14.89.05,1.19.81,1.31,1.73,2.55,2.58,3.83.99,1.48,2.31,2.81,2.47,4.72.04.46,0,1.27-.18,1.33-.61.2-1.51.4-1.93.1-1.28-.91-2.38-2.06-3.66-3.2-.45,1.06-1.05,1.99-1.25,3-.8,4.07-2.05,7.98-3.94,11.67-.46.89-1.19,1.63-2.02,2.4-.52-1.47-1.52-2.64-.96-4.36.43-1.3.4-2.75.58-4.14-.24-.09-.47-.18-.71-.27-.46.8-.91,1.62-1.4,2.4-.79,1.26-1.53,2.57-2.46,3.72-.77.96-1.6.47-1.84-.48-.26-1.03-.39-2.18-.23-3.22.5-3.29,1.15-6.57,1.78-9.84.18-.95.46-1.89.78-3.16-1.35.35-2.55.69-3.76.97-.69.16-1.41.4-2.09.33-1.08-.1-1.58-.88-.84-1.75ZM182.71,313.64c-2.58,4.16-5.3,8.23-8.07,12.27-3.02,4.66-1.21,13.25-8.59,13.91-3.06-.7.58-1.75,1.37-5.34-.16-5.61,4.94-7.98,7.71-12.08,1.64-2.84,7.13-9.63,5.85-10.97-3.14,7.09-13.02,9.74-14.25,17.44-.03,3.08.16,2.72-2.06,5.05-4.12,3.71-6.06,9.51-9.63,13.36-.38.08-.77.06-1.06.02-.83-.54-2.24-1.45-2.88-1.86-.07-.12-.12-.25-.12-.39,2.59-2.02,9.28-9.4,7.03-9.99-3.15,2.62-5.16,6.47-8.13,9.17-.32-.03-.65-.1-.9-.17-.61-.4-1.56-1.01-2.29-1.48-.3-.45-.24-.89.05-1.3,5.06-2.91,8.51-8.18,8.87-14.07.01-2.4-2.99,3.99-2.77.2.25-.81,1.61-2.06.55-2.67-5.79,3.94,2.39-5.04-4.01-2.08-3.07-.76,2.25-1.79,1.36-3.34-.06-.95-.51-1.31-1.4-1.52-6.37-1.6-11.62-5.97-16.56-10.1-5.03,3.25-8.82,11.41-11.92,17.09.07,1.69-5.18-2.08-4.43-2.05,5.3-3.73,6.5-10.24,8.28-16.05.63-1.97-1.37.75-2,1.19-4.47,3.32-6.43,8.85-9.93,12.77-7.71-3.75,1.09-3.23,3.24-11.83,6.37-11.51-1.1-11.35,2.63-20.67,2.67-4.23,4.46-8.84,5.66-13.68,1.92-5.99-4.74-2.96-5.56-7-1.59-1.53.36-2.55.87-4.09,1.47-1.18,3.86-1.06,5.37-2.42.42-.34,1.05-1.18.3-1.55-2.08-.84-4.82-6.72-1.06-6.51,5.73.3,4.86,9.3,5.4-1.39,1.47-1.41.24,4.36,3.31,3.67,4.43-1.3,4.33,6.46,8.4,3.3.41-.26.69-.05.6.38,0,2.43-3.64,1.62-3.49,3.5,4.89-.74,5.93,5.76.53,5.41,1.53,10.44,13.6,16.96,21.45,22.9,8.91,5.26,29.63,8.26,22.28,22.96Z" style="fill: #fde27a; stroke-width: 0px;"/>
  </g>
</svg>