<?xml version="1.0" encoding="UTF-8"?>
<svg id="a" data-name="back pattern" xmlns="http://www.w3.org/2000/svg" width="116.09mm" height="128.5mm" viewBox="0 0 329.08 364.25">
  <path d="M146.83,358.53c-11.14-11.38-22.35-22.71-33.45-34.13-1.39-1.43-2.32-3.3-3.66-5.26,3.27-.64,5.68-.75,7.94,1.5,12.52,12.46,25.17,24.81,37.73,37.24,2.04,2.02,4.05,4.07,6.05,6.13h-9.7c-1.56-1.88-3.19-3.72-4.91-5.47Z" style="fill: #f7941d; stroke-width: 0px;"/>
  <path d="M271.73,0c4.05,3.82,8.16,7.59,12.23,11.39,1.15,1.07,2.3,2.16,3.47,3.27v6.81C280.07,14.31,272.7,7.16,265.33,0h6.4Z" style="fill: #f7941d; stroke-width: 0px;"/>
  <path d="M264.23,163.42c-1.02.69-2.14.99-3.3-.27-1.58-1.71.45-2.89,1.3-4.14.48-.7,1.19-1.25,1.8-1.86,7.8-7.82,15.61-15.63,23.41-23.45v7.89c-6.29,6.11-12.57,12.22-18.92,18.27-1.35,1.28-2.74,2.52-4.28,3.56Z" style="fill: #f7941d; stroke-width: 0px;"/>
  <path d="M282.97,354h4.46s0,5.48,0,5.48c-1.59-1.58-3.18-3.15-4.77-4.73.15-.36.16-.39.31-.75Z" style="fill: #f7941d; stroke-width: 0px;"/>
  <path d="M1.76,336.56c-.66.69-1.04,1.71-1.33,2.71v-9.65c.15.51.48.8.9.83l.52,6.01s-.06.07-.1.1Z" style="fill: #f7941d; stroke-width: 0px;"/>
  <path d="M250,0h6.77c2.22,2.12,4.42,4.25,6.58,6.43,2.69,2.71,4.91,5.87,7.6,8.58,2.98,3.01,6.27,5.71,9.39,8.58,2.37,2.19,4.73,4.39,7.09,6.58v6.62c-2.7-2.81-5.4-5.61-8.18-8.34C269.54,18.93,259.77,9.46,250,0Z" style="fill: #f7941d; stroke-width: 0px;"/>
  <path d="M50.29,0h15.21c-4.14.42-8.27.84-12.41,1.29C51.49,1.46,50.63,1.18,50.29,0Z" style="fill: #f7941d; stroke-width: 0px;"/>
  <path d="M.43,127.54v4.94c.4.05.85.06,1.35.02,12.52-.92,23.9-4.92,33.46-13.16,10.53-9.08,17.54-20.29,19.17-34.4,1.86-16.17-2.18-30.57-12.75-43.13-9-10.71-20.4-16.94-34.13-19.06-1.57-.24-3.22.09-4.83.05-.73-.02-1.47-.07-2.26-.14v12.73c.3.1.61.18.86.19,20.95,1.4,36.53,17.1,38.83,37.2,1.29,11.33-2.14,21.6-9.41,30.54-3.77,4.64-8.41,7.97-13.71,10.69l-11.15,9.12s-.09,0-.13,0c-.98.1-2.42,1.24-2.58,2.13,0,.03,0,.06,0,.09l-2.7,2.21ZM9.16,29.3c-.31,1.09-1.91,2.42-3.02,2.49-1.07.07-2.24-1.31-3.37-2.05,0-.43,0-.85.01-1.28,1.2-.79,2.35-2.12,3.62-2.24,1.73-.17,3.27,1.26,2.75,3.08ZM16.44,34.31c-.42,0-.84.02-1.26.03-.75-1-2.15-2.05-2.08-2.99.08-1.04,1.5-1.98,2.34-2.97,1.02.94,2.53,1.73,2.9,2.89.24.73-1.21,2.01-1.9,3.04ZM26.95,35.68c.13.86-1.24,1.96-2.46,3.69-1.25-1.77-2.43-2.75-2.64-3.92-.3-1.64.99-2.96,2.61-2.51,1.06.29,2.33,1.68,2.5,2.74ZM34.54,41.34c-.11,1.03-1.58,2.73-2.35,2.68-1.06-.07-2.75-1.47-2.83-2.41-.08-1.07,1.31-2.26,2.06-3.4.43,0,.86,0,1.28,0,.67,1.05,1.94,2.16,1.84,3.13ZM41.16,49.16c.16.81-1.43,1.97-2.79,3.67-1.23-1.8-2.61-2.93-2.51-3.91.1-.99,1.88-2.72,2.53-2.55,1.15.29,2.55,1.66,2.78,2.79ZM46.11,57.25c-.19,1.1-1.4,2.02-2.78,3.85-1.42-1.92-2.99-3.14-2.84-4.08.16-1.05,1.78-2.42,2.96-2.65,1.75-.34,2.96,1.18,2.67,2.88ZM49.73,67.27c.08,1.98-.56,3.43-2.82,3.49-1.78.05-3.22-2.28-3.36-6.24.63-.4,1.6-1.45,2.72-1.63,2-.32,3.34,1.55,3.45,4.37ZM47.37,85.51c-.74.04-2.25-1.26-2.18-1.83.11-.95,1.2-1.79,2.39-3.35.98,1.52,2.06,2.46,1.93,3.16-.16.83-1.34,1.98-2.14,2.03ZM46.1,93.58c-.8.08-1.73-1.13-3.29-2.28,1.68-1.13,2.65-2.28,3.63-2.28.69,0,1.96,1.6,1.91,2.42-.05.81-1.38,2.07-2.25,2.15ZM42.51,101.68c-1,0-1.99-1.33-3.71-2.63,1.79-1.27,2.98-2.68,3.67-2.47,1.05.33,2.25,1.7,2.41,2.78.11.7-1.53,2.33-2.37,2.32ZM35.66,107.16c.23-1.07,1.32-1.96,2.61-3.64,1,1.72,2.13,2.81,1.95,3.6-.2.87-1.54,1.9-2.5,2.03-.63.09-2.17-1.44-2.06-1.98ZM28.22,114.33c0-.37,0-.74,0-1.12,1.11-.66,2.19-1.74,3.32-1.81.72-.04,1.54,1.43,2.31,2.22-.97.86-1.83,2.13-2.94,2.42-.7.18-1.78-1.1-2.69-1.72ZM20.68,119.2c.23-1.06,1.57-2.55,2.52-2.6.9-.05,2.52,1.4,2.66,2.37.13.88-1.29,1.99-2.53,3.71-1.34-1.67-2.8-2.74-2.65-3.47ZM11.17,123.16c1.73-1.04,2.8-2.19,3.53-2,1.03.26,1.8,1.52,2.67,2.35-.88.81-1.73,2.2-2.66,2.25-.89.05-1.86-1.29-3.55-2.6ZM3.31,125.24c.16-.89,1.61-2.03,2.58-2.13.04,0,.08,0,.13,0,.71.11,1.99,1.51,1.98,2.27-.01.95-1.22,1.88-2.46,3.57-1.09-1.7-2.28-2.78-2.22-3.62,0-.03,0-.06,0-.09Z" style="fill: #f7941d; stroke-width: 0px;"/>
  <path d="M51.09,337.86c3.03-3.13,5.77-2.55,7.8,1.37-1.67,1.47-3.38,2.83-4.93,4.36-5.13,5.06-10.22,10.16-15.28,15.28-1.68,1.7-3.35,3.42-5.02,5.14h-7.75c8.41-8.7,16.76-17.45,25.18-26.14Z" style="fill: #f7941d; stroke-width: 0px;"/>
  <path d="M274.59,130.5c1.83-1.83,3.6-3.73,5.42-5.58,2.47-2.5,4.95-4.98,7.42-7.48v7.24c-4.29,4.4-8.56,8.81-12.81,13.25-10.41,10.89-20.74,21.84-31.15,32.73-3.44,3.59-7.03,7.04-10.53,10.58-12.74,12.92-25.37,25.94-38.24,38.74-9.73,9.67-19.73,19.07-29.64,28.56-12.61,12.07-25.34,24.02-37.87,36.18-12.96,12.56-25.82,25.23-38.58,37.99-9.97,9.97-19.75,20.15-29.58,30.27-3.55,3.66-7.07,7.34-10.59,11.02h-7.81c3.12-3.09,6.28-6.13,9.43-9.19,4.67-4.53,9.38-9.01,13.96-13.63.47-.47.58-2.03.17-2.53-2.65-3.27-5.45-6.42-8.28-9.54-1.69-1.87-2.54.12-3.39,1-5.89,6.16-11.63,12.47-17.55,18.59-4.99,5.15-10.08,10.21-15.14,15.3h-9.29c5.01-5.21,10.03-10.42,15.02-15.65,10.67-11.17,21.33-22.34,31.93-33.58,1.4-1.49,2.3-1.39,3.38.16,3.56,5.15,8.1,9.71,9.59,16.78,1.55-1.31,2.74-2.2,3.79-3.23,19.26-19.03,38.48-38.1,57.74-57.13,11.95-11.81,23.98-23.54,35.92-35.36,9.14-9.04,18.13-18.23,27.3-27.24,15.27-15,30.68-29.84,45.94-44.85,11.23-11.05,22.3-22.25,33.43-33.39Z" style="fill: #f7941d; stroke-width: 0px;"/>
  <path d="M264.5,195.6c7.64-.02,15.28-.02,22.92-.02v5.17c-5.44,0-10.87,0-16.31.03-1.99.01-4.22-.15-5.86.69-.94.49-.71,2.95-1.42,4.3-.45.87-1.65,1.35-2.51,2.01-.4-.84-1.04-1.65-1.13-2.52-.19-1.71-.03-3.45-.09-5.17-.16-4.16.11-4.48,4.41-4.5Z" style="fill: #f7941d; stroke-width: 0px;"/>
  <path d="M10.68,143.8c-1.17.39-2.47.69-3.68.61-3.06-.18-3.64,1.35-3.64,4.05,0,6.13-.15,12.28-.56,18.39-.28,4.2-1.23,8.35-1.68,12.54-.27,2.53-.49,5.06-.69,7.6v-45.67c.8-.52,2.22-.71,4.74-1.12.52-.08,1.04-.15,1.56-.2,31.16-3.27,59.72-33.34,56.23-68.17-2.01-20.1-12.25-35.05-28.04-46.58C25.02,18.03,13.67,14.27,1.34,13.65c-.26-.01-.6-.18-.91-.42V0s2.07,0,2.07,0c.12,2.66.24,5.31.36,7.97.08,1.91.93,2.71,2.82,2.84,2.39.17,4.79.44,7.13.92,2.1.42,3.2-.21,3.9-2.24C17.8,6.36,18.79,3.22,19.26,0h3.55c-.82,3.28-1.7,6.54-2.56,9.81-.54,2.02-1.14,3.81,1.73,4.83,2.62.93,3.89.17,4.91-2.19,1.13-2.62,2.53-5.12,3.3-6.66,4-.82,7.01-1.44,9.99-2.06-3.28,3.47-6.46,6.87-9.67,10.24-1.67,1.76-1.83,2.97.59,4.45,4.25,2.59,8.22,5.64,12.4,8.35.69.45,2.26.65,2.71.22,3.18-3.05,6.7-5.96,9.08-9.58,2.43-3.7,2.83-3.07,6.22-1.93.94.31,1.82.77,2.83,1.2-2.05,1.13-4.04,1.81-5.48,3.1-3.29,2.95-6.32,6.17-9.41,9.33-.5.51-1.21,1.61-1.04,1.84,1.26,1.66,2.58,3.36,4.22,4.59.39.29,2.15-1.05,3.15-1.81,2.83-2.15,5.53-4.64,9.36-4.56,1.06.02,2.1.89,3.15,1.37-.89.7-1.7,1.55-2.68,2.08-2.25,1.22-4.77,2.03-6.83,3.49-3.32,2.35-3.3,3.21-1.2,6.6.76,1.22,1.51,2.47,2.06,3.79.9,2.18,2.3,2.55,4.36,1.67,6.41-2.76,13.27-4.82,17.07-11.48.2-.35.63-.57,1.27-1.12-.61,2.41-1.61,4.42-1.44,6.32.16,1.8,1.56,3.5,2.55,5.5-6.5-1.34-12.12,1.48-17.92,3.36-1.84.6-3.09,1.56-2.21,3.82.75,1.93,1.27,3.92,4.16,3.11,2.31-.65,4.68-1.14,7.05-1.45,1.15-.15,2.43.16,3.55.54.4.14.77,1.15.68,1.68-.07.37-.92.76-1.46.85-3.01.53-6.04.99-9.06,1.44-1.69.25-2.23,1.16-1.93,2.82.46,2.55.94,5.11,1.11,7.69.15,2.26,1.25,2.99,3.33,2.96,3.46-.05,6.92-.08,10.38.01,5.65.15,11.3.34,16.94.65,1.49.08,2.96.65,4.44.99-.04.32-.08.65-.12.97-1.1.07-2.19.21-3.29.21-9.42.02-18.83.08-28.25,0-2.46-.02-3.49.81-3.42,3.34.07,2.39-.34,4.78-.32,7.17,0,.82.48,2.17,1.05,2.36,5.08,1.69,9.97,5.72,15.68,1.67.09-.06.33.11.87.3-.81,2.08-1.6,4.15-2.47,6.39-4.57-1.66-8.89-3.21-13.19-4.8-2.05-.76-3.19-.2-3.83,1.99-.59,2.02-.72,3.42,1.7,4.3,3.24,1.18,6.44,2.54,9.53,4.08,3.73,1.86,5.07,4.75,3.67,9.29-.68-.91-1.43-1.77-2.02-2.73-2.64-4.32-7.12-5.95-11.39-7.92-2.15-.99-3.53-.71-4.48,1.69-.88,2.22-2.01,4.38-3.3,6.39-1.19,1.85-.68,2.88,1.15,3.47,3.13,1.02,6.3,1.91,9.49,2.86-.64,2.59-1.72,3.42-4.45,2.48-2.44-.85-4.67-2.29-7.11-3.09-.99-.32-2.56.03-3.4.68-1.08.84-2.02,2.18-2.42,3.49-.52,1.71-1.22,2.6-3.01,3.32-3.87,1.56-4.23,4.15-1.92,7.39,2.27,3.19,4.28,6.59,6.17,10.03.46.84-.02,2.21-.07,3.33-.95-.69-2.17-1.19-2.81-2.1-2.4-3.45-4.58-7.05-6.89-10.56-1-1.52-2.18-1.53-3.66-.48-2.5,1.78-5.06,3.49-7.7,5.06-1.5.89-1.66,1.81-.99,3.31,1.05,2.36,2,4.78,2.83,7.23.92,2.73,1.44,5.8,6.17,3.73-1.29,2.98-2.23,5.15-3.19,7.37-2.05-1.41-3.81-2.54-5.46-3.81-.44-.34-.94-1.36-.76-1.61,1.78-2.53-.01-4.63-.81-6.73-2.58-6.77-2.63-6.68-9.48-4.59-1.77.54-2.39,1.23-2.3,3.2.24,4.98.19,9.99.07,14.98-.02.93-.73,2.44-1.43,2.65-1.93.57-4.02.59-6.03.83,1.48-2.36,3.45-4.28,3.88-6.5.61-3.13.15-6.49.02-9.75-.1-2.62-1.28-3.89-4.1-2.95Z" style="fill: #f7941d; stroke-width: 0px;"/>
  <path d="M167.34,364h7.08c-3.06-3.63-6.13-7.25-9.23-10.85-1.44-1.66-3.1-3.13-4.66-4.69-2.13-2.13-4.61-3.35-7.7-3.26-1.83.05-3.96.19-3.82-2.58.14-2.73,2.38-1.92,3.95-2.01,1.62-.1,3.29-.19,4.87.1,1.35.24,2.98.69,3.83,1.63,6.38,7.17,12.67,14.41,18.96,21.66h8.81c-6.89-7.37-13.09-15.21-16.76-24.83-1.49-3.9-1.03-4.9,3.48-6.25.41,1.75.7,3.34,1.16,4.87,2.15,7.12,6.33,13.06,10.92,18.75,1.98,2.46,4.1,4.81,6.02,7.32.03.04.04.09.07.13h9.46c.19-.89,1.4-1.92,3.61-3.82,2.36-2.04,4.74-2.73,7.76-1.77,3.51,1.12,7.01,2.26,10.59,3.13,2.92.71,5.79,1.58,8.67,2.46h28.3c-1.64-5.85-1.93-11.84-.72-18.07.38-1.99-.02-4.47-.92-6.3-1.57-3.15-3.74-6.02-5.82-8.9-.82-1.14-1.99-2.07-3.13-2.92-1.34-.99-2.05-.39-2.33,1.14-.85,4.64-.09,6.24,4.28,7.93,3.14,1.21,4.81,3.26,4.89,6.69.05,2.18-.65,3.15-2.87,2.36-3.43-1.22-6.84-2.5-10.27-3.72-.8-.29-1.63-.47-2.45-.7-.25.33-.49.66-.74.99,5.88,6.06,11.76,12.12,17.64,18.18-.28.49-.26.45-.54.95-3.24-.77-6.45-1.79-9.74-2.28-5.49-.82-11.04-1.23-16.54-1.99-3.57-.49-6.24-2.51-7.34-6.38-.5-1.78-1.33-3.44-2.15-5.1-.9-1.82-.38-2.81,1.17-4.03,4.9-3.88,10.21-3.8,15.81-2.15,2.52.75,3.17.22,2.8-2.35-.24-1.71-.44-3.46-1-5.08-1.97-5.7-.53-9.68,4.97-12.7,3.87-2.13,9.87-1.58,12.36,2.21,1.9,2.89,3.7,5.84,5.51,8.78,2.16,3.51,2.14,3.5,5.08.43.27-.28.69-.76.95-1.05,4.63-5.45,9.88-10.09,15.8-13.83v-9.85c-.47-5.93-1.86-11.59-4.57-16.91-1.89-3.69-2.12-6.49.9-9.89,1.46-1.64,2.58-3.59,3.67-5.65v-39.62c-8.34,0-16.68.02-25.02-.01-4.53-.02-7.49-2.26-7.46-5.86.09-10.73.25-21.47.56-32.2.12-4.13.82-4.6,4.87-4.6,9.01,0,18.02,0,27.04,0v-22.78c-6.52-.07-13.04-.11-19.53.26-4.08.23-7.34-.5-10.38-2.89-1.65-1.3-2.83-.95-4.17.5-2.28,2.45-4.74,4.74-7.09,7.13-12.34,12.52-24.67,25.04-37,37.57-.54.54-1.07,1.12-1.46,1.77-.27.46-.46,1.51-.39,1.54,2.1.8.76,2.36.86,3.59.07.85-.06,2.11.43,2.46,1.29.94,2.87,1.5,4.33,2.2.34-1.02.51-2.13,1.06-3.02.67-1.09,1.5-2.59,2.52-2.82,1.7-.39,3.61.08,5.57.19-2.87,8.54-3.82,9.51-9.71,8.5-2.35-.4-5.07-1.43-6.59-3.1-1.24-1.37-.96-4.12-1.33-6.12-24.32,23.57-48.82,47.33-73.55,71.3.86.4,1.27.76,1.69.77,4.51.11,9.03.24,13.54.15.68-.01,1.72-1.02,1.93-1.75,1.04-3.74,1.83-7.55,2.78-11.32.16-.64.69-1.73.96-1.71,3.12.29,6.26.6,9.3,1.29.75.17,1.18,1.72,1.76,2.64-.91.35-1.8.79-2.74,1.03-.63.16-1.35.1-2.01.02-2.45-.31-3.46.8-4.21,3.16-1.18,3.72-2.85,7.3-4.56,10.83-1.02,2.1-2.54,3.55-4.87,1.1-.45-.47-1.4-.63-2.13-.66-5.08-.23-10.16-.47-15.24-.48-1.09,0-2.41.72-3.25,1.5-5.33,4.99-10.58,10.05-15.78,15.17-1.01.99-1.7,2.32-2.53,3.49,1.53.35,3.04.94,4.59,1.01,8.91.45,17.84.52,26.72,1.24,6.96.56,13.83,2.03,20.78,2.77,3.53.37,3.75-.11,3.76-3.68.02-7.88-.04-15.76.06-23.63.02-1.36.27-3.01,1.07-4.01,2.09-2.62,4.48-5,6.85-7.38,12.01-12.05,24.01-24.1,36.1-36.06,2.99-2.96,6.34-5.57,9.45-8.43.9-.83,2.29-.78,3.15.09,5.6,5.67,11.24,11.3,16.9,16.9,1.27,1.26,1.36,2.34-.21,3.59-1.93,1.54-4.84,4.33-6.59,6.06-12.63,12.46-25.23,24.94-37.82,37.45-.52.51-1.08,1.26-1.11,1.93-.2,5.07-.24,10.14-.41,15.21-.06,1.88.14,3.99-.61,5.6-3.03,6.48-2.35,12.62.77,18.79,1.74,3.44,4.4,5.18,8.22,5.34,1.13.05,2.25.39,2.71.48-.43,2.46-.7,4.41-1.13,6.32-.15.67-.59,1.6-1.11,1.77-.68.22-1.79.06-2.31-.4-1.81-1.57-3.43-3.35-5.17-5.02-7.2-6.92-8.7-15.69-8.2-25.12.02-.36.27-.7.37-1.07.52-1.87,1.37-3.72,1.46-5.6.22-4.51.08-9.03.07-13.54,0-2.92.95-5.29,3.11-7.42,13.59-13.45,27.08-27,40.6-40.53,1.18-1.18,2.53-2.31.63-4.03-1.64-1.48-2.9-1.93-4.76.04-5.08,5.38-10.44,10.49-15.63,15.76-6.94,7.05-13.82,14.15-20.71,21.24-1.08,1.11-2.05,2-3.65.66-.73-.61-1.83-.77-2.75-1.13-.34,1.13-.96,2.27-.97,3.4-.05,6.91.1,13.83.02,20.75-.01.96-.69,2.4-1.46,2.77-2.11,1.03-4.45,1.6-6.92,2.43-.13-1.15-.27-1.7-.21-2.38.61-6.63.74-13.28.03-19.9-.42-3.96.97-6.75,3.53-9.21,4.85-4.65,9.74-9.25,14.48-14,5.83-5.85,11.53-11.83,17.26-17.77,3.73-3.86,7.42-7.75,11.21-11.72-1.31-2.58-2.57-2.64-5.44.22-14.68,14.65-29.32,29.34-44.04,43.96-1.65,1.64-2.25,3.37-2.23,5.63.08,9.13-.05,18.26.07,27.38.04,2.83-1.07,3.87-3.75,3.54-.86-.11-1.72-.18-2.58-.27-6.09-.62-12.18-1.24-18.21-1.85-.26.46-.34.77-.54.94-.99.83-2,1.62-3.01,2.43-.47-1.05-.91-2.1-1.41-3.14-.31-.65-.69-1.79-1.06-1.8-4.21-.13-8.42-.08-13.25-.08,1.29,1.42,2.02,2.3,2.83,3.09,10.64,10.41,21.31,20.79,31.95,31.2,3.43,3.36,6.82,6.77,10.2,10.18ZM154.15,304.86c-1.02,1.88-2.04,3.77-3.07,5.65-.03.06-.17.07-.67.24-1.4-3.21-4.02-3.67-7.14-3.61-7.95.14-15.91.06-23.86.04-1.5,0-3.32.26-3.23-2.13.08-2.01,1.44-2.51,3.17-2.47,9.66.2,19.33.32,28.99.67,1.96.07,3.88,1.05,5.82,1.62ZM167.36,264.94c-.05,2.47-1.81,4.34-3.76,4.32-1.98-.01-3.75-1.9-3.71-3.96.04-2.25,1.6-3.75,3.88-3.64,2.27.11,3.47,1.34,3.6,3.28ZM176.65,256.37c-.27,1.14-1.96,1.95-3.01,2.9-2.86-.47-4.42-1.55-4.36-3.38.05-1.8,1.01-2.8,2.88-2.88,2.38-.1,4.92,1.55,4.49,3.36ZM184.93,249.33c-.57,1.12-2.22,1.7-3.39,2.52-2.19-.64-4.2-.33-4.32-3.06-.09-2.08,1.12-2.92,2.96-3.05,1.99-.14,5.37,2.36,4.75,3.59ZM193.77,238.95c.06,1.7-.86,3.31-2.7,2.92-1.53-.33-2.85-1.64-4.26-2.52.03-.43.07-.86.1-1.29,1.03-.57,2.02-1.54,3.09-1.62,1.69-.13,3.68.13,3.77,2.5ZM204.14,231.28c-.97.87-1.94,2.43-2.92,2.44-1.14.01-2.29-1.33-3.44-2.09.02-.4.04-.79.05-1.19,1.1-.68,2.33-2.04,3.25-1.85,1.15.23,2.05,1.74,3.06,2.7ZM268.62,176.75c.1-1.9,2.2-3.42,4.61-3.32,2.12.09,3.78.83,3.95,3.22.14,1.95-1.97,3.61-4.37,3.55-2.28-.05-4.29-1.7-4.19-3.46ZM237.9,291.23c-2.9-3.5-3.68-8.64-9.24-10.03.95-1.31,1.58-2.35,2.38-3.23,1.01-1.12,2.28-1.26,3.12.11,2.45,4,4.18,8.25,3.74,13.16ZM232.4,232.76s.96-1.17,1.23-1.51c3.04.09,5.78,2.56,5.55,4.67-.07.59-1.35,1.61-1.4,1.57-1.87-1.49-3.67-3.07-5.39-4.74ZM227.85,213.17c-1.23.32-2.47.95-3.68.9-2.38-.1-4.77-.45-7.1-.96-.84-.18-2.21-1.2-2.14-1.69.23-1.81.95-3.57,1.49-5.34.36.12.72.24,1.08.35q2.57,4.42,7.38,2.23c.44-.2,1.43-.17,1.51.02.58,1.46,1,2.99,1.46,4.49ZM238.71,201.56c-1.96,1.46-3.94,2.95-6.09,4.07-.58.3-1.79-.62-3.37-1.24,2.64-1.82,4.45-3.06,6.26-4.29.24-.16.52-.39.76-.38.81.05,1.64.1,2.38.38.19.07.29,1.28.05,1.45ZM241.16,221.51c-.12,2.61-2.6,5-5.06,4.87-2.4-.12-4.6-2.57-4.56-5.05.04-2.24,2.44-4.64,4.64-4.62,2.86.03,5.1,2.18,4.99,4.8ZM245.97,192.41c-1.14.86-2.28,1.72-3.42,2.58-.89-1.21-1.89-2.37-2.6-3.68-.14-.26.8-1.1,1.62-2.16,1.69,1.25,3.04,2.26,4.4,3.26ZM248.08,245.7c.36-.29,2.11.36,2.39.96.42.91.51,2.86.03,3.13-2.14,1.22-4.5,2.06-6.83,2.9-.41.15-1.06-.37-1.62-.59.21-.58.23-.92.41-1.09,1.84-1.81,3.62-3.69,5.62-5.3ZM251.45,187.04c-2.02.09-3.62-1.78-3.59-4.31.02-2.2.78-3.77,3.14-3.53,2.94-.03,4.51,1.24,4.56,3.48.04,2.24-1.86,4.26-4.1,4.36ZM270.26,245.26c-.85,1.03-1.69,2.07-3.03,3.69-.6-1.34-1.31-2.19-1.1-2.6.47-.95,1.27-1.86,2.16-2.41.27-.17,1.29.85,1.97,1.32ZM272.65,260.28c-.28.72-.93,1.3-1.42,1.95-.73-.55-1.89-.97-2.1-1.68-1.05-3.51-3.67-3.84-6.61-3.48-1.8.22-3.61.54-5.33,1.1-5.28,1.7-10.5,3.61-15.8,5.24-.96.3-2.21-.34-3.32-.54.64-.85,1.1-1.96,1.93-2.52,7.9-5.25,16.9-6.94,26.11-7.92,4.71-.21,8.08,3.81,6.53,7.84ZM283.44,247.6c.14,1.05-1.46,2.31-2.29,3.48-.44,0-.89,0-1.33,0-.89-1.24-2.48-2.51-2.43-3.71.04-1.01,2.03-2.71,3.12-2.68,1.08.03,2.79,1.76,2.94,2.91ZM275.1,265.86c.51-1.19.83-2.53,1.58-3.54.89-1.22,2.04-2.35,3.31-3.14.61-.38,2.55.11,2.55.2,0,1.84.13,3.8-.48,5.47-.39,1.09-1.91,1.78-2.95,2.67-1.64-.68-2.82-1.17-4.01-1.66ZM275.38,278.66c-.38-.28-.74-.61-1.09-.93-4.11-3.79-8.72-6.74-14.45-6.95-5.05-.19-10.11.16-15.17.17-.89,0-1.77-.54-2.66-.83.74-.64,1.37-1.57,2.23-1.86,4.99-1.7,10-3.35,15.06-4.78.97-.27,2.4.22,3.31.82,2.63,1.74,5.11,3.69,7.63,5.6,2.95,2.24,5.17,4.97,5.88,8.82-.39-.02-.62.03-.74-.06ZM259.92,306.47c.1-1.41,2.2-2.58,3.08-4.07,2.37-4,4.55-8.11,6.93-12.39.12.09.41.2.55.42.32.47.57.99.84,1.5,4.87,9.45,4.38,19.2,1.65,29.08-.62,2.24-2.39,2.19-4.11,2.28-1.76.09-2.42-.9-2.89-2.52-.99-3.38-2.15-6.73-3.48-9.99-.64-1.56-2.66-2.95-2.56-4.31ZM256.27,281.07c-1.35-.47-2.55-1.34-3.82-2.03.15-.39.29-.77.44-1.16,4.92-.06,9.83.12,14.57,1.77.42.15.85,1.46.65,1.99-.65,1.68-1.81,2.56-3.84,1.85-2.62-.92-5.36-1.5-7.99-2.42ZM249.28,295.38c.03-2.45,1.96-4.35,4.37-4.31,2.2.03,4.19,1.88,4.17,3.88-.02,2.21-2.94,5.3-4.92,5.22-1.93-.08-3.65-2.35-3.62-4.78ZM241.34,298.13c-.57-7.06-.52-14.18-.72-21.27-.05-1.7.71-3.03,2.44-2.75.66.1,1.49,1.75,1.52,2.72.15,4.99.27,10,.03,14.98-.37,7.75,1.28,14.67,7.52,20.22-4.02.09-6.69-1.52-8.02-4.87-1.16-2.93-2.52-5.96-2.77-9.02ZM240.95,314.36c-6.43-3.05-8.98-10.95-16.38-13.4-.17.58-.26.94-.38,1.28-1.16,3.22-4.74,3.88-7.18,1.55-.95-.91-2.43-1.48-3.75-1.72-2.77-.49-5.59-.66-8.39-.96-.09-.37-.19-.74-.28-1.11,1.72-.68,3.39-1.74,5.16-1.94,2.05-.24,4.19.47,6.28.41,1.83-.06,4.88-.14,5.24-1.05,1.04-2.7-1.87-3.45-3.63-4.62-1.43-.95-2.38-2.13-1.22-3.8,1.13-1.64,2.4-1,3.65.04,1.6,1.34,3.26,2.59,4.9,3.88l.57-.54c-.67-1.45-1.44-2.87-1.96-4.38-.23-.68.03-1.53.06-2.3.69.19,1.54.18,2.03.61,1.08.94,2.14,1.97,2.89,3.17,2.04,3.23,4.31,6.43,2.41,10.64-.22.49.64,1.66,1.23,2.3,2.49,2.64,5.15,5.13,7.58,7.82.89.99,1.35,2.37,2,3.58-.28.19-.56.37-.84.56ZM237.25,321.39c-.88-.07-1.77-.05-2.63-.22-.55-.11-1.05-.46-1.55-.75-6.53-3.79-13.54-5.63-21.13-5.86-4.05-.12-8.08-1.18-12.12-1.82-.04-.3-.07-.59-.11-.89,1.14-.39,2.26-1.01,3.42-1.12,3.43-.33,6.88-.44,10.31-.68,8.94-.64,16.28,2.92,22.73,8.71.63.57.73,1.74,1.07,2.63ZM212.76,340.85c-2.81-.14-3.4-2.32-3.77-4.49-.67-3.96,1.3-6.92,3.71-9.85,5.7-6.95,17.95-6.53,22.98-2.84-2.64,1.84-5.09,3.48-7.45,5.24-2.38,1.77-4.6,3.75-7.01,5.48-.81.58-1.94.82-2.96.95-1.55.2-3.72-.43-4.53.38-.84.84-.38,2.99-.52,4.56-.01.16-.22.29-.44.57ZM203.64,342.13c3.75,1.52,5.45,4.72,7.49,7.55.24.34.16,1.19-.11,1.53-.29.35-1.02.57-1.5.5-2.92-.42-6.63-6.26-5.87-9.58ZM197.98,318.94c-.66-.42-1.58-.42-2.39-.61.77-2.89,2.45-3.77,5.47-2.81,3.15,1,6.24,2.17,9.77,3.4-1.31,1.46-2.41,2.91-3.73,4.12-2.04,1.86-2.86,1.45-4.54-.67-1.14-1.45-2.95-2.41-4.56-3.43ZM198.69,335.88c-3.02-.06-6.09-2.37-6.17-4.53-.04-1.06.9-2.5,1.82-3.17,2.2-1.6,3.68.23,5.16,1.6.28.26.66.49.8.82.47,1.14,1.51,2.66,1.13,3.4-.54,1.05-2.17,1.54-2.73,1.89ZM145.94,335.4c-1.7.05-2.74-.68-2.74-2.54,0-1.82.95-2.61,2.69-2.6,2.98,0,5.95,0,8.93,0,2.88,0,5.78-.21,8.63.1,1.12.12,2.11,1.39,3.16,2.14-.95.77-1.86,2.13-2.86,2.2-5.93.41-11.88.52-17.82.71Z" style="fill: #f7941d; stroke-width: 0px;"/>
  <path d="M262.73,229c8.23,0,16.46,0,24.69,0v-21.54c-4.47.18-8.93.38-13.39.71-1.86.14-3.67,1.38-5.43,2.28-1.01.52-1.77,1.54-2.79,2.02-6.24,2.95-6.2,8.6-6.25,14.23-.02,2.23,1.52,2.32,3.16,2.32ZM269.52,218.79c-.02-2.38,1.98-4.29,4.45-4.28,2.09.01,3.97,1.91,4.04,4.07.07,2.31-1.95,4.35-4.36,4.4-2.31.05-4.12-1.79-4.14-4.19Z" style="fill: #f7941d; stroke-width: 0px;"/>
  <path d="M54.21,364h8.05c-.25-.52-.34-1.08-.2-1.63.35-1.37,1.75-2.48,2.4-3.33,3.13.28,4.22,1.52,4.29,3.65.02.48-.03.91-.13,1.31h6.24c-.67-3.76-.3-7.58.93-11.55,2.87-9.22,9.09-15.9,15.88-22.21.73-.68,1.93-.68,2.68-.03,2.09,1.79,4.05,3.76,5.87,5.82,5.35,6.07,9.89,12.52,9.61,21.2-.06,1.77-.66,2.36-2.25,2.39-1.73.03-3.02-1.36-2.76-3.07.98-6.37-1.91-12.41-6.06-14.33-.43-1.23-.52-2.12-.99-2.7-1.09-1.34-2.4-2.48-3.55-3.77-1.25-1.4-2.45-1.42-3.58.04-2.68,3.49-5.59,6.84-7.91,10.56-3.42,5.47-4.45,11.49-4.68,17.66h25.92c.51-1.06,1.74-1.47,3.15-1.47,1.55,0,2.98.59,3.72,1.47h7.57c-3.1-3.3-3.88-7.62-2.06-11.74,1.53-3.45,3.75-3.4,6.1.11.12.18.26.36.4.53,3.25,3.72,6.52,7.41,9.8,11.1h13.42c-14.55-14.97-29.06-29.97-43.58-44.97-1.25-1.29-2.35-2.17-4.04-.42-14.72,15.15-29.47,30.27-44.22,45.4ZM99.5,352.51c-3.8,1.36-7.11,1.76-10.28-2.3-.37,2.69-.42,4.41-.92,6-.26.84-1.29,1.44-1.96,2.14-.36-.91-1.27-2.09-.97-2.67,1.49-2.96,3.1-5.91,5.06-8.57,1.6-2.17,3.89-2.19,5.63-.15,1.41,1.66,2.34,3.73,3.45,5.56Z" style="fill: #f7941d; stroke-width: 0px;"/>
  <path d="M5.95,353.77c-1.05.15-4.85.36-5.52.49v.66s.4,9.08.4,9.08h4.01c18.21-18.99,36.39-37.94,54.83-57.16,4.56,5.59,8.95,10.97,13.69,16.78,22.27-22.26,44.57-44.56,67.45-67.42-1.83-.11-2.84-.22-3.85-.22-18.74,0-37.48-.04-56.22.05-2.95.01-5.99.7-8.73,1.63-.05.02-.11.07-.13.12-1.93,4.09.48,3.91,2.2,3.93,16.13.2,32.26.39,48.4.57,1.22.01,2.44,0,3.83.41-9.16,9.59-18.49,18.72-29.23,26.29-.03-.02-.04-.02-.07-.05.66-3.32,1.3-6.52,2.06-10.32-2.6,0-5.22-.03-7.84.02-.76.01-1.51.27-2.28.33-5.16.44-4.98.51-5.33,5.55-.28,4.05,1.57,7.22,3.2,10.57,1.66,3.42-.81,8.58-4.67,8.95-.03,0-.07,0-.09-.02-4.32-2.95-8.58-5.96-12.85-8.95,2.41-3.74,3.29-3.89,6.22-1.43,1.69,1.42,3.42,2.8,5.25,4.03.6.4,2.01.63,2.26.31.58-.72.99-1.87.87-2.77-.13-.97-.74-2.08-1.49-2.72-4.33-3.7-2.24-9.09-2.07-14.36,0-.08,0-.15,0-.23-.24-2.76.29-4.13,2.68-4.1,7.68.11,15.37.17,23.05.23.65,0,1.52.13,1.92-.23,2.45-2.17,4.75-4.52,7.13-6.76-.01-.03-.01-.03-.03-.06h-52.92s-.02-.03-.03-.05c2.17-3.24,4.86-6.2,6.65-9.63,2.62-5.03,6.41-6.21,11.9-6.11,20.08.35,40.17,0,60.25.23,4.41.05,7.16-2.07,9.94-4.79,7.66-7.53,15.36-15.03,23.03-22.54,3.7-3.62,7.42-7.22,11.06-10.89,7.7-7.77,15.36-15.58,23.02-23.4,1.49-1.52,2.85-3.18,4.32-4.72-.01-.03-.01-.03-.02-.05-1.88.06-3.78-.08-5.65.03-5.13.31-8.45-3.14-11.56-9-.16-.31-.61-.24-.69.09-.5,2.02-1.31-.27-2.05-.27-5.11.05-3.08-4.38-4.21-6.79-.22-.48.28-1.48.71-2.05,2.47-3.36,4.96-6.7,7.61-9.92.34-.41,1.95-.39,2.43.04,2.22,1.97,4.43,4.01,6.25,6.34.73.93.44,2.66.65,4.26.76,0,1.85-.25,2.74.06,1.3.45,3.05,1.03,3.51,2.05.4.87-.48,3.25-1.28,3.52-1.25.42-3.1-.04-4.35-.75-1.27-.72-2.07-2.22-3.16-3.31-.67-.67-1.44-1.3-2.26-1.75-1.96-1.08-4.07-1.71-5.71.43-1.78,2.31-.25,4.27,1.77,5.95.04.03.07.07.09.11,5.12,8.49,13.04,7.43,20.37,5.88.04,0,.07-.03.1-.05,6.93-6.63,13.82-13.29,20.79-20.01-.27-.48-.4-.85-.64-1.1-9.43-9.44-18.89-18.85-28.28-28.33-1.61-1.62-2.91-1.49-4.43-.05-1.61,1.53-1.45,2.94.07,4.44,4.98,4.94,9.94,9.9,14.87,14.89.86.87,2.61,1.85,1.02,3.19-.58.48-2.6.07-3.36-.61-6.15-5.5-12.13-11.19-18.21-16.77-1.44-1.32-1.04-2.51-.02-3.75,2.93-3.55,6.01-6.99,8.77-10.66,3.69-4.92,3.62-5.03-.81-9.36-4.53-4.43-9.17-8.75-13.68-13.19-.9-.89-2.77-1.75-1.28-3.49,1.51-1.76,2.97-.69,4.2.47,3.78,3.55,7.56,7.09,11.24,10.75,6.66,6.62,13.08,13.48,19.9,19.94,6.96,6.59,14.25,12.84,21.45,19.18,2.21,1.94,2.76,1.65,5.8-1.58,1.57-1.67,1.48-2.81-.37-4.18-1.37-1.01-2.44-2.42-3.66-3.63-1.68-1.68-3.23-2.97-5.81-1.04-1.49,1.11-3.35-.35-2.66-2.19,1.48-3.92-.82-5.57-3.28-7.8-6.26-5.68-12.17-11.73-18.3-17.55-6.06-5.75-12.15-11.46-18.37-17.03-1.65-1.48-1.47-2.26,0-3.6,4.03-3.66,7.81-7.59,11.92-11.17.08-.07.08-.19,0-.26-4.34-3.89-8.54-7.95-12.76-11.98-.4-.38-.66-.89-1.05-1.45,6.28-3.33,10.3-8.86,15.04-13.67,8.61-8.74,17.61-17.1,26.52-25.54,1.36-1.29,1.81-2.21.51-3.82-1.25-1.55-2.19-3.36-3.48-5.39-.9.77-1.85,1.49-2.68,2.32-12.86,12.83-25.69,25.67-38.54,38.51-2.4,2.4-2.71,2.37-5.2-.17,16.25-16.48,32.51-32.96,48.76-49.44.03.01.03.01.06.02-.1,1.65.97,3.67.49,5.2-.9,2.91.48,4.25,2.69,5.53,1.87,1.08,3.57,2.44,5.88,4.04-2.81,2.78-5.25,5.16-7.66,7.57-8.29,8.27-16.56,16.55-24.85,24.82-2.78,2.78-5.41,5.76-8.44,8.24-2.02,1.65-1.85,2.91-.36,4.46,2.93,3.05,5.84,6.12,8.94,8.99,1.82,1.68,1.67,2.83-.09,4.38-3.09,2.73-6,5.66-9.07,8.42-1.57,1.41-1.93,2.35-.1,4.08,15.84,14.96,31.53,30.09,47.26,45.17.23.22.44.47.63.72,1.76,2.35,2.84,2.54,4.47,1.03,4.78-4.45,4.65-4.85-.44-9.05-8.21-6.78-16.32-13.68-24.27-20.76-6.52-5.8-12.76-11.92-19.11-17.91-.54-.51-.97-1.15-1.72-2.06,1.77-.9,3.32-1.69,5.15-2.63.94,4.5,4.35,6.62,7.23,9.21,6.7,6.03,13.25,12.24,20.11,18.09,6.35,5.41,13.03,10.43,19.53,15.66,1.27,1.02,2.19.79,3.22-.28,5.12-5.33,10.19-10.72,15.42-15.94.32-.32.66-.63.98-.95v-18.7c-2.09-2.13-2.21-2.73,0-4.79v-23.45c-.13,0-.25,0-.36.02.1-.92-.11-2.06.36-2.72,0,0,0,0,0,0v-17.18c-3.35-1.31-7.08-1.07-10.84-.73-2.76.26-5.51.6-8.4.32,1.78-2.76,4.65-2.51,7.2-2.9,2.72-.42,5.47-.58,8.96-.92C270.54,26.32,257.05,13.18,243.52,0h-9.3c-6.47,7.77-12.84,15.4-19.11,23.09-2.05,2.52-4.27,4.03-7.62,3.45-1.77-.31-2.56.67-3.04,2.29-1.33,4.47-4.74,7.08-8.66,9.03-1.8.9-3.51.22-4.18-1.77-.65-1.95.58-2.72,2.27-3.6,2.05-1.07,3.83-2.76,5.54-4.37,4.15-3.92,4.11-3.96.37-8.57-2.73-3.36-2.69-3.37.4-6.56,3.27-3.37,6.42-6.86,9.71-10.2,1.05-1.07,2.11-2.92,4.02-1.19,1.96,1.77.48,2.96-.76,4.25-3.19,3.31-6.38,6.63-9.44,10.06-.76.85-1.43,2.18-1.37,3.25.06,1.08.93,2.27,1.77,3.05.25.23,1.8-.64,2.5-1.29,7.2-6.73,14.41-13.47,21.49-20.34.19-.19.36-.39.55-.59h-23.82c-1.46,1.56-2.95,3.1-4.43,4.65-1.66,1.73-3.35,3.43-5.15,5.02-.45.4-1.49.59-2.01.35-.6-.27-.92-1.14-1.44-1.85.39-.63.64-1.26,1.08-1.72C194.92,4.3,196.98,2.15,199.04,0h-13.61c0,15.97,0,31.98,0,48.37-3.13-1.99-4.45-3.97-4.44-7.18.04-13.73.05-27.46.06-41.19h-6.91c0,11.81,0,23.63,0,35.44,0,.93-.09,1.86-.16,3.2-2.79-1.76-4.52-3.48-4.5-6.73.07-10.64.06-21.27.05-31.91h-6.09v29.25c-2.8-2.46-4.99-4.4-7.27-6.23-1.81-1.45-1.79-2.88-.49-4.69,1.79-2.49,3.51-5.05,5.04-7.7.51-.89.33-2.18.47-3.28-1.47.26-3.57,0-4.31.87-3.2,3.81-5.99,7.97-8.98,11.97-.98,1.31-.63,2.16.49,3.16,2.73,2.41,5.37,4.93,8.04,7.41,9.08,8.39,18.22,16.72,27.21,25.2,5.86,5.53,11.44,11.35,17.29,16.89,1.85,1.75,1.87,2.84,0,4.59-8.34,7.79-16.6,15.68-24.82,23.61-7.95,7.66-15.81,15.42-23.73,23.1-1.72,1.67-3.66,3.12-5.3,4.85-1.96,2.06.2,3.53,1.2,4.94.23.33,2.31-.08,3-.72,3.51-3.27,6.84-6.75,10.26-10.11.68-.67,1.51-1.19,2.9-1.86v38.16c-.85.11-1.17.22-1.5.32-.78-1.1-1.58-2.19-2.33-3.31-4.88-7.35-9.3-15.06-14.73-21.97-7.28-9.26-13.58-19.06-19.15-29.37-.46-.85-.4-2.55.17-3.24.52-.63,2.21-.82,3.09-.47.79.32,1.24,1.6,1.73,2.52,3.34,6.26,6.63,12.55,9.98,18.8.38.71,1.07,1.26,1.67,1.94,2.27-2.12,4.4-4.02,6.43-6.01,14.11-13.87,28.18-27.77,42.31-41.62,1.59-1.55,1.69-2.62.05-4.23-15.35-15.07-30.64-30.21-45.96-45.31-.51-.51-1.17-.86-2.01-1.46-2.22,3.3-4.39,6.33-6.35,9.49-1.92,3.1-3.58,6.35-5.42,9.5-.88,1.5-5.33,2.54-6.08,1.24-.49-.85.22-2.75.9-3.86,1.82-2.93,3.95-5.67,5.9-8.52C140.81,22.56,148.48,11.28,156.16,0h-7.4c-1.24,1.05-2.42,2.14-3.33,3.43-8.73,12.28-17.15,24.79-25.58,37.28-2.29,3.39-1.82,5.22,1.2,8.03,7.59,7.06,15.15,14.14,22.7,21.24,2.37,2.22,3.61,2.06,4.69-1.05.73-2.12,1.03-4.39,1.6-6.91,5.24,2.23,9.5,5.41,12.95,9.81,1.73,2.22,1.92,4.37-.01,6.17-3.42,3.17-7.09,6.08-10.75,8.97-.7.55-1.84.54-2.45.7-.52-2.44-.72-4.55-1.44-6.47-.89-2.38-2.18-2.63-4.11-.92-6.74,5.96-13.44,11.97-20.11,18.01-1.34,1.21-2.53,2.58-3.76,3.9-1.75,1.88-1.67,4.21.83,7.91,10.2,15.12,20.5,30.17,30.76,45.25.89,1.31,1.67,2.69,2.82,4.55-1.66.13-2.66.27-3.67.27-17.01.01-34.01.01-51.02,0-.67,0-1.51.2-1.98-.12-.83-.57-1.89-1.37-2.06-2.23-.55-2.69,1.36-2.86,3.37-2.85,13.93.02,27.86.02,41.8,0,1.21,0,2.41-.12,4.19-.22-.7-1.29-1-1.98-1.42-2.6-6.09-8.87-12.39-17.6-18.23-26.62-4.22-6.51-7.84-13.41-11.73-20.13-.89-1.55-.66-2.87.67-4.12,3.07-2.87,6.04-5.86,9.12-8.72,5.35-4.96,10.74-9.86,16.13-14.76,1.7-1.55,1.72-3.08.17-4.71-.73-.76-1.38-1.6-2.15-2.31-6.8-6.35-13.62-12.69-20.45-19.01-5-4.63-5.74-6.38-2.12-12.19,6.96-11.14,14.49-21.92,21.8-32.84C138.66,4.53,140.16,2.32,141.75,0h-10.75c.41.06.91.13,1.58.21-5.66,6.93-10.86,13.44-16.26,19.78-.7.83-2.39,1.02-3.65,1.12-1.31.1-2.67-.25-3.99-.46-4.66-.71-9.32-1.44-14.27-2.21,4.87-4.61,9.77-7.67,16.32-6.47,1.02.19,2.11.04,3.17.03,3.72-.01,6.15-2.05,7.13-6.18-1.08-.05-2.11-.15-3.14-.13-6.81.17-13.62.42-20.43.49-.93,0-2.47-.62-2.69-1.29C94.05,2.64,95.54.45,97.73,0h-13.2c-.31,1.29-.59,2.53-1,3.72-2.26,6.64-4.52,13.28-6.95,19.85-.84,2.27-.36,3.04,2.04,3.37,10.08,1.4,20.13,2.97,30.2,4.48.56.08,1.1.23,2.07.44-5.46,8.57-10.79,16.91-16.41,25.72,9.07,5.95,17.9,11.75,27.12,17.8-2.83,1.81-5.28,3.44-7.79,4.96-5.09,3.09-10.21,6.13-15.33,9.18-3.33,1.98-3.37,1.99-1.36,5.18,3.99,6.34,8.04,12.64,12.04,18.98.7,1.11,1.26,2.29,2.23,4.07-12.07,1.52-23.6,2.98-35.28,4.45,3.31,10.43,6.51,20.53,9.94,31.37-3.76-.7-6.88-1.4-10.03-1.83-6.75-.93-13.5-1.86-20.27-2.52-4.19-.41-4.65.37-5.01,4.59-.75,8.79-1.68,17.56-2.55,26.34-.06.65-.26,1.28-.48,2.34-9.93-5.72-19.64-11.32-29.82-17.19-2.26,4.51-4.17,8.34-6.09,12.16-3.57,7.12-7.16,14.23-10.71,21.36-.22.45-.46.92-.65,1.4v22.25c.18.23.44.53.81.92,1.03-1.34,1.96-2.78,3.12-4.01,6.97-7.41,14.04-14.73,20.98-22.16,1.47-1.57,2.74-1.67,4.51-.64,10.88,6.31,21.81,12.54,32.7,18.83,7.32,4.23,14.59,8.53,21.9,12.78.79.46,1.68.76,3,1.33.08-1.56.18-2.66.18-3.76.01-17.2,0-34.4.01-51.6,0-7.71.07-7.76,7.61-7.76,23.35,0,46.7,0,70.06,0,4.13,0,4.2-.08,4.21-4.19,0-13.26,0-26.52,0-39.78,0-.77.02-1.54-.08-2.3-.15-1.23-.98-2.83-.48-3.61,1.25-1.95,3.08-3.52,4.67-5.24.26.1.51.21.77.31.09,1.07.28,2.15.24,3.22-.12,3.54-.46,7.08-.47,10.63-.04,28.82-.02,57.65-.03,86.47,0,4.47-.7,5.27-4.43,4.99-.06-1.08-.19-2.2-.19-3.32-.01-12.87,0-25.75-.01-38.62,0-3.76-.17-3.94-3.88-3.94-22.97,0-45.94,0-68.9,0-3.71,0-3.89.18-3.89,3.93,0,18.74,0,37.47,0,56.21q0,4.42-4.55,4.43c-9.8,0-19.6,0-29.41,0-1.11,0-2.22-.09-3.68-.16,1.21-2.91,2.79-4.49,5.68-4.47,4.9.03,9.8,0,14.7,0,1.02,0,2.05,0,3.07,0,.09-.25.19-.5.28-.75-.7-.49-1.37-1.04-2.11-1.47-14.46-8.37-28.95-16.7-43.4-25.09-5.18-3.01-5.8-2.89-9.87,1.49-5.56,5.97-11.26,11.81-16.86,17.74-1.08,1.14-1.99,2.45-3.48,4.3,2.01,0,3.25.26,4.33-.05,2.71-.79,3.36.39,3.49,2.84.26,4.75-1.6,8.66-4.58,12.07-1.86,2.13-4.68,3.56-6,6.05v9.47c3.13-3.26,6.2-6.49,9.31-9.66,9.97-10.14,19.92-20.3,29.99-30.33,2.84-2.83,3.86,1.11,6.77,1.87-15.7,15.95-30.86,31.36-46.07,46.8v8.29c.42-.26.84-.64,1.29-1.1,14.62-14.86,29.27-29.69,43.92-44.53.68-.68,1.36-1.36,2.04-2.04q3.77-3.75,9.68-2.29c-1.55,1.81-2.83,3.52-4.33,5.02-15.39,15.45-30.83,30.86-46.23,46.31-2.11,2.11-4.13,4.33-6.35,6.69v7.96c.48-.21.97-.62,1.53-1.19,14.79-15.07,29.67-30.04,44.44-45.13,1.81-1.85,4.29-2.89,6.88-2.88,24.31.09,48.63.14,72.94,0,7.55-.04,15.1-.68,22.82-1.06-5.04,2.94-10.38,4.91-16.16,5.1-10.84.37-21.69.55-32.54.6-15.95.07-31.9-.08-47.85,0-1.17,0-2.62.72-3.47,1.57-12.73,12.8-25.38,25.66-38.03,38.54-3.3,3.36-6.55,6.76-9.69,10.26-.36.4-.65.87-.86,1.36v17c.43.74,1.22,1.1,2.63.93.57-.07,1.22.53,1.84.82-.36.63-.58,1.66-1.09,1.84-1.83.61-2.84,1.52-3.38,2.58v.44c.03-.08.05-.18.09-.26l-.09,10.39c.43.03,1.86-1.25,2.39-1.76,2.28-2.19,4.43-4.51,6.64-6.77,11.3-11.51,22.61-23.01,33.92-34.51.4-.41.78-1.02,1.26-1.14.81-.21,1.7-.1,2.56-.12-.07.77.16,1.78-.25,2.26-2.77,3.31-5.57,6.6-8.55,9.71-7.31,7.63-14.7,15.18-22.1,22.71-4.79,4.88-11.13,9.61-15.88,14.53v12.13c.79.18,4.31.63,5.62.82,1.08.16,2,1.37,2.99,2.1-1.02.79-1.97,2.12-3.09,2.29ZM23.37,225c-.12,1.11-2.23,2.8-3.44,2.79-1.77,0-1.66-1.79-1.11-3.33.34-.96.12-2.12.48-3.07.48-1.24,1.28-2.36,1.94-3.53.38.1.76.19,1.14.29.39,2.29,1.23,4.63.99,6.85ZM32.53,212.99c-.38,1.46-.54,3.05-1.29,4.3-.35.59-2.4.98-2.69.63-.88-1.06-1.3-2.51-1.85-3.83-.1-.24-.01-.56-.01-.85-.24-.15-.48-.29-.72-.44.95-1.53,1.69-4.11,2.91-4.37,2.42-.51,2.8,2.22,3.54,4.02.07.17.17.39.12.55ZM81.42,192.67c-.05,3.18-.53,6.35-.84,9.72-.86-.29-1.35-.37-1.75-.6-6.02-3.4-12.07-6.75-17.99-10.31-.94-.56-1.75-2.14-1.77-3.27-.16-6.82-.09-13.64-.06-20.46,0-.61.27-1.23.53-2.31,3.58,2.68,6.93,5.03,10.06,7.65.64.54.83,2.19.55,3.13-.71,2.38-1.89,4.61-2.71,6.96-.31.89-.58,2.45-.14,2.83,2.59,2.19,5.4,4.11,8.45,6.35.27-1.09.47-1.53.48-1.97.02-6.44.09-12.87-.04-19.31-.06-3-.86-5.82-3.02-8.19-1.24-1.36-2.08-3.08-3.11-4.64.3-.28.6-.57.9-.85,3.17,2.43,6.43,4.75,9.44,7.36.77.67,1.02,2.25,1.03,3.42.08,8.16.12,16.33,0,24.49ZM81.83,218.23c-1.42-.73-2.79-1.36-4.08-2.12-14.3-8.44-28.75-16.64-42.79-25.49-4.78-3.02-8.11-3.49-12.45.42-2.81,2.53-6.33,4.62-11.09,4.7.62-.81.8-1.16,1.07-1.39,4.83-4.09,9.61-8.23,14.56-12.18.64-.51,2.34-.37,3.15.13,5.41,3.28,10.65,6.85,16.07,10.11,11.51,6.94,23.08,13.77,34.65,20.6,2.25,1.33,2.41,2.9.91,5.22ZM95.31,144.02c-.05-.5,1.4-1.62,2.18-1.64,5.76-.14,11.52-.06,17.28-.09.99,0,1.97-.18,3.04-.29-.29-3.03-1.63-4.36-4.34-4.31-2.5.05-5.01.15-7.48-.06-1.47-.13-3.12-.5-4.27-1.34-2.55-1.84-4.92-3.97-7.21-6.14-.96-.91-1.55-2.21-2.43-3.52.86-.23,1.22-.44,1.58-.41,6.6.39,13.2.75,19.78,1.28.9.07,1.96.86,2.56,1.62,3.08,3.91,5.99,7.96,9.06,11.88,1.81,2.31,3.8,4.48,5.82,6.85-.69.44-.84.63-1,.63-10.85.05-21.69.18-32.54.06-3.03-.03-1.88-2.86-2.03-4.52ZM136.98,102.8c.16-.28.31-.56.47-.83,2.01.26,4.02.72,6.03.72,1.4,0,3.22-.18,4.15-1.04,8.71-8.1,17.23-16.4,25.89-24.55,1.6-1.51,1.48-2.48-.04-3.94-7.88-7.58-15.71-15.21-23.48-22.89-2.37-2.35-5.07-2.83-8.19-2.3-1.43.24-2.9.23-4.35.33-.11-.25-.22-.5-.33-.76,2.22-2.95,4.5-5.86,6.63-8.87,1.2-1.7,2.14-1.75,3.62-.3,11.48,11.18,23.03,22.28,34.52,33.44,2.73,2.64,2.69,2.89.08,5.51-11.06,11.06-22.12,22.11-33.2,33.14-1.19,1.18-2.51,2.24-3.91,3.47-2.77-3.91-5.33-7.51-7.88-11.11ZM268.08,36c2.87-2.78,4.88-2.76,7.82,0h-7.82ZM285.05,50.01c.12,1.02-1.51,2.26-2.98,4.22-1.51-2-2.96-3.07-3.12-4.32-.25-1.92,1.35-3.45,3.22-3.02,1.2.28,2.74,1.93,2.88,3.11ZM283.58,102.84c-1.2-.03-2.37-1.38-3.55-2.16.01-.44.03-.88.04-1.32,1.05-.66,2.05-1.74,3.17-1.89,1.85-.26,3.32,1,3.02,2.84-.17,1.03-1.77,2.56-2.69,2.53ZM276.02,106.26c1.34-.08,2.77-.22,4,.18.89.29,1.53,1.37,2.29,2.09-.87.41-1.74.82-2.89,1.37-1.29-.64-2.55-1.17-3.65-1.92-.22-.15.12-1.71.25-1.72ZM269.21,115.72c.15-1,1.75-1.78,2.72-2.65.87,1.05,2.19,2.01,2.43,3.2.15.7-1.39,1.76-2.73,3.29-1.17-1.73-2.56-2.9-2.42-3.83ZM225.03,75.04c2.41-3.12,5.35-6.2,7.42-9.77,3.53-6.1,8.16-10.85,14.41-14.04,4.07-2.07,6.74-5.29,8.17-9.59.15-.45.26-.98.57-1.31.68-.74,1.47-1.38,2.21-2.06.47.82,1.22,1.6,1.37,2.48.73,4.35,2.85,7.65,6.72,9.86,1.91,1.09,3.86,2.23,5.48,3.68,7.75,6.94,12.21,15.31,10.02,26-1.73,8.46-6.53,14.85-14.31,18.79-4.53,2.29-7.23,5.83-8.18,10.79-.24,1.25-.75,2.46-1.31,4.27-.78-.92-1.07-1.18-1.25-1.5-.37-.67-.81-1.34-1-2.07-1.49-5.69-5.43-9.26-10.16-12.34-2.79-1.82-5.71-3.76-7.77-6.3-4.48-5.52-8.46-11.45-12.4-16.9ZM254.89,25.78c1.74-1.59,3.87-2.8,5.94-3.97.55-.31,1.53.14,2.31.24-.27.66-.37,1.5-.84,1.95-6.27,6.05-12.61,12.04-18.9,18.07-6.85,6.56-13.76,13.05-20.46,19.75-2.79,2.79-3.03,3.01-6.74-1.04.96-.54,2.13-.95,2.97-1.71,3.34-3.02,6.56-6.17,9.85-9.24,8.61-8.04,17.19-16.11,25.88-24.06ZM219.02,162c-.05-2.22,1.73-4.1,3.87-4.07,2.32.03,4.37,1.97,4.32,4.08-.05,2.04-2.02,3.9-4.14,3.92-2.21.02-3.99-1.71-4.05-3.92ZM192.03,139.15c1.08-1.28,2.41-2.36,4.13-4-1.49,4.3-1.17,5.65,1.74,8.53,1.02,1.01,2.16,1.89,3.21,2.87,3.58,3.33,7.19,6.62,10.66,10.06.68.67.73,1.97,1.07,2.98-1.1-.22-2.5-.09-3.26-.73-5.79-4.87-11.46-9.88-17.15-14.87-1.65-1.45-1.8-3.18-.41-4.83ZM190.02,118.43c.15-2.79,2.81-5.38,5.46-5.31,3.19.08,5.47,2.46,5.32,5.56-.15,3.15-2.59,5.63-5.47,5.54-2.74-.09-5.47-3.05-5.32-5.79ZM190.35,193.06c.4-1.02,1.62-1.73,2.5-2.57.71.76,2.06,1.6,1.98,2.26-.12,1.02-1.23,1.92-2.43,3.59-1.06-1.63-2.26-2.73-2.04-3.28ZM180.64,116.65c0-3.36,0-6.72.02-10.08.01-2.74,1.6-4.04,4.34-4.76.1,1.07.26,1.9.26,2.73.01,27.37.02,54.73,0,82.1,0,3.25-.25,6.49-.27,9.74-.01,2.78.35,5.56.18,8.33-.14,2.33-1.05,4.44-4.2,5.58-.13-1.75-.31-3.04-.31-4.33-.02-29.77-.01-59.53-.01-89.3ZM109.58,236.35c-2.5-.02-3.38-.91-3.36-3.38.08-11.32.03-22.65.06-33.98,0-.89.25-1.79.42-2.93,8.94,3.52,16.17,8.91,23.03,14.98-5.81-10.85-14.57-18.89-24.35-26.75.91-.26,1.25-.44,1.6-.44,16.01-.02,32.02-.01,48.03-.04,2.3,0,2.6,1.35,2.62,3.2.15,15.25.36,30.5.52,45.75.04,4.04-.07,4.15-4.26,4.11-14.77-.16-29.54-.4-44.32-.5ZM88.54,286.47c.18-1.02,1.32-2.44,2.25-2.64,2.22-.47,3.94,1.73,3.94,5.68-.43.43-1.27,1.88-2.47,2.32-1.39.51-4.1-3.22-3.72-5.36ZM12.48,309.17c-1.34,1.02-2.56,2.43-4.07,2.89-.67.2-2.89-1.85-2.73-2.28.49-1.36,1.76-2.44,3.22-4.21,1.61,1.63,2.59,2.61,3.57,3.6ZM15.6,296.56c2.52.5,5.69,2.9,4.98,4.06-.72,1.19-2.66,2.43-3.93,2.3-1.73-.17-3.33-1.62-4.98-2.51,1.31-1.28,2.62-2.56,3.93-3.84ZM26.24,291.77c-.22,1.29-1.46,2.41-2.74,4.34-2.16-1.92-3.97-3.01-4.98-4.61-.72-1.14,2.21-3.76,3.96-3.78,1.63-.02,4.06,2.24,3.76,4.04ZM31.33,281.24c.81.39,1.58,1.06,2.07,1.82.16.26-.55,1.08-1.14,2.13-1.07-1.06-1.87-1.66-2.33-2.46-.11-.19,1.19-1.59,1.39-1.5ZM60.99,256.44c-2.71.59-3.65,2.85-5.16,4.67-3.34,4.01-6.43,8.4-12.41,9.55.48,1.28.99,2.48,1.38,3.71.83,2.61-.7,4.98-3.1,4.37-3.07-.78-5.98-2.21-9.33-3.51.84-.99,1.21-1.52,1.67-1.95,6.39-5.91,12.91-11.69,19.12-17.78,2.18-2.14,4.44-2.85,7.22-2.45.79.11,1.5.83,2.25,1.27-.54.74-.97,1.98-1.63,2.12ZM66.22,301.17c1.68,1.76,3.39,3.53,5.06,5.33,1.89,2.03,3.92,3.98,5.53,6.22.53.74-.07,2.28-.16,3.46-.95-.25-2.16-.21-2.79-.79-2.88-2.68-5.6-5.54-8.38-8.33-2.62-2.63-2.56-3.25.73-5.89ZM59.57,290.46c-5.08-.01-9.88-5.18-9.76-10.49.11-4.83,5.12-8.95,10.9-8.95,5.1,0,9.29,4.26,9.24,9.42-.04,4.95-5.31,10.03-10.38,10.02ZM46.75,301.67c1.31-1.12,2.62-2.24,4.49-3.84.94,1.51,2.21,2.79,1.96,3.28-.67,1.29-1.89,2.91-3.1,3.1-.96.15-2.22-1.62-3.34-2.54ZM36.86,312.83c.08-2.97,1.63-4.53,4.43-4.49,2.84.04,4.47,1.6,4.39,4.19-.08,2.48-2.07,4.44-4.43,4.36-2.38-.08-4.44-1.99-4.39-4.06ZM28.11,322.91c.01-.83,1.45-2.13,2.43-2.33,1.79-.36,3.06.94,2.8,2.7-.15.99-1.4,1.82-2.8,3.48-1.2-1.78-2.44-2.82-2.43-3.85ZM16.9,332.04c.03-1.61.81-3.13,3-3.41,1.79-.22,3.84,1.83,3.85,3.83.01,2.17-.95,3.71-3.25,3.95-2,.21-3.53-1.55-3.6-4.37ZM11.8,345.76c-2.18.06-4.13-2-4.11-4.79.06-1.71,1.25-2.92,3.37-3.05,1.88-.11,4.46,2.39,4.53,4.19.07,1.7-1.9,3.6-3.79,3.65Z" style="fill: #f7941d; stroke-width: 0px;"/>
</svg>