<?xml version="1.0" encoding="UTF-8"?><svg id="a" xmlns="http://www.w3.org/2000/svg" width="19.93mm" height="128.52mm" viewBox="0 0 56.51 364.32"><path d="M56.51,186.24v3.6l-2.38,1.68h2.38v2.16c-.48.31-1.08.1-1.55.48-.87.71-3.08,4.06-3.89,5.2-14.13,19.73-22.65,48.58-17.86,72.84,1.3,6.58,4.94,17.97,13.04,17.95.36-.33-2.79-4.74-3.14-5.36-7.74-13.86-5.7-38.35-2.51-53.49,2.44-11.55,8.05-23.86,15.18-33.22.22-.28.21-.7.72-.58v1.2c-5.73,7.05-9.59,15.84-12.22,24.54-5.15,16.97-8.55,49,1.87,64.24,2.08,3.04,3.92,4.16,7.73,4.34-6.47-8.09-9.47-18.41-10.25-28.68-1.46-19.15,2.73-39.51,12.2-56.12.18-.32.08-.77.67-.63v1.68c-5.91,10.98-9.61,23.21-10.94,35.67-1.2,11.3-.93,22.94,2.29,33.87,1.58,5.37,3.99,11.11,8.65,14.46v3.6c-11.62-1.71-22.7-6.18-34.45-7.2-7.37-.64-14.73.12-22.05.96v-2.16l4.53-.48c-.7-4.89-1.5-9.83-1.91-14.76-1.26-15.16,1.41-30.04,2.16-45.11.01-.28.17-1.33-.25-1.33-.44,2.93-1.42,5.75-2.03,8.64-.84,3.93-2.14,9.57-2.5,13.44v-7.44c2.32-9.63,3.3-20.09,9.1-28.4,6.62-9.48,18.6-12.8,29.05-16.12,0-.2-.86-.34-1.07-.36-6.78-.53-22.83,3.17-29.39,5.7-4.21,1.62-5.56,3.61-7.68,7.51v-9.6c3.81-.6,7.92-1.07,11.64-2.08.29-.08,3.01-.77,2.66-1.27-4.67-3.15-9.83-1.22-14.31,1.2v-3.12c4.23-.29,8.91-2.01,13.12-.85,1.91.52,2.4,1.78,3.93,2.77l6.55-1.56c-3.89-2.67-10.58-5.19-15.32-4.38-1.11.19-1.84,1.06-2.85,1.45-1.6.62-3.74.85-5.43,1.13v-3.12c6.8-.03,13.39-1.97,20.02.6,2.24.87,5.74,3.72,7.75,3.96,2.52.3,5.76-.56,8.35-.49,4.77.12,6.99,2.16,11.8-.59.23-.13.61,0,.47-.47-.09-.28-4.79-1.55-5.48-1.69-5.4-1.12-11.2-1.15-16.7-.83l3.21-.49h8.95s-2.19-.79-2.19-.79c-11.91-2.32-24.2-1.51-36.2-3.28v-1.44c2.94.6,5.95,1.16,8.94,1.44,8.59.81,17.38.18,25.92,1.51,5.32.83,9.9,2.77,15.46,1.74,2.12-.39,4.18-1.31,6.19-2.05ZM51.97,189.6h-2.74s-1.79.47-1.79.47c1.27.36,2.3.51,3.57.12.25-.08.96-.27.96-.59ZM53.17,194.4c-7.97-.64-12.52,9.27-15.3,15.44-6.42,14.22-9.06,28.17-9.72,43.73-.34,8.02-1.02,16.96.02,24.92.46,3.52,1.33,8.47,5.39,9.21,1.39.25,2.95.22,4.35.42-8.71-14.37-8.58-32.25-5.89-48.41.88-5.32,2.14-10.57,4.04-15.61,4.03-10.69,10.21-20.68,17.11-29.7ZM44.35,197.04c-.31-.24-6.8,1.84-7.39,2.28-.74.55-2.59,3.97-3.15,4.99-9.27,16.86-13.41,42.83-11.64,61.96.66,7.11,2.54,14.74,6.79,20.52l-1.48-6.91c-1.66-17.44-1.21-35.7,3.34-52.66,2.87-10.7,6.91-21.26,13.52-30.19ZM35.76,199.68c-1.9.78-5.05.68-6.24,2.47-.91,1.37-2.15,4.18-2.86,5.76-6.04,13.6-8.04,30.42-9.7,45.19-.93,8.26-2.38,20.25-.39,28.17.18.72,1.21,4,1.54,4.39.71.86,6.49,0,7.88.88-1.07-2.96-2.27-5.7-3.08-8.78-5.07-19.36-2.27-48.21,5.9-66.5,1.91-4.28,4.4-7.72,6.96-11.6ZM17.17,285.84c-5.15-14.45-1.5-30.21.24-45,.56-4.78.61-9.53,1.5-14.33,1.6-8.64,5.61-16.44,8.99-24.43-1.57.69-3.59,1.12-5.06,1.98-2.55,1.49-6.86,9.44-7.99,12.35-3.57,9.14-2.25,16.71-2.68,26.1-.39,8.49-2.23,16.95-2.62,25.44-.27,5.95-.12,12.3,1.22,18.09l6.41-.21ZM18.83,206.64c-.37-.34-3.38,1.61-3.89,1.96-10.46,7.23-9.07,19.3-9.7,30.55-.24,4.25-1.3,8.49-1.66,12.72-.5,5.88-.13,12.13.48,18,.56,5.45,1.61,10.86,2.37,16.28.16.36,2.28.51,2.73.19.54-.39-.74-4.74-.81-5.67-.85-10.48,1.68-20.81,2.14-31.2.61-13.68-1.81-23.26,4.64-36.37l3.71-6.47Z"/><path d="M3.34,0c-.04,10.15,1.44,20.23,3.14,30.19l2.59.18c.82-.58-.76-4.52-.73-5.54-.41-8.34.68-16.57,1.43-24.84h.95l-1.2,12.11c.02,5.95-.29,11.93,1.18,17.75.51.75,5.45.12,6.46-.1-3.52-9.47-2.94-19.89-1.67-29.76h1.19c-.21,2.43-.55,4.89-.71,7.32-.39,5.86-.81,12.36.65,18.06.19.73,1.21,4.07,1.63,4.36l7.61.74c.58-.03-1.34-3.37-1.43-3.6-1.19-3.07-2.07-7.02-2.67-10.28-1.01-5.55-1.24-10.99-1.51-16.6h1.67c-.2,8.4.47,17.34,3.77,25.12.78,1.85,1.89,4.27,3.38,5.6-3.17-9.97-2.28-20.39-2.38-30.72h1.19l-.25,16.45c.43,3.74.49,12.73,4.22,14.71,1.04.55,4.35.91,5.68,1,.37.03.41.03.36-.36-6-9.32-7.76-20.83-7.39-31.8h1.67c-.32,8.46.36,17.11,3.7,24.95,1.93,4.51,4.91,9,10.24,9.37.34-.31-.08-.9-.23-1.21-.93-1.93-2.56-3.66-3.51-5.59-4-8.1-4.55-18.63-4.72-27.52h1.67c0,6.1.28,12.27,1.55,18.24,1.15,5.4,5.23,18.29,12.4,17.53.26-.03.52.05.36-.36-.23-.6-1.75-2.24-2.24-3.02-2.61-4.14-4.55-8.61-5.79-13.37-1.63-6.23-2.06-12.58-2.21-19.01h1.43c.36,9.07,1.32,18.66,4.97,27.04,1.49,3.43,3.56,6.87,6.72,8.96v3.6c-2.09.04-4.38-.6-6.44-1.08-8.13-1.87-16.17-4.52-24.47-5.61s-17.18-.68-25.6.69v-2.16l4.53-.72c-.87-5.84-1.77-11.74-2.14-17.64-.07-1.04.05-2.09,0-3.13-.03-.64-.3-1.25-.26-1.9l.25-8.05h.95Z"/><path d="M56.51,137.28v1.68c-9.01-3.4-18.57-7.65-28.13-9.25-7.85-1.31-17.18-.33-23.61,4.68,3.31-.41,6.57-1.67,9.9-1.91,3.05-.23,6.34.16,9.42,0v.72c-5.64-.18-11.22.75-16.74,1.75l-3.53,1.01c4.78,1.5,9.62-.79,14.43-1.08,5.62-.34,13.58.9,19,2.47,3.46,1,9.43,4.23,12.5,4.47,2.11.17,4.58-1.34,6.76-.7v1.44l-4.29.12,4.29,2.28v2.64c-2.42-1-5.13-2.78-7.77-3.09-3.37-.4-6.85.34-10.11,1.05,0,.53,7.47.75,8.22.84,3.28.42,6.7,1.94,9.66,3.36v.96c-1.35-.33-2.53-1.27-3.82-1.8-4.48-1.85-10.78-2.63-15.49-1.45-2.01.51-5.3,2.93-7.01,2.76-.93-.09-4.79-2.25-6.1-2.75-8.36-3.2-16.89-3.52-24.08,2.52v-2.16c5.25-3.54,11.69-4.94,17.97-4.05,4.71.67,8.32,2.89,12.49,4.97,1.11.17,3.23-2.11,4.36-2.48-1.05-.24-1.86.68-2.92.56-2.07-.24-6.39-3.68-9.43-4.45-6.84-1.73-15.75-.9-22.46,1.13v-2.16c10.63-3.31,22.34-2.29,32.06,3.14l15.62-1.82c-9.42-2.37-20.04-7.09-29.92-6.12-1.4.14-2.83.84-4.28.97-4.39.37-9.05-.55-13.48-.25v-3.36c4.72-1.82,9.39-4.62,14.31-5.88,6.87-1.76,16.82.72,23.65,2.59,6.29,1.71,12.62,3.95,18.55,6.65Z"/><path d="M56.51,161.76v1.68c-2.96-2.39-5.88-5.02-9.47-6.42-6.74-2.64-13.68-.38-20.7-.77s-13.76-3.11-19.43,2.98c-4.43,4.76-6.31,11.01.17,14.96,6.92,4.21,16.6,1.9,24.27,2.45,5.26.37,7.38,3.53,13.23,2.04,5.15-1.32,7.97-5.36,3.21-9.47-4.31-3.73-17.35-4.74-22.85-4.06-2.58.32-3.48,2.77-5.62,3.23-4.35.93-7.56-1.31-4.98-5.73,1.21-2.08,3.14-2.63,5.39-2.98,6.64-1.03,23.17.09,29.37,2.7,3.27,1.38,5.52,3.64,7.4,6.59v1.2l-2.14-2.77c-4.98-5.78-18.08-7.24-25.39-7.56-4.84-.21-13.94-.76-14.63,5.96-.2,2.01,3.72,1.94,5.09,1.5,1.29-.41,1.66-1.56,2.64-2.14,4.13-2.42,20.03-.38,24.32,2.08,5.43,3.12,6.39,9.58-.03,12.04s-10.18-1.28-15.98-1.68c-8.98-.62-34.58,2.77-27.41-14.39,5.69-13.62,19.5-6.97,30.51-7.69,2.16-.14,4.53-.85,6.67-.97,6.13-.34,11.85,3.39,16.34,7.21Z"/><path d="M56.51,316.8v4.32c-2.97-.97-5.71-2.51-8.59-3.71-6.63-2.76-13.84-5.3-20.93-6.53-9.02-1.56-17.97-1.29-26.99.16v-2.4c7.72-1.44,15.39-1.87,23.21-.93,11.51,1.39,22.3,5.71,33.29,9.09Z"/><path d="M56.51,60.96v4.08c-.49.08-.85-.09-1.28-.27-5.13-2.13-9.96-4.63-15.28-6.46-12.93-4.42-26.46-5.98-39.94-3.12v-2.64c8.77-1.51,17.25-1.81,26.07-.44,10.47,1.63,20.44,5.54,30.44,8.84Z"/><path d="M56.51,215.04v5.52c-.52.91-.9,1.95-1.26,2.93-2.57,7.18-4.02,14.05-4.7,21.67-1.08,12.16-.4,24.49,5.96,35.16v4.08c-.56.04-1-1.09-1.23-1.52-10.74-19.72-8.53-47.29.56-67.22.16-.36.13-.75.68-.63Z"/><path d="M56.51,108v2.16c-3.12-1.48-6.06-3.35-9.21-4.77-14.62-6.55-31.6-8.17-47.29-5.07v-1.92c15.93-3.56,32.94-1.63,47.77,5.07,2.99,1.35,5.79,3.1,8.74,4.53Z"/><path d="M56.51,364.08v.24h-3.58c-15.79-8.95-35.18-11.65-52.93-7.92v-2.16c19.4-4.06,39.64-.42,56.51,9.84Z"/><path d="M56.51,50.4v1.68c-18.76-3.7-36.8-14.28-56.51-10.56v-1.68c7.44-1.28,15.07-.77,22.46.56,11.69,2.1,22.54,7.23,34.05,10Z"/><path d="M56.51,306.24v1.92c-12.37-2.44-24.05-7.96-36.43-10.24-6.54-1.21-13.53-1.67-20.07-.32v-1.92c7.7-.91,15.32-.61,22.93.8,11.52,2.13,22.15,7.33,33.57,9.76Z"/><path d="M56.51,154.08v2.16c-3.44-2.04-6.78-4.27-10.88-4.77-5.56-.69-10.46,1.71-15.72,1.42-7.15-.39-12.62-4.64-20.02-1.94-4.15,1.52-7.47,4.54-9.89,8.17v-2.64c4.08-4.69,9.53-7.84,15.84-8.17,5.18-.27,8.08,1.56,12.71,2.35,3.74.64,7.42-.45,11.15-.66,6.41-.36,11.4.51,16.81,4.08Z"/><path d="M56.51,131.04v2.16c-2.56-1.15-4.93-2.67-7.47-3.88-15.09-7.18-33.41-10.72-49.04-3.08v-2.4c12.78-4.99,27.5-3.7,40.42.24,5.6,1.71,11.02,4.05,16.09,6.96Z"/><path d="M56.51,86.88v1.68c-17.42-9.09-37.42-11.2-56.51-6.48v-1.68c18.99-4.8,39.14-2.44,56.51,6.48Z"/><path d="M56.51,342.96v1.44c-3.07-1.09-5.95-2.63-9-3.78-15.28-5.77-31.68-6.51-47.51-2.46v-1.92c11.54-2.47,23.42-3.06,35.05-.84,7.48,1.43,14.69,4.15,21.45,7.56Z"/><path d="M56.51,53.28v1.68c-18.33-5.59-37.05-11.22-56.51-9.36v-.96c7.84-1.43,16.3-.69,24.16.52,10.87,1.68,21.86,4.9,32.35,8.12Z"/><path d="M56.51,299.52v1.68c-18.78-2.5-37.29-11.11-56.51-7.2v-.96c10.13-1.82,20.46-1.02,30.52.83,8.71,1.61,17.24,4.15,25.98,5.65Z"/><path d="M56.51,43.44v1.68c-18.8-2.32-37.26-11.03-56.51-7.2v-.96c10.07-1.72,20.07-.97,30.05.83,8.87,1.61,17.54,4.26,26.46,5.65Z"/><path d="M56.51,309.36v1.68c-3.81-1.14-7.56-2.46-11.39-3.53-11.31-3.17-22.92-5.93-34.73-6.32-3.48-.11-6.94.11-10.38.49v-1.2c13.17-1.71,26.26.7,39.01,3.81,5.88,1.43,11.81,3.03,17.49,5.07Z"/><path d="M56.51,80.64v1.68c-7.11-3.66-14.31-7.26-22.07-9.34-11.24-3.01-23.23-2.51-34.43.46v-1.2c8.95-2.35,18.53-3.36,27.74-2.13,10.11,1.36,19.91,5.65,28.76,10.53Z"/><path d="M56.51,336.72v1.44c-2.73-1-5.28-2.64-7.95-3.88-6.58-3.06-14.32-5.94-21.53-6.88-9.05-1.19-18.19-.09-27.03,1.89v-1.2c9.22-2.07,18.79-3.23,28.21-1.88,9.88,1.42,19.69,5.58,28.29,10.52Z"/><path d="M56.51,183.12v1.2c-5.43,2.3-11.52,2.52-17.22,1.13-3.01-.74-6-2.08-9.13-2.33-8.44-.67-21.08,1.53-28.56-2.93-.57-.34-1.06-.77-1.6-1.15v-1.92c2.54,2.11,6.03,3.36,9.25,4.01,7.27,1.46,14.55.02,21.86.79,6.79.72,13.02,4.42,19.92,3.01,1.93-.4,3.57-1.41,5.48-1.81Z"/><path d="M56.51,322.8v1.92c-3.12-1.05-6.08-2.5-9.17-3.6-15.02-5.38-31.52-7.69-47.33-4.8v-.96c19.04-3.78,38.79.28,56.51,7.44Z"/><path d="M56.51,66.96v1.68c-2.5-.63-4.89-1.9-7.33-2.82-15.64-5.89-32.56-8.5-49.17-5.58v-.96c19.04-3.5,38.9.14,56.51,7.68Z"/><path d="M56.51,356.4v1.44c-.45.03-.81-.15-1.2-.35-2.02-1.04-3.94-2.14-6.03-3.05-15.27-6.68-32.93-8.85-49.28-5.24v-1.2c11.47-2.4,23.39-2.17,34.81.36,7.57,1.68,14.83,4.5,21.69,8.04Z"/><path d="M56.51,100.56v1.44c-1.96-.9-3.83-2.02-5.8-2.92-15.7-7.19-33.74-9.56-50.71-5.96v-1.2c19.09-3.73,39.51-.83,56.51,8.64Z"/><path d="M56.51,123.6v.96l-7.31-3.81c-15.3-7.14-33.22-8.99-49.2-2.91v-1.44c18.69-6.76,39.75-2.7,56.51,7.2Z"/><path d="M56.51,329.76v.96c-17.28-9.03-37.11-13.16-56.51-9.6v-1.2c12.32-2.16,25.04-1.12,37.06,2.18,6.73,1.85,13.26,4.45,19.45,7.66Z"/><path d="M56.51,73.68v.96c-4.23-1.89-8.38-3.95-12.75-5.52-14.05-5.04-28.98-6.6-43.75-4.08v-1.2c19.39-3.12,39.19,1.01,56.51,9.84Z"/><path d="M50.07,0c.35,2.17.26,4.39.51,6.57.72,6.33,2.82,12.17,5.93,17.67v4.08c-.51.11-.52-.28-.71-.59-5.01-7.94-6.73-18.51-7.63-27.73h1.91Z"/><path d="M56.51,115.68v1.44c-6.9-3.9-14.14-7.29-21.93-9-11.45-2.52-23.7-1.65-34.57,2.76v-.72c15.65-5.7,33.74-5.47,48.96,1.47,2.6,1.18,5.05,2.68,7.54,4.05Z"/><path d="M56.51,350.16v1.2c-2.64-.96-5.11-2.5-7.71-3.64-15.22-6.7-32.44-9.14-48.8-5.48v-.48c14.94-3.22,30.59-2.06,44.95,3.12,3.95,1.43,7.92,3.2,11.56,5.28Z"/><path d="M56.51,94.08v1.44c-17.14-9.43-37.16-13.54-56.51-9.36v-.48c19.24-3.98,39.31-.99,56.51,8.4Z"/><path d="M0,220.56c2.59-6.75,5.12-13.4,11.68-17.16,4.46-2.56,10.39-4.43,15.5-4.32-5.55,1.27-14.31,3.78-18.49,7.79-4.52,4.33-6.59,12.04-8.69,17.77v-4.08Z"/><path d="M56.51,248.4c-.39.25-.24.91-.24,1.32-.02,1.76-.02,3.53,0,5.29,0,.41-.15,1.07.24,1.32v10.08c-.51-.15-.44-.63-.53-1.03-1.76-8.16-1.32-18.17-.16-26.41.09-.62.08-1.76.68-2.07v11.52Z"/><path d="M39.1,364.32h-4.29c-8.48-2.21-17.74-2.28-26.23,0h-2.15c.28-.35.71-.36,1.1-.45,9.55-2.21,20.95-2.43,30.47-.01.39.1.82.13,1.09.46Z"/><path d="M56.51,177.6c-2.58,4.82-7.41,6.93-12.76,6.49-.62-.05-1.81-.12-1.78-.97h4.17c1.35,0,4.59-1.32,5.82-2.06,2.08-1.24,3.14-2.78,4.55-4.66v1.2Z"/><path d="M54.84,0h1.67v10.56c-.56-.16-.42-.65-.5-1.06-.61-3.14-.79-6.33-1.17-9.5Z"/><path d="M28.13,168.48c.09-.43.47-.45.82-.49,3.38-.37,10.19-.6,13.08,1.25,3.32,2.12,2.72,6.89-1.63,6.7-2.64-.12-2.99-2.37-4.81-3.58-5.54-3.67-17.86,3.57-25.1-1.62-.6-.43-2.32-2.11-2.16-2.86l.48-.25c5.83,9.68,20.36-.59,27.5,4.24,1.62,1.1,1.71,3,4.09,3.09,3.28.14,3.94-3.15,1.48-4.86-3.23-2.25-9.94-1.38-13.76-1.63Z"/></svg>