<?xml version="1.0" encoding="UTF-8"?><svg id="a" xmlns="http://www.w3.org/2000/svg" width="20.07mm" height="128.52mm" viewBox="0 0 56.88 364.32"><path d="M56.88,95.04v5.04c-3.1.33-6.22.57-9.12,1.8.02.54,8.23-2.31,9.12-1.08v5.76c-5.96-.04-12.71,2.14-16.42,6.98-5.05,6.59-5.99,16.77-5.66,24.82.01.29-.18.89.24.84.57-9.65.59-22.07,9.28-28.28,3.45-2.47,8.29-4.38,12.56-3.64v7.44c-1.68,2.15-3.04.61-5.15.47-6.09-.4-11.06,8.24-11.42,13.56-.03.38-.18,1.65.25,1.81-.14-4.7,4.49-14.17,9.5-14.86.95-.13,4.67.08,4.37,1.5-.06.31-3.67,3.89-4.27,4.6-3.26,3.88-6.15,8.1-8.53,12.59h-.48s-.35-.72-.35-.72c.68,3.44-1.56,6.44-2.53,9.59-1.21,3.93-.92,8.17-1.08,12.24l-4.5-5.93-.06-1.27c-.85.52-.97-.28-1.39-.89-5.78-8.44-8.21-21.5-4.79-31.33,2.19-6.3,8.09-12.35,13.64-15.88,4.86-3.08,10.94-5.51,16.78-5.18ZM37.44,107.04c-.17-.16-1.92,1.34-2.16,1.55-4.91,4.37-8.82,11.22-9.11,17.88l1.91-6.36c1.65-5.55,5.79-8.9,9.36-13.07ZM33.6,144.72l.48-4.08c-.56.33-.67,1.88-.71,2.52-.02.33-.21,1.48.23,1.56Z"/><path d="M0,216.24c5.64-4.02,10.28-9.17,13.17-15.51,4.26-9.37,4.26-19.85,4.11-29.96l-.48-3v4.2s-.48,3.72-.48,3.72c-.69-3.77-2.87-7.24-2.65-11.17.11-2.02,1.29-4.42,1.37-6.02.03-.59-.39-1.37-.41-2.12-.12-3.63.1-7.29.01-10.93.37.11.61.97.73,1.31,1.07,3.25.16,6.66,0,9.97l1.2-4.44v-3.6c0-.06-.49-.47-.12-.6,1.27.58,1.77,2.22,2.39,3.37l1.09,5.75v-3.6c.52-.04.9.5,1.19.85,3.26,3.8,2.66,6.36,2.89,11.03.53,10.58,1.08,22.51-2.1,32.71-2.63,8.44-7.67,15.6-13.98,21.65.45.1.57-.25.84-.48,6.53-5.5,11.41-13.08,13.73-21.31,2.48-8.81,2.16-16.63,1.98-25.6-.08-4.12-.14-8.25-.23-12.37.3-.34,1.56,1.26,1.73,1.51,2.18,3.38,1.19,8.64,1.38,12.54.6,12.05,2.57,22.24-1.97,34.01-4.17,10.81-13.83,16.74-24.81,19.11l-.21-.46,6.84-6.12-.36-.12-6.84,5.28v-5.04c5.76-4.71,11.41-9.68,15.01-16.31,4.5-8.3,6.5-19.03,6.11-28.45-.01-.29.18-.89-.24-.84-.36,11.86-2.3,24.46-9.75,34.05-2.06,2.65-4.78,5.35-7.29,7.59-1.16,1.03-2.51,2.19-3.84,3v-3.6ZM18.96,168c.39-2.7.87-5.41.72-8.16l-.93,7.35.21.81ZM17.04,216c-1.45.48-3.02,1.53-4.08,2.64,1.45-.53,2.91-1.62,4.08-2.64Z"/><path d="M45.12,186.24c-.04,5.84.74,9.06,1.41,14.55,1.56,12.87-4.01,23-13.78,30.8-8.64,6.91-20.04,9.78-30.83,11.29-.1-.49.78-.95,1.12-1.16,3.03-1.88,7.02-2,10.4-3.04,9.01-2.75,19.38-10.13,24.19-18.29,7.12-12.07,5.47-27.15,6.05-40.63.41-.09.48.11.68.39,1.14,1.62-.02,4.78.75,6.09.01-1.92,0-3.84,0-5.76,3.63,1.15,2.78,5.57,3.12,8.52.16,1.41.61,2.79.72,4.2.4.06.26-.58.25-.85-.02-.72-.24-1.33-.25-2.03.06-.07.29.12.36.24.72,1.11,2.89,7.94,3.48,9.72,3.84,11.54,5.96,21.09-1.39,31.74-10.53,15.26-34.2,19.22-51.41,20.47v-4.32c16.77-.72,36.91-5.25,47.62-19.22,7.19-9.38,6.13-20.79,2.71-31.47-.08-.25-.06-.73-.41-.67,1.74,7.87,3.65,15.82,1.37,23.81-2.66,9.34-12.91,16.98-21.45,20.79-9.49,4.25-19.57,5.57-29.85,6.51v-3.84c6.53-1.82,13.11-2.29,19.56-4.56,13.3-4.66,26.8-16.39,27.73-31.31.46-7.36-1.52-14.55-1.92-21.83l-.25-.14Z"/><path d="M0,45.84c.23-.29,2.15-3.68,2.64-3.12-.19,4.34-1.23,8.46-.97,12.85.22,3.78,1.35,7.48,2.17,11.15.43.06.22-.52.18-.78-.39-2.49-1.23-4.87-1.39-7.49-.42-6.73.07-10.02,5.42-14.28,12.52-9.99,28.02-4.6,32.29,10.42l-8.5,3.23c-4.32-6.87-11.02-10.7-19.04-7.22-2.18.95-3.95,2.49-5.84,3.88,1.35-8.73,10.33-11.43,18-9.12-.17-.41-1.14-.61-1.55-.73-4.08-1.15-7.7-.76-11.39,1.35-12.16,6.96-3.1,25.24-1.09,35.37.61,3.08,2.04,9.55-1.81,10.81l-.24-7.32-1.19-5.64c.59,5.01,1.78,10.7-.73,15.36l-.48-.12c-.53-9.09-3.93-17.65-6.48-26.28v-22.32Z"/><path d="M0,301.68c.91-.86,1.29-2.55,2.64-2.88.29.34-.88,7.17-.96,8.28-.32,4.93.65,9.8,1.92,14.52.43.06.22-.52.18-.78-.94-5.93-2.91-12.8,1.38-17.94,10.26-12.3,28.51-9.73,34.49,5.36.26.66,1.08,2.16.27,2.52l-8.08,3.19c-4.1-7.06-11.51-10.98-19.44-7.19l-5.43,3.57c1.42-8.22,9.89-11.19,17.28-9.12-.07-.41-.47-.43-.77-.54-3.11-1.19-7.29-.71-10.26.67-15.88,7.38-1.31,30.34-1.44,42.24-.02,1.89-.72,4.02-2.64,4.68.04-4.44-.26-8.89-1.32-13.2l-.84-2.64c1.14,5.83,2.82,12.67,0,18.24l-.48-.12c-.49-9.09-3.88-17.67-6.48-26.28v-22.56Z"/><path d="M0,228.48c1.88-.81,4.03-.72,5.89-1.19,6.36-1.62,14.32-8.18,17.73-13.71,7.87-12.75,4.97-28.02,4.45-42.09-.08-2.2.08-4.41.01-6.61.55.26.89.83,1.2,1.31,1.5,2.3,1.87,7.93,2.15,10.81.15,1.54.23,3.13.24,4.68l.24-.84-.72-12.12,5.49,5.43c.33.64.47,2.29.52,3.08.43,7.09-.85,19.26-3.43,25.87-.1.25-.07.72-.41.66-.38-2.62-.37-5.37-.48-8.04-.01-.29.18-.89-.24-.84.35,7.84-1.23,15.8-5.57,22.39-2.22,3.37-6.07,7.55-9.48,9.72-3.2,2.04-7.01,3.07-10.39,4.73l8.4-2.28c-4.55,3.73-10.17,5.94-15.6,8.16v-9.12Z"/><path d="M56.88,86.16v2.64c-6.51.17-12.7,1.61-18.4,4.76-24.17,13.37-22.23,43.16-9.54,64.1,6.5,10.73,16.33,18.62,27.94,23.3v3.6c-9.33-3.2-18.02-9.76-24.6-17.04-12.62-13.94-17.86-31.23-15.45-50.01s21.17-32.08,40.05-31.35Z"/><path d="M56.88,90v3.84c-13.7.26-28.64,11.12-32.33,24.43-3.19,11.49.95,25.56,8.58,34.49,1.57,1.84,3.56,3.35,4.99,5.33,2.49,3.43,3.56,7.81,6.4,11.12,3.06,3.58,8.16,6.15,12.36,8.16v1.92c-14.81-5.87-26.86-18.07-32.34-33.06-3.27-8.94-4.86-19.99-2.58-29.34,3.81-15.64,18.76-27.28,34.92-26.88Z"/><path d="M56.88,74.4v3.84c-19.64-.11-38.09,14.44-43.61,33.07-2.23,7.53-3.63,16.05-1.99,23.81-5.33-5.19-5.17-13.78-3.67-20.6,4.7-21.44,25.26-41.05,47.97-40.37.46.01.91-.02,1.31.25Z"/><path d="M56.88,70.56v2.16c-19.13-.1-38.73,13.07-46.6,30.32-5.38,11.79-8.2,26.71,2.44,36.52l-.13.6c-.83.17-3.01-2.2-3.6-2.88-10.89-12.51-3.03-34.14,4.4-46.72,9.41-15.93,25.29-22.21,43.48-20Z"/><path d="M0,178.56v-60.96c.56-3.03.85-6.11,1.56-9.12,1.27-5.38,3.44-10.52,7.45-14.4l.59.58c-2.98,9.85-8.17,19.4-7.44,30.03.24,3.44,1.72,5.51,2.48,8.56,1.69,6.83.49,23.18-.62,30.47-.77,5.05-2.06,10.12-4.01,14.83Z"/><path d="M56.88,242.88v5.76c-12.12,9.8-28.09,14.65-43.56,15.84-4.31.33-9.1.58-13.32-.24v-3.6c6.85-1.08,13.86-.99,20.73-1.95,10.54-1.48,22.55-5.16,31.09-11.63,1.74-1.32,3.21-3.01,5.06-4.18Z"/><path d="M56.88,326.64v2.16c-21.48-.1-41.91,15.41-48.72,35.52h-2.16c4.19-14.08,11.2-28.12,25.28-34.36,7.74-3.43,17.26-4.58,25.6-3.32Z"/><path d="M56.88,330.24v3.84c-2.5.31-4.99.36-7.48.8-15.35,2.67-29.76,14.81-35,29.44h-4.8c6.72-19.34,26.13-35.33,47.28-34.08Z"/><path d="M56.88,230.88c-4.19,10.1-12.05,16.69-22.38,19.98-11.26,3.59-23.09,2.55-34.5,5.22v-2.64c3.71-.19,7.42-.87,11.08-1.52,16.32-2.87,37.44-8.23,44.23-25.37.6-1.5.78-3.17,1.56-4.56v8.88Z"/><path d="M56.88,22.08v5.76l-4.31-4.69c-3.25-2.63-6.14-5.95-10.09-7.55,5.58,3.99,10.51,8.74,14.4,14.4v11.04c-.75-1.43-.9-3.13-1.44-4.68-3.64-10.52-14.82-17.14-25.44-18.6l10.68-9.08,16.2,13.4Z"/><path d="M56.88,278.16v5.76c-4.32-4.7-8.78-9.7-14.64-12.48,5.68,4.02,10.75,8.84,14.64,14.64v11.04l-1.74-5.58c-4.16-10.19-14.6-16.22-25.15-17.82l10.64-8.97,16.24,13.41Z"/><path d="M56.88,79.44v5.76c-1.81.39-3.81.1-5.64.24-14.16,1.13-30.27,10.39-34.37,24.67-2.42,8.42-2.1,19.1-.72,27.7.41,2.57,1.1,5.09,1.61,7.63-.77-.82-1.43-2.22-1.88-3.27-5.82-13.48-2.83-35.61,7.04-46.65,8.04-8.98,21.84-15.89,33.96-16.08Z"/><path d="M56.88,64.56v4.56c-14.64-1.3-30.21,3.44-40.44,14.16-.61,0-.83-2.45-.85-2.98-.27-7.17,4.59-9.34,10.51-11.59,9.57-3.64,20.57-5.52,30.78-4.14Z"/><path d="M56.88,320.64v4.32c-2.74.16-5.54-.16-8.29,0-11.9.65-23.73,5.82-32.15,14.17-.69.15-.83-2.18-.85-2.75-.04-1.09.07-2.99.31-4.04,1.09-4.81,11.27-8.2,15.54-9.42,8.22-2.34,16.92-3.61,25.44-2.28Z"/><path d="M56.88,122.4v6.72c-2.53,4.2-4.63,9.07-6,13.8-2.73,9.4-4.03,21.56,6,27v1.92c-8.34-4.01-13.49-11.86-13.21-21.25.26-8.88,6.48-20.94,12.3-27.54.27-.31.37-.67.92-.64Z"/><path d="M56.88,350.88v5.28c-.91-.38-9.38,1.32-9.36,1.8,3.15-.19,6.07-1.87,9.36-1.32v6c-2.97-.06-6.26.22-8.88,1.68h-16.8c0-.47.32-.67.6-.96,6.39-7.04,15.33-12.37,25.08-12.48Z"/><path d="M0,240.96v-2.88c5.19-1.73,10.44-4.15,14.96-7.24,7.2-4.94,11.78-10.23,15.81-18.03,4.91-9.51,6.57-18.43,6.93-29.07.1-2.83-.09-5.69,0-8.53l3.74,2.62c.37.29.32.68.36,1.08.45,4.61-.43,12.58-1.29,17.22-3.38,18.21-13.35,28.11-28.26,37.74-3.96,2.56-8.12,4.78-12.22,7.1Z"/><path d="M0,215.52v-4.08c5.3-4.82,9.14-11.86,10.49-18.91,1.54-8.08-.29-16.51,2.71-24.29l.66.42c1.93,6.96,3.54,12.73,2.39,20.03-1.62,10.21-7.64,21.01-16.25,26.83Z"/><path d="M56.88,117.6v3.12c-6.5,7.71-12.7,17.99-13.92,28.2-1.36,11.38,4.07,19.51,13.92,24.6v1.68c-7.53-2.61-14.28-8.97-16.49-16.75-4.15-14.62,5.06-30.63,15.53-40.26.3-.27.49-.6.96-.6Z"/><path d="M56.88,50.64v5.76c-6.79,3.21-13.73,6.58-21.36,7.2-.13-.64.16-.41.47-.6,1.02-.6,2.17-1.02,3.2-1.61l15.28-6.2-.34-.46c-9.21,4.24-18.99,7.23-28.07,11.77-6.1,3.05-12.83,7.01-14.56,14.12-.34.07-.32-.46-.36-.71-1.51-8.52,10.81-14.76,17.08-17.73,9.3-4.41,19.22-7.44,28.65-11.55Z"/><path d="M45.12,0C31.43,6.87,15.28,9.46,0,8.4v-3.84C10.9,3.25,22.14,3.54,32.64,0h12.48Z"/><path d="M0,181.2c2.33-4.84,3.79-10.26,4.72-15.56,1.31-7.42,1.5-14.51,1.27-21.99-.08-2.39-.14-4.78-.19-7.17l.67-.4,3.5,4.07c.31,16.88-.89,35.08-9.97,49.69v-8.64Z"/><path d="M56.88,335.52v5.76c-15.86-.37-33.41,7.59-39.36,23.04h-1.68c4.55-16.19,23.67-27.77,39.76-29.02.46-.04.88-.06,1.28.22Z"/><path d="M56.88,233.76v6.96c-8.8,9.38-21.21,14.16-33.76,16.04-7.66,1.15-15.47,1.2-23.12,2.44v-2.16c12.44-3.39,25.55-1.56,37.68-6.36,8.3-3.29,14.11-8.63,18.53-16.28.19-.32.07-.77.67-.63Z"/><path d="M56.88,250.32v4.8c-7.5,5.02-16.09,8.42-24.96,10.2-10.44,2.1-21.3,1.84-31.92,2.28v-1.2c3.88-1.16,7.92-.52,11.89-.71,12.17-.58,28.1-4.9,38.58-11.1,2.22-1.31,4.24-2.9,6.41-4.27Z"/><path d="M0,198v-6c9.78-14.72,10.99-33.39,11.04-50.64,2.03,1.37,2.49,2.78,2.65,5.15.3,4.49-.47,11.24-1,15.82-1.45,12.62-4.95,25.45-12.69,35.67Z"/><path d="M56.88,342.24v2.64c-13.46-.16-26.74,7.46-32.88,19.44h-4.56c3.89-9.16,12.28-16.24,21.54-19.62,5.06-1.85,10.53-2.85,15.9-2.46Z"/><path d="M56.88,306.72v2.88c-8.36,3.91-17.18,6.76-25.6,10.52-7.62,3.4-17.64,7.67-19.76,16.6-.34.07-.32-.46-.36-.71-1.7-9.62,13.85-16.39,20.84-19.49l24.88-9.8Z"/><path d="M56.88,346.08v3.84c-10.65.13-20.74,6.14-27.12,14.4h-4.32c5.46-10.21,16.01-16.89,27.48-18.24h3.96Z"/><path d="M55.44,0c-6.75,4.34-14.41,7.32-22.27,9.05-10.93,2.4-22.05,1.97-33.17,2.71v-1.44c4.4-1.12,8.89-.46,13.32-.72,10.76-.64,23.61-4.33,33.33-8.91.35-.16.71-.3.87-.69h7.92Z"/><path d="M0,295.2c5.78-5.21,6.53-13.74,11.4-19.44,4.21-4.94,10.9-9.27,17.64-8.15-6,4.03-12.35,7.67-17.16,13.19s-7.13,12.47-11.88,17.76v-3.36Z"/><path d="M0,39.12c5.94-5.32,6.65-14.18,11.88-19.92,2.51-2.76,8.92-7.68,12.72-7.68h4.44c.13.58-.1.39-.31.54-4.67,3.22-9.29,5.45-13.61,9.42-6.68,6.14-9.62,14.24-15.12,21.24v-3.6Z"/><path d="M0,210.48v-7.44c5.23-6.37,6.91-15.17,10.44-22.56l.36-.24c.74,11.06-2.68,22.55-10.8,30.24Z"/><path d="M0,31.2c3.22-4.46,4.97-9.81,8.11-14.33,2.61-3.77,3.97-4.62,8.79-4.12.28.03,1.25.1,1.11.57-3.17,1.88-6.38,3.97-8.74,6.87-4.2,5.15-4.37,12.54-9.26,17.26v-6.24Z"/><path d="M0,287.04c3.26-3.52,7.4-16.22,11.7-17.94.97-.39,4.63-.49,5.7-.3.33.06.64.2.6.6-3.31,1.83-6.96,4.27-9.22,7.34-3.72,5.06-4.11,12.2-8.78,16.78v-6.48Z"/><path d="M56.88,1.2v10.56l-3-2.4c-.18-.03-.15.23-.12.36.12.59,2.39,2.77,3.12,3v2.88l-11.03-8.52c3.47-3.78,4.41.76,7.43,2.04l-3.6-3.95c1.47-.87,3.31-3.06,5.04-1.81-.18-1.18,1.1-2.06,2.16-2.16Z"/><path d="M56.88,154.56v7.68c-1.21-.08-5.78-2.48-6.25-3.29-.58-.99.1-9.92.62-9.91,1.74,1.36,3,3.44,4.57,5.03.35.35.49.58,1.07.5Z"/><path d="M0,285.12v-8.88c1.52-2.29,2.28-5.14,4.32-7.08,1.81-.1,3.84-.9,5.51.24-5.28,3.97-6.43,10.45-9.84,15.72Z"/><path d="M0,29.04v-8.88c1.03-1.23,3.27-7.2,4.92-7.2h4.56l.36.6c-4.96,3.46-6.43,9.54-9.16,14.61-.18.34-.28.72-.68.87Z"/><path d="M56.88,16.56v4.32l-14.8-12.12c-.12-.76,2.52-1.59,2.79-1.45l12.01,9.25Z"/><path d="M56.88,272.64v4.08l-14.82-11.88c-.06-.75,2.2-1.68,2.8-1.45l12.02,9.24Z"/><path d="M56.88,203.28v7.92c-.57-.16-.42-.65-.5-1.06-1.51-7.54-5.25-14.46-6.82-21.98-.19-.91-1.19-5,0-5.28.47.26,1.66,1.08,1.86,1.5.64,1.38.62,5.4.96,7.2.74,3.93,2.93,8.03,4.5,11.7Z"/><path d="M56.88,310.08v2.4c-6.85,2.94-13.7,6.74-21.36,6.96,1.42-1.15,3.42-1.95,5.12-2.68,2.33-1.01,4.78-1.75,7.12-2.72,3.06-1.27,6.01-2.81,9.12-3.96Z"/><path d="M26.88,0l-6.63,1.17C13.49,1.77,6.73,2.3,0,3.12v-1.92L3.84,0h23.04Z"/><path d="M0,71.04c2.71,7.52,5.71,15.26,5.52,23.4l-.47,2.04L0,77.04v-6Z"/><path d="M0,327.12c2.72,7.52,5.73,15.25,5.52,23.4l-.47,1.8-5.04-19.2v-6Z"/><path d="M1.68,364.32c.74-3.64,2.16-7.43,4.22-10.54.47-.71,2.07-2.92,2.62-3.38.91-.76,1.21-.27.97.73-1.04,4.36-3.45,8.84-4.69,13.19H1.68Z"/><path d="M56.88,257.04v10.8c-1.07-.52-7.19-6.07-7.2-6.6,1.33-.96,3.47-3.12,5.03-1.8-.38-1.33,1.13-1.93,2.16-2.4Z"/><path d="M0,88.32v-8.88c1.05,2.97,2.02,6.02,2.81,9.07s2.49,8.04.74,10.92c-.33.54-.5.61-.88.03l-2.67-11.13Z"/><path d="M0,335.52c1.3,3.95,2.83,8.21,3.68,12.28.61,2.91,1.18,5.34-.32,8.12-.42.08-.62-.21-.78-.54-.47-1.03-.94-4.74-1.26-6.18-.37-1.68-.72-3.43-1.32-5.04v-8.64Z"/><path d="M56.88,268.8v2.88l-11.03-8.52c.54-.71,2.19-1.95,3.05-1.62l7.99,7.26Z"/><path d="M56.88,147.12v6.24c-.51-.02-.78-.39-1.08-.72-2.57-2.77-5.24-6.29-2.88-10.08l3.96,4.56Z"/><polygon points="56.88 57.36 56.88 62.4 47.04 61.8 56.88 57.36"/><path d="M56.88,313.44v5.04c-3.3,0-6.55-1.18-9.84-.48l9.84-4.56Z"/><path d="M56.88,134.4v10.8c-.57-.15-1.31-1.11-1.67-1.57-.56-.69-1.67-2.04-1.7-2.88-.04-.93,1.53-4.43,2.05-5.41.28-.53.62-1.61,1.33-.95Z"/><path d="M56.88,199.2c-.63.14-.46-.33-.61-.7-1.32-3.2-3.95-9.52-3.73-12.87.05-.78.4-1.54.99-.67,1.3,1.91.99,7.04,3.34,8.96v5.28Z"/><path d="M56.88,163.68v4.08c-1.78-.76-5.43-4.46-5.53-6.36-.03-.58.33-.41.74-.26,1.44.55,3.21,2.02,4.79,2.53Z"/><path d="M0,273.12v-3.6c.38-.91,2.85-1.81,2.83-.41-.58,1.47-1.62,2.99-2.83,4.01Z"/><path d="M0,17.28v-3.84c.39-.62,2.62-1.57,2.86-.58.21.86-2.22,3.69-2.86,4.42Z"/><path d="M0,364.08v-7.92l.96-.36c.87.64-.42,7.07-.96,8.28Z"/><path d="M0,108v-7.92c.88-.86,1.14-.09,1.21.83.19,2.23-.57,4.96-1.21,7.09Z"/><path d="M56.88,363.36v.96h-7.2c1.98-1.15,4.98-1.51,7.2-.96Z"/><path d="M56.88,186.48v4.8c-.92-.47-2.46-4.94-1.3-5.27l1.3.47Z"/><path d="M0,201.84v-1.68l2.64-3.24c-.53,1.76-1.49,3.5-2.64,4.92Z"/><path d="M0,355.68v-3.6c.82,1.02,1.04,2.66,0,3.6Z"/><path d="M0,99.6v-3.6c.72,1.07,1.11,2.62,0,3.6Z"/><path d="M49.68,50.64v-3.48c0-1.26-.99-4.68-1.5-5.94-4.06-10.11-17.54-13.41-27.42-12.65-2.38.18-4.66,1.23-7.08.95l5.67-4.52c1.9-.95,7.48-.29,9.77,0,7.2.91,13.98,3.49,18.99,8.85l4.19,6.24c-4.33-12.21-18.88-16.4-30.72-16.08-.12-.47.2-.46.4-.67,1-1.02,4.9-3.97,6.19-4.13,2.39-.29,8.26,1.41,10.61,2.36,8.39,3.41,18.06,13.59,17.37,23.21-.34,4.66-2.79,4.5-6.49,5.87Z"/><path d="M20.88,32.64c-3.8.23-8.24,2.01-11.41,4.07l-3.95,2.89c1.91-9.99,14.37-11.25,22.68-10.32,10.8,1.21,20.78,7.32,20.78,19.32,0,2.29-1.46,4.12-3.83,3.45-.09-9.74-6.22-17.5-15.82-19.33-2.16-.41-6.65-.87-8.45-.07,9.32-.56,19.24,3.34,22.33,12.83.86,2.65,2.53,8.72-1.91,8.52-1.72-6.04-6.29-11.72-12.19-14.09-9.57-3.85-19.91.14-25.62,8.34-1.29-3.04.58-6.38,2.75-8.52,4.86-4.81,9.4-4.74,14.65-7.07Z"/><path d="M8.4,239.52c.02-.64.9-1.04,1.36-1.4,7.16-5.49,15.45-9.74,21.19-16.73,4.19-5.11,7.41-11,9.67-17.21l2.09-7.14c1.16,20.95-14.42,38.2-34.32,42.48Z"/><path d="M7.9,65.26l-.7.02c-.51-5.46-1.69-9.13,3.28-12.68,8.38-5.99,15.79-2.12,20.91,5.6-2.13,2.32-2.9-.58-4.54-1.42-4.3-2.2-12.51.34-16.06,3.33-1.78,1.5-2.4,2.9-2.9,5.15ZM20.4,53.28c-2.2.12-4.73.53-6.83,1.21-.53.17-1.48.48-1.81.94l3.21-.99,5.43-1.17Z"/><path d="M28.29,59.97c-.27.43-2.1.25-2.61.03.46.93-.56,1.28-1.28,1.72-4.71,2.82-8.43,2.64-12.65,7.03-.8.83-1.84,2.05-2.4,3.01-1.57-1.45-1.15-4.38.24-5.88l-.48-.11c-.44-4.45,4.52-6.79,8.06-7.91l.45.46c2.25-1.82,5.24-2.11,7.94-1.2.92.31,3.5,1.6,2.72,2.86Z"/><path d="M8.64,31.68c2.98-6.3,8.19-10.74,13.75-14.69,2.45-1.74,5.8-4.15,8.41-5.51,2.19-1.14,4.1-1.38,6.4-2.12L8.64,31.68Z"/><path d="M14.64,76.32c.29.26.86,7.04.72,7.79-.1.51-2.22,3.08-2.63,2.76-1.05-2.88-.78-6.58.68-9.28.13-.25.88-1.61,1.24-1.28Z"/><path d="M18.96,65.04c-2.22,2.44-4.42,4.95-6.71,7.32-.63.66-1.48,1.61-2.17,2.15-.81.65-.78-.2-.67-.9.43-2.54,4.39-6.56,6.6-7.81.99-.56,1.75-.95,2.95-.77Z"/><path d="M54.88,304.48c-.55.55-4.95,2.27-5.2,2,.4-8.79-3.8-15.76-11.84-19.24-5.07-2.2-12.3-3.07-17.8-2.59-2.1.18-4.23,1.29-6.36.84,1.93-1.05,4.81-4.59,6.85-4.91,1.81-.28,5.02.05,6.94.23,7.91.75,15.84,3.42,21.12,9.6,1.1,1.29,1.87,2.83,2.99,4.08-5.08-11.26-18.66-14.51-30-14.64,1.3-1.22,5.18-4.71,6.86-4.78,2.49-.1,8.67,1.76,11.06,2.82,6.85,3.03,14.62,10.84,16.24,18.32.49,2.26.89,6.51-.88,8.28Z"/><path d="M20.4,288.72c-5.56.47-10.66,3.48-14.88,6.96,2.37-11.83,18.97-11.81,28.13-9.29s15.09,8.37,15.32,18.05c.06,2.33-1.42,4.26-3.83,3.69-.09-10.23-6.65-18-16.78-19.58-2.59-.4-5.61-.58-7.97.17,7.75-.65,15.69,1.53,20.36,8.08,2.04,2.87,3.97,7.94,3.39,11.46-.18,1.12-1.99,2.05-2.88,1.46-.17-.12-.98-2.57-1.22-3.1-6.02-12.67-20.96-16.14-32-7.35-1.79,1.43-2.72,2.89-4.21,4.43-.23.24-.31.45-.71.36-.99-8.9,9.96-13.64,17.12-15.12l.15-.24Z"/><path d="M31.44,314.4c-2.48,1.75-2.55-.33-4.24-1.4-4.38-2.77-16.11.69-18.37,5.31-.5,1.02-.33,2.85-1.63,3.05-.4-5.1-1.76-8.89,2.8-12.44,6.93-5.38,13.76-3.76,19.29,2.47.3.34,2.32,2.77,2.15,3ZM20.88,309.12c-2.93.54-6.74.55-9.12,2.4,2.67-1.22,5.59-1.4,8.4-2.04.27-.06.78,0,.72-.36Z"/><path d="M25.68,315.84c.5,1.08-.2,1.23-1.04,1.72-2.33,1.38-5.1,2.3-7.6,3.32,0,.52.83.03,1.11.02.42-.02.55-.03.81.34-2.82,2.78-5.45,5.74-8.15,8.65-.75.8-1.66,1.79-1.39-.18.41-3.03,4.31-6.26,6.66-7.98-.18-.34-.62,0-.85.11-2.29,1.11-3.24,2.96-4.9,4.7-.23.24-1.15,1.3-1.44,1.07-.78-1.95-.72-4.02.7-5.66l-.03-.3s-.38-.02-.43-.2c-.72-2.83,3.3-5.69,5.53-6.67.71-.31,2.63-1.29,2.75-.37,2-1.63,4.39-1.96,6.9-1.62,1.11.15,4.82,1.57,3.91,3.06-.8.73-1.7.55-2.53,0Z"/><path d="M37.2,265.44l-28.56,22.32c2.94-6.51,8.3-10.9,13.99-14.93,2.85-2.02,7.76-5.59,10.97-6.55,1.16-.35,2.45-.38,3.6-.84Z"/><path d="M14.64,332.16c.27.3.86,7.29.72,8.04-.08.44-2.23,3.07-2.63,2.76-1.16-3.08-.69-7.88,1.37-10.5.15-.2,0-.44.55-.3Z"/></svg>