<?xml version="1.0" encoding="UTF-8"?><svg id="a" xmlns="http://www.w3.org/2000/svg" width="20.07mm" height="128.52mm" viewBox="0 0 56.88 364.32"><rect x="42.19" width="1.68" height="364.32"/><path d="M33.56,0l-.96,12.12c-1.54,12.48,2.5,24.46,3.59,36.72,2.1,23.54-4.53,47.5-3.6,71.05.63,15.95,4.35,31.92,3.86,48-.59,19.09-5.64,39.56-3.58,58.52.76,7,2.7,13.89,3.33,20.91,2.09,23.47-4.5,47.33-3.6,70.81.42,11.15,2.53,22.23,3.36,33.35.32,4.27.42,8.56.48,12.84h-1.44c.2-12.52-1.89-24.89-2.88-37.32-1.89-23.76,2.65-44.65,3.13-67.91.23-11.34-2.07-20.33-3.33-31.25-2.2-19.06,2.42-38.08,3.09-57.07.74-20.67-4.07-40.93-3.36-61.68s5.14-41.84,3.1-61.69c-1.14-11.11-4.45-21.95-3.36-33.37l.97-14.03h1.2Z"/><rect x="7.19" width="1.2" height="364.32"/><path d="M12.71,0c.24,4.52.33,9.04.72,13.56.33,3.78,1.11,7.18.97,11.05-.33,8.89-3.39,18.57-2.9,27.36.21,3.74,1.87,7.59,2.58,11.34,2.03,10.74-.53,19.86-.9,30.4s1.96,20.5,1.46,30.74c-.4,8.21-3.15,16.77-2.9,24.96.18,5.79,2.25,11.58,2.86,17.3,1.05,9.97-1.72,19.83-1.9,29.72-.14,7.81,1.19,14.99,1.68,22.57.68,10.3-3.5,21.27-2.88,31.45.28,4.6,2.52,9.58,3.09,14.42,1.09,9.21-1.1,18.16-1.42,27.31-.36,10.24,1.97,20.5,1.46,30.74-.51,10.31-3.84,19.04-2.37,29.71.54,3.92,1.81,7.72,2.12,11.68h-.96c-1-7.45-3.2-14.84-2.39-22.44.66-6.22,2.48-12.41,2.64-18.71.15-5.79-1.06-11.77-1.45-17.53-.98-14.46,3.66-29.34.84-43.57-.68-3.46-2.08-6.3-2.3-9.94-.53-9.11,1.97-17.73,2.42-26.64.51-10.17-1.96-20.6-1.46-30.98.44-9.14,2.87-18.37,1.9-27.56-.86-8.1-3.52-15.38-2.58-23.76.69-6.15,2.47-12.25,2.62-18.5.13-5.8-1.06-11.77-1.45-17.53-.94-13.95,3.35-28.19,1.13-41.93-.63-3.87-2.34-7.42-2.58-11.34-.69-11.38,3.07-22.6,2.42-34.1-.15-2.63-.77-5.48-.97-8.15-.29-3.86-.36-7.77-.48-11.64h.96Z"/><path d="M29.25,0l-1.68,14.28c-1.26,12.86,2.55,25.14,3.59,37.68,1.75,21.04-2.81,41.89-3.6,62.88-.82,21.88,5.4,43.04,4.33,64.81-.49,9.93-3.27,20.05-4.08,29.99-1.52,18.53,3.87,35.25,3.6,53.76-.35,24.27-5.62,45.84-3.12,70.56,1.02,10.12,2.93,20.17,3.35,30.36h-.96c-1.3-19.49-5.24-38.54-3.83-58.2.54-7.46,1.94-14.88,2.63-22.32.9-9.72.89-19.56.48-29.28-.57-13.45-3.81-25.57-3.37-39.13.51-15.73,4.86-31.29,4.33-47.04-.5-14.76-3.77-29.38-4.33-44.14-.53-13.65,1.65-25.54,2.89-38.89,1.19-12.81,1.28-27.78-.27-40.52-.52-4.29-1.55-8.51-2.09-12.79-.72-5.75-.51-11.02-.26-16.76.05-1.12-.05-2.26-.02-3.38l1.21-11.87h1.2Z"/><path d="M56.81,265.44c-.72-.9-.59-2.51-.79-3.65-1.71-9.66-5.88-19.02-7.73-28.74-1.34-7.08-.22-13.04-.58-20.06s-.97-10.63.03-17.71c1.73-12.25,5.33-24.45,4-36.97-.45-4.2-1.79-8.07-2.6-12.15.62-.12.42.13.6.47,7.06,13.01,1.62,34.64-.09,48.65-.95,7.81-.81,15.24-.74,23,.03,4.15-.27,8.66-.02,12.74.34,5.49,3.01,10.04,4.81,15.11,1.16,3.28,2.13,6.63,3.11,9.96v9.36Z"/><path d="M56.81,163.92c-.7-.96-.57-2.68-.76-3.92-1.18-7.89-3.87-14.28-6.07-21.76-4.13-14.05-4.22-31.45-2.24-45.93,1.51-11.11,5.06-22.01,3.77-33.36-.46-4.1-1.79-8.07-2.37-12.15.62-.16.79.89.96,1.31,7.18,18.02-1.42,37.32-2.17,55.67-.66,16.18,1.33,31.08,7.13,46.16l1.75,7.49v6.48Z"/><path d="M56.81,355.92c.21,2.05-.15,4.4,0,6.48-.78-2.15-.83-4.7-1.27-7-1.37-7.13-4.14-13.46-6.04-20.36-3.54-12.86-3.63-29.36-2.01-42.57,1.43-11.69,5.33-23.11,4.01-35.04-.45-4.11-1.74-8.08-2.37-12.15.51-.1.56.24.73.58.81,1.6,1.69,5.21,2.07,7.05,3.1,14.98-2.03,28.5-3.52,43.13-1.31,12.92-.7,27.45,2.76,39.96,1.69,6.12,5.01,13.76,5.63,19.92Z"/><path d="M0,112.56c.95,3.82.46,7.78.97,11.63-.51,8.2.71,16.34.96,24.48.34,11.15-1.01,22.69-.5,33.62.44,9.39,3.18,19.32.85,28.67-.11.46-.15,1.62-.84,1.44-.22-1.25.21-2.55.25-3.71.36-12.39-1.6-24.44-1.21-36.97.35-11.07.51-22.03-.23-33.14l-.25-.58v-25.44Z"/><path d="M18.7,0c.31,6.66-.41,13.68-.01,20.29.24,3.95,1.12,8.2,1.45,12.23,1.58,19.46,1.71,39.01,1.69,58.57l-.49,5.39c-.44-.09-.45-.47-.49-.83-.6-5.36.1-12.64.02-18.26-.31-20.72-1.72-41.03-3.12-61.68-.35-5.23-.81-10.46-.97-15.71h1.92Z"/><path d="M49.38,0l-.73,8.27c.69,8.06-.24,16.17.24,24.26.34,5.74,3.18,10.52,5.05,15.83,1.07,3.05,1.93,6.16,2.87,9.24v9.6c-.35-.29-.38-.7-.45-1.11-2.07-11.86-7.99-24.89-8.87-36.24-.38-4.85.48-10.32.22-15.34-.11-2-.64-4.21-.74-6.22-.14-2.76.06-5.55.25-8.29h2.16Z"/><path d="M56.81,194.16c-1.14,5.88-3.01,11.86-3.37,17.87-.53,9.01-.38,15.52,1.95,24.23.39,1.47.8,3.08,1.42,4.46v6.96c-.57-.33-.66-1.31-.84-1.92-3.67-13.03-4.87-24.94-3.48-38.51.92-8.95,2.91-17.94,3.85-27.1.04-.39.15-.83.46-1.1v15.12Z"/><path d="M20.62,364.32c-.05-3.95-.07-7.94-.23-11.89-.24-5.96-.58-12.01-.97-17.99-1.04-15.81-3.68-32.17-2.88-48.01.05-.9.73-7.41,1.09-7.55.57-.22.38,1.3.37,1.57-.68,13.72-.15,26.83.95,40.55,1.15,14.44,3.08,28.84,3.83,43.32h-2.16Z"/><path d="M0,238.32l.72,6.36c1.85,12.41-.01,25.02.72,37.44.28,4.72,1.5,9.44,1.91,14.16s.47,9.67-.96,14.28c-.52.52-.62-1.14-.63-1.36-.04-2.06.23-4.31.16-6.45-.33-10.32-1.9-20.58-1.7-30.96.16-7.85.86-15.64.02-23.53l-.25-.58v-9.36Z"/><path d="M0,39.84l.96,9.48c1.55,11.35-.19,23.02.48,34.32.28,4.72,1.5,9.45,1.91,14.16s.5,9.68-.96,14.28c-.54.54-.57-1.02-.57-1.17-.08-2.13.18-4.46.11-6.64-.36-10.24-1.9-20.43-1.7-30.72.16-7.93.87-15.8.02-23.77l-.25-.58v-9.36Z"/><path d="M56.81,288.48l-2.61,17.43c-1.26,11.36-1.71,23.13,2.61,33.93v6.72c-.61-.57-.84-1.83-1.08-2.64-6.23-21.45-2.64-34.65.09-55.83.29-2.22.23-4.78.99-6.81v7.2Z"/><path d="M56.81,90l-2.61,17.43c-1.28,11.48-1.67,23.24,2.61,34.17v6.48c-.46-.16-.48-.58-.6-.96-7.52-23.02-2.39-40.08.12-63.01.05-.42.07-.83.48-1.07v6.96Z"/><path d="M55.85,0c-.42,2.15-.98,4.28-1.36,6.44-1.36,7.65-1.98,18.61-.39,26.16.7,3.33,1.68,6.65,2.71,9.88v6.72c-.57-.33-.66-1.31-.84-1.92-3.59-12.74-4.51-22.82-3.72-36.12.22-3.74,1.2-7.46,1.68-11.16h1.92Z"/><path d="M1.92,364.32H.72c.6-7.55-.24-15.11-.23-22.69l-.49-5.15v-25.44c.96,3.74.46,7.62.97,11.39-.27,8.28.37,16.5.96,24.72v17.17Z"/><path d="M17.26,364.32c-.35-2.97-1.17-5.88-1.61-8.83-.91-6.07-1.03-12.28-.55-18.41.06-.79.76-6.72,1.08-6.84.58-.11.34.47.36.84.3,5.97-.78,11.9-.48,17.76.27,5.18,1.59,10.34,2.16,15.48h-.96Z"/><path d="M38.12,0c.17,9.81.32,19.63.97,29.41-.23.8-.17,4.17-1.33,4.19,0-1.6-.31-3.36-.37-4.91-.16-4.34.01-8.67.02-12.96,0-5.24-.2-10.53.23-15.73h.48Z"/><path d="M27.33,364.32h-.72c-1.01-8.74-2.93-17.94-2.41-26.77.02-.29.27-2.03.37-2.03l2.76,28.8Z"/><path d="M52.02,364.32c.06-4.18-.21-8.4-1.08-12.48-.44-2.08-1.57-4.67-1.78-6.62-.03-.31-.15-.73.34-.58.27.08,1.69,4.25,1.86,4.86,1.39,4.79,1.93,9.84,1.85,14.82h-1.2Z"/><path d="M24.69,0c-.33,4.21-.4,8.39-.47,12.61-.01.63-.27,1.23-.27,1.91,0,1.91.49,4,.27,6.01-.04.36-.05.74-.49.83-.15-1.15-.43-2.31-.49-3.47-.23-4.07-.19-9.37,0-13.46.07-1.4.4-3.01.49-4.43h.96Z"/><path d="M3.12,0c-.05,4.64.3,9.51-1.32,13.92-.55.18-.34-.53-.36-.84-.04-1.07.22-1.88.25-2.87.1-3.33.09-6.93-.25-10.21h1.68Z"/><path d="M47.46,364.32c-.3-2.07-.48-4.87-.07-6.92.06-.3-.06-.92.43-.76.71.24.64,6.65.6,7.68h-.96Z"/><path d="M17.98,80.4c.21,1.18-.21,2.38-.25,3.47-.43,13.92.3,27.64,1.45,41.53,1.35,16.27,3.88,32.36,3.34,48.71-.23,7.15-.58,14.33-.95,21.49-.72.12-.38-.18-.48-.58-.11-.45-.21-.98-.24-1.45-.52-8.25-.07-17.52-.24-25.92-.46-22.05-2-44.02-4.08-66,.34-6.54-.69-13.95.81-20.34.1-.42-.01-1.08.64-.91Z"/><path d="M21.33,294.96c-.46-.05-.46-.96-.49-1.31-.8-12.41.41-25.7-.46-38.18-.02-.57-.24-1.09-.26-1.66-.48-13.34-1.51-26.54-2.39-39.85-.76-11.37-2.01-22.97.6-34.2.27,4.51.05,9.05.11,13.57.11,8.13-.23,17.19.24,25.2.24,4.02,1.11,8.36,1.45,12.47.92,11.27.98,22.56,1.69,33.83-.22,10.04.47,20.14-.49,30.13Z"/><path d="M23.49,319.2c-.58-.43-.67-2.22-.71-3-.93-14.79,3.15-31.46,3.14-46.56-.01-10.75-2.74-22.57-1.95-33.13.03-.43-.07-.78.37-1.06.47,0,1,4.95,1.08,5.64.69,5.99,1.05,12.23,1.21,18.23.44,16.79-1.38,34.07-2.41,50.89-.18,3-.53,6.01-.72,9Z"/><path d="M23.49,120.72c-.58-.43-.67-2.22-.71-3-.93-14.79,3.17-31.45,3.14-46.56-.02-10.74-2.74-22.58-1.95-33.13.03-.43-.07-.78.37-1.06.44,0,.74,2.99.81,3.51,1.54,11.71,2,26.08,1.48,37.9-.25,5.59-1.28,11.2-1.69,16.79s-.38,11.21-.72,16.79c-.18,2.92-.55,5.85-.72,8.76Z"/><path d="M23.73,219.84c-.11-1.05-.43-2.19-.49-3.23-.81-12.97,1.69-23.52,3.1-36.04,1.12-10.01-.33-16.94-1.38-26.64-.6-5.53-1.2-11.4-.39-16.89.2,0,.34.85.36,1.08.33,4.55.28,9.14.72,13.68.71,7.37,2.36,14.31,1.93,21.85-.11,1.97-.73,3.92-.94,5.78-1.35,11.89-2.48,23.81-2.41,35.73,0,1.18.12,2.75,0,3.86-.04.36-.05.74-.49.83Z"/><path d="M16.3,32.64c.1.1.24,1.05.25,1.31.52,7.36-.83,14.19.02,21.82.66,5.96,2.3,11.87,2.12,17.91-.46-.18-.56-1.2-.65-1.63-2.28-11-4.22-24.54-2.94-35.69.11-.93.29-2.62.66-3.42.11-.25.2-.61.53-.3Z"/><path d="M16.3,231.12c.1.1.24,1.05.25,1.31.38,5.45-.69,10.99-.49,16.33.09,2.27.47,4.89.75,7.17.65,5.32,2.02,10.59,1.88,15.99-.54-.19-.54-.93-.64-1.39-1.12-4.84-2.01-11.74-2.67-16.77-.82-6.29-1.03-12.82-.25-19.13.11-.9.28-2.43.63-3.21.11-.25.2-.61.53-.3Z"/><path d="M16.54,131.76c-.08,2.83.11,5.69.01,8.53-.12,3.38-.66,6.62-.49,10.07.34,6.7,2.29,13.27,2.87,19.92.06.69.31,2-.12,2.52-.26-.38-.41-.94-.53-1.39-.99-3.82-1.76-8.99-2.39-12.97-1.14-7.13-1.84-19.23.13-26.13.12-.4-.18-.67.51-.56Z"/><path d="M47.94,59.28c.74,2.68.74,5.51.73,8.29l-.85,11.63c-.19,0-.35-1.27-.37-1.55-.38-5.68,0-11.82-.24-17.54-.02-.46.18-.91.73-.83Z"/><path d="M47.94,277.44c-.4,0-.46-.8-.48-1.08-.23-2.91-.2-6.19-.25-9.11-.02-1.25-.14-9.44.25-9.73.58.24.75,1.11.85,1.67,1.07,5.8-.35,12.37-.37,18.25Z"/><path d="M47.94,158.16c1.04,6.6.35,13.51-.12,20.16-.61,0-.34-11.09-.35-12.13-.03-2.28-.71-5.44-.02-7.68.11-.34-.14-.42.48-.35Z"/><path d="M38.11,290.64l.49,6.35c-.13,10.63.72,21.32-.01,31.93-.02.3-.26,2.01-.36,2.04-.55.17-.34-.52-.36-.84-.42-8.48-.42-16.95-.47-25.45-.02-4.08-.78-9.45.22-13.45.1-.4-.24-.7.48-.58Z"/><path d="M38.35,132.48c-.55.03-.43.08-.48-.35-.42-3.41-.14-6.91-.23-10.33-.14-5.7-.46-11.56-.5-17.26-.03-4.14-.02-8.27.49-12.37.56.3.66,1.67.71,2.28.41,4.85.41,10,.49,14.87.13,7.72.1,15.49-.49,23.17Z"/><path d="M37.64,232.08l-.49-15.97.61-24.35c0,1.67.32,3.53.37,5.15.25,8.08.18,16.17.46,24.26.07,2.1.55,4.35.5,6.48,0,.38-.55,5.45-1.45,4.43Z"/><path d="M2.39,23.52c-.41,0-.52.13-.46-.34.61-4.8,1.34-9.58,1.94-14.38l.56-1.84c.93.87.7,3.38.6,4.67-.29,3.89-1.67,8.12-2.64,11.88Z"/><path d="M1.92,222l2.51-16.56c.44.31.55.54.61,1.07.45,3.4-1.21,11.48-2.58,14.72-.13.3-.13.71-.54.77Z"/><path d="M4.79,306.96c.03.75-.05,1.52,0,2.28.24,3.57.05,9.94-1.03,13.37-.08.25-.06.73-.41.67-.13-3.25.51-6.47.73-9.71.14-2.11-.09-4.07.24-6.25.06-.42-.13-.4.47-.36Z"/><path d="M3.59,124.8l-.25-2.53c.8-4.56.47-9.24,1.09-13.79.41.28.34.65.37,1.07.27,3.13.08,6.93-.25,10.09-.18,1.74-.5,3.48-.96,5.16Z"/></svg>