<svg xmlns="http://www.w3.org/2000/svg" width="20mm" height="128.5mm" viewBox="0 0 56.69 364.25"><path d="M56.69 36.49v1c-.41-.94-1.12-1.8-2.44-2.48-1.53-.22-2.31 5.85-3.07 4.54 1.19-6.18 3.73-5.6 5.51-3.06Z" fill="none"/><path d="M56.69 30.3v.91c-.21-.3-.43-.55-.66-.74-.66-.53-2.15-1.27-3.07-.77-.7.42-.46 1.96-.81 2.54-4.3 7.22-2.71 17.26-.32 24.81.1.31.75.8 1.29.88-2.53.8-1.66-2.15-1.94-2.88-2.64-6.77-2.59-12.24-2.26-19.26 2.65-1.87 1.89-8.65 6.95-6.09.3.15.57.36.82.6ZM56.69 25.17v.91c-1.14-1.11-2.41-1.75-3.73-1.48-.87.19-3.13 3.62-4.04 4.32-.22.17-1.15.99-1.3.22 2.38-2.43 4.12-7.42 9.06-3.98h.01ZM56.69 343.52v1.46c-4.9-2.96-8.08-7.39-9.07-11.78 1.44.86 1.24 2.65 1.94 3.77 1.03 1.63 3.99 4.33 7.13 6.55ZM56.69 11.36v.9c-1.86-1.66-3.45-2.89-4.05-2.94-2.72-.19-5.05 6.11-4.69 7.42-2.38 1.44.98-5.78 1.29-6.2.6-.81 2.22-1.84 3.72-1.66.67.08 2.07 1.07 3.73 2.48ZM56.69 3.38v1.43c-2.23-1.35-4.09-3-5.56-4.81h1.15c1.27 1.19 2.77 2.33 4.41 3.38ZM56.69 6.24v.26c-.33-.27-.65-.55-.98-.83.33.19.65.38.98.57ZM56.69 66.7v.84c-.11.12-.22.25-.34.36-4.89 4.56-7.95-2.84-8.4-5.54.33-.35.68-.4.97 0 1.31 1.85 2.42 9.8 7.11 5.1.24-.24.44-.51.66-.76ZM51.67 118.72c-.75-.77-1.72-.38-2.59 0-3.5 1.56-3.12 11.76-5.82 14.62l3.39-13.4c.38-1.16 4-3.15 5.18-1.77.08.09.05.48-.16.55Z" fill="none"/><path d="M56.69 71.71v.78c-2.25 1.48-4.78 1.69-8.1-.38.14.63.33 2.15.65 2.65.59.93 3.23 1.75 2.43 2.33-1.15-.64-2.46-1.09-3.08-2.1-.94-1.56-3.21-10.75-3.55-12.85-.38-2.31-.54-5.8-.65-8.19-.34-7.04.71-14.02.65-21.04.7 1.41.16 2.97.32 4.43.95 8.64-.49 19.76 1.29 28.57.93 4.58 4.41 9.93 10.04 5.8ZM56.69 86.77v9.46c-.27-3.12-.26-6.33 0-9.46Z" fill="none"/><path d="M56.69 61.01v.83c-.99 1.02-2.3 1.6-4.38.85-1.52-.54-1.35-2.64-1.61-3.76.88-.22 1.15 5.96 5.33 2.77.24-.18.45-.42.66-.69ZM56.69 338.49v1.12c-7.73-8.34-4.5-17.82-8.14-28.77-1.01-3.04-3.84-6.28-4.81-9.75-.99-3.54-3.38-18.04-2.58-21.04.08-.31-.18-.77.64-.44l2.27 19.93c3.44 7.68 6.98 15.23 8.4 23.26 1.5 8.42-1.18 10.88 4.22 15.69ZM56.69 53.18v2.43c-.45.85-1.03 1.67-1.79 2.43l1.79-4.86ZM56.69 40.98v2.95c-.13.24-.29.46-.5.61.12-1.08.5-5.12-2.26-4.66-2.94.5-1.19 8.77-1.94 10.41-1.15-1.72-1.52-11.23 2.59-10.85.7.07 1.63.88 2.11 1.54ZM56.03 51.07c-.51.6-.79 3.11-2.1 2.99l-1.78-1.66 1.78 1.21c.64-.03.81-2.77 2.1-2.54ZM56.69 0h-.02l.02.02V0ZM2.4 0H1.17c5.64 8.16 2.21 17.69 4.74 26.49C4.66 18.81 7.02 7.39 2.4 0ZM51.67 232.11c-.64-.64-1.38-.49-2.27-.22-3.72 1.13-3.52 12.2-6.14 14.83l3.39-13.39c.38-1.16 4-3.16 5.18-1.77.08.09.05.47-.16.55ZM45.36 249.71c.03.23-1.34 3.83-1.78 4.32-.5-.62.93-4.85 1.29-4.87.06.19.49.52.49.55ZM53.32 364.25h.75c-.26-.03-.51-.02-.75 0ZM2.35 358.67c-.15-2.58-.93-8.78-2.35-13.56v1.83c.83 3.75 1.52 8.85 1.7 11.95.1 1.79.07 3.57-.02 5.36h.62c.11-1.86.15-3.72.04-5.58ZM5.91 139.87c-2.8-9.08 1.42-19.66-5.91-28.06v-1.24s.06.05.09.07c7.62 7.25 4.4 20.66 5.82 29.23ZM51.67 345.49c-.75-.77-1.72-.38-2.59 0-3.5 1.56-3.12 11.76-5.82 14.62l3.39-13.4c.38-1.16 4-3.15 5.18-1.77.08.09.05.48-.16.55ZM56.69 111.72v1.12c-7.73-8.35-4.5-17.82-8.14-28.77-1.01-3.04-3.84-6.28-4.81-9.75-.99-3.54-3.38-18.04-2.58-21.04.08-.31-.18-.77.64-.44l2.27 19.93c3.44 7.68 6.98 15.23 8.4 23.25 1.5 8.43-1.18 10.89 4.22 15.7ZM56.69 351.51v.91c-1.86-1.65-3.45-2.89-4.05-2.94-2.81-.24-3.29 3.64-3.72 4.54-.46.95-2.13 2.13-.97 2.88-.24.54-1.29-.18-1.3-.22-.06-.31 2.38-5.7 2.59-5.98.62-.84 2.2-1.85 3.72-1.66.67.08 2.08 1.07 3.73 2.47ZM1.7 156.81c.76 3.46-.4 6.85-1.7 10.2v-1.8c.72-2.7 1.23-5.45 1.06-8.4-1.16-8.22 1.13-16.46.64-24.69-.18-3.1-.87-8.2-1.7-11.95v-1.84c1.42 4.79 2.2 10.99 2.35 13.57.48 8.31-1.92 16.61-.65 24.91ZM49.73 61.81c-.66.31-1.7-4.21-1.94-4.87.89.79 2.14 3.21 2.1 4.09-.02.26.12.59-.16.78ZM56.69 346.28v.64c-.53-.49-.98-1-1.31-1.54.43.3.87.6 1.31.9ZM51.67 5.34c-.64-.64-1.38-.49-2.27-.22-3.72 1.13-3.52 12.2-6.14 14.83l3.39-13.39c.38-1.17 4-3.16 5.18-1.78.08.1.05.48-.16.56ZM45.36 22.94c.03.23-1.34 3.83-1.78 4.32-.5-.62.93-4.86 1.29-4.87.06.19.49.52.49.55ZM56.69 360.02v1.56c-1.03-.96-2.14-1.91-3.08-2.8-.91-.08-2.8 2.67-4.39 5.47h-1.25c1-1.96 2.08-3.71 2.89-4.47 2.19-2.05 4.17-1.25 5.83.24ZM56.69 263.26v1.01c-.41-.95-1.12-1.81-2.44-2.49-1.53-.22-2.31 5.85-3.07 4.54 1.19-6.18 3.73-5.6 5.51-3.06Z" fill="none"/><path d="M39.29 364.25h-.98c2.57-15.94 11.92-35.78 5.76-51.64-1.36-3.49-5.19-6.87-5.82-10.41-.7-3.85.51-9.14.32-13.29-.46-10.09-1.64-20.2-.97-30.34 1.21-18.48 13.88-43.13 5.82-60.9-.87-1.92-3.4-4.27-4.2-6.2-2.02-4.82-.44-11.2-.65-16.39-.25-6.07-1.57-12.15-.97-18.27.21-6.16-.3-12.81.65-18.93 2.47-16.01 12.03-36.05 5.82-52.04-1.36-3.5-5.19-6.87-5.82-10.41-.7-3.85.51-9.14.32-13.29-.46-10.09-1.64-20.2-.97-30.34.62-9.55 4.31-20.75 6.61-31.8h.6c-2.27 10.83-5.99 21.72-6.56 32.24-.54 9.74.62 19.53.97 29.24.14 4.16-1.09 10.17-.33 13.95.58 2.87 4 5.74 5.18 8.41 8.22 18.7-4.74 42.65-5.82 61.79-.22 3.71 0 7.48.32 11.18l.32 32c17.06 22.23.63 47.09-.64 70.21-.54 9.73.62 19.52.97 29.23.14 4.17-1.09 10.17-.33 13.95.58 2.87 4 5.74 5.18 8.42 7.09 16.12-1.57 36.15-4.78 53.63ZM56.69 166.68v2.25a10.6 10.6 0 0 1-1.79 2.5l1.79-4.75Z" fill="none"/><path d="M33.72 258.35c4.21-2.78 2.82-7.03 3.56-10.63 3.91-19.03 9.52-38.75-3.24-56.69l-.32-34.22c.77-3.17-1.03-9 0-11.84.17-.49 2.51-2.1 2.91-3.33.64-1.96.56-5.35 1.01-7.53 3.95-18.97 9.13-38.61-3.6-56.47l-.32-46.06c4.21-2.78 2.82-7.03 3.56-10.63C38.7 14.02 40.35 7 41.25 0H40.2c-.91 7.87-2.54 15.96-3.89 22.5-.52 2.47.53 6.07-2.43 7.86-.53-2.54-.48-5.08-.49-7.64 0-4.31-.53-16.92.65-20.37.21-.62 1.78-1.43 2.41-2.35h-.9c-.4.5-.94 1.03-1.19 1.46l-.64-.22.03-1.24h-1.18c-.01 1.64.03 2.9.18 3.45l-2.59.89 2.1-.11c.63 10.56-.9 21.35.16 32-3.31 3.37-8.8 3.16-13.58 4.87 4.62-.89 9.78-1.22 13.1-3.87l.48 6.31c-3.37.29-7.04-.18-10.02 1.33 3.15-.4 6.3-1.34 9.54-.78l.48 4.76c-1.7.24-3.01-.46-5.01-.33-1.95.13-5.65 1.76-7.6 1.11-3.02-1.01-3.68-9.1-3.23-11.19 1.03-4.74 6.87-4.51 9.05-7.08 4.77-5.61 3.22-19.34 3.65-26.13.11-1.72.45-3.48.69-5.23h-.65c-.41 4.89-1.2 12.31-.96 15.3.1 1.28-2.86 2.49-3.33 1.31-.41-1.03-1.45-2.42-1.66-3.63-.86-5.07 2.38-8.53 3.11-12.98h-.52c-.02.82-.12 1.61-.33 2.35-.52 1.9-2.6 3.96-2.91 6.2-.7 5.09 3.27 9.9 2.59 14.84-.87 6.3-8.68 7.63-15.2 10.96-.01-1.21-.33-2.51-.32-3.77 5.9-2.43 10.13-2.8 11.32-8.08 1.15-5.16-2.81-9.54-1.94-13.51.34-1.58 3.04-4.12 3.55-5.76.31-.98.37-2.08.28-3.23h-.28c.04.51.05 1 0 1.46-.24 2.39-3.82 5.72-4.2 7.97-.48 2.87 1.6 5.64 1.98 8.35.88 6.24-1.34 10.37-10.71 11.92.01-1.4.31-2.86.32-4.21 5.95-1.51 5.84-7.07 5.5-10.74-.16-1.66-1.57-3.1-1.29-5.09.26-1.91 3.26-4.78 3.55-6.43.21-1.14.28-2.21.27-3.23h-.85c.06 1.02.06 2.16-.06 3.45-.14 1.51-2.91 3.81-3.24 5.54-.49 2.61 1.09 4.51 1.3 6.87.26 3-.36 8.29-5.5 8.97.05-5.87-.04-11.74 0-17.61l3.88-1.77c-1.21-.11-2.7 1.39-3.88.66-.13-.22-.12-4.64 0-4.87.05-.11 1.14-.6 2.06-1.24h-.92c-.33.16-.71.29-1.14.35V0H8.07c.47.92.67 1.85.42 2.79-.08.32.18.78-.64.44C7.58 2.07 7.08 1.01 6.43 0h-.85c5.4 9.01 1.28 21.19 2.59 30.69-2.5.99-.2.68 0 1.33 1.87 6-1.4 16.76 0 23.26-4.24 1.95-5.65 10.7-4.85 13.73.08.31-.17.77.65.44-.49-1.97.8-13.16 3.88-13.51l.64.22c.98 1.98-1.33 3.35-1.29 3.54.02.07 1.22.33 1.29 1.11.09.9-.13 8.44-.32 8.86-.15.34-2.16 1.19-2.59 1.77-3.62 4.98-1.12 12.53 1.62 17.39.24.41 1.26 1.26 1.29 1.44.29 1.36-.89 3.88 0 5.53-4.58-.65-5.81-5.72-6.14-8.41C1.7 82.14.92 76.64.41 71.44c-.91-9.2 4.88-17.85 4.85-27.02-.71-.14-.59.42-.65.67C3.38 50.89.86 58.81 0 65.45v7.98c.28 2.28.67 4.61.97 6.87.55 4.15-.11 9.63 2.67 13.51.93 1.29 5.39 3.29 4.85 4.21-.82 1.41-4.73-.63-5.49-1.33-1.21-1.12-2.2-4.05-3-7.58v2.22c.78 2.78 1.67 4.94 2.67 5.8 1.74 1.49 5.67 1.96 5.82 2.22.16.26.09 5.13 0 5.64 0 .06-.52.81-.48 1.11-3.43-2.01-6.03-4.83-8.01-7.96v1.01c1.24 2.05 2.67 3.91 4.29 5.51 2.69 2.65 5.89 2.49 3.4 6.75-1.89-2.03-5.33-4.39-7.69-6.63v.61c3.01 2.71 7.38 5.77 8.17 7.24.64 1.2.19 2.73.32 3.99-1.7-.94-1.9-3.34-2.91-4.65-1.37-1.79-3.45-3.4-5.58-4.97v1.07c3.68 2.83 7.16 5.84 8.17 10.32.56 2.47.89 23.08.32 25.25-.22.87-1.61.87-1.61 1.1s1.21.41 1.29.67c.67 2.07.04 5.34-.14 8.2-.07 1.17.53 2.05.14 3.2-.8 2.66 1.07 9.72 0 11.85-.11.22-1.62.65-1.94 1.11-2.7 3.89-2.95 8.79-2.91 13.06.82.34.56-.12.65-.44 1.03-3.91-.91-9.8 3.88-13.06l.64.22c.98 1.97-1.33 3.35-1.29 3.54.02.07 1.22.33 1.29 1.11.09.9-.13 8.43-.32 8.86-.18.4-2.45 1.31-3.23 3.32-1.72 4.4-1.17 10.09.97 14.39.37.75 2.49 2.5 2.58 2.88.31 1.26-.91 3.95 0 5.54-2.68.11-4.97-3.52-5.49-5.1C1.62 199.97.05 181.6.73 177.3c1.01-6.32 4.96-12.86 4.53-19.49L0 178.37v2.51c.86 7.29-.53 19.11 3.64 26.31 1.14 1.96 5.74 2.8 4.37 4.54-2.44.33-4.5-.96-5.66-2.32C1.5 208.4.7 205.74 0 202.3v2.39c.78 2.8 1.67 4.97 2.67 5.83 1.74 1.48 5.67 1.96 5.82 2.21.72 1.17-.79 4.95-.32 6.42.08.43-.35.35-.81.34-.76-.03-6.66-6.45-7.27-7.42-.03-.05-.06-.11-.09-.16v.78c1.21 1.89 2.63 3.7 4.29 5.36 2.88 2.87 5.52 2.26 3.72 6.97-1.98-2.05-5.59-4.51-8.01-6.83v.67c3.78 3.45 9.44 7.03 8.49 10.7-.08.32.18.78-.64.45-.89-3.9-4.27-6.81-7.85-9.64v.86c1.63 1.12 3.18 2.29 4.29 3.68 7.3 9.14 2.48 22.38 3.88 32.56-2.5.98-.2.67 0 1.32 1.87 6-1.4 16.76 0 23.26-4.24 1.96-5.65 10.71-4.85 13.73.08.32-.17.77.65.44-.49-1.96.8-13.16 3.88-13.51l.64.22c.98 1.98-1.33 3.36-1.29 3.55.02.07 1.22.33 1.29 1.1.09.9-.13 8.44-.32 8.86-.15.34-2.16 1.19-2.59 1.77-3.62 4.98-1.12 12.54 1.62 17.39.24.42 1.26 1.26 1.29 1.44.29 1.36-.89 3.88 0 5.53-4.58-.65-5.81-5.72-6.14-8.41-.65-5.25-1.43-10.75-1.94-15.95-.91-9.2 4.88-17.84 4.85-27.01-.71-.15-.59.41-.65.66-1.23 5.8-3.75 13.72-4.61 20.36v7.99c.28 2.27.67 4.6.97 6.86.55 4.15-.11 9.63 2.67 13.51.93 1.3 5.39 3.29 4.85 4.21-.82 1.42-4.73-.62-5.49-1.33-1.21-1.12-2.2-4.05-3-7.58v2.22c.78 2.78 1.67 4.94 2.67 5.8 1.74 1.49 5.67 1.96 5.82 2.22.16.26.09 5.13 0 5.64 0 .06-.52.81-.48 1.11-3.43-2-6.03-4.83-8.01-7.96v1.01c1.24 2.05 2.67 3.91 4.29 5.51 2.69 2.65 5.89 2.49 3.4 6.76-1.89-2.04-5.33-4.4-7.69-6.64v.61c3.01 2.71 7.38 5.77 8.17 7.24.64 1.2.19 2.73.32 3.99-1.7-.94-1.9-3.33-2.91-4.65-1.37-1.79-3.45-3.4-5.58-4.97v1.07c3.68 2.83 7.16 5.85 8.17 10.32.39 1.72.66 12.13.61 19.09h1c-.12-5.62.12-11.25 0-16.87l4.2-1.77-4.2.66c-.04-1.66.05-3.33 0-4.98 4.52-1.3 4.09-6.26 2.91-8.97-.36-.83-2.79-2.96-2.91-3.32-.66-1.94.09-6.34 0-8.53.97 4.11 5.31 8.13 6.47 12.07.59 2.02 1.34 9.17.97 11.07-.29 1.48-2.92 3.82-3.24 5.54-.49 2.61 1.09 4.51 1.3 6.86.22 2.51-.16 6.54-3.25 8.24h.96c3.01-2.33 2.88-6.36 2.61-9.34-.15-1.66-1.57-3.1-1.29-5.1.26-1.9 3.26-4.77 3.55-6.42.25-1.38-.58-9.07-.97-10.63-.65-2.63-7.39-10.98-6.14-12.84.32-.49 1.89-.19 2.26-.89 1.21-2.26-.51-12.71-.64-15.72.59-.92 2.37-.35 2.91-.56.53-.2.36-2.69.32-3.21-.1-1.29-2.07-8.32-2.91-9.08-.69-.62-2.73-.99-2.91-1.33-.12-.2-.08-3.44 0-3.87 3.66 2.02 7.42-.05 8.41 3.65.42 1.61-.22 4.63.32 6.2.26.76 1.81 1.71 1.94 2.22.35 1.33-1.18 3.03-1.29 4.21-.62 6.35-4.07 14.78-2.91 20.37 1.12 5.46 7.55 15.63 6.14 20.82-.51 1.89-3.54 4.91-3.88 6.64-.59 2.97 1.86 5.41 2.26 8.19.24 1.63.04 4.48-.83 6.69h.52c.99-2.45 1.04-5.54.64-7.57-.53-2.66-2.62-4.45-1.94-7.53.34-1.58 3.04-4.12 3.55-5.76 1.95-6.19-5.27-16.28-6.14-22.59-.82-5.91 3.54-15.17 4.2-21.7.29-2.82-1.29-2.64-1.61-3.77-.8-2.77.21-5.86-1.3-8.63 5.49-2.12 10.08 2.11 8.41 5.53-.41.84-2.31 1.7-2.59 3.1-.32 1.64 1.04 3.26.97 4.43-.42 6.97-3.43 13.48-2.91 20.82.48 6.74 5.55 15.75 3.88 21.93-.55 2.06-2.6 3.96-2.91 6.2-.67 4.86 3.31 10.51 2.51 15.54h.53c.09-.37.16-.75.2-1.15.09-.94-.87-4.88-.65-5.09.24-.24 2.1-.23 2.59.22.39.37.44 4.81.32 5.53 0 .09-.06.27-.13.49h.19c.79-6.02-.02-13.45.22-17.15.19-3.05 1.94-7.94 1.66-11.02-.2-2.27-2.16-5.01-2.26-7.53-.11-2.71 1.38-6.37.64-9.3 1.01-.26 1.64-1.11 2.27-1.44 3.35-1.76 2.49 3.54.32 3.88.38.27 1.34-.05 1.62.22.77.75-.27 13.94-.18 19.53.02 1.01-.16 2.29-.83 2.52-.67.23-1.43.9-1.43.9s.8-.1 1.16-.43c0 0 .85-.69.85.99 0 6.23-.32 12.53-.35 18.83h1.7l.37-21.74c4.52-4.03 3.62-16.12 1.94-21.04-.38-1.13-2.19-2.82-2.26-3.1-.15-.58.13-11.17.32-11.74.03-.08.47-.5.49-.78.37-.13.7.59.81.78 1.37 2.51 5.15 13.89 5.41 16.39 1.37 13.71-1.63 30.53-4.38 41.23h.88c.1-1.2.19-2.4.39-3.36 3.95-18.97 9.13-38.62-3.6-56.48l-.32-46.06Zm.32-142.62c4.52-4.03 3.62-16.11 1.94-21.04-.38-1.12-2.19-2.82-2.26-3.1-.15-.57.13-11.16.32-11.73.03-.08.47-.51.49-.78.37-.13.7.59.81.78 1.37 2.51 5.15 13.88 5.41 16.39 1.53 15.23-2.35 34.34-5.29 44.59-.26.93-.65 2.01-.86 2.35-.21.34-.8.92-1.04.78l.48-28.24Zm-.16-.77.16-21.37c.75-.36 1.18.61 1.3.88.53 1.29 1.26 8.16 1.29 9.75.02 1.56-.3 7.05-.65 8.41-.11.45-1.23 2.15-2.1 2.33ZM7.52 88.38c-.17-.12-1.8-2.88-1.94-3.21-1.64-4.09-1.66-11.01 1.78-14.5l.49 17.71c-.08-.03-.27.04-.33 0Zm.49 113.39c-3.29-2.9-3.76-7.74-3.4-11.41.17-1.63.74-6.02 3.56-6.42l-.16 17.83Zm-.49 113.39c-.17-.13-1.8-2.89-1.94-3.22-1.64-4.09-1.66-11 1.78-14.5l.49 17.72c-.08-.04-.27.03-.33 0Zm2.43 14.61c2.93 2.82 5.25 8.84-.16 10.85-.09-2.92-.1-5.92 0-8.86.02-.54-.35-1.63.16-1.99Zm24.09-9.41c.75-.36 1.18.61 1.3.89.53 1.28 1.26 8.16 1.29 9.74.02 1.56-.3 7.05-.65 8.41-.11.46-1.23 2.15-2.1 2.33l.16-21.37Zm-1.29-251.8c-.2.37-3.47 1.55-3.88 2.88-1.25 4 3.39 4.67 3.88 5.76.26.58.26 11.6 0 12.18-.05.1-1.95 1.27-2.27 1.44-.59.33-1.24.86-1.94 1l.17-16.06L27.57 102s0 1.11-1.97-1.1c-6.97-7.87-1.38-18.16-.61-26.8.17-1.94-1.11-3.96-.65-5.76.29-1.15 2.04-1.93 2.59-2.88.34-.59-.56-1.66.48-2.32.42-.27 4.65-.9 5.01 0 .06.73.47 5.17.33 5.42Zm0 1.11-.49 6.75c-3.57-1.84-3.99-5.16-.16-6.97l.65.22Zm-16.49 87.14c-.38 2.74 1.35 4.74 3.23 6.98 6.93-.61 14.99-4.15 12.77 4.1-1.69-.75-4.15-2.03-6.14-2.22-5.63-.54-8.45 2.43-11.48-2.54-1.29-2.12-.81-4.9-3.88-6.32h-.01c-.81-.36-1.03-.94-1.03-1.62 0-2.34.27-4.68.39-7.01 7.18-3.54 15.2-4.93 15.85-11.85.09-.94-.87-4.89-.65-5.09.24-.24 2.1-.24 2.59.22.39.37.44 4.81.32 5.53-.11.67-1.92 5.78-2.26 6.43-1.55 2.92-5.9 2.86-8.09 5.09-1.29 1.31-1.81 3.35-1.88 5.29-.04 1.09.39 1.74.27 3.01Zm12.93 31.12c.6 1.32 3.36 2.21 3.56 2.66.26.58.26 11.59 0 12.18-.05.1-1.99 1.29-2.27 1.44-.52.27-1.02.53-1.45.88-.64-.05.48-5.38.48-6.09.04-3.21-.53-6.64-.8-9.85l-1.14 26.24-.64.22c-4.01-3.04-4.9-7.93-4.85-11.96.06-5.28 2.42-10.69 2.91-15.94.18-2.01-1.12-4.19-.65-5.98.26-.98 2.11-2.09 2.59-2.88.33-.55-.55-1.75.48-2.33.6-.32 4.19-.65 5.01-.22-.01 1.13.63 5.05.33 5.65-.64 1.26-5.67 1.29-3.56 5.98Zm3.56-4.87-.49 6.75c-3.5-1.89-4.04-5.13-.16-6.98l.65.23Zm-4.39 59.02c.1 1.27-2.86 2.48-3.33 1.3-.41-1.03-1.45-2.42-1.66-3.63-1.01-5.99 3.7-9.72 3.23-15.5-.29-3.71-3.17-7.5-3.23-11.3.46.99 3.86 3.07 4.2 3.55.24.32 1.89 5.46 1.94 5.98.25 2.19-1.49 15.35-1.15 19.6ZM9.79 228.01c.09-.17 2.71-1.27 3.23-2.43.85-1.9.32-5.23-.64-7.09-.37-.7-2.51-2.64-2.59-2.88-.68-1.99.09-6.5 0-8.75.83 4.23 4.18 8.26 5.37 12.29.59 2.01 2.66 4.67 2.07 11.08-.14 1.5-2.91 3.8-3.24 5.53-.49 2.62 1.09 4.51 1.3 6.87.26 3-.36 8.29-5.5 8.97.05-5.87-.04-11.74 0-17.61l3.88-1.77c-1.21-.11-2.7 1.39-3.88.66-.13-.22-.12-4.64 0-4.87Zm-.16-11.62c1.16-.42 3.34 4.93 3.39 5.42.17 1.69-.2 4.86-3.23 5.32l-.16-10.74ZM9.79 93.7c.97 4.11 5.31 8.12 6.47 12.07.59 2.01 1.34 9.17.97 11.07-.29 1.48-2.92 3.81-3.24 5.54-.49 2.61 1.09 4.5 1.3 6.86.26 3.02-.32 8.26-5.5 8.97-.16-5.86.12-11.74 0-17.6l4.2-1.78-4.2.67c-.04-1.66.05-3.33 0-4.98 4.52-1.31 4.09-6.26 2.91-8.97-.36-.83-2.79-2.97-2.91-3.33-.66-1.93.09-6.33 0-8.52Zm2.59-17.16c.59-.92 2.37-.36 2.91-.56.53-.2.36-2.69.32-3.21-.1-1.29-2.07-8.32-2.91-9.08-.69-.62-2.73-.99-2.91-1.33-.12-.2-.08-3.44 0-3.87 3.66 2.02 7.42-.05 8.41 3.65.42 1.61-.22 4.63.32 6.2.26.76 1.81 1.71 1.94 2.22.35 1.32-1.18 3.03-1.29 4.2-.62 6.36-4.07 14.79-2.91 20.38 1.12 5.46 7.55 15.63 6.14 20.81-.51 1.9-3.54 4.92-3.88 6.65-.59 2.97 1.86 5.41 2.26 8.19.33 2.3-.2 7.06-2.26 8.97-1.6 1.49-6.04 2.47-8.25 3.54-1.18-.26-.14-3.82-.16-4.42 5.96-1.63 5.84-7.01 5.5-10.75-.15-1.65-1.57-3.09-1.29-5.09.26-1.9 3.26-4.78 3.55-6.42.25-1.38-.58-9.07-.97-10.63-.65-2.63-7.39-10.99-6.14-12.85.32-.48 1.89-.18 2.26-.88 1.21-2.26-.51-12.71-.64-15.72Zm-1.78-13.4c2.97-.14 4.95 10.83 4.36 12.62-2.13-.72-1.57-5.88-5.17-6.86.04-1.09-.55-5.7.81-5.76Zm14.06 9.85c-.42 6.97-3.43 13.47-2.91 20.82.48 6.74 5.55 15.75 3.88 21.92-.55 2.06-2.6 3.97-2.91 6.2-.83 6.04 5.49 13.27.97 19.05-1.2 1.53-11.15 5.85-13.9 6.53.06-.95-.31-2.91.32-3.65.61-.72 6.95-2.21 8.73-3.88 2.52-2.36 2.83-7.24 2.27-10.07-.53-2.66-2.62-4.45-1.94-7.53.34-1.58 3.04-4.12 3.55-5.76 1.95-6.19-5.27-16.28-6.14-22.59-.82-5.91 3.54-15.17 4.2-21.7.29-2.82-1.29-2.64-1.61-3.77-.8-2.77.21-5.86-1.3-8.63 5.49-2.12 10.08 2.11 8.41 5.53-.41.84-2.31 1.7-2.59 3.1-.32 1.64 1.04 3.26.97 4.43ZM9.79 157.7c-.22-.85 1.37-.05 1.45 0 2.25 1.46 1.89 4.21 3.08 6.09 2.98 4.71 7.24 1.57 12.77 2.55.68.12 5.17 1.99 5.33 2.32.39.78-.03 5.66 0 6.98-1.06-.39-4.91.54-5.33.44-.37-.09-2.08-3.75-4.85-3.99-2.46-.2-8.97 2.08-11.8-.66-1.64-1.58-.08-10.96-.65-13.73Zm14.87 28.9c-.46 6.91-3.43 13.29-2.91 20.59.49 6.71 5.56 15.79 3.88 21.93-.52 1.9-2.6 3.96-2.91 6.2-.7 5.09 3.27 9.9 2.59 14.84-.87 6.3-8.68 7.63-15.2 10.96-.01-1.21-.33-2.51-.32-3.77 5.9-2.42 10.13-2.8 11.32-8.08 1.15-5.16-2.81-9.54-1.94-13.51.34-1.58 3.04-4.12 3.55-5.75 1.95-6.2-5.27-16.28-6.14-22.59-.82-5.92 3.54-15.18 4.2-21.71.29-2.82-1.29-2.64-1.61-3.76-.81-2.82.19-5.86-1.3-8.64 5.49-2.12 10.09 2.12 8.41 5.54-.44.9-2.33 1.76-2.59 3.32-.25 1.56 1.05 3.22.97 4.43Zm-9.05 54.92c-.16-1.65-1.57-3.1-1.29-5.09.26-1.9 3.26-4.78 3.55-6.42 1.51-8.52-3.56-13.09-6.46-20.16-2.05-4.97.93-2.93 1.61-4.21 1.53-2.87-1.31-12.72 0-16.27.32.03 1.74.05 1.94 0 .17-.05.5.09.65-.11.59-.77-1.08-13.85-5.82-13.4.01-1.22-.22-2.85 0-3.99 4.16 2.12 7.37-.19 8.41 3.88.4 1.57-.19 4.48.32 5.98.26.76 1.8 1.69 1.94 2.21.33 1.23-1.19 3.05-1.29 4.21-.54 5.84-3.69 13.52-3.24 18.38.57 6.06 7.39 15.99 6.79 21.7-.24 2.39-3.82 5.72-4.2 7.98-.48 2.86 1.6 5.63 1.98 8.34.88 6.24-1.34 10.37-10.71 11.92.01-1.4.31-2.85.32-4.21 5.95-1.51 5.84-7.07 5.5-10.74Zm-3.56-57.58c-.3-.48-2.2-1.61-2.26-1.77-.35-.83 0-4.46 0-5.65.58-.05 1.16.12 1.62.34 2.52 1.21 3.9 9.91 3.55 12.29-1.76-1.06-1.76-3.41-2.91-5.21ZM9.95 103c2.93 2.82 5.25 8.84-.16 10.85-.09-2.92-.1-5.92 0-8.86.02-.54-.35-1.63.16-1.99Zm2.75 86.15s-.94.26-.97.33c-.19.51.64 1.6.65 1.99.05 4.58-.23 9.16.32 13.73l-2.91 1c-.21-7.72.18-15.43-.33-23.14 3.22.67 3.72 4.3 3.24 6.09Zm-2.59 72.41c7.25-3.56 15.19-4.84 15.85-11.85.09-.94-.87-4.88-.65-5.09.24-.23 2.1-.23 2.59.22.39.37.45 4.82.32 5.54-.08.49-2.37 6.75-2.59 7.09-1.16 1.82-6.03 2.73-7.76 4.42-2.96 2.91-2.49 12.6 1.62 14.95 1.69.97 6.92-1.21 9.54-1.1 4.74.19 3.34 3.29 3.23 5.53-1.69-.75-4.15-2.02-6.14-2.21-5.63-.55-8.45 2.43-11.48-2.55-1.39-2.28-.73-5.53-4.85-6.53-.03-2.8.34-5.65.32-8.42Zm17.79-132.1c.11.74-.19 1.49-1.72 1.34-1.82-.17-2.66-3.55-2.81-4.44-1.01-5.98 3.7-9.71 3.23-15.5-.29-3.7-2.79-8.64-3.23-11.29.51 1.08 3.67 3.43 4.2 3.54.23.3 1.89 5.47 1.94 5.98.24 2.27-2.25 16.01-1.61 20.37ZM10.11 34.79c7.25-3.56 15.19-4.85 15.85-11.85.09-.94-.87-4.88-.65-5.09.24-.23 2.1-.23 2.59.22.39.37.45 4.82.32 5.54-.08.49-2.37 6.75-2.59 7.08-1.16 1.83-6.03 2.74-7.76 4.43-2.96 2.91-2.49 12.6 1.62 14.95 1.69.97 6.92-1.21 9.54-1.11 4.74.2 3.34 3.3 3.23 5.54-1.69-.75-4.15-2.02-6.14-2.21-5.63-.55-8.45 2.43-11.48-2.55-1.39-2.28-.73-5.53-4.85-6.53-.03-2.8.34-5.65.32-8.42Zm-.32 9.52c-.22-.85 1.39-.04 1.45 0 2.19 1.5 1.89 4.22 3.08 6.09 2.96 4.69 7.22 1.57 12.77 2.55.7.12 5.15 1.94 5.33 2.33.16.32.24 6.56 0 6.86-.15.2-.47.07-.64.11-.23.06-4.47.5-4.69.44-.37-.09-2.11-3.75-4.85-3.98-2.53-.21-8.97 2.08-11.8-.67-.15-.14-.64-.52-.65-.55-.77-1.86.03-10.51 0-13.18Zm-.33 25.25c2.4.35 4 4.45 3.56 5.65-.21.59-1.27.82-1.29.88-.21.54.65 1.48.65 1.77-.07 4.65-.12 9.32.32 13.96l-2.91.99c-.04-1.47-.31-2.97-.33-4.43-.07-6.22-.16-12.62 0-18.82Zm3.56 232.42c-.21.59-1.27.82-1.29.88-.21.54.65 1.49.65 1.78-.07 4.65-.12 9.31.32 13.95l-2.91.99c-.04-1.47-.31-2.97-.33-4.42-.07-6.22-.16-12.63 0-18.83 2.4.35 4 4.45 3.56 5.65Zm-2.42-12.07c2.97-.14 4.95 10.83 4.36 12.62-2.13-.72-1.57-5.88-5.17-6.86.04-1.09-.55-5.7.81-5.76Zm11.64-4.43c-2.53-.21-8.97 2.08-11.8-.66-.15-.15-.64-.52-.65-.56-.77-1.86.03-10.51 0-13.17-.22-.86 1.39-.05 1.45 0 2.19 1.49 1.89 4.21 3.08 6.09 2.96 4.68 7.22 1.57 12.77 2.54.7.12 5.15 1.94 5.33 2.33.16.32.24 6.56 0 6.86-.15.2-.47.07-.64.11-.23.06-4.47.5-4.69.45-.37-.09-2.11-3.76-4.85-3.99Zm7.27 50.38c.24 2.27-2.25 16.02-1.61 20.38.11.73-.19 1.48-1.72 1.33-1.82-.17-2.66-3.55-2.81-4.44-1.01-5.98 3.7-9.71 3.23-15.5-.29-3.7-2.79-8.63-3.23-11.29.51 1.08 3.67 3.43 4.2 3.54.23.3 1.89 5.48 1.94 5.98Zm3.24-19.71c-.05.1-1.95 1.27-2.27 1.44-.59.33-1.24.86-1.94 1l.17-16.06-1.14 26.24s0 1.11-1.97-1.1c-6.97-7.87-1.38-18.16-.61-26.8.17-1.93-1.11-3.96-.65-5.76.29-1.14 2.04-1.93 2.59-2.88.34-.58-.56-1.66.48-2.32.42-.27 4.65-.9 5.01 0 .06.73.47 5.17.33 5.42-.2.37-3.47 1.55-3.88 2.88-1.25 4 3.39 4.68 3.88 5.76.26.58.26 11.6 0 12.18Zm0-19.71-.49 6.76c-3.57-1.84-3.99-5.17-.16-6.98l.65.22Zm-1.62-88.14c.38.27 1.34-.05 1.62.22.91.89-.7 19.09 0 21.71l-2.59.88 2.1-.11c.63 10.56-.9 21.35.16 32-3.31 3.37-8.8 3.16-13.58 4.87 4.62-.89 9.78-1.21 13.1-3.87l.48 6.31c-3.37.29-7.04-.18-10.02 1.33 3.15-.4 6.3-1.33 9.54-.78l.48 4.77c-1.7.23-3.01-.47-5.01-.34-1.95.13-5.65 1.76-7.6 1.11-3.02-1.01-3.68-9.09-3.23-11.18 1.03-4.75 6.87-4.52 9.05-7.09 4.77-5.61 3.22-19.33 3.65-26.13.18-2.98 1.11-6.09.88-9.08-.19-2.51-2.16-5.13-2.26-7.75-.11-2.72 1.37-6.37.64-9.3 1.01-.27 1.64-1.11 2.27-1.44 3.35-1.76 2.49 3.54.32 3.87Zm0-113.38c.38.26 1.34-.05 1.62.22.77.75-.27 13.93-.18 19.53.02 1.01-.16 2.29-.83 2.52-.67.23-1.43.9-1.43.9s.8-.1 1.16-.43c0 0 .85-.69.85.99 0 10.24-.87 20.66.1 30.97-3.31 3.39-8.83 3.12-13.58 4.87 4.89-.81 9.68-1.42 13.42-3.88l.1 3.84s.33 1.82.06 2.36c-.26.53-.7.53-.97 0h.02c-.16-.39-1.94-.39-3.55 0h-.02l-5.5 1.44c7.42-1.06 11.34-2.81 10.02 4.21-5.31-2.22-11.49 3.17-14.55-1.33-.88-1.29-.75-2.97-1.29-4.32-.25-1.16-.06-1.5-.07-2.2-.04-2.84.35-5.07 4.11-7.32.85-.51 3.08-1.01 3.88-1.55 5.93-3.95 3.62-19.47 4-25.41.19-3.06 1.94-7.94 1.66-11.02-.2-2.28-2.16-5.01-2.26-7.53-.11-2.71 1.38-6.38.64-9.3 1.01-.26 1.64-1.11 2.27-1.44 3.35-1.76 2.49 3.54.32 3.88Zm2.26 154.57c0-4.31-.53-16.92.65-20.37.24-.69 2.16-1.61 2.59-2.66 1.11-2.69.36-15.43-.65-18.38-.38-1.12-2.19-2.82-2.26-3.1-.17-.63.12-10.93.32-11.74.03-.12.49-.67.49-.99.37.22.66.69.81.99 1.56 3.24 4.86 13.32 5.24 16.39 1.4 11.51-1.86 28.01-4.27 39.64-.52 2.48.53 6.07-2.43 7.86-.53-2.54-.48-5.08-.49-7.64Zm.33-21.48.48-21.37c.56.03 1.03.94 1.14 1.22.54 1.39 1.26 8.08 1.29 9.74.02 1.58-.29 7.04-.65 8.42-.17.67-1.24 1.56-1.62 2.21l-.64-.22Z" fill="none"/><path d="M56.69 225.73v1.06c-5.53-4.97-4.21-9.01-5.61-17.38-2.15-12.9-8.57-23.48-9.92-37.43-.49-4.99-.11-10.16-.33-15.17l.81-15.28.16 15.28c.27 4.45-.35 8.96 0 13.4.38 4.7 2.45 12.68 3.7 17.16.93 3.37 3.08 6.94 4.06 10.08 2.24 7.14 1.9 22.27 7.13 28.28ZM56.69 179.81v.89c-.89 1.12-1.67 1.93-2.11 2.02-3.56.76-6.13-3.76-5.99-5.64 2.21.68 2.22 5.9 5.66 5.2.53-.11 1.44-1.11 2.44-2.47ZM56.69 173.85v1.14c-.44.52-.91 1.04-1.47 1.53l1.47-2.67ZM56.69 287.78v.83c-.99 1.02-2.3 1.6-4.38.86-1.52-.55-1.35-2.65-1.61-3.77.88-.22 1.15 5.96 5.33 2.77.24-.18.45-.42.66-.69ZM56.69 230.15v1.43c-4.9-2.97-8.08-7.4-9.07-11.76.52-.66 1.8 3.54 1.94 3.76 1.43 2.29 4.04 4.6 7.13 6.57ZM56.69 201.46v8.41c-.2-2.76-.2-5.61 0-8.41ZM56.69 257.07v.91c-.21-.29-.43-.55-.66-.74-.66-.52-2.15-1.27-3.07-.77-.7.42-.46 1.96-.81 2.55-4.3 7.21-2.71 17.25-.32 24.8.1.31.75.8 1.29.88-2.53.8-1.66-2.15-1.94-2.87-2.64-6.78-2.59-12.25-2.26-19.27 2.65-1.86 1.89-8.65 6.95-6.09.3.15.57.36.82.6ZM0 337.34v1.25c6.69 7.67 3.76 17.16 5.33 25.67h.3c-.65-8.52 1.4-20.23-5.54-26.84-.03-.02-.06-.05-.09-.07ZM1.38 225.35c-.39-.47-.86-.92-1.38-1.35v1.26c7.26 8.47 3.22 18.65 5.91 27.99-1.33-8.19 1.44-20.63-4.53-27.9Z" fill="none"/><path d="M56.69 267.75v2.95c-.13.25-.29.46-.5.61.12-1.08.5-5.12-2.26-4.65-2.94.49-1.19 8.76-1.94 10.4-1.15-1.72-1.52-11.23 2.59-10.85.7.07 1.63.88 2.11 1.54ZM56.69 279.96v2.42c-.45.85-1.03 1.67-1.79 2.44l1.79-4.86ZM56.69 251.94v.91c-1.14-1.11-2.41-1.75-3.73-1.47-.87.18-3.13 3.61-4.04 4.31-.22.17-1.15.99-1.3.23 2.38-2.44 4.12-7.43 9.06-3.99h.01ZM56.69 233.02v.25c-.33-.27-.65-.55-.98-.83.33.19.65.38.98.58ZM56.69 238.13v.9c-1.86-1.66-3.45-2.89-4.05-2.93-2.72-.2-5.05 6.1-4.69 7.41-2.38 1.44.98-5.78 1.29-6.2.6-.81 2.22-1.84 3.72-1.66.67.08 2.07 1.07 3.73 2.48ZM56.69 143.65v.92c-.7-.99-1.6-1.64-2.76-1.71-1.89-.11-1.36 2.03-1.78 2.77-.41.71-2.11 2.51-2.26 3.1-.56 2.13.07 5.81 0 8.08-.64 3.14-.17 6.31.64 9.42.15.56 1.12 1.63 1.3 2.21.31 1.01-.67 2.23.97 2.88-2.34.29-1.27-1.97-1.62-2.88-1.52-4-2.96-7.35-2.26-11.63.48-2.28-.55-5.48 0-7.64.3-1.19 1.92-2.45 2.58-3.54.56-.9-.32-3.52 2.75-3.21.97.1 1.77.54 2.44 1.23ZM49.73 288.58c-.66.31-1.7-4.2-1.94-4.87.89.8 2.14 3.21 2.1 4.1-.02.26.12.58-.16.77ZM56.69 116.75v1.45c-4.9-2.96-8.08-7.38-9.07-11.77 1.44.85 1.24 2.65 1.94 3.77 1.03 1.63 3.99 4.33 7.13 6.55ZM56.69 313.54V323c-.27-3.12-.26-6.33 0-9.46ZM2.48 32.69c.23-9.68.57-18.59-2.39-28.35A7.71 7.71 0 0 0 0 4.08v2.69c2.65 11.79 2.37 33.15 0 45.12v3.95c.69-2.2 1.34-4.5 1.7-7.21.67-4.92.66-10.83.78-15.94Z" fill="none"/><path d="M46.65 142.97c1.23 1.47 3.76-8.79 10.03-4.43 0 .01.01.01.01.02v1.06c-2.08-1.68-2.84-2.34-5.19-.41-6.27 5.17-5.98 11.22-5.83 17.6h.01l.97 22.7c3.01 8.15 6.76 8.34 10.04 5.54v.82c-2.12 1.31-4.78 1.68-8.1-.16-.09.11.5 2.2.65 2.44.59.93 3.23 1.75 2.43 2.32-4.56-1.51-3.21-4.64-4.05-7.19-.44-1.35-1.63-2.97-1.94-4.43-1.48-7.16-1.15-14.81-1.29-22.04.31-1.93.35-3.94.38-5.94.02-2.01.03-4.01.27-5.9.29-2.35 3.83-10.11 5.82-11.96 2.19-2.05 4.17-1.25 5.83.24v1.55c-1.03-.95-2.14-1.91-3.08-2.79-1.67-.16-6.74 9.4-6.96 10.96Z" fill="none"/><path d="M56.69 149.79v.9c-.49-.87-1.24-1.65-2.44-2.29-2.24 1.22-1.73 3.29-2.42 4.98-.97.64-.12-5.55 2.42-5.42 1.03.05 1.83.79 2.44 1.83ZM56.69 119.5v.65c-.53-.49-.98-1-1.31-1.54.43.3.87.6 1.31.89ZM56.69 124.73v.92c-1.86-1.66-3.45-2.89-4.05-2.94-2.81-.25-3.29 3.64-3.72 4.54-.46.95-2.13 2.13-.97 2.88-.24.54-1.29-.18-1.3-.22-.06-.31 2.38-5.7 2.59-5.98.62-.84 2.2-1.85 3.72-1.66.67.08 2.08 1.07 3.73 2.46ZM49.56 173.09l-.64 1.11-1.13-4.1 1.77 2.99zM56.03 164.45c-1.16 2.12-1.06 4.7-3.88 1.33l1.78 1.22c.64-.03.81-2.77 2.1-2.55ZM56.69 298.48v.78c-2.25 1.48-4.78 1.69-8.1-.38.14.63.33 2.15.65 2.66.59.92 3.23 1.74 2.43 2.32-1.15-.64-2.46-1.09-3.08-2.1-.94-1.55-3.21-10.75-3.55-12.85-.38-2.31-.54-5.8-.65-8.19-.34-7.04.71-14.01.65-21.04.7 1.41.16 2.98.32 4.43.95 8.64-.49 19.76 1.29 28.57.93 4.59 4.41 9.93 10.04 5.8ZM56.03 277.84c-.51.6-.79 3.11-2.1 2.99l-1.78-1.66 1.78 1.22c.64-.04.81-2.77 2.1-2.55ZM54.09 175.97c-3.12 1.02-3.27-2.22-3.39-3.65 1.9 1.07.02 3.43 3.39 3.65ZM56.69 156.86v1.18c-.54.88-2.34.77-1.95-.01.06-.13 1.87.39 1.29-1.22-.53-1.31-2.29-3.02-3.25-2.45-.44.26-.58 1.11-.63 2.45l-.16 6.87c-.76-2.24-1.17-4.59-.49-6.87.57-1.92.41-2.69 1.05-2.92 1.19-.41 3.1 1.35 4.12 2.92h.01s.01.03.01.05ZM2.48 259.46c.23-9.68.56-18.59-2.39-28.35a7.71 7.71 0 0 0-.09-.26v2.69c2.65 11.79 2.37 33.15 0 45.12v3.95c.69-2.2 1.34-4.5 1.7-7.21.67-4.92.66-10.83.78-15.94Z" fill="none"/><path d="M56.69 293.47v.85c-.11.11-.22.24-.34.35-4.89 4.56-7.95-2.84-8.4-5.54.33-.35.68-.39.97 0 1.31 1.85 2.42 9.81 7.11 5.1.24-.24.44-.51.66-.76Z" fill="none"/><path d="M56.69 4.81c-2.23-1.35-4.09-3-5.56-4.81h-6.32c-2.27 10.83-5.99 21.72-6.56 32.24-.54 9.74.62 19.53.97 29.24.14 4.16-1.09 10.17-.33 13.95.58 2.87 4 5.74 5.18 8.41 8.22 18.7-4.74 42.65-5.82 61.79-.22 3.71 0 7.48.32 11.18l.32 32c17.06 22.23.63 47.09-.64 70.21-.54 9.73.62 19.52.97 29.23.14 4.17-1.09 10.17-.33 13.95.58 2.87 4 5.74 5.18 8.42 7.09 16.12-1.57 36.15-4.78 53.63h8.68c1-1.96 2.08-3.71 2.89-4.47 2.19-2.05 4.17-1.25 5.83.24v-7.6c-1.86-1.65-3.45-2.89-4.05-2.94-2.81-.24-3.29 3.64-3.72 4.54-.46.95-2.13 2.13-.97 2.88-.24.54-1.29-.18-1.3-.22-.06-.31 2.38-5.7 2.59-5.98.62-.84 2.2-1.85 3.72-1.66.67.08 2.08 1.07 3.73 2.47v-4.59c-.53-.49-.98-1-1.31-1.54.43.3.87.6 1.31.9v-1.3c-4.9-2.96-8.08-7.39-9.07-11.78 1.44.86 1.24 2.65 1.94 3.77 1.03 1.63 3.99 4.33 7.13 6.55v-3.91c-7.73-8.34-4.5-17.82-8.14-28.77-1.01-3.04-3.84-6.28-4.81-9.75-.99-3.54-3.38-18.04-2.58-21.04.08-.31-.18-.77.64-.44l2.27 19.93c3.44 7.68 6.98 15.23 8.4 23.26 1.5 8.42-1.18 10.88 4.22 15.69V323c-.27-3.12-.26-6.33 0-9.46v-14.28c-2.25 1.48-4.78 1.69-8.1-.38.14.63.33 2.15.65 2.66.59.92 3.23 1.74 2.43 2.32-1.15-.64-2.46-1.09-3.08-2.1-.94-1.55-3.21-10.75-3.55-12.85-.38-2.31-.54-5.8-.65-8.19-.34-7.04.71-14.01.65-21.04.7 1.41.16 2.98.32 4.43.95 8.64-.49 19.76 1.29 28.57.93 4.59 4.41 9.93 10.04 5.8v-4.16c-.11.11-.22.24-.34.35-4.89 4.56-7.95-2.84-8.4-5.54.33-.35.68-.39.97 0 1.31 1.85 2.42 9.81 7.11 5.1.24-.24.44-.51.66-.76v-4.86c-.99 1.02-2.3 1.6-4.38.86-1.52-.55-1.35-2.65-1.61-3.77.88-.22 1.15 5.96 5.33 2.77.24-.18.45-.42.66-.69v-5.4c-.45.85-1.03 1.67-1.79 2.44l1.79-4.86v-9.26c-.13.25-.29.46-.5.61.12-1.08.5-5.12-2.26-4.65-2.94.49-1.19 8.76-1.94 10.4-1.15-1.72-1.52-11.23 2.59-10.85.7.07 1.63.88 2.11 1.54v-3.48c-.41-.95-1.12-1.81-2.44-2.49-1.53-.22-2.31 5.85-3.07 4.54 1.19-6.18 3.73-5.6 5.51-3.06v-5.28c-.21-.29-.43-.55-.66-.74-.66-.52-2.15-1.27-3.07-.77-.7.42-.46 1.96-.81 2.55-4.3 7.21-2.71 17.25-.32 24.8.1.31.75.8 1.29.88-2.53.8-1.66-2.15-1.94-2.87-2.64-6.78-2.59-12.25-2.26-19.27 2.65-1.86 1.89-8.65 6.95-6.09.3.15.57.36.82.6v-4.22c-1.14-1.11-2.41-1.75-3.73-1.47-.87.18-3.13 3.61-4.04 4.31-.22.17-1.15.99-1.3.23 2.38-2.44 4.12-7.43 9.06-3.99h.01v-12.9c-1.86-1.66-3.45-2.89-4.05-2.93-2.72-.2-5.05 6.1-4.69 7.41-2.38 1.44.98-5.78 1.29-6.2.6-.81 2.22-1.84 3.72-1.66.67.08 2.07 1.07 3.73 2.48v-4.86c-.33-.27-.65-.55-.98-.83.33.19.65.38.98.58v-1.44c-4.9-2.97-8.08-7.4-9.07-11.76.52-.66 1.8 3.54 1.94 3.76 1.43 2.29 4.04 4.6 7.13 6.57v-3.36c-5.53-4.97-4.21-9.01-5.61-17.38-2.15-12.9-8.57-23.48-9.92-37.43-.49-4.99-.11-10.16-.33-15.17l.81-15.28.16 15.28c.27 4.45-.35 8.96 0 13.4.38 4.7 2.45 12.68 3.7 17.16.93 3.37 3.08 6.94 4.06 10.08 2.24 7.14 1.9 22.27 7.13 28.28v-15.86c-.2-2.76-.2-5.61 0-8.41v-15.59c-2.12 1.31-4.78 1.68-8.1-.16-.09.11.5 2.2.65 2.44.59.93 3.23 1.75 2.43 2.32-4.56-1.51-3.21-4.64-4.05-7.19-.44-1.35-1.63-2.97-1.94-4.43-1.48-7.16-1.15-14.81-1.29-22.04.31-1.93.35-3.94.38-5.94.02-2.01.03-4.01.27-5.9.29-2.35 3.83-10.11 5.82-11.96 2.19-2.05 4.17-1.25 5.83.24v-7.6c-1.86-1.66-3.45-2.89-4.05-2.94-2.81-.25-3.29 3.64-3.72 4.54-.46.95-2.13 2.13-.97 2.88-.24.54-1.29-.18-1.3-.22-.06-.31 2.38-5.7 2.59-5.98.62-.84 2.2-1.85 3.72-1.66.67.08 2.08 1.07 3.73 2.46v-4.58c-.53-.49-.98-1-1.31-1.54.43.3.87.6 1.31.89v-1.3c-4.9-2.96-8.08-7.38-9.07-11.77 1.44.85 1.24 2.65 1.94 3.77 1.03 1.63 3.99 4.33 7.13 6.55v-3.91c-7.73-8.35-4.5-17.82-8.14-28.77-1.01-3.04-3.84-6.28-4.81-9.75-.99-3.54-3.38-18.04-2.58-21.04.08-.31-.18-.77.64-.44l2.27 19.93c3.44 7.68 6.98 15.23 8.4 23.25 1.5 8.43-1.18 10.89 4.22 15.7V96.23c-.27-3.12-.26-6.33 0-9.46V72.49c-2.25 1.48-4.78 1.69-8.1-.38.14.63.33 2.15.65 2.65.59.93 3.23 1.75 2.43 2.33-1.15-.64-2.46-1.09-3.08-2.1-.94-1.56-3.21-10.75-3.55-12.85-.38-2.31-.54-5.8-.65-8.19-.34-7.04.71-14.02.65-21.04.7 1.41.16 2.97.32 4.43.95 8.64-.49 19.76 1.29 28.57.93 4.58 4.41 9.93 10.04 5.8v-4.17c-.11.12-.22.25-.34.36-4.89 4.56-7.95-2.84-8.4-5.54.33-.35.68-.4.97 0 1.31 1.85 2.42 9.8 7.11 5.1.24-.24.44-.51.66-.76v-4.86c-.99 1.02-2.3 1.6-4.38.85-1.52-.54-1.35-2.64-1.61-3.76.88-.22 1.15 5.96 5.33 2.77.24-.18.45-.42.66-.69v-5.4c-.45.85-1.03 1.67-1.79 2.43l1.79-4.86v-9.25c-.13.24-.29.46-.5.61.12-1.08.5-5.12-2.26-4.66-2.94.5-1.19 8.77-1.94 10.41-1.15-1.72-1.52-11.23 2.59-10.85.7.07 1.63.88 2.11 1.54v-3.49c-.41-.94-1.12-1.8-2.44-2.48-1.53-.22-2.31 5.85-3.07 4.54 1.19-6.18 3.73-5.6 5.51-3.06v-5.28c-.21-.3-.43-.55-.66-.74-.66-.53-2.15-1.27-3.07-.77-.7.42-.46 1.96-.81 2.54-4.3 7.22-2.71 17.26-.32 24.81.1.31.75.8 1.29.88-2.53.8-1.66-2.15-1.94-2.88-2.64-6.77-2.59-12.24-2.26-19.26 2.65-1.87 1.89-8.65 6.95-6.09.3.15.57.36.82.6v-4.22c-1.14-1.11-2.41-1.75-3.73-1.48-.87.19-3.13 3.62-4.04 4.32-.22.17-1.15.99-1.3.22 2.38-2.43 4.12-7.42 9.06-3.98h.01v-12.9c-1.86-1.66-3.45-2.89-4.05-2.94-2.72-.19-5.05 6.11-4.69 7.42-2.38 1.44.98-5.78 1.29-6.2.6-.81 2.22-1.84 3.72-1.66.67.08 2.07 1.07 3.73 2.48V6.5c-.33-.27-.65-.55-.98-.83.33.19.65.38.98.57V4.81Zm-4.86 340.13c.08.09.05.48-.16.55-.75-.77-1.72-.38-2.59 0-3.5 1.56-3.12 11.76-5.82 14.62l3.39-13.4c.38-1.16 4-3.15 5.18-1.77Zm.32-65.77 1.78 1.22c.64-.04.81-2.77 2.1-2.55-.51.6-.79 3.11-2.1 2.99l-1.78-1.66Zm-2.26 8.64c-.02.26.12.58-.16.77-.66.31-1.7-4.2-1.94-4.87.89.8 2.14 3.21 2.1 4.1Zm-6.31-33.78c-.5-.62.93-4.85 1.29-4.87.06.19.49.52.49.55.03.23-1.34 3.83-1.78 4.32Zm8.25-22.47c.08.09.05.47-.16.55-.64-.64-1.38-.49-2.27-.22-3.72 1.13-3.52 12.2-6.14 14.83l3.39-13.39c.38-1.16 4-3.16 5.18-1.77Zm0-113.39c.08.09.05.48-.16.55-.75-.77-1.72-.38-2.59 0-3.5 1.56-3.12 11.76-5.82 14.62l3.39-13.4c.38-1.16 4-3.15 5.18-1.77Zm.32-65.77 1.78 1.21c.64-.03.81-2.77 2.1-2.54-.51.6-.79 3.11-2.1 2.99l-1.78-1.66Zm-2.26 8.63c-.02.26.12.59-.16.78-.66.31-1.7-4.21-1.94-4.87.89.79 2.14 3.21 2.1 4.09Zm-6.31-33.77c-.5-.62.93-4.86 1.29-4.87.06.19.49.52.49.55.03.23-1.34 3.83-1.78 4.32Zm8.09-21.92c-.64-.64-1.38-.49-2.27-.22-3.72 1.13-3.52 12.2-6.14 14.83l3.39-13.39c.38-1.17 4-3.16 5.18-1.78.08.1.05.48-.16.56ZM56.69.02 56.67 0h-4.39c1.27 1.19 2.77 2.33 4.41 3.38V.02Z" fill="#231f20"/><path d="M38.31 364.25h-1.06c.1-1.2.19-2.4.39-3.36 3.95-18.97 9.13-38.62-3.6-56.48l-.32-46.06c4.21-2.78 2.82-7.03 3.56-10.63 3.91-19.03 9.52-38.75-3.24-56.69l-.32-34.22c.77-3.17-1.03-9 0-11.84.17-.49 2.51-2.1 2.91-3.33.64-1.96.56-5.35 1.01-7.53 3.95-18.97 9.13-38.61-3.6-56.47l-.32-46.06c4.21-2.78 2.82-7.03 3.56-10.63C38.7 14.02 40.35 7 41.25 0h2.96c-2.3 11.05-5.99 22.25-6.61 31.8-.67 10.14.51 20.25.97 30.34.19 4.15-1.02 9.44-.32 13.29.63 3.54 4.46 6.91 5.82 10.41 6.21 15.99-3.35 36.03-5.82 52.04-.95 6.12-.44 12.77-.65 18.93-.6 6.12.72 12.2.97 18.27.21 5.19-1.37 11.57.65 16.39.8 1.93 3.33 4.28 4.2 6.2 8.06 17.77-4.61 42.42-5.82 60.9-.67 10.14.51 20.25.97 30.34.19 4.15-1.02 9.44-.32 13.29.63 3.54 4.46 6.92 5.82 10.41 6.16 15.86-3.19 35.7-5.76 51.64Z" fill="#231f20"/><path d="M46.65 142.97c1.23 1.47 3.76-8.79 10.02-4.43l.02.01v-3.75c-1.03-.96-2.14-1.91-3.09-2.79-1.67-.16-6.74 9.4-6.95 10.96Z" fill="#231f20"/><path d="M51.5 145.63c.56-.9-.32-3.52 2.75-3.21.97.1 1.77.54 2.44 1.23v-4.03c-2.08-1.68-2.84-2.34-5.19-.41-6.27 5.17-5.98 11.22-5.83 17.6h.01l.97 22.7c3.01 8.15 6.76 8.34 10.04 5.54v-4.35c-.89 1.12-1.67 1.93-2.11 2.02-3.56.76-6.13-3.76-5.99-5.64 2.21.68 2.22 5.9 5.66 5.2.53-.11 1.44-1.11 2.44-2.47v-4.82c-.44.52-.91 1.04-1.47 1.53l1.47-2.67v-4.92a10.6 10.6 0 0 1-1.79 2.5l1.79-4.75v-8.64c-.54.88-2.34.77-1.95-.01.06-.13 1.87.39 1.29-1.22-.53-1.31-2.29-3.02-3.25-2.45-.44.26-.58 1.11-.63 2.45l-.16 6.87c-.76-2.24-1.17-4.59-.49-6.87.57-1.92.41-2.69 1.05-2.92 1.19-.41 3.1 1.35 4.12 2.92h.02v-6.12c-.49-.87-1.24-1.65-2.44-2.29-2.24 1.22-1.73 3.29-2.42 4.98-.97.64-.12-5.55 2.42-5.42 1.03.05 1.83.79 2.44 1.83v-5.22c-.7-.99-1.6-1.64-2.76-1.71-1.89-.11-1.36 2.03-1.78 2.77-.41.71-2.11 2.51-2.26 3.1-.56 2.13.07 5.81 0 8.08-.64 3.14-.17 6.31.64 9.42.15.56 1.12 1.63 1.3 2.21.31 1.01-.67 2.23.97 2.88-2.34.29-1.27-1.97-1.62-2.88-1.52-4-2.96-7.35-2.26-11.63.48-2.28-.55-5.48 0-7.64.3-1.19 1.92-2.45 2.58-3.54Zm.65 20.15 1.78 1.22c.64-.03.81-2.77 2.1-2.55-1.16 2.12-1.06 4.7-3.88 1.33Zm1.94 10.19c-3.12 1.02-3.27-2.22-3.39-3.65 1.9 1.07.02 3.43 3.39 3.65Zm-4.53-2.88-.64 1.11-1.13-4.1 1.77 2.99ZM34.04 2.35c-1.18 3.45-.65 16.06-.65 20.37 0 2.56-.04 5.1.49 7.64 2.96-1.79 1.91-5.39 2.43-7.86 1.36-6.54 2.99-14.63 3.9-22.5h-3.76c-.63.92-2.19 1.73-2.41 2.35ZM34.6 143.19c.21-.34.59-1.42.86-2.36 2.93-10.25 6.81-29.36 5.28-44.59-.25-2.5-4.03-13.87-5.41-16.39-.1-.19-.43-.91-.81-.78-.02.27-.46.7-.49.78-.19.57-.47 11.16-.32 11.74.07.28 1.88 1.98 2.26 3.1 1.68 4.92 2.57 17.01-1.94 21.04l-.49 28.24c.25.14.84-.44 1.05-.78ZM34.36 1.46c.25-.43.79-.96 1.18-1.46h-1.8l-.03 1.24.65.22Z" fill="#231f20"/><path d="M35.98 112.63c.34-1.36.67-6.86.65-8.42-.02-1.58-.76-8.46-1.29-9.74-.11-.27-.54-1.25-1.29-.89l-.16 21.37c.87-.18 1.99-1.87 2.1-2.33ZM5.58 111.97c1.01 1.32 1.21 3.71 2.91 4.65-.14-1.26.32-2.79-.32-3.99-.79-1.48-5.16-4.53-8.17-7.25V107c2.13 1.56 4.21 3.18 5.58 4.97ZM0 6.77v45.12C2.37 39.92 2.65 18.56 0 6.77ZM8.01 106.1c-.04-.3.48-1.05.49-1.11.09-.52.16-5.39 0-5.65-.15-.25-4.08-.73-5.82-2.21-1-.86-1.9-3.02-2.67-5.8v6.81c1.98 3.13 4.58 5.95 8.01 7.96Z" fill="#231f20"/><path d="M7.69 111.41c2.49-4.26-.7-4.11-3.4-6.75-1.63-1.6-3.05-3.46-4.29-5.51v5.63c2.36 2.24 5.8 4.61 7.69 6.64ZM8.49 2.79c.24-.94.05-1.87-.43-2.79H6.43c.65 1.01 1.15 2.07 1.41 3.23.82.33.56-.12.65-.44ZM5.26 44.42C5.29 53.59-.5 62.24.41 71.44c.51 5.2 1.29 10.7 1.94 15.94.33 2.7 1.56 7.76 6.14 8.42-.9-1.65.28-4.18 0-5.54-.04-.18-1.06-1.02-1.29-1.44-2.75-4.85-5.24-12.4-1.62-17.38.42-.58 2.44-1.43 2.59-1.77.19-.42.41-7.96.32-8.86-.07-.78-1.28-1.04-1.29-1.11-.04-.19 2.27-1.57 1.29-3.54l-.65-.22c-3.08.35-4.36 11.54-3.88 13.51-.82.33-.56-.13-.65-.44-.8-3.02.61-11.77 4.85-13.73-1.4-6.5 1.87-17.25 0-23.25-.2-.65-2.5-.34 0-1.33C6.85 21.19 10.97 9.02 5.57.01H2.39C7.01 7.4 4.66 18.82 5.9 26.5 3.38 17.69 6.82 8.16 1.17 0H0v4.08c.03.09.06.17.09.26 2.96 9.76 2.62 18.67 2.39 28.35-.12 5.12-.11 11.03-.78 15.94-.37 2.71-1.02 5.01-1.7 7.21v9.61c.86-6.64 3.38-14.57 4.61-20.36.05-.25-.07-.81.65-.66Z" fill="#231f20"/><path d="M8.49 98.02c.53-.92-3.92-2.91-4.85-4.21C.85 89.93 1.51 84.45.97 80.3c-.3-2.26-.69-4.59-.97-6.87v15.68c.8 3.53 1.79 6.46 3 7.58.76.71 4.67 2.75 5.5 1.33ZM1.06 156.81c.17 2.95-.34 5.7-1.06 8.4v-45.04c.83 3.75 1.52 8.85 1.7 11.95.49 8.23-1.8 16.47-.64 24.69ZM5.58 85.17c.13.33 1.76 3.09 1.94 3.21.05.04.25-.03.32 0l-.49-17.72c-3.44 3.5-3.42 10.41-1.78 14.51ZM32.26 167.89c-1.69-.75-4.15-2.03-6.14-2.22-5.63-.54-8.45 2.43-11.48-2.54-1.29-2.12-.81-4.9-3.88-6.32h-.01c-.81-.36-1.03-.94-1.03-1.62 0-2.34.27-4.68.39-7.01 7.18-3.54 15.2-4.93 15.85-11.85.09-.94-.87-4.89-.65-5.09.24-.24 2.1-.24 2.59.22.39.37.44 4.81.32 5.53-.11.67-1.92 5.78-2.26 6.43-1.55 2.92-5.9 2.86-8.09 5.09-1.29 1.31-1.81 3.35-1.88 5.29-.04 1.09.39 1.74.27 3.01-.38 2.74 1.35 4.74 3.23 6.98 6.93-.61 14.99-4.15 12.77 4.1ZM9.79 102.22c.12.36 2.55 2.49 2.91 3.32 1.18 2.71 1.61 7.67-2.91 8.97.06 1.66-.04 3.32 0 4.98l4.2-.66-4.2 1.77c.12 5.87-.16 11.74 0 17.61 5.18-.71 5.76-5.95 5.5-8.97-.21-2.36-1.78-4.25-1.29-6.87.32-1.72 2.95-4.06 3.23-5.54.37-1.9-.38-9.06-.97-11.07-1.16-3.94-5.5-7.96-6.47-12.07.1 2.19-.66 6.59 0 8.53ZM9.79 92.81l2.91-1c-.44-4.64-.38-9.3-.32-13.95 0-.29-.86-1.24-.65-1.77.02-.06 1.08-.3 1.29-.89.43-1.2-1.16-5.3-3.56-5.65-.16 6.2-.07 12.61 0 18.82.02 1.45.28 2.95.32 4.43Z" fill="#231f20"/><path d="M9.79 113.85c5.41-2.01 3.09-8.03.16-10.85-.51.36-.14 1.45-.16 1.99-.1 2.93-.09 5.93 0 8.86ZM25.63 31.36c-2.19 2.57-8.02 2.34-9.05 7.09-.45 2.09.21 10.17 3.23 11.18 1.95.65 5.64-.98 7.6-1.11 2-.13 3.31.57 5.01.33l-.49-4.76c-3.24-.56-6.39.38-9.54.78 2.98-1.51 6.65-1.04 10.02-1.33l-.49-6.31c-3.32 2.66-8.48 2.98-13.1 3.88 4.77-1.71 10.26-1.5 13.58-4.87-1.06-10.65.46-21.44-.16-32l-2.1.11 2.59-.89c-.15-.55-.19-1.81-.18-3.45h-2.6c-.24 1.75-.59 3.51-.69 5.23-.43 6.8 1.12 20.53-3.64 26.13ZM27.41 63.14c-1.04.66-.15 1.74-.49 2.33-.54.95-2.29 1.73-2.59 2.88-.46 1.79.82 3.82.65 5.76-.77 8.64-6.36 18.93.61 26.8 1.97 2.21 1.97 1.11 1.97 1.11l1.13-26.24-.16 16.06c.7-.14 1.34-.66 1.94-1 .31-.17 2.22-1.34 2.26-1.44.27-.58.26-11.6 0-12.18-.49-1.09-5.13-1.76-3.88-5.76.41-1.33 3.68-2.51 3.88-2.88.14-.25-.27-4.69-.32-5.43-.36-.9-4.6-.27-5.01 0Z" fill="#231f20"/><path d="M14.64 49.74c3.03 4.98 5.85 2 11.48 2.55 1.99.19 4.46 1.47 6.14 2.21.11-2.24 1.51-5.34-3.23-5.54-2.62-.11-7.85 2.07-9.54 1.11-4.11-2.35-4.58-12.04-1.62-14.95 1.73-1.7 6.59-2.6 7.76-4.43.21-.33 2.5-6.6 2.59-7.09.12-.72.07-5.17-.32-5.54-.49-.45-2.35-.45-2.59-.22-.22.21.74 4.15.65 5.09-.66 7-8.6 8.29-15.85 11.85.02 2.77-.35 5.62-.32 8.42 4.12 1.01 3.46 4.25 4.85 6.53Z" fill="#231f20"/><path d="M10.44 58.04c2.83 2.74 9.28.45 11.8.66 2.75.23 4.49 3.9 4.85 3.99.22.06 4.47-.39 4.69-.44.18-.04.49.09.65-.11.23-.3.16-6.54 0-6.87-.19-.39-4.64-2.2-5.34-2.33-5.55-.98-9.81 2.14-12.77-2.55-1.18-1.87-.88-4.6-3.07-6.09-.07-.05-1.68-.85-1.46 0 .04 2.66-.76 11.31 0 13.18.01.03.5.41.65.55ZM32.26 76.42l.49-6.75-.65-.22c-3.84 1.81-3.41 5.14.16 6.98Z" fill="#231f20"/><path d="M10.27 143.3c2.21-1.08 6.65-2.06 8.25-3.54 2.06-1.92 2.59-6.67 2.26-8.97-.4-2.79-2.85-5.22-2.26-8.19.34-1.73 3.37-4.75 3.88-6.64 1.41-5.19-5.02-15.36-6.14-20.82-1.15-5.59 2.3-14.02 2.91-20.37.11-1.18 1.64-2.88 1.29-4.21-.13-.51-1.68-1.46-1.94-2.21-.53-1.57.1-4.59-.32-6.2-.98-3.7-4.75-1.63-8.41-3.65-.08.43-.11 3.67 0 3.88.19.34 2.23.71 2.91 1.33.84.76 2.81 7.79 2.91 9.08.04.51.21 3.01-.32 3.21-.54.2-2.32-.36-2.91.55.13 3.01 1.86 13.46.65 15.72-.38.7-1.94.4-2.26.89-1.25 1.86 5.49 10.22 6.14 12.84.39 1.56 1.21 9.25.97 10.63-.29 1.65-3.29 4.52-3.56 6.42-.28 1.99 1.14 3.44 1.29 5.09.34 3.73.46 9.11-5.5 10.74.02.61-1.02 4.17.16 4.43ZM17.87 3.23c-.29 1.65-3.29 4.52-3.56 6.42-.28 1.99 1.14 3.44 1.29 5.09.34 3.67.45 9.23-5.5 10.74-.01 1.36-.31 2.81-.32 4.21 9.37-1.55 11.59-5.68 10.71-11.92-.38-2.71-2.46-5.49-1.98-8.35.38-2.26 3.96-5.59 4.2-7.97.05-.46.03-.95 0-1.46h-4.58c.01 1.02-.06 2.09-.26 3.23Z" fill="#231f20"/><path d="M22.72 3.23c-.51 1.64-3.21 4.18-3.56 5.76-.87 3.97 3.1 8.35 1.94 13.51-1.18 5.28-5.42 5.65-11.32 8.08 0 1.26.32 2.56.32 3.76 6.52-3.33 14.33-4.66 15.2-10.96.68-4.93-3.29-9.75-2.59-14.84.31-2.24 2.39-4.3 2.91-6.2.2-.74.3-1.53.33-2.35h-2.97c.09 1.15.04 2.25-.27 3.23Z" fill="#231f20"/><path d="M9.79 6.11c1.18.73 2.67-.77 3.88-.66L9.79 7.22c-.04 5.87.05 11.74 0 17.61 5.14-.68 5.76-5.97 5.5-8.97-.21-2.36-1.78-4.25-1.29-6.87.32-1.73 3.09-4.03 3.23-5.54.12-1.3.13-2.44.06-3.45h-5.44c-.92.64-2.01 1.13-2.06 1.24-.12.23-.13 4.65 0 4.87ZM14.96 75.76c.59-1.79-1.4-12.76-4.37-12.62-1.36.06-.77 4.67-.81 5.76 3.6.98 3.04 6.15 5.17 6.87ZM10.93 0H9.79v.35c.44-.07.81-.19 1.14-.35ZM23.69 140.98c4.52-5.78-1.8-13.01-.97-19.05.31-2.24 2.35-4.14 2.91-6.2 1.67-6.18-3.4-15.18-3.88-21.92-.52-7.35 2.49-13.85 2.91-20.82.07-1.17-1.3-2.79-.97-4.43.28-1.4 2.18-2.27 2.59-3.1 1.67-3.42-2.92-7.66-8.41-5.54 1.5 2.77.5 5.86 1.29 8.64.32 1.12 1.91.94 1.62 3.76-.67 6.53-5.02 15.79-4.2 21.7.87 6.31 8.09 16.4 6.14 22.59-.51 1.64-3.21 4.18-3.56 5.76-.67 3.09 1.41 4.87 1.94 7.53.56 2.83.26 7.71-2.26 10.08-1.78 1.67-8.12 3.15-8.73 3.88-.63.75-.26 2.7-.32 3.65 2.76-.68 12.71-5 13.91-6.53Z" fill="#231f20"/><path d="M29.51 109.09c-.05-.51-1.72-5.68-1.94-5.98-.53-.11-3.69-2.46-4.2-3.54.44 2.66 2.94 7.59 3.23 11.29.46 5.79-4.25 9.52-3.23 15.5.15.88.99 4.26 2.81 4.44 1.53.15 1.82-.6 1.72-1.34-.64-4.36 1.86-18.1 1.62-20.37ZM23.37 12.98c.21 1.21 1.25 2.6 1.66 3.63.47 1.18 3.43-.03 3.33-1.3-.24-2.99.55-10.42.96-15.3h-2.83c-.73 4.45-3.97 7.91-3.11 12.98ZM56.69 156.81v.05s-.01-.03-.01-.05h.01ZM49.22 364.25h4.11c.24-.02.49-.03.75 0h2.62v-2.68c-1.03-.96-2.14-1.91-3.09-2.79-.9-.09-2.8 2.67-4.39 5.47ZM36.31 249.27c2.41-11.63 5.68-28.13 4.27-39.64-.38-3.07-3.67-13.15-5.24-16.39-.15-.3-.44-.78-.81-1 0 .32-.45.87-.49 1-.2.8-.49 11.11-.32 11.74.07.28 1.88 1.98 2.26 3.1 1.01 2.94 1.75 15.68.65 18.38-.43 1.05-2.35 1.97-2.59 2.66-1.18 3.45-.65 16.06-.65 20.37 0 2.56-.04 5.1.49 7.64 2.96-1.79 1.91-5.39 2.43-7.86ZM40.75 323.02c-.25-2.5-4.03-13.87-5.41-16.39-.1-.19-.43-.91-.81-.78-.02.27-.46.7-.49.78-.19.57-.47 11.16-.32 11.74.07.28 1.88 1.98 2.26 3.1 1.68 4.92 2.57 17.01-1.94 21.04l-.37 21.75h2.7c2.75-10.7 5.76-27.53 4.38-41.24Z" fill="#231f20"/><path d="M35.98 226.02c.35-1.38.67-6.83.65-8.42-.03-1.66-.74-8.36-1.29-9.74-.11-.28-.57-1.18-1.13-1.22l-.49 21.37.65.22c.38-.65 1.44-1.54 1.62-2.21ZM35.98 339.4c.34-1.36.67-6.86.65-8.42-.02-1.58-.76-8.46-1.29-9.74-.11-.27-.54-1.25-1.29-.89l-.16 21.37c.87-.18 1.99-1.87 2.1-2.33ZM0 345.11c1.42 4.79 2.2 10.99 2.35 13.56.11 1.86.07 3.72-.04 5.58h3.02c-1.57-8.51 1.36-18-5.33-25.67v6.52ZM8.01 332.87c-.04-.3.48-1.05.49-1.11.09-.52.16-5.39 0-5.65-.15-.25-4.08-.73-5.82-2.21-1-.86-1.9-3.02-2.67-5.8v6.81c1.98 3.13 4.58 5.95 8.01 7.96ZM5.58 338.74c1.01 1.32 1.21 3.71 2.91 4.65-.14-1.26.32-2.79-.32-3.99-.79-1.48-5.16-4.53-8.17-7.25v1.62c2.13 1.56 4.21 3.18 5.58 4.97ZM0 233.54v45.12c2.37-11.97 2.65-33.33 0-45.12Z" fill="#231f20"/><path d="M7.69 338.19c2.49-4.26-.7-4.11-3.4-6.75-1.63-1.6-3.05-3.46-4.29-5.51v5.63c2.36 2.24 5.8 4.61 7.69 6.64ZM8.17 345.16c-1.01-4.48-4.5-7.49-8.17-10.33v2.5s.06.05.09.07c6.95 6.61 4.89 18.33 5.54 26.84h3.15c.05-6.96-.22-17.38-.61-19.09ZM8.49 324.79c.53-.92-3.92-2.91-4.85-4.21-2.79-3.88-2.13-9.36-2.67-13.51-.3-2.26-.69-4.59-.97-6.87v15.68c.8 3.53 1.79 6.46 3 7.58.76.71 4.67 2.75 5.5 1.33Z" fill="#231f20"/><path d="M5.26 271.2c.03 9.17-5.76 17.82-4.85 27.02.51 5.2 1.29 10.7 1.94 15.94.33 2.7 1.56 7.76 6.14 8.42-.9-1.65.28-4.18 0-5.54-.04-.18-1.06-1.02-1.29-1.44-2.75-4.85-5.24-12.4-1.62-17.38.42-.58 2.44-1.43 2.59-1.77.19-.42.41-7.96.32-8.86-.07-.78-1.28-1.04-1.29-1.11-.04-.19 2.27-1.57 1.29-3.54l-.65-.22c-3.08.35-4.36 11.54-3.88 13.51-.82.33-.56-.13-.65-.44-.8-3.02.61-11.77 4.85-13.73-1.4-6.5 1.87-17.25 0-23.25-.2-.65-2.5-.34 0-1.33-1.4-10.18 3.42-23.41-3.88-32.55-1.11-1.4-2.66-2.57-4.29-3.68v2.77c.52.43.99.88 1.38 1.35 5.97 7.27 3.2 19.71 4.53 27.9-2.68-9.34 1.35-19.52-5.91-27.99v5.58c.03.09.06.17.09.26 2.96 9.76 2.62 18.67 2.39 28.35-.12 5.12-.11 11.03-.78 15.94-.37 2.71-1.02 5.01-1.7 7.21v9.61c.86-6.64 3.38-14.57 4.61-20.36.05-.25-.07-.81.65-.66Z" fill="#231f20"/><path d="M7.85 230.01c.82.33.56-.12.65-.44.95-3.68-4.72-7.25-8.49-10.7v1.52c3.58 2.83 6.96 5.74 7.85 9.63ZM1.7 358.89c-.18-3.1-.87-8.2-1.7-11.95v17.31h1.69c.09-1.79.12-3.57.02-5.36ZM7.2 173.09c.02.07 1.22.33 1.29 1.11.09.9-.13 8.43-.32 8.86-.18.4-2.45 1.31-3.23 3.32-1.72 4.4-1.17 10.09.97 14.39.37.75 2.49 2.5 2.58 2.88.31 1.26-.91 3.95 0 5.54-2.68.11-4.97-3.52-5.49-5.1C1.62 199.97.05 181.6.73 177.3c1.01-6.32 4.96-12.86 4.53-19.49L0 178.37v-11.36c1.3-3.35 2.46-6.74 1.7-10.2-1.27-8.3 1.13-16.6.65-24.91-.15-2.58-.93-8.78-2.35-13.57v-6.52c7.33 8.4 3.11 18.98 5.91 28.06-1.42-8.57 1.8-21.98-5.82-29.23-.03-.02-.06-.05-.09-.07v-2.5c3.68 2.83 7.16 5.84 8.17 10.32.56 2.47.89 23.08.32 25.25-.22.87-1.61.87-1.61 1.1s1.21.41 1.29.67c.67 2.07.04 5.34-.14 8.2-.07 1.17.53 2.05.14 3.2-.8 2.66 1.07 9.72 0 11.85-.11.22-1.62.65-1.94 1.11-2.7 3.89-2.95 8.79-2.91 13.06.82.34.56-.12.65-.44 1.03-3.91-.91-9.8 3.88-13.06l.64.22c.98 1.97-1.33 3.35-1.29 3.54Z" fill="#231f20"/><path d="M8.01 211.73c1.37-1.74-3.23-2.59-4.37-4.54-4.17-7.2-2.79-19.03-3.64-26.31v21.42c.7 3.44 1.5 6.11 2.35 7.11 1.15 1.36 3.22 2.65 5.66 2.33Z" fill="#231f20"/><path d="M7.36 219.49c.46.02.89.09.81-.33-.47-1.47 1.04-5.25.32-6.42-.15-.25-4.08-.73-5.82-2.21-1-.86-1.9-3.03-2.67-5.82v7.22l.09.15c.61.97 6.51 7.39 7.28 7.42Z" fill="#231f20"/><path d="M4.29 218.05A30.952 30.952 0 0 1 0 212.69v5.5c2.42 2.32 6.03 4.79 8.01 6.84 1.8-4.71-.83-4.1-3.72-6.98ZM5.58 311.94c.13.33 1.76 3.09 1.94 3.21.05.04.25-.03.32 0l-.49-17.72c-3.44 3.5-3.42 10.41-1.78 14.51ZM4.61 190.36c-.37 3.66.11 8.5 3.4 11.41l.16-17.83c-2.82.4-3.39 4.79-3.56 6.42ZM31.47 344.43c-.36.33-1.16.43-1.16.43s.76-.67 1.43-.9c.67-.23.85-1.51.83-2.52-.09-5.6.95-18.78.18-19.53-.28-.27-1.24.05-1.62-.22 2.17-.34 3.03-5.64-.32-3.88-.63.33-1.26 1.18-2.26 1.44.73 2.92-.76 6.59-.65 9.3.1 2.52 2.06 5.25 2.26 7.53.28 3.08-1.47 7.96-1.66 11.02-.24 3.7.57 11.12-.22 17.15h3.69c.03-6.3.35-12.6.35-18.83 0-1.68-.85-.99-.85-.99Z" fill="#231f20"/><path d="M27.9 358.23c-.49-.45-2.35-.45-2.59-.22-.22.21.74 4.15.65 5.09-.04.4-.11.78-.19 1.15h2.33c.07-.23.11-.4.13-.49.12-.72.07-5.17-.32-5.54ZM32.57 114.67c.02 1.01-.16 2.29-.83 2.52-.67.23-1.43.9-1.43.9s.8-.1 1.16-.43c0 0 .85-.69.85.99 0 10.24-.87 20.66.1 30.97-3.31 3.39-8.83 3.12-13.58 4.87 4.89-.81 9.68-1.42 13.42-3.88l.1 3.84s.33 1.82.06 2.36c-.26.53-.7.53-.97 0h.02c-.16-.39-1.94-.39-3.55 0h-.02l-5.5 1.44c7.42-1.06 11.34-2.81 10.02 4.21-5.31-2.22-11.49 3.17-14.55-1.33-.88-1.29-.75-2.97-1.29-4.32-.25-1.16-.06-1.5-.07-2.2-.04-2.84.35-5.07 4.11-7.32.85-.51 3.08-1.01 3.88-1.55 5.93-3.95 3.62-19.47 4-25.41.19-3.06 1.94-7.94 1.66-11.02-.2-2.28-2.16-5.01-2.26-7.53-.11-2.71 1.38-6.38.64-9.3 1.01-.26 1.64-1.11 2.27-1.44 3.35-1.76 2.49 3.54.32 3.88.38.26 1.34-.05 1.62.22.77.75-.27 13.93-.18 19.53ZM15.29 356.01c-.21-2.36-1.78-4.25-1.29-6.87.32-1.72 2.95-4.06 3.23-5.54.37-1.9-.38-9.06-.97-11.07-1.16-3.94-5.5-7.96-6.47-12.07.1 2.19-.66 6.59 0 8.53.12.36 2.55 2.49 2.91 3.32 1.18 2.71 1.61 7.67-2.91 8.97.06 1.66-.04 3.32 0 4.98l4.2-.66-4.2 1.77c.11 5.62-.13 11.26 0 16.87h2.26c3.09-1.71 3.46-5.73 3.24-8.24ZM9.46 296.33c-.16 6.2-.07 12.61 0 18.82.02 1.45.28 2.95.32 4.43l2.91-1c-.44-4.64-.38-9.3-.32-13.95 0-.29-.86-1.24-.65-1.77.02-.06 1.08-.3 1.29-.89.43-1.2-1.16-5.3-3.56-5.65Z" fill="#231f20"/><path d="M9.79 340.62c5.41-2.01 3.09-8.03.16-10.85-.51.36-.14 1.45-.16 1.99-.1 2.93-.09 5.93 0 8.86ZM30.81 204.43c-.63.33-1.26 1.18-2.26 1.44.73 2.93-.75 6.58-.65 9.3.1 2.62 2.07 5.25 2.26 7.75.23 2.99-.7 6.1-.88 9.08-.43 6.8 1.12 20.53-3.64 26.13-2.19 2.57-8.02 2.34-9.05 7.09-.45 2.09.21 10.17 3.23 11.18 1.95.65 5.64-.98 7.6-1.11 2-.13 3.31.57 5.01.33l-.49-4.76c-3.24-.56-6.39.38-9.54.78 2.98-1.51 6.65-1.04 10.02-1.33l-.49-6.31c-3.32 2.66-8.48 2.98-13.1 3.88 4.77-1.71 10.26-1.5 13.58-4.87-1.06-10.65.46-21.44-.16-32l-2.1.11 2.59-.89c-.7-2.62.91-20.81 0-21.7-.28-.27-1.24.05-1.62-.22 2.17-.34 3.03-5.64-.32-3.88ZM28.87 298.21c.41-1.33 3.68-2.51 3.88-2.88.14-.25-.27-4.69-.32-5.43-.36-.9-4.6-.27-5.01 0-1.04.66-.15 1.74-.49 2.33-.54.95-2.29 1.73-2.59 2.88-.46 1.79.82 3.82.65 5.76-.77 8.64-6.36 18.93.61 26.8 1.97 2.21 1.97 1.11 1.97 1.11l1.13-26.24-.16 16.06c.7-.14 1.34-.66 1.94-1 .31-.17 2.22-1.34 2.26-1.44.27-.58.26-11.6 0-12.18-.49-1.09-5.13-1.76-3.88-5.76Z" fill="#231f20"/><path d="M29.03 205.09c.43-.35.93-.61 1.46-.89.28-.14 2.22-1.34 2.26-1.44.27-.58.26-11.6 0-12.18-.2-.45-2.96-1.33-3.56-2.66-2.11-4.69 2.92-4.71 3.56-5.98.3-.6-.34-4.52-.32-5.65-.82-.43-4.42-.11-5.01.22-1.04.57-.15 1.78-.49 2.33-.48.79-2.33 1.9-2.59 2.88-.47 1.8.83 3.98.65 5.98-.49 5.25-2.85 10.66-2.91 15.94-.05 4.03.84 8.91 4.85 11.96l.65-.22 1.13-26.24c.28 3.22.85 6.65.81 9.85 0 .71-1.12 6.04-.49 6.09ZM14.64 276.51c3.03 4.98 5.85 2 11.48 2.55 1.99.19 4.46 1.47 6.14 2.21.11-2.24 1.51-5.34-3.23-5.54-2.62-.11-7.85 2.07-9.54 1.11-4.11-2.35-4.58-12.04-1.62-14.95 1.73-1.7 6.59-2.6 7.76-4.43.21-.33 2.5-6.6 2.59-7.09.12-.72.07-5.17-.32-5.54-.49-.45-2.35-.45-2.59-.22-.22.21.74 4.15.65 5.09-.66 7-8.6 8.29-15.85 11.85.02 2.77-.35 5.62-.32 8.42 4.12 1.01 3.46 4.25 4.85 6.53ZM10.44 171.43c2.83 2.74 9.34.46 11.8.66 2.78.24 4.48 3.89 4.85 3.99.42.1 4.28-.83 5.34-.44-.04-1.31.39-6.2 0-6.98-.17-.33-4.66-2.21-5.34-2.33-5.53-.97-9.79 2.16-12.77-2.55-1.19-1.88-.83-4.63-3.07-6.09-.08-.05-1.67-.85-1.46 0 .57 2.77-.99 12.15.65 13.73Z" fill="#231f20"/><path d="M27.09 289.47c.22.06 4.47-.39 4.69-.44.18-.04.49.09.65-.11.23-.3.16-6.54 0-6.87-.19-.39-4.64-2.2-5.34-2.33-5.55-.98-9.81 2.14-12.77-2.55-1.18-1.87-.88-4.6-3.07-6.09-.07-.05-1.68-.85-1.46 0 .04 2.66-.76 11.31 0 13.18.01.03.5.41.65.55 2.83 2.74 9.28.45 11.8.66 2.75.23 4.49 3.9 4.85 3.99ZM32.26 303.2l.49-6.75-.65-.22c-3.84 1.81-3.41 5.14.16 6.98ZM32.26 189.81l.49-6.75-.65-.22c-3.88 1.84-3.34 5.09.16 6.98Z" fill="#231f20"/><path d="M20.78 357.56c-.4-2.79-2.85-5.22-2.26-8.19.34-1.73 3.37-4.75 3.88-6.64 1.41-5.19-5.02-15.36-6.14-20.82-1.15-5.59 2.3-14.02 2.91-20.37.11-1.18 1.64-2.88 1.29-4.21-.13-.51-1.68-1.46-1.94-2.21-.53-1.57.1-4.59-.32-6.2-.98-3.7-4.75-1.63-8.41-3.65-.08.43-.11 3.67 0 3.88.19.34 2.23.71 2.91 1.33.84.76 2.81 7.79 2.91 9.08.04.51.21 3.01-.32 3.21-.54.2-2.32-.36-2.91.55.13 3.01 1.86 13.46.65 15.72-.38.7-1.94.4-2.26.89-1.25 1.86 5.49 10.22 6.14 12.84.39 1.56 1.21 9.25.97 10.63-.29 1.65-3.29 4.52-3.56 6.42-.28 1.99 1.14 3.44 1.29 5.09.27 2.98.4 7.01-2.61 9.35h6.95c.87-2.21 1.07-5.06.83-6.69ZM10.11 252.26c-.01 1.36-.31 2.81-.32 4.21 9.37-1.55 11.59-5.68 10.71-11.91-.38-2.71-2.46-5.49-1.98-8.35.38-2.26 3.96-5.59 4.2-7.97.59-5.71-6.23-15.64-6.79-21.7-.45-4.86 2.7-12.54 3.23-18.38.11-1.16 1.62-2.98 1.29-4.21-.14-.52-1.68-1.46-1.94-2.21-.51-1.5.08-4.41-.32-5.98-1.04-4.07-4.25-1.76-8.41-3.88-.21 1.14 0 2.77 0 3.99 4.74-.45 6.41 12.63 5.82 13.4-.15.2-.47.07-.65.11-.2.05-1.62.04-1.94 0-1.31 3.56 1.53 13.4 0 16.28-.68 1.28-3.66-.77-1.62 4.21 2.91 7.06 7.98 11.64 6.47 20.15-.29 1.65-3.29 4.52-3.56 6.42-.28 1.99 1.14 3.44 1.29 5.09.34 3.67.45 9.23-5.5 10.74Z" fill="#231f20"/><path d="M26.28 178.85c1.68-3.42-2.92-7.66-8.41-5.54 1.49 2.78.49 5.81 1.29 8.64.32 1.12 1.91.94 1.62 3.76-.67 6.53-5.02 15.79-4.2 21.7.87 6.31 8.09 16.4 6.14 22.59-.51 1.64-3.21 4.18-3.56 5.76-.87 3.97 3.1 8.35 1.94 13.51-1.18 5.28-5.42 5.65-11.32 8.08 0 1.26.32 2.56.32 3.76 6.52-3.33 14.33-4.66 15.2-10.96.68-4.93-3.29-9.75-2.59-14.84.31-2.24 2.39-4.3 2.91-6.2 1.68-6.13-3.4-15.22-3.88-21.92-.53-7.31 2.45-13.69 2.91-20.6.08-1.21-1.22-2.87-.97-4.43.25-1.56 2.14-2.42 2.59-3.32Z" fill="#231f20"/><path d="m13.67 232.22-3.88 1.77c-.04 5.87.05 11.74 0 17.61 5.14-.68 5.76-5.97 5.5-8.97-.21-2.36-1.78-4.25-1.29-6.87.32-1.73 3.09-4.03 3.23-5.54.59-6.4-1.48-9.06-2.07-11.07-1.19-4.03-4.53-8.06-5.37-12.29.09 2.25-.67 6.76 0 8.75.08.24 2.22 2.18 2.59 2.88.96 1.86 1.5 5.19.65 7.09-.52 1.16-3.15 2.26-3.23 2.44-.12.23-.13 4.65 0 4.87 1.18.73 2.67-.77 3.88-.66ZM9.79 206.2l2.91-1c-.55-4.57-.27-9.15-.32-13.73 0-.39-.84-1.48-.65-1.99.03-.07.96-.29.97-.33.48-1.79-.02-5.42-3.23-6.09.51 7.72.12 15.42.32 23.14Z" fill="#231f20"/><path d="M9.79 182.17c.07.16 1.96 1.29 2.26 1.77 1.15 1.8 1.15 4.15 2.91 5.2.35-2.37-1.03-11.08-3.56-12.29-.46-.22-1.04-.39-1.62-.33 0 1.19-.35 4.81 0 5.65ZM9.79 295.67c3.6.98 3.04 6.15 5.17 6.87.59-1.79-1.4-12.76-4.37-12.62-1.36.06-.77 4.67-.81 5.76ZM13.02 221.81c-.05-.49-2.24-5.84-3.4-5.43l.16 10.74c3.04-.46 3.4-3.63 3.23-5.31ZM22.72 348.71c.31-2.24 2.35-4.14 2.91-6.2 1.67-6.18-3.4-15.18-3.88-21.92-.52-7.35 2.49-13.85 2.91-20.82.07-1.17-1.3-2.79-.97-4.43.28-1.4 2.18-2.27 2.59-3.1 1.67-3.42-2.92-7.66-8.41-5.54 1.5 2.77.5 5.86 1.29 8.64.32 1.12 1.91.94 1.62 3.76-.67 6.53-5.02 15.79-4.2 21.7.87 6.31 8.09 16.4 6.14 22.59-.51 1.64-3.21 4.18-3.56 5.76-.67 3.09 1.41 4.87 1.94 7.53.4 2.03.35 5.12-.64 7.57h4.76c.8-5.03-3.17-10.68-2.5-15.55Z" fill="#231f20"/><path d="M23.37 326.34c.44 2.66 2.94 7.59 3.23 11.29.46 5.79-4.25 9.52-3.23 15.5.15.88.99 4.26 2.81 4.44 1.53.15 1.82-.6 1.72-1.34-.64-4.36 1.86-18.1 1.62-20.37-.05-.51-1.72-5.68-1.94-5.98-.53-.11-3.69-2.46-4.2-3.54ZM29.51 222.48c-.06-.52-1.71-5.65-1.94-5.98-.34-.48-3.74-2.55-4.2-3.54.06 3.8 2.94 7.59 3.23 11.29.46 5.79-4.25 9.52-3.23 15.5.21 1.21 1.25 2.6 1.66 3.63.47 1.18 3.43-.03 3.33-1.3-.34-4.24 1.4-17.4 1.15-19.6Z" fill="#231f20"/></svg>