<?xml version="1.0" encoding="UTF-8"?><svg id="a" xmlns="http://www.w3.org/2000/svg" width="9.8mm" height="128.5mm" viewBox="0 0 27.78 364.25"><path d="M27.78,361.12v3.13h-4.71l.02-1.04c-.11-.51.11-1.71.03-2.23l4.66.14Z" fill="none"/><path d="M22.96,28.45v-.24l-6.87.12.05,6.5-2.24.05.13,6.37,2.15-.04.03,4,6.88-.38-.03-3.76,4.72-.1v6.58l-7.38.08-.25,5.75,6.25.75.13,6.12,1.25-.07v38.57h-7.75l-.36,5.8c-1.65-.01-3.32.06-3.46.16-.3.21-.03,2-.12,2.5v30.11l-15.69.31.38,18.87,6.12-.37.13-12.38,12.62-.12-.1-5.1,3.16.18.38-31.5c-.11-.51.11-1.71.03-2.23l4.66.14v57.62l-1.38-.11-.12-6.38-3.32.2v-.24l-6.87.12.05,6.5-2.24.05.13,6.37,2.15-.04.03,4,6.88-.38-.03-3.76,4.72-.1v6.58l-7.38.08v6l6,.25.13,6.37,1.25-.07v38.57h-7.75l-.36,5.77-3.58.06.36,32.73-16.05.32.38,18.87,6.12-.37.13-12.38,12.62-.12-.1-5.1,3.54-.2-.13-33.35,4.82.14v57.62l-1.38-.11-.12-6.38-3.32.2v-.24l-6.87.12.05,6.5-2.24.05.13,6.37,2.15-.04.03,4,6.88-.38-.03-3.76,4.72-.1v6.58l-7.38.08-.25,5.75,6.25.75.13,6.12,1.25-.07v38.57h-7.75l-.36,5.8c-1.65-.01-3.32.06-3.46.16-.3.21-.03,2-.12,2.5v1.04h-2.93l-.13-3.25H4.12l.22-12.63,2.19.13.75-6h12.25v-4.23l3.56-.19-.13-16.37-6.87.12.11,14.42H.78l-.38,11.88,3.09.19-3.49-.07v-19.19l.77-.04v.23s6.13-.37,6.13-.37l-.12-18.88-2.44.05v-6.47c-.37,0-.97-.35-1.13-.37-.94-.18-2.07-.05-3.21.1v-38.12l3.96.02v-7.5H0v-5.54l13.28.08v-6.25H4.33l-.1-6.81,9.05.06v-6.25H4.14l-.18-12.66,2.57.16.75-6h12.25v-4.23l3.56-.19-.13-16.37-6.87.12.11,14.42H.78l-.38,11.88,2.36.14-2.76.15v-19.36l.77-.04v.23s6.13-.37,6.13-.37l-.12-18.88-2.44.05v-6.47c-.37,0-.97-.35-1.13-.37-1-.19-2.11-.07-3.21.08v-38.1l3.96.02v-7.5H0v-5.33c5.1-.12,11.83-.39,13.28-.13l.12-3.75c-.1-.59.29-2.2-.37-2.5-.42-.18-4.67-.32-9.05-.35l.06-6.46,9.24.06-.25-6.25H4.12l.22-12.63,2.19.13.75-6h12.25v-4.23l3.56-.19-.13-16.37-6.87.12.11,14.42H.78l-.38,11.88,3.09.19-3.49-.07v-19.19l.77-.04v.23s6.13-.37,6.13-.37l-.12-18.88-2.44.05v-6.47c-.37,0-.97-.35-1.13-.37-.94-.18-2.07-.05-3.21.1V9.19l3.96.02V1.71H0V0h16.34l.11,9.31L.4,9.63l.38,18.87,6.12-.37.13-12.38,12.62-.12-.1-5.1,3.54-.2-.04-10.33h4.73v34.74l-1.38-.11-.12-6.38-3.32.2Z" fill="none"/><path d="M13.4,120.5l-.12,3.75c-1.45-.26-8.18.01-13.28.13v-32.13l3.49.07.85.05-.22,12.63h8.91l.25,6.25-9.24-.06-.06,6.46c4.38.03,8.63.17,9.05.35.66.3.27,1.91.37,2.5Z" fill="#ec008c"/><polygon points="19.55 10.53 19.65 15.63 7.03 15.75 6.9 28.13 .78 28.5 .4 9.63 16.45 9.31 16.34 0 23.05 0 23.09 10.33 19.55 10.53" fill="#ec008c"/><polygon points="3.96 1.71 0 1.71 0 9.19 3.96 9.21 3.96 1.71" fill="#00aeef"/><path d="M6.9,72.88l-6.12.37v-.23s-.78.04-.78.04v-25.75c1.14-.15,2.27-.28,3.21-.1.16.02.76.37,1.13.37v6.47l2.44-.05.12,18.88Z" fill="#ec008c"/><polygon points="23.09 44.83 16.21 45.21 16.18 41.21 23.06 41.07 23.09 44.83" fill="#00aeef"/><polygon points="3.96 257.71 0 257.71 0 265.19 3.96 265.21 3.96 257.71" fill="#00aeef"/><polygon points="3.96 129.71 0 129.71 0 137.19 3.96 137.21 3.96 129.71" fill="#00aeef"/><polygon points="13.28 239.25 4.23 239.19 4.33 246 13.28 246 13.28 252.25 0 252.17 0 220.42 2.76 220.27 3.96 220.34 4.14 233 13.28 233 13.28 239.25" fill="#ec008c"/><path d="M6.9,328.88l-6.12.37v-.23s-.78.04-.78.04v-25.75c1.14-.15,2.27-.28,3.21-.1.16.02.76.37,1.13.37v6.47l2.44-.05.12,18.88Z" fill="#ec008c"/><path d="M6.9,200.88l-6.12.37v-.23s-.78.04-.78.04v-25.77c1.1-.15,2.21-.27,3.21-.08.16.02.76.37,1.13.37v6.47l2.44-.05.12,18.88Z" fill="#ec008c"/><polygon points="27.78 296.97 23.06 297.07 23.09 300.83 16.21 301.21 16.18 297.21 14.03 297.25 13.9 290.88 16.14 290.83 16.09 284.33 22.96 284.21 22.96 284.45 26.28 284.25 26.4 290.63 27.78 290.74 27.78 296.97" fill="#ec008c"/><polygon points="27.78 168.97 23.06 169.07 23.09 172.83 16.21 173.21 16.18 169.21 14.03 169.25 13.9 162.88 16.14 162.83 16.09 156.33 22.96 156.21 22.96 156.45 26.28 156.25 26.4 162.63 27.78 162.74 27.78 168.97" fill="#ec008c"/><polygon points="23.09 210.08 19.53 210.27 19.53 214.5 7.28 214.5 6.53 220.5 3.96 220.34 2.76 220.27 .4 220.13 .78 208.25 16.2 208.25 16.09 193.83 22.96 193.71 23.09 210.08" fill="#ec008c"/><polygon points="23.09 338.08 19.53 338.27 19.53 342.5 7.28 342.5 6.53 348.5 4.34 348.37 4.12 361 13.03 361 13.16 364.25 0 364.25 0 348.25 3.49 348.32 .4 348.13 .78 336.25 16.2 336.25 16.09 321.83 22.96 321.71 23.09 338.08" fill="#ec008c"/><path d="M27.78,361.12l-4.66-.14c.08.52-.14,1.72-.03,2.23l-.02,1.04h-6.98v-1.04c.09-.5-.18-2.29.12-2.5.14-.1,1.81-.17,3.46-.16l.36-5.8h7.75v6.37Z" fill="#ec008c"/><polygon points="27.78 34.74 27.78 40.97 23.06 41.07 16.18 41.21 14.03 41.25 13.9 34.88 16.14 34.83 16.09 28.33 22.96 28.21 22.96 28.45 26.28 28.25 26.4 34.63 27.78 34.74" fill="#ec008c"/><polygon points="23.09 82.08 19.53 82.27 19.53 86.5 7.28 86.5 6.53 92.5 4.34 92.37 3.49 92.32 .4 92.13 .78 80.25 16.2 80.25 16.09 65.83 22.96 65.71 23.09 82.08" fill="#ec008c"/><polygon points="20.15 53.38 26.4 54.13 26.53 60.25 27.78 60.18 27.78 47.55 20.4 47.63 20.15 53.38" fill="#00aeef"/><path d="M27.78,105.12l-4.66-.14c.08.52-.14,1.72-.03,2.23l-.38,31.5-3.16-.18.1,5.1-12.62.12-.13,12.38-6.12.37-.38-18.87,15.69-.31v-30.11c.09-.5-.18-2.29.12-2.5.14-.1,1.81-.17,3.46-.16l.36-5.8h7.75v6.37Z" fill="#ec008c"/><polygon points="20.15 309.38 26.4 310.13 26.53 316.25 27.78 316.18 27.78 303.55 20.4 303.63 20.15 309.38" fill="#00aeef"/><polygon points="20.4 181.63 26.4 181.88 26.53 188.25 27.78 188.18 27.78 175.55 20.4 175.63 20.4 181.63" fill="#00aeef"/><polygon points="27.78 233.12 22.96 232.98 23.09 266.33 19.55 266.53 19.65 271.63 7.03 271.75 6.9 284.13 .78 284.5 .4 265.63 16.45 265.31 16.09 232.58 19.67 232.52 20.03 226.75 27.78 226.75 27.78 233.12" fill="#ec008c"/></svg>