<?xml version="1.0" encoding="UTF-8"?><svg id="a" xmlns="http://www.w3.org/2000/svg" width="9.8mm" height="128.5mm" viewBox="0 0 27.78 364.25"><path d="M23.05,0l.04,10.33-6.63.38-.12-10.71H0v1.71h3.96v7.5l-3.96-.02v38.12c1.14-.15,2.27-.28,3.21-.1.16.02.76.37,1.13.37v25.25l-4.34.23v19.19l4.34.08-.25,14.88-.13,11.75-3.96-.22v10.97h3.96v7.5l-3.96-.02v38.1c1.1-.15,2.21-.27,3.21-.08.16.02.76.37,1.13.37v25.25l-4.34.23v19.36l3.96-.21.38,26.37-4.34.24v10.89h3.96v7.5l-3.96-.02v38.12c1.14-.15,2.27-.28,3.21-.1.16.02.76.37,1.13.37v25.25l-4.34.23v19.19l4.34.08-.25,14.88v1.04s12,0,12,0v-1.04c.09-.5-.18-2.29.12-2.5.28-.2,6.71-.26,6.88.12.17.39-.13,1.81,0,2.38l-.02,1.04h4.71V0h-4.73ZM22.96,28.21l.13,16.62-6.88.38-.12-16.88,6.87-.12ZM22.96,65.71l.13,16.37-6.88.38-.12-16.63,6.87-.12ZM16.21,338.46l-.12-16.63,6.87-.12.13,16.37-6.88.38ZM16.21,301.21l-.12-16.88,6.87-.12.13,16.62-6.88.38ZM16.46,266.71l-.37-34.13,6.87-.12.13,33.87-6.63.38ZM16.21,210.46l-.12-16.63,6.87-.12.13,16.37-6.88.38ZM16.21,173.21l-.12-16.88,6.87-.12.13,16.62-6.88.38ZM23.09,107.21l-.38,31.5-6.62-.38v-31.12c.09-.5-.18-2.29.12-2.5.28-.2,6.71-.26,6.88.12.17.39-.13,1.81,0,2.38Z" fill="none"/><polygon points="4.34 92.33 4.09 107.21 3.96 118.96 0 118.74 0 92.25 4.34 92.33" fill="#ec008c"/><path d="M23.09,107.21l-.38,31.5-6.62-.38v-31.12c.09-.5-.18-2.29.12-2.5.28-.2,6.71-.26,6.88.12.17.39-.13,1.81,0,2.38Z" fill="#ec008c"/><polygon points="23.09 10.33 23.05 0 16.34 0 16.46 10.71 23.09 10.33" fill="#ec008c"/><polygon points="3.96 1.71 0 1.71 0 9.19 3.96 9.21 3.96 1.71" fill="#ec008c"/><path d="M4.34,47.58c-.37,0-.97-.35-1.12-.38-.94-.17-2.08-.05-3.21.11v25.75l4.34-.23v-25.25Z" fill="#ec008c"/><polygon points="23.09 44.83 22.96 28.21 16.09 28.33 16.21 45.21 23.09 44.83" fill="#ec008c"/><polygon points="23.09 82.08 22.96 65.71 16.09 65.83 16.21 82.46 23.09 82.08" fill="#ec008c"/><polygon points="16.09 232.58 16.46 266.71 23.09 266.33 22.96 232.46 16.09 232.58" fill="#ec008c"/><polygon points="3.96 257.71 0 257.71 0 265.19 3.96 265.21 3.96 257.71" fill="#ec008c"/><polygon points="3.96 129.71 0 129.71 0 137.19 3.96 137.21 3.96 129.71" fill="#ec008c"/><polygon points="3.96 220.21 0 220.42 0 246.82 4.34 246.58 3.96 220.21" fill="#ec008c"/><path d="M4.34,303.58c-.37,0-.97-.35-1.12-.38-.94-.17-2.08-.05-3.21.11v25.75l4.34-.23v-25.25Z" fill="#ec008c"/><path d="M4.34,175.58c-.37,0-.97-.35-1.12-.38-1.01-.18-2.11-.07-3.21.08v25.77l4.34-.23v-25.25Z" fill="#ec008c"/><polygon points="16.09 284.33 16.21 301.21 23.09 300.83 22.96 284.21 16.09 284.33" fill="#ec008c"/><polygon points="16.09 156.33 16.21 173.21 23.09 172.83 22.96 156.21 16.09 156.33" fill="#ec008c"/><polygon points="16.09 193.83 16.21 210.46 23.09 210.08 22.96 193.71 16.09 193.83" fill="#ec008c"/><polygon points="16.09 321.83 16.21 338.46 23.09 338.08 22.96 321.71 16.09 321.83" fill="#ec008c"/><path d="M23.09,363.21l-.02,1.04h-6.98v-1.04c.09-.5-.18-2.29.12-2.5.28-.2,6.71-.26,6.88.12.17.39-.13,1.81,0,2.38Z" fill="#ec008c"/><polygon points="4.34 348.33 4.09 363.21 4.08 364.25 0 364.25 0 348.25 4.34 348.33" fill="#ec008c"/></svg>