<?xml version="1.0" encoding="UTF-8"?><svg id="a" xmlns="http://www.w3.org/2000/svg" width="9.8mm" height="128.5mm" viewBox="0 0 27.78 364.25"><path d="M3.71,91.74c0,.32-1.65,1.96-3.71,3.92v-6.88c.15-.17.27-.31.34-.42.36.54,3.37,3.14,3.37,3.38Z" fill="none"/><path d="M27.78,124.94v6.73l-3.44,3.44c-.51-.75-3.29-2.76-3.13-3.62.09-.46,3.52-3.66,6.57-6.55Z" fill="none"/><polygon points="27.71 51.74 19.96 59.61 19.71 59.61 16.34 63.11 13.21 59.61 24.34 48.36 27.71 51.74" fill="none"/><path d="M19.71,91.74l-3.37,3.37c-1.4-2.03-10.08-10.03-16.34-16.02v-6.86l19.71,19.51Z" fill="none"/><path d="M27.78,12.94v6.73l-3.44,3.44c-.51-.75-3.29-2.76-3.13-3.62.09-.46,3.52-3.66,6.57-6.55Z" fill="none"/><path d="M27.78,252.94v6.73l-3.44,3.44c-.51-.75-3.29-2.76-3.13-3.62.09-.46,3.52-3.66,6.57-6.55Z" fill="none"/><path d="M3.71,219.74c0,.32-1.65,1.95-3.71,3.9v-6.86c.15-.17.27-.31.34-.42.36.54,3.37,3.14,3.37,3.38Z" fill="none"/><path d="M27.78,140.94v6.73l-3.44,3.44c-.51-.75-3.29-2.76-3.13-3.62.09-.46,3.52-3.66,6.57-6.55Z" fill="none"/><path d="M19.71,219.74c.04.38-3.13,3.37-3.37,3.37-1.11,0-9.87-9.75-16.34-16.56v-6.32l19.71,19.51Z" fill="none"/><polygon points="9.46 193.99 6.34 197.11 0 190.8 0 184.41 9.46 193.99" fill="none"/><path d="M1.09,174.11c-.4.09-.76.09-1.09.03v-4.79c3.06-.38,3.61,4.22,1.09,4.76Z" fill="none"/><path d="M9.09,262.11c-3.39.72-4.16-4.23-1.25-4.75,3.38-.61,3.72,4.23,1.25,4.75Z" fill="none"/><path d="M17.09,286.11c-3.44.73-4.11-4.29-1.25-4.75,3.27-.52,3.77,4.21,1.25,4.75Z" fill="none"/><path d="M9.09,6.11c-3.39.72-4.16-4.23-1.25-4.75,3.38-.61,3.72,4.23,1.25,4.75Z" fill="none"/><path d="M19.71,123.74c0,.29-2.61,3.02-2.87,3.12-1.02.39-11.5-10.81-16.84-16.21v-5.9l.34-.39,19.37,19.38Z" fill="none"/><path d="M1.09,142.11c-.4.09-.76.09-1.09.03v-4.79c3.12-.34,3.57,4.23,1.09,4.76Z" fill="none"/><path d="M9.09,230.11c-3.44.73-4.11-4.29-1.25-4.75,3.27-.52,3.77,4.21,1.25,4.75Z" fill="none"/><path d="M17.09,30.11c-3.44.73-4.11-4.29-1.25-4.75,3.27-.52,3.77,4.21,1.25,4.75Z" fill="none"/><path d="M27.78,0v3.67l-3.44,3.44c-.51-.75-3.29-2.76-3.13-3.62.06-.3,1.51-1.73,3.34-3.49h3.23Z" fill="none"/><path d="M17.09,238.11c-3.47.76-4.08-4.3-1.25-4.75,3.26-.52,3.78,4.2,1.25,4.75Z" fill="none"/><path d="M1.09,14.11c-.4.09-.76.09-1.09.03v-4.79c3.12-.34,3.57,4.23,1.09,4.76Z" fill="none"/><path d="M0,46.02v-4.68c3.78-.51,3.25,5.6,0,4.68Z" fill="none"/><path d="M27.71,211.74l-3.37,3.37c-1.46-2.11-14.69-13.84-14.88-14.87-.16-.87,2.62-2.88,3.13-3.63l15.12,15.13Z" fill="none"/><path d="M19.71,347.74l-3.37,3.37c-1.4-2.03-10.08-10.03-16.34-16.02v-6.86l19.71,19.51Z" fill="none"/><path d="M25.09,118.11c-3.44.73-4.11-4.29-1.25-4.75,3.27-.52,3.77,4.21,1.25,4.75Z" fill="none"/><polygon points="27.71 307.74 19.96 315.61 19.71 315.61 16.34 319.11 13.21 315.61 24.34 304.36 27.71 307.74" fill="none"/><path d="M17.09,110.11c-3.44.73-4.11-4.29-1.25-4.75,3.27-.52,3.77,4.21,1.25,4.75Z" fill="none"/><path d="M3.71,347.74c0,.32-1.65,1.96-3.71,3.92v-6.88c.15-.17.27-.31.34-.42.36.54,3.37,3.14,3.37,3.38Z" fill="none"/><path d="M25.09,246.11c-3.44.73-4.11-4.29-1.25-4.75,3.36-.54,3.74,4.22,1.25,4.75Z" fill="none"/><path d="M27.71,179.74l-11.37,11.37c-.51-.75-3.29-2.76-3.13-3.62.15-.78,10.02-9.54,11.13-11.13l3.37,3.38Z" fill="none"/><path d="M9.46,65.49c.16.86-2.62,2.87-3.12,3.62l-6.34-6.42v-6.54l3.46,3.46h.25c.52,1.05,5.66,5.36,5.75,5.88Z" fill="none"/><path d="M27.46,83.49c.11.56-2.65,3.33-2.87,3.37-1.05.19-13.46-13.38-15.38-14.87l3.38-3.38c1.5,2.09,14.68,13.84,14.87,14.88Z" fill="none"/><path d="M17.09,158.11c-3.44.73-4.11-4.29-1.25-4.75,3.27-.52,3.77,4.21,1.25,4.75Z" fill="none"/><path d="M1.09,270.11c-.4.09-.76.09-1.09.03v-4.79c3.12-.34,3.57,4.23,1.09,4.76Z" fill="none"/><polygon points="4.23 364.25 0 364.25 0 360.75 .34 360.36 4.23 364.25" fill="none"/><path d="M27.46,339.49c.11.56-2.65,3.33-2.87,3.37-1.05.19-13.46-13.38-15.38-14.87l3.38-3.38c1.5,2.09,14.68,13.84,14.87,14.88Z" fill="none"/><path d="M27.78,268.94v6.73l-3.44,3.44c-.51-.75-3.29-2.76-3.13-3.62.09-.46,3.52-3.66,6.57-6.55Z" fill="none"/><path d="M9.09,134.11c-3.44.73-4.11-4.29-1.25-4.75,3.36-.54,3.74,4.22,1.25,4.75Z" fill="none"/><path d="M19.71,251.74c0,.29-2.61,3.02-2.87,3.12-1.02.39-11.5-10.81-16.84-16.21v-5.9l.34-.39,19.37,19.38Z" fill="none"/><path d="M9.46,321.49c.16.86-2.62,2.87-3.12,3.62l-6.34-6.42v-6.54l3.46,3.46h.25c.52,1.05,5.66,5.36,5.75,5.88Z" fill="none"/><path d="M18.66,364.25h-4.54c-.27-1.24.26-2.66,1.72-2.89,2.05-.33,3.01,1.42,2.82,2.89Z" fill="none"/><path d="M0,302.02v-4.68c3.78-.51,3.25,5.6,0,4.68Z" fill="none"/><path d="M9.09,102.11c-3.44.73-4.11-4.29-1.25-4.75,3.27-.52,3.77,4.21,1.25,4.75Z" fill="none"/><path d="M9.09,358.11c-3.44.73-4.11-4.29-1.25-4.75,3.27-.52,3.77,4.21,1.25,4.75Z" fill="none"/><path d="M27.78,12.94V3.67l-3.44,3.44c-.51-.75-3.29-2.76-3.13-3.62.06-.3,1.51-1.73,3.34-3.49H0v9.35c3.12-.34,3.57,4.23,1.09,4.76-.4.09-.76.09-1.09.03v27.2c3.78-.51,3.25,5.6,0,4.68v10.13l3.46,3.46h.25c.52,1.05,5.66,5.36,5.75,5.88.16.86-2.62,2.87-3.12,3.62l-6.34-6.42v9.54l19.71,19.51-3.37,3.37c-1.4-2.03-10.08-10.03-16.34-16.02v9.69c.15-.17.27-.31.34-.42.36.54,3.37,3.14,3.37,3.38,0,.32-1.65,1.96-3.71,3.92v9.09l.34-.39,19.37,19.38c0,.29-2.61,3.02-2.87,3.12-1.02.39-11.5-10.81-16.84-16.21v26.7c3.12-.34,3.57,4.23,1.09,4.76-.4.09-.76.09-1.09.03v27.21c3.06-.38,3.61,4.22,1.09,4.76-.4.09-.76.09-1.09.03v10.27l9.46,9.58-3.12,3.12-6.34-6.31v9.43l19.71,19.51c.04.38-3.13,3.37-3.37,3.37-1.11,0-9.87-9.75-16.34-16.56v10.23c.15-.17.27-.31.34-.42.36.54,3.37,3.14,3.37,3.38,0,.32-1.65,1.95-3.71,3.9v9.11l.34-.39,19.37,19.38c0,.29-2.61,3.02-2.87,3.12-1.02.39-11.5-10.81-16.84-16.21v26.7c3.12-.34,3.57,4.23,1.09,4.76-.4.09-.76.09-1.09.03v27.2c3.78-.51,3.25,5.6,0,4.68v10.13l3.46,3.46h.25c.52,1.05,5.66,5.36,5.75,5.88.16.86-2.62,2.87-3.12,3.62l-6.34-6.42v9.54l19.71,19.51-3.37,3.37c-1.4-2.03-10.08-10.03-16.34-16.02v9.69c.15-.17.27-.31.34-.42.36.54,3.37,3.14,3.37,3.38,0,.32-1.65,1.96-3.71,3.92v9.09l.34-.39,3.89,3.89h9.89c-.27-1.24.26-2.66,1.72-2.89,2.05-.33,3.01,1.42,2.82,2.89h9.12v-88.58l-3.44,3.44c-.51-.75-3.29-2.76-3.13-3.62.09-.46,3.52-3.66,6.57-6.55v-9.27l-3.44,3.44c-.51-.75-3.29-2.76-3.13-3.62.09-.46,3.52-3.66,6.57-6.55v-105.27l-3.44,3.44c-.51-.75-3.29-2.76-3.13-3.62.09-.46,3.52-3.66,6.57-6.55v-9.27l-3.44,3.44c-.51-.75-3.29-2.76-3.13-3.62.09-.46,3.52-3.66,6.57-6.55V19.67l-3.44,3.44c-.51-.75-3.29-2.76-3.13-3.62.09-.46,3.52-3.66,6.57-6.55ZM9.09,102.11c-3.44.73-4.11-4.29-1.25-4.75,3.27-.52,3.77,4.21,1.25,4.75ZM17.09,110.11c-3.44.73-4.11-4.29-1.25-4.75,3.27-.52,3.77,4.21,1.25,4.75ZM9.09,230.11c-3.44.73-4.11-4.29-1.25-4.75,3.27-.52,3.77,4.21,1.25,4.75ZM17.09,238.11c-3.47.76-4.08-4.3-1.25-4.75,3.26-.52,3.78,4.2,1.25,4.75ZM9.09,358.11c-3.44.73-4.11-4.29-1.25-4.75,3.27-.52,3.77,4.21,1.25,4.75ZM15.84,25.36c3.27-.52,3.77,4.21,1.25,4.75-3.44.73-4.11-4.29-1.25-4.75ZM9.09,6.11c-3.39.72-4.16-4.23-1.25-4.75,3.38-.61,3.72,4.23,1.25,4.75ZM15.84,153.36c3.27-.52,3.77,4.21,1.25,4.75-3.44.73-4.11-4.29-1.25-4.75ZM9.09,134.11c-3.44.73-4.11-4.29-1.25-4.75,3.36-.54,3.74,4.22,1.25,4.75ZM15.84,281.36c3.27-.52,3.77,4.21,1.25,4.75-3.44.73-4.11-4.29-1.25-4.75ZM7.84,257.36c3.38-.61,3.72,4.23,1.25,4.75-3.39.72-4.16-4.23-1.25-4.75ZM24.59,342.86c-1.05.19-13.46-13.38-15.38-14.87l3.38-3.38c1.5,2.09,14.68,13.84,14.87,14.88.11.56-2.65,3.33-2.87,3.37ZM24.34,304.36l3.37,3.38-7.75,7.87h-.25l-3.37,3.5-3.13-3.5,11.13-11.25ZM25.09,246.11c-3.44.73-4.11-4.29-1.25-4.75,3.36-.54,3.74,4.22,1.25,4.75ZM24.34,215.11c-1.46-2.11-14.69-13.84-14.88-14.87-.16-.87,2.62-2.88,3.13-3.63l15.12,15.13-3.37,3.37ZM24.34,176.36l3.37,3.38-11.37,11.37c-.51-.75-3.29-2.76-3.13-3.62.15-.78,10.02-9.54,11.13-11.13ZM25.09,118.11c-3.44.73-4.11-4.29-1.25-4.75,3.27-.52,3.77,4.21,1.25,4.75ZM24.59,86.86c-1.05.19-13.46-13.38-15.38-14.87l3.38-3.38c1.5,2.09,14.68,13.84,14.87,14.88.11.56-2.65,3.33-2.87,3.37ZM24.34,48.36l3.37,3.38-7.75,7.87h-.25l-3.37,3.5-3.13-3.5,11.13-11.25Z" fill="#ec008c"/></svg>