%TF.GenerationSoftware,KiCad,Pcbnew,10.0.0*%
%TF.CreationDate,2026-04-03T06:38:44+09:00*%
%TF.ProjectId,zb-side-frame-1u,7a622d73-6964-4652-9d66-72616d652d31,rev?*%
%TF.SameCoordinates,Original*%
%TF.FileFunction,Profile,NP*%
%FSLAX46Y46*%
G04 Gerber Fmt 4.6, Leading zero omitted, Abs format (unit mm)*
G04 Created by KiCad (PCBNEW 10.0.0) date 2026-04-03 06:38:44*
%MOMM*%
%LPD*%
G01*
G04 APERTURE LIST*
%TA.AperFunction,Profile*%
%ADD10C,0.026458*%
%TD*%
G04 APERTURE END LIST*
D10*
X39798918Y-12246702D02*
X39938761Y-12257647D01*
X40076782Y-12275660D01*
X40212794Y-12300553D01*
X40346610Y-12332138D01*
X40478042Y-12370230D01*
X40606902Y-12414639D01*
X40733003Y-12465180D01*
X40856159Y-12521664D01*
X40976181Y-12583904D01*
X41092883Y-12651713D01*
X41206077Y-12724904D01*
X41315575Y-12803289D01*
X41421191Y-12886680D01*
X41522736Y-12974892D01*
X41620024Y-13067735D01*
X41712868Y-13165023D01*
X41801079Y-13266568D01*
X41884470Y-13372183D01*
X41962855Y-13481682D01*
X42036046Y-13594875D01*
X42103855Y-13711577D01*
X42166096Y-13831599D01*
X42222580Y-13954755D01*
X42273121Y-14080856D01*
X42317530Y-14209716D01*
X42355622Y-14341148D01*
X42387208Y-14474963D01*
X42412100Y-14610975D01*
X42430113Y-14748996D01*
X42441058Y-14888840D01*
X42444748Y-15030317D01*
X42441058Y-15171795D01*
X42430113Y-15311638D01*
X42412100Y-15449659D01*
X42387208Y-15585671D01*
X42355622Y-15719487D01*
X42317530Y-15850918D01*
X42273121Y-15979779D01*
X42222580Y-16105880D01*
X42166096Y-16229036D01*
X42103855Y-16349058D01*
X42036046Y-16465760D01*
X41962855Y-16578953D01*
X41884470Y-16688452D01*
X41801079Y-16794067D01*
X41712868Y-16895612D01*
X41620024Y-16992900D01*
X41522736Y-17085744D01*
X41421191Y-17173955D01*
X41315575Y-17257346D01*
X41206077Y-17335731D01*
X41092883Y-17408922D01*
X40976181Y-17476731D01*
X40856159Y-17538971D01*
X40733003Y-17595455D01*
X40606902Y-17645996D01*
X40478042Y-17690406D01*
X40346610Y-17728497D01*
X40212794Y-17760083D01*
X40076782Y-17784976D01*
X39938761Y-17802988D01*
X39798918Y-17813933D01*
X39657440Y-17817623D01*
X39512859Y-17813933D01*
X39370307Y-17802988D01*
X39229951Y-17784976D01*
X39091960Y-17760083D01*
X38956501Y-17728497D01*
X38823742Y-17690406D01*
X38693852Y-17645996D01*
X38566998Y-17595455D01*
X38443348Y-17538971D01*
X38323071Y-17476731D01*
X38206334Y-17408922D01*
X38093305Y-17335731D01*
X37984152Y-17257346D01*
X37879044Y-17173955D01*
X37778148Y-17085744D01*
X37681632Y-16992900D01*
X37589664Y-16895612D01*
X37502412Y-16794067D01*
X37420044Y-16688452D01*
X37342728Y-16578953D01*
X37270632Y-16465760D01*
X37203924Y-16349058D01*
X37142772Y-16229036D01*
X37087344Y-16105880D01*
X37037808Y-15979779D01*
X36994331Y-15850918D01*
X36957083Y-15719487D01*
X36926230Y-15585671D01*
X36901941Y-15449659D01*
X36884384Y-15311638D01*
X36873726Y-15171795D01*
X36870136Y-15030317D01*
X36873826Y-14888840D01*
X36884771Y-14748996D01*
X36902784Y-14610975D01*
X36927676Y-14474963D01*
X36959262Y-14341148D01*
X36997354Y-14209716D01*
X37041763Y-14080856D01*
X37092304Y-13954755D01*
X37148788Y-13831599D01*
X37211028Y-13711577D01*
X37278837Y-13594875D01*
X37352028Y-13481682D01*
X37430412Y-13372183D01*
X37513804Y-13266568D01*
X37602015Y-13165023D01*
X37694858Y-13067735D01*
X37792146Y-12974892D01*
X37893691Y-12886680D01*
X37999307Y-12803289D01*
X38108805Y-12724904D01*
X38221998Y-12651713D01*
X38338700Y-12583904D01*
X38458722Y-12521664D01*
X38581878Y-12465180D01*
X38707979Y-12414639D01*
X38836839Y-12370230D01*
X38968271Y-12332138D01*
X39102086Y-12300553D01*
X39238098Y-12275660D01*
X39376119Y-12257647D01*
X39515962Y-12246702D01*
X39657440Y-12243012D01*
X39798918Y-12246702D01*
X29066341Y-6071946D02*
X29199289Y-6081991D01*
X29330260Y-6098535D01*
X29459093Y-6121417D01*
X29585625Y-6150475D01*
X29709697Y-6185548D01*
X29831145Y-6226473D01*
X29949809Y-6273091D01*
X30065527Y-6325238D01*
X30178138Y-6382754D01*
X30287479Y-6445478D01*
X30393390Y-6513246D01*
X30495709Y-6585899D01*
X30594275Y-6663275D01*
X30688925Y-6745211D01*
X30779500Y-6831548D01*
X30865836Y-6922122D01*
X30947772Y-7016772D01*
X31025147Y-7115338D01*
X31097800Y-7217657D01*
X31165569Y-7323568D01*
X31228292Y-7432910D01*
X31285808Y-7545521D01*
X31337956Y-7661239D01*
X31384573Y-7779903D01*
X31425499Y-7901351D01*
X31460571Y-8025422D01*
X31489629Y-8151955D01*
X31512511Y-8280788D01*
X31529055Y-8411759D01*
X31539100Y-8544707D01*
X31542484Y-8679470D01*
X31539100Y-8814233D01*
X31529055Y-8947181D01*
X31512511Y-9078152D01*
X31489629Y-9206985D01*
X31460571Y-9333518D01*
X31425499Y-9457589D01*
X31384573Y-9579038D01*
X31337956Y-9697702D01*
X31285808Y-9813420D01*
X31228292Y-9926030D01*
X31165569Y-10035372D01*
X31097800Y-10141283D01*
X31025147Y-10243602D01*
X30947772Y-10342168D01*
X30865836Y-10436819D01*
X30779500Y-10527393D01*
X30688925Y-10613729D01*
X30594275Y-10695666D01*
X30495709Y-10773041D01*
X30393390Y-10845694D01*
X30287479Y-10913463D01*
X30178138Y-10976186D01*
X30065527Y-11033702D01*
X29949809Y-11085850D01*
X29831145Y-11132467D01*
X29709697Y-11173393D01*
X29585625Y-11208466D01*
X29459093Y-11237524D01*
X29330260Y-11260405D01*
X29199289Y-11276949D01*
X29066341Y-11286994D01*
X28931578Y-11290379D01*
X16723862Y-11290379D01*
X16589098Y-11286994D01*
X16456151Y-11276949D01*
X16325180Y-11260405D01*
X16196347Y-11237524D01*
X16069814Y-11208466D01*
X15945743Y-11173393D01*
X15824295Y-11132467D01*
X15705631Y-11085850D01*
X15589913Y-11033702D01*
X15477302Y-10976186D01*
X15367960Y-10913463D01*
X15262049Y-10845694D01*
X15159730Y-10773041D01*
X15061165Y-10695666D01*
X14966514Y-10613729D01*
X14875940Y-10527393D01*
X14789604Y-10436819D01*
X14707667Y-10342168D01*
X14630292Y-10243602D01*
X14557639Y-10141283D01*
X14489870Y-10035372D01*
X14427147Y-9926030D01*
X14369630Y-9813420D01*
X14317483Y-9697702D01*
X14270865Y-9579038D01*
X14229940Y-9457589D01*
X14194867Y-9333518D01*
X14165809Y-9206985D01*
X14142927Y-9078152D01*
X14126383Y-8947181D01*
X14116338Y-8814233D01*
X14112954Y-8679470D01*
X14116338Y-8544707D01*
X14126383Y-8411759D01*
X14142927Y-8280788D01*
X14165809Y-8151955D01*
X14194867Y-8025422D01*
X14229940Y-7901351D01*
X14270865Y-7779903D01*
X14317483Y-7661239D01*
X14369630Y-7545521D01*
X14427147Y-7432910D01*
X14489870Y-7323568D01*
X14557639Y-7217657D01*
X14630292Y-7115338D01*
X14707667Y-7016772D01*
X14789604Y-6922122D01*
X14875940Y-6831548D01*
X14966514Y-6745211D01*
X15061165Y-6663275D01*
X15159730Y-6585899D01*
X15262049Y-6513246D01*
X15367960Y-6445478D01*
X15477302Y-6382754D01*
X15589913Y-6325238D01*
X15705631Y-6273091D01*
X15824295Y-6226473D01*
X15945743Y-6185548D01*
X16069814Y-6150475D01*
X16196347Y-6121417D01*
X16325180Y-6098535D01*
X16456151Y-6081991D01*
X16589098Y-6071946D01*
X16723862Y-6068562D01*
X28931578Y-6068562D01*
X29066341Y-6071946D01*
X29066341Y-18703049D02*
X29199289Y-18713094D01*
X29330260Y-18729638D01*
X29459093Y-18752520D01*
X29585625Y-18781578D01*
X29709697Y-18816650D01*
X29831145Y-18857576D01*
X29949809Y-18904194D01*
X30065527Y-18956341D01*
X30178138Y-19013857D01*
X30287479Y-19076580D01*
X30393390Y-19144349D01*
X30495709Y-19217002D01*
X30594275Y-19294377D01*
X30688925Y-19376314D01*
X30779500Y-19462650D01*
X30865836Y-19553224D01*
X30947772Y-19647874D01*
X31025147Y-19746440D01*
X31097800Y-19848759D01*
X31165569Y-19954670D01*
X31228292Y-20064012D01*
X31285808Y-20176622D01*
X31337956Y-20292340D01*
X31384573Y-20411004D01*
X31425499Y-20532453D01*
X31460571Y-20656524D01*
X31489629Y-20783057D01*
X31512511Y-20911889D01*
X31529055Y-21042860D01*
X31539100Y-21175808D01*
X31542484Y-21310572D01*
X31539100Y-21445335D01*
X31529055Y-21578283D01*
X31512511Y-21709254D01*
X31489629Y-21838087D01*
X31460571Y-21964619D01*
X31425499Y-22088691D01*
X31384573Y-22210139D01*
X31337956Y-22328803D01*
X31285808Y-22444521D01*
X31228292Y-22557132D01*
X31165569Y-22666474D01*
X31097800Y-22772385D01*
X31025147Y-22874704D01*
X30947772Y-22973270D01*
X30865836Y-23067920D01*
X30779500Y-23158494D01*
X30688925Y-23244831D01*
X30594275Y-23326767D01*
X30495709Y-23404143D01*
X30393390Y-23476796D01*
X30287479Y-23544564D01*
X30178138Y-23607288D01*
X30065527Y-23664804D01*
X29949809Y-23716951D01*
X29831145Y-23763569D01*
X29709697Y-23804495D01*
X29585625Y-23839567D01*
X29459093Y-23868625D01*
X29330260Y-23891507D01*
X29199289Y-23908051D01*
X29066341Y-23918096D01*
X28931578Y-23921480D01*
X28931578Y-23921482D01*
X16723862Y-23921482D01*
X16589098Y-23918098D01*
X16456151Y-23908053D01*
X16325180Y-23891509D01*
X16196347Y-23868627D01*
X16069814Y-23839569D01*
X15945743Y-23804497D01*
X15824295Y-23763571D01*
X15705631Y-23716953D01*
X15589913Y-23664806D01*
X15477302Y-23607290D01*
X15367960Y-23544566D01*
X15262049Y-23476797D01*
X15159730Y-23404144D01*
X15061165Y-23326769D01*
X14966514Y-23244832D01*
X14875940Y-23158496D01*
X14789604Y-23067922D01*
X14707667Y-22973271D01*
X14630292Y-22874705D01*
X14557639Y-22772386D01*
X14489870Y-22666475D01*
X14427147Y-22557133D01*
X14369630Y-22444523D01*
X14317483Y-22328804D01*
X14270865Y-22210140D01*
X14229940Y-22088692D01*
X14194867Y-21964620D01*
X14165809Y-21838087D01*
X14142927Y-21709254D01*
X14126383Y-21578283D01*
X14116338Y-21445335D01*
X14112954Y-21310572D01*
X14116338Y-21175808D01*
X14126383Y-21042860D01*
X14142927Y-20911889D01*
X14165809Y-20783056D01*
X14194867Y-20656523D01*
X14229940Y-20532452D01*
X14270865Y-20411004D01*
X14317483Y-20292340D01*
X14369630Y-20176622D01*
X14427147Y-20064011D01*
X14489870Y-19954669D01*
X14557639Y-19848758D01*
X14630292Y-19746439D01*
X14707667Y-19647874D01*
X14789604Y-19553223D01*
X14875940Y-19462649D01*
X14966514Y-19376313D01*
X15061165Y-19294377D01*
X15159730Y-19217001D01*
X15262049Y-19144349D01*
X15367960Y-19076580D01*
X15477302Y-19013857D01*
X15589913Y-18956341D01*
X15705631Y-18904193D01*
X15824295Y-18857576D01*
X15945743Y-18816650D01*
X16069814Y-18781578D01*
X16196347Y-18752520D01*
X16325180Y-18729638D01*
X16456151Y-18713094D01*
X16589098Y-18703049D01*
X16723862Y-18699665D01*
X28931578Y-18699665D01*
X29066341Y-18703049D01*
X6139476Y-12246702D02*
X6279319Y-12257647D01*
X6417340Y-12275660D01*
X6553352Y-12300553D01*
X6687168Y-12332138D01*
X6818599Y-12370230D01*
X6947459Y-12414639D01*
X7073561Y-12465180D01*
X7196717Y-12521664D01*
X7316739Y-12583904D01*
X7433441Y-12651713D01*
X7546634Y-12724904D01*
X7656132Y-12803289D01*
X7761748Y-12886680D01*
X7863293Y-12974892D01*
X7960581Y-13067735D01*
X8053424Y-13165023D01*
X8141636Y-13266568D01*
X8225027Y-13372183D01*
X8303412Y-13481682D01*
X8376603Y-13594875D01*
X8444412Y-13711577D01*
X8506652Y-13831599D01*
X8563136Y-13954754D01*
X8613677Y-14080856D01*
X8658087Y-14209716D01*
X8696178Y-14341148D01*
X8727764Y-14474963D01*
X8752657Y-14610975D01*
X8770669Y-14748996D01*
X8781614Y-14888840D01*
X8785304Y-15030317D01*
X8781614Y-15171795D01*
X8770669Y-15311638D01*
X8752657Y-15449659D01*
X8727764Y-15585672D01*
X8696178Y-15719487D01*
X8658087Y-15850918D01*
X8613677Y-15979779D01*
X8563136Y-16105880D01*
X8506652Y-16229036D01*
X8444412Y-16349058D01*
X8376603Y-16465760D01*
X8303412Y-16578953D01*
X8225027Y-16688452D01*
X8141636Y-16794067D01*
X8053424Y-16895612D01*
X7960581Y-16992900D01*
X7863293Y-17085744D01*
X7761748Y-17173955D01*
X7656132Y-17257346D01*
X7546634Y-17335731D01*
X7433441Y-17408922D01*
X7316739Y-17476731D01*
X7196717Y-17538971D01*
X7073561Y-17595455D01*
X6947459Y-17645996D01*
X6818599Y-17690406D01*
X6687168Y-17728497D01*
X6553352Y-17760083D01*
X6417340Y-17784976D01*
X6279319Y-17802988D01*
X6139476Y-17813933D01*
X5997998Y-17817623D01*
X5853417Y-17813933D01*
X5710865Y-17802988D01*
X5570509Y-17784976D01*
X5432518Y-17760083D01*
X5297059Y-17728497D01*
X5164300Y-17690406D01*
X5034410Y-17645996D01*
X4907556Y-17595455D01*
X4783906Y-17538971D01*
X4663629Y-17476731D01*
X4546892Y-17408922D01*
X4433863Y-17335731D01*
X4324710Y-17257346D01*
X4219602Y-17173955D01*
X4118705Y-17085744D01*
X4022189Y-16992900D01*
X3930221Y-16895612D01*
X3842969Y-16794067D01*
X3760601Y-16688452D01*
X3683285Y-16578953D01*
X3611188Y-16465760D01*
X3544480Y-16349058D01*
X3483328Y-16229036D01*
X3427900Y-16105880D01*
X3378364Y-15979779D01*
X3334887Y-15850918D01*
X3297639Y-15719487D01*
X3266786Y-15585672D01*
X3242497Y-15449659D01*
X3224939Y-15311638D01*
X3214282Y-15171795D01*
X3210692Y-15030317D01*
X3214382Y-14888840D01*
X3225327Y-14748996D01*
X3243339Y-14610975D01*
X3268232Y-14474963D01*
X3299818Y-14341148D01*
X3337909Y-14209716D01*
X3382319Y-14080856D01*
X3432860Y-13954754D01*
X3489344Y-13831599D01*
X3551584Y-13711577D01*
X3619393Y-13594875D01*
X3692584Y-13481682D01*
X3770969Y-13372183D01*
X3854360Y-13266568D01*
X3942571Y-13165023D01*
X4035415Y-13067735D01*
X4132703Y-12974892D01*
X4234248Y-12886680D01*
X4339864Y-12803289D01*
X4449362Y-12724904D01*
X4562555Y-12651713D01*
X4679257Y-12583904D01*
X4799279Y-12521664D01*
X4922435Y-12465180D01*
X5048536Y-12414639D01*
X5177397Y-12370230D01*
X5308828Y-12332138D01*
X5442644Y-12300553D01*
X5578656Y-12275660D01*
X5716677Y-12257647D01*
X5856520Y-12246702D01*
X5997998Y-12243012D01*
X6139476Y-12246702D01*
X45690731Y-29990042D02*
X39657440Y-29990042D01*
X0Y-29990042D01*
X0Y0D01*
X39657440Y0D01*
X45690731Y0D01*
X45690731Y-29990042D01*
M02*
