<?xml version="1.0" encoding="UTF-8"?><svg id="a" xmlns="http://www.w3.org/2000/svg" width="9.82mm" height="128.52mm" viewBox="0 0 27.84 364.32"><rect x="14.68" width="1.2" height="364.32"/><path d="M22.58,0c-.92,4.67-2.16,8.97-1.91,13.8.19,3.67,1.28,7.37,1.2,11.05-.09,4.33-1.5,9.1-1.46,13.43.1,11.16,5.23,24.16,5.76,36,.44,10-2.57,18.59-4.19,28.19s-.39,18.02-.58,27.26c-.13,6.08-.59,10.28.27,16.51,1.47,10.72,5.04,21.24,4.52,32.21s-6.04,23.45-5.51,33.83c.19,3.68,1.29,7.36,1.2,11.05-.1,4.25-1.48,8.96-1.47,13.19.02,9.25,4.14,21.13,5.25,30.75,1.47,12.74-1.28,20.25-3.44,32.24-1.78,9.88-.62,18.78-.82,28.69-.12,6.06-.59,10.29.27,16.51.91,6.58,2.76,13,3.55,19.6h-1.44c-.87-6.28-2.05-12.51-2.63-18.84-1.36-14.76-2.09-31.17.31-45.76,1.57-9.54,4.01-18.04,3.52-27.93-.56-11.36-4.72-22.88-5.28-34.06-.29-5.72,1.41-11.44.96-17.29-.15-1.94-.82-4.03-.95-6.01-.75-11.27,4.74-23.89,5.27-35.51.46-10.07-2.89-21.67-3.84-31.93-1.29-14.01-2.13-30.5.07-44.32,1.61-10.08,4.31-19.17,3.75-29.59-.6-11.27-4.72-22.72-5.27-33.83-.28-5.71,1.43-11.46.96-17.29-.16-1.99-.82-3.99-.95-6.01-.35-5.41.91-10.7,1.91-15.96h.96Z"/><path d="M.09,207.12c.49-5.37,2.95-11.86,4.29-17.18,4.96-19.77,4.65-39.79,2.65-59.98-.77-7.75-4.53-26.6.14-32.75,3.07-4.04,5.62,4.76,4.89,6.95-2.18-.28-2.2-7.44-3.47-7.44-1.36,1.22-1.86,3.47-2.2,5.23-1.84,9.45.6,18.76,1.81,28.04,2.55,19.68,1.81,41.22-2.71,60.57-1.77,7.56-5.19,15.5-4.67,23.39.18,2.73,1.05,5.67,1.4,8.44,1.09,8.52.78,17.31,1,25.88.31,12.07,1.66,24.72-.32,36.65-.63,3.8-1.64,7.57-2.8,11.24v-3.36c1.27-4.24,2.23-8.9,2.63-13.32.99-11.06-.57-21.69-.97-32.63-.36-9.97.99-20.16-1.66-29.89.21-3.18-.29-6.71,0-9.84Z"/><path d="M6.79,0c-1.1,7.41-1.88,14.68-.92,22.17.63,4.92,2.15,9.72,2.59,14.68,1.46,16.26,1.23,34.8-2.27,50.76-1.62,7.39-4.45,15.37-4.9,22.92-.22,3.66.08,7.41.23,11.04,1.06,24.51,6.75,49.92-1.43,73.8v-3.6c1.07-3.39,1.89-6.94,2.36-10.47,2.88-21.43-.93-43.57-1.89-65.01-.52-11.77,1.95-17.91,4.43-28.92,3.18-14.1,3.51-28.68,2.76-43.09-.62-11.94-4.36-23.19-3.09-35,.33-3.1,1.06-6.17,1.4-9.27h.72Z"/><path d="M3.44,364.32l-.24-13.8c-.22-16.7-4.99-34.83-1.6-51.29.93-4.51,2.38-8.91,3.4-13.39,3.43-15.15,3.66-31.69,2.51-47.16-.45-6-1.71-11.07-2.56-16.87-1-6.86-.59-20.78,2.28-27.09,1.95-4.3,3.38,1.24,3.8,3.23.88,4.16.86,8.29.79,12.53-.63.05-.4.03-.47-.36-.21-1.1-.17-2.44-.6-3.48-.22-.53-.73-.81-.83-1.32-.47-2.46-.01-6.09-.51-8.85-.71-3.91-1.48-2.13-2.15.42-1.83,6.87-2.26,16.72-1.37,23.76.62,4.92,2.15,9.72,2.6,14.67,1.29,14.32,1.3,31.87-1.27,46-1.13,6.21-3.13,12.22-4.4,18.39-3.6,17.57.35,35.53,1.36,53.21.22,3.79.25,7.6.24,11.4h-.96Z"/><path d="M3.2,0C2.37,3.92,1.06,7.85.81,11.88c-.29,4.73,1.14,9.28,1.64,13.95.85,7.87.56,16.06.76,23.96.32,12.66,1.73,25.57-.56,38.09-.61,3.31-1.48,6.62-2.56,9.8v-3.36c1.3-4.24,2.24-8.89,2.63-13.32.97-11.08-.58-21.67-.97-32.63-.35-9.88,1-20.02-1.66-29.65v-10.08L2.01,0h1.2Z"/><path d="M7.99,364.32c.91-11.9.22-23.98-.96-35.88-.81-8.15-4.31-25.24-.28-32.21,3-5.2,6.19,3.77,5.31,6.41-2.66-1.62-1.53-5.38-3.47-7.44-1.36,1.22-1.86,3.47-2.2,5.23-1.84,9.45.6,18.76,1.81,28.04s1.59,18.94,1.23,28.53c-.09,2.44-.06,4.88-.24,7.32h-1.2Z"/><path d="M27.84,94.32c-.81,2.55-1.53,5.41-1.88,8.07-.83,6.34.03,11.72.22,17.95.18,5.89-.56,11.67-.74,17.52-.21,6.91.76,13.85,2.4,20.53v6.72c-.35-.28-.36-.72-.45-1.11-3.52-15.39-2.13-31.33-2.67-47.01-.05-1.48-.43-3.31-.49-4.79-.26-7.47,1.12-13.59,3.09-20.68.11-.39.12-.81.51-1.05v3.84Z"/><path d="M27.84,292.8c-.72,2.07-1.24,4.27-1.6,6.44-1.99,12.09,1.31,25.04-.8,37.35-.17,6.84.78,13.68,2.4,20.29v6.72c-.36-.52-.46-1.3-.6-1.92-3.34-15.1-1.99-30.8-2.51-46.2-.05-1.48-.43-3.31-.49-4.79-.27-7.61,1.17-14.82,3.6-21.97v4.08Z"/><path d="M27.84,192.72l-2.64,11.63c-.32,4.75.78,9.44.98,14.16.34,8.37-1.48,16.87-.98,25.22.26,4.25,1.62,8.94,2.64,13.07v3.6c-.84-2.56-1.49-5.27-2.04-7.92-1.02-4.9-1.69-8.98-1.56-14.05.17-6.93,1.14-13.66.73-20.63-.61-10.16-.32-17.25,1.51-27.29.3-1.62.41-3.69,1.36-5v7.2Z"/><path d="M26.4,0c-.36,1.99-1.06,4.09-1.21,6.11-.34,4.65.79,9.29.98,13.92.34,8.44-1.53,17.05-.98,25.46.27,4.12,1.64,8.82,2.64,12.83v3.6c-.89-2.59-1.52-5.41-2.08-8.11-2.31-11.28-.61-18.01-.54-28.95.02-3.08-.59-6.08-.74-9.12-.25-5.24.1-10.54.73-15.73h1.2Z"/><path d="M11.1,0c.69,3.66.89,7.43.72,11.16-.01.3.19,1.03-.36.84-.17-.06-.45-3.09-.66-3.66-.23-.64-.79-1.01-.89-1.51-.34-1.8.06-4.88-.24-6.84h1.44Z"/><path d="M19.47,364.32l-1.08-17.04c1.61,5.47,1.52,11.37,2.04,17.04h-.96Z"/><path d="M18.75,248.16c.27.27.82,3.79.93,4.47,1.41,9.58,1.47,19.59,1.22,29.24-.13,5.06-.02,11.46-1.73,16.27-.12.35-.23.8-.65.9-.17-4.23.88-8.4,1.19-12.6.88-11.68-1.36-23.36-1.68-35.03-.02-.9-.09-2.09.22-2.92.09-.25.13-.7.5-.33Z"/><path d="M18.75,49.68c.3.3,1.06,5.52,1.17,6.39,1.13,9.01,1.21,18.28.98,27.32-.13,5.08-.01,11.43-1.73,16.27-.12.35-.23.8-.65.9-.2-4.16.87-8.24,1.19-12.36.91-11.75-1.36-23.53-1.68-35.27-.02-.9-.09-2.09.22-2.92.09-.25.13-.7.5-.33Z"/><path d="M18.51,148.8c.65,3.03,1.14,6.14,1.44,9.24,1.11,11.7,1.75,25.78-.07,37.36-.21,1.35-.38,2.81-1.01,4.04-.59.13-.38-.76-.35-1.08.21-2.31.75-4.64.95-6.97.9-10.18.5-20.55-.24-30.72-.28-3.84-.7-7.73-1.18-11.54-.06-.47.05-.35.46-.34Z"/></svg>