<?xml version="1.0" encoding="UTF-8"?><svg id="a" xmlns="http://www.w3.org/2000/svg" width="9.8mm" height="128.5mm" viewBox="0 0 27.78 364.25"><path d="M3.81,276.07c-.16.31-.84-.04-.97-.22-.22-.33-2.12-6.37-2.26-7.09-.72-3.56-.43-7.34-.58-10.98v-5.62c.51.01,1.22.02,1.87-.67,2.9-3.09-.6-15.34-1.87-21.71v-21.56c.13-1.42.27-2.84.42-4.24.7,7.23-.82,14.85-.17,22.04.59,6.38,5.78,20.19,2.27,25.69-.44.68-2.02.88-2.27,2.21-.26,1.45.21,6.39.33,8.2.3,4.77,1.33,9.36,3.23,13.95Z" fill="none"/><path d="M25.96,120.72c-2.1,2.99-2.43,9.14-6.14,11.07-3.09,1.6-7.42,2.37-9.38-.44-3.1,1.49-.08.2.48.77,1.48,8.17.63,16.47.65,24.69.24,3.67-.38,7.31-.32,10.97.12,6.86,1.08,14.26.56,21.03-.83,10.83-3.77,21.2-3.47,32.56.05,2.09.09,5.41,5.01,4.32,1.34-.3,3.23-5.05,3.4-6.09.82-5.17-2.41-8.63-2.59-13.51-.26-7.16,2.1-15.13,2.59-22.37.59-8.95-.12-17.96.64-26.91l.97-24.02,3.24-1.33c.42.65-.8,5.34-.17,5.2,1.45-1.82.35-4.14.81-6.09.18-.74,4.76-9.83,3.72-9.85ZM16.42,156.81c-.21,9.4.33,18.86-.32,28.24-.49,7.09-3.43,16.1-2.59,23.03.62,5.1,5.68,10.63.65,16.39-1.2,1.36-4.66.93-5.18-.44-.21-.57-.16-11.17,0-11.74.46-1.54,1.39-.95,2.92-1.77-.06-.64-1.04.19-1.46.11-1.87-.38.05-4.97.16-6.09,1.03-10.75,3.14-18.22,1.62-29.01-.88-6.21.09-12.49,0-18.72l-.32-23.36c2.3.74,3.74-.09,5.98-.33l-1.46,23.69Z" fill="none"/><path d="M3.16,202.54c.01.39-.21.79-.16,1.22-.37.12-.78-.68-.81-.77-.81-2.53-.24-10.58-.41-13.95-.32-6.54-1.12-13.31-1.78-19.71v-1.96c.33-1.87,1.42-3.65,0-5.35v-.4c3.04,1.06.35,4.85.58,7.04,1.15,11.24,2.47,22.41,2.58,33.88Z" fill="none"/><path d="M3,90.38c-.37.11-.77-.67-.81-.78-.77-2.28-.25-10.36-.41-13.51-.3-6.29-1.06-12.74-1.61-19.04-.02-.22-.09-.53-.17-.88v-3.5c.6-1.34,1.53-2.68,0-4.13v-.29c3,1.14.35,4.82.58,7.03,1.16,11.32,2.44,22.1,2.58,33.88.01.26.13,1.09-.16,1.22Z" fill="none"/><path d="M1.55,156.81c.84,1.82,2.25,4.06,1.78,5.98l-2.43-5.98-.9-9.92v-7.98c3.59-.67,2.89-5.55,2.84-7.67-.12-4.98-1.95-9.86-2.84-14.76v-21.52c.13-1.39.27-2.78.42-4.14.69,7.16-.87,14.69-.17,21.81.65,6.57,5.32,18.52,2.91,24.58-.48,1.22-2.45,2.12-2.58,2.44-.43,1.02-.09,7.54,0,9.08.15,2.67.85,5.4.97,8.08Z" fill="none"/><path d="M24.15,0c-.84,4.69-2.11,9.5-3.52,12.09-1.75,3.21-9.83,3.89-12.29.67,2.74,2.04,9.23,2.38,11.32-.23.92-1.15,3.08-8.97,3.9-12.53h.59Z" fill="none"/><path d="M3.81,49.3c-.16.3-.84-.04-.97-.23-.22-.32-2.12-6.37-2.26-7.08-.72-3.56-.43-7.34-.58-10.98v-5.62c.51,0,1.22.02,1.87-.68,2.9-3.08-.6-15.33-1.87-21.7V0h.35c.87,6.65,5.55,19.64,2.17,24.94-.44.68-2.02.88-2.27,2.21-.26,1.45.21,6.39.33,8.19.3,4.78,1.33,9.37,3.23,13.96Z" fill="none"/><path d="M3.49,103.11c-.29,10.6,3.08,20.93,3.55,31.45.33,7.29-1.17,14.88,0,22.25-.05,4.57-.83,9.53-.64,14.07.15,3.71,1.42,7.66,1.61,11.29.35,6.54-.31,13.08.49,19.6-3.45-1.21-1.34-.48-1.13-1.22.15-.55-.11-1.67-.05-2.24,1.62-13.74-3.38-27.68-1.25-41.5-.47-8.48.61-17.09,0-25.57-1.01-14.16-5.47-27.65-1.61-42.08.65-2.44,2.45-1.29,2.91-1.99.06-.11-.48-10.6-.41-11.01,1.41-8.71-.75-9.76-1.21-18.45-.69-13.07,1.16-26.76.32-39.86-.39-6.24-1.38-12.06-2.11-17.85h.74c.05.63.11,1.27.17,1.9.62,6.41,1.87,12.82,2.17,19.27.75,15.87.15,31.76.97,47.61.31,5.86-.81,13.11,0,18.61.02.11.95.42.65.88-1.44-.61-3.06-.72-3.56.67-.93,2.61-1.53,11.16-1.61,14.17Z" fill="none"/><path d="M25.8,87.39c-3.01.67-3.4-3.84-4.69-4.1-3.24-.79-2.25,4.68-1.78,5.65.36.72,4.34,1.54,4.85,3.98l-.55.94c.08-.16.09-.35.06-.55h0c-.01-.11-.04-.21-.08-.32-.04-.1-.08-.21-.13-.31,0,0-.01,0-.01-.01-.04-.07-.08-.15-.12-.22-.13-.22-.29-.44-.49-.65h-.01c-.08-.1-.17-.2-.26-.29-.05-.05-.09-.09-.14-.13-.14-.14-.3-.28-.46-.4-.15-.12-.3-.23-.46-.32-.18-.13-.36-.23-.54-.32-1.1-.54-2.2-.56-2.63.59-.59,1.61,2.31,7.37,2.59,9.52.47,3.58.22,17.33-2.26,20.16-2.31,2.62-9.87,2.04-10.68-2-.86-4.31.22-16.24.65-21.04.65-7.22,3.33-14.94,3.88-21.92.55-6.87-1.22-14.32-1.29-21.26-.11-10.38,1.53-22.13.32-32.33-.17-1.49.22-3.47-2.26-3.55,1.51-1.6,2.55,1.23,3.72,1.44,1.26.23,5.65-.96,6.79-1.55,3.89-2.02,3.96-8.6,6.63-11.62-.34,3.22-3.03,6.42-3.88,9.52-.63,2.27.08,4.63-.97,6.86l-.17-4.98c-2.97,1.02-5.92,2.86-9.53,1.88,1.07,13.71.16,27.46.32,41.2.06,4.87,1.41,9.95.97,14.83-.3,3.36-1.34,6.9-1.86,10.19-.38,2.46-.61,5.02-1.06,7.54-.17.96-.89,2.82-.17,3.21,1.05.55,3.81-1.63,3.1-.54-.45.68-3.79.35-4.22,2.63-.14.8-.21,10.96,0,11.52.45,1.18,3.61,1.72,4.86.89.88-.6,2.22-6.7,2.22-7.76-.01-3.51-2.36-6.96-2.55-10.63-.34-6.87,2.11-14.58,2.59-21.48,1.06-15.3-1.06-32.14.97-47.17.16-1.22,1.57-2.95,1.13-4.54.75.75.61,2.36.49,3.21-2.19,15.64-.86,31.76-1.94,47.62-.49,7.04-2.81,14.7-2.59,21.7.16,5.37,5.73,13.95.32,19.05-2.01,1.89-5.25-.28-5.82.66.62,2.76-2.04,8.78,3.72,9.41,6.59.72,6.73-2.68,7.11-6.2-1.7.76-4.04,2.49-6.3,1.44,4.44-.3,6.6-1.42,7.11-4.43.47-2.73.38-9.16,0-11.96-.41-3.1-2.81-6.39-2.58-9.52,0-.07.97-1.04.97-1.11.02-1.53-1.19-6.22.48-6.97,3.48-1.56,3.93,4.31,6.63,4.54Z" fill="none"/><path d="M20.66,0c-.38,3.27-1.01,6.12-1.97,7.22-1.91,2.17-9.15,1.98-10.35-.66-.24-.52-.44-4.32-.43-6.56h1.13c-.23,2.64-1.55,7.1,2.05,7.99,6.7,1.68,8.48-2.26,8.4-5.97-1.7.75-4.04,2.48-6.3,1.43,3.58-.18,6.1-1.19,6.93-3.45h.54Z" fill="none"/><path d="M25.8,314.16c-3.01.68-3.4-3.83-4.69-4.1-3.24-.79-2.25,4.68-1.78,5.65.36.72,4.34,1.54,4.85,3.98l-.57.98c.81-1.64-4.22-5.76-5.25-2.97-.59,1.62,2.31,7.37,2.59,9.52.47,3.58.22,17.33-2.26,20.16-2.31,2.62-9.87,2.04-10.68-2-.86-4.31.22-16.24.65-21.03.65-7.23,3.33-14.95,3.88-21.93.55-6.87-1.22-14.32-1.29-21.26-.11-10.38,1.53-22.13.32-32.33-.17-1.49.22-3.47-2.26-3.54,1.51-1.6,2.55,1.22,3.72,1.43,1.26.23,5.65-.96,6.79-1.55,3.89-2.02,3.96-8.6,6.63-11.62-.34,3.22-3.03,6.42-3.88,9.52-.63,2.27.08,4.63-.97,6.87l-.17-4.99c-2.97,1.02-5.92,2.86-9.53,1.89,1.07,13.7.16,27.45.32,41.19.06,4.87,1.41,9.95.97,14.83-.3,3.36-1.34,6.91-1.86,10.19-.38,2.46-.61,5.02-1.06,7.54-.17.96-.89,2.83-.17,3.21,1.05.55,3.81-1.63,3.1-.54-.45.68-3.79.35-4.22,2.64-.14.79-.21,10.95,0,11.51.45,1.18,3.61,1.72,4.86.89.88-.6,2.22-6.7,2.22-7.75-.01-3.52-2.36-6.97-2.55-10.63-.34-6.88,2.11-14.59,2.59-21.48,1.06-15.3-1.06-32.15.97-47.18.16-1.22,1.57-2.95,1.13-4.54.75.75.61,2.36.49,3.22-2.19,15.63-.86,31.75-1.94,47.61-.49,7.04-2.81,14.71-2.59,21.7.16,5.38,5.73,13.95.32,19.05-2.01,1.89-5.25-.28-5.82.66.62,2.76-2.04,8.78,3.72,9.41,6.59.72,6.73-2.68,7.11-6.2-1.7.76-4.04,2.49-6.3,1.44,4.44-.3,6.6-1.42,7.11-4.43.47-2.73.38-9.16,0-11.96-.41-3.1-2.81-6.39-2.58-9.52,0-.07.97-1.04.97-1.11.02-1.53-1.19-6.22.48-6.97,3.48-1.56,3.93,4.31,6.63,4.54Z" fill="none"/><path d="M26.12,200.77c-3.83,1.02-3.18-4.89-6.3-4.09-2.47.63.59,4.64-.97,5.75,0-1.32-1.77-6.13.97-6.42,4.17.22,2.36,4.11,6.3,4.76Z" fill="none"/><path d="M3.49,329.88c-.29,10.6,3.08,20.93,3.55,31.45.05.97.06,1.94.05,2.92h-.83c.01-2.08-.04-4.17-.19-6.24-1.01-14.16-5.47-27.65-1.61-42.08.65-2.44,2.45-1.29,2.91-1.99.06-.1-.48-10.59-.41-11.01,1.41-8.71-.75-9.76-1.21-18.45-.69-13.07,1.16-26.76.32-39.86-.93-14.65-5.12-26.95-1.61-42.08.04-.17.46-1.65,1.13-1.44-1.98,9.18-1.63,18.3-.72,27.58.62,6.4,1.87,12.81,2.17,19.26.75,15.87.15,31.76.97,47.62.31,5.85-.81,13.1,0,18.6.02.12.95.42.65.88-1.44-.61-3.06-.72-3.56.67-.93,2.61-1.53,11.16-1.61,14.17Z" fill="none"/><path d="M3,317.15c-.37.11-.77-.67-.81-.78-.77-2.28-.25-10.35-.41-13.51-.3-6.29-1.06-12.73-1.61-19.04-.02-.21-.09-.53-.17-.87v-3.51c.6-1.33,1.53-2.68,0-4.13v-.29c3,1.15.35,4.82.58,7.03,1.16,11.32,2.44,22.1,2.58,33.88.01.26.13,1.09-.16,1.22Z" fill="none"/><path d="M3.16,363.99c-.03.09-.09.17-.14.26h-.89c1.11-1.79.75-4.72.71-6.24-.12-4.98-1.95-9.86-2.84-14.76v-21.52c.13-1.39.27-2.78.42-4.14.69,7.16-.87,14.69-.17,21.81.65,6.57,5.32,18.52,2.91,24.59Z" fill="none"/><path d="M27.78,0v364.25h-.74l-.11-5.69c-1.63.78-.44,2.91-.81,4.1-.15.49-.48,1.03-.86,1.59h-.6c.34-.53.64-1.06.82-1.59.52-1.59-1.18-4.2,1.94-4.87l-.33-36.32c-5.42-.89-2.03,5.89-1.94,8.19.22,5.33-1.85,17.69-4.52,22.59-1.78,3.26-9.78,3.87-12.29.66,2.98,2.15,9.75,2.41,11.64-.66,2.73-4.45,4.7-18.04,4.53-23.03-.12-3.25-3.59-7.54,2.58-8.86l.33-40.53-1.3,3.32c-.64-1.85-.13-3.7.33-5.53-.21-.22-.48.1-.65.22-3.85,2.67-2.23,24.52-.65,29.01-.74.33-.88-1.24-.97-1.55-1.7-5.82-2.73-22.98,1.3-27.9.34-.42,1.52-.46,1.94-.89l-.33-31.22c-1.84.23-.65,2.91-.97,3.98-.77,2.59-2.97,4.33-3.55,7.75-2.01,11.68-.43,25.02-1.3,36.99-.35,4.9-2.4,9.74-1.61,14.61-.41.38-.94-.34-.97-.44-.86-2.77,1.68-9.94,1.94-13.29.96-12.55-1.19-27.6,1.61-39.64.53-2.25,2.73-4.11,3.24-5.76.51-1.67-1.21-4.38,1.94-5.09l-.33-36.32c-5.42-.89-2.04,6.08-1.94,8.42.24,5.17-1.91,17.57-4.52,22.36-1.75,3.21-9.83,3.89-12.29.67,2.74,2.04,9.23,2.38,11.32-.22,1.08-1.36,3.86-11.9,4.2-13.96.43-2.6.69-5.34.65-7.97-.03-1.82-1.62-7.59-.97-8.86.23-.44,3.36-1.19,3.55-1.55l.33-40.74c-1.42.27-.29,2.71-.65,3.54-2.2-.52.01-5.13-.32-5.54-.21-.22-.47.1-.65.22-2.73,1.82-2.56,18.09-2.26,21.26.23,2.44,2.34,5.89.97,7.75-1.1-7.39-4.25-23.01.97-29.45.33-.41,1.73-.51,1.94-.88.58-1.06-.44-4.93,0-6.32l-.49-25.02c-1.63.78-.44,2.91-.81,4.1-.49,1.59-2.74,3.65-3.23,5.53-.84,3.22-.41,7.51-.65,10.85-.09,1.26-1.04,2.93-.32,4.54-.08,8.25-1.29,16.46-.65,24.7l-2.1,13.84,2.1-38.54c.15-1.31-.42-2.55-.32-3.87.24-3.06.55-7.85,1.29-11.07.53-2.3,2.62-4.1,3.24-5.98.52-1.59-1.18-4.2,1.94-4.88l-.33-36.32c-5.42-.88-2.03,5.9-1.94,8.2.22,5.33-1.85,17.68-4.52,22.59-1.78,3.25-9.78,3.87-12.29.66,2.98,2.15,9.75,2.41,11.64-.66,2.73-4.45,4.7-18.04,4.53-23.03-.12-3.25-3.59-7.54,2.58-8.86l.33-40.53-1.3,3.32c-.64-1.85-.13-3.7.33-5.53-.21-.22-.48.1-.65.22-3.85,2.67-2.23,24.51-.65,29.01-.74.32-.88-1.24-.97-1.55-1.7-5.82-2.73-22.98,1.3-27.9.34-.42,1.52-.46,1.94-.89l-.33-31.23c-1.84.24-.65,2.92-.97,3.99-.77,2.59-2.97,4.33-3.55,7.75-2.01,11.67-.43,25.02-1.3,36.98-.35,4.91-2.4,9.75-1.61,14.62-.41.38-.94-.34-.97-.44-.86-2.77,1.68-9.94,1.94-13.29.96-12.55-1.19-27.6,1.61-39.64.53-2.25,2.73-4.11,3.24-5.76.51-1.67-1.21-4.39,1.94-5.09l-.16-17.63h.52Z" fill="none"/><path d="M22.24,357.34c-.46,1.95.64,4.28-.81,6.09-.63.14.59-4.55.17-5.2l-3.24,1.33-.19,4.69h-.56l.27-4.36c-2.24.24-3.68,1.07-5.98.33l.05,4.03h-.37c-.14-1.79-.33-3.58-.66-5.36-.56-.57-3.58.72-.48-.77,1.96,2.82,6.29,2.05,9.38.44,3.71-1.93,4.04-8.08,6.14-11.07,1.04.02-3.54,9.12-3.72,9.85Z" fill="none"/><path d="M23.7,207.53c.43-1.29-2.26-4.54-4.21-4.21-2.82.48,1.24,8.88,1.46,10.52.47,3.54.16,17.4-2.26,20.15-1.91,2.17-9.15,1.98-10.35-.66-.33-.72-.59-7.83-.33-8.2.29-.29.93.08.97.22.64,1.95-2.27,8.32,2.11,9.42,6.7,1.67,8.48-2.27,8.4-5.98-1.7.75-4.04,2.48-6.3,1.44,3.86-.2,6.51-1.34,7.11-3.99.55-2.38.34-9.83,0-12.4-.48-3.67-3.96-7.56-1.61-11.07,2.86-.09,4.37,1.71,5.49,3.32l-.48,1.44Z" fill="none"/><path d="M2.84,131.24c-.12-4.97-1.95-9.85-2.84-14.76v22.43c3.59-.66,2.89-5.55,2.84-7.67Z" fill="#ec008c"/><path d="M11.09,7.99c6.7,1.67,8.48-2.26,8.41-5.98-1.71.75-4.05,2.49-6.31,1.44,3.58-.18,6.1-1.2,6.93-3.45h-11.07c-.24,2.64-1.55,7.1,2.04,7.99Z" fill="#ec008c"/><path d="M1.87,24.71c2.9-3.09-.6-15.33-1.87-21.7v22.37c.51.02,1.22.02,1.87-.67Z" fill="#ec008c"/><path d="M0,48.54v4.13c.6-1.33,1.53-2.68,0-4.13Z" fill="#ec008c"/><path d="M25.48,164.01c.33-.41,1.73-.51,1.94-.88.58-1.06-.44-4.93,0-6.32l-.49-25.02c-1.63.78-.44,2.91-.81,4.1-.49,1.59-2.74,3.65-3.23,5.53-.84,3.22-.41,7.51-.65,10.85-.09,1.26-1.04,2.93-.32,4.54-.08,8.25-1.29,16.46-.65,24.7l-2.1,13.84,2.1-38.54c.15-1.31-.42-2.55-.32-3.87.24-3.06.55-7.85,1.29-11.07.53-2.3,2.62-4.1,3.24-5.98.52-1.59-1.18-4.2,1.94-4.88l-.33-36.32c-5.42-.88-2.03,5.9-1.94,8.2.22,5.33-1.85,17.68-4.52,22.59-1.78,3.25-9.78,3.87-12.29.66,2.98,2.15,9.75,2.41,11.64-.66,2.73-4.45,4.7-18.04,4.53-23.03-.12-3.25-3.59-7.54,2.58-8.86l.33-40.53-1.3,3.32c-.64-1.85-.13-3.7.33-5.53-.21-.22-.48.1-.65.22-3.85,2.67-2.23,24.51-.65,29.01-.74.32-.88-1.24-.97-1.55-1.7-5.82-2.73-22.98,1.3-27.9.34-.42,1.52-.46,1.94-.89l-.33-31.23c-1.84.24-.65,2.92-.97,3.99-.77,2.59-2.97,4.33-3.55,7.75-2.01,11.67-.43,25.02-1.3,36.98-.35,4.91-2.4,9.75-1.61,14.62-.41.38-.94-.34-.97-.44-.86-2.77,1.68-9.94,1.94-13.29.96-12.55-1.19-27.6,1.61-39.64.53-2.25,2.73-4.11,3.24-5.76.51-1.67-1.21-4.39,1.94-5.09l-.16-17.63h-3.11c-.84,4.69-2.11,9.5-3.52,12.09-1.75,3.21-9.83,3.89-12.29.67,2.74,2.04,9.23,2.38,11.32-.23.92-1.15,3.08-8.97,3.9-12.53h-2.9c-.38,3.27-1.01,6.12-1.97,7.22-1.91,2.17-9.15,1.98-10.35-.66-.24-.52-.44-4.32-.43-6.56h-3.21c.05.63.11,1.27.17,1.9.62,6.41,1.87,12.82,2.17,19.27.75,15.87.15,31.76.97,47.61.31,5.86-.81,13.11,0,18.61.02.11.95.42.65.88-1.44-.61-3.06-.72-3.56.67-.93,2.61-1.53,11.16-1.61,14.17-.29,10.6,3.08,20.93,3.55,31.45.33,7.29-1.17,14.88,0,22.25-.05,4.57-.83,9.53-.64,14.07.15,3.71,1.42,7.66,1.61,11.29.35,6.54-.31,13.08.49,19.6-3.45-1.21-1.34-.48-1.13-1.22.15-.55-.11-1.67-.05-2.24,1.62-13.74-3.38-27.68-1.25-41.5-.47-8.48.61-17.09,0-25.57-1.01-14.16-5.47-27.65-1.61-42.08.65-2.44,2.45-1.29,2.91-1.99.06-.11-.48-10.6-.41-11.01,1.41-8.71-.75-9.76-1.21-18.45-.69-13.07,1.16-26.76.32-39.86-.39-6.24-1.38-12.06-2.11-17.85H.35c.87,6.65,5.55,19.64,2.17,24.94-.44.68-2.02.88-2.27,2.21-.26,1.45.21,6.39.33,8.19.3,4.78,1.33,9.37,3.23,13.96-.16.3-.84-.04-.97-.23-.22-.32-2.12-6.37-2.26-7.08-.72-3.56-.43-7.34-.58-10.98v17.24c3,1.14.35,4.82.58,7.03,1.16,11.32,2.44,22.1,2.58,33.88.01.26.13,1.09-.16,1.22-.37.11-.77-.67-.81-.78-.77-2.28-.25-10.36-.41-13.51-.3-6.29-1.06-12.74-1.61-19.04-.02-.22-.09-.53-.17-.88v38.79c.13-1.39.27-2.78.42-4.14.69,7.16-.87,14.69-.17,21.81.65,6.57,5.32,18.52,2.91,24.58-.48,1.22-2.45,2.12-2.58,2.44-.43,1.02-.09,7.54,0,9.08.15,2.67.85,5.4.97,8.08.84,1.82,2.25,4.06,1.78,5.98l-2.43-5.98-.9-9.92v14.73c3.04,1.06.35,4.85.58,7.04,1.15,11.24,2.47,22.41,2.58,33.88.01.39-.21.79-.16,1.22-.37.12-.78-.68-.81-.77-.81-2.53-.24-10.58-.41-13.95-.32-6.54-1.12-13.31-1.78-19.71v38.89c.13-1.42.27-2.84.42-4.24.7,7.23-.82,14.85-.17,22.04.59,6.38,5.78,20.19,2.27,25.69-.44.68-2.02.88-2.27,2.21-.26,1.45.21,6.39.33,8.2.3,4.77,1.33,9.36,3.23,13.95-.16.31-.84-.04-.97-.22-.22-.33-2.12-6.37-2.26-7.09-.72-3.56-.43-7.34-.58-10.98v17.24c3,1.15.35,4.82.58,7.03,1.16,11.32,2.44,22.1,2.58,33.88.01.26.13,1.09-.16,1.22-.37.11-.77-.67-.81-.78-.77-2.28-.25-10.35-.41-13.51-.3-6.29-1.06-12.73-1.61-19.04-.02-.21-.09-.53-.17-.87v38.78c.13-1.39.27-2.78.42-4.14.69,7.16-.87,14.69-.17,21.81.65,6.57,5.32,18.52,2.91,24.59-.03.09-.09.17-.14.26h3.24c.01-2.08-.04-4.17-.19-6.24-1.01-14.16-5.47-27.65-1.61-42.08.65-2.44,2.45-1.29,2.91-1.99.06-.1-.48-10.59-.41-11.01,1.41-8.71-.75-9.76-1.21-18.45-.69-13.07,1.16-26.76.32-39.86-.93-14.65-5.12-26.95-1.61-42.08.04-.17.46-1.65,1.13-1.44-1.98,9.18-1.63,18.3-.72,27.58.62,6.4,1.87,12.81,2.17,19.26.75,15.87.15,31.76.97,47.62.31,5.85-.81,13.1,0,18.6.02.12.95.42.65.88-1.44-.61-3.06-.72-3.56.67-.93,2.61-1.53,11.16-1.61,14.17-.29,10.6,3.08,20.93,3.55,31.45.05.97.06,1.94.05,2.92h4.49c-.14-1.79-.33-3.58-.66-5.36-.56-.57-3.58.72-.48-.77,1.96,2.82,6.29,2.05,9.38.44,3.71-1.93,4.04-8.08,6.14-11.07,1.04.02-3.54,9.12-3.72,9.85-.46,1.95.64,4.28-.81,6.09-.63.14.59-4.55.17-5.2l-3.24,1.33-.19,4.69h6.49c.34-.53.64-1.06.82-1.59.52-1.59-1.18-4.2,1.94-4.87l-.33-36.32c-5.42-.89-2.03,5.89-1.94,8.19.22,5.33-1.85,17.69-4.52,22.59-1.78,3.26-9.78,3.87-12.29.66,2.98,2.15,9.75,2.41,11.64-.66,2.73-4.45,4.7-18.04,4.53-23.03-.12-3.25-3.59-7.54,2.58-8.86l.33-40.53-1.3,3.32c-.64-1.85-.13-3.7.33-5.53-.21-.22-.48.1-.65.22-3.85,2.67-2.23,24.52-.65,29.01-.74.33-.88-1.24-.97-1.55-1.7-5.82-2.73-22.98,1.3-27.9.34-.42,1.52-.46,1.94-.89l-.33-31.22c-1.84.23-.65,2.91-.97,3.98-.77,2.59-2.97,4.33-3.55,7.75-2.01,11.68-.43,25.02-1.3,36.99-.35,4.9-2.4,9.74-1.61,14.61-.41.38-.94-.34-.97-.44-.86-2.77,1.68-9.94,1.94-13.29.96-12.55-1.19-27.6,1.61-39.64.53-2.25,2.73-4.11,3.24-5.76.51-1.67-1.21-4.38,1.94-5.09l-.33-36.32c-5.42-.89-2.04,6.08-1.94,8.42.24,5.17-1.91,17.57-4.52,22.36-1.75,3.21-9.83,3.89-12.29.67,2.74,2.04,9.23,2.38,11.32-.22,1.08-1.36,3.86-11.9,4.2-13.96.43-2.6.69-5.34.65-7.97-.03-1.82-1.62-7.59-.97-8.86.23-.44,3.36-1.19,3.55-1.55l.33-40.74c-1.42.27-.29,2.71-.65,3.54-2.2-.52.01-5.13-.32-5.54-.21-.22-.47.1-.65.22-2.73,1.82-2.56,18.09-2.26,21.26.23,2.44,2.34,5.89.97,7.75-1.1-7.39-4.25-23.01.97-29.45ZM8.01,118.61c-.86-4.31.22-16.24.65-21.04.65-7.22,3.33-14.94,3.88-21.92.55-6.87-1.22-14.32-1.29-21.26-.11-10.38,1.53-22.13.32-32.33-.17-1.49.22-3.47-2.26-3.55,1.51-1.6,2.55,1.23,3.72,1.44,1.26.23,5.65-.96,6.79-1.55,3.89-2.02,3.96-8.6,6.63-11.62-.34,3.22-3.03,6.42-3.88,9.52-.63,2.27.08,4.63-.97,6.86l-.17-4.98c-2.97,1.02-5.92,2.86-9.53,1.88,1.07,13.71.16,27.46.32,41.2.06,4.87,1.41,9.95.97,14.83-.3,3.36-1.34,6.9-1.86,10.19-.38,2.46-.61,5.02-1.06,7.54-.17.96-.89,2.82-.17,3.21,1.05.55,3.81-1.63,3.1-.54-.45.68-3.79.35-4.22,2.63-.14.8-.21,10.96,0,11.52.45,1.18,3.61,1.72,4.86.89.88-.6,2.22-6.7,2.22-7.76-.01-3.51-2.36-6.96-2.55-10.63-.34-6.87,2.11-14.58,2.59-21.48,1.06-15.3-1.06-32.14.97-47.17.16-1.22,1.57-2.95,1.13-4.54.75.75.61,2.36.49,3.21-2.19,15.64-.86,31.76-1.94,47.62-.49,7.04-2.81,14.7-2.59,21.7.16,5.37,5.73,13.95.32,19.05-2.01,1.89-5.25-.28-5.82.66.62,2.76-2.04,8.78,3.72,9.41,6.59.72,6.73-2.68,7.11-6.2-1.7.76-4.04,2.49-6.3,1.44,4.44-.3,6.6-1.42,7.11-4.43.47-2.73.38-9.16,0-11.96-.41-3.1-2.81-6.39-2.58-9.52,0-.07.97-1.04.97-1.11.02-1.53-1.19-6.22.48-6.97,3.48-1.56,3.93,4.31,6.63,4.54-3.01.67-3.4-3.84-4.69-4.1-3.24-.79-2.25,4.68-1.78,5.65.36.72,4.34,1.54,4.85,3.98l-.55.94c.07-.16.09-.35.06-.55h0c-.02-.11-.05-.21-.08-.32-.04-.1-.08-.21-.13-.31,0,0-.01,0-.01-.01-.04-.07-.08-.15-.12-.22-.14-.22-.31-.44-.49-.65h-.01c-.08-.1-.17-.2-.26-.29-.05-.05-.09-.09-.14-.13-.14-.14-.3-.28-.46-.4-.15-.12-.3-.23-.46-.32-.18-.13-.36-.23-.54-.32-1.1-.54-2.2-.56-2.63.59-.59,1.61,2.31,7.37,2.59,9.52.47,3.58.22,17.33-2.26,20.16-2.31,2.62-9.87,2.04-10.68-2ZM11.25,281.16c-.11-10.38,1.53-22.13.32-32.33-.17-1.49.22-3.47-2.26-3.54,1.51-1.6,2.55,1.22,3.72,1.43,1.26.23,5.65-.96,6.79-1.55,3.89-2.02,3.96-8.6,6.63-11.62-.34,3.22-3.03,6.42-3.88,9.52-.63,2.27.08,4.63-.97,6.87l-.17-4.99c-2.97,1.02-5.92,2.86-9.53,1.89,1.07,13.7.16,27.45.32,41.19.06,4.87,1.41,9.95.97,14.83-.3,3.36-1.34,6.91-1.86,10.19-.38,2.46-.61,5.02-1.06,7.54-.17.96-.89,2.83-.17,3.21,1.05.55,3.81-1.63,3.1-.54-.45.68-3.79.35-4.22,2.64-.14.79-.21,10.95,0,11.51.45,1.18,3.61,1.72,4.86.89.88-.6,2.22-6.7,2.22-7.75-.01-3.52-2.36-6.97-2.55-10.63-.34-6.88,2.11-14.59,2.59-21.48,1.06-15.3-1.06-32.15.97-47.18.16-1.22,1.57-2.95,1.13-4.54.75.75.61,2.36.49,3.22-2.19,15.63-.86,31.75-1.94,47.61-.49,7.04-2.81,14.71-2.59,21.7.16,5.38,5.73,13.95.32,19.05-2.01,1.89-5.25-.28-5.82.66.62,2.76-2.04,8.78,3.72,9.41,6.59.72,6.73-2.68,7.11-6.2-1.7.76-4.04,2.49-6.3,1.44,4.44-.3,6.6-1.42,7.11-4.43.47-2.73.38-9.16,0-11.96-.41-3.1-2.81-6.39-2.58-9.52,0-.07.97-1.04.97-1.11.02-1.53-1.19-6.22.48-6.97,3.48-1.56,3.93,4.31,6.63,4.54-3.01.68-3.4-3.83-4.69-4.1-3.24-.79-2.25,4.68-1.78,5.65.36.72,4.34,1.54,4.85,3.98l-.57.98c.81-1.64-4.22-5.76-5.25-2.97-.59,1.62,2.31,7.37,2.59,9.52.47,3.58.22,17.33-2.26,20.16-2.31,2.62-9.87,2.04-10.68-2-.86-4.31.22-16.24.65-21.03.65-7.23,3.33-14.95,3.88-21.93.55-6.87-1.22-14.32-1.29-21.26ZM11.81,188.81c.52-6.77-.44-14.17-.56-21.03-.06-3.66.56-7.3.32-10.97-.02-8.22.83-16.52-.65-24.69-.56-.57-3.58.72-.48-.77,1.96,2.81,6.29,2.04,9.38.44,3.71-1.93,4.04-8.08,6.14-11.07,1.04.02-3.54,9.11-3.72,9.85-.46,1.95.64,4.27-.81,6.09-.63.14.59-4.55.17-5.2l-3.24,1.33-.97,24.02c-.76,8.95-.05,17.96-.64,26.91-.49,7.24-2.85,15.21-2.59,22.37.18,4.88,3.41,8.34,2.59,13.51-.17,1.04-2.06,5.79-3.4,6.09-4.92,1.09-4.96-2.23-5.01-4.32-.3-11.36,2.64-21.73,3.47-32.56ZM23.7,207.53c.43-1.29-2.26-4.54-4.21-4.21-2.82.48,1.24,8.88,1.46,10.52.47,3.54.16,17.4-2.26,20.15-1.91,2.17-9.15,1.98-10.35-.66-.33-.72-.59-7.83-.33-8.2.29-.29.93.08.97.22.64,1.95-2.27,8.32,2.11,9.42,6.7,1.67,8.48-2.27,8.4-5.98-1.7.75-4.04,2.48-6.3,1.44,3.86-.2,6.51-1.34,7.11-3.99.55-2.38.34-9.83,0-12.4-.48-3.67-3.96-7.56-1.61-11.07,2.86-.09,4.37,1.71,5.49,3.32l-.48,1.44ZM26.12,200.77c-3.83,1.02-3.18-4.89-6.3-4.09-2.47.63.59,4.64-.97,5.75,0-1.32-1.77-6.13.97-6.42,4.17.22,2.36,4.11,6.3,4.76Z" fill="#006838"/><path d="M0,275.31v4.13c.6-1.33,1.53-2.68,0-4.13Z" fill="#ec008c"/><path d="M2.84,358.01c-.12-4.97-1.95-9.85-2.84-14.76v21h2.13c1.11-1.79.75-4.72.71-6.24Z" fill="#ec008c"/><path d="M0,162.02v5.35c.33-1.87,1.42-3.65,0-5.35Z" fill="#ec008c"/><path d="M1.87,251.49c2.9-3.09-.6-15.33-1.87-21.7v22.37c.51.02,1.22.02,1.87-.67Z" fill="#ec008c"/><path d="M16.1,185.05c-.49,7.09-3.43,16.1-2.59,23.03.62,5.1,5.68,10.63.65,16.39-1.2,1.36-4.66.93-5.18-.44-.21-.57-.16-11.17,0-11.74.46-1.54,1.39-.95,2.92-1.77-.06-.64-1.04.19-1.46.11-1.87-.38.05-4.97.16-6.09,1.03-10.75,3.14-18.22,1.62-29.01-.88-6.21.09-12.49,0-18.72l-.32-23.36c2.3.74,3.74-.09,5.98-.33l-1.46,23.69c-.21,9.4.33,18.86-.32,28.24Z" fill="#006838"/><path d="M11.9,360.22l.06,4.03h5.66l.27-4.36c-2.24.24-3.68,1.07-5.98.33Z" fill="#ec008c"/><path d="M26.93,358.56c-1.63.78-.44,2.91-.81,4.1-.15.49-.48,1.03-.86,1.59h1.78l-.11-5.69Z" fill="#ec008c"/></svg>