<?xml version="1.0" encoding="UTF-8"?><svg id="a" xmlns="http://www.w3.org/2000/svg" width="5mm" height="128.5mm" viewBox="0 0 14.17 364.25"><path d="M14.17,1.73l-6.61.35.12,33.38,3.46-.07.36,5.86,2.67-.16v6.37h-6.49l-.12,7.12,6.61.13v18.83l-2.8.09.04,1.89-3.48-.06-.37,31.75c.15.77-.37,3.92.37,4.25.26.11,4.72.17,6.24.07v18.2l-6.61.35.12,33.38,3.46-.07.36,5.86,2.67-.16v6.37h-6.49l-.12,7.12,6.61.13v18.83l-2.8.09.05,2-3.86.2.37,35.63,6.24-.12v18.39l-6.61.35.12,33.38,3.46-.07.36,5.86,2.67-.16v6.37h-6.49l-.12,7.12,6.61.13v18.83l-2.8.09.04,1.89-3.48-.06-.37,31.75c.04.2.03.59.01,1.04H0v-3.13l4.5.13v-6.5H0v-38.57l4.87-.3-.12-12.38-4.75.05v-6.58l4.87-.09v-5.75l-4.87-.39v-57.62l4.5.13v-6.5H0v-38.57l4.87-.3-.12-12.38-4.75.05v-6.58l4.87-.09v-5.75l-4.87-.39v-57.62l4.5.13v-6.5H0v-38.57l4.87-.3-.12-12.38-4.75.05v-6.58l4.87-.09v-5.75l-4.87-.39V0h14.17v1.73Z" fill="none"/><polygon points="7.56 54.58 14.17 54.71 14.17 47.46 7.68 47.46 7.56 54.58" fill="#00aeef"/><polygon points="7.56 182.58 14.17 182.71 14.17 175.46 7.68 175.46 7.56 182.58" fill="#00aeef"/><polygon points="7.56 310.58 14.17 310.71 14.17 303.46 7.68 303.46 7.56 310.58" fill="#00aeef"/><path d="M14.17,329.54v34.71h-6.6c.02-.45.03-.84-.01-1.04l.37-31.75,3.48.06-.04-1.89,2.8-.09Z" fill="#ec008c"/><polygon points="4.87 35.13 0 34.74 0 40.97 4.87 40.88 4.87 35.13" fill="#00aeef"/><path d="M14.17,73.54v37.99c-1.52.1-5.98.04-6.24-.07-.74-.33-.22-3.48-.37-4.25l.37-31.75,3.48.06-.04-1.89,2.8-.09Z" fill="#ec008c"/><polygon points="4.75 47.5 0 47.55 0 60.18 4.87 59.88 4.75 47.5" fill="#00aeef"/><polygon points="4.5 98.75 0 98.75 0 105.12 4.5 105.25 4.5 98.75" fill="#00aeef"/><polygon points="14.17 1.73 14.17 41.09 11.5 41.25 11.14 35.39 7.68 35.46 7.56 2.08 14.17 1.73" fill="#ec008c"/><polygon points="14.17 201.54 14.17 239.34 7.93 239.46 7.56 203.83 11.42 203.63 11.37 201.63 14.17 201.54" fill="#ec008c"/><polygon points="4.87 163.13 0 162.74 0 168.97 4.87 168.88 4.87 163.13" fill="#00aeef"/><polygon points="4.87 291.13 0 290.74 0 296.97 4.87 296.88 4.87 291.13" fill="#00aeef"/><polygon points="4.75 303.5 0 303.55 0 316.18 4.87 315.88 4.75 303.5" fill="#00aeef"/><polygon points="4.75 175.5 0 175.55 0 188.18 4.87 187.88 4.75 175.5" fill="#00aeef"/><polygon points="4.5 226.75 0 226.75 0 233.12 4.5 233.25 4.5 226.75" fill="#00aeef"/><polygon points="4.5 354.75 0 354.75 0 361.12 4.5 361.25 4.5 354.75" fill="#00aeef"/><polygon points="14.17 129.73 14.17 169.09 11.5 169.25 11.14 163.39 7.68 163.46 7.56 130.08 14.17 129.73" fill="#ec008c"/><polygon points="14.17 257.73 14.17 297.09 11.5 297.25 11.14 291.39 7.68 291.46 7.56 258.08 14.17 257.73" fill="#ec008c"/><rect width="2.83" height="2.83" fill="#ec008c"/></svg>