<?xml version="1.0" encoding="UTF-8"?><svg id="a" xmlns="http://www.w3.org/2000/svg" width="5mm" height="128.5mm" viewBox="0 0 14.17 364.25"><path d="M14.17,1.73l-6.61.35.12,33.38,6.49-.12v12.12h-6.49l-.12,7.12,6.61.13v20.86l-6.24-.11-.37,31.75c.15.77-.37,3.92.37,4.25.26.11,4.72.17,6.24.07v18.2l-6.61.35.12,33.38,6.49-.12v12.12h-6.49l-.12,7.12,6.61.13v20.77l-6.61.35.37,35.63,6.24-.12v18.39l-6.61.35.12,33.38,6.49-.12v12.12h-6.49l-.12,7.12,6.61.13v20.86l-6.24-.11-.37,31.75c.04.2.03.59.01,1.04H0V0h14.17v1.73Z" fill="none"/><polygon points="7.68 35.46 14.17 35.34 14.17 1.73 7.56 2.08 7.68 35.46" fill="#ec008c"/><polygon points="7.56 54.58 14.17 54.71 14.17 47.46 7.68 47.46 7.56 54.58" fill="#ec008c"/><path d="M14.17,75.57v35.96c-1.52.1-5.98.04-6.24-.07-.74-.33-.22-3.48-.37-4.25l.37-31.75,6.24.11Z" fill="#ec008c"/><polygon points="7.93 239.46 14.17 239.34 14.17 203.48 7.56 203.83 7.93 239.46" fill="#ec008c"/><polygon points="7.68 291.46 14.17 291.34 14.17 257.73 7.56 258.08 7.68 291.46" fill="#ec008c"/><polygon points="7.68 163.46 14.17 163.34 14.17 129.73 7.56 130.08 7.68 163.46" fill="#ec008c"/><polygon points="7.56 182.58 14.17 182.71 14.17 175.46 7.68 175.46 7.56 182.58" fill="#ec008c"/><polygon points="7.56 310.58 14.17 310.71 14.17 303.46 7.68 303.46 7.56 310.58" fill="#ec008c"/><path d="M14.17,331.57v32.68h-6.6c.02-.45.03-.84-.01-1.04l.37-31.75,6.24.11Z" fill="#ec008c"/><rect width="5.67" height="5.67" fill="#ec008c"/></svg>