<?xml version="1.0" encoding="UTF-8"?><svg id="a" xmlns="http://www.w3.org/2000/svg" width="5mm" height="128.5mm" viewBox="0 0 14.17 364.25"><path d="M13.26,301.61c.32.2.63.33.91.41v-4.68c-.05,0-.1.01-.16.02-1.73.31-2.67,3.09-.75,4.25Z" fill="none"/><path d="M14.17,238.65v-5.9l-2.79,3.23c.47.37,1.48,1.35,2.79,2.67Z" fill="none"/><path d="M3.39,227.49c-.16.87,2.62,2.88,3.12,3.62.64-.96,4.59-4.56,7.66-7.47v-6.87c-2.05,2.32-10.65,9.99-10.79,10.71Z" fill="none"/><path d="M14.17,270.14v-4.79c-.05,0-.1,0-.16.01-2.52.4-2.29,4.36.16,4.78Z" fill="none"/><path d="M14.17,72.23v6.86c-3.62-3.47-6.42-6.27-6.53-6.85-.19-1.02,2.59-2.63,3.12-3.38l3.41,3.37Z" fill="none"/><path d="M9.64,83.49l-3.13,3.37c-.7-.8-3.52-3.42-6.51-6.24v-6.94l9.64,9.81Z" fill="none"/><polygon points="1.89 91.74 0 93.62 0 89.87 1.89 91.74" fill="none"/><polygon points="14.17 56.15 14.17 62.69 11.14 59.61 10.89 59.61 0 48.72 0 41.97 14.17 56.15" fill="none"/><path d="M3.26,114.11c-3.47.74-4.03-4.21-1.25-4.75,3.16-.61,3.85,4.2,1.25,4.75Z" fill="none"/><path d="M3.26,66.11c-3.43.73-4.11-4.29-1.25-4.75,3.27-.52,3.78,4.21,1.25,4.75Z" fill="none"/><path d="M7.26,166.11c-3.43.73-4.11-4.29-1.25-4.75,3.27-.52,3.78,4.21,1.25,4.75Z" fill="none"/><path d="M7.64,200.24c1.03.64,3.54,3.16,6.54,6.32v-6.32l-3.41-3.37-3.12,3.38Z" fill="none"/><polygon points="14.17 184.41 14.17 190.8 0 176.68 0 170.08 14.17 184.41" fill="none"/><path d="M9.64,339.49l-3.13,3.37c-.7-.8-3.52-3.42-6.51-6.24v-6.94l9.64,9.81Z" fill="none"/><polygon points="14.17 312.15 14.17 318.69 11.14 315.61 10.89 315.61 0 304.72 0 297.97 14.17 312.15" fill="none"/><path d="M14.17,328.23v6.86c-3.62-3.47-6.42-6.27-6.53-6.85-.19-1.02,2.59-2.63,3.12-3.38l3.41,3.37Z" fill="none"/><path d="M6.26,214.86c.51.06,3.51-2.62,3.38-3.38-1.12-.84-5.78-5.83-9.64-9.75v6.98c3.02,3.2,5.78,6.09,6.26,6.14Z" fill="none"/><path d="M3.26,322.11c-3.43.73-4.11-4.29-1.25-4.75,3.27-.52,3.78,4.21,1.25,4.75Z" fill="none"/><path d="M14.17,344.78v6.88c-3.06,2.91-7,6.51-7.66,7.45-.5-.75-3.28-2.76-3.12-3.62.13-.73,8.73-8.39,10.78-10.71Z" fill="none"/><polygon points="1.89 347.74 0 349.62 0 345.87 1.89 347.74" fill="none"/><path d="M2.26,189.36c-3.22.29-2.45,5.48,1,4.75,2.42-.51,2.1-5.03-1-4.75Z" fill="none"/><path d="M7.26,278.11c2.52-.54,2.02-5.27-1.25-4.75-2.86.46-2.19,5.48,1.25,4.75Z" fill="none"/><polygon points="0 217.87 0 221.62 1.89 219.74 0 217.87" fill="none"/><path d="M2.01,237.36c-2.78.54-2.22,5.49,1.25,4.75,2.6-.55,1.9-5.36-1.25-4.75Z" fill="none"/><path d="M6.01,289.36c-2.83.45-2.22,5.51,1.25,4.75,2.54-.55,2.01-5.27-1.25-4.75Z" fill="none"/><path d="M14.17,360.75v3.5h-2.47c-.12-.1-.23-.2-.31-.26l2.78-3.24Z" fill="none"/><path d="M7.26,150.11c-3.43.73-4.11-4.29-1.25-4.75,3.27-.52,3.78,4.21,1.25,4.75Z" fill="none"/><path d="M7.26,22.11c2.52-.54,2.02-5.27-1.25-4.75-2.86.46-2.19,5.48,1.25,4.75Z" fill="none"/><path d="M13.26,45.61c.32.2.63.33.91.41v-4.68c-.05,0-.1.01-.16.02-1.73.31-2.67,3.09-.75,4.25Z" fill="none"/><path d="M14.17,14.14v-4.79c-.05,0-.1,0-.16.01-2.52.4-2.29,4.36.16,4.78Z" fill="none"/><path d="M14.17,137.35v4.79c-2.45-.42-2.68-4.38-.16-4.78.06-.01.11,0,.16-.01Z" fill="none"/><path d="M14.17,104.75v5.9c-1.3-1.32-2.31-2.3-2.78-2.66l2.78-3.24Z" fill="none"/><path d="M6.01,33.36c-2.83.45-2.22,5.51,1.25,4.75,2.54-.55,2.01-5.27-1.25-4.75Z" fill="none"/><path d="M14.17,88.78v6.88c-3.06,2.91-7,6.51-7.66,7.45-.5-.75-3.28-2.76-3.12-3.62.13-.73,8.73-8.39,10.78-10.71Z" fill="none"/><path d="M14.17,169.35v4.79c-2.45-.41-2.66-4.33-.16-4.78.06-.01.11-.01.16-.01Z" fill="none"/><path d="M14.17,46.02c-.28-.08-.59-.21-.91-.41-1.92-1.16-.98-3.94.75-4.25.06,0,.11-.01.16-.02V14.14c-2.45-.42-2.69-4.38-.16-4.78.06,0,.11,0,.16-.01V0H0v41.97l14.17,14.17v-10.13ZM6.01,17.36c3.27-.52,3.77,4.21,1.25,4.75-3.44.73-4.11-4.29-1.25-4.75ZM7.26,38.11c-3.47.76-4.08-4.3-1.25-4.75,3.26-.52,3.79,4.2,1.25,4.75Z" fill="#00aeef"/><path d="M10.76,68.86l3.41,3.37v-9.54l-3.03-3.08h-.25L0,48.72v24.96l9.64,9.81-3.13,3.37c-.7-.8-3.52-3.42-6.51-6.24v9.25l1.89,1.87-1.89,1.88v76.46l14.17,14.33v-10.27c-2.45-.41-2.66-4.33-.16-4.78.06-.01.11-.01.16-.01v-27.21c-2.45-.42-2.68-4.38-.16-4.78.06-.01.11,0,.16-.01v-26.7c-1.3-1.32-2.31-2.3-2.78-2.66l2.78-3.24v-9.09c-3.06,2.91-7,6.51-7.66,7.45-.5-.75-3.28-2.76-3.12-3.62.13-.73,8.73-8.39,10.78-10.71v-9.69c-3.62-3.47-6.42-6.27-6.53-6.85-.19-1.02,2.59-2.63,3.12-3.38ZM7.26,166.11c-3.43.73-4.11-4.29-1.25-4.75,3.27-.52,3.78,4.21,1.25,4.75ZM7.26,150.11c-3.43.73-4.11-4.29-1.25-4.75,3.27-.52,3.78,4.21,1.25,4.75ZM3.26,114.11c-3.47.74-4.03-4.21-1.25-4.75,3.16-.61,3.85,4.2,1.25,4.75ZM3.26,66.11c-3.43.73-4.11-4.29-1.25-4.75,3.27-.52,3.78,4.21,1.25,4.75Z" fill="#ec008c"/><path d="M14.17,302.02c-.28-.08-.59-.21-.91-.41-1.92-1.16-.98-3.94.75-4.25.06,0,.11-.01.16-.02v-27.2c-2.45-.42-2.69-4.38-.16-4.78.06,0,.11,0,.16-.01v-26.69c-1.31-1.32-2.31-2.3-2.79-2.67l2.79-3.23v-9.11c-3.07,2.91-7.02,6.5-7.66,7.47-.51-.75-3.28-2.76-3.12-3.62.13-.72,8.73-8.39,10.79-10.71v-10.23c-3-3.15-5.51-5.68-6.54-6.32l3.12-3.38,3.41,3.37v-9.44l-14.17-14.11v25.05c3.86,3.92,8.51,8.91,9.64,9.75.14.75-2.86,3.44-3.38,3.38-.48-.06-3.24-2.94-6.26-6.14v9.15l1.89,1.87-1.89,1.89v76.35l14.17,14.17v-10.13ZM3.26,194.11c-3.45.73-4.22-4.46-1-4.75,3.1-.28,3.42,4.24,1,4.75ZM7.26,278.11c-3.44.73-4.11-4.29-1.25-4.75,3.27-.52,3.77,4.21,1.25,4.75ZM3.26,242.11c-3.47.74-4.03-4.21-1.25-4.75,3.15-.61,3.85,4.2,1.25,4.75ZM7.26,294.11c-3.47.76-4.08-4.3-1.25-4.75,3.26-.52,3.79,4.2,1.25,4.75Z" fill="#00aeef"/><path d="M10.76,324.86l3.41,3.37v-9.54l-3.03-3.08h-.25l-10.89-10.89v24.96l9.64,9.81-3.13,3.37c-.7-.8-3.52-3.42-6.51-6.24v9.25l1.89,1.87-1.89,1.88v14.63h11.7c-.12-.1-.23-.2-.31-.26l2.78-3.24v-9.09c-3.06,2.91-7,6.51-7.66,7.45-.5-.75-3.28-2.76-3.12-3.62.13-.73,8.73-8.39,10.78-10.71v-9.69c-3.62-3.47-6.42-6.27-6.53-6.85-.19-1.02,2.59-2.63,3.12-3.38ZM3.26,322.11c-3.43.73-4.11-4.29-1.25-4.75,3.27-.52,3.78,4.21,1.25,4.75Z" fill="#ec008c"/></svg>