<?xml version="1.0" encoding="UTF-8"?><svg id="a" xmlns="http://www.w3.org/2000/svg" width="14.9mm" height="128.5mm" viewBox="0 0 42.24 364.25"><path d="M42.24,156.72v1.68c-1.19.07-2.59-.5-3.72-.5-6.01.02-9.26,6.38-15.36,6.73-5.34.31-11.14-4.17-15.77-2.81-3.16.93-3.89,5.9-7.38,6.18v-1.44c3.12-1.25,4.06-5.59,7.62-6.18,7.45-1.25,12.13,5.69,20.15,1.43,2.32-1.24,4.33-3.78,6.73-4.79s5.16-.92,7.75-.29Z"/><path d="M42.24,284.64v1.68c-2.37-.9-4.67-.87-7.02.06-2.76,1.09-4.91,3.91-7.54,5.18-7.13,3.45-13.32-2.97-20.06-1.82-3.58.61-3.68,6.33-7.62,6.18v-1.44c3.42-1.21,3.91-5.44,7.91-6.13,6.98-1.22,12.01,5.73,19.61,1.61,2.43-1.31,6.19-5.1,8.47-5.69,1.72-.44,4.53-.11,6.25.37Z"/><path d="M42.24,222.96v1.44c-5.34,4.25-12.07,2.2-17.38-.94-.37.09-2.42,3.64-2.92,4.28-4.95,6.29-15.14,5-21.94,2.9v-1.44c6.33,1.92,14.22,3.34,19.79-1.21,2.23-1.82,2.66-4.04,4.62-5.96,4.48,1.8,8.68,4.35,13.75,2.97,1.54-.42,2.7-1.32,4.08-2.04Z"/><path d="M42.24,130.32v1.2c-11.44,1.35-19.45,15.25-31.66,8.02-3.85-2.28-6.51-6.46-10.58-8.5v-1.44c5.79,2.62,10.1,10.66,16.91,10.81,9.22.21,16.09-10.18,25.33-10.09Z"/><path d="M42.24,28.56v1.68c-2.19-.68-4.61-.73-6.79.05-2.65.95-4.45,3.31-6.82,4.7-7.75,4.54-13.51-2.28-20.53-1.33-4.32.59-3.86,5.97-8.1,6.42v-1.68c2.33-.42,3.27-3.24,5.04-4.68,6.2-5.08,14.27,4.57,22.24.4,2.32-1.21,6.22-5.09,8.23-5.69,1.67-.5,4.94.02,6.73.13Z"/><path d="M42.24,94.8v1.68c-3.89,2.92-8.42,2.83-12.85,1.21-1.56-.57-2.94-1.6-4.51-2.14-1.7,1.74-2.37,4.02-4.24,5.62-5.49,4.71-14.25,3.31-20.64,1.56v-1.68c6.24,2.38,16.21,3.58,20.98-2.18.66-.79,2.77-4.56,3.43-4.75,1.87.38,3.53,1.54,5.41,2.19,4.54,1.58,8.58,1.75,12.43-1.51Z"/><path d="M42.24,2.16v1.44c-9.5.8-16.19,10.81-26.05,10.09C9.51,13.2,5.66,5.8,0,3.12v-1.44c7.99,3.94,10.8,13.05,21.23,10.07,7.28-2.09,12.97-9.28,21.01-9.59Z"/><path d="M42.24,258.24v1.44c-8.35.43-14.07,8.25-22.07,9.73-4.94.92-7.66-.24-11.41-3.26-2.87-2.31-5.31-5.48-8.77-6.95v-1.44c5.52,2.09,9.83,10.03,15.95,10.57,9.84.86,16.63-9.82,26.29-10.09Z"/><path d="M42.24,350.88v1.44c-5.12,4.41-12.34,2.19-17.51-.96-.97,1.44-1.84,3.31-2.93,4.63-4.76,5.81-15.41,4.78-21.8,2.56v-1.44c5.92,1.93,13.21,3.26,18.8-.28,2.82-1.79,3.39-4.75,5.8-6.85,5.67,2.94,12.03,5.48,17.64.89Z"/><path d="M42.24,339.84v1.68c-3.68-2.58-7.62-7.26-12.36-7.68-7.37-.65-11.71,7.15-18.72,7.67-4.03.3-8.21-1.72-11.16-4.32v-1.44c1.31.55,2.32,1.64,3.53,2.35,11.51,6.79,15.89-6.06,26.11-5.47,5.22.3,8.71,4.27,12.6,7.2Z"/><path d="M42.24,211.92v1.68c-3.45-2.68-7.13-6.52-11.51-7.57-9.17-2.19-13.96,10.96-24.96,6.72-2.14-.82-3.8-2.35-5.76-3.48v-1.68c4.18,3.23,7.71,5.54,13.2,3.96,4.88-1.4,8.85-6.26,14.07-6.81,6.57-.69,10.35,3.33,14.97,7.17Z"/><path d="M42.24,84v1.68c-3.49-2.9-8.06-7.65-12.85-7.92-8.54-.48-12.68,10.76-23.52,6.97-2.16-.76-3.98-2.14-5.87-3.37v-1.68c3.72,2.68,6.51,4.81,11.4,4.32s8.53-4.82,12.78-6.42c7.61-2.87,12.8,1.64,18.06,6.42Z"/><path d="M42.24,320.88v.96c-.95.17-1.95.16-2.89.35-7.52,1.48-11.9,8.27-19,10.28-8.31,2.34-14.49-1.3-20.34-6.78v-1.68c3.06,2.3,5.82,5.56,9.44,7,13.08,5.22,20.4-10.54,32.8-10.12Z"/><path d="M42.24,64.8v1.2c-8.73-.43-13.93,8.06-21.66,10.38-8.36,2.52-14.74-1.11-20.58-6.78v-1.44c2.95,1.89,5.22,4.76,8.4,6.36,13.26,6.69,21.23-9.96,33.84-9.72Z"/><path d="M42.24,192.72v1.2c-8.91-.29-14.16,8.47-22.13,10.63s-14.53-1.43-20.11-7.03v-1.44c3.48,2.47,6.42,6.23,10.69,7.43,11.45,3.22,17.71-8.04,27.66-10.24,1.3-.29,2.59-.31,3.89-.55Z"/><path d="M42.24,47.76v1.68c-1.1-.59-2.2-1.34-3.36-1.8-2.44-.95-5.37-1.46-7.84-.41-.57.24-1.42,1.05-1.94,1.18-2.62.67-7.74-2.03-10.44-2.88-5.84-1.85-12.56-3.42-18.66-2.58v-1.44c6.54-.74,13.88.98,20.11,3.05,2.12.71,6.69,3.2,8.7,2.6.75-.23,1.55-1.19,2.58-1.5,3.73-1.14,7.54.54,10.85,2.09Z"/><path d="M42.24,250.08v1.68c-3.24-1.76-7.57-3.59-11.35-2.83-1.05.21-2.76,1.85-3.66,1.85-.6,0-2.29-1.41-3.07-1.71-6.53-2.57-14.45,5.59-21.24,3.48-1.15-.36-1.85-1.11-2.93-1.51v-1.68c1.24.41,2.32,1.72,3.59,2.05,6.1,1.57,14.18-6.23,21.3-3.54.65.25,1.96,1.45,2.3,1.45.86,0,2.58-1.39,3.71-1.58,3.64-.61,8.1.72,11.34,2.34Z"/><path d="M42.24,303.84v1.44c-3.34-1.7-7.54-3.74-11.26-2.02-.62.29-1.25,1-1.93,1.18-2.5.67-8.17-2.23-10.87-3.07-5.75-1.8-12.16-3.13-18.18-2.58v-1.2c6.54-.87,13.74.9,19.97,2.95,1.9.63,6.94,3.14,8.59,2.71,1.03-.27,2.15-1.53,3.54-1.76,3.58-.6,7.09.6,10.14,2.34Z"/><path d="M42.24,23.52v1.2c-2.74.96-5.34-2.83-7.75-2.59-1.14.11-3.78,2.85-5,3.65-5.65,3.7-11.78,4.14-18.28,2.72-3.86-.84-7.33-4.45-11.22-5.46v-1.44c3.21,1.15,5.78,3.42,9,4.56,5.75,2.05,13.55,2.51,18.92-.77,1.64-1,4.57-4.03,6.3-4.27,3.01-.41,4.91,3.1,8.02,2.39Z"/><path d="M42.24,279.6v1.2c-2.78.76-5.34-2.95-7.78-2.64-1.12.15-4.14,3.13-5.44,3.94-5.7,3.56-12.43,3.86-18.83,2.07-3.29-.92-6.69-4.29-10.19-5.05v-1.44c3.27,1.05,5.79,3.33,9.06,4.5,5.22,1.86,12.86,2.37,17.9-.22,1.91-.98,5.3-4.47,7.02-4.74,3.48-.55,4.86,2.88,8.27,2.38Z"/><path d="M42.24,175.92v1.44c-3.17-1.72-6.38-3.26-10.14-2.58-1.17.21-2.19,1.47-3.29,1.75-2.15.55-5.81-1.62-7.98-2.35-6.51-2.17-13.96-4.08-20.82-3.3v-1.44c6.69-.69,13.87,1.12,20.21,3.19,2.23.73,6.44,3.11,8.65,2.51.64-.17,1.68-1.25,2.57-1.51,3.46-1.02,7.84.46,10.81,2.29Z"/><path d="M42.24,151.44v1.44c-2.92.59-5.34-3.06-8.03-2.63-1.08.17-5.16,3.79-6.63,4.65-6.03,3.5-13.75,2.69-19.96.08-2.68-1.12-4.94-2.95-7.62-4.02v-1.2c3.37,1.07,6.08,3.42,9.47,4.57,5.5,1.86,13.04,2.22,18.21-.77,2.93-1.69,4.74-5.07,8.58-4.17,1.77.41,3.8,3.05,5.98,2.06Z"/><path d="M42.24,122.16v1.44c-1.86-.74-3.61-1.72-5.58-2.22s-4.24-.88-6.19-.31c-1.03.3-1.89,1.54-3,1.59-1.24.06-2.86-1.62-4.13-1.88-7.88-1.61-15.96,8.11-23.35,2.11v-1.68c5.24,5.18,11.02.48,16.62-1.02,2.25-.61,5.08-.99,7.4-.55,1.21.23,2.55,1.59,3.22,1.6.91,0,2.32-1.22,3.42-1.4,3.81-.64,8.27.49,11.58,2.34Z"/><path d="M42.24,241.92v1.2c-.58-.1-1.64.48-2.04.48h-5.04c-1.99,0-4.78-2.89-6.71-3.13-6.66-.81-13.78,6.22-20.36,3.56-1.14-.46-3.15-2.36-3.95-2.55-.93-.22-2.99.77-4.14.44v-.72c1.38.23,2.86-.65,4.18-.47s2.94,1.83,4.22,2.27c6.55,2.25,14.1-5.46,21.01-3.25,1.24.4,2.44,1.68,3.78,2.22,2.93,1.17,6.07.68,9.04-.04Z"/><path d="M42.24,114v1.2c-.73-.14-1.96.48-2.52.48h-4.08c-1.87,0-4.27-2.09-5.88-2.76-6.3-2.64-14.33,5.88-21.6,3.12-1.25-.47-3.04-2.26-4.02-2.47-1.2-.26-2.87.63-4.14.44v-.72c1.02.09,2.02-.4,3-.48,2.53-.19,3.21,1.35,5.33,2.1,6.07,2.15,12.76-4.01,19.16-3.55,2.91.21,4.31,2.45,7.02,3.06s5.03.01,7.73-.41Z"/><path d="M0,202.8c4.42,1.91,9.24,4.78,14.28,4.32.53-.05,5.14-1.49,5.16-1.07.16,1.38-2.21,1.76-3.31,1.97-5.89,1.12-11.02-1.79-16.13-4.25v-.96Z"/><path d="M0,330.72c4.45,2.12,9.39,4.84,14.52,4.32,1.53-.15,2.96-1.07,4.55-.96.6.98-.42,1.19-1.18,1.45-6.54,2.29-12.07-1.2-17.89-3.61v-1.2Z"/><path d="M0,74.88c3.91,1.42,7.31,3.78,11.63,4.09,2.71.2,4.01-.55,6.24-.74.31-.03,1.49-.21,1.33.37-.15.86-2.76,1.4-3.55,1.49-5.99.72-10.45-1.89-15.65-4.25v-.96Z"/><path d="M0,2c.6-.1.55.38.59.38-.2.55-.41.86-.59,1v46.66c.1.16.1.41,0,.63v2.11l.05-.02-.05.15v33.69l.05-.02.18.54-.18.18-.05-.05v99.5l.95.95c-.29-.04-.6.03-.9,0-.02-.02-.03-.03-.05-.04v130.53c.26.33.54.8.59.87.18.11,1.02-.18,1.08.18-1.99,1.45-1.01-.1-1.08-.18-.05-.03-.33-.04-.59-.12v45.3h42.24v-9.62s-.05.04-.08.06c-.39-.34-.11-.58.08-.89v-39.35c-.71-1.04-1.58-2.08-.08-2.58-.13.51-.06.8.08,1v-1.87c-.16.19-.43.3-.8.15-.17-.31.3-1.32.72-1.08.03.02.05.05.08.08v-109.36l-.08.24c-.61-.12-.33-1.08.08-1.69v-15.12c-.46-.61-1.16-2.17-.08-2.27l.08.57v-2.1l-.26-.09.18-.54.08.08v-56.64s-.05.04-.08.06c-.06-.51-1.05-1.83,0-1.8.02.08.05.16.08.24V7.39l-.62-.87c.25.16.45.26.62.3V0H4.39c-.37.19-.81.27-.92.04,0-.01,0-.03,0-.04H0v2ZM2.21,122.58l-.54-.54.54-.18.18.54-.18.18ZM2.21,250.33c-.5.77-.81-.06-.36-.72.22.29.61.33.36.72ZM1.49,119.7c.57.12-.13,1.57-.36,1.44-.56-.33.12-1.49.36-1.44ZM.59,117.36l1.26-.9-.72,1.44-.54-.54ZM1.49,190.23c.6.32-.19,1.54-.36,1.44-.4-.24-.28-1.78.36-1.44ZM.77,228.02l.36-.36v.72h-.36v-.36ZM1.85,230.54c.56.91-.05,1.98-1.08,2.16l1.08-2.16ZM1.13,316.9c-.17-.31.3-1.32.72-1.08.53.31.19,1.43-.72,1.08ZM.77,321.22l.36-.36v.72h-.36v-.36ZM.77,333.82l-.18.54-.18.18-.18-.54.54-.18ZM1.67,336.34c.47-.7.86.29.36.72.13.11.94-.26.72.72H.95l.72-1.44ZM12.29,42.33c.28.75-1.21,1.42-1.44,2.16-.67-1.32.32-1.91,1.44-2.16ZM11.57,28.65c.43.16.17.95-.36.72-.43-.19-.19-.92.36-.72ZM15.7,114.3c-.17-.11-.17.04-.36-.36.36-.93,1.25.11.36.36ZM16.24,76.87c.43.16.17.95-.36.72-.43-.19-.19-.92.36-.72ZM18.04,146.69c.8.52-2.82,6.05-3.96,6.12,1.78-2.15,1.69-4.85,3.96-6.12ZM19.3,109.26h-.36s-.77-.09-.18-.72c.75-.18.49.72.54.72ZM18.76,76.87c-.4-.18-.26-1.36.36-1.08.4.18.26,1.36-.36,1.08ZM19.48,143.81c.43.16.17.95-.36.72-.43-.19-.19-.92.36-.72ZM18.94,141.47l.54-.18-.18.54-.18.18-.18-.54ZM19.48,165.4c.93.58-.99,1.09-1.62.54.39-.17,1.24-.78,1.62-.54ZM23.8,100.98l-1.8,3.24c-.86-.26,1.17-3.14,1.8-3.24ZM21.28,59.6c-.51-.15.13-2.04.72-1.8.51.21-.44,1.65-.72,1.8ZM22.54,57.62l.54-.18-.18.54-.18.18-.18-.54ZM25.24,103.5c-.59.89-1.21-.62-.36-.72.04,0,.6.36.36.72ZM24.52,52.04c-.56-.33.12-1.49.36-1.44.57.12-.13,1.57-.36,1.44ZM29.02,31.17c.05.47.32.79.18,1.08l-.54-1.08c.09-1,.26-.87.36,0ZM28.66,14.44l.54-.18.18.54-.18.18-.54-.54ZM29.92,208.58c.99.58-.43,1.63-.72,2.16-.99-.58.43-1.63.72-2.16ZM29.38,139.31l.54-.18-.18.54-.18.18-.18-.54ZM31,83.35l.54.54-.18.18-.54-.18.18-.54ZM31,78.67c.75.45.12,1.49,0,2.16-.25,0-.31-1.81,0-2.16ZM36.76,162.52c.3.01.14.69.18.72.03.04.89-.21.72.54-.85.66-.68-.52-.72-.54-.04-.06-1.84-.79-.18-.72ZM36.76,120.42c.31.21.27.91,0,1.08-.47.3-.44-1.39,0-1.08ZM41.08,304.67c.35.17.37,1.22-.36,1.08-.55-.11.22-1.15.36-1.08ZM40.36,300.35c.12-.04.91.87.36,1.08-.67.26-.73-.97-.36-1.08ZM40.36,245.29c-.71-.12-.49-1.22.36-1.08.71.12.49,1.22-.36,1.08ZM31.54,323.56l.54-4.5c.77.67.13,2.91.18,3.06.07.21,2.82.86.9,3.42-1.32-1.42,1.75-2.94-1.62-1.98ZM32.08,328.42c-.35-.17-.37-1.22.36-1.08.55.11-.22,1.15-.36,1.08ZM31,256.45l.36-1.8c.88.27.33,1.96-.36,1.8ZM31,262.56c-.59-.27.18-1.54.36-1.44.39.22.31,1.74-.36,1.44ZM31.36,212.9l-.54-.18.18-.54.54.54-.18.18ZM31.36,215.06c-.45.82.38,2.44-.72,2.88-.28-.19-.22-3.38.72-2.88ZM30.64,289.2c.5.06-.13,1.11-.36,1.08-.5-.06.13-1.11.36-1.08ZM30.64,318.7c.43.16.17.95-.36.72-.43-.19-.19-.92.36-.72ZM30.64,323.38c.46.03.02,1.88-.18.54-.06-.22,0-.55.18-.54ZM30.64,326.62l.54.54-.18.18-.54-.18.18-.54ZM32.08,283.8l-.72,1.44c-.41-.86-.36-1.67.72-1.44ZM33.7,216.32c.46,0,1.19-.56,1.26-.54.29.07.84.89.36,1.08l-1.62-.54ZM34.96,264.72c-.5.77-.81-.06-.36-.72.22.29.61.33.36.72ZM32.8,262.56l-.18.54-.18.18-.18-.54.54-.18ZM32.08,209.66c.22.29.61.33.36.72-.5.77-.81-.06-.36-.72ZM33.16,216.86c.43.16.17.95-.36.72-.43-.19-.19-.92.36-.72ZM33.52,221.18c.43.16.17.95-.36.72-.43-.19-.19-.92.36-.72ZM34.6,157.48c.12-.04.91.87.36,1.08-.67.26-.73-.97-.36-1.08ZM33.52,160.36c-.64-.44.67-1.11.72-1.08.54.35.17,1.42-.72,1.08ZM33.52,142.01c.55.11-.22,1.15-.36,1.08-.35-.17-.37-1.22.36-1.08ZM33.88,136.97c.25.09-.29,1.35-.72,1.08-.15-.33.24-1.26.72-1.08ZM33.16,157.84c.34.18.44,1.04-.36,1.08-.74.04-.34-1.45.36-1.08ZM32.08,154.24l.72,1.8c-.7.32-1.28-1.33-.72-1.8ZM32.08,142.01c-.4-.24-.28-1.78.36-1.44.6.32-.19,1.54-.36,1.44ZM33.16,255.73c.44,1.26,1.83,2.14,1.08,3.6-.77-.22-1.71-3.3-1.08-3.6ZM34.6,283.8l.67,4.01c.03.1.04.2.05.31l-.05-.31c-.37-1.45-2.38-2.15-.67-4.01ZM35.32,259.69c.19-.03,1.39,1.25.36,1.44-1.1.2-.72-1.38-.36-1.44ZM38.2,264c-3.2.66-2.11-2.74-1.08-2.16.16.09-.18,1.54,1.08,2.16ZM38.02,161.98s.6-.72.9-.54c.8.49-.63,1.14-.9.54ZM37.84,265.08c.65.6-1,1.49-1.08,1.44-.8-.53.41-1.48,1.08-1.44ZM36.4,286.32c-.47.3-.44-1.39,0-1.08.31.21.27.91,0,1.08ZM36.4,298.19l.18.54-.18.18-.54-.54.54-.18ZM37.12,287.04c.67-.11.33,1.78-.36,1.44-.48-.24-.05-1.37.36-1.44ZM37.12,303.59c-.09.78,2.73,4.4,1.8,4.68-.46-1.63-3.1-2.92-1.8-4.68ZM38.56,301.79c.03,1.06,1.33,1.55.72,2.52-.42.2-2-2.37-.72-2.52ZM39.28,300.35c-.4-.18-.26-1.82.36-1.44.4.24.3,1.74-.36,1.44ZM39.28,126.18c-.56-.47.1-2.78.72-3.24-.14.62.79,4.48-.72,3.24ZM38.38,122.4l1.98-1.62c.67.88-1.8,2.17-1.98,1.62ZM37.84,119.34s.57.49.9.54c-.63.61-1.59-.18-.9-.54ZM36.76,219.02c-.08-.75-2.2-1.74-.72-1.8.56-.02,1.37,1.15.72,1.8ZM35.32,161.8c-.35-.17-.37-1.22.36-1.08.55.11-.22,1.15-.36,1.08ZM35.32,138.77l-.54-.18.18-.54.54.54-.18.18ZM34.42,78.13c-.26-.51.64-.73.9-.54.77.56-.62,1.1-.9.54ZM34.6,142.73c.4.18.26,1.36-.36,1.08-.4-.18-.26-1.36.36-1.08ZM33.16,83.71l.72-1.44c.59.98-.08.95-.72,1.44ZM33.52,85.15c.57.12-.13,1.57-.36,1.44-.56-.33.12-1.49.36-1.44ZM33.16,120.42c.43.16.17.95-.36.72-.43-.19-.19-.92.36-.72ZM32.8,80.83h-.36v-.36l.36-.36v.72ZM32.08,140.21c-.4-.05-.71-1.81.36-1.08.35.24.38,1.17-.36,1.08ZM32.08,138.05l-.54-.54.54-.18.18.54-.18.18ZM31.72,34.77c-.39-.24-.3-2.21.36-1.8.39.24.3,2.21-.36,1.8ZM30.28,140.57c-.3-.26.66-1.11.72-1.08.53.3.19,1.43-.72,1.08ZM30.28,153.53c.05-.04,1.36.64.72,1.08-.89.34-1.26-.73-.72-1.08ZM22.72,237.01c-.89-1.41.04-3.05,1.44-3.6l-1.44,3.6ZM23.08,241.69l.36-1.8c.64-.14.32,2.16-.36,1.8ZM23.08,107.46c-.43-.19-.19-.92.36-.72.43.16.17.95-.36.72ZM23.44,108.54v.72h-.36v-.36l.36-.36ZM23.08,165.4c.43.16.17.95-.36.72-.43-.19-.19-.92.36-.72ZM24.88,308.63c.81.08.44,1.92-.36,1.8-1.08-.16-.03-1.84.36-1.8ZM24.88,313.67c.3.22.28.96,0,1.08-.44.19-.77-1.64,0-1.08ZM26.32,314.75l-1.08,2.16c-.52-1.24-.22-1.95,1.08-2.16ZM25.42,289.73c-.06-.22,0-.55.18-.54.46.03.02,1.88-.18.54ZM25.96,311.51c.31.21.27.91,0,1.08-.47.3-.44-1.39,0-1.08ZM26.32,313.31c.31.21.27.91,0,1.08-.47.3-.44-1.39,0-1.08ZM27.04,287.76c.36.18-.29.71-.36.72-.9.14-.38-.73.36-.72ZM27.4,257.17c.4.18.26,1.36-.36,1.08-.4-.18-.26-1.36.36-1.08ZM27.76,289.2c.85.34-.99,1.48-1.08,1.44-.85-.34.99-1.48,1.08-1.44ZM27.4,310.79c.43.16.17.95-.36.72-.43-.19-.19-.92.36-.72ZM27.4,316.9c.46.35.45,3.38-.36,2.88l.36-2.88ZM28.12,311.87c.05,0,.57.85.54.9-.62,1.08-1.88-1.06-.54-.9ZM29.92,257.89l-.72,2.52c-1.15-1.63-1.16-1.67.72-2.52ZM29.2,320.86c.31.25.28,1.42,0,1.8-1.4-.57-.59-2.27,0-1.8ZM28.84,317.98l.72-1.44c.49.61.07,1.44-.72,1.44ZM29.2,285.96c-.48-.22-.06-1.37.36-1.44,1.02-.16-.1,1.56-.36,1.44ZM29.2,254.29l-1.98-.18c-.18-.41,1.18-.91,1.26-.9.06,0,1.37.62.72,1.08ZM26.32,237.73l1.8-2.52c1.42,1.11-1.39,2.85-1.8,2.52ZM27.4,234.86c-.43-.19-.19-.92.36-.72.43.16.17.95-.36.72ZM26.32,169.72l.72-2.52c.5.08.08,2.83-.72,2.52ZM27.04,99.19c-.35-.17-.37-1.22.36-1.08.55.11-.22,1.15-.36,1.08ZM26.68,180.88l-1.8,2.16c-.81-.27,1.14-2.25,1.8-2.16ZM25.24,132.29c-.86-.59-.63-1.31.36-1.44l-.36,1.44ZM24.88,165.76c-1.01,1.23.27,2.38-1.08,3.24-.02-.52-.21-3.6,1.08-3.24ZM24.16,105.3l-.54-.18.18-.54.54.54-.18.18ZM4.73,225.86c.29.03.99,1.91-.36,1.8-.9-.07.04-1.83.36-1.8ZM3.83,165.94c.03-.31.96-.15,1.26-.18.36.61-1.28.4-1.26.18ZM9.77,44.13l-1.08,2.16c-1.12-.44.91-2.24,1.08-2.16ZM9.05,41.97c.31.21.27.91,0,1.08-.47.3-.44-1.39,0-1.08ZM9.95,95.05c-.26-.51.64-.73.9-.54.77.56-.62,1.1-.9.54ZM10.85,125.82c-.6-.18-1.49-1.2-.36-1.08.23.03.86.89.36,1.08ZM11.21,153.53c-.59-.33.09-1.95.36-1.8.59.33-.09,1.95-.36,1.8ZM11.21,170.8c-.43-.19-.19-.92.36-.72.43.16.17.95-.36.72ZM11.21,165.4c.3.04.4,1.72-.36,1.44-.09-.26.29-1.45.36-1.44ZM10.85,204.27c.88.37,1.46,2.54.36,3.24-1.16-1.25,1-2.56-1.98-2.7.31-.52,1.14-.74,1.62-.54ZM17.68,167.92c-.43-.19-.19-.92.36-.72.43.16.17.95-.36.72ZM18.76,170.08c.4.24.3,1.74-.36,1.44-.4-.18-.26-1.82.36-1.44ZM18.04,186.99c.43.16.17.95-.36.72-.43-.19-.19-.92.36-.72ZM17.86,190.95c.52-.05.8-1.12,1.44-.54-.34.56-.8,1.52-1.44.54-.48.04-.81.07-.72-.54l.72.54ZM20.2,332.02c.68.08.57,1.21-.36.72-.37-.19.32-.72.36-.72ZM20.2,245.65c.5.06-.13,1.11-.36,1.08-.5-.06.13-1.11.36-1.08ZM20.2,242.41c-.22-.47-1.16-1.67,0-1.8.28.32.3,1.65,0,1.8ZM19.48,187.35c-.15-.17-.19-1.55.36-1.44.34.55.38,1.58-.36,1.44ZM19.66,192.21c.21.52-.94,1.4-1.08.54l-.72-.18c.01-1.01.35-.15.72-.18.51-.04.78-.34,1.08-.18ZM16.06,332.92l.54-.18.18.54-.18.18-.54-.54ZM16.6,335.26v.72h-.36v-.36l.36-.36ZM15.35,331.12l.54-1.26h1.44c-.24.41-1.51,1.43-1.98,1.26ZM15.53,271.2c-.23-.12-.38-2.03.72-1.8,1.87,1.27-.35,2-.72,1.8ZM16.24,274.44l-.18.54-.18.18-.18-.54.54-.18ZM15.17,266.88c-.54.37-1.58-2.22-.36-2.16.15,0,.93,1.77.36,2.16ZM15.53,213.62c-.38-.48-.3-1.21.36-1.08.24.25-.26.78-.36,1.08ZM16.6,189.51c-.47.3-.44-1.39,0-1.08.31.21.27.91,0,1.08ZM17.14,191.85l-.18.18-.54-.18.18-.54.54.54ZM16.6,328.78v-.36l.36-.36v.72h-.36ZM16.78,242.23c.06-.08-.09-.76.54-.54,1,.34-1.48,1.89-.54.54ZM18.04,271.56c.23.04.51,1.99-.36,1.8-.4-.12.3-1.51.36-1.8ZM18.04,270.84c-.43-.19-.19-.92.36-.72.43.16.17.95-.36.72ZM16.96,165.76l-.54-.18.18-.54.54.54-.18.18ZM15.88,168.28c-.43-.19-.19-.92.36-.72.43.16.17.95-.36.72ZM15.53,171.16c-.11-.35-.87-2.06-.36-2.16.35.64.86,1.42.36,2.16ZM15.17,221.18c.43.16.17.95-.36.72-.43-.19-.19-.92.36-.72ZM14.81,166.48l-.54-.54.54-.18.18.54-.18.18ZM14.45,216.86c.22.29.61.33.36.72-.5.77-.81-.06-.36-.72ZM14.81,276.6c.12-.05.77,1.99,1.8-.36,1.13.32-2.94,3.9-3.42,3.06,1.12-.44,1.47-2.64,1.62-2.7ZM13.37,303.95c-.5.77-.81-.06-.36-.72.22.29.61.33.36.72ZM12.29,277.68l1.64-3.61c.04-.12.09-.24.16-.35l-.16.35c-.51,1.36.05,3.21-1.64,3.61ZM12.65,216.86c.3.22.28.96,0,1.08-.44.19-.77-1.64,0-1.08ZM12.29,215.78l.72-2.16c.13.02.14,2.66-.72,2.16ZM12.29,264.36c.34.31.35,2.59-.36,2.16-.36-.7-.34-1.69.36-2.16ZM12.29,313.67c.43.16.17.95-.36.72-.43-.19-.19-.92.36-.72ZM12.47,295.85l-.18.18-.18-.54.54-.18-.18.54ZM12.65,170.8l.36-1.44c.48.88,1.05,1.58-.36,1.44ZM12.11,150.47c-.21-.58.78-1.1,1.26-.9.36.52-1.17,1.14-1.26.9ZM11.57,213.62l-.9-2.34c.1-.24.75-.26.9-.18.79.44.81,1.97,0,2.52ZM9.05,295.67l-.36,3.6c.03-1.09-1.13-3.47.36-3.6ZM7.61,313.31c-.76-.04-.47-1.39.72-1.08.31.26-.65,1.08-.72,1.08ZM7.07,294.41l1.98-1.62c.93.42-1.72,2.32-1.98,1.62ZM6.89,290.63l.36,1.44-.36,1.08c-.52-.42-.52-2.1,0-2.52ZM6.17,249.61c-.33-.15-.45-1.05.36-1.08,1.14-.04-.15,1.18-.36,1.08ZM7.97,248.89l.36,1.44-1.08.72c-.27-1.03,1.16-.73.72-2.16ZM6.53,315.47l.36-.36v.72h-.36v-.36ZM6.89,317.26c.31.21.27.91,0,1.08-.47.3-.44-1.39,0-1.08ZM9.95,294.41l.54-.54.36,1.8-.9-1.26ZM10.85,297.83v.72h-.36v-.36l.36-.36ZM9.41,290.63c-.37-.19.32-.72.36-.72.68.08.57,1.21-.36.72ZM9.41,207.51c-.78.16-1.34-2.44.36-1.44.41.24-.29,1.42-.36,1.44ZM9.41,171.16c-.43-.19-.19-.92.36-.72.43.16.17.95-.36.72ZM9.77,203.91c-.67.26-.73-.97-.36-1.08.12-.04.91.87.36,1.08ZM9.05,153.17l.18.54-.18.18-.54-.54.54-.18ZM8.51,95.77l.54-.18.18.54-.18.18-.54-.54ZM8.69,167.92c.22.29.61.33.36.72-.5.77-.81-.06-.36-.72ZM9.77,301.79l-.18.54-.18.18-.18-.54.54-.18ZM10.13,313.67c.57.12-.13,1.57-.36,1.44-.56-.33.12-1.49.36-1.44ZM11.57,315.11v.72l-1.62.54,1.62-1.26ZM10.06,209.23l-.47.25c.18-.13.33-.2.47-.25l1.87-1c-.7,3.25-.42.46-1.87,1ZM9.95,166.3l-.18.18-.18-.54.54-.18-.18.54ZM10.13,71.48c.43.16.17.95-.36.72-.43-.19-.19-.92.36-.72ZM9.77,66.8c-.43-.19-.19-.92.36-.72.43.16.17.95-.36.72ZM9.77,26.49c-.98-.42-.19-1.55,0-1.44.31.18.28,1.17,0,1.44ZM8.69,70.76v-2.88c1.53,1.15.75,1.61,0,2.88ZM9.05,92.35c.43.16.17.95-.36.72-.43-.19-.19-.92.36-.72ZM8.51,204.45l-.18.18-.54-.18.18-.54.54.54ZM7.25,226.58c-.43-.19-.19-.92.36-.72.43.16.17.95-.36.72ZM8.51,228.56c-.09,1.12-2.43.55-2.16,1.98.28.18,1.54-.43,1.44.54-1.08.39-1.26.42-1.44-.54-2.13-1.39,1.92-2.49,2.16-1.98ZM5.81,232.7c.12.07-.14,1-.18,1.08l-.36-.36c.09-.12-.24-.86.54-.72ZM6.53,225.14l-.54-.54.54-.18.18.54-.18.18ZM6.53,124.02c.22.29.61.33.36.72-.5.77-.81-.06-.36-.72ZM5.81,167.56c-.43-.19-.19-.92.36-.72.43.16.17.95-.36.72ZM5.45,124.02c-.4-.18-.26-1.36.36-1.08.4.18.26,1.36-.36,1.08ZM5.45,290.27c.5.06-.13,1.11-.36,1.08-.5-.06.13-1.11.36-1.08ZM4.73,314.75v.72l-1.62.54,1.62-1.26ZM3.65,288.12c.43.16.17.95-.36.72-.43-.19-.19-.92.36-.72ZM4.73,249.61c.35.17.37,1.22-.36,1.08-.55-.11.22-1.15.36-1.08ZM5.09,319.42c.48.24.05,1.37-.36,1.44-.67.11-.33-1.78.36-1.44ZM2.93,233.06c-.38-.12.82-1.51.36-2.16,1.25.5.9,2.55-.36,2.16ZM2.93,190.23c-.43-.19-.19-.92.36-.72.43.16.17.95-.36.72ZM20.2,333.82c.26.08.83.76.36,1.08-.55-.37-1.28-1.35-.36-1.08ZM20.2,239.17c-.09-.75.1-2.03.72-2.52.44.37-.08,2.7-.72,2.52ZM20.56,170.8c.38.48.3,1.21-.36,1.08-.24-.25.26-.78.36-1.08ZM20.56,190.95v-.36l.36-.36v.72h-.36ZM21.28,188.43c.29.07.84.89.36,1.08-1.32-.29-1.83-1.42-.36-1.08ZM21.64,186.27v.72h-.36v-.36l.36-.36ZM22,184.11c.43.16.17.95-.36.72-.43-.19-.19-.92.36-.72ZM22.36,238.45l-.72,3.24c-.47-1.15-.17-2.41.72-3.24ZM22.18,109.62c.08.81-.56,1.75-1.44,1.44-.02-.03-.77.09-.72-.18l2.16-1.26ZM20.92,165.76l.36-.36v.72h-.36v-.36ZM20.74,112.86c-.06-.04-.42.05-.36-.36.03,0,1.16-.73.36.36ZM20.74,168.28c.18.1.85-.24.72.54-.86.67-.68-.52-.72-.54-.56-.2-.76.5-1.08.18.13-1.09.55-.49,1.08-.18ZM14.81,145.61c-.9.14-.38-.73.36-.72.36.18-.29.71-.36.72ZM14.45,76.15c-.5.77-.81-.06-.36-.72.22.29.61.33.36.72ZM14.09,143.09c.44,1.19-1.6,2.13-1.98,2.52-.5.84-.37,2.54-1.98,3.6-1.16-1.81,1.31-2.92,1.98-3.6.56-.95.87-1.98,1.98-2.52ZM11.21,47c-.69.06-.41-1.42.36-1.08.5.22-.14,1.06-.36,1.08ZM10.67,41.43l-.18.18-.18-.54.54-.18-.18.54ZM9.05,23.25l-.36,1.44c-1.1-.79-.38-1.92.72-2.16l.9,1.26c-1.7,1.49-.19-.33-1.26-.54ZM8.69,47.36c.5.06-.13,1.11-.36,1.08-.5-.06.13-1.11.36-1.08ZM8.15,126.36l-.18.18-.54-.18.18-.54.54.54ZM7.61,166.48c-.47,0,.24-1.28.36-1.44.51.35-.04,1.45-.36,1.44ZM7.61,121.86c-.9.14-.38-.73.36-.72.36.18-.29.71-.36.72ZM7.61,128.33l.18.54-.18.18-.54-.54.54-.18ZM7.97,170.08c.14,1.12-.68.34-.9.36l-.36-.36h1.26ZM6.53,120.06c-.44,0-.45-1.79,0-1.8.67-.02.68,1.81,0,1.8ZM6.17,90.19l-.54-.54.54-.18.18.54-.18.18ZM5.81,117.9c-.67.26-.73-.97-.36-1.08.12-.04.91.87.36,1.08ZM5.45,95.95c-1.58-1.5-.63-2.38,0-3.96v3.96ZM4.01,51.68c-.55-.11.22-1.15.36-1.08.35.17.37,1.22-.36,1.08ZM4.37,118.62c.35.17.37,1.22-.36,1.08-.55-.11.22-1.15.36-1.08ZM4.01,123.66c.22.29.61.33.36.72-.5.77-.81-.06-.36-.72ZM4.37,125.46c.55.11-.22,1.15-.36,1.08-.35-.17-.37-1.22.36-1.08ZM4.55,170.26c-.59.95-3.3-.29-1.62-.54.08-.01,1.11.57,1.62.54ZM2.93,90.91l.54.54-.18.18-.54-.18.18-.54ZM2.75,86.77l.54-.18-.18.54-.18.18-.18-.54ZM2.39,52.94c.33-.05.85-.56.9-.54.69.36-.27,1.15-.9.54ZM1.49,353.25h-.36v-.36l.36-.36v.72ZM1.13,342.1c-.3-.35-.29-1.1,0-1.44.76.49.33.76,0,1.44ZM2.57,353.97c-.55-.11.22-1.15.36-1.08.35.17.37,1.22-.36,1.08ZM2.75,350.91l1.62-.9c.85.32-.88,1.73-1.62.9ZM4.37,354.33c-.9.14-.38-.73.36-.72.36.18-.29.71-.36.72ZM14.09,356.85c-1.2.63-2.01-1.45-.72-1.44.1,0,1.33,1.12.72,1.44ZM15.53,353.97c.43.16.17.95-.36.72-.43-.19-.19-.92.36-.72ZM15.53,356.85c.07.02.8,1.3.36,1.44-.83-.32-.94-1.57-.36-1.44ZM16.24,360.09c-.47.3-.44-1.39,0-1.08.31.21.27.91,0,1.08ZM17.68,361.17c-.35-.17-.37-1.22.36-1.08.55.11-.22,1.15-.36,1.08ZM17.32,357.93c.26.13,1.03,1.33.72,1.44-.57.18-1.14-1.39-.72-1.44ZM18.4,356.13c-.45.22-1.72-1.2-1.08-1.44.09-.04,1.89,1.05,1.08,1.44ZM19.84,340.3c.25.33-.61,1.48-.72,1.44-.55-.22,0-1.63.72-1.44ZM19.48,358.29l.72,1.8c-.83,0-2-1.61-.72-1.8ZM20.2,356.49l-.54-.18.18-.54.54.54-.18.18ZM21.46,361.35l-.18.18-.18-.54.54-.18-.18.54ZM22.36,360.09c-.44-.7-.24-1.78.72-1.8l-.72,1.8ZM23.8,363.69c-.4-.24-.28-1.78.36-1.44.6.32-.19,1.54-.36,1.44ZM24.52,360.81c-.55-.94,0-1.58.72-2.16l-.72,2.16ZM25.96,363.69c-.24-.11.3-1.07.36-1.08.66-.1.42,1.44-.36,1.08ZM33.16,350.01c-.43-.19-.19-.92.36-.72.43.16.17.95-.36.72ZM34.24,344.97c.37.19-.32.72-.36.72-.68-.08-.57-1.21.36-.72ZM33.88,352.89c-.5-.06.13-1.11.36-1.08.5.06-.13,1.11-.36,1.08ZM35.68,348.21c.36.18-.29.71-.36.72-.9.14-.38-.73.36-.72ZM36.04,349.65v.72h-.36v-.36l.36-.36ZM35.14,353.79l4.14-2.7c-.28,3.04-1.71,2.58-4.14,2.7ZM37.12,347.49c.12-.04.91.87.36,1.08-.67.26-.73-.97-.36-1.08ZM38.38,349.47c-.26-.51.64-.73.9-.54.77.56-.62,1.1-.9.54ZM38.92,345.69c.4.18.26,1.36-.36,1.08-.4-.18-.26-1.36.36-1.08ZM38.92,347.85c-.37-.19.32-.72.36-.72.68.08.57,1.21-.36.72ZM20.2,338.5l-.18-.72h.72s-.23.61-.54.72ZM41.8,307.91l.36,1.8c-.23.08-1.53-2.12-.36-1.8ZM41.8,303.23l.18.54-.18.18-.54-.54.54-.18ZM41.08,62.48l.36,2.52c-1.71.08-1.1-2.88-.36-2.52ZM41.08,60.68l-.54-.18.18-.54.54.54-.18.18ZM40.36,8.86c.68.08.57,1.21-.36.72-.37-.19.32-.72.36-.72ZM40.36,29.73c.55.11-.22,1.15-.36,1.08-.35-.17-.37-1.22.36-1.08ZM39.64,31.89l.18.54-.18.18-.54-.54.54-.18ZM39.28,61.76c.75.29.31,2.92-.36,2.52l-.54-1.62c-.17-.72.18-1.18.9-.9ZM38.2,60.68h-.36v-.36l.36-.36v.72ZM37.84,29.73c.89.58-1.17,1.08-1.26.9-.1-.66.87-1.16,1.26-.9ZM37.48,62.12c.55.82-.1,1.6-1.08,1.44l1.08-1.44ZM36.4,118.26l.36-.36v.72h-.36v-.36ZM36.04,122.94c.43.16.17.95-.36.72-.43-.19-.19-.92.36-.72ZM35.68,33.33c.48,1.12-1.78,1.33-2.34.9l2.34-.9ZM33.16,75.07c.42.17-.19,1.6-.72,1.44-.42-.17.21-1.64.72-1.44ZM32.08,29.73c.53.3.19,1.43-.72,1.08-.3-.26.66-1.11.72-1.08ZM31.36,15.34c.43.16.17.95-.36.72-.43-.19-.19-.92.36-.72ZM30.28,135.89c-.75-.45-.12-1.49,0-2.16.96.69.45,1.35,0,2.16ZM29.74,98.29l-.18.18-.18-.54.54-.18-.18.54ZM29.56,50.24c-.5.77-.81-.06-.36-.72.22.29.61.33.36.72ZM29.2,11.74c.8.49-.63,1.14-.9.54-.02-.05.6-.72.9-.54ZM28.48,132.29c.43.16.17.95-.36.72-.43-.19-.19-.92.36-.72ZM28.12,102.06c-.59.89-1.21-.62-.36-.72.04,0,.6.36.36.72ZM27.76,10.3l-.18,1.62-1.26.18,1.44-1.8ZM27.04,31.17c.59.98-.08.95-.72,1.44l.72-1.44ZM27.22,52.04h-1.08c.89-1.52.99-.03,1.08,0ZM27.04,104.22l-1.8,2.88c-.9-.54.84-3.05,1.8-2.88ZM25.6,14.62c-.63-1.12-1.32-4.03,0-5.04v5.04ZM24.88,7.42c.48.32-.08,1.89-.72,1.8-1.03-.15-.16-2.38.72-1.8ZM23.8,9.94c.34.55.38,1.58-.36,1.44-.48-.09.22-1.17.36-1.44ZM23.08,50.6c.46.03.02,1.88-.18.54-.06-.22,0-.55.18-.54ZM23.62,53.84c.25-.26.43-1.14,1.08-.54.14.89-.91.4-1.08.54-.06.06-.52,1.64-.9,1.44-1.22-.66.82-1.37.9-1.44ZM22.36,56c.8.49-.63,1.14-.9.54-.02-.05.6-.72.9-.54ZM20.92,8.86l.36-.36v.72h-.36v-.36ZM20.74,107.46c.06-.05-.14-.6.18-.72l.9.18c-.24.59-.95.46-1.08.54-.06.05.19,1.26-1.08.54-.13-.89.86-.4,1.08-.54ZM18.76,72.2c.35-.03,1.44,1.65.72,2.16-.15.11-2.11-2.04-.72-2.16ZM19.3,112.5c.23.77-.48.81-.72,1.08-1.02-.71.19-.9.72-1.08ZM18.22,107.64l-1.08,2.34c-.13-.06-.42.04-.36-.36.29-.54.31-2.01,1.44-1.98ZM16.6,75.07c-.37-.19.32-.72.36-.72.68.08.57,1.21-.36.72ZM16.96,71.48c-2.5-.57-1.79-.22-1.08-2.52l1.08,2.52ZM15.53,42.33c.31.21.27.91,0,1.08-.47.3-.44-1.39,0-1.08ZM14.45,68.6c.11,2.96-1.59,2,.72,4.32-3.4-.83-2.08-2.25-.72-4.32ZM13.73,24.33c.55.11-.22,1.15-.36,1.08-.35-.17-.37-1.22.36-1.08ZM14.81,28.65c-1.06-.07-.79,2.56-1.8,2.16-.16-.06-.22-3.07,1.8-2.16ZM13.01,73.99c.32.16.43,1.11-.36,1.08-.67-.03-.76-1.65.36-1.08ZM12.29,69.68c-.41-.17-1.07-2.32-.72-2.52,1.19.49,1.09,1.46.72,2.52ZM12.29,20.73c.31.57.05,2.66-.72,2.88-.31-.57-.05-2.66.72-2.88ZM11.21,25.41c.66.67,1.42,1.8.36,2.52-.85.05-.32-2.16-.36-2.52ZM10.85,18.22c.77.56-.62,1.1-.9.54-.26-.51.64-.73.9-.54ZM9.77,20.01c-.07.41-.08,2.13-.72,1.8-.51-.35.2-2.05.72-1.8ZM8.69,15.34c.36.18-.29.71-.36.72-.9.14-.38-.73.36-.72ZM7.61,96.31c-.44.19-.77-1.64,0-1.08.3.22.28.96,0,1.08ZM7.61,42.33c.6.78-.41.63-.72,1.08-.56-.25.24-1.28.72-1.08ZM6.89,16.78l.36,5.04-.9-2.7.54-2.34ZM7.07,45.21c.14-.41-.14-1.09.72-.54-.11.3-.7.5-.72.54-.19.55.56.91.18,1.08l-.9-.54c-.16-.76.7-.5.72-.54ZM5.81,47.72l1.26.9c-.9,1.43-1.98-.53-1.26-.9ZM6.89,67.88c.6.31-1.1,1.19-1.62.54l1.62-.54ZM5.45,87.67c-.65.34-.75-1.23-.36-1.44.18-.1.96,1.13.36,1.44ZM4.73,46.28c.6.32-.19,1.54-.36,1.44-.4-.24-.28-1.78.36-1.44ZM4.01,2.38c.49.61.07,1.44-.72,1.44l.72-1.44ZM3.29,47c.43.16.17.95-.36.72-.43-.19-.19-.92.36-.72ZM1.85,45.57l.54.54-.18.18-.54-.18.18-.54ZM3.29,49.88c.67.33-1.07,1.67-1.62,1.26l1.62-1.26ZM1.13,89.11c-.5.77-.81-.06-.36-.72.22.29.61.33.36.72Z" fill="none"/><path d="M2.03,337.06c-.26-.21-.52-.07-.36-.72l-.72,1.44h1.8c.22-.98-.59-.61-.72-.72Z" fill="#00aeef"/><path d="M18.04,146.69c-2.26,1.26-2.18,3.97-3.96,6.12,1.14-.06,4.76-5.6,3.96-6.12Z" fill="#00aeef"/><path d="M33.16,325.54c1.92-2.56-.83-3.21-.9-3.42-.05-.15.59-2.39-.18-3.06l-.54,4.5c3.37-.96.3.56,1.62,1.98Z" fill="#00aeef"/><path d="M14.45,68.6c-1.36,2.07-2.68,3.48.72,4.32-2.31-2.32-.61-1.36-.72-4.32Z" fill="#00aeef"/><path d="M10.13,149.21c1.61-1.06,1.48-2.76,1.98-3.6-.67.68-3.14,1.79-1.98,3.6Z" fill="#00aeef"/><path d="M9.23,204.81c2.98.14.82,1.45,1.98,2.7,1.1-.7.52-2.87-.36-3.24-.48-.2-1.31.02-1.62.54Z" fill="#00aeef"/><path d="M13.19,279.3c.48.84,4.55-2.74,3.42-3.06-1.03,2.35-1.68.31-1.8.36-.15.06-.5,2.26-1.62,2.7Z" fill="#00aeef"/><path d="M42.24,7.39v-.57c-.17-.04-.37-.14-.62-.3l.62.87Z" fill="#00aeef"/><path d="M42.16,311.87c-1.5.5-.63,1.55.08,2.58v-1.59c-.14-.19-.21-.48-.08-1Z" fill="#00aeef"/><path d="M37.12,303.59c-1.3,1.76,1.34,3.05,1.8,4.68.93-.27-1.89-3.9-1.8-4.68Z" fill="#00aeef"/><path d="M25.6,14.62v-5.04c-1.32,1.01-.63,3.92,0,5.04Z" fill="#00aeef"/><path d="M22.72,237.01l1.44-3.6c-1.4.55-2.33,2.18-1.44,3.6Z" fill="#00aeef"/><path d="M13.93,274.07l-1.64,3.61c1.69-.4,1.14-2.25,1.64-3.61Z" fill="#00aeef"/><path d="M13.93,274.07l.16-.35c-.06.11-.11.23-.16.35Z" fill="#00aeef"/><polygon points="6.89 16.78 6.35 19.11 7.25 21.81 6.89 16.78" fill="#00aeef"/><path d="M37.12,261.85c-1.03-.58-2.12,2.82,1.08,2.16-1.26-.62-.91-2.07-1.08-2.16Z" fill="#00aeef"/><path d="M35.27,287.8l.05.31c0-.11-.03-.21-.05-.31Z" fill="#00aeef"/><path d="M34.6,283.8c-1.72,1.86.3,2.55.67,4.01l-.67-4.01Z" fill="#00aeef"/><path d="M9.05,295.67c-1.49.13-.33,2.51-.36,3.6l.36-3.6Z" fill="#00aeef"/><path d="M34.24,259.33c.75-1.45-.64-2.33-1.08-3.6-.63.3.31,3.38,1.08,3.6Z" fill="#00aeef"/><path d="M6.35,230.54c-.27-1.43,2.06-.85,2.16-1.98-.24-.51-4.29.59-2.16,1.98Z" fill="#00aeef"/><path d="M40,122.94c-.62.46-1.28,2.77-.72,3.24,1.51,1.24.58-2.62.72-3.24Z" fill="#00aeef"/><path d="M8.69,24.69l.36-1.44c1.07.21-.44,2.03,1.26.54l-.9-1.26c-1.1.24-1.82,1.37-.72,2.16Z" fill="#00aeef"/><path d="M22,104.22l1.8-3.24c-.63.09-2.66,2.97-1.8,3.24Z" fill="#00aeef"/><path d="M28.12,235.21l-1.8,2.52c.41.33,3.22-1.41,1.8-2.52Z" fill="#00aeef"/><path d="M5.45,95.95v-3.96c-.63,1.58-1.58,2.46,0,3.96Z" fill="#00aeef"/><path d="M10.06,209.23c-.14.05-.29.13-.47.25l.47-.25Z" fill="#00aeef"/><path d="M11.93,208.22l-1.87,1c1.45-.54,1.17,2.25,1.87-1Z" fill="#00aeef"/><path d="M16.96,71.48l-1.08-2.52c-.71,2.3-1.42,1.95,1.08,2.52Z" fill="#00aeef"/><path d="M29.92,257.89c-1.88.85-1.87.89-.72,2.52l.72-2.52Z" fill="#00aeef"/><path d="M16.24,269.4c-1.1-.23-.95,1.68-.72,1.8.37.2,2.59-.53.72-1.8Z" fill="#00aeef"/><path d="M12.29,20.73c-.77.22-1.03,2.31-.72,2.88.77-.22,1.03-2.31.72-2.88Z" fill="#00aeef"/><path d="M27.4,316.9l-.36,2.88c.81.5.82-2.53.36-2.88Z" fill="#00aeef"/><path d="M22.36,238.45c-.89.82-1.19,2.09-.72,3.24l.72-3.24Z" fill="#00aeef"/><path d="M14.81,28.65c-2.01-.91-1.96,2.1-1.8,2.16,1.01.4.74-2.23,1.8-2.16Z" fill="#00aeef"/><path d="M25.24,107.1l1.8-2.88c-.96-.17-2.7,2.34-1.8,2.88Z" fill="#00aeef"/><path d="M24.16,9.22c.64.09,1.2-1.48.72-1.8-.88-.58-1.75,1.65-.72,1.8Z" fill="#00aeef"/><path d="M11.57,211.1c-.15-.08-.8-.06-.9.18l.9,2.34c.81-.55.79-2.08,0-2.52Z" fill="#00aeef"/><path d="M8.69,70.76c.75-1.27,1.53-1.73,0-2.88v2.88Z" fill="#00aeef"/><path d="M12.11,145.61c.38-.39,2.42-1.33,1.98-2.52-1.11.54-1.42,1.57-1.98,2.52Z" fill="#00aeef"/><path d="M11.57,27.93c1.06-.72.3-1.85-.36-2.52.04.36-.49,2.57.36,2.52Z" fill="#00aeef"/><path d="M39.28,304.31c.61-.97-.69-1.45-.72-2.52-1.28.14.3,2.72.72,2.52Z" fill="#00aeef"/><path d="M30.64,217.94c1.1-.44.27-2.06.72-2.88-.94-.5-1,2.69-.72,2.88Z" fill="#00aeef"/><path d="M26.32,314.75c-1.3.21-1.6.92-1.08,2.16l1.08-2.16Z" fill="#00aeef"/><path d="M10.85,44.49c.23-.73,1.72-1.41,1.44-2.16-1.12.25-2.11.84-1.44,2.16Z" fill="#00aeef"/><path d="M9.05,292.79l-1.98,1.62c.26.7,2.91-1.2,1.98-1.62Z" fill="#00aeef"/><path d="M8.69,46.28l1.08-2.16c-.17-.09-2.2,1.72-1.08,2.16Z" fill="#00aeef"/><polygon points="27.76 10.3 26.32 12.1 27.58 11.92 27.76 10.3" fill="#00aeef"/><path d="M35.68,33.33l-2.34.9c.56.43,2.82.22,2.34-.9Z" fill="#00aeef"/><path d="M14.81,264.72c-1.22-.06-.18,2.53.36,2.16.57-.39-.21-2.15-.36-2.16Z" fill="#00aeef"/><path d="M20.74,111.06c.88.31,1.52-.63,1.44-1.44l-2.16,1.26c-.05.27.7.15.72.18Z" fill="#00aeef"/><path d="M19.48,74.35c.72-.51-.37-2.19-.72-2.16-1.39.12.57,2.26.72,2.16Z" fill="#00aeef"/><path d="M11.57,67.16c-.35.2.31,2.35.72,2.52.37-1.06.47-2.03-.72-2.52Z" fill="#00aeef"/><path d="M1.85,230.54l-1.08,2.16c1.03-.18,1.64-1.25,1.08-2.16Z" fill="#00aeef"/><path d="M24.52,310.43c.8.12,1.17-1.72.36-1.8-.39-.04-1.44,1.64-.36,1.8Z" fill="#00aeef"/><path d="M42.24,184.23v-1.7l-.08-.57c-1.07.1-.38,1.66.08,2.27Z" fill="#00aeef"/><path d="M3.29,230.9c.46.65-.74,2.04-.36,2.16,1.26.39,1.61-1.66.36-2.16Z" fill="#00aeef"/><path d="M17.32,329.86h-1.44l-.54,1.26c.47.17,1.74-.85,1.98-1.26Z" fill="#00aeef"/><path d="M17.14,109.98l1.08-2.34c-1.13-.03-1.15,1.44-1.44,1.98-.06.4.23.3.36.36Z" fill="#00aeef"/><path d="M24.88,183.03l1.8-2.16c-.66-.09-2.61,1.89-1.8,2.16Z" fill="#00aeef"/><path d="M29.2,210.74c.29-.53,1.71-1.58.72-2.16-.29.53-1.71,1.58-.72,2.16Z" fill="#00aeef"/><path d="M38.38,122.4c.18.55,2.65-.74,1.98-1.62l-1.98,1.62Z" fill="#00aeef"/><path d="M4.37,227.66c1.35.11.65-1.77.36-1.8-.32-.03-1.26,1.73-.36,1.8Z" fill="#00aeef"/><path d="M20.92,236.65c-.62.49-.81,1.77-.72,2.52.64.18,1.16-2.15.72-2.52Z" fill="#00aeef"/><path d="M7.25,292.07l-.36-1.44c-.52.42-.52,2.1,0,2.52l.36-1.08Z" fill="#00aeef"/><path d="M9.77,206.07c-1.7-1-1.14,1.6-.36,1.44.07-.01.77-1.2.36-1.44Z" fill="#00aeef"/><path d="M27.22,254.11l1.98.18c.65-.46-.66-1.08-.72-1.08-.08,0-1.44.49-1.26.9Z" fill="#00aeef"/><path d="M42.16,201.03l.08-.24v-1.44c-.41.6-.69,1.57-.08,1.69Z" fill="#00aeef"/><path d="M29.2,322.66c.28-.38.31-1.55,0-1.8-.59-.47-1.4,1.23,0,1.8Z" fill="#00aeef"/><path d="M11.93,266.52c.71.43.7-1.85.36-2.16-.7.47-.72,1.46-.36,2.16Z" fill="#00aeef"/><path d="M3.29,49.88l-1.62,1.26c.55.41,2.29-.93,1.62-1.26Z" fill="#00aeef"/><path d="M32.08,32.97c-.66-.41-.75,1.56-.36,1.8.66.41.75-1.56.36-1.8Z" fill="#00aeef"/><path d="M30.28,135.89c.45-.81.96-1.47,0-2.16-.12.67-.75,1.7,0,2.16Z" fill="#00aeef"/><path d="M37.84,265.08c-.67-.04-1.88.91-1.08,1.44.07.05,1.73-.84,1.08-1.44Z" fill="#00aeef"/><polygon points="10.49 293.87 9.95 294.41 10.85 295.67 10.49 293.87" fill="#00aeef"/><path d="M13.01,213.62l-.72,2.16c.86.5.85-2.14.72-2.16Z" fill="#00aeef"/><path d="M7.25,251.05l1.08-.72-.36-1.44c.44,1.43-.99,1.13-.72,2.16Z" fill="#00aeef"/><path d="M36.76,219.02c.65-.65-.16-1.82-.72-1.8-1.48.06.64,1.04.72,1.8Z" fill="#00aeef"/><polygon points="4.73 314.75 3.11 316.01 4.73 315.47 4.73 314.75" fill="#00aeef"/><path d="M.95,187.71l-.95-.95v.91s.03.03.05.04c.3.03.61-.04.9,0Z" fill="#00aeef"/><path d="M23.08,241.69c.68.36,1-1.94.36-1.8l-.36,1.8Z" fill="#00aeef"/><path d="M21.28,59.6c.28-.15,1.23-1.59.72-1.8-.59-.25-1.23,1.65-.72,1.8Z" fill="#00aeef"/><path d="M9.77,20.01c-.52-.25-1.23,1.45-.72,1.8.63.33.65-1.39.72-1.8Z" fill="#00aeef"/><path d="M6.89,67.88l-1.62.54c.52.65,2.22-.23,1.62-.54Z" fill="#00aeef"/><path d="M6.53,118.26c-.45.01-.44,1.79,0,1.8.68.01.67-1.82,0-1.8Z" fill="#00aeef"/><path d="M31.36,254.65l-.36,1.8c.69.16,1.24-1.53.36-1.8Z" fill="#00aeef"/><path d="M42.16,309.71l-.36-1.8c-1.17-.32.13,1.88.36,1.8Z" fill="#00aeef"/><path d="M32.8,156.04l-.72-1.8c-.56.47.02,2.12.72,1.8Z" fill="#00aeef"/><path d="M7.07,48.62l-1.26-.9c-.72.37.36,2.33,1.26.9Z" fill="#00aeef"/><path d="M35.32,259.69c-.36.06-.74,1.64.36,1.44,1.03-.19-.17-1.47-.36-1.44Z" fill="#00aeef"/><path d="M32.08,283.8c-1.08-.23-1.13.58-.72,1.44l.72-1.44Z" fill="#00aeef"/><polygon points="11.57 315.11 9.95 316.36 11.57 315.83 11.57 315.11" fill="#00aeef"/><path d="M4.39,0h-.93s0,.03,0,.04c.11.23.55.15.92-.04Z" fill="#00aeef"/><path d="M34.96,215.78c-.07-.02-.8.53-1.26.54l1.62.54c.48-.19-.07-1.01-.36-1.08Z" fill="#00aeef"/><path d="M32.44,76.51c.53.17,1.14-1.27.72-1.44-.51-.2-1.14,1.27-.72,1.44Z" fill="#00aeef"/><path d="M.59,2.38s0-.48-.59-.38v1.38c.18-.14.39-.45.59-1Z" fill="#00aeef"/><path d="M4.01,2.38l-.72,1.44c.79,0,1.21-.83.72-1.44Z" fill="#00aeef"/><path d="M12.65,75.07c.79.03.68-.91.36-1.08-1.12-.57-1.03,1.05-.36,1.08Z" fill="#00aeef"/><path d="M22.72,55.28c.38.2.84-1.38.9-1.44-.08.07-2.12.78-.9,1.44Z" fill="#00aeef"/><path d="M29.56,316.54l-.72,1.44c.79,0,1.21-.83.72-1.44Z" fill="#00aeef"/><path d="M11.57,151.73c-.27-.15-.95,1.47-.36,1.8.27.15.95-1.47.36-1.8Z" fill="#00aeef"/><path d="M4.73,320.86c.41-.07.84-1.2.36-1.44-.69-.34-1.03,1.55-.36,1.44Z" fill="#00aeef"/><path d="M36.76,288.48c.69.34,1.03-1.55.36-1.44-.41.07-.84,1.2-.36,1.44Z" fill="#00aeef"/><path d="M7.79,231.08c.1-.97-1.16-.36-1.44-.54.18.96.36.93,1.44.54Z" fill="#00aeef"/><path d="M42.16,123.3s.05-.04.08-.06v-1.49c-.03-.08-.06-.16-.08-.24-1.05-.03-.06,1.29,0,1.8Z" fill="#00aeef"/><polygon points="1.85 116.46 .59 117.36 1.13 117.9 1.85 116.46" fill="#00aeef"/><path d="M18.58,113.58c.24-.27.95-.31.72-1.08-.53.18-1.74.37-.72,1.08Z" fill="#00aeef"/><path d="M26.68,290.63c.09.04,1.93-1.1,1.08-1.44-.09-.04-1.93,1.1-1.08,1.44Z" fill="#00aeef"/><path d="M20.2,242.41c.3-.15.28-1.48,0-1.8-1.16.13-.22,1.33,0,1.8Z" fill="#00aeef"/><path d="M39.64,298.91c-.62-.39-.76,1.26-.36,1.44.66.3.75-1.2.36-1.44Z" fill="#00aeef"/><path d="M37.84,29.73c-.39-.26-1.36.24-1.26.9.09.18,2.15-.32,1.26-.9Z" fill="#00aeef"/><path d="M40.72,244.21c-.85-.14-1.07.96-.36,1.08.85.14,1.07-.96.36-1.08Z" fill="#00aeef"/><path d="M21.28,188.43c-1.47-.34-.96.79.36,1.08.48-.19-.07-1.01-.36-1.08Z" fill="#00aeef"/><path d="M33.52,160.36c.89.34,1.26-.73.72-1.08-.05-.04-1.36.64-.72,1.08Z" fill="#00aeef"/><path d="M31,154.6c.64-.44-.67-1.11-.72-1.08-.54.35-.17,1.42.72,1.08Z" fill="#00aeef"/><path d="M1.49,190.23c-.64-.34-.76,1.2-.36,1.44.17.1.96-1.12.36-1.44Z" fill="#00aeef"/><path d="M19.3,190.41c-.64-.58-.92.49-1.44.54.64.98,1.09.02,1.44-.54Z" fill="#00aeef"/><path d="M12.11,150.47c.09.24,1.61-.38,1.26-.9-.48-.2-1.47.32-1.26.9Z" fill="#00aeef"/><path d="M1.85,315.83c-.42-.24-.89.77-.72,1.08.91.35,1.25-.77.72-1.08Z" fill="#00aeef"/><path d="M27.04,31.17l-.72,1.44c.64-.49,1.31-.46.72-1.44Z" fill="#00aeef"/><path d="M29.56,284.52c-.42.07-.84,1.22-.36,1.44.26.12,1.38-1.6.36-1.44Z" fill="#00aeef"/><path d="M31,78.67c-.31.35-.25,2.16,0,2.16.12-.67.75-1.7,0-2.16Z" fill="#00aeef"/><path d="M32.44,140.57c-.64-.34-.76,1.2-.36,1.44.17.1.96-1.12.36-1.44Z" fill="#00aeef"/><path d="M7.61,313.31c.06,0,1.03-.82.72-1.08-1.19-.31-1.48,1.04-.72,1.08Z" fill="#00aeef"/><path d="M28.66,312.77s-.49-.89-.54-.9c-1.34-.16-.08,1.98.54.9Z" fill="#00aeef"/><path d="M32.08,140.21c.74.09.71-.84.36-1.08-1.07-.73-.76,1.03-.36,1.08Z" fill="#00aeef"/><path d="M19.48,187.35c.74.14.7-.89.36-1.44-.55-.11-.51,1.27-.36,1.44Z" fill="#00aeef"/><path d="M31,262.56c.67.31.75-1.22.36-1.44-.18-.1-.95,1.17-.36,1.44Z" fill="#00aeef"/><path d="M41.44,311.15c.37.14.64.04.8-.15v-.85s-.05-.06-.08-.08c-.42-.24-.89.77-.72,1.08Z" fill="#00aeef"/><path d="M33.16,83.71c.64-.49,1.31-.46.72-1.44l-.72,1.44Z" fill="#00aeef"/><path d="M17.68,273.36c.87.19.59-1.76.36-1.8-.06.29-.76,1.68-.36,1.8Z" fill="#00aeef"/><path d="M4.37,47.72c.17.1.96-1.12.36-1.44-.64-.34-.76,1.2-.36,1.44Z" fill="#00aeef"/><path d="M25.24,132.29l.36-1.44c-.99.13-1.22.85-.36,1.44Z" fill="#00aeef"/><path d="M32.8,158.92c.8-.04.7-.9.36-1.08-.7-.37-1.1,1.12-.36,1.08Z" fill="#00aeef"/><path d="M5.45,87.67c.6-.31-.18-1.54-.36-1.44-.39.21-.29,1.77.36,1.44Z" fill="#00aeef"/><path d="M5.81,122.94c-.62-.28-.76.9-.36,1.08.62.28.76-.9.36-1.08Z" fill="#00aeef"/><path d="M33.16,86.59c.23.14.93-1.32.36-1.44-.24-.05-.92,1.11-.36,1.44Z" fill="#00aeef"/><path d="M7.25,46.28c.38-.17-.37-.52-.18-1.08-.02.04-.88-.22-.72.54l.9.54Z" fill="#00aeef"/><path d="M10.49,124.74c-1.13-.12-.24.9.36,1.08.5-.19-.13-1.05-.36-1.08Z" fill="#00aeef"/><path d="M6.89,43.41c.31-.45,1.32-.3.72-1.08-.48-.2-1.28.83-.72,1.08Z" fill="#00aeef"/><path d="M1.49,119.7c-.24-.05-.92,1.11-.36,1.44.23.14.93-1.32.36-1.44Z" fill="#00aeef"/><path d="M10.85,18.22c-.26-.19-1.16.03-.9.54.28.56,1.67.02.9-.54Z" fill="#00aeef"/><path d="M11.57,45.92c-.77-.34-1.05,1.14-.36,1.08.22-.02.86-.86.36-1.08Z" fill="#00aeef"/><path d="M27.4,257.17c-.62-.28-.76.9-.36,1.08.62.28.76-.9.36-1.08Z" fill="#00aeef"/><path d="M23.44,11.38c.74.14.7-.89.36-1.44-.14.27-.84,1.35-.36,1.44Z" fill="#00aeef"/><path d="M9.77,26.49c.28-.27.31-1.26,0-1.44-.19-.11-.98,1.02,0,1.44Z" fill="#00aeef"/><path d="M0,50.04v.63c.1-.21.1-.47,0-.63Z" fill="#00aeef"/><path d="M30.28,140.57c.91.35,1.25-.78.72-1.08-.06-.03-1.02.82-.72,1.08Z" fill="#00aeef"/><path d="M17.32,241.69c-.63-.22-.48.46-.54.54-.94,1.35,1.54-.2.54-.54Z" fill="#00aeef"/><path d="M20.74,107.46c-.22.14-1.21-.35-1.08.54,1.27.72,1.01-.49,1.08-.54Z" fill="#00aeef"/><path d="M31.36,30.81c.91.35,1.25-.78.72-1.08-.06-.03-1.02.82-.72,1.08Z" fill="#00aeef"/><path d="M34.24,143.81c.62.28.76-.9.36-1.08-.62-.28-.76.9-.36,1.08Z" fill="#00aeef"/><path d="M35.32,77.59c-.26-.19-1.16.03-.9.54.28.56,1.67.02.9-.54Z" fill="#00aeef"/><path d="M10.13,313.67c-.24-.05-.92,1.11-.36,1.44.23.14.93-1.32.36-1.44Z" fill="#00aeef"/><path d="M24.88,50.6c-.24-.05-.92,1.11-.36,1.44.23.14.93-1.32.36-1.44Z" fill="#00aeef"/><path d="M10.85,94.51c-.26-.19-1.16.03-.9.54.28.56,1.67.02.9-.54Z" fill="#00aeef"/><path d="M19.12,75.79c-.62-.28-.76.9-.36,1.08.62.28.76-.9.36-1.08Z" fill="#00aeef"/><path d="M1.67,319.24c-.06-.36-.9-.07-1.08-.18.07.08-.91,1.63,1.08.18Z" fill="#00aeef"/><path d="M18.58,192.75c.14.86,1.29-.02,1.08-.54-.3-.16-.57.14-1.08.18v.36Z" fill="#00aeef"/><path d="M6.53,248.53c-.8.03-.69.92-.36,1.08.21.1,1.5-1.12.36-1.08Z" fill="#00aeef"/><path d="M34.6,157.48c-.37.11-.31,1.34.36,1.08.55-.21-.24-1.12-.36-1.08Z" fill="#00aeef"/><path d="M0,318.2v.75c.26.08.54.09.59.12-.05-.06-.33-.54-.59-.87Z" fill="#00aeef"/><path d="M35.68,160.72c-.73-.15-.71.91-.36,1.08.14.07.91-.97.36-1.08Z" fill="#00aeef"/><path d="M38.92,161.44c-.3-.18-.92.49-.9.54.27.6,1.7-.05.9-.54Z" fill="#00aeef"/><path d="M24.7,53.3c-.65-.6-.83.28-1.08.54.17-.14,1.21.35,1.08-.54Z" fill="#00aeef"/><path d="M26.14,52.04h1.08c-.09-.03-.19-1.52-1.08,0Z" fill="#00aeef"/><path d="M12.65,217.94c.28-.12.3-.86,0-1.08-.77-.56-.44,1.27,0,1.08Z" fill="#00aeef"/><path d="M4.37,50.6c-.14-.07-.91.97-.36,1.08.73.15.71-.91.36-1.08Z" fill="#00aeef"/><path d="M24.88,314.75c.28-.12.3-.86,0-1.08-.77-.56-.44,1.27,0,1.08Z" fill="#00aeef"/><path d="M22.36,56c-.3-.18-.92.49-.9.54.27.6,1.7-.05.9-.54Z" fill="#00aeef"/><path d="M33.16,143.09c.14.07.91-.97.36-1.08-.73-.15-.71.91-.36,1.08Z" fill="#00aeef"/><path d="M32.08,328.42c.14.07.91-.97.36-1.08-.73-.15-.71.91-.36,1.08Z" fill="#00aeef"/><path d="M33.88,136.97c-.47-.18-.87.75-.72,1.08.43.28.97-.99.72-1.08Z" fill="#00aeef"/><path d="M9.41,202.83c-.37.11-.31,1.34.36,1.08.55-.21-.24-1.12-.36-1.08Z" fill="#00aeef"/><path d="M29.2,11.74c-.3-.18-.92.49-.9.54.27.6,1.7-.05.9-.54Z" fill="#00aeef"/><path d="M4.01,126.54c.14.07.91-.97.36-1.08-.73-.15-.71.91-.36,1.08Z" fill="#00aeef"/><path d="M40.72,305.75c.73.15.71-.91.36-1.08-.14-.07-.91.97-.36,1.08Z" fill="#00aeef"/><path d="M4.01,119.7c.73.15.71-.91.36-1.08-.14-.07-.91.97-.36,1.08Z" fill="#00aeef"/><path d="M5.81,117.9c.55-.21-.24-1.12-.36-1.08-.37.11-.31,1.34.36,1.08Z" fill="#00aeef"/><path d="M20.56,334.9c.47-.32-.1-1-.36-1.08-.92-.27-.19.71.36,1.08Z" fill="#00aeef"/><path d="M13.37,25.41c.14.07.91-.97.36-1.08-.73-.15-.71.91-.36,1.08Z" fill="#00aeef"/><path d="M40.36,300.35c-.37.11-.31,1.34.36,1.08.55-.21-.24-1.12-.36-1.08Z" fill="#00aeef"/><path d="M4.73,249.61c-.14-.07-.91.97-.36,1.08.73.15.71-.91.36-1.08Z" fill="#00aeef"/><path d="M40,30.81c.14.07.91-.97.36-1.08-.73-.15-.71.91-.36,1.08Z" fill="#00aeef"/><path d="M21.82,106.92l-.9-.18c-.32.12-.12.67-.18.72.13-.08.84.05,1.08-.54Z" fill="#00aeef"/><path d="M7.61,96.31c.28-.12.3-.86,0-1.08-.77-.56-.44,1.27,0,1.08Z" fill="#00aeef"/><path d="M25.24,103.5c.24-.36-.32-.72-.36-.72-.85.1-.23,1.61.36.72Z" fill="#00aeef"/><path d="M27.4,98.11c-.73-.15-.71.91-.36,1.08.14.07.91-.97.36-1.08Z" fill="#00aeef"/><path d="M28.12,102.06c.24-.36-.32-.72-.36-.72-.85.1-.23,1.61.36.72Z" fill="#00aeef"/><path d="M17.86,190.95l-.72-.54c-.09.61.24.58.72.54Z" fill="#00aeef"/><path d="M2.03,337.06c.5-.43.11-1.42-.36-.72-.16.65.1.51.36.72Z" fill="#00aeef"/><path d="M3.29,189.51c-.55-.2-.79.53-.36.72.53.23.79-.56.36-.72Z" fill="#00aeef"/><path d="M16.6,189.51c.27-.17.31-.87,0-1.08-.44-.31-.47,1.38,0,1.08Z" fill="#00aeef"/><path d="M19.84,332.74c.93.49,1.04-.64.36-.72-.04,0-.73.53-.36.72Z" fill="#00aeef"/><path d="M17.68,187.71c.53.23.79-.56.36-.72-.55-.2-.79.53-.36.72Z" fill="#00aeef"/><path d="M22,184.11c-.55-.2-.79.53-.36.72.53.23.79-.56.36-.72Z" fill="#00aeef"/><path d="M30.28,319.42c.53.23.79-.56.36-.72-.55-.2-.79.53-.36.72Z" fill="#00aeef"/><path d="M6.89,318.34c.27-.17.31-.87,0-1.08-.44-.31-.47,1.38,0,1.08Z" fill="#00aeef"/><path d="M32.08,209.66c-.45.66-.14,1.49.36.72.25-.39-.14-.43-.36-.72Z" fill="#00aeef"/><path d="M37.66,163.78c.17-.75-.69-.5-.72-.54.04.02-.14,1.2.72.54Z" fill="#00aeef"/><path d="M11.93,314.39c.53.23.79-.56.36-.72-.55-.2-.79.53-.36.72Z" fill="#00aeef"/><path d="M26.32,313.31c-.44-.31-.47,1.38,0,1.08.27-.17.31-.87,0-1.08Z" fill="#00aeef"/><path d="M15.88,212.54c-.66-.13-.74.6-.36,1.08.1-.3.6-.83.36-1.08Z" fill="#00aeef"/><path d="M25.96,312.59c.27-.17.31-.87,0-1.08-.44-.31-.47,1.38,0,1.08Z" fill="#00aeef"/><path d="M27.04,311.51c.53.23.79-.56.36-.72-.55-.2-.79.53-.36.72Z" fill="#00aeef"/><path d="M15.17,144.89c-.74-.01-1.26.86-.36.72.07-.01.72-.54.36-.72Z" fill="#00aeef"/><path d="M33.16,216.86c-.55-.2-.79.53-.36.72.53.23.79-.56.36-.72Z" fill="#00aeef"/><path d="M14.81,217.58c.25-.39-.14-.43-.36-.72-.45.66-.14,1.49.36.72Z" fill="#00aeef"/><path d="M19.12,144.53c.53.23.79-.56.36-.72-.55-.2-.79.53-.36.72Z" fill="#00aeef"/><path d="M40,9.58c.93.49,1.04-.64.36-.72-.04,0-.73.53-.36.72Z" fill="#00aeef"/><path d="M33.16,221.9c.53.23.79-.56.36-.72-.55-.2-.79.53-.36.72Z" fill="#00aeef"/><path d="M14.81,221.9c.53.23.79-.56.36-.72-.55-.2-.79.53-.36.72Z" fill="#00aeef"/><path d="M31,16.06c.53.23.79-.56.36-.72-.55-.2-.79.53-.36.72Z" fill="#00aeef"/><path d="M8.33,16.06c.07-.01.72-.54.36-.72-.74-.01-1.26.86-.36.72Z" fill="#00aeef"/><path d="M7.61,225.86c-.55-.2-.79.53-.36.72.53.23.79-.56.36-.72Z" fill="#00aeef"/><path d="M28.12,133.01c.53.23.79-.56.36-.72-.55-.2-.79.53-.36.72Z" fill="#00aeef"/><path d="M13.01,303.23c-.45.66-.14,1.49.36.72.25-.39-.14-.43-.36-.72Z" fill="#00aeef"/><path d="M6.89,124.74c.25-.39-.14-.43-.36-.72-.45.66-.14,1.49.36.72Z" fill="#00aeef"/><path d="M4.37,124.38c.25-.39-.14-.43-.36-.72-.45.66-.14,1.49.36.72Z" fill="#00aeef"/><path d="M35.68,123.66c.53.23.79-.56.36-.72-.55-.2-.79.53-.36.72Z" fill="#00aeef"/><path d="M11.57,28.65c-.55-.2-.79.53-.36.72.53.23.79-.56.36-.72Z" fill="#00aeef"/><path d="M7.97,121.14c-.74-.01-1.26.86-.36.72.07-.01.72-.54.36-.72Z" fill="#00aeef"/><path d="M29.2,32.25c.14-.29-.13-.61-.18-1.08h-.36l.54,1.08Z" fill="#00aeef"/><path d="M32.8,121.14c.53.23.79-.56.36-.72-.55-.2-.79.53-.36.72Z" fill="#00aeef"/><path d="M36.76,121.5c.27-.17.31-.87,0-1.08-.44-.31-.47,1.38,0,1.08Z" fill="#00aeef"/><path d="M38.74,119.88c-.33-.05-.85-.56-.9-.54-.69.36.27,1.15.9.54Z" fill="#00aeef"/><path d="M5.63,233.78c.04-.08.3-1.01.18-1.08-.78-.15-.45.6-.54.72l.36.36Z" fill="#00aeef"/><path d="M27.76,234.14c-.55-.2-.79.53-.36.72.53.23.79-.56.36-.72Z" fill="#00aeef"/><path d="M15.35,113.94c.19.4.19.25.36.36.89-.25,0-1.29-.36-.36Z" fill="#00aeef"/><path d="M5.09,291.35c.23.03.86-1.02.36-1.08-.23-.03-.86,1.01-.36,1.08Z" fill="#00aeef"/><path d="M9.77,289.91s-.73.53-.36.72c.93.49,1.04-.64.36-.72Z" fill="#00aeef"/><path d="M30.28,290.27c.23.03.86-1.02.36-1.08-.23-.03-.86,1.02-.36,1.08Z" fill="#00aeef"/><path d="M9.05,41.97c-.44-.31-.47,1.38,0,1.08.27-.17.31-.87,0-1.08Z" fill="#00aeef"/><path d="M15.53,43.41c.27-.17.31-.87,0-1.08-.44-.31-.47,1.38,0,1.08Z" fill="#00aeef"/><path d="M3.65,288.12c-.55-.2-.79.53-.36.72.53.23.79-.56.36-.72Z" fill="#00aeef"/><path d="M26.68,288.48c.07-.01.72-.54.36-.72-.74-.01-1.26.86-.36.72Z" fill="#00aeef"/><path d="M18.76,108.54c-.59.63.21.7.18.72h.36s.21-.9-.54-.72Z" fill="#00aeef"/><path d="M23.44,106.74c-.55-.2-.79.53-.36.72.53.23.79-.56.36-.72Z" fill="#00aeef"/><path d="M2.93,47.72c.53.23.79-.56.36-.72-.55-.2-.79.53-.36.72Z" fill="#00aeef"/><path d="M8.33,48.44c.23.03.86-1.01.36-1.08-.23-.03-.86,1.02-.36,1.08Z" fill="#00aeef"/><path d="M29.2,49.52c-.45.66-.14,1.49.36.72.25-.39-.14-.43-.36-.72Z" fill="#00aeef"/><path d="M36.4,286.32c.27-.17.31-.87,0-1.08-.44-.31-.47,1.38,0,1.08Z" fill="#00aeef"/><path d="M20.2,245.65c-.23-.03-.86,1.01-.36,1.08.23.03.86-1.02.36-1.08Z" fill="#00aeef"/><path d="M3.29,52.4s-.57.49-.9.54c.63.61,1.59-.18.9-.54Z" fill="#00aeef"/><path d="M1.85,249.61c-.45.66-.14,1.49.36.72.25-.39-.14-.43-.36-.72Z" fill="#00aeef"/><path d="M8.69,93.07c.53.23.79-.56.36-.72-.55-.2-.79.53-.36.72Z" fill="#00aeef"/><path d="M1.13,89.11c.25-.39-.14-.43-.36-.72-.45.66-.14,1.49.36.72Z" fill="#00aeef"/><path d="M10.13,66.08c-.55-.2-.79.53-.36.72.53.23.79-.56.36-.72Z" fill="#00aeef"/><path d="M18.4,270.12c-.55-.2-.79.53-.36.72.53.23.79-.56.36-.72Z" fill="#00aeef"/><path d="M10.13,71.48c-.55-.2-.79.53-.36.72.53.23.79-.56.36-.72Z" fill="#00aeef"/><path d="M15.88,77.59c.53.23.79-.56.36-.72-.55-.2-.79.53-.36.72Z" fill="#00aeef"/><path d="M34.96,264.72c.25-.39-.14-.43-.36-.72-.45.66-.14,1.49.36.72Z" fill="#00aeef"/><path d="M14.09,75.43c-.45.66-.14,1.49.36.72.25-.39-.14-.43-.36-.72Z" fill="#00aeef"/><path d="M16.6,75.07c.93.49,1.04-.64.36-.72-.04,0-.73.53-.36.72Z" fill="#00aeef"/><polygon points="32.62 263.1 32.8 262.56 32.26 262.74 32.44 263.28 32.62 263.1" fill="#00aeef"/><polygon points="32.44 80.83 32.8 80.83 32.8 80.11 32.44 80.47 32.44 80.83" fill="#00aeef"/><polygon points="31.54 83.89 31 83.35 30.82 83.89 31.36 84.07 31.54 83.89" fill="#00aeef"/><polygon points="3.11 87.13 3.29 86.59 2.75 86.77 2.93 87.31 3.11 87.13" fill="#00aeef"/><polygon points=".23 87.13 .05 86.59 0 86.61 0 87.26 .05 87.31 .23 87.13" fill="#00aeef"/><polygon points="15.88 275.16 16.06 274.98 16.24 274.44 15.7 274.62 15.88 275.16" fill="#00aeef"/><polygon points="5.63 89.65 6.17 90.19 6.35 90.01 6.17 89.47 5.63 89.65" fill="#00aeef"/><polygon points="3.29 91.63 3.47 91.45 2.93 90.91 2.75 91.45 3.29 91.63" fill="#00aeef"/><polygon points="9.23 96.13 9.05 95.59 8.51 95.77 9.05 96.31 9.23 96.13" fill="#00aeef"/><polygon points="29.56 98.47 29.74 98.29 29.92 97.75 29.38 97.93 29.56 98.47" fill="#00aeef"/><polygon points="23.08 57.44 22.54 57.62 22.72 58.16 22.9 57.98 23.08 57.44" fill="#00aeef"/><polygon points="0 52.78 0 52.91 .05 52.76 0 52.78" fill="#00aeef"/><path d="M23.08,50.6c-.18,0-.24.32-.18.54.2,1.34.64-.51.18-.54Z" fill="#00aeef"/><polygon points="23.62 105.12 24.16 105.3 24.34 105.12 23.8 104.58 23.62 105.12" fill="#00aeef"/><polygon points="2.39 46.1 1.85 45.57 1.67 46.1 2.21 46.28 2.39 46.1" fill="#00aeef"/><path d="M7.79,44.67c-.86-.55-.58.13-.72.54.02-.04.61-.24.72-.54Z" fill="#00aeef"/><polygon points="23.08 109.26 23.44 109.26 23.44 108.54 23.08 108.9 23.08 109.26" fill="#00aeef"/><path d="M38.92,64.28c.67.4,1.11-2.23.36-2.52-.72-.28-1.07.18-.9.9l.54,1.62Z" fill="#00aeef"/><path d="M41.44,65l-.36-2.52c-.74-.36-1.35,2.6.36,2.52Z" fill="#00aeef"/><path d="M37.48,62.12l-1.08,1.44c.98.16,1.62-.62,1.08-1.44Z" fill="#00aeef"/><polygon points="40.54 60.5 41.08 60.68 41.26 60.5 40.72 59.96 40.54 60.5" fill="#00aeef"/><polygon points="37.84 60.68 38.2 60.68 38.2 59.96 37.84 60.32 37.84 60.68" fill="#00aeef"/><path d="M25.6,289.2c-.18,0-.24.32-.18.54.2,1.34.64-.51.18-.54Z" fill="#00aeef"/><polygon points="10.49 41.61 10.67 41.43 10.85 40.89 10.31 41.07 10.49 41.61" fill="#00aeef"/><path d="M20.38,112.5c-.06.41.3.32.36.36.8-1.09-.33-.36-.36-.36Z" fill="#00aeef"/><polygon points="36.76 117.9 36.4 118.26 36.4 118.62 36.76 118.62 36.76 117.9" fill="#00aeef"/><polygon points="12.11 295.49 12.29 296.03 12.47 295.85 12.65 295.31 12.11 295.49" fill="#00aeef"/><polygon points="39.82 32.43 39.64 31.89 39.1 32.07 39.64 32.61 39.82 32.43" fill="#00aeef"/><path d="M29.02,31.17c-.1-.87-.27-1-.36,0h.36Z" fill="#00aeef"/><polygon points="10.85 298.55 10.85 297.83 10.49 298.19 10.49 298.55 10.85 298.55" fill="#00aeef"/><polygon points="2.21 121.86 1.67 122.04 2.21 122.58 2.39 122.4 2.21 121.86" fill="#00aeef"/><polygon points="36.58 298.73 36.4 298.19 35.86 298.37 36.4 298.91 36.58 298.73" fill="#00aeef"/><polygon points="7.43 126.36 7.97 126.54 8.15 126.36 7.61 125.82 7.43 126.36" fill="#00aeef"/><polygon points="1.13 227.66 .77 228.02 .77 228.38 1.13 228.38 1.13 227.66" fill="#00aeef"/><polygon points="7.61 129.05 7.79 128.87 7.61 128.33 7.07 128.51 7.61 129.05" fill="#00aeef"/><polygon points="9.59 302.33 9.77 301.79 9.23 301.97 9.41 302.51 9.59 302.33" fill="#00aeef"/><polygon points="41.8 303.95 41.98 303.77 41.8 303.23 41.26 303.41 41.8 303.95" fill="#00aeef"/><polygon points="29.38 14.8 29.2 14.26 28.66 14.44 29.2 14.98 29.38 14.8" fill="#00aeef"/><polygon points="31.54 137.51 32.08 138.05 32.26 137.87 32.08 137.33 31.54 137.51" fill="#00aeef"/><polygon points="5.99 224.6 6.53 225.14 6.71 224.96 6.53 224.42 5.99 224.6" fill="#00aeef"/><polygon points="34.78 138.59 35.32 138.77 35.5 138.59 34.96 138.05 34.78 138.59" fill="#00aeef"/><polygon points="29.92 139.13 29.38 139.31 29.56 139.85 29.74 139.67 29.92 139.13" fill="#00aeef"/><polygon points="19.3 141.83 19.48 141.29 18.94 141.47 19.12 142.01 19.3 141.83" fill="#00aeef"/><polygon points="21.28 8.5 20.92 8.86 20.92 9.22 21.28 9.22 21.28 8.5" fill="#00aeef"/><polygon points="9.05 153.89 9.23 153.71 9.05 153.17 8.51 153.35 9.05 153.89" fill="#00aeef"/><polygon points="30.82 212.72 31.36 212.9 31.54 212.72 31 212.18 30.82 212.72" fill="#00aeef"/><path d="M36.94,163.24s.12-.71-.18-.72c-1.66-.07.14.66.18.72Z" fill="#00aeef"/><polygon points="6.89 315.11 6.53 315.47 6.53 315.83 6.89 315.83 6.89 315.11" fill="#00aeef"/><path d="M23.8,169c1.35-.86.07-2.01,1.08-3.24-1.29-.37-1.1,2.72-1.08,3.24Z" fill="#00aeef"/><path d="M26.32,169.72c.8.31,1.22-2.44.72-2.52l-.72,2.52Z" fill="#00aeef"/><path d="M4.55,170.26c-.51.03-1.54-.55-1.62-.54-1.68.25,1.03,1.49,1.62.54Z" fill="#00aeef"/><path d="M19.48,165.4c-.38-.24-1.23.37-1.62.54.63.55,2.55.04,1.62-.54Z" fill="#00aeef"/><path d="M12.65,170.8c1.41.14.84-.56.36-1.44l-.36,1.44Z" fill="#00aeef"/><path d="M18.76,170.08c-.62-.39-.76,1.26-.36,1.44.66.3.75-1.2.36-1.44Z" fill="#00aeef"/><path d="M15.53,171.16c.5-.74,0-1.52-.36-2.16-.51.1.25,1.81.36,2.16Z" fill="#00aeef"/><path d="M7.07,170.44c.22-.02,1.04.76.9-.36h-1.26l.36.36Z" fill="#00aeef"/><path d="M7.61,166.48c.32,0,.87-1.09.36-1.44-.12.16-.83,1.43-.36,1.44Z" fill="#00aeef"/><path d="M10.85,166.84c.76.28.66-1.4.36-1.44-.07-.01-.45,1.18-.36,1.44Z" fill="#00aeef"/><path d="M20.56,170.8c-.1.3-.6.83-.36,1.08.66.13.74-.6.36-1.08Z" fill="#00aeef"/><path d="M9.77,170.44c-.55-.2-.79.53-.36.72.53.23.79-.56.36-.72Z" fill="#00aeef"/><path d="M11.21,170.8c.53.23.79-.56.36-.72-.55-.2-.79.53-.36.72Z" fill="#00aeef"/><path d="M21.46,168.82c.13-.78-.54-.44-.72-.54.04.02-.14,1.21.72.54Z" fill="#00aeef"/><path d="M9.05,168.64c.25-.39-.14-.43-.36-.72-.45.66-.14,1.49.36.72Z" fill="#00aeef"/><path d="M19.66,168.46c.32.32.52-.38,1.08-.18-.53-.31-.95-.91-1.08.18Z" fill="#00aeef"/><path d="M16.24,167.56c-.55-.2-.79.53-.36.72.53.23.79-.56.36-.72Z" fill="#00aeef"/><path d="M18.04,167.2c-.55-.2-.79.53-.36.72.53.23.79-.56.36-.72Z" fill="#00aeef"/><path d="M6.17,166.84c-.55-.2-.79.53-.36.72.53.23.79-.56.36-.72Z" fill="#00aeef"/><path d="M5.09,165.76c-.3.03-1.23-.13-1.26.18-.02.22,1.62.43,1.26-.18Z" fill="#00aeef"/><path d="M22.72,166.12c.53.23.79-.56.36-.72-.55-.2-.79.53-.36.72Z" fill="#00aeef"/><polygon points="16.42 165.58 16.96 165.76 17.14 165.58 16.6 165.04 16.42 165.58" fill="#00aeef"/><polygon points="21.28 165.4 20.92 165.76 20.92 166.12 21.28 166.12 21.28 165.4" fill="#00aeef"/><polygon points="14.27 165.94 14.81 166.48 14.99 166.3 14.81 165.76 14.27 165.94" fill="#00aeef"/><polygon points="9.77 166.48 9.95 166.3 10.13 165.76 9.59 165.94 9.77 166.48" fill="#00aeef"/><polygon points="1.13 320.86 .77 321.22 .77 321.58 1.13 321.58 1.13 320.86" fill="#00aeef"/><polygon points="7.79 204.45 8.33 204.63 8.51 204.45 7.97 203.91 7.79 204.45" fill="#00aeef"/><path d="M30.64,323.38c-.18,0-.24.32-.18.54.2,1.34.64-.51.18-.54Z" fill="#00aeef"/><polygon points="31.18 327.16 30.64 326.62 30.46 327.16 31 327.34 31.18 327.16" fill="#00aeef"/><polygon points="16.6 328.42 16.6 328.78 16.96 328.78 16.96 328.06 16.6 328.42" fill="#00aeef"/><polygon points="41.98 180.34 42.24 180.42 42.24 179.88 42.16 179.8 41.98 180.34" fill="#00aeef"/><polygon points="21.28 186.99 21.64 186.99 21.64 186.27 21.28 186.63 21.28 186.99" fill="#00aeef"/><polygon points="16.78 333.28 16.6 332.74 16.06 332.92 16.6 333.46 16.78 333.28" fill="#00aeef"/><polygon points=".59 334.36 .77 333.82 .23 334 .41 334.54 .59 334.36" fill="#00aeef"/><polygon points="16.6 335.98 16.6 335.26 16.24 335.62 16.24 335.98 16.6 335.98" fill="#00aeef"/><path d="M17.86,192.57l.72.18v-.36c-.37.03-.71-.83-.72.18Z" fill="#00aeef"/><polygon points="20.92 190.23 20.56 190.59 20.56 190.95 20.92 190.95 20.92 190.23" fill="#00aeef"/><polygon points="16.42 191.85 16.96 192.03 17.14 191.85 16.6 191.31 16.42 191.85" fill="#00aeef"/><path d="M20.2,338.5c.31-.11.49-.72.54-.72h-.72l.18.72Z" fill="#00aeef"/><path d="M39.28,351.09l-4.14,2.7c2.42-.12,3.86.34,4.14-2.7Z" fill="#00aeef"/><path d="M13.37,355.41c-1.29,0-.48,2.07.72,1.44.61-.32-.62-1.44-.72-1.44Z" fill="#00aeef"/><path d="M42.16,354.69s.05-.04.08-.06v-.83c-.19.31-.47.55-.08.89Z" fill="#00aeef"/><path d="M20.2,360.09l-.72-1.8c-1.28.19-.11,1.8.72,1.8Z" fill="#00aeef"/><path d="M4.37,350.01l-1.62.9c.74.83,2.47-.58,1.62-.9Z" fill="#00aeef"/><path d="M24.52,360.81l.72-2.16c-.71.58-1.27,1.22-.72,2.16Z" fill="#00aeef"/><path d="M17.32,354.69c-.64.24.63,1.66,1.08,1.44.81-.39-.99-1.47-1.08-1.44Z" fill="#00aeef"/><path d="M22.36,360.09l.72-1.8c-.96.02-1.16,1.1-.72,1.8Z" fill="#00aeef"/><path d="M24.16,362.25c-.64-.34-.76,1.2-.36,1.44.17.1.96-1.12.36-1.44Z" fill="#00aeef"/><path d="M19.12,341.74c.11.04.97-1.11.72-1.44-.73-.19-1.27,1.21-.72,1.44Z" fill="#00aeef"/><path d="M38.92,345.69c-.62-.28-.76.9-.36,1.08.62.28.76-.9.36-1.08Z" fill="#00aeef"/><path d="M38.38,349.47c.28.56,1.67.02.9-.54-.26-.19-1.16.03-.9.54Z" fill="#00aeef"/><path d="M15.53,356.85c-.58-.13-.47,1.12.36,1.44.44-.14-.29-1.42-.36-1.44Z" fill="#00aeef"/><path d="M18.04,359.37c.31-.1-.46-1.31-.72-1.44-.42.05.15,1.62.72,1.44Z" fill="#00aeef"/><path d="M18.04,360.09c-.73-.15-.71.91-.36,1.08.14.07.91-.97.36-1.08Z" fill="#00aeef"/><path d="M26.32,362.61c-.06,0-.6.97-.36,1.08.78.36,1.02-1.18.36-1.08Z" fill="#00aeef"/><path d="M2.93,352.89c-.14-.07-.91.97-.36,1.08.73.15.71-.91.36-1.08Z" fill="#00aeef"/><path d="M37.48,348.57c.55-.21-.24-1.12-.36-1.08-.37.11-.31,1.34.36,1.08Z" fill="#00aeef"/><path d="M1.13,340.66c-.29.33-.3,1.09,0,1.44.33-.68.76-.95,0-1.44Z" fill="#00aeef"/><path d="M34.24,344.97c-.93-.49-1.04.64-.36.72.04,0,.73-.53.36-.72Z" fill="#00aeef"/><path d="M39.28,347.13s-.73.53-.36.72c.93.49,1.04-.64.36-.72Z" fill="#00aeef"/><path d="M35.68,348.21c-.74-.01-1.26.86-.36.72.07-.01.72-.54.36-.72Z" fill="#00aeef"/><path d="M33.52,349.29c-.55-.2-.79.53-.36.72.53.23.79-.56.36-.72Z" fill="#00aeef"/><path d="M34.24,351.81c-.23-.03-.86,1.02-.36,1.08.23.03.86-1.02.36-1.08Z" fill="#00aeef"/><path d="M4.73,353.61c-.74-.01-1.26.86-.36.72.07-.01.72-.54.36-.72Z" fill="#00aeef"/><path d="M15.53,353.97c-.55-.2-.79.53-.36.72.53.23.79-.56.36-.72Z" fill="#00aeef"/><path d="M16.24,360.09c.27-.17.31-.87,0-1.08-.44-.31-.47,1.38,0,1.08Z" fill="#00aeef"/><polygon points="21.28 361.53 21.46 361.35 21.64 360.81 21.1 360.99 21.28 361.53" fill="#00aeef"/><polygon points="19.66 356.31 20.2 356.49 20.38 356.31 19.84 355.77 19.66 356.31" fill="#00aeef"/><polygon points="1.13 353.25 1.49 353.25 1.49 352.53 1.13 352.89 1.13 353.25" fill="#00aeef"/><polygon points="36.04 350.37 36.04 349.65 35.68 350.01 35.68 350.37 36.04 350.37" fill="#00aeef"/></svg>