<?xml version="1.0" encoding="UTF-8"?><svg id="a" xmlns="http://www.w3.org/2000/svg" width="14.9mm" height="127.11mm" viewBox="0 0 42.24 360.32"><path d="M42.24,156.72v1.68c-1.19.07-2.59-.5-3.72-.5-6.01.02-9.26,6.38-15.36,6.73-5.34.31-11.14-4.17-15.77-2.81-3.16.93-3.89,5.9-7.38,6.18v-1.44c3.12-1.25,4.06-5.59,7.62-6.18,7.45-1.25,12.13,5.69,20.15,1.43,2.32-1.24,4.33-3.78,6.73-4.79s5.16-.92,7.75-.29Z"/><path d="M42.24,284.64v1.68c-2.37-.9-4.67-.87-7.02.06-2.76,1.09-4.91,3.91-7.54,5.18-7.13,3.45-13.32-2.97-20.06-1.82-3.58.61-3.68,6.33-7.62,6.18v-1.44c3.42-1.21,3.91-5.44,7.91-6.13,6.98-1.22,12.01,5.73,19.61,1.61,2.43-1.31,6.19-5.1,8.47-5.69,1.72-.44,4.53-.11,6.25.37Z"/><path d="M42.24,222.96v1.44c-5.34,4.25-12.07,2.2-17.38-.94-.37.09-2.42,3.64-2.92,4.28-4.95,6.29-15.14,5-21.94,2.9v-1.44c6.33,1.92,14.22,3.34,19.79-1.21,2.23-1.82,2.66-4.04,4.62-5.96,4.48,1.8,8.68,4.35,13.75,2.97,1.54-.42,2.7-1.32,4.08-2.04Z"/><path d="M42.24,130.32v1.2c-11.44,1.35-19.45,15.25-31.66,8.02-3.85-2.28-6.51-6.46-10.58-8.5v-1.44c5.79,2.62,10.1,10.66,16.91,10.81,9.22.21,16.09-10.18,25.33-10.09Z"/><path d="M42.24,28.56v1.68c-2.19-.68-4.61-.73-6.79.05-2.65.95-4.45,3.31-6.82,4.7-7.75,4.54-13.51-2.28-20.53-1.33-4.32.59-3.86,5.97-8.1,6.42v-1.68c2.33-.42,3.27-3.24,5.04-4.68,6.2-5.08,14.27,4.57,22.24.4,2.32-1.21,6.22-5.09,8.23-5.69,1.67-.5,4.94.02,6.73.13Z"/><path d="M42.24,94.8v1.68c-3.89,2.92-8.42,2.83-12.85,1.21-1.56-.57-2.94-1.6-4.51-2.14-1.7,1.74-2.37,4.02-4.24,5.62-5.49,4.71-14.25,3.31-20.64,1.56v-1.68c6.24,2.38,16.21,3.58,20.98-2.18.66-.79,2.77-4.56,3.43-4.75,1.87.38,3.53,1.54,5.41,2.19,4.54,1.58,8.58,1.75,12.43-1.51Z"/><path d="M42.24,2.16v1.44c-9.5.8-16.19,10.81-26.05,10.09C9.51,13.2,5.66,5.8,0,3.12v-1.44c7.99,3.94,10.8,13.05,21.23,10.07,7.28-2.09,12.97-9.28,21.01-9.59Z"/><path d="M42.24,258.24v1.44c-8.35.43-14.07,8.25-22.07,9.73-4.94.92-7.66-.24-11.41-3.26-2.87-2.31-5.31-5.48-8.77-6.95v-1.44c5.52,2.09,9.83,10.03,15.95,10.57,9.84.86,16.63-9.82,26.29-10.09Z"/><path d="M42.24,350.88v1.44c-5.12,4.41-12.34,2.19-17.51-.96-.97,1.44-1.84,3.31-2.93,4.63-4.76,5.81-15.41,4.78-21.8,2.56v-1.44c5.92,1.93,13.21,3.26,18.8-.28,2.82-1.79,3.39-4.75,5.8-6.85,5.67,2.94,12.03,5.48,17.64.89Z"/><path d="M42.24,339.84v1.68c-3.68-2.58-7.62-7.26-12.36-7.68-7.37-.65-11.71,7.15-18.72,7.67-4.03.3-8.21-1.72-11.16-4.32v-1.44c1.31.55,2.32,1.64,3.53,2.35,11.51,6.79,15.89-6.06,26.11-5.47,5.22.3,8.71,4.27,12.6,7.2Z"/><path d="M42.24,211.92v1.68c-3.45-2.68-7.13-6.52-11.51-7.57-9.17-2.19-13.96,10.96-24.96,6.72-2.14-.82-3.8-2.35-5.76-3.48v-1.68c4.18,3.23,7.71,5.54,13.2,3.96,4.88-1.4,8.85-6.26,14.07-6.81,6.57-.69,10.35,3.33,14.97,7.17Z"/><path d="M42.24,84v1.68c-3.49-2.9-8.06-7.65-12.85-7.92-8.54-.48-12.68,10.76-23.52,6.97-2.16-.76-3.98-2.14-5.87-3.37v-1.68c3.72,2.68,6.51,4.81,11.4,4.32s8.53-4.82,12.78-6.42c7.61-2.87,12.8,1.64,18.06,6.42Z"/><path d="M42.24,320.88v.96c-.95.17-1.95.16-2.89.35-7.52,1.48-11.9,8.27-19,10.28-8.31,2.34-14.49-1.3-20.34-6.78v-1.68c3.06,2.3,5.82,5.56,9.44,7,13.08,5.22,20.4-10.54,32.8-10.12Z"/><path d="M42.24,64.8v1.2c-8.73-.43-13.93,8.06-21.66,10.38-8.36,2.52-14.74-1.11-20.58-6.78v-1.44c2.95,1.89,5.22,4.76,8.4,6.36,13.26,6.69,21.23-9.96,33.84-9.72Z"/><path d="M42.24,192.72v1.2c-8.91-.29-14.16,8.47-22.13,10.63s-14.53-1.43-20.11-7.03v-1.44c3.48,2.47,6.42,6.23,10.69,7.43,11.45,3.22,17.71-8.04,27.66-10.24,1.3-.29,2.59-.31,3.89-.55Z"/><path d="M42.24,47.76v1.68c-1.1-.59-2.2-1.34-3.36-1.8-2.44-.95-5.37-1.46-7.84-.41-.57.24-1.42,1.05-1.94,1.18-2.62.67-7.74-2.03-10.44-2.88-5.84-1.85-12.56-3.42-18.66-2.58v-1.44c6.54-.74,13.88.98,20.11,3.05,2.12.71,6.69,3.2,8.7,2.6.75-.23,1.55-1.19,2.58-1.5,3.73-1.14,7.54.54,10.85,2.09Z"/><path d="M42.24,250.08v1.68c-3.24-1.76-7.57-3.59-11.35-2.83-1.05.21-2.76,1.85-3.66,1.85-.6,0-2.29-1.41-3.07-1.71-6.53-2.57-14.45,5.59-21.24,3.48-1.15-.36-1.85-1.11-2.93-1.51v-1.68c1.24.41,2.32,1.72,3.59,2.05,6.1,1.57,14.18-6.23,21.3-3.54.65.25,1.96,1.45,2.3,1.45.86,0,2.58-1.39,3.71-1.58,3.64-.61,8.1.72,11.34,2.34Z"/><path d="M42.24,303.84v1.44c-3.34-1.7-7.54-3.74-11.26-2.02-.62.29-1.25,1-1.93,1.18-2.5.67-8.17-2.23-10.87-3.07-5.75-1.8-12.16-3.13-18.18-2.58v-1.2c6.54-.87,13.74.9,19.97,2.95,1.9.63,6.94,3.14,8.59,2.71,1.03-.27,2.15-1.53,3.54-1.76,3.58-.6,7.09.6,10.14,2.34Z"/><path d="M42.24,23.52v1.2c-2.74.96-5.34-2.83-7.75-2.59-1.14.11-3.78,2.85-5,3.65-5.65,3.7-11.78,4.14-18.28,2.72-3.86-.84-7.33-4.45-11.22-5.46v-1.44c3.21,1.15,5.78,3.42,9,4.56,5.75,2.05,13.55,2.51,18.92-.77,1.64-1,4.57-4.03,6.3-4.27,3.01-.41,4.91,3.1,8.02,2.39Z"/><path d="M42.24,279.6v1.2c-2.78.76-5.34-2.95-7.78-2.64-1.12.15-4.14,3.13-5.44,3.94-5.7,3.56-12.43,3.86-18.83,2.07-3.29-.92-6.69-4.29-10.19-5.05v-1.44c3.27,1.05,5.79,3.33,9.06,4.5,5.22,1.86,12.86,2.37,17.9-.22,1.91-.98,5.3-4.47,7.02-4.74,3.48-.55,4.86,2.88,8.27,2.38Z"/><path d="M42.24,175.92v1.44c-3.17-1.72-6.38-3.26-10.14-2.58-1.17.21-2.19,1.47-3.29,1.75-2.15.55-5.81-1.62-7.98-2.35-6.51-2.17-13.96-4.08-20.82-3.3v-1.44c6.69-.69,13.87,1.12,20.21,3.19,2.23.73,6.44,3.11,8.65,2.51.64-.17,1.68-1.25,2.57-1.51,3.46-1.02,7.84.46,10.81,2.29Z"/><path d="M42.24,151.44v1.44c-2.92.59-5.34-3.06-8.03-2.63-1.08.17-5.16,3.79-6.63,4.65-6.03,3.5-13.75,2.69-19.96.08-2.68-1.12-4.94-2.95-7.62-4.02v-1.2c3.37,1.07,6.08,3.42,9.47,4.57,5.5,1.86,13.04,2.22,18.21-.77,2.93-1.69,4.74-5.07,8.58-4.17,1.77.41,3.8,3.05,5.98,2.06Z"/><path d="M42.24,122.16v1.44c-1.86-.74-3.61-1.72-5.58-2.22s-4.24-.88-6.19-.31c-1.03.3-1.89,1.54-3,1.59-1.24.06-2.86-1.62-4.13-1.88-7.88-1.61-15.96,8.11-23.35,2.11v-1.68c5.24,5.18,11.02.48,16.62-1.02,2.25-.61,5.08-.99,7.4-.55,1.21.23,2.55,1.59,3.22,1.6.91,0,2.32-1.22,3.42-1.4,3.81-.64,8.27.49,11.58,2.34Z"/><path d="M42.24,241.92v1.2c-.58-.1-1.64.48-2.04.48h-5.04c-1.99,0-4.78-2.89-6.71-3.13-6.66-.81-13.78,6.22-20.36,3.56-1.14-.46-3.15-2.36-3.95-2.55-.93-.22-2.99.77-4.14.44v-.72c1.38.23,2.86-.65,4.18-.47s2.94,1.83,4.22,2.27c6.55,2.25,14.1-5.46,21.01-3.25,1.24.4,2.44,1.68,3.78,2.22,2.93,1.17,6.07.68,9.04-.04Z"/><path d="M42.24,114v1.2c-.73-.14-1.96.48-2.52.48h-4.08c-1.87,0-4.27-2.09-5.88-2.76-6.3-2.64-14.33,5.88-21.6,3.12-1.25-.47-3.04-2.26-4.02-2.47-1.2-.26-2.87.63-4.14.44v-.72c1.02.09,2.02-.4,3-.48,2.53-.19,3.21,1.35,5.33,2.1,6.07,2.15,12.76-4.01,19.16-3.55,2.91.21,4.31,2.45,7.02,3.06s5.03.01,7.73-.41Z"/><path d="M0,202.8c4.42,1.91,9.24,4.78,14.28,4.32.53-.05,5.14-1.49,5.16-1.07.16,1.38-2.21,1.76-3.31,1.97-5.89,1.12-11.02-1.79-16.13-4.25v-.96Z"/><path d="M0,330.72c4.45,2.12,9.39,4.84,14.52,4.32,1.53-.15,2.96-1.07,4.55-.96.6.98-.42,1.19-1.18,1.45-6.54,2.29-12.07-1.2-17.89-3.61v-1.2Z"/><path d="M0,74.88c3.91,1.42,7.31,3.78,11.63,4.09,2.71.2,4.01-.55,6.24-.74.31-.03,1.49-.21,1.33.37-.15.86-2.76,1.4-3.55,1.49-5.99.72-10.45-1.89-15.65-4.25v-.96Z"/><rect x="28.35" width="2.83" height="2.83"/></svg>