<?xml version="1.0" encoding="UTF-8"?><svg id="a" xmlns="http://www.w3.org/2000/svg" width="14.85mm" height="128.52mm" viewBox="0 0 42.09 364.32"><path d="M42.09,112.08c-1.95-.07-3.92.1-5.87,0-4.57-.2-9.85-1.39-14.35-.98-1.78.16-3.47,1.57-5.01,1.46-1.76-.12-2.02-2.09-3-2.54-1.94-.89-3,3.45-3.94,4.44l-1.31-.96-4.19,16.32c-1.03-2.09-1.19-4.79-1.52-7.11-.99-6.98-1.96-15.02-2.2-22.03-.12-3.55-.17-7.23.75-10.67h.79s3.14,21.58,3.14,21.58c.7-2.89.52-5.99,1.19-8.89.23-1,.73-2.98,2.23-2.1.43.25,1.72,3.68,2.16,4.43,1.26,2.15,1.09,1.13,2.97,1.58.87.21,1.72.73,2.62.97,3.16.84,6.39-.13,9.63.18l15.91,1.68v.72l-16.38-1.68c-4.97.48-7.64.18-12.3-1.1-.7-.19-1.46.07-2.07-.33-1.12-.73-1.89-3.77-2.78-4.89-.21-.26-.24-.5-.67-.4l-2.21,10.62-.89,1.62-2.87-22.32-.49,2.75c-.27,11.03,2.19,21.84,3.12,32.77.33,0,.49-.7.59-.97,1.24-3.57,1.43-7.85,2.36-11.56.46-1.83.59-3.71,2.55-1.64.08-1,1.45-3.66,2.38-3.98,2.35-.8,3.3,2.57,4.71,2.72.75.08,2.66-1.27,4.02-1.39,6.78-.61,14.11,1.12,20.94.97v.72Z"/><path d="M42.09,239.76l-9.68-.73c-3.64.37-8.44-.59-11.91.31-1.38.35-2.16,1.37-3.89,1.16-1.57-.19-2.53-2.89-3.53-2.63-1.39,1.08-2.45,2.83-2.8,4.53-.81.17-1.06-.66-1.67-.96l-4.19,16.31c-.48-.01-.91-2.74-1.01-3.3-1.63-9.08-3.24-23.25-2.71-32.34.06-1.07.49-6.06,1.89-3.32,1.89,3.68,1.35,11.89,1.71,16.29.14,1.8.41,3.63.72,5.4l2.78-11.98c.44-.04.75.1,1.06.4.76.77,2.5,5.46,3.03,5.59,2.18-.31,3.8,1.22,5.93,1.43s4.46-.47,6.69-.24l17.58,1.68v.96c-3.15-.33-6.3-.88-9.45-1.2-2.6-.26-5.81-.68-8.37-.72s-5,.53-7.54.13c-1.87-.29-3.48-1.56-5.49-1.45-.72-.43-1.98-4.09-2.67-5-.21-.27-.25-.49-.68-.4l-3.11,12.24-2.87-22.08-.47,2.28c-.33,11.11,2.12,21.99,3.11,33,.63-.4.8-1.55.99-2.25.79-2.96,1.03-6.09,1.72-9.08.15-.65.77-3.95,1.47-3.79.26.06.92,1.25,1.32.96.1-1.05,1.6-3.74,2.56-4.03,2.15-.66,3,2.73,4.51,2.83.94.06,1.91-.81,2.74-1.07,4.24-1.34,13.95.36,18.77.6,1.15.06,2.32-.03,3.47,0v.48Z"/><path d="M42.09,294.48v1.2c-1.35.73-2.15,5.02-3.47,5.28-.78.15-1.62-.12-2.51.12-1.15.3-2.31,1.81-3.76,2-1.22.16-2.97-.58-4.24-.62-6.16-.2-14.83,1.78-21.28,2.35-1.94.17-3.93.13-5.86.36,5.17.3,10.73.66,15.92.37s10.74-2.26,15.79.22c.85-.04,2.63-3.13,4.06-3.13,1.91,0,2.24,4.05,2.87,4.34l1.41-1.43,1.1,1.91v4.08l-1.2-4.56c-.54-.52-1.03,1.98-1.88,1.41-.52-.34-1.13-4.79-2.29-4.79-.63,0-2.62,2.85-4.07,2.91-1.25.05-3.05-1.09-4.53-1.23-3.34-.31-6.73.79-10.04.98-6.01.34-12.07-.31-18.07-.25v-1.68c8.3-.22,16.5-1.67,24.75-2.4,2.3-.2,5.24.03,7.35-.3,1.14-.18,2.46-1.14,3.46-1.33.85-.16,1.99.14,2.69-.18,1.39-.63,1.85-5.19,3.83-5.64Z"/><path d="M42.09,39.6c-1.53.92-2.01,5.45-3.94,5.54-.62.03-1.03-.33-1.8-.17-1.14.23-2.43,1.77-3.75,2.01-1.6.3-4.33-.52-6.4-.42-6.07.28-12.54,1.63-18.66,2.16-2.11.18-4.24.2-6.34.36,2.79.56,5.66.32,8.5.35s5.59.21,8.36,0c3.4-.24,6.85-1.27,10.29-.97,1.4.12,3.36,1.26,4.28,1.2,1.58-.1,2.08-3.1,4.32-2.9,1.5.13,2.16,2.82,2.27,4.1.79.18,1.15-1.59,1.79-1.44l1.08,2.16v3.84l-1.2-4.56c-.47-.45-1.12,1.67-1.55,1.67-1.38-1.36-.92-3.82-2.63-4.98-1.37.56-2.3,2.67-3.82,2.84s-3.51-1.11-5.26-1.22c-2.74-.18-6.07.81-8.85.98-6.12.36-12.67-.18-18.78-.25v-1.44c8.52-.54,16.97-1.87,25.47-2.64,2.09-.19,4.68,0,6.67-.26,1.28-.17,2.78-1.27,3.87-1.41.7-.09,1.44.29,1.85.19,1.53-.35,2.39-5.52,4.23-5.96v1.2Z"/><path d="M42.09,166.56v.96c-1.14.83-2.16,4.82-3.11,5.4-.58.35-2.11-.02-2.94.17-2.03.46-1.95,2.13-5.31,1.87-7.72-.61-14.59.93-22.25,1.68-.68.07-6.58.27-6.58.6,4.64.22,9.35.61,14,.37,5.6-.28,11.38-2.48,16.73.14,1.42-.42,2.58-3.13,4.06-3.05,1.37.08,2.6,2.85,2.75,4.1.9,0,.81-1.47,1.9-1.19l.73,1.91v3.36l-1.08-3.84c-.49-.6-1.18,1.27-1.67,1.43-1.45-1.34-1-3.81-2.63-5.02-1.11.59-2.73,3-3.85,3.11-.96.1-2.99-.94-4.1-1.14-3.71-.64-7.9.71-11.65.91-3.2.17-6.42-.15-9.58-.25-2.52-.08-5.03.13-7.53-.24v-1.44c3.06-.22,6.15-.21,9.21-.48,5.63-.5,11.66-1.94,17.22-2.16,1.89-.07,4.46.73,5.92.42.98-.21,2.18-1.5,3.03-1.76,2.06-.61,2.54.82,3.97-1.78.68-1.24,1.11-3.85,2.74-4.09Z"/><path d="M4.78,364.32h-.72l-2.27-16.56c-.9,5.48-.03,11.07.36,16.56h-.96c.05-5.38-1.31-11.74-.08-17,.22-.97.38-1.91,1.49-.84l2.19,17.85Z"/><path d="M30.13,364.32h-14.59c-.67-.39-1.7-.89-2.44-1.03-.48-.09-.86.13-1.25.07-1.54-.22-2.61-5.5-3.84-5.52l-1.56,6.48h-.48c.04-1.85.22-3.91.64-5.72.29-1.24,1-3.39,2.44-1.56.7.89,2.24,5.38,3.07,5.57.37.09.87-.25,1.37-.21,1.28.11,3.46,1.6,5.32,1.66.59.02,1.07-.24,1.63-.23,3.23.02,6.54-.24,9.69.49Z"/><path d="M0,137.28v-23.52l.49,4.91c-.02,5.4.28,10.68-.01,16.09-.04.69-.23,1.87-.48,2.52Z"/><path d="M0,264.24v-24.24c.4.25.24.91.24,1.32.08,6.09.34,12.15.25,18.25l-.49,4.67Z"/><path d="M.48,0c.03,2.62-.12,5.21-.23,7.82-.01.31-.25.55-.25.58V0h.48Z"/><polygon points="5.02 0 4.19 1.68 3.83 0 5.02 0"/></svg>