<?xml version="1.0" encoding="UTF-8"?><svg id="a" xmlns="http://www.w3.org/2000/svg" width="14.9mm" height="128.52mm" viewBox="0 0 42.24 364.32"><path d="M23.52,0c.21,12.19-.28,24.42-.01,36.61.06,2.55-.04,6.53.25,8.87.26,2.1,2.15,6.28,2.82,8.7,6,21.86,3.68,44.79,2.71,67.13-.36,8.29-.6,14.44.52,22.76,1.26,9.36,3.63,18.63,3.8,28.12-.27.32-.42-.35-.46-.5-.78-2.76-1-6.13-1.54-9.02-2.01-10.76-5.06-21.93-4.73-32.97.27-9.23,2.21-18.39,2.65-27.59.46-9.72-1.1-21.12-1.92-30.96-.57-6.89-.91-14.34-4.2-20.52l-.61,2.27c0,28.41-.07,56.84.26,85.22.11,9.16,3.12,16.38,4.71,25.27,2.51,14.03,1.79,25.95,1.51,39.99-.11,5.39.27,10.99.02,16.34-.43,9.11-2.22,14.84-.62,24.36,1.79,10.59,5.22,21.03,4.92,31.91-.61.11-.43-.09-.59-.48-1.93-4.83-1.93-14.16-2.85-19.72-1.08-6.58-3.79-13.66-3.52-20.23.25-6.16,1.53-12.29,1.69-18.47.11-4.29-.59-9.09-.25-13.21.15-1.74.77-3.71.95-5.53.75-7.34-.69-17.2-1.44-24.71-.85-8.53-1.77-17-3.84-25.32l-.24.84v86.17c.65,2.74-.1,5.89.26,8.61.23,1.74,1.7,4.9,2.26,6.86,4.81,16.98,4.93,33.71,4.21,51.25-.53,13.09-2.32,25.72-.7,38.84.97,7.84,2.9,15.55,3.57,23.43h-.96c-1.2-7.46-3.16-14.8-4.25-22.27-2.21-15.3.88-26.66,1.6-41.45.41-8.43-.96-16.19-1.68-24.48-.65-7.53-.37-15.1-2.52-22.44-.19-.65-1.45-4.55-1.92-4.56l-.38.82c-.33,28.84-.44,57.82.03,86.67.04,2.25-.07,4.04.3,6.4,1.11,7.07,4.21,14.06,4.73,21.31h-1.2l-3.24-17.52-.12,17.52h-1.68V0h1.68Z"/><path d="M15.12,0l1.44,14.76c-.08,11.96-1.84,23.83-2.41,35.77,5.4,12.45,2.12,23.68.76,36.26-1.5,13.86,2.52,26.58,1.41,40.29-.68,8.37-2.79,16.1-1.08,24.6.55,2.76,1.62,5.47,2.01,8.31,1.85,13.45-3.03,25.75-2.13,39.09.44,6.5,1.7,12.89,1.45,19.45-.38,10.06-2.13,20.37-2.42,30.48,7.01,16.52-.77,32.64.49,49.67.45,6.07,1.7,12.14,1.93,18.23.42,11.01-3.51,22.48-1.34,33.26.45,2.24,1.33,4.4,1.74,6.66.45,2.49.51,4.99.79,7.49h-1.2c-.29-5.73-2.38-11.15-3.29-16.75-1.52-9.39,1.7-17.91,2.1-27.28.42-9.84-2.09-19.83-1.7-29.78.37-9.38,3.36-18.57,2.62-28.04-.31-4.02-1.85-7.91-2.54-11.86-1.51-8.67,1.09-16.03,1.38-24.64.17-5.06.34-11.59,0-16.58-.18-2.64-1.04-5.26-1.21-7.91-.71-11.24,2.49-22.31,2.65-33.35.1-6.69-2.21-12.44-3.26-18.85-1.56-9.57,1.62-17.76,2.06-27.24s-2.1-19.98-1.7-30.02c.37-9.37,3.39-18.58,2.62-28.04-.32-3.94-1.8-7.79-2.49-11.67-1.57-8.81,1.03-15.9,1.34-24.6.18-5.07.33-11.58,0-16.58-.24-3.65-1.58-7.4-1.21-11.15h1.2Z"/><path d="M42.24,66.48v11.04c-4.7,18.63-10.12,36.01-10.08,55.56.03,17.05,6.35,33.6,4.8,50.64-.21,2.3-.62,4.62-1.2,6.84l-.49-.36c.72-6.75,1.07-13.61.49-20.39-.79-9.11-3.5-18.01-4.32-27.12-1.22-13.55.87-30.75,4-44,2.51-10.64,6.47-19.84,5.85-31.13-.66-12.08-7.61-28.98-4.74-40.48.06-.24.07-.72.41-.67.33,4.84.2,9.65.76,14.48.98,8.43,3.93,17.3,4.53,25.59Z"/><path d="M42.24,169.92v5.52c-1.43,11.71-6.55,22.28-8.13,33.99-.72,5.32-.37,10.14-.76,15.32-.42,5.62-1.63,10.27-.92,16.04.66,5.35,2.11,10.85,3,16.2,1.54,9.25,3.55,23.14.56,32.1-.14.41-.11.98-.72.83,1.76-8.53,1.43-16.94.2-25.52-1.41-9.84-5.02-20.97-4.28-30.76.28-3.76,1.22-7.52,1.44-11.28s-.22-7.73.28-11.72c1.84-14.54,9.15-28.06,8.37-43.25-.64-12.51-7.49-28.03-4.75-40.25.09-.4.19-1.01.66-1.14.46,1.35,0,2.45,0,3.71-.18,14.41,4.32,26.53,5.05,40.21Z"/><path d="M42.24,264.96v11.04c-.51,2.42-.92,4.85-1.51,7.25-1.42,5.79-3.58,11.31-4.9,17.18-3.41,15.18-4.6,31.51-2.43,46.93.8,5.67,2.21,11.26,2.84,16.96h-.96c-1.02-7.73-3.15-15.38-3.84-23.16-1.06-11.86.46-26.38,2.71-38.08,2.38-12.36,7.83-24.29,7.13-37.05s-7.45-28.07-4.73-40.47c.06-.28.03-.95.4-.92.35,4.91.18,9.82.76,14.72.99,8.47,3.65,16.69,4.3,25.21l.22.38Z"/><path d="M0,141.6c1.46,3.9,2.57,7.93,3.49,11.99,1.43,6.34,3.06,13.51,4.12,19.88,2.99,17.99-2.1,37.28-.61,55.57.24,2.97,2.84,11.85,4.42,4.24,1.16-5.57-.53-14.29-.62-20.29,0-.5-.14-.7.49-.61.86,6.43,1.86,13.04,1.45,19.57-.16,2.57-.63,6.13-4.16,5.1-1.26-.37-1.84-3.5-2.05-4.67-3.18-17.67,2.08-37.96.44-55.88-.86-9.42-4.07-18.79-6.96-27.72v-7.2Z"/><path d="M0,240.96c1.54,4.45,2.73,9.04,3.76,13.64,2.61,11.56,5.58,24.55,5.11,36.4s-3.33,26.36-1.65,38.37c.14,1,1.42,7.04,3.3,5.88.13-.08.99-2.71.99-2.97v-12.36c.69-.11.4.15.51.56.83,2.89,1.42,13.86-1.25,15.63-3.03,2.01-4.26-4.93-4.51-6.74-2.41-17.61,3.06-36.43.4-54.88-1.28-8.89-4.09-17.53-6.68-26.08v-7.44Z"/><path d="M0,42.48c1.38,4.15,2.54,8.4,3.53,12.67,1.57,6.8,3.25,14.48,4.32,21.36,2.74,17.58-1.92,34.29-.9,51.78.09,1.6.92,8.86,3.25,8.69.66-.33,1.32-2.58,1.32-3.18v-12.36c.9,1.01,1.1,3.33,1.2,4.68.17,2.45.17,9.98-1.92,11.51-2.93,2.15-4.22-4.55-4.49-6.3-.62-4.07-.4-7.67-.3-11.68.38-14.45,2.77-29.27.67-43.65-1.3-8.88-4.1-17.53-6.68-26.08v-7.44Z"/><path d="M36.24,0c-1.49,6.62-2.63,13.25-2.89,20.05-.03.75.3,1.41.27,2.15-.17,4.95-1.28,9.92-1.47,14.87-.29,7.75,2.88,18.02,4.05,25.97,1.39,9.44,2.22,19.4-.56,28.64-.62.09-.32-.43-.29-.77.47-5.86,1.46-10.46,1.13-16.63-.68-12.74-6.21-26.74-5.28-39.12.28-3.67,1.22-7.37,1.44-11.04.2-3.29-.23-6.8,0-10.07.33-4.67,2.12-9.43,2.88-14.04h.72Z"/><path d="M29.52,0c.22,1.64-.2,3.35-.25,4.91-.18,5.39.27,10.97.02,16.34-.21,4.48-1.22,8.96-1.45,13.43-.72,13.92,6.44,28.09,5.76,42-.02.31.19,1.02-.36.84-2.08-6.52-1.97-13.49-3.07-20.21s-3.81-13.63-3.53-20.23c.26-6.08,1.53-12.13,1.69-18.23.12-4.37-.61-9.27-.25-13.45.15-1.71.84-3.63.96-5.4h.48Z"/><path d="M7.92,0l-1.21,17.39c.63,4.96-.23,10.16.56,15.06.56,3.44,2.9,9.03,4.19,2.17.82-4.4-.17-8.76-.42-13.14-.14-2.52.18-5.06-.24-7.56.48.09.39.51.48.84,1.17,4.63,2.21,16.85,1.14,21.3-.45,1.88-2.23,3.89-4.24,2.44-1.41-1.02-2.02-6.82-2.18-8.62-.66-7.63-.06-15.42.24-23.04.09-2.28,0-4.56.24-6.84h1.44Z"/><path d="M10.8,364.32c-1.78-10.06-6.16-19.26-8.33-29.23-1.99-9.15-2.95-20.09-1.96-29.41.05-.43.37-2.71.57-2.79.54-.21.34.55.36.84.4,8.11-.64,15.35.51,23.73,1.76,12.76,7.26,24.46,10.29,36.87h-1.44Z"/><path d="M42.24,196.08c-.79,3.13-2.41,6.87-2.82,10.02-1.04,8.01.07,18.46.9,26.58.13,1.24.62,2.6.71,3.85s.23,3.29-.71,4.2c-.61-11.61-3.76-23.74-1.86-35.33.7-4.27,2.66-8.71,3.77-12.91v3.6Z"/><path d="M41.52,0c-1.78,4.96-2.46,9.73-2.41,15.01.06,6.41.56,12.78,1.21,19.19.24,2.36,1.09,4.41.66,6.9-.07.38-.22,1.02-.66,1.14-.86-14.04-4.94-28.54,0-42.24h1.2Z"/><path d="M0,193.92v-18.72c.4-.25.24-.91.24-1.32.02-1.76.02-3.53,0-5.29,0-.41.15-1.07-.24-1.32v-9.6c.31.45.37,1.28.45,1.83,1.26,9.3,1.4,19.88.51,29.24-.16,1.66-.44,3.57-.96,5.16Z"/><path d="M42.24,296.88c-1.07,3.28-2.04,6.85-2.57,10.27-1.48,9.57.03,17.84.42,27.28.07,1.72-.07,3.45-.01,5.17l-.48-2.04c-.18-8.82-1.96-17.55-1.45-26.41.33-5.85,2.47-12.04,4.09-17.63v3.36Z"/><path d="M42.24,98.4c-1.05,3.34-2.03,6.8-2.57,10.27-1.48,9.56.03,17.86.42,27.28.07,1.79-.07,3.61-.01,5.41l-.48-2.28c-.17-8.74-1.96-17.4-1.45-26.17.34-5.97,2.46-12.16,4.09-17.87v3.36Z"/><path d="M41.76,364.32h-.72c-.44-7.08-2.57-13.89-3.76-20.84-.93-5.4-1.94-12.49-.73-17.86.09-.4.19-1.01.66-1.14.43,1.27,0,2.29,0,3.47-.04,3.36-.06,6.75.25,10.09.83,8.83,3.53,17.45,4.32,26.28Z"/><path d="M6,364.32h-.96l-5.04-17.04v-7.2c3.1,7.77,4.08,16.14,6,24.24Z"/><path d="M0,89.52v-31.68c2.2,9.61,1.6,19.66.47,29.39-.08.69-.18,1.67-.47,2.29Z"/><path d="M0,288v-31.68c1.57,6.06,1.46,12.38,1.45,18.61l-1.45,13.07Z"/><polygon points="1.2 364.32 0 364.32 0 356.16 1.2 364.32"/><path d="M1.44,104.4c-.14,8.3-.61,16.31.52,24.56,1.57,11.51,6.12,21.4,9.15,32.37,2.67,9.66,2.68,19.76,2.33,29.7-.66.21-.66-1.16-.72-1.56-1.17-8.37-.58-16.88-2.23-25.37-1.56-8.04-5.01-15.53-7.06-23.42-2.48-9.53-4.64-25.83-2.63-35.39.09-.41.01-1.07.65-.91Z"/><path d="M12.24,91.68c-.21-2.27-.57-4.57-.72-6.84-.31-4.7-.12-9.46-.48-14.16C9.9,55.81,1.37,42.88.24,28.2c-.59-7.61.81-15.56,1.2-23.15.42-.06.22.54.24.84.06,1.34-.2,2.38-.25,3.59-.54,13-.38,21.4,3.2,34.02,2.73,9.64,7.82,18.68,8.34,28.86.2,3.92-.15,7.88-.26,11.76-.06,2.12.25,4.72.02,6.74-.04.36-.05.74-.49.83Z"/><path d="M12.72,289.92c-.6.18-.6-.52-.65-.9-1.5-10.63.05-21.39-3.13-31.92S1.01,237.11.24,226.44c-.55-7.66.83-15.52,1.2-23.16.42-.06.23.54.24.84.06,1.42-.19,2.54-.25,3.83-.54,12.62-.41,20.78,2.96,33.06,2.74,9.96,8.04,19.37,8.58,29.82.33,6.35-.46,12.74-.25,19.09Z"/></svg>