<?xml version="1.0" encoding="UTF-8"?><svg id="a" xmlns="http://www.w3.org/2000/svg" width="14.9mm" height="128.5mm" viewBox="0 0 42.24 364.25"><path d="M39.74,272.3c.38-6.12,1.31-38.64-1.29-42.08-.68-.89-2.41-2.03-4.04-1.66-1.12.25-5.55,5.4-.81,5.2-3.18-.75.3-4.87,2.1-4.76.72.04,2.12,1.43,2.43,1.88,2.56,3.79,1.38,35.15.97,41.41-.4,6.08-3.33,12.43-3.88,18.38-.89,9.72.74,24.87,7.03,35.23v-1c-2.82-4.46-4.35-9.56-5.09-13.86-2.58-15.18,1.71-24.69,2.59-38.75Z" fill="none"/><path d="M29.39,347.82c-.05-.25.07-.81-.65-.66-.33,4.56.23,9.08-.26,13.64-.11,1.04-.29,2.11-.71,3.45h.48c1.15-5.35,2.43-10.33,1.13-16.43Z" fill="none"/><path d="M42,297.99c.06.73.14,1.47.24,2.21v-7.98c-.27,2.08-.38,4.04-.24,5.77Z" fill="none"/><path d="M29.39,302.42l-1.29-.44c1.65,2.39.35,5.79.65,8.64.46,4.34,2.24,11.73,4.53,15.72,1.93,3.36,5.53,5.85,8.97,8.5v-1.06c-2.08-1.53-4.21-3.01-5.73-4.56-6.88-6.95-6.98-18.65-7.11-26.8Z" fill="none"/><path d="M38.77,68.56c.2,3.7,1.42,15.42,3.47,22.77v-2.22c-1.45-6.4-2.25-14.77-2.5-17.89-.52-6.6,1.06-10.77,2.5-15.38v-3.95c-.18.89-.36,1.72-.56,2.5-1.38,5.4-3.23,8.16-2.91,14.17Z" fill="none"/><path d="M38.77,295.33c.2,3.7,1.42,15.42,3.47,22.77v-2.22c-1.45-6.4-2.25-14.77-2.5-17.89-.52-6.6,1.06-10.77,2.5-15.38v-3.95c-.18.89-.36,1.72-.56,2.5-1.38,5.4-3.23,8.16-2.91,14.17Z" fill="none"/><path d="M39.74,45.53c.38-6.12,1.31-38.64-1.29-42.08-.68-.89-2.41-2.03-4.04-1.66-1.12.25-5.55,5.4-.81,5.2-3.18-.75.3-4.87,2.1-4.76.72.04,2.12,1.43,2.43,1.88,2.56,3.79,1.38,35.15.97,41.41-.4,6.08-3.33,12.43-3.88,18.38-.89,9.72.74,24.87,7.03,35.23v-1c-2.82-4.46-4.35-9.56-5.09-13.86-2.58-15.18,1.71-24.69,2.59-38.75Z" fill="none"/><path d="M42,71.22c.06.73.14,1.47.24,2.21v-7.98c-.27,2.08-.38,4.04-.24,5.77Z" fill="none"/><path d="M42.24,220.37v.86c-2.25-1.54-4.66-2.97-6.38-4.73-4.14-4.23-6.58-14.14-7.12-19.27-.3-2.86,1.04-6.24-.65-8.64l1.3.45c.06,7.19.28,16.31,4.2,23.03,1.85,3.15,5.33,5.69,8.65,8.3Z" fill="none"/><path d="M42.24,180.88v-2.52l-.24.92c.1.5.17,1.04.24,1.59Z" fill="none"/><path d="M39.74,174.86c-.49,3.71.64,18.31,2.5,27.44v2.39c-2.06-7.41-3.3-19.25-3.47-22.96-.29-6.01,2.03-11.15,3.47-16.52v1.8c-1.04,2.64-2.16,5.26-2.5,7.85Z" fill="none"/><path d="M42.24,211.91v.78c-5.51-8.63-6.73-19.31-7.03-28.31-.32-9.56,3.19-18.12,3.88-27.57-1.32-9.93,1.12-19.85.65-29.78-.1-2.09-.29-10.9-4.05-11.41-1.63-.22-5.6,4.13-1.77,4.76-5.24.48-.74-4.93.48-5.2,4.02-.9,5.42,4.8,5.66,6.53,1.56,11.34-2.05,23.67-.32,35.1.19,7.17-3.43,14.55-3.88,21.6-.57,8.76,1.35,25.42,6.38,33.5Z" fill="none"/><path d="M40.38,102.67c-5.74-8.74-7.77-26.21-8.41-35.88-.5-7.56,3.44-15.22,2.91-23.47-.57-8.87-1.06-13.94-.32-23.03.34-4.27.25-8.57.65-12.84-.71-.14-.59.41-.65.66-1.19,5.63-1.75,15.81-1.94,21.7-.23,6.92,1.87,13.5,1.25,20.6-.49,5.59-2.92,10.94-2.54,16.61.69,10.32,2.5,26.17,8.41,35.65.5.8,1.41,1.74,2.5,2.72v-.61c-.76-.72-1.41-1.43-1.85-2.11Z" fill="none"/><path d="M24.05,357.01c-.81,2.25-1.78,4.8-2.34,7.24h.56c.34-1.75.87-3.69,1.29-5.14.22-.76,1.65-1.3.49-2.1Z" fill="none"/><path d="M42.24,218.19v.67c-1.03-.95-1.93-1.88-2.5-2.81-5.87-9.4-7.71-25.19-8.41-35.43-.54-7.8,4.29-15.82,2.91-23.81-3.13-11.96.18-24.05.48-36.09,1.32,9.09-2.02,18.28-1.45,27.35.18,2.9.64,4.76,1.63,8.74h-.01c1.35,7.84-3.4,15.73-2.91,23.37.62,9.85,2.64,26.91,8.4,35.87.44.69,1.09,1.41,1.86,2.14Z" fill="none"/><path d="M29.39,75.65l-1.29-.44c1.65,2.39.35,5.79.65,8.64.46,4.34,2.24,11.73,4.53,15.72,1.93,3.36,5.53,5.85,8.97,8.5v-1.06c-2.08-1.53-4.21-3.01-5.73-4.56-6.88-6.95-6.98-18.65-7.11-26.8Z" fill="none"/><path d="M40.38,329.44c-5.74-8.74-7.77-26.21-8.41-35.88-.5-7.56,3.44-15.22,2.91-23.47-.57-8.87-1.06-13.94-.32-23.03.34-4.27.25-8.57.65-12.84-.71-.14-.59.41-.65.66-1.19,5.63-1.75,15.81-1.94,21.7-.23,6.92,1.87,13.5,1.25,20.6-.49,5.59-2.92,10.94-2.54,16.61.69,10.32,2.5,26.17,8.41,35.65.5.8,1.41,1.74,2.5,2.72v-.61c-.76-.72-1.41-1.43-1.85-2.11Z" fill="none"/><path d="M34.72,347.49c-.14,5.59-.92,11.18-1.42,16.76h.56c.72-5.59,1.66-11.2.85-16.76Z" fill="none"/><path d="M40.06,348.48c-.24-1.73-1.64-7.44-5.66-6.53-1.22.27-5.72,5.68-.49,5.2-3.83-.63.15-4.98,1.78-4.76,3.75.51,3.94,9.32,4.04,11.41.17,3.49-.03,6.97-.29,10.45h.53c.44-5.34.79-10.66.08-15.77Z" fill="none"/><path d="M41.68,4.56c.2.69.39,1.43.56,2.2v-2.69c-.5-1.5-1.31-2.92-2.37-4.08h-1.1c1.34,1.19,2.39,2.78,2.91,4.56Z" fill="none"/><path d="M27.93,99.46c1.4-.3,4.95,5.38,6.31,6.53,1.9,1.6,5.16,2.92,7.11,4.87.32.31.61.63.89.95v-1.24c-2.07-1.91-6.28-3.77-8.32-5.69-2.02-1.89-3.76-7.76-7.44-5.09.15-8.1,1.15-16.27,1.29-24.36.13-7.47.3-15.98-.09-24.38-.37-8.02-1.32-15.95-.23-22.79,1.12-7.07,3.56-12.95,1.94-20.6-.06-.25.06-.81-.65-.66.77,5.13.04,9.02-.41,13.51-.17,1.69-.26,3.92-1.53,6.2V1.46c.44-.56.9-1.04,1.36-1.46h-.85s-.02.01-.02.02c-.03,0-.05,0-.07-.02h-1.29c-.04,6.75-.5,13.26-.42,17.74l-1.46-.89c-1.57,4.27-3.25,9.41-2.75,13.84.29,2.5,2.23,5.21,2.59,7.53,1.07,6.8,1.06,19,.97,26.14-.05,3.85-1.94,9.59-1.29,13.28.45,2.59,2.55,2.81,2.26,6.54-.05.62.03,1.25,0,1.88h-.97c-1.44-2.83-6.51-4.88-6.79-7.97-.13-1.43,1.19-3.67,1.29-5.1.9-12.77-3.33-25.96-2.58-39.42.43-7.86,3.53-21.18,4.65-33.57h-.35c-1.31,15.65-5.87,31.66-4.95,47.3.38,6.43,2.6,13.22,2.91,19.49.18,3.62-2.07,9.91-1.29,12.62.61,2.16,7.13,5.94,7.76,7.76.55,1.57.48,6.01-.33,7.52-.38-1.01-.78-2-1.29-2.98-3.08-6.01-5.52-5.8-9.05-10.08-2.8-3.39-.43-5.37-.33-8.86.43-14.66-3.98-30.07-2.91-44.73.56-7.71,3.73-17.98,5.04-28.04h-.51c-1.39,10.24-4.71,20.79-5.17,28.92-.85,14.73,3.49,29.97,2.91,44.74-.18,4.46-2.88,4.9,1.61,9.3,3.64,3.56,5.83,3.89,8.09,8.75.57,1.23.44,3.11,1.94,4.09l.64,61.01-.64,36.54c-2.18-6.58-.05-9.94,0-16.27.05-6.59-2.04-13.55-.97-20.27.57-6.21-3.1-10.83-2.59-17.16.17-2.07,1-5.22,1.62-7.31.22-.76,1.65-1.29.48-2.1-1.11,3.07-2.52,6.7-2.75,9.85-.43,6.07,3.37,10.72,2.59,16.72-.84,7.05,1.08,14.2.97,21.15-.06,3.8-1.93,9.43-1.29,13.07.39,2.24,1.84,3.43,2.26,6.75.08.58-.06,1.19,0,1.77-.96.12-.87-.13-1.29-.55-1.8-1.79-6.31-5.62-6.47-7.53-.13-1.55,1.18-3.53,1.29-5.09.55-7.55-1.46-14.07-2.26-21.48-.29-2.68-.34-5.4-.32-8.09.07-4.74-.12-9.54.32-14.28,1.25-13.52,9.86-43.14.32-54.48-2-2.39-8.57-5.85-9.05-8.19-.43-2.11,1.68-4.82,1.94-6.87,1.84-14.49-5.09-27.48-3.23-42.3,1.28-10.26,5.25-20.39,5.9-30.69h-.38c-.82,11.02-5.48,22.34-6.49,33.13-1.3,13.68,5.38,26.12,3.55,40.08-.24,1.89-2.12,4.34-1.94,6.2.31,3.19,7.03,6.27,9.38,9.08,9.29,11.11.54,41.55-.65,54.93-.39,4.44-.26,8.94-.32,13.39-.58,7.66,2.5,15.64,2.91,23.15.2,3.66-2.08,10.09-1.29,12.84.63,2.2,7.06,5.79,7.76,7.75.23.66.43,5.16.32,5.98-.08.61.32.88-.97.78-2.43-7.42-5.81-7.18-10.02-12.3-2.8-3.38-.43-5.37-.33-8.85.3-9.84-2.02-19.52-2.26-29.35.31-5.21-1.05-10.39-.65-15.61,1.17-15.34,12.58-40.69-.97-54.48-1.58-1.6-6.35-4.32-6.79-6.2-.56-2.39,1.87-5.86,2.27-8.41,1.79-11.54-1.35-18.87-4.86-29.57-1.33-4.07,1.24-7.39,1.94-11.18C5.17,20.77,7.48,10.4,7.57,0h-.68c-.08,9.98-2.53,25.48-4.67,33.13-.18.66-.5,1.55-1.13,2.1.65-7.28-1.28-15.76-.16-22.92C1.59,8.08,2.88,4.14,3.6,0h-1.09c-.44,3.05-1.06,6.62-1.74,10.43L.69,0h-.69v364.25h.77c-.26-3.95-.37-7.99.16-11.56,1.35-9.01,4.25-14.66,1.62-24.36-.1-.35-1.59-1.67-1.62-1.77-.8-2.73.23-7.01-.37-9.94.62-.25,1.68,1.34,1.84,1.57,2.98,4.16,5,20.27,4.63,25.2l-3.2,20.86h.72c.56-3.12,1.14-6.58,1.56-9.34,1.83-12.22,2.65-22.19-1.62-34.33-.74-2.11-3.29-4.41-3.56-5.09-.43-1.1.32-3.4,0-4.65.99.14,2.01,1.22,2.59,1.77,4.96,4.66,8.5,15.17,9.05,20.93.96,10.01-2.42,20.38-4.73,30.71h.57c2.23-10.28,5.51-20.55,4.49-30.71-.81-8.01-3.81-17.62-11.97-23.59-.45-13.16.35-26.39-.32-39.53,1.62,1.21,1.13,2.7,1.48,3.68,3.88,10.85,3.79,19.62,1.43,30.31-1.31,5.94,5.86,7.33,9.05,11.96,8.89,12.89,1.17,33.05-1.1,47.88h.57c2.35-15.46,11.1-38.03-1.41-50.76-1.58-1.6-6.35-4.32-6.79-6.2-.56-2.39,1.87-5.85,2.27-8.41,1.79-11.54-1.35-18.86-4.86-29.57-1.33-4.06,1.24-7.39,1.94-11.18,3.21-17.2,7.32-33.8,1.3-50.94-.38-1.06-1.21-2.17-1.98-3.1,1.45,2.81,3.87,15.39,4.16,17.72,1.08,8.84-1.9,29-4.45,38.09-.18.66-.5,1.55-1.13,2.11.65-7.28-1.28-15.76-.16-22.93,1.13-7.17,4.05-13.51,2.95-21.37-.34-2.49-2.53-3.13-2.95-4.54-.8-2.72.6-7.25,0-10.18.26-.08.71.2,1.02.43-.51-.6-.92-1.07-1.02-1.32-.41-1.04.3-3.23,0-4.43.97-.12,2.1,1.1,2.59,1.55,4.95,4.62,8.51,15.21,9.05,20.93,1.25,13.07-5.24,26.78-6.46,39.75-1.3,13.68,5.38,26.12,3.55,40.09-.24,1.88-2.12,4.33-1.94,6.2.31,3.18,7.03,6.26,9.38,9.08,8.1,9.67,2.5,34.03.13,48.98h.52c2.29-14.82,8.15-39.34-.33-49.43-2-2.38-8.57-5.85-9.05-8.19-.43-2.11,1.68-4.82,1.94-6.87,1.84-14.49-5.09-27.48-3.23-42.29,1.55-12.46,7.09-24.72,5.82-37.32-.81-8-3.83-17.63-11.97-23.58l-.32-39.53c1.06-.14.93.25,1.29.77,3.75,5.39,4.64,22.48,3.56,28.57-.41,2.27-2.62,4.74-2.27,7.08.45,2.94,7.34,6.57,9.38,9.53,9.88,14.32-.75,37.65-1.61,52.7-.85,14.73,3.49,29.97,2.91,44.74-.18,4.46-2.88,4.9,1.61,9.3,3.64,3.57,5.83,3.89,8.09,8.75.57,1.24.44,3.12,1.94,4.09l.44,41.68h.85v-22.63c5.28-6.78,13.09-3.01,14.88,3.1.19.65.38,1.41.56,2.22v-1.83c-.76-2.57-1.7-4.73-2.83-5.71-3.23-2.8-9.62-2.74-11.96.67-2.06-2.17.28-6.14,3.88-7.31-2.09-1.14-2.7,2.05-4.53,1.99.26-1.37-.77-8.12,1.13-8.52,1.4-.3,4.95,5.38,6.31,6.53,1.9,1.6,5.16,2.92,7.11,4.87.32.32.61.63.89.95v-1.24c-2.07-1.91-6.28-3.77-8.32-5.69-2.02-1.89-3.76-7.76-7.44-5.09.15-8.1,1.15-16.27,1.29-24.36.13-7.47.3-15.97-.09-24.37-.37-8.03-1.32-15.96-.23-22.8,1.12-7.07,3.56-12.95,1.94-20.6-.06-.25.06-.8-.65-.66.77,5.14.04,9.02-.41,13.51-.17,1.69-.26,3.92-1.53,6.2v-25.25c5.34-6.8,13.11-2.97,14.88,3.1.2.69.38,1.43.56,2.21v-2.69c-1.89-5.7-8.39-10.15-14.95-4.06-1.18-.11-.23-3.96.16-4.65.37-.66,2.61-2.65,3.88-2.76-2.09-1.14-2.7,2.05-4.53,1.99.37-1.34-1.16-8.72,1.78-8.53.55.04,4.48,5.55,5.66,6.54,1.46,1.22,4.58,2.57,6.14,3.98.69.62,1.3,1.26,1.86,1.9v-1.26c-2.49-2.07-6.2-3.75-8.32-5.73-2.08-1.94-3.64-7.68-7.44-5.1.33-3.78.54-7.62.64-11.4.43-14.99.7-29.96.33-44.96.57-4.81-.77-10.45,0-15.17,1.14-7.06,3.56-12.94,1.94-20.59-.06-.26.06-.81-.65-.67-.33,4.57.23,9.09-.26,13.65-.17,1.63-.52,3.32-1.68,6.06v-25.24c5.28-6.78,13.09-3.01,14.88,3.1.19.65.38,1.4.56,2.22v-1.84c-.76-2.56-1.7-4.72-2.83-5.7-3.23-2.81-9.62-2.74-11.96.67-2.06-2.17.28-6.14,3.88-7.31-2.09-1.14-2.7,2.05-4.53,1.99.26-1.37-.77-8.12,1.13-8.52ZM2.09,47.33c3.88,10.85,3.79,19.62,1.43,30.31-1.31,5.94,5.86,7.33,9.05,11.96,9.86,14.28-.7,37.49-1.61,52.49-.3,4.89,1.1,9.82.64,14.72.54,10.11,2.66,20.09,2.27,30.23-.18,4.47-2.88,4.91,1.61,9.3,1.19,1.17,3.77,3.55,4.74,4.58,8.22,8.72,5.1,32.45,5.29,43.59l-1.46-.89c-1.57,4.28-3.25,9.41-2.75,13.85.29,2.49,2.23,5.2,2.59,7.53,1.07,6.79,1.06,18.99.97,26.13-.05,3.85-1.94,9.6-1.29,13.28.45,2.59,2.55,2.81,2.26,6.54-.05.62.03,1.25,0,1.88h-.97c-1.44-2.83-6.51-4.88-6.79-7.97-.13-1.43,1.19-3.67,1.29-5.1.9-12.77-3.33-25.96-2.58-39.42.8-14.41,10.55-47.14.64-58.9-2.02-2.41-8.54-5.83-9.05-8.2-.5-2.33,1.64-4.81,1.94-7.08,1.28-9.88-1.5-19.64-3.56-29.35-1.92-16.69,7.81-33.51,6.15-50.05-.81-8-3.81-17.62-11.97-23.58-.45-13.16.35-26.39-.32-39.53,1.62,1.2,1.13,2.7,1.48,3.68ZM.61,327.45c.61-1.17,1.85,3.66,1.89,3.98.54,3.62.83,7.17-.28,10.62-.15.48-1.29,6.92-1.86,8.09l.25-22.69ZM2.39,216.08c.29.69.78,3.57.74,4.86-.13,3.61-1.18,9.6-2.36,16.26l-.16-22.55c.44-.84,1.25.2,1.78,1.43ZM25.18,321.47c-.38-1.02-.78-2.01-1.29-2.99-3.08-6.01-5.52-5.8-9.05-10.08-2.8-3.39-.43-5.37-.33-8.86.43-14.66-3.98-30.07-2.91-44.73,1.12-15.37,12.6-40.95-.97-54.7-1.59-1.62-6.31-4.24-6.79-6.2-.61-2.51,1.84-5.63,2.27-8.2,1.16-7.09.05-16.89-1.95-23.91-.47-1.67-1.25-3.43-2.26-4.99-1.76-2.43-.25-5.45-.32-8.08-.19-6.51-1.73-15.6-.65-22.81,1.35-9.01,4.25-14.66,1.62-24.36-.1-.35-1.59-1.67-1.62-1.77-.8-2.73.23-7.01-.37-9.94.62-.25,1.68,1.34,1.84,1.57,2.98,4.16,5,20.26,4.63,25.2l-3.42,22.31s-1.34,6.79-.91,6.77c.44-.01,2.4-10.85,3.41-17.57,1.83-12.21,2.65-22.18-1.62-34.32-.74-2.11-3.29-4.41-3.56-5.09-.43-1.1.32-3.4,0-4.65.99.13,2.01,1.22,2.59,1.77,4.96,4.65,8.5,15.17,9.05,20.92,1.56,16.31-8.39,33.54-6.46,50.05,2.35,9.87,4.87,19.74,3.55,29.79-.24,1.88-2.12,4.33-1.94,6.2.36,3.75,11.71,8.57,12.94,16.17,3.41,21.1-5.8,43.46-4.53,65.1.38,6.44,2.6,13.22,2.91,19.49.18,3.62-2.07,9.91-1.29,12.63.61,2.15,7.13,5.93,7.76,7.75.55,1.57.48,6.01-.33,7.53ZM.36,123.37l.25-22.7c.61-1.16,1.85,3.67,1.89,3.99.54,3.62.83,7.17-.28,10.62-.15.47-1.29,6.92-1.86,8.09ZM26.15,305.74c-.02.19-.33.92-.64,1-2.25-6.53-.04-10.17,0-16.5.04-6.74-.03-18.36-.97-24.8-1.02-6.95-3.99-9.48-1.62-17.5.24-.82.8-3.62,2.59-2.99.31,18.89,3.11,42.4.64,60.79ZM26.15,78.97c-.02.19-.33.92-.64,1-2.25-6.53-.04-10.17,0-16.5.04-6.74-.03-18.36-.97-24.8-1.02-6.95-3.99-9.48-1.62-17.5.24-.82.8-3.62,2.59-2.99.31,18.89,3.11,42.4.64,60.79Z" fill="none"/><path d="M25.83,199.55c-.96.12-.87-.13-1.29-.55-1.8-1.79-6.31-5.62-6.47-7.53-.13-1.55,1.18-3.53,1.29-5.09.55-7.55-1.46-14.07-2.26-21.48-.29-2.68-.34-5.4-.32-8.09.07-4.74-.12-9.54.32-14.28,1.25-13.52,9.86-43.14.32-54.48-2-2.39-8.57-5.85-9.05-8.19-.43-2.11,1.68-4.82,1.94-6.87,1.84-14.49-5.09-27.48-3.23-42.3,1.28-10.26,5.25-20.39,5.9-30.69h3.15c-1.39,10.24-4.71,20.79-5.17,28.92-.85,14.73,3.49,29.97,2.91,44.74-.18,4.46-2.88,4.9,1.61,9.3,3.64,3.56,5.83,3.89,8.09,8.75.57,1.23.44,3.11,1.94,4.09l.64,61.01-.64,36.54c-2.18-6.58-.05-9.94,0-16.27.05-6.59-2.04-13.55-.97-20.27.57-6.21-3.1-10.83-2.59-17.16.17-2.07,1-5.22,1.62-7.31.22-.76,1.65-1.29.48-2.1-1.11,3.07-2.52,6.7-2.75,9.85-.43,6.07,3.37,10.72,2.59,16.72-.84,7.05,1.08,14.2.97,21.15-.06,3.8-1.93,9.43-1.29,13.07.39,2.24,1.84,3.43,2.26,6.75.08.58-.06,1.19,0,1.77Z" fill="#006838"/><path d="M25.83,206.53c-.08.61.32.88-.97.78-2.43-7.42-5.81-7.18-10.02-12.3-2.8-3.38-.43-5.37-.33-8.85.3-9.84-2.02-19.52-2.26-29.35.31-5.21-1.05-10.39-.65-15.61,1.17-15.34,12.58-40.69-.97-54.48-1.58-1.6-6.35-4.32-6.79-6.2-.56-2.39,1.87-5.86,2.27-8.41,1.79-11.54-1.35-18.87-4.86-29.57-1.33-4.07,1.24-7.39,1.94-11.18C5.17,20.77,7.48,10.4,7.57,0h5.03c-.82,11.02-5.48,22.34-6.49,33.13-1.3,13.68,5.38,26.12,3.55,40.08-.24,1.89-2.12,4.34-1.94,6.2.31,3.19,7.03,6.27,9.38,9.08,9.29,11.11.54,41.55-.65,54.93-.39,4.44-.26,8.94-.32,13.39-.58,7.66,2.5,15.64,2.91,23.15.2,3.66-2.08,10.09-1.29,12.84.63,2.2,7.06,5.79,7.76,7.75.23.66.43,5.16.32,5.98Z" fill="#006838"/><path d="M19.36,72.99c-.1,1.43-1.42,3.66-1.29,5.09.28,3.09,5.35,5.14,6.79,7.97h.97c.03-.63-.05-1.26,0-1.88.29-3.73-1.81-3.95-2.26-6.53-.64-3.69,1.25-9.44,1.29-13.29.09-7.13.1-19.33-.97-26.13-.36-2.32-2.3-5.03-2.59-7.53-.51-4.43,1.17-9.57,2.75-13.84l1.46.89c-.08-4.48.38-10.99.43-17.74h-4.5c-1.12,12.39-4.22,25.71-4.66,33.57-.75,13.46,3.49,26.65,2.59,39.42Z" fill="#ec008c"/><path d="M14.51,72.77c-.1,3.49-2.47,5.47.32,8.86,3.53,4.28,5.97,4.07,9.05,10.08.51.99.91,1.98,1.29,2.99.8-1.52.87-5.95.32-7.53-.63-1.81-7.15-5.6-7.76-7.75-.78-2.72,1.47-9.01,1.29-12.62-.31-6.28-2.53-13.06-2.91-19.49-.92-15.64,3.64-31.66,4.95-47.3h-4.44c-1.31,10.06-4.47,20.33-5.03,28.04-1.07,14.66,3.33,30.07,2.91,44.73Z" fill="#ec008c"/><path d="M25.18,321.47c-.38-1.02-.78-2.01-1.29-2.99-3.08-6.01-5.52-5.8-9.05-10.08-2.8-3.39-.43-5.37-.33-8.86.43-14.66-3.98-30.07-2.91-44.73,1.12-15.37,12.6-40.95-.97-54.7-1.59-1.62-6.31-4.24-6.79-6.2-.61-2.51,1.84-5.63,2.27-8.2,1.16-7.09.05-16.89-1.95-23.91-.47-1.67-1.25-3.43-2.26-4.99-1.76-2.43-.25-5.45-.32-8.08-.19-6.51-1.73-15.6-.65-22.81,1.35-9.01,4.25-14.66,1.62-24.36-.1-.35-1.59-1.67-1.62-1.77-.8-2.73.23-7.01-.37-9.94.62-.25,1.68,1.34,1.84,1.57,2.98,4.16,5,20.26,4.63,25.2l-3.42,22.31s-1.34,6.79-.91,6.77c.44-.01,2.4-10.85,3.41-17.57,1.83-12.21,2.65-22.18-1.62-34.32-.74-2.11-3.29-4.41-3.56-5.09-.43-1.1.32-3.4,0-4.65.99.13,2.01,1.22,2.59,1.77,4.96,4.65,8.5,15.17,9.05,20.92,1.56,16.31-8.39,33.54-6.46,50.05,2.35,9.87,4.87,19.74,3.55,29.79-.24,1.88-2.12,4.33-1.94,6.2.36,3.75,11.71,8.57,12.94,16.17,3.41,21.1-5.8,43.46-4.53,65.1.38,6.44,2.6,13.22,2.91,19.49.18,3.62-2.07,9.91-1.29,12.63.61,2.15,7.13,5.93,7.76,7.75.55,1.57.48,6.01-.33,7.53Z" fill="#006838"/><path d="M23.57,304.41c.45,2.59,2.55,2.81,2.26,6.54-.05.62.03,1.25,0,1.88h-.97c-1.44-2.83-6.51-4.88-6.79-7.97-.13-1.43,1.19-3.67,1.29-5.1.9-12.77-3.33-25.96-2.58-39.42.8-14.41,10.55-47.14.64-58.9-2.02-2.41-8.54-5.83-9.05-8.2-.5-2.33,1.64-4.81,1.94-7.08,1.28-9.88-1.5-19.64-3.56-29.35-1.92-16.69,7.81-33.51,6.15-50.05-.81-8-3.81-17.62-11.97-23.58-.45-13.16.35-26.39-.32-39.53,1.62,1.2,1.13,2.7,1.48,3.68,3.88,10.85,3.79,19.62,1.43,30.31-1.31,5.94,5.86,7.33,9.05,11.96,9.86,14.28-.7,37.49-1.61,52.49-.3,4.89,1.1,9.82.64,14.72.54,10.11,2.66,20.09,2.27,30.23-.18,4.47-2.88,4.91,1.61,9.3,1.19,1.17,3.77,3.55,4.74,4.58,8.22,8.72,5.1,32.45,5.29,43.59l-1.46-.89c-1.57,4.28-3.25,9.41-2.75,13.85.29,2.49,2.23,5.2,2.59,7.53,1.07,6.79,1.06,18.99.97,26.13-.05,3.85-1.94,9.6-1.29,13.28Z" fill="#006838"/><path d="M25.51,18.18c-1.79-.63-2.34,2.17-2.59,2.99-2.37,8.02.6,10.55,1.62,17.5.94,6.45,1.01,18.06.97,24.8-.04,6.33-2.25,9.97,0,16.5.31-.08.62-.81.65-1,2.47-18.39-.33-41.91-.65-60.79Z" fill="#ec008c"/><path d="M1.09,35.23c.63-.55.95-1.44,1.13-2.1C4.36,25.48,6.81,9.98,6.89,0h-3.29C2.88,4.14,1.59,8.08.93,12.31c-1.12,7.16.81,15.64.16,22.92Z" fill="#ec008c"/><path d="M2.5,104.66c-.05-.32-1.28-5.15-1.9-3.99l-.25,22.69c.57-1.16,1.71-7.61,1.87-8.09,1.1-3.45.81-6.99.28-10.62Z" fill="#ec008c"/><path d="M2.51,0H.69l.07,10.43C1.45,6.62,2.07,3.05,2.51,0Z" fill="#ec008c"/><path d="M26.8,1.46v25.25c1.27-2.27,1.36-4.51,1.53-6.2.45-4.49,1.18-8.37.41-13.51.71-.14.59.41.65.66,1.62,7.65-.82,13.53-1.94,20.6-1.08,6.84-.14,14.77.23,22.8.39,8.4.22,16.91.09,24.37-.14,8.09-1.14,16.26-1.29,24.36,3.68-2.67,5.42,3.2,7.44,5.09,2.04,1.92,6.25,3.77,8.32,5.68v-2.5c-3.43-2.65-7.04-5.13-8.97-8.5-2.29-3.99-4.07-11.39-4.53-15.72-.3-2.85,1-6.24-.65-8.64l1.29.44c.14,8.14.23,19.84,7.11,26.8,1.53,1.54,3.65,3.02,5.73,4.56v-1.62c-1.09-.98-2-1.92-2.5-2.72-5.91-9.49-7.72-25.33-8.41-35.65-.38-5.67,2.06-11.02,2.54-16.61.62-7.1-1.48-13.67-1.25-20.6.19-5.89.75-16.08,1.94-21.7.05-.25-.07-.81.65-.66-.4,4.27-.3,8.57-.65,12.84-.73,9.09-.24,14.16.32,23.03.53,8.26-3.41,15.92-2.91,23.47.63,9.67,2.67,27.14,8.41,35.88.45.68,1.1,1.39,1.85,2.11v-5.63c-6.29-10.37-7.92-25.51-7.03-35.23.55-5.95,3.49-12.3,3.88-18.38.41-6.26,1.59-37.62-.97-41.41-.3-.45-1.71-1.84-2.43-1.88-1.8-.1-5.28,4.01-2.1,4.76-4.74.2-.31-4.95.81-5.2,1.63-.37,3.37.77,4.04,1.66,2.6,3.44,1.67,35.96,1.29,42.08-.87,14.07-5.17,23.58-2.59,38.75.73,4.3,2.27,9.39,5.09,13.86v-6.81c-2.05-7.35-3.27-19.07-3.47-22.77-.32-6.02,1.53-8.78,2.91-14.17.2-.78.38-1.61.56-2.5V6.77c-.17-.78-.36-1.52-.56-2.2-.52-1.79-1.56-3.38-2.91-4.56h-10.61c-.47.42-.92.9-1.36,1.46Z" fill="#ec008c"/><path d="M34.24,105.99c-1.36-1.15-4.91-6.83-6.31-6.53-1.91.41-.87,7.15-1.13,8.53,1.83.06,2.44-3.13,4.53-1.99-3.6,1.17-5.94,5.14-3.88,7.31,2.34-3.41,8.73-3.47,11.96-.66,1.12.98,2.06,3.14,2.82,5.7v-6.52c-.28-.32-.57-.64-.88-.95-1.95-1.95-5.21-3.27-7.11-4.87Z" fill="#ec008c"/><path d="M39.74,71.22c.25,3.12,1.05,11.49,2.5,17.89v-15.68c-.09-.74-.17-1.48-.24-2.21-.15-1.72-.03-3.68.24-5.77v-9.61c-1.44,4.61-3.02,8.78-2.5,15.38Z" fill="#ec008c"/><path d="M42.24,0h-2.37c1.06,1.16,1.87,2.57,2.37,4.08V0Z" fill="#ec008c"/><path d="M27.31,0h-.09s.04.02.07.02c0,0,.02-.01.03-.02Z" fill="#ec008c"/><path d="M42.24,120.17v45.04c-1.44,5.37-3.76,10.51-3.47,16.52.17,3.71,1.41,15.55,3.47,22.96v7.22c-5.03-8.08-6.95-24.74-6.38-33.5.45-7.05,4.07-14.43,3.88-21.6-1.73-11.43,1.88-23.76.32-35.1-.24-1.73-1.64-7.43-5.66-6.53-1.22.27-5.72,5.68-.48,5.2-3.83-.63.14-4.98,1.77-4.76,3.76.51,3.95,9.32,4.05,11.41.47,9.93-1.97,19.85-.65,29.78-.69,9.45-4.2,18.01-3.88,27.57.3,9,1.52,19.68,7.03,28.31v5.5c-.77-.73-1.42-1.45-1.86-2.14-5.76-8.96-7.78-26.02-8.4-35.87-.49-7.64,4.26-15.53,2.91-23.37h.01c-.99-3.98-1.45-5.84-1.63-8.74-.57-9.07,2.77-18.26,1.45-27.35-.3,12.04-3.61,24.13-.48,36.09,1.38,7.99-3.45,16.01-2.91,23.81.7,10.24,2.54,26.03,8.41,35.43.57.93,1.47,1.86,2.5,2.81v1.51c-3.32-2.61-6.8-5.15-8.65-8.3-3.92-6.72-4.14-15.84-4.2-23.03l-1.3-.45c1.69,2.4.35,5.78.65,8.64.54,5.13,2.98,15.04,7.12,19.27,1.72,1.76,4.13,3.19,6.38,4.73v2.77c-2.49-2.07-6.2-3.75-8.32-5.73-2.08-1.94-3.64-7.68-7.44-5.1.33-3.78.54-7.62.64-11.4.43-14.99.7-29.96.33-44.96.57-4.81-.77-10.45,0-15.17,1.14-7.06,3.56-12.94,1.94-20.59-.06-.26.06-.81-.65-.67-.33,4.57.23,9.09-.26,13.65-.17,1.63-.52,3.32-1.68,6.06v-25.24c5.28-6.78,13.09-3.01,14.88,3.1.19.65.38,1.4.56,2.22Z" fill="#006838"/><path d="M23.57,318.48c-2.26-4.85-4.44-5.18-8.08-8.75-4.49-4.4-1.79-4.84-1.62-9.3.58-14.77-3.75-30-2.91-44.73.86-15.05,11.5-38.38,1.62-52.71-2.04-2.96-8.93-6.59-9.38-9.52-.35-2.34,1.86-4.81,2.26-7.09,1.08-6.09.19-23.18-3.56-28.57-.36-.52-.23-.91-1.29-.78l.32,39.53c8.14,5.96,11.16,15.59,11.96,23.59,1.27,12.6-4.26,24.86-5.82,37.32-1.85,14.82,5.07,27.8,3.23,42.3-.26,2.05-2.37,4.76-1.94,6.87.48,2.34,7.05,5.81,9.05,8.19,8.48,10.08,2.61,34.61.33,49.43h3.96c.55-2.44,1.52-4.99,2.34-7.24,1.16.81-.26,1.34-.49,2.1-.43,1.44-.95,3.39-1.29,5.14h3.67l-.44-41.68c-1.49-.98-1.36-2.86-1.94-4.1Z" fill="#ec008c"/><path d="M17.1,315.27c-2.35-2.81-9.07-5.9-9.38-9.08-.18-1.87,1.69-4.32,1.94-6.2,1.83-13.97-4.85-26.41-3.56-40.08,1.22-12.97,7.72-26.69,6.47-39.75-.55-5.72-4.1-16.31-9.05-20.93-.48-.45-1.62-1.67-2.59-1.55.3,1.2-.41,3.38,0,4.43.1.25.51.72,1.01,1.32.13.1.23.18.28.23.09.09.19.24.29.44.77.93,1.6,2.04,1.98,3.1,6.02,17.13,1.91,33.73-1.29,50.94-.71,3.79-3.27,7.12-1.94,11.18,3.5,10.7,6.65,18.02,4.85,29.56-.4,2.56-2.82,6.03-2.26,8.42.44,1.88,5.21,4.59,6.79,6.2,12.51,12.72,3.76,35.3,1.41,50.76h5.19c2.36-14.95,7.96-39.31-.13-48.99Z" fill="#ec008c"/><path d="M2.4,318.19c-.17-.23-1.22-1.82-1.84-1.57.6,2.93-.44,7.21.37,9.94.03.1,1.52,1.42,1.62,1.77,2.64,9.7-.27,15.35-1.62,24.36-.53,3.57-.43,7.61-.16,11.56h3.06l3.2-20.86c.36-4.93-1.65-21.04-4.63-25.2Z" fill="#ec008c"/><path d="M12.57,333.54c-.55-5.75-4.09-16.27-9.05-20.93-.58-.54-1.6-1.63-2.59-1.77.32,1.25-.43,3.56,0,4.65.27.69,2.82,2.99,3.56,5.09,4.27,12.14,3.45,22.11,1.62,34.33-.42,2.76-.99,6.23-1.56,9.35h3.29c2.31-10.33,5.69-20.7,4.74-30.72Z" fill="#ec008c"/><path d="M12.57,316.37c-3.19-4.63-10.36-6.02-9.05-11.96,2.36-10.69,2.45-19.46-1.42-30.31-.35-.98.13-2.48-1.49-3.68.67,13.14-.12,26.37.32,39.53,8.15,5.96,11.16,15.58,11.96,23.59,1.02,10.16-2.26,20.43-4.49,30.72h3.07c2.27-14.83,9.99-34.99,1.1-47.88Z" fill="#ec008c"/><path d="M25.51,244.95c-1.79-.63-2.34,2.17-2.59,2.99-2.37,8.02.6,10.55,1.62,17.5.94,6.45,1.01,18.06.97,24.8-.04,6.33-2.25,9.97,0,16.5.31-.08.62-.81.65-1,2.47-18.39-.33-41.91-.65-60.79Z" fill="#ec008c"/><path d="M1.95,203.42c-.3-.23-.76-.5-1.01-.43.6,2.93-.8,7.46,0,10.19.42,1.41,2.61,2.05,2.95,4.53,1.09,7.86-1.83,14.21-2.95,21.38-1.12,7.16.81,15.64.16,22.92.63-.55.95-1.44,1.13-2.1,2.54-9.09,5.52-29.25,4.44-38.09-.28-2.33-2.7-14.91-4.15-17.72-.1-.19-.2-.34-.29-.44-.05-.05-.15-.14-.28-.23Z" fill="#ec008c"/><path d="M2.22,342.05c1.1-3.45.81-6.99.28-10.62-.05-.32-1.28-5.15-1.9-3.99l-.25,22.69c.57-1.16,1.71-7.61,1.87-8.09Z" fill="#ec008c"/><path d="M.77,237.2c1.18-6.67,2.23-12.65,2.36-16.27.04-1.29-.44-4.16-.74-4.86-.52-1.23-1.34-2.27-1.78-1.43l.16,22.55Z" fill="#ec008c"/><path d="M34.24,332.76c-1.36-1.15-4.91-6.83-6.31-6.53-1.91.41-.87,7.15-1.13,8.53,1.83.06,2.44-3.13,4.53-1.99-3.6,1.17-5.94,5.14-3.88,7.31,2.34-3.41,8.73-3.47,11.96-.66,1.12.98,2.06,3.14,2.82,5.7v-6.52c-.28-.32-.57-.64-.88-.95-1.95-1.95-5.21-3.27-7.11-4.87Z" fill="#ec008c"/><path d="M26.8,228.23v25.25c1.27-2.27,1.36-4.51,1.53-6.2.45-4.49,1.18-8.37.41-13.51.71-.14.59.41.65.66,1.62,7.65-.82,13.53-1.94,20.6-1.08,6.84-.14,14.77.23,22.8.39,8.4.22,16.91.09,24.37-.14,8.09-1.14,16.26-1.29,24.36,3.68-2.67,5.42,3.2,7.44,5.09,2.04,1.92,6.25,3.77,8.32,5.68v-2.5c-3.43-2.65-7.04-5.13-8.97-8.5-2.29-3.99-4.07-11.39-4.53-15.72-.3-2.85,1-6.24-.65-8.64l1.29.44c.14,8.14.23,19.84,7.11,26.8,1.53,1.54,3.65,3.02,5.73,4.56v-1.62c-1.09-.98-2-1.92-2.5-2.72-5.91-9.49-7.72-25.33-8.41-35.65-.38-5.67,2.06-11.02,2.54-16.61.62-7.1-1.48-13.67-1.25-20.6.19-5.89.75-16.08,1.94-21.7.05-.25-.07-.81.65-.66-.4,4.27-.3,8.57-.65,12.84-.73,9.09-.24,14.16.32,23.03.53,8.26-3.41,15.92-2.91,23.47.63,9.67,2.67,27.14,8.41,35.88.45.68,1.1,1.39,1.85,2.11v-5.63c-6.29-10.37-7.92-25.51-7.03-35.23.55-5.95,3.49-12.3,3.88-18.38.41-6.26,1.59-37.62-.97-41.41-.3-.45-1.71-1.84-2.43-1.88-1.8-.1-5.28,4.01-2.1,4.76-4.74.2-.31-4.95.81-5.2,1.63-.37,3.37.77,4.04,1.66,2.6,3.44,1.67,35.96,1.29,42.08-.87,14.07-5.17,23.58-2.59,38.75.73,4.3,2.27,9.39,5.09,13.86v-6.81c-2.05-7.35-3.27-19.07-3.47-22.77-.32-6.02,1.53-8.78,2.91-14.17.2-.78.38-1.61.56-2.5v-45.12c-.17-.78-.36-1.52-.56-2.2-1.76-6.07-9.54-9.91-14.88-3.1Z" fill="#ec008c"/><path d="M40.38,223.36c-1.56-1.41-4.69-2.76-6.14-3.99-1.17-.99-5.11-6.5-5.66-6.53-2.94-.19-1.41,7.19-1.78,8.53,1.83.06,2.44-3.13,4.53-1.99-1.27.12-3.51,2.1-3.88,2.77-.38.68-1.34,4.54-.16,4.65,6.56-6.1,13.07-1.64,14.95,4.06v-5.58c-.55-.64-1.16-1.28-1.85-1.9Z" fill="#ec008c"/><path d="M39.74,297.99c.25,3.12,1.05,11.49,2.5,17.89v-15.68c-.09-.74-.17-1.48-.24-2.21-.15-1.72-.03-3.68.24-5.77v-9.61c-1.44,4.61-3.02,8.78-2.5,15.38Z" fill="#ec008c"/><path d="M42.24,346.94c-.18-.81-.37-1.57-.56-2.22-1.79-6.11-9.59-9.88-14.88-3.1v22.63h.97c.42-1.35.6-2.42.71-3.45.49-4.56-.07-9.08.26-13.64.71-.14.59.41.65.66,1.3,6.11.02,11.08-1.13,16.43h5.05c.49-5.59,1.27-11.18,1.42-16.76.81,5.57-.13,11.17-.85,16.76h5.57c.26-3.48.46-6.97.29-10.45-.1-2.09-.29-10.9-4.04-11.41-1.63-.22-5.6,4.13-1.78,4.76-5.23.47-.73-4.93.49-5.2,4.02-.9,5.42,4.8,5.66,6.53.7,5.11.35,10.43-.08,15.77h2.26v-17.31Z" fill="#ec008c"/><path d="M42.24,202.3v-21.42c-.07-.56-.14-1.09-.24-1.59l.24-.92v-11.36c-1.03,2.65-2.16,5.27-2.5,7.86-.49,3.7.65,18.31,2.5,27.44Z" fill="#ec008c"/></svg>